M48
;GenerationSoftware,Autodesk,EAGLE,9.6.2*%
;CreationDate,2020-09-22T17:29:28Z*%
FMAT,2
ICI,OFF
INCH,TZ,000.000
T4C0.010
T3C0.015
T2C0.079
T1C0.125
%
G90
M72
T1
X-650Y-900
X-650Y50
X700Y50
X700Y-900
T2
X25Y80
T3
X-400Y-825
X-400Y-788
X-400Y-750
X-400Y-863
X-400Y-63
X-400Y-25
X-400Y13
X-400Y-100
X450Y-63
X450Y-25
X450Y13
X450Y-100
X450Y-825
X450Y-788
X450Y-750
X450Y-863
T4
X208Y-152
X326Y-639
X326Y-219
X326Y-249
X326Y-279
X326Y-309
X326Y-339
X326Y-369
X326Y-399
X326Y-429
X326Y-459
X326Y-489
X326Y-519
X326Y-549
X326Y-579
X326Y-609
X94Y-619
X125Y-772
X142Y0
X166Y-49
X117Y49
X-250Y150
X50Y150
X350Y150
X400Y-169
X400Y-450
X-350Y-169
X200Y-950
X-350Y-950
X-100Y-950
X-350Y-681
X-350Y-450
X400Y-681
X296Y-384
X-124Y-331
X296Y-354
X-124Y-283
X296Y-324
X-124Y-236
X296Y-294
X-124Y-189
X296Y-264
X-124Y-142
X-148Y-24
X-124Y-94
X296Y-204
X-124Y-47
X180Y-167
X137Y-50
X69Y-141
X69Y-172
X69Y-219
X69Y-250
X68Y-312
X68Y-344
X69Y-422
X69Y-453
X69Y-506
X69Y-538
X69Y-603
X69Y-638
X97Y-759
X96Y-789
X296Y-654
X222Y-722
X296Y-624
X-124Y-709
X296Y-594
X-124Y-661
X296Y-564
X-124Y-614
X296Y-534
X-124Y-567
X296Y-504
X-124Y-520
X296Y-474
X-124Y-472
X296Y-444
X-124Y-425
X117Y-18
X247Y-666
X206Y-184
X117Y18
X87Y43
X296Y-414
X-124Y-378
X-124Y0
X231Y-691
X94Y-234
X94Y-156
X94Y-522
X94Y-329
X94Y-438
X-148Y-685
X-148Y-638
X-148Y-591
X-148Y-543
X-148Y-496
X-148Y-449
X-148Y-402
X-148Y-354
X-148Y-307
X-148Y-260
X-148Y-213
X-148Y-165
X-148Y-118
X-148Y-71
X296Y-234
M30