M48
;GenerationSoftware,Autodesk,EAGLE,9.6.2*%
;CreationDate,2020-09-28T15:24:11Z*%
FMAT,2
ICI,OFF
INCH,TZ,000.000
T4C0.010
T3C0.015
T2C0.019
T1C0.125
%
G90
M72
T1
X700Y-900
X700Y50
X-650Y50
X-650Y-900
T2
X-50Y-142
X-50Y-94
X-50Y-47
X-50Y0
X100Y-71
X0Y-354
X0Y-402
X0Y-449
X0Y-496
X0Y-543
X0Y-591
X0Y-71
X0Y-118
X0Y-165
X0Y-213
X50Y0
X100Y-685
X-50Y-614
X-50Y-567
X0Y-638
X0Y-685
X0Y-732
X0Y-260
X0Y-307
X-50Y-709
X-50Y-661
X-50Y-425
X-50Y-378
X-50Y-236
X-50Y-189
X-50Y-283
X-50Y-331
X-50Y-472
X-50Y-520
T3
X-400Y-788
X-400Y-750
X-400Y-863
X-400Y-63
X-400Y-25
X-400Y13
X-400Y-100
X450Y-63
X450Y-25
X450Y13
X450Y-100
X-400Y-825
X450Y-825
X450Y-788
X450Y-750
X450Y-863
T4
X-188Y156
X63Y156
X-266Y-1000
X296Y-384
X296Y-354
X296Y-324
X296Y-294
X296Y-264
X296Y-234
X296Y-204
X-85Y-24
X296Y-624
X296Y-594
X296Y-564
X296Y-534
X296Y-504
X296Y-474
X296Y-444
X245Y-665
X211Y-181
X296Y-414
X-16Y-1000
X406Y-922
X136Y-685
X35Y-189
X35Y-236
X35Y-283
X35Y-331
X35Y-378
X35Y-425
X35Y-472
X35Y-520
X35Y-567
X35Y-614
X406Y-406
X-359Y-422
X-359Y-672
X-359Y-922
X234Y-1000
X-359Y-172
X415Y-672
X415Y-190
X406Y78
X313Y156
X-359Y78
X136Y-74
X35Y-709
X322Y-579
X321Y-519
X322Y-460
X321Y-399
X321Y-339
X321Y-279
X321Y-219
X321Y-639
X210Y-665
X35Y-142
X35Y-94
X35Y-661
X89Y0
X-83Y-685
X-83Y-638
X-83Y-591
X-83Y-543
X-83Y-496
X-83Y-449
X-83Y-402
X-83Y-354
X-83Y-307
X-83Y-260
X-83Y-213
X-83Y-165
X-83Y-118
X-83Y-71
X296Y-654
M30