G04 EAGLE Gerber RS-274X export*
G75*
%MOIN*%
%FSLAX34Y34*%
%LPD*%
%INBottom Copper*%
%IPPOS*%
%AMOC8*
5,1,8,0,0,1.08239X$1,22.5*%
G01*
%ADD10C,0.059055*%
%ADD11R,0.021654X0.039370*%
%ADD12R,0.023622X0.039370*%
%ADD13R,0.039370X0.021654*%
%ADD14R,0.039370X0.023622*%
%ADD15C,0.023000*%
%ADD16C,0.024000*%
%ADD17C,0.006000*%
%ADD18C,0.020000*%
%ADD19C,0.010000*%

G36*
X4001Y-10269D02*
X4001Y-10269D01*
X4010Y-10269D01*
X4043Y-10266D01*
X4043Y-10265D01*
X4052Y-10264D01*
X4060Y-10262D01*
X4061Y-10262D01*
X4071Y-10258D01*
X4132Y-10233D01*
X4137Y-10231D01*
X4142Y-10229D01*
X4145Y-10227D01*
X4148Y-10225D01*
X4152Y-10222D01*
X4156Y-10219D01*
X4160Y-10215D01*
X4162Y-10214D01*
X4163Y-10213D01*
X4165Y-10212D01*
X4212Y-10165D01*
X4215Y-10161D01*
X4218Y-10157D01*
X4220Y-10154D01*
X4223Y-10151D01*
X4225Y-10147D01*
X4228Y-10142D01*
X4231Y-10137D01*
X4232Y-10136D01*
X4232Y-10135D01*
X4233Y-10132D01*
X4258Y-10071D01*
X4259Y-10071D01*
X4261Y-10063D01*
X4264Y-10054D01*
X4266Y-10043D01*
X4269Y-10010D01*
X4269Y-10008D01*
X4269Y-10000D01*
X4269Y-9135D01*
X4269Y-9133D01*
X4269Y-9132D01*
X4268Y-9125D01*
X4268Y-9117D01*
X4267Y-9116D01*
X4267Y-9114D01*
X4265Y-9107D01*
X4263Y-9100D01*
X4262Y-9099D01*
X4262Y-9097D01*
X4259Y-9091D01*
X4255Y-9084D01*
X4254Y-9083D01*
X4254Y-9082D01*
X4249Y-9076D01*
X4245Y-9070D01*
X4244Y-9069D01*
X4243Y-9068D01*
X4238Y-9063D01*
X4232Y-9058D01*
X4231Y-9057D01*
X4230Y-9056D01*
X4224Y-9052D01*
X4218Y-9048D01*
X4216Y-9047D01*
X4215Y-9046D01*
X4208Y-9044D01*
X4202Y-9041D01*
X4200Y-9041D01*
X4198Y-9040D01*
X4191Y-9038D01*
X4184Y-9037D01*
X4183Y-9037D01*
X4181Y-9036D01*
X4170Y-9036D01*
X3985Y-9036D01*
X3964Y-9015D01*
X3964Y-6985D01*
X3985Y-6964D01*
X4170Y-6964D01*
X4172Y-6964D01*
X4173Y-6964D01*
X4180Y-6963D01*
X4188Y-6963D01*
X4189Y-6962D01*
X4191Y-6962D01*
X4198Y-6960D01*
X4205Y-6958D01*
X4206Y-6957D01*
X4208Y-6957D01*
X4214Y-6954D01*
X4221Y-6950D01*
X4222Y-6949D01*
X4223Y-6949D01*
X4229Y-6944D01*
X4235Y-6940D01*
X4236Y-6939D01*
X4237Y-6938D01*
X4242Y-6933D01*
X4247Y-6927D01*
X4248Y-6926D01*
X4249Y-6925D01*
X4253Y-6919D01*
X4257Y-6913D01*
X4258Y-6911D01*
X4259Y-6910D01*
X4261Y-6903D01*
X4264Y-6897D01*
X4264Y-6895D01*
X4265Y-6893D01*
X4267Y-6886D01*
X4268Y-6879D01*
X4268Y-6878D01*
X4269Y-6876D01*
X4269Y-6865D01*
X4269Y-1635D01*
X4269Y-1633D01*
X4269Y-1632D01*
X4268Y-1625D01*
X4268Y-1617D01*
X4267Y-1616D01*
X4267Y-1614D01*
X4265Y-1607D01*
X4263Y-1600D01*
X4262Y-1599D01*
X4262Y-1597D01*
X4259Y-1591D01*
X4255Y-1584D01*
X4254Y-1583D01*
X4254Y-1582D01*
X4249Y-1576D01*
X4245Y-1570D01*
X4244Y-1569D01*
X4243Y-1568D01*
X4238Y-1563D01*
X4232Y-1558D01*
X4231Y-1557D01*
X4230Y-1556D01*
X4224Y-1552D01*
X4218Y-1548D01*
X4216Y-1547D01*
X4215Y-1546D01*
X4208Y-1544D01*
X4202Y-1541D01*
X4200Y-1541D01*
X4198Y-1540D01*
X4191Y-1538D01*
X4184Y-1537D01*
X4183Y-1537D01*
X4181Y-1536D01*
X4170Y-1536D01*
X3985Y-1536D01*
X3964Y-1515D01*
X3964Y383D01*
X3964Y388D01*
X3964Y394D01*
X3963Y397D01*
X3963Y401D01*
X3961Y406D01*
X3960Y411D01*
X3959Y414D01*
X3958Y418D01*
X3956Y422D01*
X3954Y427D01*
X3952Y430D01*
X3950Y434D01*
X3947Y438D01*
X3945Y442D01*
X3942Y445D01*
X3940Y448D01*
X3936Y452D01*
X3933Y456D01*
X3930Y458D01*
X3927Y460D01*
X3923Y463D01*
X3919Y466D01*
X3916Y468D01*
X3913Y470D01*
X3908Y472D01*
X3903Y475D01*
X3900Y476D01*
X3897Y477D01*
X3891Y478D01*
X3886Y480D01*
X3883Y480D01*
X3879Y481D01*
X3874Y482D01*
X3869Y482D01*
X3865Y482D01*
X3862Y482D01*
X3857Y482D01*
X3851Y481D01*
X3848Y481D01*
X3844Y480D01*
X3839Y479D01*
X3834Y477D01*
X3831Y476D01*
X3827Y475D01*
X3823Y472D01*
X3818Y470D01*
X3815Y468D01*
X3812Y467D01*
X3807Y464D01*
X3803Y461D01*
X3799Y457D01*
X3798Y456D01*
X3797Y455D01*
X3795Y453D01*
X3737Y395D01*
X3583Y332D01*
X3417Y332D01*
X3263Y395D01*
X3145Y513D01*
X3082Y667D01*
X3082Y833D01*
X3145Y987D01*
X3263Y1105D01*
X3417Y1168D01*
X3583Y1168D01*
X3737Y1105D01*
X3855Y987D01*
X3918Y833D01*
X3918Y666D01*
X3917Y661D01*
X3916Y656D01*
X3915Y653D01*
X3914Y649D01*
X3914Y644D01*
X3913Y639D01*
X3914Y635D01*
X3913Y632D01*
X3914Y626D01*
X3914Y621D01*
X3915Y618D01*
X3916Y614D01*
X3917Y609D01*
X3918Y604D01*
X3920Y601D01*
X3921Y597D01*
X3923Y593D01*
X3925Y588D01*
X3927Y585D01*
X3929Y582D01*
X3932Y577D01*
X3935Y573D01*
X3938Y570D01*
X3940Y568D01*
X3944Y564D01*
X3947Y560D01*
X3950Y558D01*
X3953Y556D01*
X3957Y553D01*
X3962Y550D01*
X3965Y548D01*
X3968Y546D01*
X3973Y544D01*
X3978Y542D01*
X3981Y541D01*
X3984Y540D01*
X3989Y539D01*
X3995Y537D01*
X3998Y537D01*
X4001Y536D01*
X4012Y536D01*
X4013Y536D01*
X4170Y536D01*
X4172Y536D01*
X4173Y536D01*
X4180Y537D01*
X4188Y537D01*
X4189Y538D01*
X4191Y538D01*
X4198Y540D01*
X4205Y542D01*
X4206Y543D01*
X4208Y543D01*
X4214Y546D01*
X4221Y550D01*
X4222Y551D01*
X4223Y551D01*
X4229Y556D01*
X4235Y560D01*
X4236Y561D01*
X4237Y562D01*
X4242Y567D01*
X4247Y573D01*
X4248Y574D01*
X4249Y575D01*
X4253Y581D01*
X4257Y587D01*
X4258Y589D01*
X4259Y590D01*
X4261Y597D01*
X4264Y603D01*
X4264Y605D01*
X4265Y607D01*
X4267Y614D01*
X4268Y621D01*
X4268Y622D01*
X4269Y624D01*
X4269Y635D01*
X4269Y1500D01*
X4269Y1501D01*
X4269Y1510D01*
X4266Y1543D01*
X4265Y1543D01*
X4264Y1552D01*
X4262Y1560D01*
X4262Y1561D01*
X4258Y1571D01*
X4233Y1632D01*
X4231Y1637D01*
X4229Y1642D01*
X4227Y1645D01*
X4225Y1648D01*
X4222Y1652D01*
X4219Y1656D01*
X4215Y1660D01*
X4214Y1662D01*
X4213Y1663D01*
X4212Y1665D01*
X4165Y1712D01*
X4161Y1715D01*
X4157Y1718D01*
X4155Y1719D01*
X4155Y1720D01*
X4154Y1721D01*
X4151Y1723D01*
X4147Y1725D01*
X4142Y1728D01*
X4137Y1731D01*
X4136Y1732D01*
X4135Y1732D01*
X4132Y1733D01*
X4071Y1758D01*
X4071Y1759D01*
X4063Y1761D01*
X4054Y1764D01*
X4043Y1766D01*
X4010Y1769D01*
X4008Y1769D01*
X4000Y1769D01*
X-3500Y1769D01*
X-3501Y1769D01*
X-3510Y1769D01*
X-3543Y1766D01*
X-3543Y1765D01*
X-3552Y1764D01*
X-3560Y1762D01*
X-3561Y1762D01*
X-3571Y1758D01*
X-3632Y1733D01*
X-3637Y1731D01*
X-3642Y1729D01*
X-3645Y1727D01*
X-3646Y1726D01*
X-3648Y1725D01*
X-3652Y1722D01*
X-3656Y1719D01*
X-3659Y1716D01*
X-3660Y1716D01*
X-3661Y1715D01*
X-3662Y1714D01*
X-3663Y1713D01*
X-3665Y1712D01*
X-3712Y1665D01*
X-3715Y1661D01*
X-3718Y1657D01*
X-3720Y1654D01*
X-3723Y1651D01*
X-3725Y1647D01*
X-3728Y1642D01*
X-3731Y1637D01*
X-3732Y1636D01*
X-3732Y1635D01*
X-3733Y1632D01*
X-3758Y1571D01*
X-3759Y1571D01*
X-3761Y1562D01*
X-3764Y1554D01*
X-3766Y1543D01*
X-3769Y1510D01*
X-3769Y1508D01*
X-3769Y1500D01*
X-3769Y635D01*
X-3769Y633D01*
X-3769Y632D01*
X-3768Y625D01*
X-3768Y617D01*
X-3767Y616D01*
X-3767Y614D01*
X-3765Y607D01*
X-3763Y600D01*
X-3762Y599D01*
X-3762Y597D01*
X-3759Y591D01*
X-3755Y584D01*
X-3754Y583D01*
X-3754Y582D01*
X-3749Y576D01*
X-3745Y570D01*
X-3744Y569D01*
X-3743Y568D01*
X-3738Y563D01*
X-3732Y558D01*
X-3731Y557D01*
X-3730Y556D01*
X-3724Y552D01*
X-3718Y548D01*
X-3716Y547D01*
X-3715Y546D01*
X-3708Y544D01*
X-3702Y541D01*
X-3700Y541D01*
X-3698Y540D01*
X-3691Y538D01*
X-3684Y537D01*
X-3683Y537D01*
X-3681Y536D01*
X-3670Y536D01*
X-3513Y536D01*
X-3509Y536D01*
X-3506Y536D01*
X-3500Y537D01*
X-3495Y537D01*
X-3492Y538D01*
X-3488Y539D01*
X-3483Y541D01*
X-3478Y542D01*
X-3475Y543D01*
X-3472Y545D01*
X-3467Y547D01*
X-3462Y550D01*
X-3459Y552D01*
X-3456Y553D01*
X-3452Y557D01*
X-3448Y560D01*
X-3445Y562D01*
X-3443Y565D01*
X-3439Y569D01*
X-3435Y573D01*
X-3433Y575D01*
X-3431Y578D01*
X-3429Y583D01*
X-3426Y587D01*
X-3424Y590D01*
X-3422Y593D01*
X-3421Y599D01*
X-3418Y603D01*
X-3418Y607D01*
X-3416Y610D01*
X-3416Y615D01*
X-3414Y621D01*
X-3414Y624D01*
X-3414Y627D01*
X-3414Y633D01*
X-3413Y638D01*
X-3414Y642D01*
X-3414Y645D01*
X-3415Y650D01*
X-3416Y656D01*
X-3417Y659D01*
X-3417Y662D01*
X-3418Y666D01*
X-3418Y833D01*
X-3355Y987D01*
X-3237Y1105D01*
X-3083Y1168D01*
X-2917Y1168D01*
X-2763Y1105D01*
X-2645Y987D01*
X-2582Y833D01*
X-2582Y667D01*
X-2645Y513D01*
X-2763Y395D01*
X-2917Y332D01*
X-3083Y332D01*
X-3237Y395D01*
X-3295Y453D01*
X-3299Y457D01*
X-3303Y460D01*
X-3306Y462D01*
X-3308Y465D01*
X-3313Y467D01*
X-3317Y470D01*
X-3321Y472D01*
X-3324Y473D01*
X-3329Y475D01*
X-3333Y477D01*
X-3337Y478D01*
X-3340Y479D01*
X-3346Y480D01*
X-3351Y481D01*
X-3354Y481D01*
X-3358Y482D01*
X-3363Y482D01*
X-3368Y482D01*
X-3372Y482D01*
X-3375Y482D01*
X-3381Y481D01*
X-3386Y480D01*
X-3389Y479D01*
X-3393Y478D01*
X-3398Y476D01*
X-3403Y475D01*
X-3406Y473D01*
X-3409Y472D01*
X-3414Y469D01*
X-3418Y467D01*
X-3421Y465D01*
X-3424Y463D01*
X-3428Y459D01*
X-3432Y456D01*
X-3435Y453D01*
X-3437Y451D01*
X-3441Y447D01*
X-3444Y443D01*
X-3446Y440D01*
X-3448Y437D01*
X-3451Y432D01*
X-3454Y428D01*
X-3455Y425D01*
X-3457Y421D01*
X-3458Y416D01*
X-3460Y411D01*
X-3461Y408D01*
X-3462Y405D01*
X-3463Y399D01*
X-3464Y394D01*
X-3464Y389D01*
X-3464Y387D01*
X-3464Y386D01*
X-3464Y383D01*
X-3464Y-1515D01*
X-3485Y-1536D01*
X-3670Y-1536D01*
X-3672Y-1536D01*
X-3673Y-1536D01*
X-3680Y-1537D01*
X-3688Y-1537D01*
X-3689Y-1538D01*
X-3691Y-1538D01*
X-3698Y-1540D01*
X-3705Y-1542D01*
X-3706Y-1543D01*
X-3708Y-1543D01*
X-3714Y-1546D01*
X-3721Y-1550D01*
X-3722Y-1551D01*
X-3723Y-1551D01*
X-3729Y-1556D01*
X-3735Y-1560D01*
X-3736Y-1561D01*
X-3737Y-1562D01*
X-3742Y-1567D01*
X-3747Y-1573D01*
X-3748Y-1574D01*
X-3749Y-1575D01*
X-3753Y-1581D01*
X-3757Y-1587D01*
X-3758Y-1589D01*
X-3759Y-1590D01*
X-3761Y-1597D01*
X-3764Y-1603D01*
X-3764Y-1605D01*
X-3765Y-1607D01*
X-3767Y-1614D01*
X-3768Y-1621D01*
X-3768Y-1622D01*
X-3769Y-1624D01*
X-3769Y-1635D01*
X-3769Y-6865D01*
X-3769Y-6867D01*
X-3769Y-6868D01*
X-3768Y-6875D01*
X-3768Y-6883D01*
X-3767Y-6884D01*
X-3767Y-6886D01*
X-3765Y-6893D01*
X-3763Y-6900D01*
X-3762Y-6901D01*
X-3762Y-6903D01*
X-3759Y-6909D01*
X-3755Y-6916D01*
X-3754Y-6917D01*
X-3754Y-6918D01*
X-3749Y-6924D01*
X-3745Y-6930D01*
X-3744Y-6931D01*
X-3743Y-6932D01*
X-3738Y-6937D01*
X-3732Y-6942D01*
X-3731Y-6943D01*
X-3730Y-6944D01*
X-3724Y-6948D01*
X-3718Y-6952D01*
X-3716Y-6953D01*
X-3715Y-6954D01*
X-3708Y-6956D01*
X-3702Y-6959D01*
X-3700Y-6959D01*
X-3698Y-6960D01*
X-3691Y-6962D01*
X-3684Y-6963D01*
X-3683Y-6963D01*
X-3681Y-6964D01*
X-3670Y-6964D01*
X-3485Y-6964D01*
X-3464Y-6985D01*
X-3464Y-9015D01*
X-3485Y-9036D01*
X-3670Y-9036D01*
X-3672Y-9036D01*
X-3673Y-9036D01*
X-3680Y-9037D01*
X-3688Y-9037D01*
X-3689Y-9038D01*
X-3691Y-9038D01*
X-3698Y-9040D01*
X-3705Y-9042D01*
X-3706Y-9043D01*
X-3708Y-9043D01*
X-3714Y-9046D01*
X-3721Y-9050D01*
X-3722Y-9051D01*
X-3723Y-9051D01*
X-3729Y-9056D01*
X-3735Y-9060D01*
X-3736Y-9061D01*
X-3737Y-9062D01*
X-3742Y-9067D01*
X-3747Y-9073D01*
X-3748Y-9074D01*
X-3749Y-9075D01*
X-3753Y-9081D01*
X-3757Y-9087D01*
X-3758Y-9089D01*
X-3759Y-9090D01*
X-3761Y-9097D01*
X-3764Y-9103D01*
X-3764Y-9105D01*
X-3765Y-9107D01*
X-3767Y-9114D01*
X-3768Y-9121D01*
X-3768Y-9122D01*
X-3769Y-9124D01*
X-3769Y-9135D01*
X-3769Y-10000D01*
X-3769Y-10001D01*
X-3769Y-10010D01*
X-3766Y-10043D01*
X-3765Y-10043D01*
X-3764Y-10052D01*
X-3762Y-10060D01*
X-3762Y-10061D01*
X-3758Y-10071D01*
X-3733Y-10132D01*
X-3731Y-10137D01*
X-3729Y-10142D01*
X-3727Y-10145D01*
X-3725Y-10148D01*
X-3722Y-10152D01*
X-3719Y-10156D01*
X-3715Y-10160D01*
X-3714Y-10162D01*
X-3713Y-10163D01*
X-3712Y-10165D01*
X-3665Y-10212D01*
X-3661Y-10215D01*
X-3657Y-10218D01*
X-3654Y-10220D01*
X-3651Y-10223D01*
X-3647Y-10225D01*
X-3642Y-10228D01*
X-3637Y-10231D01*
X-3636Y-10232D01*
X-3635Y-10232D01*
X-3632Y-10233D01*
X-3571Y-10258D01*
X-3571Y-10259D01*
X-3563Y-10261D01*
X-3554Y-10264D01*
X-3543Y-10266D01*
X-3510Y-10269D01*
X-3508Y-10269D01*
X-3500Y-10269D01*
X4000Y-10269D01*
X4001Y-10269D01*
G37*
%LPC*%
G36*
X929Y-8066D02*
X929Y-8066D01*
X864Y-8039D01*
X812Y-7987D01*
X807Y-7980D01*
X801Y-7973D01*
X795Y-7967D01*
X788Y-7961D01*
X780Y-7956D01*
X773Y-7952D01*
X765Y-7948D01*
X757Y-7945D01*
X756Y-7945D01*
X748Y-7943D01*
X739Y-7942D01*
X728Y-7941D01*
X587Y-7941D01*
X333Y-7688D01*
X333Y-7685D01*
X333Y-7683D01*
X333Y-7681D01*
X332Y-7674D01*
X332Y-7667D01*
X331Y-7666D01*
X331Y-7664D01*
X329Y-7657D01*
X327Y-7650D01*
X326Y-7649D01*
X326Y-7647D01*
X322Y-7641D01*
X319Y-7634D01*
X318Y-7633D01*
X318Y-7631D01*
X313Y-7626D01*
X309Y-7620D01*
X308Y-7619D01*
X307Y-7617D01*
X301Y-7612D01*
X296Y-7607D01*
X295Y-7607D01*
X294Y-7605D01*
X288Y-7602D01*
X282Y-7598D01*
X280Y-7597D01*
X279Y-7596D01*
X272Y-7593D01*
X265Y-7591D01*
X264Y-7590D01*
X262Y-7590D01*
X255Y-7588D01*
X248Y-7586D01*
X247Y-7586D01*
X245Y-7586D01*
X241Y-7586D01*
X238Y-7584D01*
X237Y-7583D01*
X235Y-7583D01*
X228Y-7581D01*
X221Y-7578D01*
X220Y-7578D01*
X218Y-7577D01*
X211Y-7576D01*
X204Y-7575D01*
X202Y-7575D01*
X201Y-7575D01*
X194Y-7575D01*
X186Y-7576D01*
X185Y-7576D01*
X183Y-7576D01*
X176Y-7578D01*
X169Y-7579D01*
X168Y-7580D01*
X166Y-7580D01*
X159Y-7583D01*
X153Y-7585D01*
X-145Y-7585D01*
X-184Y-7547D01*
X-184Y-7418D01*
X-184Y-7413D01*
X-184Y-7408D01*
X-185Y-7404D01*
X-185Y-7400D01*
X-187Y-7395D01*
X-188Y-7390D01*
X-189Y-7387D01*
X-190Y-7383D01*
X-192Y-7379D01*
X-194Y-7374D01*
X-196Y-7371D01*
X-198Y-7367D01*
X-201Y-7363D01*
X-204Y-7359D01*
X-206Y-7356D01*
X-208Y-7353D01*
X-212Y-7349D01*
X-215Y-7346D01*
X-218Y-7343D01*
X-221Y-7341D01*
X-225Y-7338D01*
X-229Y-7335D01*
X-232Y-7333D01*
X-235Y-7331D01*
X-240Y-7329D01*
X-245Y-7326D01*
X-248Y-7325D01*
X-252Y-7324D01*
X-257Y-7323D01*
X-262Y-7321D01*
X-265Y-7321D01*
X-269Y-7320D01*
X-274Y-7320D01*
X-279Y-7319D01*
X-283Y-7319D01*
X-286Y-7319D01*
X-292Y-7319D01*
X-297Y-7320D01*
X-300Y-7321D01*
X-304Y-7321D01*
X-309Y-7323D01*
X-314Y-7324D01*
X-317Y-7325D01*
X-321Y-7326D01*
X-325Y-7329D01*
X-330Y-7331D01*
X-333Y-7333D01*
X-336Y-7334D01*
X-341Y-7338D01*
X-345Y-7340D01*
X-349Y-7344D01*
X-350Y-7345D01*
X-351Y-7346D01*
X-353Y-7348D01*
X-355Y-7349D01*
X-653Y-7349D01*
X-656Y-7348D01*
X-657Y-7347D01*
X-659Y-7346D01*
X-665Y-7344D01*
X-672Y-7342D01*
X-674Y-7342D01*
X-675Y-7341D01*
X-683Y-7340D01*
X-690Y-7339D01*
X-691Y-7339D01*
X-693Y-7339D01*
X-700Y-7339D01*
X-707Y-7339D01*
X-709Y-7340D01*
X-711Y-7340D01*
X-718Y-7341D01*
X-725Y-7343D01*
X-726Y-7343D01*
X-728Y-7344D01*
X-734Y-7347D01*
X-741Y-7349D01*
X-1019Y-7349D01*
X-1074Y-7295D01*
X-1075Y-7292D01*
X-1079Y-7288D01*
X-1082Y-7283D01*
X-1085Y-7281D01*
X-1087Y-7278D01*
X-1091Y-7275D01*
X-1095Y-7271D01*
X-1098Y-7269D01*
X-1100Y-7267D01*
X-1105Y-7264D01*
X-1109Y-7261D01*
X-1113Y-7260D01*
X-1116Y-7258D01*
X-1121Y-7256D01*
X-1126Y-7254D01*
X-1129Y-7253D01*
X-1132Y-7252D01*
X-1137Y-7251D01*
X-1143Y-7250D01*
X-1146Y-7250D01*
X-1150Y-7249D01*
X-1155Y-7249D01*
X-1160Y-7249D01*
X-1164Y-7249D01*
X-1167Y-7250D01*
X-1173Y-7251D01*
X-1178Y-7251D01*
X-1181Y-7252D01*
X-1185Y-7253D01*
X-1194Y-7256D01*
X-1195Y-7256D01*
X-1195Y-7257D01*
X-1209Y-7262D01*
X-1279Y-7262D01*
X-1344Y-7236D01*
X-1393Y-7186D01*
X-1420Y-7122D01*
X-1420Y-7052D01*
X-1393Y-6987D01*
X-1341Y-6935D01*
X-1339Y-6934D01*
X-1335Y-6931D01*
X-1330Y-6928D01*
X-1328Y-6925D01*
X-1325Y-6923D01*
X-1321Y-6919D01*
X-1318Y-6916D01*
X-1315Y-6913D01*
X-1313Y-6910D01*
X-1310Y-6905D01*
X-1307Y-6901D01*
X-1306Y-6898D01*
X-1304Y-6895D01*
X-1302Y-6890D01*
X-1300Y-6885D01*
X-1299Y-6882D01*
X-1297Y-6879D01*
X-1296Y-6873D01*
X-1295Y-6868D01*
X-1294Y-6865D01*
X-1294Y-6861D01*
X-1294Y-6856D01*
X-1293Y-6851D01*
X-1293Y-6847D01*
X-1293Y-6844D01*
X-1294Y-6838D01*
X-1295Y-6833D01*
X-1296Y-6830D01*
X-1296Y-6826D01*
X-1298Y-6821D01*
X-1299Y-6816D01*
X-1301Y-6813D01*
X-1302Y-6809D01*
X-1305Y-6805D01*
X-1307Y-6800D01*
X-1309Y-6797D01*
X-1311Y-6794D01*
X-1314Y-6790D01*
X-1317Y-6786D01*
X-1320Y-6783D01*
X-1322Y-6780D01*
X-1326Y-6777D01*
X-1330Y-6773D01*
X-1333Y-6771D01*
X-1336Y-6769D01*
X-1340Y-6766D01*
X-1341Y-6766D01*
X-1393Y-6714D01*
X-1420Y-6649D01*
X-1420Y-6579D01*
X-1393Y-6515D01*
X-1341Y-6463D01*
X-1339Y-6461D01*
X-1335Y-6458D01*
X-1330Y-6455D01*
X-1328Y-6453D01*
X-1325Y-6451D01*
X-1321Y-6447D01*
X-1318Y-6443D01*
X-1315Y-6440D01*
X-1313Y-6438D01*
X-1310Y-6433D01*
X-1307Y-6429D01*
X-1306Y-6426D01*
X-1304Y-6422D01*
X-1302Y-6418D01*
X-1300Y-6413D01*
X-1299Y-6409D01*
X-1297Y-6406D01*
X-1296Y-6401D01*
X-1295Y-6396D01*
X-1294Y-6392D01*
X-1294Y-6389D01*
X-1294Y-6384D01*
X-1293Y-6378D01*
X-1293Y-6375D01*
X-1293Y-6371D01*
X-1294Y-6366D01*
X-1295Y-6361D01*
X-1296Y-6357D01*
X-1296Y-6354D01*
X-1298Y-6349D01*
X-1299Y-6344D01*
X-1301Y-6340D01*
X-1302Y-6337D01*
X-1305Y-6332D01*
X-1307Y-6328D01*
X-1309Y-6325D01*
X-1311Y-6322D01*
X-1314Y-6318D01*
X-1317Y-6313D01*
X-1320Y-6311D01*
X-1322Y-6308D01*
X-1326Y-6305D01*
X-1330Y-6301D01*
X-1333Y-6299D01*
X-1336Y-6297D01*
X-1340Y-6294D01*
X-1341Y-6293D01*
X-1393Y-6241D01*
X-1420Y-6177D01*
X-1420Y-6107D01*
X-1393Y-6042D01*
X-1341Y-5990D01*
X-1339Y-5989D01*
X-1335Y-5986D01*
X-1330Y-5983D01*
X-1328Y-5980D01*
X-1325Y-5978D01*
X-1321Y-5974D01*
X-1318Y-5971D01*
X-1315Y-5968D01*
X-1313Y-5965D01*
X-1310Y-5961D01*
X-1307Y-5956D01*
X-1306Y-5953D01*
X-1304Y-5950D01*
X-1302Y-5945D01*
X-1300Y-5940D01*
X-1299Y-5937D01*
X-1297Y-5934D01*
X-1296Y-5928D01*
X-1295Y-5923D01*
X-1294Y-5920D01*
X-1294Y-5916D01*
X-1294Y-5911D01*
X-1293Y-5906D01*
X-1293Y-5902D01*
X-1293Y-5899D01*
X-1294Y-5893D01*
X-1295Y-5888D01*
X-1296Y-5885D01*
X-1296Y-5881D01*
X-1298Y-5876D01*
X-1299Y-5871D01*
X-1301Y-5868D01*
X-1302Y-5865D01*
X-1305Y-5860D01*
X-1307Y-5855D01*
X-1309Y-5852D01*
X-1311Y-5849D01*
X-1314Y-5845D01*
X-1317Y-5841D01*
X-1320Y-5838D01*
X-1322Y-5836D01*
X-1326Y-5832D01*
X-1330Y-5829D01*
X-1333Y-5827D01*
X-1336Y-5824D01*
X-1340Y-5822D01*
X-1341Y-5821D01*
X-1393Y-5769D01*
X-1420Y-5704D01*
X-1420Y-5634D01*
X-1393Y-5570D01*
X-1341Y-5518D01*
X-1339Y-5517D01*
X-1335Y-5513D01*
X-1330Y-5510D01*
X-1328Y-5508D01*
X-1325Y-5506D01*
X-1321Y-5502D01*
X-1318Y-5498D01*
X-1315Y-5495D01*
X-1313Y-5493D01*
X-1310Y-5488D01*
X-1307Y-5484D01*
X-1306Y-5481D01*
X-1304Y-5478D01*
X-1302Y-5473D01*
X-1300Y-5468D01*
X-1299Y-5465D01*
X-1297Y-5461D01*
X-1296Y-5456D01*
X-1295Y-5451D01*
X-1294Y-5447D01*
X-1294Y-5444D01*
X-1294Y-5439D01*
X-1293Y-5433D01*
X-1293Y-5430D01*
X-1293Y-5426D01*
X-1294Y-5421D01*
X-1295Y-5416D01*
X-1296Y-5412D01*
X-1296Y-5409D01*
X-1298Y-5404D01*
X-1299Y-5399D01*
X-1301Y-5395D01*
X-1302Y-5392D01*
X-1305Y-5388D01*
X-1307Y-5383D01*
X-1309Y-5380D01*
X-1311Y-5377D01*
X-1314Y-5373D01*
X-1317Y-5368D01*
X-1320Y-5366D01*
X-1322Y-5363D01*
X-1326Y-5360D01*
X-1330Y-5356D01*
X-1333Y-5354D01*
X-1336Y-5352D01*
X-1340Y-5349D01*
X-1341Y-5349D01*
X-1393Y-5296D01*
X-1420Y-5232D01*
X-1420Y-5162D01*
X-1393Y-5097D01*
X-1341Y-5045D01*
X-1339Y-5044D01*
X-1335Y-5041D01*
X-1330Y-5038D01*
X-1328Y-5036D01*
X-1325Y-5033D01*
X-1321Y-5029D01*
X-1318Y-5026D01*
X-1315Y-5023D01*
X-1313Y-5020D01*
X-1310Y-5016D01*
X-1307Y-5011D01*
X-1306Y-5008D01*
X-1304Y-5005D01*
X-1302Y-5000D01*
X-1300Y-4996D01*
X-1299Y-4992D01*
X-1297Y-4989D01*
X-1296Y-4984D01*
X-1295Y-4979D01*
X-1294Y-4975D01*
X-1294Y-4971D01*
X-1294Y-4966D01*
X-1293Y-4961D01*
X-1293Y-4957D01*
X-1293Y-4954D01*
X-1294Y-4949D01*
X-1295Y-4943D01*
X-1296Y-4940D01*
X-1296Y-4936D01*
X-1298Y-4931D01*
X-1299Y-4926D01*
X-1301Y-4923D01*
X-1302Y-4920D01*
X-1305Y-4915D01*
X-1307Y-4910D01*
X-1309Y-4907D01*
X-1311Y-4904D01*
X-1314Y-4900D01*
X-1317Y-4896D01*
X-1320Y-4893D01*
X-1322Y-4891D01*
X-1326Y-4887D01*
X-1330Y-4884D01*
X-1333Y-4882D01*
X-1336Y-4879D01*
X-1340Y-4877D01*
X-1341Y-4876D01*
X-1393Y-4824D01*
X-1420Y-4759D01*
X-1420Y-4689D01*
X-1393Y-4625D01*
X-1341Y-4573D01*
X-1339Y-4572D01*
X-1335Y-4568D01*
X-1330Y-4566D01*
X-1328Y-4563D01*
X-1325Y-4561D01*
X-1321Y-4557D01*
X-1318Y-4553D01*
X-1315Y-4550D01*
X-1313Y-4548D01*
X-1310Y-4543D01*
X-1307Y-4539D01*
X-1306Y-4536D01*
X-1304Y-4533D01*
X-1302Y-4528D01*
X-1300Y-4523D01*
X-1299Y-4520D01*
X-1297Y-4516D01*
X-1296Y-4511D01*
X-1295Y-4506D01*
X-1294Y-4503D01*
X-1294Y-4499D01*
X-1294Y-4494D01*
X-1293Y-4489D01*
X-1293Y-4485D01*
X-1293Y-4481D01*
X-1294Y-4476D01*
X-1295Y-4471D01*
X-1296Y-4467D01*
X-1296Y-4464D01*
X-1298Y-4459D01*
X-1299Y-4454D01*
X-1301Y-4451D01*
X-1302Y-4447D01*
X-1305Y-4443D01*
X-1307Y-4438D01*
X-1309Y-4435D01*
X-1311Y-4432D01*
X-1314Y-4428D01*
X-1317Y-4424D01*
X-1320Y-4421D01*
X-1322Y-4418D01*
X-1326Y-4415D01*
X-1330Y-4411D01*
X-1333Y-4409D01*
X-1336Y-4407D01*
X-1340Y-4404D01*
X-1341Y-4404D01*
X-1393Y-4352D01*
X-1420Y-4287D01*
X-1420Y-4217D01*
X-1393Y-4152D01*
X-1341Y-4101D01*
X-1339Y-4099D01*
X-1335Y-4096D01*
X-1330Y-4093D01*
X-1328Y-4091D01*
X-1325Y-4088D01*
X-1321Y-4085D01*
X-1318Y-4081D01*
X-1315Y-4078D01*
X-1313Y-4075D01*
X-1310Y-4071D01*
X-1307Y-4067D01*
X-1306Y-4063D01*
X-1304Y-4060D01*
X-1302Y-4055D01*
X-1300Y-4051D01*
X-1299Y-4047D01*
X-1297Y-4044D01*
X-1296Y-4039D01*
X-1295Y-4034D01*
X-1294Y-4030D01*
X-1294Y-4027D01*
X-1294Y-4021D01*
X-1293Y-4016D01*
X-1293Y-4012D01*
X-1293Y-4009D01*
X-1294Y-4004D01*
X-1295Y-3998D01*
X-1296Y-3995D01*
X-1296Y-3991D01*
X-1298Y-3987D01*
X-1299Y-3981D01*
X-1301Y-3978D01*
X-1302Y-3975D01*
X-1305Y-3970D01*
X-1307Y-3965D01*
X-1309Y-3963D01*
X-1311Y-3959D01*
X-1314Y-3955D01*
X-1317Y-3951D01*
X-1320Y-3949D01*
X-1322Y-3946D01*
X-1326Y-3942D01*
X-1330Y-3939D01*
X-1333Y-3937D01*
X-1336Y-3934D01*
X-1340Y-3932D01*
X-1341Y-3931D01*
X-1393Y-3879D01*
X-1420Y-3814D01*
X-1420Y-3745D01*
X-1393Y-3680D01*
X-1341Y-3628D01*
X-1339Y-3627D01*
X-1335Y-3624D01*
X-1330Y-3621D01*
X-1328Y-3618D01*
X-1325Y-3616D01*
X-1321Y-3612D01*
X-1318Y-3608D01*
X-1315Y-3606D01*
X-1313Y-3603D01*
X-1310Y-3598D01*
X-1307Y-3594D01*
X-1306Y-3591D01*
X-1304Y-3588D01*
X-1302Y-3583D01*
X-1300Y-3578D01*
X-1299Y-3575D01*
X-1297Y-3571D01*
X-1296Y-3566D01*
X-1295Y-3561D01*
X-1294Y-3558D01*
X-1294Y-3554D01*
X-1294Y-3549D01*
X-1293Y-3544D01*
X-1293Y-3540D01*
X-1293Y-3536D01*
X-1294Y-3531D01*
X-1295Y-3526D01*
X-1296Y-3523D01*
X-1296Y-3519D01*
X-1298Y-3514D01*
X-1299Y-3509D01*
X-1301Y-3506D01*
X-1302Y-3502D01*
X-1305Y-3498D01*
X-1307Y-3493D01*
X-1309Y-3490D01*
X-1311Y-3487D01*
X-1314Y-3483D01*
X-1317Y-3479D01*
X-1320Y-3476D01*
X-1322Y-3473D01*
X-1326Y-3470D01*
X-1330Y-3466D01*
X-1333Y-3464D01*
X-1336Y-3462D01*
X-1340Y-3459D01*
X-1341Y-3459D01*
X-1393Y-3407D01*
X-1420Y-3342D01*
X-1420Y-3272D01*
X-1393Y-3208D01*
X-1341Y-3156D01*
X-1339Y-3154D01*
X-1335Y-3151D01*
X-1330Y-3148D01*
X-1328Y-3146D01*
X-1325Y-3144D01*
X-1321Y-3140D01*
X-1318Y-3136D01*
X-1315Y-3133D01*
X-1313Y-3130D01*
X-1310Y-3126D01*
X-1307Y-3122D01*
X-1306Y-3118D01*
X-1304Y-3115D01*
X-1302Y-3111D01*
X-1300Y-3106D01*
X-1299Y-3102D01*
X-1297Y-3099D01*
X-1296Y-3094D01*
X-1295Y-3089D01*
X-1294Y-3085D01*
X-1294Y-3082D01*
X-1294Y-3076D01*
X-1293Y-3071D01*
X-1293Y-3068D01*
X-1293Y-3064D01*
X-1294Y-3059D01*
X-1295Y-3054D01*
X-1296Y-3050D01*
X-1296Y-3047D01*
X-1298Y-3042D01*
X-1299Y-3037D01*
X-1301Y-3033D01*
X-1302Y-3030D01*
X-1305Y-3025D01*
X-1307Y-3021D01*
X-1309Y-3018D01*
X-1311Y-3015D01*
X-1314Y-3010D01*
X-1317Y-3006D01*
X-1320Y-3004D01*
X-1322Y-3001D01*
X-1326Y-2998D01*
X-1330Y-2994D01*
X-1333Y-2992D01*
X-1336Y-2990D01*
X-1340Y-2987D01*
X-1341Y-2986D01*
X-1393Y-2934D01*
X-1420Y-2870D01*
X-1420Y-2800D01*
X-1393Y-2735D01*
X-1341Y-2683D01*
X-1339Y-2682D01*
X-1335Y-2679D01*
X-1330Y-2676D01*
X-1328Y-2673D01*
X-1325Y-2671D01*
X-1321Y-2667D01*
X-1318Y-2664D01*
X-1315Y-2661D01*
X-1313Y-2658D01*
X-1310Y-2654D01*
X-1307Y-2649D01*
X-1306Y-2646D01*
X-1304Y-2643D01*
X-1302Y-2638D01*
X-1300Y-2633D01*
X-1299Y-2630D01*
X-1297Y-2627D01*
X-1296Y-2621D01*
X-1295Y-2616D01*
X-1294Y-2613D01*
X-1294Y-2609D01*
X-1294Y-2604D01*
X-1293Y-2599D01*
X-1293Y-2595D01*
X-1293Y-2592D01*
X-1294Y-2586D01*
X-1295Y-2581D01*
X-1296Y-2578D01*
X-1296Y-2574D01*
X-1298Y-2569D01*
X-1299Y-2564D01*
X-1301Y-2561D01*
X-1302Y-2557D01*
X-1305Y-2553D01*
X-1307Y-2548D01*
X-1309Y-2545D01*
X-1311Y-2542D01*
X-1314Y-2538D01*
X-1317Y-2534D01*
X-1320Y-2531D01*
X-1322Y-2528D01*
X-1326Y-2525D01*
X-1330Y-2521D01*
X-1333Y-2519D01*
X-1336Y-2517D01*
X-1340Y-2514D01*
X-1341Y-2514D01*
X-1393Y-2462D01*
X-1420Y-2397D01*
X-1420Y-2327D01*
X-1393Y-2263D01*
X-1341Y-2211D01*
X-1339Y-2210D01*
X-1335Y-2206D01*
X-1330Y-2203D01*
X-1328Y-2201D01*
X-1325Y-2199D01*
X-1321Y-2195D01*
X-1318Y-2191D01*
X-1315Y-2188D01*
X-1313Y-2186D01*
X-1310Y-2181D01*
X-1307Y-2177D01*
X-1306Y-2174D01*
X-1304Y-2171D01*
X-1302Y-2166D01*
X-1300Y-2161D01*
X-1299Y-2157D01*
X-1297Y-2154D01*
X-1296Y-2149D01*
X-1295Y-2144D01*
X-1294Y-2140D01*
X-1294Y-2137D01*
X-1294Y-2132D01*
X-1293Y-2126D01*
X-1293Y-2123D01*
X-1293Y-2119D01*
X-1294Y-2114D01*
X-1295Y-2109D01*
X-1296Y-2105D01*
X-1296Y-2102D01*
X-1298Y-2097D01*
X-1299Y-2092D01*
X-1301Y-2088D01*
X-1302Y-2085D01*
X-1305Y-2080D01*
X-1307Y-2076D01*
X-1309Y-2073D01*
X-1311Y-2070D01*
X-1314Y-2066D01*
X-1317Y-2061D01*
X-1320Y-2059D01*
X-1322Y-2056D01*
X-1326Y-2053D01*
X-1330Y-2049D01*
X-1333Y-2047D01*
X-1336Y-2045D01*
X-1340Y-2042D01*
X-1341Y-2041D01*
X-1393Y-1989D01*
X-1420Y-1925D01*
X-1420Y-1855D01*
X-1393Y-1790D01*
X-1341Y-1738D01*
X-1339Y-1737D01*
X-1335Y-1734D01*
X-1330Y-1731D01*
X-1328Y-1728D01*
X-1325Y-1726D01*
X-1321Y-1722D01*
X-1318Y-1719D01*
X-1315Y-1716D01*
X-1313Y-1713D01*
X-1310Y-1709D01*
X-1307Y-1704D01*
X-1306Y-1701D01*
X-1304Y-1698D01*
X-1302Y-1693D01*
X-1300Y-1688D01*
X-1299Y-1685D01*
X-1297Y-1682D01*
X-1296Y-1677D01*
X-1295Y-1671D01*
X-1294Y-1668D01*
X-1294Y-1664D01*
X-1294Y-1659D01*
X-1293Y-1654D01*
X-1293Y-1650D01*
X-1293Y-1647D01*
X-1294Y-1641D01*
X-1295Y-1636D01*
X-1296Y-1633D01*
X-1296Y-1629D01*
X-1298Y-1624D01*
X-1299Y-1619D01*
X-1301Y-1616D01*
X-1302Y-1613D01*
X-1305Y-1608D01*
X-1307Y-1603D01*
X-1309Y-1600D01*
X-1311Y-1597D01*
X-1314Y-1593D01*
X-1317Y-1589D01*
X-1320Y-1586D01*
X-1322Y-1584D01*
X-1326Y-1580D01*
X-1330Y-1577D01*
X-1333Y-1575D01*
X-1336Y-1572D01*
X-1340Y-1570D01*
X-1341Y-1569D01*
X-1393Y-1517D01*
X-1420Y-1452D01*
X-1420Y-1382D01*
X-1393Y-1318D01*
X-1341Y-1266D01*
X-1339Y-1265D01*
X-1335Y-1261D01*
X-1330Y-1258D01*
X-1328Y-1256D01*
X-1325Y-1254D01*
X-1321Y-1250D01*
X-1318Y-1246D01*
X-1315Y-1243D01*
X-1313Y-1241D01*
X-1310Y-1236D01*
X-1307Y-1232D01*
X-1306Y-1229D01*
X-1304Y-1226D01*
X-1302Y-1221D01*
X-1300Y-1216D01*
X-1299Y-1213D01*
X-1297Y-1209D01*
X-1296Y-1204D01*
X-1295Y-1199D01*
X-1294Y-1195D01*
X-1294Y-1192D01*
X-1294Y-1187D01*
X-1293Y-1181D01*
X-1293Y-1178D01*
X-1293Y-1174D01*
X-1294Y-1169D01*
X-1295Y-1164D01*
X-1296Y-1160D01*
X-1296Y-1157D01*
X-1298Y-1152D01*
X-1299Y-1147D01*
X-1301Y-1144D01*
X-1302Y-1140D01*
X-1305Y-1136D01*
X-1307Y-1131D01*
X-1309Y-1128D01*
X-1311Y-1125D01*
X-1314Y-1121D01*
X-1317Y-1116D01*
X-1320Y-1114D01*
X-1322Y-1111D01*
X-1326Y-1108D01*
X-1330Y-1104D01*
X-1333Y-1102D01*
X-1336Y-1100D01*
X-1340Y-1097D01*
X-1341Y-1097D01*
X-1393Y-1044D01*
X-1420Y-980D01*
X-1420Y-910D01*
X-1393Y-845D01*
X-1341Y-793D01*
X-1339Y-792D01*
X-1335Y-789D01*
X-1330Y-786D01*
X-1328Y-784D01*
X-1325Y-781D01*
X-1321Y-777D01*
X-1318Y-774D01*
X-1315Y-771D01*
X-1313Y-768D01*
X-1310Y-764D01*
X-1307Y-760D01*
X-1306Y-756D01*
X-1304Y-753D01*
X-1302Y-748D01*
X-1300Y-744D01*
X-1299Y-740D01*
X-1297Y-737D01*
X-1296Y-732D01*
X-1295Y-727D01*
X-1294Y-723D01*
X-1294Y-719D01*
X-1294Y-714D01*
X-1293Y-709D01*
X-1293Y-705D01*
X-1293Y-702D01*
X-1294Y-697D01*
X-1295Y-691D01*
X-1296Y-688D01*
X-1296Y-684D01*
X-1298Y-679D01*
X-1299Y-674D01*
X-1301Y-671D01*
X-1302Y-668D01*
X-1305Y-663D01*
X-1307Y-658D01*
X-1309Y-655D01*
X-1311Y-652D01*
X-1314Y-648D01*
X-1317Y-644D01*
X-1320Y-641D01*
X-1322Y-639D01*
X-1326Y-635D01*
X-1330Y-632D01*
X-1333Y-630D01*
X-1336Y-627D01*
X-1340Y-625D01*
X-1341Y-624D01*
X-1393Y-572D01*
X-1420Y-507D01*
X-1420Y-437D01*
X-1393Y-373D01*
X-1341Y-321D01*
X-1339Y-320D01*
X-1335Y-317D01*
X-1330Y-314D01*
X-1328Y-311D01*
X-1325Y-309D01*
X-1321Y-305D01*
X-1318Y-301D01*
X-1315Y-298D01*
X-1313Y-296D01*
X-1310Y-291D01*
X-1307Y-287D01*
X-1306Y-284D01*
X-1304Y-281D01*
X-1302Y-276D01*
X-1300Y-271D01*
X-1299Y-268D01*
X-1297Y-264D01*
X-1296Y-259D01*
X-1295Y-254D01*
X-1294Y-251D01*
X-1294Y-247D01*
X-1294Y-242D01*
X-1293Y-237D01*
X-1293Y-233D01*
X-1293Y-229D01*
X-1294Y-224D01*
X-1295Y-219D01*
X-1296Y-215D01*
X-1296Y-212D01*
X-1298Y-207D01*
X-1299Y-202D01*
X-1301Y-199D01*
X-1302Y-195D01*
X-1305Y-191D01*
X-1307Y-186D01*
X-1309Y-183D01*
X-1311Y-180D01*
X-1314Y-176D01*
X-1317Y-172D01*
X-1320Y-169D01*
X-1322Y-166D01*
X-1326Y-163D01*
X-1330Y-159D01*
X-1333Y-157D01*
X-1336Y-155D01*
X-1340Y-152D01*
X-1341Y-152D01*
X-1393Y-100D01*
X-1420Y-35D01*
X-1420Y35D01*
X-1393Y100D01*
X-1344Y149D01*
X-1279Y176D01*
X-1207Y176D01*
X-1202Y174D01*
X-1201Y174D01*
X-1200Y174D01*
X-1192Y173D01*
X-1184Y172D01*
X-1183Y172D01*
X-1175Y172D01*
X-1167Y172D01*
X-1166Y173D01*
X-1165Y173D01*
X-1157Y174D01*
X-1149Y176D01*
X-1148Y177D01*
X-1141Y180D01*
X-1133Y183D01*
X-1132Y184D01*
X-1125Y188D01*
X-1118Y193D01*
X-1117Y193D01*
X-1111Y199D01*
X-1105Y205D01*
X-1104Y206D01*
X-1100Y212D01*
X-1095Y219D01*
X-1094Y220D01*
X-1091Y227D01*
X-1089Y231D01*
X-1073Y259D01*
X-1054Y277D01*
X-1031Y291D01*
X-1005Y298D01*
X-983Y298D01*
X-983Y0D01*
X-983Y-2D01*
X-983Y-3D01*
X-982Y-10D01*
X-982Y-18D01*
X-981Y-19D01*
X-981Y-21D01*
X-979Y-28D01*
X-977Y-35D01*
X-976Y-36D01*
X-976Y-38D01*
X-972Y-44D01*
X-969Y-51D01*
X-968Y-52D01*
X-968Y-53D01*
X-963Y-59D01*
X-959Y-65D01*
X-958Y-66D01*
X-957Y-67D01*
X-951Y-72D01*
X-946Y-77D01*
X-945Y-78D01*
X-944Y-79D01*
X-938Y-83D01*
X-932Y-87D01*
X-930Y-88D01*
X-929Y-89D01*
X-922Y-91D01*
X-915Y-94D01*
X-914Y-94D01*
X-912Y-95D01*
X-905Y-97D01*
X-898Y-98D01*
X-897Y-98D01*
X-895Y-99D01*
X-884Y-99D01*
X-500Y-99D01*
X-281Y-99D01*
X-281Y-210D01*
X-288Y-236D01*
X-303Y-261D01*
X-304Y-264D01*
X-305Y-266D01*
X-308Y-272D01*
X-310Y-277D01*
X-311Y-280D01*
X-312Y-283D01*
X-313Y-289D01*
X-315Y-295D01*
X-315Y-297D01*
X-316Y-300D01*
X-316Y-311D01*
X-316Y-377D01*
X-316Y-382D01*
X-316Y-388D01*
X-315Y-391D01*
X-315Y-395D01*
X-313Y-400D01*
X-312Y-405D01*
X-311Y-408D01*
X-310Y-412D01*
X-308Y-417D01*
X-306Y-421D01*
X-304Y-425D01*
X-302Y-428D01*
X-299Y-432D01*
X-296Y-437D01*
X-294Y-439D01*
X-292Y-442D01*
X-288Y-446D01*
X-285Y-450D01*
X-282Y-452D01*
X-279Y-454D01*
X-275Y-457D01*
X-271Y-461D01*
X-268Y-462D01*
X-265Y-464D01*
X-260Y-466D01*
X-255Y-469D01*
X-252Y-470D01*
X-248Y-471D01*
X-243Y-473D01*
X-238Y-474D01*
X-235Y-475D01*
X-231Y-475D01*
X-226Y-476D01*
X-221Y-476D01*
X-217Y-476D01*
X-214Y-476D01*
X-208Y-476D01*
X-203Y-476D01*
X-200Y-475D01*
X-196Y-474D01*
X-191Y-473D01*
X-186Y-472D01*
X-183Y-470D01*
X-179Y-469D01*
X-175Y-467D01*
X-170Y-465D01*
X-167Y-463D01*
X-164Y-461D01*
X-159Y-458D01*
X-155Y-455D01*
X-151Y-451D01*
X-150Y-450D01*
X-149Y-449D01*
X-147Y-447D01*
X-145Y-446D01*
X92Y-446D01*
X97Y-446D01*
X103Y-446D01*
X106Y-445D01*
X110Y-444D01*
X115Y-443D01*
X120Y-442D01*
X123Y-441D01*
X127Y-440D01*
X132Y-438D01*
X136Y-436D01*
X140Y-434D01*
X143Y-432D01*
X147Y-429D01*
X152Y-426D01*
X154Y-424D01*
X157Y-422D01*
X161Y-418D01*
X165Y-415D01*
X167Y-412D01*
X169Y-409D01*
X172Y-405D01*
X176Y-401D01*
X177Y-398D01*
X179Y-395D01*
X181Y-390D01*
X184Y-385D01*
X185Y-382D01*
X186Y-378D01*
X188Y-373D01*
X189Y-368D01*
X190Y-365D01*
X190Y-361D01*
X191Y-356D01*
X191Y-351D01*
X191Y-347D01*
X191Y-344D01*
X191Y-338D01*
X191Y-333D01*
X190Y-330D01*
X189Y-326D01*
X188Y-321D01*
X187Y-316D01*
X185Y-313D01*
X184Y-309D01*
X182Y-304D01*
X180Y-300D01*
X178Y-297D01*
X176Y-293D01*
X173Y-289D01*
X170Y-285D01*
X169Y-284D01*
X169Y124D01*
X168Y132D01*
X168Y141D01*
X165Y150D01*
X163Y158D01*
X159Y166D01*
X156Y174D01*
X155Y174D01*
X150Y181D01*
X145Y188D01*
X145Y189D01*
X139Y195D01*
X133Y201D01*
X132Y201D01*
X125Y206D01*
X118Y211D01*
X117Y211D01*
X108Y215D01*
X-87Y296D01*
X-122Y331D01*
X-122Y332D01*
X-123Y332D01*
X-129Y337D01*
X-135Y342D01*
X-136Y343D01*
X-143Y347D01*
X-151Y351D01*
X-152Y352D01*
X-160Y354D01*
X-167Y357D01*
X-168Y357D01*
X-177Y359D01*
X-185Y360D01*
X-186Y360D01*
X-194Y360D01*
X-202Y360D01*
X-203Y360D01*
X-204Y360D01*
X-212Y358D01*
X-220Y356D01*
X-221Y356D01*
X-224Y355D01*
X-224Y356D01*
X-221Y364D01*
X-221Y365D01*
X-220Y373D01*
X-219Y382D01*
X-219Y383D01*
X-219Y391D01*
X-219Y399D01*
X-219Y400D01*
X-221Y408D01*
X-223Y417D01*
X-223Y418D01*
X-227Y425D01*
X-230Y433D01*
X-230Y434D01*
X-235Y441D01*
X-239Y448D01*
X-240Y448D01*
X-240Y449D01*
X-248Y457D01*
X-254Y463D01*
X-344Y682D01*
X-344Y918D01*
X-254Y1137D01*
X-87Y1304D01*
X132Y1394D01*
X368Y1394D01*
X587Y1304D01*
X754Y1137D01*
X844Y918D01*
X844Y695D01*
X845Y686D01*
X846Y678D01*
X846Y677D01*
X848Y669D01*
X851Y661D01*
X851Y660D01*
X854Y652D01*
X858Y645D01*
X858Y644D01*
X863Y637D01*
X868Y630D01*
X869Y630D01*
X875Y624D01*
X881Y618D01*
X888Y613D01*
X896Y608D01*
X906Y603D01*
X967Y578D01*
X996Y549D01*
X1002Y544D01*
X1007Y540D01*
X1008Y539D01*
X1010Y537D01*
X1016Y534D01*
X1022Y530D01*
X1023Y529D01*
X1025Y528D01*
X1032Y526D01*
X1038Y524D01*
X1040Y523D01*
X1042Y523D01*
X1049Y521D01*
X1055Y520D01*
X1058Y520D01*
X1059Y520D01*
X1061Y520D01*
X1066Y519D01*
X1350Y519D01*
X1397Y472D01*
X1397Y-251D01*
X1398Y-260D01*
X1399Y-268D01*
X1399Y-269D01*
X1401Y-277D01*
X1403Y-285D01*
X1403Y-286D01*
X1407Y-294D01*
X1411Y-301D01*
X1411Y-302D01*
X1416Y-309D01*
X1421Y-316D01*
X1427Y-322D01*
X1434Y-328D01*
X1441Y-333D01*
X1448Y-338D01*
X1449Y-338D01*
X1458Y-343D01*
X1472Y-349D01*
X1521Y-398D01*
X1548Y-463D01*
X1548Y-532D01*
X1521Y-597D01*
X1472Y-646D01*
X1407Y-673D01*
X1362Y-673D01*
X1360Y-673D01*
X1359Y-673D01*
X1351Y-674D01*
X1344Y-675D01*
X1343Y-675D01*
X1341Y-675D01*
X1334Y-678D01*
X1327Y-679D01*
X1326Y-680D01*
X1324Y-681D01*
X1318Y-684D01*
X1311Y-687D01*
X1310Y-688D01*
X1308Y-689D01*
X1303Y-693D01*
X1297Y-697D01*
X1296Y-699D01*
X1295Y-700D01*
X1290Y-705D01*
X1285Y-710D01*
X1284Y-711D01*
X1283Y-713D01*
X1279Y-719D01*
X1275Y-725D01*
X1274Y-726D01*
X1273Y-728D01*
X1271Y-734D01*
X1268Y-741D01*
X1267Y-743D01*
X1267Y-744D01*
X1265Y-751D01*
X1264Y-758D01*
X1264Y-760D01*
X1263Y-761D01*
X1263Y-772D01*
X1263Y-862D01*
X1261Y-864D01*
X1261Y-866D01*
X1260Y-867D01*
X1258Y-874D01*
X1255Y-881D01*
X1255Y-883D01*
X1255Y-884D01*
X1254Y-891D01*
X1252Y-898D01*
X1252Y-900D01*
X1252Y-902D01*
X1253Y-909D01*
X1253Y-916D01*
X1253Y-918D01*
X1253Y-919D01*
X1255Y-926D01*
X1256Y-933D01*
X1257Y-935D01*
X1257Y-936D01*
X1260Y-943D01*
X1263Y-950D01*
X1263Y-1023D01*
X1263Y-1030D01*
X1264Y-1037D01*
X1264Y-1039D01*
X1264Y-1041D01*
X1266Y-1048D01*
X1268Y-1054D01*
X1268Y-1056D01*
X1269Y-1058D01*
X1272Y-1064D01*
X1275Y-1071D01*
X1276Y-1072D01*
X1276Y-1074D01*
X1280Y-1080D01*
X1284Y-1085D01*
X1286Y-1087D01*
X1287Y-1088D01*
X1288Y-1090D01*
X1292Y-1094D01*
X1667Y-1469D01*
X1674Y-1475D01*
X1680Y-1480D01*
X1688Y-1484D01*
X1695Y-1489D01*
X1696Y-1489D01*
X1704Y-1492D01*
X1712Y-1495D01*
X1721Y-1496D01*
X1729Y-1498D01*
X1730Y-1498D01*
X1739Y-1497D01*
X1747Y-1497D01*
X1756Y-1496D01*
X1757Y-1495D01*
X1832Y-1495D01*
X1897Y-1522D01*
X1946Y-1572D01*
X1958Y-1599D01*
X1962Y-1607D01*
X1966Y-1615D01*
X1971Y-1622D01*
X1977Y-1629D01*
X1983Y-1635D01*
X1990Y-1640D01*
X1990Y-1641D01*
X1997Y-1645D01*
X2005Y-1650D01*
X2013Y-1653D01*
X2021Y-1656D01*
X2030Y-1658D01*
X2038Y-1660D01*
X2039Y-1660D01*
X2050Y-1660D01*
X2091Y-1660D01*
X2156Y-1687D01*
X2205Y-1737D01*
X2232Y-1801D01*
X2232Y-1871D01*
X2205Y-1936D01*
X2156Y-1985D01*
X2091Y-2012D01*
X2021Y-2012D01*
X1957Y-1985D01*
X1907Y-1936D01*
X1896Y-1908D01*
X1892Y-1900D01*
X1888Y-1893D01*
X1882Y-1886D01*
X1877Y-1879D01*
X1870Y-1873D01*
X1864Y-1867D01*
X1856Y-1862D01*
X1849Y-1858D01*
X1849Y-1857D01*
X1841Y-1854D01*
X1833Y-1851D01*
X1832Y-1851D01*
X1824Y-1849D01*
X1815Y-1848D01*
X1815Y-1847D01*
X1814Y-1847D01*
X1804Y-1847D01*
X1762Y-1847D01*
X1698Y-1820D01*
X1648Y-1771D01*
X1622Y-1706D01*
X1622Y-1632D01*
X1623Y-1624D01*
X1624Y-1615D01*
X1624Y-1614D01*
X1624Y-1606D01*
X1623Y-1597D01*
X1621Y-1588D01*
X1619Y-1580D01*
X1619Y-1579D01*
X1616Y-1572D01*
X1612Y-1564D01*
X1612Y-1563D01*
X1607Y-1556D01*
X1602Y-1549D01*
X1602Y-1548D01*
X1595Y-1541D01*
X1343Y-1288D01*
X1341Y-1287D01*
X1340Y-1286D01*
X1335Y-1282D01*
X1329Y-1277D01*
X1328Y-1276D01*
X1326Y-1275D01*
X1320Y-1272D01*
X1314Y-1268D01*
X1312Y-1268D01*
X1311Y-1267D01*
X1304Y-1265D01*
X1297Y-1262D01*
X1296Y-1262D01*
X1294Y-1262D01*
X1287Y-1261D01*
X1280Y-1259D01*
X1278Y-1259D01*
X1276Y-1259D01*
X1269Y-1260D01*
X1262Y-1260D01*
X1260Y-1260D01*
X1259Y-1260D01*
X1252Y-1262D01*
X1245Y-1263D01*
X1243Y-1264D01*
X1242Y-1264D01*
X1236Y-1267D01*
X962Y-1267D01*
X961Y-1267D01*
X959Y-1267D01*
X952Y-1267D01*
X945Y-1268D01*
X943Y-1269D01*
X942Y-1269D01*
X935Y-1271D01*
X928Y-1273D01*
X926Y-1273D01*
X925Y-1274D01*
X918Y-1277D01*
X912Y-1280D01*
X911Y-1281D01*
X909Y-1282D01*
X903Y-1286D01*
X898Y-1291D01*
X896Y-1292D01*
X895Y-1293D01*
X890Y-1298D01*
X885Y-1303D01*
X884Y-1305D01*
X883Y-1306D01*
X879Y-1312D01*
X875Y-1318D01*
X875Y-1320D01*
X874Y-1321D01*
X871Y-1328D01*
X868Y-1334D01*
X868Y-1336D01*
X867Y-1337D01*
X866Y-1344D01*
X864Y-1351D01*
X864Y-1353D01*
X864Y-1355D01*
X863Y-1366D01*
X863Y-1441D01*
X831Y-1520D01*
X830Y-1521D01*
X829Y-1523D01*
X829Y-1524D01*
X826Y-1531D01*
X824Y-1538D01*
X824Y-1539D01*
X823Y-1541D01*
X822Y-1548D01*
X821Y-1555D01*
X821Y-1557D01*
X821Y-1559D01*
X821Y-1566D01*
X821Y-1573D01*
X822Y-1575D01*
X822Y-1576D01*
X823Y-1583D01*
X825Y-1590D01*
X825Y-1592D01*
X826Y-1593D01*
X828Y-1599D01*
X829Y-1601D01*
X831Y-1605D01*
X831Y-1607D01*
X863Y-1684D01*
X863Y-1754D01*
X836Y-1818D01*
X781Y-1874D01*
X778Y-1876D01*
X776Y-1878D01*
X773Y-1880D01*
X769Y-1884D01*
X765Y-1888D01*
X763Y-1891D01*
X761Y-1894D01*
X758Y-1898D01*
X755Y-1902D01*
X753Y-1906D01*
X752Y-1909D01*
X750Y-1913D01*
X747Y-1918D01*
X746Y-1922D01*
X745Y-1925D01*
X744Y-1930D01*
X743Y-1935D01*
X742Y-1939D01*
X742Y-1942D01*
X742Y-1948D01*
X741Y-1953D01*
X741Y-1956D01*
X741Y-1960D01*
X742Y-1965D01*
X743Y-1970D01*
X743Y-1974D01*
X744Y-1977D01*
X746Y-1982D01*
X747Y-1987D01*
X749Y-1991D01*
X750Y-1994D01*
X752Y-1999D01*
X755Y-2003D01*
X757Y-2006D01*
X759Y-2009D01*
X762Y-2013D01*
X765Y-2018D01*
X768Y-2020D01*
X770Y-2023D01*
X774Y-2026D01*
X778Y-2030D01*
X781Y-2032D01*
X836Y-2088D01*
X863Y-2153D01*
X863Y-2222D01*
X831Y-2301D01*
X830Y-2302D01*
X829Y-2304D01*
X829Y-2306D01*
X826Y-2312D01*
X824Y-2319D01*
X824Y-2321D01*
X823Y-2322D01*
X822Y-2329D01*
X821Y-2337D01*
X821Y-2338D01*
X821Y-2340D01*
X821Y-2347D01*
X821Y-2354D01*
X822Y-2356D01*
X822Y-2358D01*
X823Y-2365D01*
X825Y-2372D01*
X825Y-2373D01*
X826Y-2375D01*
X828Y-2380D01*
X829Y-2382D01*
X831Y-2387D01*
X831Y-2388D01*
X863Y-2465D01*
X863Y-2535D01*
X836Y-2600D01*
X787Y-2649D01*
X722Y-2676D01*
X657Y-2676D01*
X655Y-2676D01*
X654Y-2676D01*
X647Y-2677D01*
X640Y-2677D01*
X638Y-2678D01*
X636Y-2678D01*
X629Y-2680D01*
X622Y-2682D01*
X621Y-2683D01*
X619Y-2683D01*
X613Y-2686D01*
X607Y-2690D01*
X605Y-2691D01*
X604Y-2691D01*
X598Y-2696D01*
X592Y-2700D01*
X591Y-2701D01*
X590Y-2702D01*
X585Y-2707D01*
X580Y-2713D01*
X579Y-2714D01*
X578Y-2715D01*
X574Y-2721D01*
X570Y-2727D01*
X569Y-2729D01*
X569Y-2730D01*
X566Y-2737D01*
X563Y-2743D01*
X563Y-2745D01*
X562Y-2747D01*
X561Y-2754D01*
X559Y-2761D01*
X559Y-2762D01*
X558Y-2764D01*
X558Y-2775D01*
X558Y-2846D01*
X558Y-2847D01*
X558Y-2849D01*
X559Y-2856D01*
X559Y-2863D01*
X560Y-2865D01*
X560Y-2867D01*
X562Y-2874D01*
X564Y-2880D01*
X565Y-2882D01*
X565Y-2884D01*
X569Y-2890D01*
X572Y-2896D01*
X573Y-2898D01*
X573Y-2899D01*
X578Y-2905D01*
X582Y-2911D01*
X583Y-2912D01*
X584Y-2913D01*
X590Y-2918D01*
X595Y-2923D01*
X596Y-2924D01*
X597Y-2925D01*
X603Y-2929D01*
X609Y-2933D01*
X611Y-2934D01*
X612Y-2934D01*
X619Y-2937D01*
X626Y-2940D01*
X627Y-2940D01*
X629Y-2941D01*
X636Y-2942D01*
X643Y-2944D01*
X644Y-2944D01*
X646Y-2944D01*
X657Y-2945D01*
X717Y-2945D01*
X782Y-2972D01*
X832Y-3021D01*
X858Y-3086D01*
X858Y-3156D01*
X830Y-3224D01*
X829Y-3225D01*
X828Y-3227D01*
X827Y-3228D01*
X824Y-3235D01*
X820Y-3241D01*
X819Y-3242D01*
X819Y-3244D01*
X816Y-3251D01*
X814Y-3257D01*
X814Y-3259D01*
X813Y-3261D01*
X812Y-3268D01*
X811Y-3275D01*
X811Y-3277D01*
X811Y-3278D01*
X811Y-3285D01*
X812Y-3293D01*
X812Y-3294D01*
X812Y-3296D01*
X814Y-3303D01*
X815Y-3310D01*
X816Y-3311D01*
X816Y-3313D01*
X819Y-3320D01*
X821Y-3326D01*
X822Y-3328D01*
X823Y-3329D01*
X827Y-3335D01*
X830Y-3341D01*
X858Y-3408D01*
X858Y-3478D01*
X832Y-3543D01*
X782Y-3592D01*
X717Y-3619D01*
X657Y-3619D01*
X655Y-3619D01*
X654Y-3619D01*
X647Y-3620D01*
X640Y-3621D01*
X638Y-3621D01*
X636Y-3621D01*
X629Y-3623D01*
X622Y-3625D01*
X621Y-3626D01*
X619Y-3626D01*
X613Y-3630D01*
X607Y-3633D01*
X605Y-3634D01*
X604Y-3635D01*
X598Y-3639D01*
X592Y-3643D01*
X591Y-3644D01*
X590Y-3645D01*
X585Y-3651D01*
X580Y-3656D01*
X579Y-3657D01*
X578Y-3658D01*
X574Y-3665D01*
X570Y-3671D01*
X569Y-3672D01*
X569Y-3673D01*
X566Y-3680D01*
X563Y-3687D01*
X563Y-3688D01*
X562Y-3690D01*
X561Y-3697D01*
X559Y-3704D01*
X559Y-3706D01*
X558Y-3707D01*
X558Y-3718D01*
X558Y-3944D01*
X558Y-3945D01*
X558Y-3947D01*
X559Y-3954D01*
X559Y-3961D01*
X560Y-3963D01*
X560Y-3965D01*
X562Y-3971D01*
X564Y-3978D01*
X565Y-3980D01*
X565Y-3981D01*
X569Y-3988D01*
X572Y-3994D01*
X573Y-3996D01*
X573Y-3997D01*
X578Y-4003D01*
X582Y-4009D01*
X583Y-4010D01*
X584Y-4011D01*
X590Y-4016D01*
X595Y-4021D01*
X596Y-4022D01*
X597Y-4023D01*
X603Y-4027D01*
X609Y-4031D01*
X611Y-4031D01*
X612Y-4032D01*
X619Y-4035D01*
X626Y-4038D01*
X627Y-4038D01*
X629Y-4039D01*
X636Y-4040D01*
X643Y-4042D01*
X644Y-4042D01*
X646Y-4042D01*
X657Y-4043D01*
X722Y-4043D01*
X787Y-4070D01*
X836Y-4119D01*
X863Y-4184D01*
X863Y-4254D01*
X831Y-4332D01*
X830Y-4334D01*
X829Y-4335D01*
X829Y-4337D01*
X826Y-4344D01*
X824Y-4350D01*
X824Y-4352D01*
X823Y-4354D01*
X822Y-4361D01*
X821Y-4368D01*
X821Y-4369D01*
X821Y-4371D01*
X821Y-4378D01*
X821Y-4385D01*
X822Y-4387D01*
X822Y-4389D01*
X823Y-4396D01*
X825Y-4403D01*
X825Y-4404D01*
X826Y-4406D01*
X828Y-4412D01*
X829Y-4413D01*
X831Y-4418D01*
X831Y-4419D01*
X863Y-4496D01*
X863Y-4566D01*
X836Y-4631D01*
X787Y-4680D01*
X727Y-4705D01*
X722Y-4708D01*
X717Y-4710D01*
X714Y-4712D01*
X711Y-4713D01*
X707Y-4717D01*
X703Y-4719D01*
X700Y-4722D01*
X697Y-4724D01*
X694Y-4728D01*
X690Y-4732D01*
X688Y-4735D01*
X685Y-4737D01*
X683Y-4742D01*
X680Y-4746D01*
X678Y-4749D01*
X676Y-4752D01*
X674Y-4757D01*
X672Y-4762D01*
X671Y-4765D01*
X670Y-4769D01*
X669Y-4774D01*
X667Y-4779D01*
X667Y-4783D01*
X666Y-4786D01*
X666Y-4791D01*
X666Y-4797D01*
X666Y-4800D01*
X666Y-4804D01*
X667Y-4809D01*
X667Y-4814D01*
X668Y-4818D01*
X669Y-4821D01*
X670Y-4826D01*
X672Y-4831D01*
X673Y-4834D01*
X674Y-4838D01*
X677Y-4842D01*
X679Y-4847D01*
X681Y-4850D01*
X683Y-4853D01*
X686Y-4857D01*
X690Y-4862D01*
X692Y-4864D01*
X694Y-4867D01*
X698Y-4870D01*
X702Y-4874D01*
X705Y-4876D01*
X708Y-4878D01*
X712Y-4881D01*
X717Y-4884D01*
X722Y-4886D01*
X723Y-4887D01*
X725Y-4887D01*
X727Y-4889D01*
X787Y-4914D01*
X836Y-4963D01*
X863Y-5028D01*
X863Y-5097D01*
X831Y-5176D01*
X830Y-5177D01*
X829Y-5179D01*
X829Y-5180D01*
X826Y-5187D01*
X824Y-5194D01*
X824Y-5196D01*
X823Y-5197D01*
X822Y-5204D01*
X821Y-5211D01*
X821Y-5213D01*
X821Y-5215D01*
X821Y-5222D01*
X821Y-5229D01*
X822Y-5231D01*
X822Y-5232D01*
X823Y-5239D01*
X825Y-5246D01*
X825Y-5248D01*
X826Y-5250D01*
X828Y-5255D01*
X829Y-5257D01*
X831Y-5262D01*
X831Y-5263D01*
X863Y-5340D01*
X863Y-5410D01*
X836Y-5475D01*
X787Y-5524D01*
X722Y-5551D01*
X657Y-5551D01*
X655Y-5551D01*
X654Y-5551D01*
X647Y-5552D01*
X640Y-5552D01*
X638Y-5553D01*
X636Y-5553D01*
X629Y-5555D01*
X622Y-5557D01*
X621Y-5558D01*
X619Y-5558D01*
X613Y-5561D01*
X607Y-5565D01*
X605Y-5566D01*
X604Y-5566D01*
X598Y-5571D01*
X592Y-5575D01*
X591Y-5576D01*
X590Y-5577D01*
X585Y-5582D01*
X580Y-5588D01*
X579Y-5589D01*
X578Y-5590D01*
X574Y-5596D01*
X570Y-5602D01*
X569Y-5604D01*
X569Y-5605D01*
X566Y-5612D01*
X563Y-5618D01*
X563Y-5620D01*
X562Y-5622D01*
X561Y-5629D01*
X559Y-5636D01*
X559Y-5637D01*
X558Y-5639D01*
X558Y-5650D01*
X558Y-5756D01*
X558Y-5758D01*
X558Y-5760D01*
X559Y-5767D01*
X559Y-5774D01*
X560Y-5775D01*
X560Y-5777D01*
X562Y-5784D01*
X564Y-5791D01*
X565Y-5792D01*
X565Y-5794D01*
X569Y-5800D01*
X572Y-5807D01*
X573Y-5808D01*
X573Y-5810D01*
X578Y-5815D01*
X582Y-5821D01*
X583Y-5822D01*
X584Y-5824D01*
X590Y-5828D01*
X595Y-5833D01*
X596Y-5834D01*
X597Y-5835D01*
X603Y-5839D01*
X609Y-5843D01*
X611Y-5844D01*
X612Y-5845D01*
X619Y-5847D01*
X626Y-5850D01*
X627Y-5851D01*
X629Y-5851D01*
X636Y-5853D01*
X643Y-5854D01*
X644Y-5855D01*
X646Y-5855D01*
X657Y-5856D01*
X722Y-5856D01*
X787Y-5882D01*
X836Y-5932D01*
X863Y-5996D01*
X863Y-6066D01*
X836Y-6131D01*
X834Y-6133D01*
X833Y-6134D01*
X832Y-6135D01*
X828Y-6141D01*
X823Y-6146D01*
X822Y-6148D01*
X821Y-6149D01*
X818Y-6156D01*
X814Y-6162D01*
X814Y-6163D01*
X813Y-6165D01*
X811Y-6172D01*
X808Y-6178D01*
X808Y-6180D01*
X808Y-6182D01*
X807Y-6189D01*
X806Y-6196D01*
X806Y-6198D01*
X805Y-6199D01*
X806Y-6206D01*
X806Y-6214D01*
X806Y-6215D01*
X806Y-6217D01*
X808Y-6224D01*
X809Y-6231D01*
X810Y-6232D01*
X810Y-6234D01*
X813Y-6241D01*
X816Y-6247D01*
X817Y-6249D01*
X817Y-6250D01*
X821Y-6256D01*
X825Y-6262D01*
X826Y-6264D01*
X827Y-6265D01*
X834Y-6273D01*
X836Y-6275D01*
X863Y-6340D01*
X863Y-6410D01*
X836Y-6475D01*
X814Y-6497D01*
X811Y-6501D01*
X807Y-6505D01*
X805Y-6508D01*
X803Y-6511D01*
X800Y-6515D01*
X797Y-6520D01*
X796Y-6523D01*
X794Y-6526D01*
X792Y-6531D01*
X790Y-6536D01*
X789Y-6539D01*
X788Y-6543D01*
X787Y-6548D01*
X786Y-6553D01*
X786Y-6557D01*
X785Y-6560D01*
X785Y-6565D01*
X785Y-6571D01*
X785Y-6574D01*
X785Y-6578D01*
X786Y-6583D01*
X787Y-6588D01*
X788Y-6592D01*
X789Y-6595D01*
X791Y-6600D01*
X792Y-6605D01*
X794Y-6608D01*
X795Y-6612D01*
X798Y-6616D01*
X800Y-6621D01*
X803Y-6623D01*
X805Y-6627D01*
X808Y-6630D01*
X811Y-6635D01*
X814Y-6637D01*
X816Y-6640D01*
X820Y-6643D01*
X824Y-6646D01*
X827Y-6648D01*
X830Y-6651D01*
X835Y-6653D01*
X839Y-6656D01*
X843Y-6657D01*
X846Y-6659D01*
X851Y-6660D01*
X856Y-6662D01*
X859Y-6663D01*
X863Y-6664D01*
X868Y-6665D01*
X873Y-6666D01*
X878Y-6666D01*
X880Y-6666D01*
X882Y-6666D01*
X884Y-6667D01*
X1224Y-6667D01*
X1263Y-6705D01*
X1263Y-7004D01*
X1261Y-7006D01*
X1261Y-7008D01*
X1260Y-7009D01*
X1258Y-7016D01*
X1255Y-7023D01*
X1255Y-7024D01*
X1255Y-7026D01*
X1254Y-7033D01*
X1252Y-7040D01*
X1252Y-7042D01*
X1252Y-7043D01*
X1253Y-7050D01*
X1253Y-7058D01*
X1253Y-7059D01*
X1253Y-7061D01*
X1255Y-7068D01*
X1256Y-7075D01*
X1257Y-7077D01*
X1257Y-7078D01*
X1260Y-7085D01*
X1263Y-7091D01*
X1263Y-7093D01*
X1264Y-7095D01*
X1264Y-7102D01*
X1265Y-7103D01*
X1265Y-7105D01*
X1267Y-7112D01*
X1269Y-7119D01*
X1270Y-7120D01*
X1270Y-7122D01*
X1273Y-7128D01*
X1276Y-7135D01*
X1277Y-7136D01*
X1278Y-7138D01*
X1283Y-7143D01*
X1287Y-7149D01*
X1288Y-7150D01*
X1289Y-7152D01*
X1294Y-7156D01*
X1299Y-7161D01*
X1301Y-7162D01*
X1302Y-7163D01*
X1308Y-7167D01*
X1314Y-7171D01*
X1316Y-7172D01*
X1317Y-7173D01*
X1324Y-7175D01*
X1330Y-7178D01*
X1332Y-7179D01*
X1333Y-7179D01*
X1340Y-7181D01*
X1347Y-7182D01*
X1349Y-7183D01*
X1351Y-7183D01*
X1362Y-7184D01*
X1977Y-7184D01*
X1985Y-7183D01*
X1994Y-7182D01*
X2003Y-7180D01*
X2011Y-7177D01*
X2019Y-7174D01*
X2027Y-7170D01*
X2034Y-7165D01*
X2041Y-7160D01*
X2042Y-7159D01*
X2048Y-7153D01*
X2054Y-7147D01*
X2059Y-7140D01*
X2064Y-7132D01*
X2068Y-7122D01*
X2070Y-7119D01*
X2119Y-7070D01*
X2184Y-7043D01*
X2254Y-7043D01*
X2318Y-7070D01*
X2368Y-7119D01*
X2394Y-7184D01*
X2394Y-7254D01*
X2368Y-7318D01*
X2318Y-7368D01*
X2254Y-7394D01*
X2184Y-7394D01*
X2119Y-7368D01*
X2066Y-7314D01*
X2060Y-7310D01*
X2055Y-7305D01*
X2053Y-7304D01*
X2052Y-7303D01*
X2046Y-7299D01*
X2040Y-7296D01*
X2038Y-7295D01*
X2037Y-7294D01*
X2030Y-7292D01*
X2024Y-7289D01*
X2022Y-7289D01*
X2020Y-7288D01*
X2013Y-7287D01*
X2006Y-7286D01*
X2004Y-7285D01*
X2003Y-7285D01*
X2001Y-7285D01*
X1995Y-7285D01*
X1362Y-7285D01*
X1360Y-7285D01*
X1359Y-7285D01*
X1351Y-7286D01*
X1344Y-7287D01*
X1343Y-7287D01*
X1341Y-7287D01*
X1334Y-7289D01*
X1327Y-7291D01*
X1326Y-7292D01*
X1324Y-7292D01*
X1318Y-7296D01*
X1311Y-7299D01*
X1310Y-7300D01*
X1308Y-7301D01*
X1303Y-7305D01*
X1297Y-7309D01*
X1296Y-7310D01*
X1295Y-7311D01*
X1290Y-7317D01*
X1285Y-7322D01*
X1284Y-7323D01*
X1283Y-7324D01*
X1279Y-7331D01*
X1275Y-7337D01*
X1274Y-7338D01*
X1273Y-7339D01*
X1271Y-7346D01*
X1268Y-7353D01*
X1267Y-7354D01*
X1267Y-7356D01*
X1265Y-7363D01*
X1264Y-7368D01*
X1224Y-7409D01*
X1218Y-7409D01*
X1213Y-7410D01*
X1210Y-7411D01*
X1206Y-7411D01*
X1201Y-7413D01*
X1196Y-7415D01*
X1193Y-7416D01*
X1190Y-7417D01*
X1185Y-7420D01*
X1180Y-7422D01*
X1177Y-7424D01*
X1174Y-7426D01*
X1170Y-7429D01*
X1166Y-7432D01*
X1163Y-7435D01*
X1161Y-7437D01*
X1157Y-7441D01*
X1154Y-7445D01*
X1152Y-7448D01*
X1149Y-7451D01*
X1147Y-7455D01*
X1144Y-7460D01*
X1142Y-7463D01*
X1141Y-7466D01*
X1139Y-7471D01*
X1137Y-7476D01*
X1136Y-7479D01*
X1135Y-7483D01*
X1134Y-7488D01*
X1132Y-7493D01*
X1132Y-7497D01*
X1132Y-7500D01*
X1132Y-7505D01*
X1131Y-7511D01*
X1132Y-7514D01*
X1132Y-7518D01*
X1133Y-7523D01*
X1134Y-7528D01*
X1135Y-7532D01*
X1135Y-7535D01*
X1139Y-7545D01*
X1139Y-7546D01*
X1144Y-7559D01*
X1144Y-7629D01*
X1111Y-7710D01*
X1109Y-7717D01*
X1106Y-7723D01*
X1106Y-7725D01*
X1106Y-7727D01*
X1105Y-7734D01*
X1104Y-7741D01*
X1104Y-7742D01*
X1103Y-7744D01*
X1104Y-7751D01*
X1104Y-7758D01*
X1104Y-7760D01*
X1104Y-7762D01*
X1106Y-7769D01*
X1107Y-7776D01*
X1108Y-7778D01*
X1108Y-7779D01*
X1109Y-7781D01*
X1111Y-7786D01*
X1140Y-7855D01*
X1140Y-7925D01*
X1113Y-7990D01*
X1063Y-8039D01*
X999Y-8066D01*
X929Y-8066D01*
G37*
%LPD*%
%LPC*%
G36*
X2434Y-6832D02*
X2434Y-6832D01*
X2369Y-6805D01*
X2320Y-6756D01*
X2293Y-6691D01*
X2293Y-6621D01*
X2320Y-6557D01*
X2369Y-6507D01*
X2434Y-6481D01*
X2504Y-6481D01*
X2568Y-6507D01*
X2612Y-6551D01*
X2614Y-6553D01*
X2617Y-6555D01*
X2621Y-6558D01*
X2625Y-6562D01*
X2628Y-6564D01*
X2631Y-6566D01*
X2636Y-6568D01*
X2640Y-6571D01*
X2644Y-6572D01*
X2647Y-6573D01*
X2652Y-6575D01*
X2657Y-6576D01*
X2661Y-6577D01*
X2664Y-6578D01*
X2669Y-6578D01*
X2675Y-6579D01*
X2678Y-6579D01*
X2681Y-6580D01*
X2687Y-6579D01*
X2692Y-6579D01*
X2696Y-6578D01*
X2699Y-6578D01*
X2704Y-6577D01*
X2710Y-6576D01*
X2713Y-6574D01*
X2716Y-6573D01*
X2721Y-6571D01*
X2726Y-6569D01*
X2729Y-6567D01*
X2732Y-6566D01*
X2736Y-6563D01*
X2741Y-6560D01*
X2744Y-6558D01*
X2746Y-6556D01*
X2750Y-6552D01*
X2754Y-6548D01*
X2756Y-6545D01*
X2759Y-6543D01*
X2762Y-6539D01*
X2765Y-6534D01*
X2767Y-6531D01*
X2769Y-6528D01*
X2773Y-6519D01*
X2773Y-6518D01*
X2812Y-6424D01*
X2814Y-6418D01*
X2817Y-6411D01*
X2817Y-6409D01*
X2818Y-6407D01*
X2819Y-6401D01*
X2820Y-6394D01*
X2820Y-6392D01*
X2820Y-6390D01*
X2820Y-6383D01*
X2819Y-6376D01*
X2819Y-6374D01*
X2819Y-6372D01*
X2817Y-6365D01*
X2816Y-6359D01*
X2815Y-6356D01*
X2815Y-6355D01*
X2814Y-6353D01*
X2812Y-6348D01*
X2781Y-6271D01*
X2781Y-6201D01*
X2812Y-6124D01*
X2814Y-6118D01*
X2817Y-6111D01*
X2817Y-6109D01*
X2818Y-6107D01*
X2819Y-6101D01*
X2820Y-6094D01*
X2820Y-6092D01*
X2820Y-6090D01*
X2820Y-6083D01*
X2819Y-6076D01*
X2819Y-6074D01*
X2819Y-6072D01*
X2817Y-6066D01*
X2816Y-6059D01*
X2815Y-6056D01*
X2815Y-6055D01*
X2814Y-6053D01*
X2812Y-6048D01*
X2781Y-5971D01*
X2781Y-5901D01*
X2812Y-5824D01*
X2814Y-5818D01*
X2817Y-5811D01*
X2817Y-5809D01*
X2818Y-5807D01*
X2819Y-5801D01*
X2820Y-5794D01*
X2820Y-5792D01*
X2820Y-5790D01*
X2820Y-5783D01*
X2819Y-5776D01*
X2819Y-5774D01*
X2819Y-5772D01*
X2817Y-5766D01*
X2816Y-5759D01*
X2815Y-5756D01*
X2815Y-5755D01*
X2814Y-5753D01*
X2812Y-5748D01*
X2781Y-5671D01*
X2781Y-5601D01*
X2812Y-5524D01*
X2814Y-5518D01*
X2817Y-5511D01*
X2817Y-5509D01*
X2818Y-5507D01*
X2819Y-5501D01*
X2820Y-5494D01*
X2820Y-5492D01*
X2820Y-5490D01*
X2820Y-5483D01*
X2819Y-5476D01*
X2819Y-5474D01*
X2819Y-5472D01*
X2817Y-5466D01*
X2816Y-5459D01*
X2815Y-5456D01*
X2815Y-5455D01*
X2814Y-5453D01*
X2812Y-5448D01*
X2781Y-5371D01*
X2781Y-5301D01*
X2812Y-5224D01*
X2814Y-5218D01*
X2817Y-5211D01*
X2817Y-5209D01*
X2818Y-5207D01*
X2819Y-5201D01*
X2820Y-5194D01*
X2820Y-5192D01*
X2820Y-5190D01*
X2820Y-5183D01*
X2819Y-5176D01*
X2819Y-5174D01*
X2819Y-5172D01*
X2817Y-5166D01*
X2816Y-5159D01*
X2815Y-5156D01*
X2815Y-5155D01*
X2814Y-5153D01*
X2812Y-5148D01*
X2781Y-5071D01*
X2781Y-5001D01*
X2812Y-4924D01*
X2814Y-4918D01*
X2817Y-4911D01*
X2817Y-4909D01*
X2818Y-4907D01*
X2819Y-4901D01*
X2820Y-4894D01*
X2820Y-4892D01*
X2820Y-4890D01*
X2820Y-4883D01*
X2819Y-4876D01*
X2819Y-4874D01*
X2819Y-4872D01*
X2817Y-4866D01*
X2816Y-4859D01*
X2815Y-4856D01*
X2815Y-4855D01*
X2814Y-4853D01*
X2812Y-4848D01*
X2781Y-4771D01*
X2781Y-4701D01*
X2812Y-4624D01*
X2814Y-4618D01*
X2817Y-4611D01*
X2817Y-4609D01*
X2818Y-4607D01*
X2819Y-4601D01*
X2820Y-4594D01*
X2820Y-4592D01*
X2820Y-4590D01*
X2820Y-4583D01*
X2819Y-4576D01*
X2819Y-4574D01*
X2819Y-4572D01*
X2817Y-4566D01*
X2816Y-4559D01*
X2815Y-4556D01*
X2815Y-4555D01*
X2814Y-4553D01*
X2812Y-4548D01*
X2781Y-4471D01*
X2781Y-4401D01*
X2812Y-4324D01*
X2814Y-4318D01*
X2817Y-4311D01*
X2817Y-4309D01*
X2818Y-4307D01*
X2819Y-4301D01*
X2820Y-4294D01*
X2820Y-4292D01*
X2820Y-4290D01*
X2820Y-4283D01*
X2819Y-4276D01*
X2819Y-4274D01*
X2819Y-4272D01*
X2817Y-4266D01*
X2816Y-4259D01*
X2815Y-4256D01*
X2815Y-4255D01*
X2814Y-4253D01*
X2812Y-4248D01*
X2781Y-4171D01*
X2781Y-4101D01*
X2812Y-4024D01*
X2814Y-4018D01*
X2817Y-4011D01*
X2817Y-4009D01*
X2818Y-4007D01*
X2819Y-4001D01*
X2820Y-3994D01*
X2820Y-3992D01*
X2820Y-3990D01*
X2820Y-3983D01*
X2819Y-3976D01*
X2819Y-3974D01*
X2819Y-3972D01*
X2817Y-3966D01*
X2816Y-3959D01*
X2815Y-3956D01*
X2815Y-3955D01*
X2814Y-3953D01*
X2812Y-3948D01*
X2781Y-3871D01*
X2781Y-3801D01*
X2812Y-3724D01*
X2814Y-3718D01*
X2817Y-3711D01*
X2817Y-3709D01*
X2818Y-3707D01*
X2819Y-3701D01*
X2820Y-3694D01*
X2820Y-3692D01*
X2820Y-3690D01*
X2820Y-3683D01*
X2819Y-3676D01*
X2819Y-3674D01*
X2819Y-3672D01*
X2817Y-3666D01*
X2816Y-3659D01*
X2815Y-3656D01*
X2815Y-3655D01*
X2814Y-3653D01*
X2812Y-3648D01*
X2781Y-3571D01*
X2781Y-3501D01*
X2812Y-3424D01*
X2814Y-3418D01*
X2817Y-3411D01*
X2817Y-3409D01*
X2818Y-3407D01*
X2819Y-3401D01*
X2820Y-3394D01*
X2820Y-3392D01*
X2820Y-3390D01*
X2820Y-3383D01*
X2819Y-3376D01*
X2819Y-3374D01*
X2819Y-3372D01*
X2817Y-3366D01*
X2816Y-3359D01*
X2815Y-3356D01*
X2815Y-3355D01*
X2814Y-3353D01*
X2812Y-3348D01*
X2781Y-3271D01*
X2781Y-3201D01*
X2812Y-3124D01*
X2814Y-3118D01*
X2817Y-3111D01*
X2817Y-3109D01*
X2818Y-3107D01*
X2819Y-3101D01*
X2820Y-3094D01*
X2820Y-3092D01*
X2820Y-3090D01*
X2820Y-3083D01*
X2819Y-3076D01*
X2819Y-3074D01*
X2819Y-3072D01*
X2817Y-3066D01*
X2816Y-3059D01*
X2815Y-3056D01*
X2815Y-3055D01*
X2814Y-3053D01*
X2812Y-3048D01*
X2781Y-2971D01*
X2781Y-2901D01*
X2812Y-2824D01*
X2814Y-2818D01*
X2817Y-2811D01*
X2817Y-2809D01*
X2818Y-2807D01*
X2819Y-2801D01*
X2820Y-2794D01*
X2820Y-2792D01*
X2820Y-2790D01*
X2820Y-2783D01*
X2819Y-2776D01*
X2819Y-2774D01*
X2819Y-2772D01*
X2817Y-2766D01*
X2816Y-2759D01*
X2815Y-2756D01*
X2815Y-2755D01*
X2814Y-2753D01*
X2812Y-2748D01*
X2781Y-2671D01*
X2781Y-2601D01*
X2812Y-2524D01*
X2814Y-2518D01*
X2817Y-2511D01*
X2817Y-2509D01*
X2818Y-2507D01*
X2819Y-2501D01*
X2820Y-2494D01*
X2820Y-2492D01*
X2820Y-2490D01*
X2820Y-2483D01*
X2819Y-2476D01*
X2819Y-2474D01*
X2819Y-2472D01*
X2817Y-2465D01*
X2816Y-2459D01*
X2815Y-2456D01*
X2815Y-2455D01*
X2814Y-2453D01*
X2812Y-2448D01*
X2781Y-2371D01*
X2781Y-2301D01*
X2812Y-2224D01*
X2814Y-2218D01*
X2817Y-2211D01*
X2817Y-2209D01*
X2818Y-2207D01*
X2819Y-2201D01*
X2820Y-2194D01*
X2820Y-2192D01*
X2820Y-2190D01*
X2820Y-2183D01*
X2819Y-2176D01*
X2819Y-2174D01*
X2819Y-2172D01*
X2817Y-2166D01*
X2816Y-2159D01*
X2815Y-2156D01*
X2815Y-2155D01*
X2814Y-2153D01*
X2812Y-2148D01*
X2781Y-2071D01*
X2781Y-2001D01*
X2807Y-1937D01*
X2857Y-1887D01*
X2921Y-1860D01*
X2991Y-1860D01*
X3056Y-1887D01*
X3105Y-1937D01*
X3132Y-2001D01*
X3132Y-2071D01*
X3100Y-2148D01*
X3098Y-2155D01*
X3096Y-2161D01*
X3095Y-2163D01*
X3095Y-2165D01*
X3094Y-2172D01*
X3093Y-2179D01*
X3093Y-2181D01*
X3093Y-2183D01*
X3093Y-2189D01*
X3093Y-2196D01*
X3093Y-2198D01*
X3094Y-2200D01*
X3095Y-2207D01*
X3096Y-2214D01*
X3097Y-2216D01*
X3098Y-2217D01*
X3098Y-2219D01*
X3100Y-2224D01*
X3132Y-2301D01*
X3132Y-2371D01*
X3100Y-2448D01*
X3098Y-2455D01*
X3096Y-2461D01*
X3095Y-2463D01*
X3095Y-2465D01*
X3094Y-2472D01*
X3093Y-2479D01*
X3093Y-2481D01*
X3093Y-2483D01*
X3093Y-2489D01*
X3093Y-2496D01*
X3093Y-2498D01*
X3094Y-2500D01*
X3095Y-2507D01*
X3096Y-2514D01*
X3097Y-2516D01*
X3098Y-2517D01*
X3098Y-2519D01*
X3100Y-2524D01*
X3132Y-2601D01*
X3132Y-2671D01*
X3100Y-2748D01*
X3098Y-2755D01*
X3096Y-2761D01*
X3095Y-2763D01*
X3095Y-2765D01*
X3094Y-2772D01*
X3093Y-2779D01*
X3093Y-2781D01*
X3093Y-2783D01*
X3093Y-2789D01*
X3093Y-2796D01*
X3093Y-2798D01*
X3094Y-2800D01*
X3095Y-2807D01*
X3096Y-2814D01*
X3097Y-2816D01*
X3098Y-2817D01*
X3098Y-2819D01*
X3100Y-2824D01*
X3132Y-2901D01*
X3132Y-2971D01*
X3100Y-3048D01*
X3098Y-3055D01*
X3096Y-3061D01*
X3095Y-3063D01*
X3095Y-3065D01*
X3094Y-3072D01*
X3093Y-3079D01*
X3093Y-3081D01*
X3093Y-3083D01*
X3093Y-3089D01*
X3093Y-3096D01*
X3093Y-3098D01*
X3094Y-3100D01*
X3095Y-3107D01*
X3096Y-3114D01*
X3097Y-3116D01*
X3098Y-3117D01*
X3098Y-3119D01*
X3100Y-3124D01*
X3132Y-3201D01*
X3132Y-3271D01*
X3100Y-3348D01*
X3098Y-3355D01*
X3096Y-3361D01*
X3095Y-3363D01*
X3095Y-3365D01*
X3094Y-3372D01*
X3093Y-3379D01*
X3093Y-3381D01*
X3093Y-3383D01*
X3093Y-3389D01*
X3093Y-3396D01*
X3093Y-3398D01*
X3094Y-3400D01*
X3095Y-3407D01*
X3096Y-3414D01*
X3097Y-3416D01*
X3098Y-3417D01*
X3098Y-3419D01*
X3100Y-3424D01*
X3132Y-3501D01*
X3132Y-3571D01*
X3100Y-3648D01*
X3098Y-3655D01*
X3096Y-3661D01*
X3095Y-3663D01*
X3095Y-3665D01*
X3094Y-3672D01*
X3093Y-3679D01*
X3093Y-3681D01*
X3093Y-3683D01*
X3093Y-3689D01*
X3093Y-3696D01*
X3093Y-3698D01*
X3094Y-3700D01*
X3095Y-3707D01*
X3096Y-3714D01*
X3097Y-3716D01*
X3098Y-3717D01*
X3098Y-3719D01*
X3100Y-3724D01*
X3132Y-3801D01*
X3132Y-3871D01*
X3100Y-3948D01*
X3098Y-3955D01*
X3096Y-3961D01*
X3095Y-3963D01*
X3095Y-3965D01*
X3094Y-3972D01*
X3093Y-3979D01*
X3093Y-3981D01*
X3093Y-3983D01*
X3093Y-3989D01*
X3093Y-3996D01*
X3093Y-3998D01*
X3094Y-4000D01*
X3095Y-4007D01*
X3096Y-4014D01*
X3097Y-4016D01*
X3098Y-4017D01*
X3098Y-4019D01*
X3100Y-4024D01*
X3132Y-4101D01*
X3132Y-4171D01*
X3100Y-4248D01*
X3098Y-4255D01*
X3096Y-4261D01*
X3095Y-4263D01*
X3095Y-4265D01*
X3094Y-4272D01*
X3093Y-4279D01*
X3093Y-4281D01*
X3093Y-4283D01*
X3093Y-4289D01*
X3093Y-4296D01*
X3093Y-4298D01*
X3094Y-4300D01*
X3095Y-4307D01*
X3096Y-4314D01*
X3097Y-4316D01*
X3098Y-4317D01*
X3098Y-4319D01*
X3100Y-4324D01*
X3132Y-4401D01*
X3132Y-4471D01*
X3100Y-4548D01*
X3098Y-4555D01*
X3096Y-4561D01*
X3095Y-4563D01*
X3095Y-4565D01*
X3094Y-4572D01*
X3093Y-4579D01*
X3093Y-4581D01*
X3093Y-4583D01*
X3093Y-4589D01*
X3093Y-4596D01*
X3093Y-4598D01*
X3094Y-4600D01*
X3095Y-4607D01*
X3096Y-4614D01*
X3097Y-4616D01*
X3098Y-4617D01*
X3098Y-4619D01*
X3100Y-4624D01*
X3132Y-4701D01*
X3132Y-4771D01*
X3100Y-4848D01*
X3098Y-4855D01*
X3096Y-4861D01*
X3095Y-4863D01*
X3095Y-4865D01*
X3094Y-4872D01*
X3093Y-4879D01*
X3093Y-4881D01*
X3093Y-4883D01*
X3093Y-4889D01*
X3093Y-4896D01*
X3093Y-4898D01*
X3094Y-4900D01*
X3095Y-4907D01*
X3096Y-4914D01*
X3097Y-4916D01*
X3098Y-4917D01*
X3098Y-4919D01*
X3100Y-4924D01*
X3132Y-5001D01*
X3132Y-5071D01*
X3100Y-5148D01*
X3098Y-5155D01*
X3096Y-5161D01*
X3095Y-5163D01*
X3095Y-5165D01*
X3094Y-5172D01*
X3093Y-5179D01*
X3093Y-5181D01*
X3093Y-5183D01*
X3093Y-5189D01*
X3093Y-5196D01*
X3093Y-5198D01*
X3094Y-5200D01*
X3095Y-5207D01*
X3096Y-5214D01*
X3097Y-5216D01*
X3098Y-5217D01*
X3098Y-5219D01*
X3100Y-5224D01*
X3132Y-5301D01*
X3132Y-5371D01*
X3100Y-5448D01*
X3098Y-5455D01*
X3096Y-5461D01*
X3095Y-5463D01*
X3095Y-5465D01*
X3094Y-5472D01*
X3093Y-5479D01*
X3093Y-5481D01*
X3093Y-5483D01*
X3093Y-5489D01*
X3093Y-5496D01*
X3093Y-5498D01*
X3094Y-5500D01*
X3095Y-5507D01*
X3096Y-5514D01*
X3097Y-5516D01*
X3098Y-5517D01*
X3098Y-5519D01*
X3100Y-5524D01*
X3132Y-5601D01*
X3132Y-5671D01*
X3100Y-5748D01*
X3098Y-5755D01*
X3096Y-5761D01*
X3095Y-5763D01*
X3095Y-5765D01*
X3094Y-5772D01*
X3093Y-5779D01*
X3093Y-5781D01*
X3093Y-5783D01*
X3093Y-5789D01*
X3093Y-5796D01*
X3093Y-5798D01*
X3094Y-5800D01*
X3095Y-5807D01*
X3096Y-5814D01*
X3097Y-5816D01*
X3098Y-5817D01*
X3098Y-5819D01*
X3100Y-5824D01*
X3132Y-5901D01*
X3132Y-5971D01*
X3100Y-6048D01*
X3098Y-6055D01*
X3096Y-6061D01*
X3095Y-6063D01*
X3095Y-6065D01*
X3094Y-6072D01*
X3093Y-6079D01*
X3093Y-6081D01*
X3093Y-6083D01*
X3093Y-6089D01*
X3093Y-6096D01*
X3093Y-6098D01*
X3094Y-6100D01*
X3095Y-6107D01*
X3096Y-6114D01*
X3097Y-6116D01*
X3098Y-6117D01*
X3098Y-6119D01*
X3100Y-6124D01*
X3132Y-6201D01*
X3132Y-6271D01*
X3100Y-6348D01*
X3098Y-6355D01*
X3096Y-6361D01*
X3095Y-6363D01*
X3095Y-6365D01*
X3094Y-6372D01*
X3093Y-6379D01*
X3093Y-6381D01*
X3093Y-6383D01*
X3093Y-6389D01*
X3093Y-6396D01*
X3093Y-6398D01*
X3094Y-6400D01*
X3095Y-6407D01*
X3096Y-6414D01*
X3097Y-6416D01*
X3098Y-6417D01*
X3098Y-6419D01*
X3100Y-6424D01*
X3132Y-6501D01*
X3132Y-6571D01*
X3105Y-6636D01*
X3056Y-6685D01*
X2991Y-6712D01*
X2921Y-6712D01*
X2857Y-6685D01*
X2813Y-6642D01*
X2811Y-6640D01*
X2808Y-6637D01*
X2804Y-6634D01*
X2800Y-6631D01*
X2797Y-6629D01*
X2794Y-6627D01*
X2789Y-6625D01*
X2785Y-6622D01*
X2781Y-6621D01*
X2778Y-6619D01*
X2773Y-6618D01*
X2768Y-6616D01*
X2764Y-6615D01*
X2761Y-6615D01*
X2756Y-6614D01*
X2750Y-6613D01*
X2747Y-6613D01*
X2744Y-6613D01*
X2738Y-6613D01*
X2733Y-6613D01*
X2729Y-6614D01*
X2726Y-6614D01*
X2721Y-6616D01*
X2715Y-6617D01*
X2712Y-6618D01*
X2709Y-6619D01*
X2704Y-6621D01*
X2699Y-6623D01*
X2696Y-6625D01*
X2693Y-6627D01*
X2689Y-6630D01*
X2684Y-6633D01*
X2681Y-6635D01*
X2679Y-6637D01*
X2675Y-6641D01*
X2671Y-6644D01*
X2669Y-6647D01*
X2666Y-6649D01*
X2663Y-6654D01*
X2660Y-6658D01*
X2658Y-6661D01*
X2656Y-6664D01*
X2652Y-6673D01*
X2652Y-6674D01*
X2618Y-6756D01*
X2568Y-6805D01*
X2504Y-6832D01*
X2434Y-6832D01*
G37*
%LPD*%
%LPC*%
G36*
X3167Y-8418D02*
X3167Y-8418D01*
X3013Y-8355D01*
X2895Y-8237D01*
X2832Y-8083D01*
X2832Y-7917D01*
X2895Y-7763D01*
X3013Y-7645D01*
X3167Y-7582D01*
X3333Y-7582D01*
X3487Y-7645D01*
X3605Y-7763D01*
X3668Y-7917D01*
X3668Y-8083D01*
X3605Y-8237D01*
X3487Y-8355D01*
X3333Y-8418D01*
X3167Y-8418D01*
G37*
%LPD*%
G36*
X1318Y-309D02*
X1318Y-309D01*
X1319Y-309D01*
X1324Y-308D01*
X1330Y-308D01*
X1331Y-307D01*
X1332Y-307D01*
X1337Y-305D01*
X1343Y-303D01*
X1344Y-302D01*
X1345Y-302D01*
X1349Y-299D01*
X1354Y-296D01*
X1355Y-295D01*
X1356Y-294D01*
X1360Y-290D01*
X1363Y-286D01*
X1364Y-285D01*
X1365Y-284D01*
X1368Y-279D01*
X1370Y-274D01*
X1371Y-273D01*
X1371Y-272D01*
X1373Y-266D01*
X1374Y-264D01*
X1374Y-261D01*
X1375Y-260D01*
X1375Y-258D01*
X1376Y-250D01*
X1376Y-230D01*
X1375Y-225D01*
X1375Y-219D01*
X1374Y-218D01*
X1374Y-216D01*
X1372Y-211D01*
X1371Y-206D01*
X1370Y-205D01*
X1369Y-203D01*
X1366Y-199D01*
X1364Y-194D01*
X1362Y-193D01*
X1362Y-192D01*
X1361Y-191D01*
X1358Y-188D01*
X1243Y-73D01*
X1243Y73D01*
X1358Y188D01*
X1361Y192D01*
X1365Y196D01*
X1366Y197D01*
X1367Y199D01*
X1369Y203D01*
X1371Y208D01*
X1372Y210D01*
X1372Y211D01*
X1374Y216D01*
X1375Y221D01*
X1375Y223D01*
X1375Y224D01*
X1375Y226D01*
X1376Y230D01*
X1376Y300D01*
X1375Y304D01*
X1375Y308D01*
X1374Y311D01*
X1374Y314D01*
X1373Y318D01*
X1372Y321D01*
X1370Y324D01*
X1369Y327D01*
X1367Y330D01*
X1365Y334D01*
X1363Y336D01*
X1362Y338D01*
X1359Y341D01*
X1356Y344D01*
X1354Y345D01*
X1352Y347D01*
X1349Y349D01*
X1345Y352D01*
X1343Y353D01*
X1340Y354D01*
X1336Y356D01*
X1333Y357D01*
X1330Y358D01*
X1327Y358D01*
X1323Y359D01*
X1319Y359D01*
X1316Y359D01*
X1314Y359D01*
X1310Y359D01*
X1306Y358D01*
X1303Y358D01*
X1300Y357D01*
X1296Y356D01*
X1293Y354D01*
X1290Y353D01*
X1288Y352D01*
X1284Y350D01*
X1281Y348D01*
X1278Y345D01*
X1276Y344D01*
X1276Y343D01*
X1274Y342D01*
X1247Y314D01*
X1142Y314D01*
X1140Y314D01*
X1138Y314D01*
X1133Y313D01*
X1129Y313D01*
X1127Y312D01*
X1124Y312D01*
X1120Y310D01*
X1116Y308D01*
X1114Y307D01*
X1112Y306D01*
X1108Y303D01*
X1104Y301D01*
X1103Y299D01*
X1101Y298D01*
X1098Y294D01*
X1095Y291D01*
X1094Y289D01*
X1092Y287D01*
X1090Y283D01*
X1088Y279D01*
X1087Y277D01*
X1086Y275D01*
X1085Y270D01*
X1084Y266D01*
X1084Y264D01*
X1083Y262D01*
X1083Y257D01*
X1083Y252D01*
X1083Y250D01*
X1083Y248D01*
X1085Y240D01*
X1093Y210D01*
X1093Y59D01*
X943Y59D01*
X943Y298D01*
X975Y298D01*
X979Y298D01*
X983Y298D01*
X985Y299D01*
X988Y299D01*
X992Y301D01*
X996Y302D01*
X998Y303D01*
X1001Y304D01*
X1004Y306D01*
X1008Y308D01*
X1010Y310D01*
X1012Y311D01*
X1015Y314D01*
X1018Y317D01*
X1020Y319D01*
X1022Y321D01*
X1024Y325D01*
X1026Y328D01*
X1027Y330D01*
X1029Y333D01*
X1030Y337D01*
X1032Y340D01*
X1032Y343D01*
X1033Y346D01*
X1033Y350D01*
X1034Y354D01*
X1034Y357D01*
X1034Y359D01*
X1033Y363D01*
X1033Y368D01*
X1032Y370D01*
X1032Y373D01*
X1030Y377D01*
X1029Y381D01*
X1027Y383D01*
X1026Y386D01*
X1024Y389D01*
X1022Y392D01*
X1019Y395D01*
X1018Y397D01*
X1016Y399D01*
X998Y417D01*
X998Y439D01*
X998Y440D01*
X998Y441D01*
X997Y447D01*
X996Y452D01*
X996Y454D01*
X996Y455D01*
X994Y460D01*
X992Y465D01*
X991Y466D01*
X991Y467D01*
X987Y472D01*
X984Y477D01*
X983Y477D01*
X983Y479D01*
X979Y482D01*
X975Y486D01*
X973Y487D01*
X972Y488D01*
X968Y490D01*
X963Y493D01*
X962Y493D01*
X960Y494D01*
X955Y495D01*
X950Y497D01*
X948Y497D01*
X947Y497D01*
X939Y498D01*
X808Y498D01*
X805Y498D01*
X801Y498D01*
X798Y497D01*
X794Y496D01*
X791Y495D01*
X788Y495D01*
X785Y493D01*
X782Y492D01*
X779Y490D01*
X776Y489D01*
X773Y486D01*
X770Y484D01*
X768Y482D01*
X765Y480D01*
X763Y477D01*
X761Y475D01*
X759Y472D01*
X757Y469D01*
X754Y464D01*
X681Y390D01*
X678Y386D01*
X674Y383D01*
X674Y381D01*
X672Y380D01*
X670Y375D01*
X668Y371D01*
X667Y369D01*
X667Y367D01*
X666Y362D01*
X664Y358D01*
X664Y356D01*
X664Y354D01*
X664Y349D01*
X664Y344D01*
X664Y342D01*
X664Y340D01*
X665Y335D01*
X666Y331D01*
X667Y329D01*
X668Y327D01*
X670Y323D01*
X672Y318D01*
X673Y317D01*
X674Y315D01*
X677Y311D01*
X680Y307D01*
X682Y306D01*
X683Y305D01*
X687Y302D01*
X691Y299D01*
X692Y298D01*
X694Y297D01*
X698Y295D01*
X703Y293D01*
X705Y292D01*
X706Y291D01*
X711Y291D01*
X716Y289D01*
X718Y289D01*
X720Y289D01*
X725Y290D01*
X730Y290D01*
X732Y290D01*
X734Y290D01*
X735Y290D01*
X738Y291D01*
X762Y298D01*
X825Y298D01*
X825Y59D01*
X500Y59D01*
X499Y59D01*
X497Y59D01*
X492Y58D01*
X486Y58D01*
X485Y57D01*
X484Y57D01*
X479Y55D01*
X474Y53D01*
X473Y52D01*
X471Y52D01*
X467Y49D01*
X462Y46D01*
X461Y45D01*
X460Y44D01*
X457Y40D01*
X453Y36D01*
X452Y35D01*
X451Y34D01*
X449Y29D01*
X446Y24D01*
X445Y23D01*
X445Y22D01*
X443Y16D01*
X442Y11D01*
X442Y10D01*
X441Y8D01*
X441Y0D01*
X441Y-1D01*
X441Y-3D01*
X442Y-8D01*
X442Y-14D01*
X443Y-15D01*
X443Y-16D01*
X445Y-21D01*
X447Y-26D01*
X448Y-27D01*
X448Y-29D01*
X451Y-33D01*
X454Y-38D01*
X455Y-39D01*
X456Y-40D01*
X460Y-43D01*
X464Y-47D01*
X465Y-48D01*
X466Y-49D01*
X471Y-51D01*
X476Y-54D01*
X477Y-55D01*
X478Y-55D01*
X484Y-57D01*
X489Y-58D01*
X490Y-58D01*
X492Y-59D01*
X500Y-59D01*
X884Y-59D01*
X1093Y-59D01*
X1093Y-210D01*
X1086Y-235D01*
X1086Y-237D01*
X1085Y-239D01*
X1085Y-244D01*
X1084Y-248D01*
X1084Y-250D01*
X1084Y-253D01*
X1085Y-257D01*
X1085Y-262D01*
X1086Y-264D01*
X1086Y-266D01*
X1088Y-270D01*
X1090Y-275D01*
X1091Y-277D01*
X1092Y-279D01*
X1094Y-282D01*
X1097Y-286D01*
X1098Y-288D01*
X1100Y-290D01*
X1103Y-293D01*
X1106Y-296D01*
X1108Y-297D01*
X1110Y-299D01*
X1114Y-301D01*
X1118Y-303D01*
X1120Y-304D01*
X1122Y-305D01*
X1126Y-306D01*
X1131Y-308D01*
X1133Y-308D01*
X1135Y-309D01*
X1144Y-309D01*
X1316Y-309D01*
X1318Y-309D01*
G37*
%LPC*%
G36*
X-785Y99D02*
X-785Y99D01*
X-785Y298D01*
X-762Y298D01*
X-731Y289D01*
X-730Y289D01*
X-728Y288D01*
X-726Y288D01*
X-720Y286D01*
X-713Y284D01*
X-711Y284D01*
X-709Y284D01*
X-702Y284D01*
X-696Y283D01*
X-694Y283D01*
X-691Y283D01*
X-685Y284D01*
X-678Y285D01*
X-676Y285D01*
X-674Y286D01*
X-668Y288D01*
X-666Y288D01*
X-631Y298D01*
X-599Y298D01*
X-599Y99D01*
X-785Y99D01*
G37*
%LPD*%
%LPC*%
G36*
X-401Y99D02*
X-401Y99D01*
X-401Y298D01*
X-369Y298D01*
X-343Y291D01*
X-342Y291D01*
X-334Y289D01*
X-326Y288D01*
X-325Y288D01*
X-317Y288D01*
X-308Y288D01*
X-307Y288D01*
X-299Y290D01*
X-291Y291D01*
X-290Y291D01*
X-286Y293D01*
X-286Y290D01*
X-289Y282D01*
X-289Y281D01*
X-290Y273D01*
X-291Y265D01*
X-291Y264D01*
X-291Y256D01*
X-290Y247D01*
X-290Y246D01*
X-288Y235D01*
X-281Y210D01*
X-281Y99D01*
X-401Y99D01*
G37*
%LPD*%
D10*
X3500Y750D03*
X3250Y-8000D03*
D11*
X-884Y-1890D03*
D12*
X-500Y-1890D03*
D11*
X-884Y-2362D03*
D12*
X-500Y-2362D03*
D11*
X-884Y-3780D03*
D12*
X-500Y-3780D03*
D11*
X-884Y-4252D03*
D12*
X-500Y-4252D03*
D11*
X-884Y-6614D03*
D12*
X-500Y-6614D03*
D11*
X-884Y-7087D03*
D12*
X-500Y-7087D03*
D11*
X384Y-3071D03*
D12*
X0Y-3071D03*
D11*
X384Y-2598D03*
D12*
X0Y-2598D03*
D11*
X384Y-7323D03*
D12*
X0Y-7323D03*
D11*
X384Y-6850D03*
D12*
X0Y-6850D03*
D11*
X384Y-6378D03*
D12*
X0Y-6378D03*
D11*
X-884Y-5669D03*
D12*
X-500Y-5669D03*
D11*
X-884Y-6142D03*
D12*
X-500Y-6142D03*
D13*
X1000Y-7234D03*
D14*
X1000Y-6850D03*
D11*
X884Y0D03*
D12*
X500Y0D03*
D11*
X384Y-2126D03*
D12*
X0Y-2126D03*
D11*
X384Y-1654D03*
D12*
X0Y-1654D03*
D11*
X384Y-1181D03*
D12*
X0Y-1181D03*
D11*
X384Y-709D03*
D12*
X0Y-709D03*
D11*
X384Y-5906D03*
D12*
X0Y-5906D03*
D11*
X384Y-5433D03*
D12*
X0Y-5433D03*
D11*
X384Y-4961D03*
D12*
X0Y-4961D03*
D11*
X384Y-4488D03*
D12*
X0Y-4488D03*
D11*
X384Y-4016D03*
D12*
X0Y-4016D03*
D11*
X384Y-3543D03*
D12*
X0Y-3543D03*
D13*
X1000Y-1093D03*
D14*
X1000Y-709D03*
D11*
X-884Y0D03*
D12*
X-500Y0D03*
D11*
X-884Y-472D03*
D12*
X-500Y-472D03*
D11*
X-884Y-945D03*
D12*
X-500Y-945D03*
D11*
X-884Y-1417D03*
D12*
X-500Y-1417D03*
D11*
X-884Y-2835D03*
D12*
X-500Y-2835D03*
D11*
X-884Y-3307D03*
D12*
X-500Y-3307D03*
D11*
X-884Y-4724D03*
D12*
X-500Y-4724D03*
D11*
X-884Y-5197D03*
D12*
X-500Y-5197D03*
D10*
X-3000Y750D03*
D15*
X-1480Y-236D03*
X-1480Y-709D03*
X-1480Y-1181D03*
X-1480Y-1654D03*
X-1480Y-2126D03*
X-1480Y-2598D03*
X-1480Y-3071D03*
X-1480Y-3543D03*
X-1480Y-4016D03*
X-1480Y-4488D03*
X-1480Y-4961D03*
X-1480Y-5433D03*
X-1480Y-5906D03*
X-1480Y-6378D03*
X-1480Y-6850D03*
X938Y-4375D03*
X938Y-3286D03*
X938Y-5219D03*
X938Y-1563D03*
X938Y-2344D03*
X2313Y-6906D03*
X2075Y-1517D03*
X3256Y-6386D03*
X3256Y-2186D03*
X3256Y-2486D03*
X3256Y-2786D03*
X3256Y-3086D03*
X3256Y-3386D03*
X3256Y-3686D03*
X3256Y-3986D03*
X3256Y-4286D03*
X3256Y-4586D03*
X3256Y-4886D03*
X3256Y-5186D03*
X3256Y-5486D03*
X3256Y-5786D03*
X3256Y-6086D03*
X938Y-6188D03*
X1250Y-7719D03*
D16*
X-500Y0D02*
X-884Y0D01*
D15*
X1419Y0D03*
X1664Y-490D03*
X1174Y490D03*
X-2500Y1500D03*
X500Y1500D03*
X3500Y1500D03*
X4000Y-1688D03*
X4000Y-4500D03*
X-3500Y-1688D03*
X2000Y-9500D03*
X-3500Y-9500D03*
X-1000Y-9500D03*
X-3500Y-6813D03*
X-3500Y-4500D03*
X4000Y-6813D03*
X2956Y-3836D03*
X-1244Y-3307D03*
D17*
X-884Y-3307D01*
D18*
X-500Y-3307D01*
D15*
X2956Y-3536D03*
X-1244Y-2835D03*
D17*
X-884Y-2835D01*
D18*
X-500Y-2835D01*
D15*
X2956Y-3236D03*
X-1244Y-2362D03*
D17*
X-884Y-2362D01*
D18*
X-500Y-2362D01*
D15*
X2956Y-2936D03*
X-1244Y-1890D03*
D17*
X-884Y-1890D01*
D18*
X-500Y-1890D01*
D15*
X2956Y-2636D03*
X-1244Y-1417D03*
D17*
X-884Y-1417D01*
D18*
X-500Y-1417D01*
D15*
X2956Y-2336D03*
X-1244Y-945D03*
D17*
X-884Y-945D01*
D18*
X-500Y-945D01*
D15*
X2956Y-2036D03*
X-1244Y-472D03*
D17*
X-884Y-472D01*
D18*
X-500Y-472D01*
D15*
X1797Y-1671D03*
D18*
X1000Y-1093D02*
X1000Y-709D01*
D17*
X1000Y-1093D02*
X1219Y-1093D01*
X1797Y-1671D01*
D15*
X1373Y-498D03*
D17*
X779Y-436D02*
X506Y-709D01*
X384Y-709D01*
X779Y-436D02*
X1311Y-436D01*
X1373Y-498D01*
D18*
X384Y-709D02*
X0Y-709D01*
D15*
X688Y-1406D03*
D17*
X640Y-1406D01*
X415Y-1181D01*
X384Y-1181D01*
D18*
X0Y-1181D01*
D15*
X688Y-1719D03*
D18*
X384Y-1654D02*
X0Y-1654D01*
D17*
X449Y-1719D02*
X688Y-1719D01*
X449Y-1719D02*
X384Y-1654D01*
D15*
X688Y-2188D03*
D17*
X405Y-2105D02*
X384Y-2126D01*
X594Y-2188D02*
X688Y-2188D01*
X594Y-2188D02*
X511Y-2105D01*
X405Y-2105D01*
D18*
X384Y-2126D02*
X0Y-2126D01*
D15*
X688Y-2500D03*
D17*
X384Y-2598D02*
X379Y-2604D01*
D18*
X384Y-2598D02*
X0Y-2598D01*
D17*
X584Y-2604D02*
X688Y-2500D01*
X584Y-2604D02*
X379Y-2604D01*
D15*
X683Y-3121D03*
D18*
X384Y-3071D02*
X0Y-3071D01*
D17*
X434Y-3121D02*
X683Y-3121D01*
X434Y-3121D02*
X384Y-3071D01*
D15*
X683Y-3443D03*
D17*
X484Y-3443D02*
X384Y-3543D01*
X484Y-3443D02*
X683Y-3443D01*
D18*
X384Y-3543D02*
X0Y-3543D01*
D15*
X688Y-4219D03*
D18*
X384Y-4016D02*
X0Y-4016D01*
D17*
X587Y-4219D02*
X688Y-4219D01*
X587Y-4219D02*
X384Y-4016D01*
D15*
X688Y-4531D03*
D17*
X427Y-4531D02*
X384Y-4488D01*
X427Y-4531D02*
X688Y-4531D01*
D18*
X384Y-4488D02*
X0Y-4488D01*
D15*
X688Y-5063D03*
D17*
X486Y-5063D02*
X384Y-4961D01*
X486Y-5063D02*
X688Y-5063D01*
D18*
X384Y-4961D02*
X0Y-4961D01*
D15*
X688Y-5375D03*
D17*
X31Y-5375D01*
X50Y-5394D01*
X384Y-5433D02*
X423Y-5394D01*
D18*
X39Y-5394D02*
X0Y-5433D01*
X39Y-5394D02*
X50Y-5394D01*
X423Y-5394D01*
D15*
X688Y-6031D03*
D17*
X554Y-5898D01*
X391Y-5898D02*
X384Y-5906D01*
X391Y-5898D02*
X554Y-5898D01*
D18*
X384Y-5906D02*
X0Y-5906D01*
D15*
X688Y-6375D03*
D18*
X384Y-6378D02*
X0Y-6378D01*
D17*
X685Y-6378D02*
X688Y-6375D01*
X685Y-6378D02*
X384Y-6378D01*
D15*
X969Y-7594D03*
D18*
X384Y-6850D02*
X0Y-6850D01*
D17*
X384Y-6850D02*
X665Y-7132D01*
X665Y-7446D01*
X813Y-7594D02*
X969Y-7594D01*
X813Y-7594D02*
X665Y-7446D01*
D15*
X964Y-7890D03*
D18*
X384Y-7323D02*
X0Y-7323D01*
D17*
X384Y-7667D02*
X608Y-7890D01*
X384Y-7667D02*
X384Y-7323D01*
X608Y-7890D02*
X964Y-7890D01*
D15*
X2956Y-6536D03*
X2219Y-7219D03*
D17*
X2203Y-7234D02*
X1000Y-7234D01*
X2203Y-7234D02*
X2219Y-7219D01*
D18*
X1000Y-7234D02*
X1000Y-6850D01*
D15*
X2956Y-6236D03*
X-1244Y-7087D03*
D17*
X-884Y-7087D01*
D18*
X-500Y-7087D01*
D15*
X2956Y-5936D03*
X-1244Y-6614D03*
D17*
X-884Y-6614D01*
D18*
X-500Y-6614D01*
D15*
X2956Y-5636D03*
X-1244Y-6142D03*
D17*
X-884Y-6142D01*
D18*
X-500Y-6142D01*
D15*
X2956Y-5336D03*
X-1244Y-5669D03*
D17*
X-884Y-5669D01*
D18*
X-500Y-5669D01*
D15*
X2956Y-5036D03*
X-1244Y-5197D03*
D17*
X-884Y-5197D01*
D18*
X-500Y-5197D01*
D15*
X2956Y-4736D03*
X-1244Y-4724D03*
D17*
X-884Y-4724D01*
D18*
X-500Y-4724D01*
D15*
X2956Y-4436D03*
X-1244Y-4252D03*
D17*
X-884Y-4252D01*
D18*
X-500Y-4252D01*
D15*
X1174Y-184D03*
X2469Y-6656D03*
X2056Y-1836D03*
D18*
X884Y0D02*
X500Y0D01*
D15*
X1174Y184D03*
X868Y429D03*
X2956Y-4136D03*
X-1244Y-3780D03*
D17*
X-884Y-3780D01*
D18*
X-500Y-3780D01*
D15*
X-1244Y0D03*
D19*
X-8000Y-10000D02*
X-7998Y-10044D01*
X-7992Y-10087D01*
X-7983Y-10129D01*
X-7970Y-10171D01*
X-7953Y-10211D01*
X-7933Y-10250D01*
X-7910Y-10287D01*
X-7883Y-10321D01*
X-7854Y-10354D01*
X-7821Y-10383D01*
X-7787Y-10410D01*
X-7750Y-10433D01*
X-7711Y-10453D01*
X-7671Y-10470D01*
X-7629Y-10483D01*
X-7587Y-10492D01*
X-7544Y-10498D01*
X-7500Y-10500D01*
X-5500Y-10500D01*
X-5456Y-10498D01*
X-5413Y-10492D01*
X-5371Y-10483D01*
X-5329Y-10470D01*
X-5289Y-10453D01*
X-5250Y-10433D01*
X-5213Y-10410D01*
X-5179Y-10383D01*
X-5146Y-10354D01*
X-5117Y-10321D01*
X-5090Y-10287D01*
X-5067Y-10250D01*
X-5047Y-10211D01*
X-5030Y-10171D01*
X-5017Y-10129D01*
X-5008Y-10087D01*
X-5002Y-10044D01*
X-5000Y-10000D01*
X-5000Y-9025D01*
X-4998Y-8990D01*
X-4994Y-8956D01*
X-4986Y-8921D01*
X-4976Y-8888D01*
X-4963Y-8856D01*
X-4946Y-8825D01*
X-4928Y-8796D01*
X-4906Y-8768D01*
X-4883Y-8742D01*
X-4857Y-8719D01*
X-4829Y-8697D01*
X-4800Y-8679D01*
X-4769Y-8662D01*
X-4737Y-8649D01*
X-4704Y-8639D01*
X-4669Y-8631D01*
X-4635Y-8627D01*
X-4600Y-8625D01*
X-4400Y-8625D01*
X-4365Y-8627D01*
X-4331Y-8631D01*
X-4296Y-8639D01*
X-4263Y-8649D01*
X-4231Y-8662D01*
X-4200Y-8679D01*
X-4171Y-8697D01*
X-4143Y-8719D01*
X-4117Y-8742D01*
X-4094Y-8768D01*
X-4072Y-8796D01*
X-4054Y-8825D01*
X-4037Y-8856D01*
X-4024Y-8888D01*
X-4014Y-8921D01*
X-4006Y-8956D01*
X-4002Y-8990D01*
X-4000Y-9025D01*
X-4000Y-10000D01*
X-3998Y-10044D01*
X-3992Y-10087D01*
X-3983Y-10129D01*
X-3970Y-10171D01*
X-3953Y-10211D01*
X-3933Y-10250D01*
X-3910Y-10287D01*
X-3883Y-10321D01*
X-3854Y-10354D01*
X-3821Y-10383D01*
X-3787Y-10410D01*
X-3750Y-10433D01*
X-3711Y-10453D01*
X-3671Y-10470D01*
X-3629Y-10483D01*
X-3587Y-10492D01*
X-3544Y-10498D01*
X-3500Y-10500D01*
X4000Y-10500D01*
X4044Y-10498D01*
X4087Y-10492D01*
X4129Y-10483D01*
X4171Y-10470D01*
X4211Y-10453D01*
X4250Y-10433D01*
X4287Y-10410D01*
X4321Y-10383D01*
X4354Y-10354D01*
X4383Y-10321D01*
X4410Y-10287D01*
X4433Y-10250D01*
X4453Y-10211D01*
X4470Y-10171D01*
X4483Y-10129D01*
X4492Y-10087D01*
X4498Y-10044D01*
X4500Y-10000D01*
X4500Y-9025D01*
X4502Y-8990D01*
X4506Y-8956D01*
X4514Y-8921D01*
X4524Y-8888D01*
X4537Y-8856D01*
X4554Y-8825D01*
X4572Y-8796D01*
X4594Y-8768D01*
X4617Y-8742D01*
X4643Y-8719D01*
X4671Y-8697D01*
X4700Y-8679D01*
X4731Y-8662D01*
X4763Y-8649D01*
X4796Y-8639D01*
X4831Y-8631D01*
X4865Y-8627D01*
X4900Y-8625D01*
X5100Y-8625D01*
X5140Y-8632D01*
X5179Y-8643D01*
X5218Y-8657D01*
X5254Y-8674D01*
X5290Y-8695D01*
X5323Y-8718D01*
X5354Y-8744D01*
X5383Y-8773D01*
X5409Y-8805D01*
X5432Y-8838D01*
X5452Y-8873D01*
X5469Y-8910D01*
X5483Y-8949D01*
X5493Y-8988D01*
X5500Y-9028D01*
X5504Y-9069D01*
X5504Y-9109D01*
X5500Y-9150D01*
X5500Y-10000D01*
X5502Y-10044D01*
X5508Y-10087D01*
X5517Y-10129D01*
X5530Y-10171D01*
X5547Y-10211D01*
X5567Y-10250D01*
X5590Y-10287D01*
X5617Y-10321D01*
X5646Y-10354D01*
X5679Y-10383D01*
X5713Y-10410D01*
X5750Y-10433D01*
X5789Y-10453D01*
X5829Y-10470D01*
X5871Y-10483D01*
X5913Y-10492D01*
X5956Y-10498D01*
X6000Y-10500D01*
X8000Y-10500D01*
X8044Y-10498D01*
X8087Y-10492D01*
X8129Y-10483D01*
X8171Y-10470D01*
X8211Y-10453D01*
X8250Y-10433D01*
X8287Y-10410D01*
X8321Y-10383D01*
X8354Y-10354D01*
X8383Y-10321D01*
X8410Y-10287D01*
X8433Y-10250D01*
X8453Y-10211D01*
X8470Y-10171D01*
X8483Y-10129D01*
X8492Y-10087D01*
X8498Y-10044D01*
X8500Y-10000D01*
X8500Y1500D01*
X8498Y1544D01*
X8492Y1587D01*
X8483Y1629D01*
X8470Y1671D01*
X8453Y1711D01*
X8433Y1750D01*
X8410Y1787D01*
X8383Y1821D01*
X8354Y1854D01*
X8321Y1883D01*
X8287Y1910D01*
X8250Y1933D01*
X8211Y1953D01*
X8171Y1970D01*
X8129Y1983D01*
X8087Y1992D01*
X8044Y1998D01*
X8000Y2000D01*
X6000Y2000D01*
X5956Y1998D01*
X5913Y1992D01*
X5871Y1983D01*
X5829Y1970D01*
X5789Y1953D01*
X5750Y1933D01*
X5713Y1910D01*
X5679Y1883D01*
X5646Y1854D01*
X5617Y1821D01*
X5590Y1787D01*
X5567Y1750D01*
X5547Y1711D01*
X5530Y1671D01*
X5517Y1629D01*
X5508Y1587D01*
X5502Y1544D01*
X5500Y1500D01*
X5500Y525D01*
X5498Y490D01*
X5494Y456D01*
X5486Y421D01*
X5476Y388D01*
X5463Y356D01*
X5446Y325D01*
X5428Y296D01*
X5406Y268D01*
X5383Y242D01*
X5357Y219D01*
X5329Y197D01*
X5300Y179D01*
X5269Y162D01*
X5237Y149D01*
X5204Y139D01*
X5169Y131D01*
X5135Y127D01*
X5100Y125D01*
X4900Y125D01*
X4865Y127D01*
X4831Y131D01*
X4796Y139D01*
X4763Y149D01*
X4731Y162D01*
X4700Y179D01*
X4671Y197D01*
X4643Y219D01*
X4617Y242D01*
X4594Y268D01*
X4572Y296D01*
X4554Y325D01*
X4537Y356D01*
X4524Y388D01*
X4514Y421D01*
X4506Y456D01*
X4502Y490D01*
X4500Y525D01*
X4500Y1500D01*
X4498Y1544D01*
X4492Y1587D01*
X4483Y1629D01*
X4470Y1671D01*
X4453Y1711D01*
X4433Y1750D01*
X4410Y1787D01*
X4383Y1821D01*
X4354Y1854D01*
X4321Y1883D01*
X4287Y1910D01*
X4250Y1933D01*
X4211Y1953D01*
X4171Y1970D01*
X4129Y1983D01*
X4087Y1992D01*
X4044Y1998D01*
X4000Y2000D01*
X-3500Y2000D01*
X-3544Y1998D01*
X-3587Y1992D01*
X-3629Y1983D01*
X-3671Y1970D01*
X-3711Y1953D01*
X-3750Y1933D01*
X-3787Y1910D01*
X-3821Y1883D01*
X-3854Y1854D01*
X-3883Y1821D01*
X-3910Y1787D01*
X-3933Y1750D01*
X-3953Y1711D01*
X-3970Y1671D01*
X-3983Y1629D01*
X-3992Y1587D01*
X-3998Y1544D01*
X-4000Y1500D01*
X-4000Y525D01*
X-4002Y490D01*
X-4006Y456D01*
X-4014Y421D01*
X-4024Y388D01*
X-4037Y356D01*
X-4054Y325D01*
X-4072Y296D01*
X-4094Y268D01*
X-4117Y242D01*
X-4143Y219D01*
X-4171Y197D01*
X-4200Y179D01*
X-4231Y162D01*
X-4263Y149D01*
X-4296Y139D01*
X-4331Y131D01*
X-4365Y127D01*
X-4400Y125D01*
X-4600Y125D01*
X-4635Y127D01*
X-4669Y131D01*
X-4704Y139D01*
X-4737Y149D01*
X-4769Y162D01*
X-4800Y179D01*
X-4829Y197D01*
X-4857Y219D01*
X-4883Y242D01*
X-4906Y268D01*
X-4928Y296D01*
X-4946Y325D01*
X-4963Y356D01*
X-4976Y388D01*
X-4986Y421D01*
X-4994Y456D01*
X-4998Y490D01*
X-5000Y525D01*
X-5000Y1500D01*
X-5002Y1544D01*
X-5008Y1587D01*
X-5017Y1629D01*
X-5030Y1671D01*
X-5047Y1711D01*
X-5067Y1750D01*
X-5090Y1787D01*
X-5117Y1821D01*
X-5146Y1854D01*
X-5179Y1883D01*
X-5213Y1910D01*
X-5250Y1933D01*
X-5289Y1953D01*
X-5329Y1970D01*
X-5371Y1983D01*
X-5413Y1992D01*
X-5456Y1998D01*
X-5500Y2000D01*
X-7500Y2000D01*
X-7544Y1998D01*
X-7587Y1992D01*
X-7629Y1983D01*
X-7671Y1970D01*
X-7711Y1953D01*
X-7750Y1933D01*
X-7787Y1910D01*
X-7821Y1883D01*
X-7854Y1854D01*
X-7883Y1821D01*
X-7910Y1787D01*
X-7933Y1750D01*
X-7953Y1711D01*
X-7970Y1671D01*
X-7983Y1629D01*
X-7992Y1587D01*
X-7998Y1544D01*
X-8000Y1500D01*
X-8000Y-10000D01*
X4500Y-7100D02*
X4502Y-7135D01*
X4506Y-7169D01*
X4514Y-7204D01*
X4524Y-7237D01*
X4537Y-7269D01*
X4554Y-7300D01*
X4572Y-7329D01*
X4594Y-7357D01*
X4617Y-7383D01*
X4643Y-7406D01*
X4671Y-7428D01*
X4700Y-7446D01*
X4731Y-7463D01*
X4763Y-7476D01*
X4796Y-7486D01*
X4831Y-7494D01*
X4865Y-7498D01*
X4900Y-7500D01*
X5100Y-7500D01*
X5135Y-7498D01*
X5169Y-7494D01*
X5204Y-7486D01*
X5237Y-7476D01*
X5269Y-7463D01*
X5300Y-7446D01*
X5329Y-7428D01*
X5357Y-7406D01*
X5383Y-7383D01*
X5406Y-7357D01*
X5428Y-7329D01*
X5446Y-7300D01*
X5463Y-7269D01*
X5476Y-7237D01*
X5486Y-7204D01*
X5494Y-7169D01*
X5498Y-7135D01*
X5500Y-7100D01*
X5500Y-1400D01*
X5498Y-1365D01*
X5494Y-1331D01*
X5486Y-1296D01*
X5476Y-1263D01*
X5463Y-1231D01*
X5446Y-1200D01*
X5428Y-1171D01*
X5406Y-1143D01*
X5383Y-1117D01*
X5357Y-1094D01*
X5329Y-1072D01*
X5300Y-1054D01*
X5269Y-1037D01*
X5237Y-1024D01*
X5204Y-1014D01*
X5169Y-1006D01*
X5135Y-1002D01*
X5100Y-1000D01*
X4900Y-1000D01*
X4865Y-1002D01*
X4831Y-1006D01*
X4796Y-1014D01*
X4763Y-1024D01*
X4731Y-1037D01*
X4700Y-1054D01*
X4671Y-1072D01*
X4643Y-1094D01*
X4617Y-1117D01*
X4594Y-1143D01*
X4572Y-1171D01*
X4554Y-1200D01*
X4537Y-1231D01*
X4524Y-1263D01*
X4514Y-1296D01*
X4506Y-1331D01*
X4502Y-1365D01*
X4500Y-1400D01*
X4500Y-7100D01*
X-5000Y-7100D02*
X-4998Y-7135D01*
X-4994Y-7169D01*
X-4986Y-7204D01*
X-4976Y-7237D01*
X-4963Y-7269D01*
X-4946Y-7300D01*
X-4928Y-7329D01*
X-4906Y-7357D01*
X-4883Y-7383D01*
X-4857Y-7406D01*
X-4829Y-7428D01*
X-4800Y-7446D01*
X-4769Y-7463D01*
X-4737Y-7476D01*
X-4704Y-7486D01*
X-4669Y-7494D01*
X-4635Y-7498D01*
X-4600Y-7500D01*
X-4400Y-7500D01*
X-4365Y-7498D01*
X-4331Y-7494D01*
X-4296Y-7486D01*
X-4263Y-7476D01*
X-4231Y-7463D01*
X-4200Y-7446D01*
X-4171Y-7428D01*
X-4143Y-7406D01*
X-4117Y-7383D01*
X-4094Y-7357D01*
X-4072Y-7329D01*
X-4054Y-7300D01*
X-4037Y-7269D01*
X-4024Y-7237D01*
X-4014Y-7204D01*
X-4006Y-7169D01*
X-4002Y-7135D01*
X-4000Y-7100D01*
X-4000Y-1400D01*
X-4002Y-1365D01*
X-4006Y-1331D01*
X-4014Y-1296D01*
X-4024Y-1263D01*
X-4037Y-1231D01*
X-4054Y-1200D01*
X-4072Y-1171D01*
X-4094Y-1143D01*
X-4117Y-1117D01*
X-4143Y-1094D01*
X-4171Y-1072D01*
X-4200Y-1054D01*
X-4231Y-1037D01*
X-4263Y-1024D01*
X-4296Y-1014D01*
X-4331Y-1006D01*
X-4365Y-1002D01*
X-4400Y-1000D01*
X-4600Y-1000D01*
X-4635Y-1002D01*
X-4669Y-1006D01*
X-4704Y-1014D01*
X-4737Y-1024D01*
X-4769Y-1037D01*
X-4800Y-1054D01*
X-4829Y-1072D01*
X-4857Y-1094D01*
X-4883Y-1117D01*
X-4906Y-1143D01*
X-4928Y-1171D01*
X-4946Y-1200D01*
X-4963Y-1231D01*
X-4976Y-1263D01*
X-4986Y-1296D01*
X-4994Y-1331D01*
X-4998Y-1365D01*
X-5000Y-1400D01*
X-5000Y-7100D01*
X4575Y-8632D02*
X4572Y-8647D01*
X4566Y-8661D01*
X4558Y-8673D01*
X4548Y-8683D01*
X4536Y-8691D01*
X4522Y-8697D01*
X4507Y-8700D01*
X4493Y-8700D01*
X4478Y-8697D01*
X4464Y-8691D01*
X4452Y-8683D01*
X4442Y-8673D01*
X4434Y-8661D01*
X4428Y-8647D01*
X4425Y-8632D01*
X4425Y-8618D01*
X4428Y-8603D01*
X4434Y-8589D01*
X4442Y-8577D01*
X4452Y-8567D01*
X4464Y-8559D01*
X4478Y-8553D01*
X4493Y-8550D01*
X4507Y-8550D01*
X4522Y-8553D01*
X4536Y-8559D01*
X4548Y-8567D01*
X4558Y-8577D01*
X4566Y-8589D01*
X4572Y-8603D01*
X4575Y-8618D01*
X4575Y-8632D01*
X4575Y-7507D02*
X4572Y-7522D01*
X4566Y-7536D01*
X4558Y-7548D01*
X4548Y-7558D01*
X4536Y-7566D01*
X4522Y-7572D01*
X4507Y-7575D01*
X4493Y-7575D01*
X4478Y-7572D01*
X4464Y-7566D01*
X4452Y-7558D01*
X4442Y-7548D01*
X4434Y-7536D01*
X4428Y-7522D01*
X4425Y-7507D01*
X4425Y-7493D01*
X4428Y-7478D01*
X4434Y-7464D01*
X4442Y-7452D01*
X4452Y-7442D01*
X4464Y-7434D01*
X4478Y-7428D01*
X4493Y-7425D01*
X4507Y-7425D01*
X4522Y-7428D01*
X4536Y-7434D01*
X4548Y-7442D01*
X4558Y-7452D01*
X4566Y-7464D01*
X4572Y-7478D01*
X4575Y-7493D01*
X4575Y-7507D01*
X4575Y-7882D02*
X4572Y-7897D01*
X4566Y-7911D01*
X4558Y-7923D01*
X4548Y-7933D01*
X4536Y-7941D01*
X4522Y-7947D01*
X4507Y-7950D01*
X4493Y-7950D01*
X4478Y-7947D01*
X4464Y-7941D01*
X4452Y-7933D01*
X4442Y-7923D01*
X4434Y-7911D01*
X4428Y-7897D01*
X4425Y-7882D01*
X4425Y-7868D01*
X4428Y-7853D01*
X4434Y-7839D01*
X4442Y-7827D01*
X4452Y-7817D01*
X4464Y-7809D01*
X4478Y-7803D01*
X4493Y-7800D01*
X4507Y-7800D01*
X4522Y-7803D01*
X4536Y-7809D01*
X4548Y-7817D01*
X4558Y-7827D01*
X4566Y-7839D01*
X4572Y-7853D01*
X4575Y-7868D01*
X4575Y-7882D01*
X4575Y-8257D02*
X4572Y-8272D01*
X4566Y-8286D01*
X4558Y-8298D01*
X4548Y-8308D01*
X4536Y-8316D01*
X4522Y-8322D01*
X4507Y-8325D01*
X4493Y-8325D01*
X4478Y-8322D01*
X4464Y-8316D01*
X4452Y-8308D01*
X4442Y-8298D01*
X4434Y-8286D01*
X4428Y-8272D01*
X4425Y-8257D01*
X4425Y-8243D01*
X4428Y-8228D01*
X4434Y-8214D01*
X4442Y-8202D01*
X4452Y-8192D01*
X4464Y-8184D01*
X4478Y-8178D01*
X4493Y-8175D01*
X4507Y-8175D01*
X4522Y-8178D01*
X4536Y-8184D01*
X4548Y-8192D01*
X4558Y-8202D01*
X4566Y-8214D01*
X4572Y-8228D01*
X4575Y-8243D01*
X4575Y-8257D01*
X7625Y-9020D02*
X7622Y-9061D01*
X7617Y-9102D01*
X7609Y-9142D01*
X7598Y-9182D01*
X7585Y-9220D01*
X7570Y-9258D01*
X7551Y-9295D01*
X7531Y-9330D01*
X7508Y-9364D01*
X7483Y-9397D01*
X7456Y-9427D01*
X7427Y-9456D01*
X7397Y-9483D01*
X7364Y-9508D01*
X7330Y-9531D01*
X7295Y-9551D01*
X7258Y-9570D01*
X7220Y-9585D01*
X7182Y-9598D01*
X7142Y-9609D01*
X7102Y-9617D01*
X7061Y-9622D01*
X7020Y-9625D01*
X6980Y-9625D01*
X6939Y-9622D01*
X6898Y-9617D01*
X6858Y-9609D01*
X6818Y-9598D01*
X6780Y-9585D01*
X6742Y-9570D01*
X6705Y-9551D01*
X6670Y-9531D01*
X6636Y-9508D01*
X6603Y-9483D01*
X6573Y-9456D01*
X6544Y-9427D01*
X6517Y-9397D01*
X6492Y-9364D01*
X6469Y-9330D01*
X6449Y-9295D01*
X6430Y-9258D01*
X6415Y-9220D01*
X6402Y-9182D01*
X6391Y-9142D01*
X6383Y-9102D01*
X6378Y-9061D01*
X6375Y-9020D01*
X6375Y-8980D01*
X6378Y-8939D01*
X6383Y-8898D01*
X6391Y-8858D01*
X6402Y-8818D01*
X6415Y-8780D01*
X6430Y-8742D01*
X6449Y-8705D01*
X6469Y-8670D01*
X6492Y-8636D01*
X6517Y-8603D01*
X6544Y-8573D01*
X6573Y-8544D01*
X6603Y-8517D01*
X6636Y-8492D01*
X6670Y-8469D01*
X6705Y-8449D01*
X6742Y-8430D01*
X6780Y-8415D01*
X6818Y-8402D01*
X6858Y-8391D01*
X6898Y-8383D01*
X6939Y-8378D01*
X6980Y-8375D01*
X7020Y-8375D01*
X7061Y-8378D01*
X7102Y-8383D01*
X7142Y-8391D01*
X7182Y-8402D01*
X7220Y-8415D01*
X7258Y-8430D01*
X7295Y-8449D01*
X7330Y-8469D01*
X7364Y-8492D01*
X7397Y-8517D01*
X7427Y-8544D01*
X7456Y-8573D01*
X7483Y-8603D01*
X7508Y-8636D01*
X7531Y-8670D01*
X7551Y-8705D01*
X7570Y-8742D01*
X7585Y-8780D01*
X7598Y-8818D01*
X7609Y-8858D01*
X7617Y-8898D01*
X7622Y-8939D01*
X7625Y-8980D01*
X7625Y-9020D01*
X644Y783D02*
X641Y749D01*
X635Y715D01*
X626Y681D01*
X614Y649D01*
X600Y618D01*
X582Y588D01*
X563Y560D01*
X541Y534D01*
X516Y509D01*
X490Y487D01*
X462Y468D01*
X432Y450D01*
X401Y436D01*
X369Y424D01*
X335Y415D01*
X301Y409D01*
X267Y406D01*
X233Y406D01*
X199Y409D01*
X165Y415D01*
X131Y424D01*
X99Y436D01*
X68Y450D01*
X38Y468D01*
X10Y487D01*
X-16Y509D01*
X-41Y534D01*
X-63Y560D01*
X-82Y588D01*
X-100Y618D01*
X-114Y649D01*
X-126Y681D01*
X-135Y715D01*
X-141Y749D01*
X-144Y783D01*
X-144Y817D01*
X-141Y851D01*
X-135Y885D01*
X-126Y919D01*
X-114Y951D01*
X-100Y982D01*
X-82Y1012D01*
X-63Y1040D01*
X-41Y1066D01*
X-16Y1091D01*
X10Y1113D01*
X38Y1132D01*
X68Y1150D01*
X99Y1164D01*
X131Y1176D01*
X165Y1185D01*
X199Y1191D01*
X233Y1194D01*
X267Y1194D01*
X301Y1191D01*
X335Y1185D01*
X369Y1176D01*
X401Y1164D01*
X432Y1150D01*
X462Y1132D01*
X490Y1113D01*
X516Y1091D01*
X541Y1066D01*
X563Y1040D01*
X582Y1012D01*
X600Y982D01*
X614Y951D01*
X626Y919D01*
X635Y885D01*
X641Y851D01*
X644Y817D01*
X644Y783D01*
X4575Y-1007D02*
X4572Y-1022D01*
X4566Y-1036D01*
X4558Y-1048D01*
X4548Y-1058D01*
X4536Y-1066D01*
X4522Y-1072D01*
X4507Y-1075D01*
X4493Y-1075D01*
X4478Y-1072D01*
X4464Y-1066D01*
X4452Y-1058D01*
X4442Y-1048D01*
X4434Y-1036D01*
X4428Y-1022D01*
X4425Y-1007D01*
X4425Y-993D01*
X4428Y-978D01*
X4434Y-964D01*
X4442Y-952D01*
X4452Y-942D01*
X4464Y-934D01*
X4478Y-928D01*
X4493Y-925D01*
X4507Y-925D01*
X4522Y-928D01*
X4536Y-934D01*
X4548Y-942D01*
X4558Y-952D01*
X4566Y-964D01*
X4572Y-978D01*
X4575Y-993D01*
X4575Y-1007D01*
X4575Y118D02*
X4572Y103D01*
X4566Y89D01*
X4558Y77D01*
X4548Y67D01*
X4536Y59D01*
X4522Y53D01*
X4507Y50D01*
X4493Y50D01*
X4478Y53D01*
X4464Y59D01*
X4452Y67D01*
X4442Y77D01*
X4434Y89D01*
X4428Y103D01*
X4425Y118D01*
X4425Y132D01*
X4428Y147D01*
X4434Y161D01*
X4442Y173D01*
X4452Y183D01*
X4464Y191D01*
X4478Y197D01*
X4493Y200D01*
X4507Y200D01*
X4522Y197D01*
X4536Y191D01*
X4548Y183D01*
X4558Y173D01*
X4566Y161D01*
X4572Y147D01*
X4575Y132D01*
X4575Y118D01*
X4575Y-257D02*
X4572Y-272D01*
X4566Y-286D01*
X4558Y-298D01*
X4548Y-308D01*
X4536Y-316D01*
X4522Y-322D01*
X4507Y-325D01*
X4493Y-325D01*
X4478Y-322D01*
X4464Y-316D01*
X4452Y-308D01*
X4442Y-298D01*
X4434Y-286D01*
X4428Y-272D01*
X4425Y-257D01*
X4425Y-243D01*
X4428Y-228D01*
X4434Y-214D01*
X4442Y-202D01*
X4452Y-192D01*
X4464Y-184D01*
X4478Y-178D01*
X4493Y-175D01*
X4507Y-175D01*
X4522Y-178D01*
X4536Y-184D01*
X4548Y-192D01*
X4558Y-202D01*
X4566Y-214D01*
X4572Y-228D01*
X4575Y-243D01*
X4575Y-257D01*
X4575Y-632D02*
X4572Y-647D01*
X4566Y-661D01*
X4558Y-673D01*
X4548Y-683D01*
X4536Y-691D01*
X4522Y-697D01*
X4507Y-700D01*
X4493Y-700D01*
X4478Y-697D01*
X4464Y-691D01*
X4452Y-683D01*
X4442Y-673D01*
X4434Y-661D01*
X4428Y-647D01*
X4425Y-632D01*
X4425Y-618D01*
X4428Y-603D01*
X4434Y-589D01*
X4442Y-577D01*
X4452Y-567D01*
X4464Y-559D01*
X4478Y-553D01*
X4493Y-550D01*
X4507Y-550D01*
X4522Y-553D01*
X4536Y-559D01*
X4548Y-567D01*
X4558Y-577D01*
X4566Y-589D01*
X4572Y-603D01*
X4575Y-618D01*
X4575Y-632D01*
X-3925Y-1007D02*
X-3928Y-1022D01*
X-3934Y-1036D01*
X-3942Y-1048D01*
X-3952Y-1058D01*
X-3964Y-1066D01*
X-3978Y-1072D01*
X-3993Y-1075D01*
X-4007Y-1075D01*
X-4022Y-1072D01*
X-4036Y-1066D01*
X-4048Y-1058D01*
X-4058Y-1048D01*
X-4066Y-1036D01*
X-4072Y-1022D01*
X-4075Y-1007D01*
X-4075Y-993D01*
X-4072Y-978D01*
X-4066Y-964D01*
X-4058Y-952D01*
X-4048Y-942D01*
X-4036Y-934D01*
X-4022Y-928D01*
X-4007Y-925D01*
X-3993Y-925D01*
X-3978Y-928D01*
X-3964Y-934D01*
X-3952Y-942D01*
X-3942Y-952D01*
X-3934Y-964D01*
X-3928Y-978D01*
X-3925Y-993D01*
X-3925Y-1007D01*
X-3925Y118D02*
X-3928Y103D01*
X-3934Y89D01*
X-3942Y77D01*
X-3952Y67D01*
X-3964Y59D01*
X-3978Y53D01*
X-3993Y50D01*
X-4007Y50D01*
X-4022Y53D01*
X-4036Y59D01*
X-4048Y67D01*
X-4058Y77D01*
X-4066Y89D01*
X-4072Y103D01*
X-4075Y118D01*
X-4075Y132D01*
X-4072Y147D01*
X-4066Y161D01*
X-4058Y173D01*
X-4048Y183D01*
X-4036Y191D01*
X-4022Y197D01*
X-4007Y200D01*
X-3993Y200D01*
X-3978Y197D01*
X-3964Y191D01*
X-3952Y183D01*
X-3942Y173D01*
X-3934Y161D01*
X-3928Y147D01*
X-3925Y132D01*
X-3925Y118D01*
X-3925Y-257D02*
X-3928Y-272D01*
X-3934Y-286D01*
X-3942Y-298D01*
X-3952Y-308D01*
X-3964Y-316D01*
X-3978Y-322D01*
X-3993Y-325D01*
X-4007Y-325D01*
X-4022Y-322D01*
X-4036Y-316D01*
X-4048Y-308D01*
X-4058Y-298D01*
X-4066Y-286D01*
X-4072Y-272D01*
X-4075Y-257D01*
X-4075Y-243D01*
X-4072Y-228D01*
X-4066Y-214D01*
X-4058Y-202D01*
X-4048Y-192D01*
X-4036Y-184D01*
X-4022Y-178D01*
X-4007Y-175D01*
X-3993Y-175D01*
X-3978Y-178D01*
X-3964Y-184D01*
X-3952Y-192D01*
X-3942Y-202D01*
X-3934Y-214D01*
X-3928Y-228D01*
X-3925Y-243D01*
X-3925Y-257D01*
X-3925Y-632D02*
X-3928Y-647D01*
X-3934Y-661D01*
X-3942Y-673D01*
X-3952Y-683D01*
X-3964Y-691D01*
X-3978Y-697D01*
X-3993Y-700D01*
X-4007Y-700D01*
X-4022Y-697D01*
X-4036Y-691D01*
X-4048Y-683D01*
X-4058Y-673D01*
X-4066Y-661D01*
X-4072Y-647D01*
X-4075Y-632D01*
X-4075Y-618D01*
X-4072Y-603D01*
X-4066Y-589D01*
X-4058Y-577D01*
X-4048Y-567D01*
X-4036Y-559D01*
X-4022Y-553D01*
X-4007Y-550D01*
X-3993Y-550D01*
X-3978Y-553D01*
X-3964Y-559D01*
X-3952Y-567D01*
X-3942Y-577D01*
X-3934Y-589D01*
X-3928Y-603D01*
X-3925Y-618D01*
X-3925Y-632D01*
X-3925Y-8632D02*
X-3928Y-8647D01*
X-3934Y-8661D01*
X-3942Y-8673D01*
X-3952Y-8683D01*
X-3964Y-8691D01*
X-3978Y-8697D01*
X-3993Y-8700D01*
X-4007Y-8700D01*
X-4022Y-8697D01*
X-4036Y-8691D01*
X-4048Y-8683D01*
X-4058Y-8673D01*
X-4066Y-8661D01*
X-4072Y-8647D01*
X-4075Y-8632D01*
X-4075Y-8618D01*
X-4072Y-8603D01*
X-4066Y-8589D01*
X-4058Y-8577D01*
X-4048Y-8567D01*
X-4036Y-8559D01*
X-4022Y-8553D01*
X-4007Y-8550D01*
X-3993Y-8550D01*
X-3978Y-8553D01*
X-3964Y-8559D01*
X-3952Y-8567D01*
X-3942Y-8577D01*
X-3934Y-8589D01*
X-3928Y-8603D01*
X-3925Y-8618D01*
X-3925Y-8632D01*
X-3925Y-7507D02*
X-3928Y-7522D01*
X-3934Y-7536D01*
X-3942Y-7548D01*
X-3952Y-7558D01*
X-3964Y-7566D01*
X-3978Y-7572D01*
X-3993Y-7575D01*
X-4007Y-7575D01*
X-4022Y-7572D01*
X-4036Y-7566D01*
X-4048Y-7558D01*
X-4058Y-7548D01*
X-4066Y-7536D01*
X-4072Y-7522D01*
X-4075Y-7507D01*
X-4075Y-7493D01*
X-4072Y-7478D01*
X-4066Y-7464D01*
X-4058Y-7452D01*
X-4048Y-7442D01*
X-4036Y-7434D01*
X-4022Y-7428D01*
X-4007Y-7425D01*
X-3993Y-7425D01*
X-3978Y-7428D01*
X-3964Y-7434D01*
X-3952Y-7442D01*
X-3942Y-7452D01*
X-3934Y-7464D01*
X-3928Y-7478D01*
X-3925Y-7493D01*
X-3925Y-7507D01*
X-3925Y-7882D02*
X-3928Y-7897D01*
X-3934Y-7911D01*
X-3942Y-7923D01*
X-3952Y-7933D01*
X-3964Y-7941D01*
X-3978Y-7947D01*
X-3993Y-7950D01*
X-4007Y-7950D01*
X-4022Y-7947D01*
X-4036Y-7941D01*
X-4048Y-7933D01*
X-4058Y-7923D01*
X-4066Y-7911D01*
X-4072Y-7897D01*
X-4075Y-7882D01*
X-4075Y-7868D01*
X-4072Y-7853D01*
X-4066Y-7839D01*
X-4058Y-7827D01*
X-4048Y-7817D01*
X-4036Y-7809D01*
X-4022Y-7803D01*
X-4007Y-7800D01*
X-3993Y-7800D01*
X-3978Y-7803D01*
X-3964Y-7809D01*
X-3952Y-7817D01*
X-3942Y-7827D01*
X-3934Y-7839D01*
X-3928Y-7853D01*
X-3925Y-7868D01*
X-3925Y-7882D01*
X-3925Y-8257D02*
X-3928Y-8272D01*
X-3934Y-8286D01*
X-3942Y-8298D01*
X-3952Y-8308D01*
X-3964Y-8316D01*
X-3978Y-8322D01*
X-3993Y-8325D01*
X-4007Y-8325D01*
X-4022Y-8322D01*
X-4036Y-8316D01*
X-4048Y-8308D01*
X-4058Y-8298D01*
X-4066Y-8286D01*
X-4072Y-8272D01*
X-4075Y-8257D01*
X-4075Y-8243D01*
X-4072Y-8228D01*
X-4066Y-8214D01*
X-4058Y-8202D01*
X-4048Y-8192D01*
X-4036Y-8184D01*
X-4022Y-8178D01*
X-4007Y-8175D01*
X-3993Y-8175D01*
X-3978Y-8178D01*
X-3964Y-8184D01*
X-3952Y-8192D01*
X-3942Y-8202D01*
X-3934Y-8214D01*
X-3928Y-8228D01*
X-3925Y-8243D01*
X-3925Y-8257D01*
X7625Y480D02*
X7622Y439D01*
X7617Y398D01*
X7609Y358D01*
X7598Y318D01*
X7585Y280D01*
X7570Y242D01*
X7551Y205D01*
X7531Y170D01*
X7508Y136D01*
X7483Y103D01*
X7456Y73D01*
X7427Y44D01*
X7397Y17D01*
X7364Y-8D01*
X7330Y-31D01*
X7295Y-51D01*
X7258Y-70D01*
X7220Y-85D01*
X7182Y-98D01*
X7142Y-109D01*
X7102Y-117D01*
X7061Y-122D01*
X7020Y-125D01*
X6980Y-125D01*
X6939Y-122D01*
X6898Y-117D01*
X6858Y-109D01*
X6818Y-98D01*
X6780Y-85D01*
X6742Y-70D01*
X6705Y-51D01*
X6670Y-31D01*
X6636Y-8D01*
X6603Y17D01*
X6573Y44D01*
X6544Y73D01*
X6517Y103D01*
X6492Y136D01*
X6469Y170D01*
X6449Y205D01*
X6430Y242D01*
X6415Y280D01*
X6402Y318D01*
X6391Y358D01*
X6383Y398D01*
X6378Y439D01*
X6375Y480D01*
X6375Y520D01*
X6378Y561D01*
X6383Y602D01*
X6391Y642D01*
X6402Y682D01*
X6415Y720D01*
X6430Y758D01*
X6449Y795D01*
X6469Y830D01*
X6492Y864D01*
X6517Y897D01*
X6544Y927D01*
X6573Y956D01*
X6603Y983D01*
X6636Y1008D01*
X6670Y1031D01*
X6705Y1051D01*
X6742Y1070D01*
X6780Y1085D01*
X6818Y1098D01*
X6858Y1109D01*
X6898Y1117D01*
X6939Y1122D01*
X6980Y1125D01*
X7020Y1125D01*
X7061Y1122D01*
X7102Y1117D01*
X7142Y1109D01*
X7182Y1098D01*
X7220Y1085D01*
X7258Y1070D01*
X7295Y1051D01*
X7330Y1031D01*
X7364Y1008D01*
X7397Y983D01*
X7427Y956D01*
X7456Y927D01*
X7483Y897D01*
X7508Y864D01*
X7531Y830D01*
X7551Y795D01*
X7570Y758D01*
X7585Y720D01*
X7598Y682D01*
X7609Y642D01*
X7617Y602D01*
X7622Y561D01*
X7625Y520D01*
X7625Y480D01*
X-5875Y480D02*
X-5878Y439D01*
X-5883Y398D01*
X-5891Y358D01*
X-5902Y318D01*
X-5915Y280D01*
X-5930Y242D01*
X-5949Y205D01*
X-5969Y170D01*
X-5992Y136D01*
X-6017Y103D01*
X-6044Y73D01*
X-6073Y44D01*
X-6103Y17D01*
X-6136Y-8D01*
X-6170Y-31D01*
X-6205Y-51D01*
X-6242Y-70D01*
X-6280Y-85D01*
X-6318Y-98D01*
X-6358Y-109D01*
X-6398Y-117D01*
X-6439Y-122D01*
X-6480Y-125D01*
X-6520Y-125D01*
X-6561Y-122D01*
X-6602Y-117D01*
X-6642Y-109D01*
X-6682Y-98D01*
X-6720Y-85D01*
X-6758Y-70D01*
X-6795Y-51D01*
X-6830Y-31D01*
X-6864Y-8D01*
X-6897Y17D01*
X-6927Y44D01*
X-6956Y73D01*
X-6983Y103D01*
X-7008Y136D01*
X-7031Y170D01*
X-7051Y205D01*
X-7070Y242D01*
X-7085Y280D01*
X-7098Y318D01*
X-7109Y358D01*
X-7117Y398D01*
X-7122Y439D01*
X-7125Y480D01*
X-7125Y520D01*
X-7122Y561D01*
X-7117Y602D01*
X-7109Y642D01*
X-7098Y682D01*
X-7085Y720D01*
X-7070Y758D01*
X-7051Y795D01*
X-7031Y830D01*
X-7008Y864D01*
X-6983Y897D01*
X-6956Y927D01*
X-6927Y956D01*
X-6897Y983D01*
X-6864Y1008D01*
X-6830Y1031D01*
X-6795Y1051D01*
X-6758Y1070D01*
X-6720Y1085D01*
X-6682Y1098D01*
X-6642Y1109D01*
X-6602Y1117D01*
X-6561Y1122D01*
X-6520Y1125D01*
X-6480Y1125D01*
X-6439Y1122D01*
X-6398Y1117D01*
X-6358Y1109D01*
X-6318Y1098D01*
X-6280Y1085D01*
X-6242Y1070D01*
X-6205Y1051D01*
X-6170Y1031D01*
X-6136Y1008D01*
X-6103Y983D01*
X-6073Y956D01*
X-6044Y927D01*
X-6017Y897D01*
X-5992Y864D01*
X-5969Y830D01*
X-5949Y795D01*
X-5930Y758D01*
X-5915Y720D01*
X-5902Y682D01*
X-5891Y642D01*
X-5883Y602D01*
X-5878Y561D01*
X-5875Y520D01*
X-5875Y480D01*
X-5875Y-9020D02*
X-5878Y-9061D01*
X-5883Y-9102D01*
X-5891Y-9142D01*
X-5902Y-9182D01*
X-5915Y-9220D01*
X-5930Y-9258D01*
X-5949Y-9295D01*
X-5969Y-9330D01*
X-5992Y-9364D01*
X-6017Y-9397D01*
X-6044Y-9427D01*
X-6073Y-9456D01*
X-6103Y-9483D01*
X-6136Y-9508D01*
X-6170Y-9531D01*
X-6205Y-9551D01*
X-6242Y-9570D01*
X-6280Y-9585D01*
X-6318Y-9598D01*
X-6358Y-9609D01*
X-6398Y-9617D01*
X-6439Y-9622D01*
X-6480Y-9625D01*
X-6520Y-9625D01*
X-6561Y-9622D01*
X-6602Y-9617D01*
X-6642Y-9609D01*
X-6682Y-9598D01*
X-6720Y-9585D01*
X-6758Y-9570D01*
X-6795Y-9551D01*
X-6830Y-9531D01*
X-6864Y-9508D01*
X-6897Y-9483D01*
X-6927Y-9456D01*
X-6956Y-9427D01*
X-6983Y-9397D01*
X-7008Y-9364D01*
X-7031Y-9330D01*
X-7051Y-9295D01*
X-7070Y-9258D01*
X-7085Y-9220D01*
X-7098Y-9182D01*
X-7109Y-9142D01*
X-7117Y-9102D01*
X-7122Y-9061D01*
X-7125Y-9020D01*
X-7125Y-8980D01*
X-7122Y-8939D01*
X-7117Y-8898D01*
X-7109Y-8858D01*
X-7098Y-8818D01*
X-7085Y-8780D01*
X-7070Y-8742D01*
X-7051Y-8705D01*
X-7031Y-8670D01*
X-7008Y-8636D01*
X-6983Y-8603D01*
X-6956Y-8573D01*
X-6927Y-8544D01*
X-6897Y-8517D01*
X-6864Y-8492D01*
X-6830Y-8469D01*
X-6795Y-8449D01*
X-6758Y-8430D01*
X-6720Y-8415D01*
X-6682Y-8402D01*
X-6642Y-8391D01*
X-6602Y-8383D01*
X-6561Y-8378D01*
X-6520Y-8375D01*
X-6480Y-8375D01*
X-6439Y-8378D01*
X-6398Y-8383D01*
X-6358Y-8391D01*
X-6318Y-8402D01*
X-6280Y-8415D01*
X-6242Y-8430D01*
X-6205Y-8449D01*
X-6170Y-8469D01*
X-6136Y-8492D01*
X-6103Y-8517D01*
X-6073Y-8544D01*
X-6044Y-8573D01*
X-6017Y-8603D01*
X-5992Y-8636D01*
X-5969Y-8670D01*
X-5949Y-8705D01*
X-5930Y-8742D01*
X-5915Y-8780D01*
X-5902Y-8818D01*
X-5891Y-8858D01*
X-5883Y-8898D01*
X-5878Y-8939D01*
X-5875Y-8980D01*
X-5875Y-9020D01*
M02*
