G04 EAGLE Gerber RS-274X export*
G75*
%MOIN*%
%FSLAX34Y34*%
%LPD*%
%INTop Copper*%
%IPPOS*%
%AMOC8*
5,1,8,0,0,1.08239X$1,22.5*%
G01*
%ADD10C,0.059055*%
%ADD11R,0.030000X0.015000*%
%ADD12C,0.023000*%
%ADD13C,0.007000*%
%ADD14C,0.006000*%
%ADD15C,0.010000*%

G36*
X4001Y-10269D02*
X4001Y-10269D01*
X4010Y-10269D01*
X4043Y-10266D01*
X4043Y-10265D01*
X4052Y-10264D01*
X4060Y-10262D01*
X4061Y-10262D01*
X4071Y-10258D01*
X4132Y-10233D01*
X4137Y-10231D01*
X4142Y-10229D01*
X4145Y-10227D01*
X4148Y-10225D01*
X4152Y-10222D01*
X4156Y-10219D01*
X4160Y-10215D01*
X4162Y-10214D01*
X4163Y-10213D01*
X4165Y-10212D01*
X4212Y-10165D01*
X4215Y-10161D01*
X4218Y-10157D01*
X4220Y-10154D01*
X4223Y-10151D01*
X4225Y-10147D01*
X4228Y-10142D01*
X4231Y-10137D01*
X4232Y-10136D01*
X4232Y-10135D01*
X4233Y-10132D01*
X4258Y-10071D01*
X4259Y-10071D01*
X4261Y-10063D01*
X4264Y-10054D01*
X4266Y-10043D01*
X4269Y-10010D01*
X4269Y-10008D01*
X4269Y-10000D01*
X4269Y-9160D01*
X4269Y-9158D01*
X4269Y-9157D01*
X4268Y-9150D01*
X4268Y-9142D01*
X4267Y-9141D01*
X4267Y-9139D01*
X4265Y-9132D01*
X4263Y-9125D01*
X4262Y-9124D01*
X4262Y-9122D01*
X4259Y-9116D01*
X4255Y-9109D01*
X4254Y-9108D01*
X4254Y-9107D01*
X4249Y-9101D01*
X4245Y-9095D01*
X4244Y-9094D01*
X4243Y-9093D01*
X4238Y-9088D01*
X4232Y-9083D01*
X4231Y-9082D01*
X4230Y-9081D01*
X4224Y-9077D01*
X4218Y-9073D01*
X4216Y-9072D01*
X4215Y-9071D01*
X4208Y-9069D01*
X4202Y-9066D01*
X4200Y-9066D01*
X4198Y-9065D01*
X4191Y-9063D01*
X4184Y-9062D01*
X4183Y-9062D01*
X4181Y-9061D01*
X4170Y-9061D01*
X3975Y-9061D01*
X3939Y-9025D01*
X3939Y-6975D01*
X3975Y-6939D01*
X4170Y-6939D01*
X4172Y-6939D01*
X4173Y-6939D01*
X4180Y-6938D01*
X4188Y-6938D01*
X4189Y-6937D01*
X4191Y-6937D01*
X4198Y-6935D01*
X4205Y-6933D01*
X4206Y-6932D01*
X4208Y-6932D01*
X4214Y-6929D01*
X4221Y-6925D01*
X4222Y-6924D01*
X4223Y-6924D01*
X4229Y-6919D01*
X4235Y-6915D01*
X4236Y-6914D01*
X4237Y-6913D01*
X4242Y-6908D01*
X4247Y-6902D01*
X4248Y-6901D01*
X4249Y-6900D01*
X4253Y-6894D01*
X4257Y-6888D01*
X4258Y-6886D01*
X4259Y-6885D01*
X4261Y-6878D01*
X4264Y-6872D01*
X4264Y-6870D01*
X4265Y-6868D01*
X4267Y-6861D01*
X4268Y-6854D01*
X4268Y-6853D01*
X4269Y-6851D01*
X4269Y-6840D01*
X4269Y-1660D01*
X4269Y-1658D01*
X4269Y-1657D01*
X4268Y-1650D01*
X4268Y-1642D01*
X4267Y-1641D01*
X4267Y-1639D01*
X4265Y-1632D01*
X4263Y-1625D01*
X4262Y-1624D01*
X4262Y-1622D01*
X4259Y-1616D01*
X4255Y-1609D01*
X4254Y-1608D01*
X4254Y-1607D01*
X4249Y-1601D01*
X4245Y-1595D01*
X4244Y-1594D01*
X4243Y-1593D01*
X4238Y-1588D01*
X4232Y-1583D01*
X4231Y-1582D01*
X4230Y-1581D01*
X4224Y-1577D01*
X4218Y-1573D01*
X4216Y-1572D01*
X4215Y-1571D01*
X4208Y-1569D01*
X4202Y-1566D01*
X4200Y-1566D01*
X4198Y-1565D01*
X4191Y-1563D01*
X4184Y-1562D01*
X4183Y-1562D01*
X4181Y-1561D01*
X4170Y-1561D01*
X3975Y-1561D01*
X3939Y-1525D01*
X3939Y358D01*
X3939Y363D01*
X3939Y369D01*
X3938Y372D01*
X3938Y376D01*
X3936Y381D01*
X3935Y386D01*
X3934Y389D01*
X3933Y393D01*
X3931Y397D01*
X3929Y402D01*
X3927Y405D01*
X3925Y409D01*
X3922Y413D01*
X3920Y417D01*
X3917Y420D01*
X3915Y423D01*
X3911Y427D01*
X3908Y431D01*
X3905Y433D01*
X3902Y435D01*
X3898Y438D01*
X3894Y441D01*
X3891Y443D01*
X3888Y445D01*
X3883Y447D01*
X3878Y450D01*
X3875Y451D01*
X3872Y452D01*
X3866Y453D01*
X3861Y455D01*
X3858Y455D01*
X3854Y456D01*
X3849Y457D01*
X3844Y457D01*
X3840Y457D01*
X3837Y457D01*
X3832Y457D01*
X3826Y456D01*
X3823Y456D01*
X3819Y455D01*
X3814Y454D01*
X3809Y452D01*
X3806Y451D01*
X3802Y450D01*
X3798Y447D01*
X3793Y445D01*
X3790Y443D01*
X3787Y442D01*
X3782Y439D01*
X3778Y436D01*
X3774Y432D01*
X3773Y431D01*
X3772Y430D01*
X3770Y428D01*
X3737Y395D01*
X3583Y332D01*
X3417Y332D01*
X3263Y395D01*
X3145Y513D01*
X3082Y667D01*
X3082Y833D01*
X3145Y987D01*
X3263Y1105D01*
X3417Y1168D01*
X3583Y1168D01*
X3737Y1105D01*
X3855Y987D01*
X3918Y833D01*
X3918Y660D01*
X3918Y658D01*
X3918Y657D01*
X3919Y650D01*
X3920Y642D01*
X3920Y641D01*
X3921Y639D01*
X3923Y632D01*
X3925Y625D01*
X3925Y624D01*
X3926Y622D01*
X3929Y616D01*
X3932Y609D01*
X3933Y608D01*
X3934Y607D01*
X3938Y601D01*
X3942Y595D01*
X3944Y594D01*
X3945Y593D01*
X3950Y588D01*
X3955Y583D01*
X3957Y582D01*
X3958Y581D01*
X3964Y577D01*
X3970Y573D01*
X3971Y572D01*
X3973Y571D01*
X3979Y569D01*
X3986Y566D01*
X3988Y566D01*
X3989Y565D01*
X3996Y563D01*
X4003Y562D01*
X4005Y562D01*
X4006Y561D01*
X4018Y561D01*
X4170Y561D01*
X4172Y561D01*
X4173Y561D01*
X4180Y562D01*
X4188Y562D01*
X4189Y563D01*
X4191Y563D01*
X4198Y565D01*
X4205Y567D01*
X4206Y568D01*
X4208Y568D01*
X4214Y571D01*
X4221Y575D01*
X4222Y576D01*
X4223Y576D01*
X4229Y581D01*
X4235Y585D01*
X4236Y586D01*
X4237Y587D01*
X4242Y592D01*
X4247Y598D01*
X4248Y599D01*
X4249Y600D01*
X4253Y606D01*
X4257Y612D01*
X4258Y614D01*
X4259Y615D01*
X4261Y622D01*
X4264Y628D01*
X4264Y630D01*
X4265Y632D01*
X4267Y639D01*
X4268Y646D01*
X4268Y647D01*
X4269Y649D01*
X4269Y660D01*
X4269Y1500D01*
X4269Y1501D01*
X4269Y1510D01*
X4266Y1543D01*
X4265Y1543D01*
X4264Y1552D01*
X4262Y1560D01*
X4262Y1561D01*
X4258Y1571D01*
X4233Y1632D01*
X4231Y1637D01*
X4229Y1642D01*
X4227Y1645D01*
X4225Y1648D01*
X4222Y1652D01*
X4219Y1656D01*
X4215Y1660D01*
X4214Y1662D01*
X4213Y1663D01*
X4212Y1665D01*
X4165Y1712D01*
X4161Y1715D01*
X4157Y1718D01*
X4155Y1719D01*
X4155Y1720D01*
X4154Y1721D01*
X4151Y1723D01*
X4147Y1725D01*
X4142Y1728D01*
X4137Y1731D01*
X4136Y1732D01*
X4135Y1732D01*
X4132Y1733D01*
X4071Y1758D01*
X4071Y1759D01*
X4063Y1761D01*
X4054Y1764D01*
X4043Y1766D01*
X4010Y1769D01*
X4008Y1769D01*
X4000Y1769D01*
X-3500Y1769D01*
X-3501Y1769D01*
X-3510Y1769D01*
X-3543Y1766D01*
X-3543Y1765D01*
X-3552Y1764D01*
X-3560Y1762D01*
X-3561Y1762D01*
X-3571Y1758D01*
X-3632Y1733D01*
X-3637Y1731D01*
X-3642Y1729D01*
X-3645Y1727D01*
X-3646Y1726D01*
X-3648Y1725D01*
X-3652Y1722D01*
X-3656Y1719D01*
X-3659Y1716D01*
X-3660Y1716D01*
X-3661Y1715D01*
X-3662Y1714D01*
X-3663Y1713D01*
X-3665Y1712D01*
X-3712Y1665D01*
X-3715Y1661D01*
X-3718Y1657D01*
X-3720Y1654D01*
X-3723Y1651D01*
X-3725Y1647D01*
X-3728Y1642D01*
X-3731Y1637D01*
X-3732Y1636D01*
X-3732Y1635D01*
X-3733Y1632D01*
X-3758Y1571D01*
X-3759Y1571D01*
X-3761Y1562D01*
X-3764Y1554D01*
X-3766Y1543D01*
X-3769Y1510D01*
X-3769Y1508D01*
X-3769Y1500D01*
X-3769Y660D01*
X-3769Y658D01*
X-3769Y657D01*
X-3768Y650D01*
X-3768Y642D01*
X-3767Y641D01*
X-3767Y639D01*
X-3765Y632D01*
X-3763Y625D01*
X-3762Y624D01*
X-3762Y622D01*
X-3759Y616D01*
X-3755Y609D01*
X-3754Y608D01*
X-3754Y607D01*
X-3749Y601D01*
X-3745Y595D01*
X-3744Y594D01*
X-3743Y593D01*
X-3738Y588D01*
X-3732Y583D01*
X-3731Y582D01*
X-3730Y581D01*
X-3724Y577D01*
X-3718Y573D01*
X-3716Y572D01*
X-3715Y571D01*
X-3708Y569D01*
X-3702Y566D01*
X-3700Y566D01*
X-3698Y565D01*
X-3691Y563D01*
X-3684Y562D01*
X-3683Y562D01*
X-3681Y561D01*
X-3670Y561D01*
X-3518Y561D01*
X-3516Y561D01*
X-3514Y561D01*
X-3507Y562D01*
X-3500Y562D01*
X-3498Y563D01*
X-3497Y563D01*
X-3490Y565D01*
X-3483Y567D01*
X-3481Y568D01*
X-3480Y568D01*
X-3473Y571D01*
X-3467Y575D01*
X-3466Y576D01*
X-3464Y576D01*
X-3458Y581D01*
X-3453Y585D01*
X-3452Y586D01*
X-3450Y587D01*
X-3445Y592D01*
X-3440Y598D01*
X-3439Y599D01*
X-3438Y600D01*
X-3435Y606D01*
X-3431Y612D01*
X-3430Y614D01*
X-3429Y615D01*
X-3426Y622D01*
X-3423Y628D01*
X-3423Y630D01*
X-3422Y632D01*
X-3421Y639D01*
X-3419Y646D01*
X-3419Y647D01*
X-3419Y649D01*
X-3418Y660D01*
X-3418Y833D01*
X-3355Y987D01*
X-3237Y1105D01*
X-3083Y1168D01*
X-2917Y1168D01*
X-2763Y1105D01*
X-2645Y987D01*
X-2582Y833D01*
X-2582Y667D01*
X-2645Y513D01*
X-2763Y395D01*
X-2917Y332D01*
X-3083Y332D01*
X-3237Y395D01*
X-3270Y428D01*
X-3274Y432D01*
X-3278Y435D01*
X-3281Y437D01*
X-3283Y440D01*
X-3288Y442D01*
X-3292Y445D01*
X-3296Y447D01*
X-3299Y448D01*
X-3304Y450D01*
X-3308Y452D01*
X-3312Y453D01*
X-3315Y454D01*
X-3321Y455D01*
X-3326Y456D01*
X-3329Y456D01*
X-3333Y457D01*
X-3338Y457D01*
X-3343Y457D01*
X-3347Y457D01*
X-3350Y457D01*
X-3356Y456D01*
X-3361Y455D01*
X-3364Y454D01*
X-3368Y453D01*
X-3373Y451D01*
X-3378Y450D01*
X-3381Y448D01*
X-3384Y447D01*
X-3389Y444D01*
X-3393Y442D01*
X-3396Y440D01*
X-3399Y438D01*
X-3403Y434D01*
X-3407Y431D01*
X-3410Y428D01*
X-3412Y426D01*
X-3416Y422D01*
X-3419Y418D01*
X-3421Y415D01*
X-3423Y412D01*
X-3426Y407D01*
X-3429Y403D01*
X-3430Y400D01*
X-3432Y396D01*
X-3433Y391D01*
X-3435Y386D01*
X-3436Y383D01*
X-3437Y380D01*
X-3438Y374D01*
X-3439Y369D01*
X-3439Y364D01*
X-3439Y362D01*
X-3439Y361D01*
X-3439Y358D01*
X-3439Y-1525D01*
X-3475Y-1561D01*
X-3670Y-1561D01*
X-3672Y-1561D01*
X-3673Y-1561D01*
X-3680Y-1562D01*
X-3688Y-1562D01*
X-3689Y-1563D01*
X-3691Y-1563D01*
X-3698Y-1565D01*
X-3705Y-1567D01*
X-3706Y-1568D01*
X-3708Y-1568D01*
X-3714Y-1571D01*
X-3721Y-1575D01*
X-3722Y-1576D01*
X-3723Y-1576D01*
X-3729Y-1581D01*
X-3735Y-1585D01*
X-3736Y-1586D01*
X-3737Y-1587D01*
X-3742Y-1592D01*
X-3747Y-1598D01*
X-3748Y-1599D01*
X-3749Y-1600D01*
X-3753Y-1606D01*
X-3757Y-1612D01*
X-3758Y-1614D01*
X-3759Y-1615D01*
X-3761Y-1622D01*
X-3764Y-1628D01*
X-3764Y-1630D01*
X-3765Y-1632D01*
X-3767Y-1639D01*
X-3768Y-1646D01*
X-3768Y-1647D01*
X-3769Y-1649D01*
X-3769Y-1660D01*
X-3769Y-6840D01*
X-3769Y-6842D01*
X-3769Y-6843D01*
X-3768Y-6850D01*
X-3768Y-6858D01*
X-3767Y-6859D01*
X-3767Y-6861D01*
X-3765Y-6868D01*
X-3763Y-6875D01*
X-3762Y-6876D01*
X-3762Y-6878D01*
X-3759Y-6884D01*
X-3755Y-6891D01*
X-3754Y-6892D01*
X-3754Y-6893D01*
X-3749Y-6899D01*
X-3745Y-6905D01*
X-3744Y-6906D01*
X-3743Y-6907D01*
X-3738Y-6912D01*
X-3732Y-6917D01*
X-3731Y-6918D01*
X-3730Y-6919D01*
X-3724Y-6923D01*
X-3718Y-6927D01*
X-3716Y-6928D01*
X-3715Y-6929D01*
X-3708Y-6931D01*
X-3702Y-6934D01*
X-3700Y-6934D01*
X-3698Y-6935D01*
X-3691Y-6937D01*
X-3684Y-6938D01*
X-3683Y-6938D01*
X-3681Y-6939D01*
X-3670Y-6939D01*
X-3475Y-6939D01*
X-3439Y-6975D01*
X-3439Y-9025D01*
X-3475Y-9061D01*
X-3670Y-9061D01*
X-3672Y-9061D01*
X-3673Y-9061D01*
X-3680Y-9062D01*
X-3688Y-9062D01*
X-3689Y-9063D01*
X-3691Y-9063D01*
X-3698Y-9065D01*
X-3705Y-9067D01*
X-3706Y-9068D01*
X-3708Y-9068D01*
X-3714Y-9071D01*
X-3721Y-9075D01*
X-3722Y-9076D01*
X-3723Y-9076D01*
X-3729Y-9081D01*
X-3735Y-9085D01*
X-3736Y-9086D01*
X-3737Y-9087D01*
X-3742Y-9092D01*
X-3747Y-9098D01*
X-3748Y-9099D01*
X-3749Y-9100D01*
X-3753Y-9106D01*
X-3757Y-9112D01*
X-3758Y-9114D01*
X-3759Y-9115D01*
X-3761Y-9122D01*
X-3764Y-9128D01*
X-3764Y-9130D01*
X-3765Y-9132D01*
X-3767Y-9139D01*
X-3768Y-9146D01*
X-3768Y-9147D01*
X-3769Y-9149D01*
X-3769Y-9160D01*
X-3769Y-10000D01*
X-3769Y-10001D01*
X-3769Y-10010D01*
X-3766Y-10043D01*
X-3765Y-10043D01*
X-3764Y-10052D01*
X-3762Y-10060D01*
X-3762Y-10061D01*
X-3758Y-10071D01*
X-3733Y-10132D01*
X-3731Y-10137D01*
X-3729Y-10142D01*
X-3727Y-10145D01*
X-3725Y-10148D01*
X-3722Y-10152D01*
X-3719Y-10156D01*
X-3715Y-10160D01*
X-3714Y-10162D01*
X-3713Y-10163D01*
X-3712Y-10165D01*
X-3665Y-10212D01*
X-3661Y-10215D01*
X-3657Y-10218D01*
X-3654Y-10220D01*
X-3651Y-10223D01*
X-3647Y-10225D01*
X-3642Y-10228D01*
X-3637Y-10231D01*
X-3636Y-10232D01*
X-3635Y-10232D01*
X-3632Y-10233D01*
X-3571Y-10258D01*
X-3571Y-10259D01*
X-3563Y-10261D01*
X-3554Y-10264D01*
X-3543Y-10266D01*
X-3510Y-10269D01*
X-3508Y-10269D01*
X-3500Y-10269D01*
X4000Y-10269D01*
X4001Y-10269D01*
G37*
%LPC*%
G36*
X929Y-8066D02*
X929Y-8066D01*
X864Y-8039D01*
X815Y-7990D01*
X788Y-7925D01*
X788Y-7855D01*
X822Y-7774D01*
X824Y-7767D01*
X826Y-7761D01*
X826Y-7759D01*
X827Y-7757D01*
X828Y-7750D01*
X829Y-7744D01*
X829Y-7742D01*
X829Y-7740D01*
X829Y-7733D01*
X829Y-7726D01*
X828Y-7724D01*
X828Y-7722D01*
X827Y-7715D01*
X825Y-7709D01*
X825Y-7706D01*
X824Y-7705D01*
X823Y-7703D01*
X822Y-7698D01*
X793Y-7629D01*
X793Y-7559D01*
X820Y-7494D01*
X869Y-7445D01*
X934Y-7418D01*
X1008Y-7418D01*
X1017Y-7419D01*
X1025Y-7420D01*
X1026Y-7420D01*
X1034Y-7420D01*
X1043Y-7419D01*
X1052Y-7417D01*
X1060Y-7415D01*
X1069Y-7412D01*
X1076Y-7408D01*
X1077Y-7408D01*
X1084Y-7403D01*
X1091Y-7399D01*
X1092Y-7398D01*
X1099Y-7391D01*
X1170Y-7321D01*
X1175Y-7315D01*
X1179Y-7310D01*
X1180Y-7309D01*
X1182Y-7307D01*
X1185Y-7301D01*
X1189Y-7295D01*
X1189Y-7293D01*
X1190Y-7292D01*
X1193Y-7285D01*
X1195Y-7279D01*
X1195Y-7277D01*
X1196Y-7275D01*
X1197Y-7268D01*
X1199Y-7261D01*
X1199Y-7259D01*
X1199Y-7258D01*
X1199Y-7256D01*
X1199Y-7250D01*
X1199Y-6550D01*
X1199Y-6544D01*
X1199Y-6539D01*
X1198Y-6536D01*
X1198Y-6532D01*
X1196Y-6527D01*
X1195Y-6522D01*
X1194Y-6518D01*
X1193Y-6515D01*
X1191Y-6510D01*
X1189Y-6505D01*
X1187Y-6502D01*
X1185Y-6499D01*
X1182Y-6495D01*
X1180Y-6490D01*
X1177Y-6488D01*
X1175Y-6485D01*
X1171Y-6481D01*
X1168Y-6477D01*
X1165Y-6475D01*
X1162Y-6472D01*
X1158Y-6470D01*
X1154Y-6466D01*
X1151Y-6465D01*
X1148Y-6463D01*
X1143Y-6460D01*
X1138Y-6458D01*
X1135Y-6457D01*
X1132Y-6456D01*
X1126Y-6454D01*
X1121Y-6453D01*
X1118Y-6452D01*
X1114Y-6451D01*
X1109Y-6451D01*
X1104Y-6450D01*
X1100Y-6451D01*
X1097Y-6450D01*
X1092Y-6451D01*
X1086Y-6451D01*
X1083Y-6452D01*
X1079Y-6453D01*
X1074Y-6454D01*
X1069Y-6455D01*
X1066Y-6457D01*
X1065Y-6457D01*
X895Y-6457D01*
X888Y-6458D01*
X881Y-6458D01*
X880Y-6458D01*
X878Y-6459D01*
X871Y-6460D01*
X864Y-6462D01*
X862Y-6463D01*
X861Y-6463D01*
X854Y-6466D01*
X848Y-6469D01*
X846Y-6470D01*
X845Y-6471D01*
X839Y-6475D01*
X833Y-6479D01*
X831Y-6480D01*
X830Y-6481D01*
X829Y-6483D01*
X825Y-6486D01*
X787Y-6524D01*
X722Y-6551D01*
X653Y-6551D01*
X588Y-6524D01*
X539Y-6475D01*
X512Y-6410D01*
X512Y-6340D01*
X539Y-6275D01*
X541Y-6273D01*
X542Y-6272D01*
X543Y-6271D01*
X547Y-6265D01*
X552Y-6260D01*
X553Y-6258D01*
X554Y-6257D01*
X557Y-6251D01*
X561Y-6244D01*
X561Y-6243D01*
X562Y-6241D01*
X564Y-6235D01*
X567Y-6228D01*
X567Y-6226D01*
X567Y-6225D01*
X568Y-6217D01*
X569Y-6210D01*
X569Y-6209D01*
X570Y-6207D01*
X569Y-6200D01*
X569Y-6193D01*
X569Y-6191D01*
X569Y-6189D01*
X567Y-6182D01*
X566Y-6175D01*
X565Y-6174D01*
X565Y-6172D01*
X562Y-6166D01*
X559Y-6159D01*
X558Y-6157D01*
X558Y-6156D01*
X554Y-6150D01*
X550Y-6144D01*
X549Y-6143D01*
X548Y-6141D01*
X541Y-6133D01*
X539Y-6131D01*
X512Y-6066D01*
X512Y-5996D01*
X539Y-5932D01*
X588Y-5882D01*
X653Y-5856D01*
X726Y-5856D01*
X727Y-5856D01*
X735Y-5857D01*
X744Y-5858D01*
X753Y-5857D01*
X762Y-5857D01*
X770Y-5855D01*
X779Y-5853D01*
X787Y-5849D01*
X795Y-5846D01*
X802Y-5841D01*
X810Y-5836D01*
X818Y-5829D01*
X823Y-5824D01*
X1143Y-5824D01*
X1150Y-5824D01*
X1157Y-5823D01*
X1159Y-5823D01*
X1160Y-5823D01*
X1167Y-5821D01*
X1174Y-5819D01*
X1176Y-5819D01*
X1178Y-5818D01*
X1184Y-5815D01*
X1190Y-5812D01*
X1192Y-5811D01*
X1193Y-5810D01*
X1199Y-5806D01*
X1205Y-5803D01*
X1207Y-5801D01*
X1208Y-5800D01*
X1209Y-5799D01*
X1213Y-5795D01*
X1239Y-5769D01*
X1243Y-5765D01*
X1246Y-5761D01*
X1248Y-5758D01*
X1251Y-5755D01*
X1253Y-5751D01*
X1256Y-5746D01*
X1258Y-5743D01*
X1259Y-5740D01*
X1261Y-5735D01*
X1263Y-5730D01*
X1264Y-5727D01*
X1265Y-5723D01*
X1266Y-5718D01*
X1267Y-5713D01*
X1268Y-5710D01*
X1268Y-5706D01*
X1268Y-5701D01*
X1268Y-5695D01*
X1268Y-5692D01*
X1268Y-5688D01*
X1267Y-5683D01*
X1266Y-5678D01*
X1265Y-5674D01*
X1264Y-5671D01*
X1263Y-5666D01*
X1261Y-5661D01*
X1259Y-5658D01*
X1258Y-5655D01*
X1255Y-5650D01*
X1253Y-5645D01*
X1251Y-5643D01*
X1249Y-5639D01*
X1245Y-5636D01*
X1242Y-5631D01*
X1239Y-5629D01*
X1237Y-5626D01*
X1233Y-5623D01*
X1229Y-5620D01*
X1226Y-5618D01*
X1223Y-5615D01*
X1218Y-5613D01*
X1214Y-5610D01*
X1211Y-5609D01*
X1207Y-5607D01*
X1202Y-5606D01*
X1198Y-5604D01*
X1194Y-5603D01*
X1191Y-5602D01*
X1185Y-5601D01*
X1180Y-5600D01*
X1175Y-5600D01*
X1173Y-5600D01*
X1172Y-5600D01*
X1169Y-5599D01*
X800Y-5599D01*
X781Y-5580D01*
X775Y-5575D01*
X770Y-5571D01*
X769Y-5570D01*
X767Y-5568D01*
X761Y-5565D01*
X755Y-5561D01*
X753Y-5561D01*
X752Y-5560D01*
X745Y-5557D01*
X739Y-5555D01*
X737Y-5555D01*
X735Y-5554D01*
X728Y-5553D01*
X722Y-5551D01*
X719Y-5551D01*
X718Y-5551D01*
X716Y-5551D01*
X710Y-5551D01*
X653Y-5551D01*
X588Y-5524D01*
X539Y-5475D01*
X512Y-5410D01*
X512Y-5340D01*
X544Y-5261D01*
X545Y-5260D01*
X546Y-5258D01*
X546Y-5257D01*
X549Y-5250D01*
X551Y-5243D01*
X551Y-5242D01*
X552Y-5240D01*
X553Y-5233D01*
X554Y-5226D01*
X554Y-5224D01*
X554Y-5223D01*
X554Y-5215D01*
X554Y-5208D01*
X553Y-5207D01*
X553Y-5205D01*
X552Y-5198D01*
X550Y-5191D01*
X550Y-5189D01*
X549Y-5188D01*
X547Y-5182D01*
X546Y-5180D01*
X544Y-5175D01*
X544Y-5174D01*
X512Y-5097D01*
X512Y-5028D01*
X539Y-4963D01*
X588Y-4914D01*
X648Y-4889D01*
X653Y-4886D01*
X658Y-4884D01*
X661Y-4882D01*
X664Y-4880D01*
X668Y-4877D01*
X672Y-4874D01*
X675Y-4872D01*
X678Y-4870D01*
X681Y-4866D01*
X685Y-4862D01*
X687Y-4859D01*
X690Y-4856D01*
X692Y-4852D01*
X695Y-4848D01*
X697Y-4844D01*
X699Y-4841D01*
X701Y-4837D01*
X703Y-4832D01*
X704Y-4828D01*
X705Y-4825D01*
X706Y-4820D01*
X708Y-4815D01*
X708Y-4811D01*
X709Y-4808D01*
X709Y-4802D01*
X709Y-4797D01*
X709Y-4794D01*
X709Y-4790D01*
X708Y-4785D01*
X708Y-4780D01*
X707Y-4776D01*
X706Y-4773D01*
X705Y-4768D01*
X703Y-4763D01*
X702Y-4759D01*
X701Y-4756D01*
X698Y-4751D01*
X696Y-4747D01*
X694Y-4744D01*
X692Y-4741D01*
X689Y-4736D01*
X685Y-4732D01*
X683Y-4730D01*
X681Y-4727D01*
X677Y-4724D01*
X673Y-4720D01*
X670Y-4718D01*
X667Y-4716D01*
X663Y-4713D01*
X658Y-4710D01*
X653Y-4708D01*
X652Y-4707D01*
X650Y-4706D01*
X648Y-4705D01*
X588Y-4680D01*
X539Y-4631D01*
X512Y-4566D01*
X512Y-4496D01*
X544Y-4418D01*
X545Y-4416D01*
X546Y-4415D01*
X546Y-4413D01*
X549Y-4406D01*
X551Y-4400D01*
X551Y-4398D01*
X552Y-4396D01*
X553Y-4389D01*
X554Y-4382D01*
X554Y-4380D01*
X554Y-4379D01*
X554Y-4372D01*
X554Y-4365D01*
X553Y-4363D01*
X553Y-4361D01*
X552Y-4354D01*
X550Y-4347D01*
X550Y-4346D01*
X549Y-4344D01*
X547Y-4338D01*
X546Y-4337D01*
X544Y-4332D01*
X544Y-4331D01*
X512Y-4254D01*
X512Y-4184D01*
X539Y-4119D01*
X588Y-4070D01*
X653Y-4043D01*
X742Y-4043D01*
X749Y-4042D01*
X755Y-4042D01*
X757Y-4042D01*
X759Y-4041D01*
X766Y-4040D01*
X773Y-4038D01*
X774Y-4037D01*
X776Y-4037D01*
X783Y-4034D01*
X789Y-4031D01*
X790Y-4030D01*
X792Y-4029D01*
X797Y-4026D01*
X995Y-4026D01*
X1248Y-4278D01*
X1253Y-4282D01*
X1258Y-4287D01*
X1260Y-4288D01*
X1261Y-4289D01*
X1267Y-4292D01*
X1273Y-4296D01*
X1275Y-4297D01*
X1276Y-4298D01*
X1283Y-4300D01*
X1289Y-4303D01*
X1291Y-4303D01*
X1293Y-4304D01*
X1300Y-4305D01*
X1307Y-4306D01*
X1309Y-4306D01*
X1311Y-4306D01*
X1313Y-4306D01*
X1318Y-4307D01*
X1652Y-4307D01*
X1657Y-4306D01*
X1662Y-4306D01*
X1666Y-4305D01*
X1669Y-4305D01*
X1674Y-4304D01*
X1679Y-4303D01*
X1683Y-4301D01*
X1686Y-4301D01*
X1691Y-4298D01*
X1696Y-4296D01*
X1699Y-4294D01*
X1702Y-4293D01*
X1706Y-4290D01*
X1711Y-4287D01*
X1714Y-4285D01*
X1717Y-4283D01*
X1720Y-4279D01*
X1724Y-4275D01*
X1726Y-4272D01*
X1729Y-4270D01*
X1732Y-4266D01*
X1735Y-4261D01*
X1737Y-4258D01*
X1739Y-4255D01*
X1741Y-4250D01*
X1743Y-4246D01*
X1744Y-4242D01*
X1746Y-4239D01*
X1747Y-4234D01*
X1749Y-4229D01*
X1749Y-4225D01*
X1750Y-4222D01*
X1750Y-4217D01*
X1751Y-4211D01*
X1751Y-4208D01*
X1751Y-4204D01*
X1750Y-4199D01*
X1750Y-4194D01*
X1749Y-4190D01*
X1749Y-4187D01*
X1747Y-4182D01*
X1746Y-4177D01*
X1745Y-4173D01*
X1743Y-4170D01*
X1741Y-4165D01*
X1739Y-4160D01*
X1737Y-4157D01*
X1735Y-4154D01*
X1732Y-4150D01*
X1729Y-4146D01*
X1726Y-4142D01*
X1725Y-4140D01*
X1724Y-4139D01*
X1722Y-4137D01*
X1201Y-3617D01*
X1196Y-3612D01*
X1191Y-3608D01*
X1189Y-3607D01*
X1188Y-3606D01*
X1182Y-3602D01*
X1176Y-3599D01*
X1174Y-3598D01*
X1172Y-3597D01*
X1166Y-3595D01*
X1160Y-3592D01*
X1158Y-3592D01*
X1156Y-3591D01*
X1149Y-3590D01*
X1142Y-3588D01*
X1140Y-3588D01*
X1138Y-3588D01*
X1136Y-3588D01*
X1131Y-3588D01*
X813Y-3588D01*
X808Y-3588D01*
X803Y-3588D01*
X799Y-3589D01*
X795Y-3589D01*
X790Y-3591D01*
X785Y-3592D01*
X780Y-3594D01*
X778Y-3594D01*
X777Y-3595D01*
X775Y-3595D01*
X717Y-3619D01*
X648Y-3619D01*
X583Y-3592D01*
X534Y-3543D01*
X507Y-3478D01*
X507Y-3408D01*
X535Y-3340D01*
X536Y-3339D01*
X537Y-3337D01*
X538Y-3336D01*
X542Y-3330D01*
X545Y-3323D01*
X546Y-3322D01*
X546Y-3320D01*
X549Y-3313D01*
X551Y-3307D01*
X551Y-3305D01*
X552Y-3304D01*
X553Y-3296D01*
X554Y-3289D01*
X554Y-3288D01*
X554Y-3286D01*
X554Y-3279D01*
X554Y-3272D01*
X553Y-3270D01*
X553Y-3268D01*
X552Y-3261D01*
X550Y-3254D01*
X550Y-3253D01*
X549Y-3251D01*
X546Y-3245D01*
X544Y-3238D01*
X543Y-3236D01*
X542Y-3235D01*
X538Y-3229D01*
X535Y-3223D01*
X507Y-3156D01*
X507Y-3086D01*
X534Y-3021D01*
X583Y-2972D01*
X648Y-2945D01*
X717Y-2945D01*
X785Y-2973D01*
X790Y-2974D01*
X794Y-2976D01*
X798Y-2977D01*
X802Y-2978D01*
X807Y-2979D01*
X812Y-2980D01*
X817Y-2980D01*
X819Y-2980D01*
X820Y-2980D01*
X823Y-2981D01*
X879Y-2981D01*
X884Y-2980D01*
X890Y-2980D01*
X893Y-2979D01*
X897Y-2979D01*
X902Y-2978D01*
X907Y-2977D01*
X910Y-2975D01*
X914Y-2974D01*
X919Y-2972D01*
X923Y-2970D01*
X927Y-2968D01*
X930Y-2967D01*
X934Y-2964D01*
X938Y-2961D01*
X941Y-2958D01*
X944Y-2956D01*
X948Y-2953D01*
X952Y-2949D01*
X954Y-2946D01*
X956Y-2944D01*
X959Y-2939D01*
X963Y-2935D01*
X964Y-2932D01*
X966Y-2929D01*
X968Y-2924D01*
X971Y-2920D01*
X972Y-2916D01*
X973Y-2913D01*
X975Y-2908D01*
X976Y-2903D01*
X977Y-2899D01*
X977Y-2896D01*
X978Y-2890D01*
X978Y-2885D01*
X978Y-2882D01*
X978Y-2878D01*
X978Y-2873D01*
X978Y-2868D01*
X977Y-2864D01*
X976Y-2860D01*
X975Y-2855D01*
X974Y-2850D01*
X972Y-2847D01*
X971Y-2844D01*
X969Y-2839D01*
X967Y-2834D01*
X965Y-2831D01*
X963Y-2828D01*
X960Y-2824D01*
X957Y-2819D01*
X953Y-2815D01*
X952Y-2814D01*
X951Y-2813D01*
X949Y-2811D01*
X834Y-2696D01*
X828Y-2690D01*
X821Y-2685D01*
X821Y-2684D01*
X813Y-2680D01*
X806Y-2676D01*
X805Y-2676D01*
X797Y-2673D01*
X789Y-2670D01*
X780Y-2668D01*
X771Y-2667D01*
X763Y-2667D01*
X754Y-2667D01*
X753Y-2667D01*
X745Y-2669D01*
X736Y-2671D01*
X726Y-2674D01*
X722Y-2676D01*
X653Y-2676D01*
X588Y-2649D01*
X539Y-2600D01*
X512Y-2535D01*
X512Y-2465D01*
X544Y-2386D01*
X545Y-2385D01*
X546Y-2383D01*
X546Y-2382D01*
X549Y-2375D01*
X551Y-2368D01*
X551Y-2367D01*
X552Y-2365D01*
X553Y-2358D01*
X554Y-2351D01*
X554Y-2349D01*
X554Y-2348D01*
X554Y-2340D01*
X554Y-2333D01*
X553Y-2332D01*
X553Y-2330D01*
X552Y-2323D01*
X550Y-2316D01*
X550Y-2314D01*
X549Y-2313D01*
X547Y-2307D01*
X546Y-2305D01*
X544Y-2300D01*
X544Y-2299D01*
X512Y-2222D01*
X512Y-2153D01*
X539Y-2088D01*
X594Y-2032D01*
X597Y-2030D01*
X599Y-2028D01*
X602Y-2026D01*
X606Y-2022D01*
X610Y-2018D01*
X612Y-2015D01*
X614Y-2013D01*
X617Y-2008D01*
X620Y-2004D01*
X622Y-2001D01*
X623Y-1998D01*
X625Y-1993D01*
X628Y-1988D01*
X629Y-1985D01*
X630Y-1981D01*
X631Y-1976D01*
X632Y-1971D01*
X633Y-1967D01*
X633Y-1964D01*
X633Y-1959D01*
X634Y-1953D01*
X634Y-1950D01*
X634Y-1946D01*
X633Y-1941D01*
X632Y-1936D01*
X632Y-1932D01*
X631Y-1929D01*
X629Y-1924D01*
X628Y-1919D01*
X626Y-1916D01*
X625Y-1912D01*
X623Y-1908D01*
X620Y-1903D01*
X618Y-1900D01*
X616Y-1897D01*
X613Y-1893D01*
X610Y-1888D01*
X607Y-1886D01*
X605Y-1883D01*
X601Y-1880D01*
X597Y-1876D01*
X594Y-1874D01*
X539Y-1818D01*
X512Y-1754D01*
X512Y-1684D01*
X544Y-1605D01*
X545Y-1604D01*
X546Y-1602D01*
X546Y-1601D01*
X549Y-1594D01*
X551Y-1587D01*
X551Y-1585D01*
X552Y-1584D01*
X553Y-1577D01*
X554Y-1570D01*
X554Y-1568D01*
X554Y-1566D01*
X554Y-1559D01*
X554Y-1552D01*
X553Y-1550D01*
X553Y-1549D01*
X552Y-1542D01*
X550Y-1535D01*
X550Y-1533D01*
X549Y-1531D01*
X547Y-1526D01*
X546Y-1524D01*
X544Y-1519D01*
X544Y-1518D01*
X512Y-1441D01*
X512Y-1371D01*
X539Y-1307D01*
X588Y-1257D01*
X653Y-1231D01*
X722Y-1231D01*
X787Y-1257D01*
X794Y-1264D01*
X799Y-1268D01*
X804Y-1273D01*
X806Y-1274D01*
X807Y-1275D01*
X813Y-1279D01*
X819Y-1282D01*
X821Y-1283D01*
X823Y-1284D01*
X829Y-1286D01*
X835Y-1289D01*
X837Y-1289D01*
X839Y-1290D01*
X846Y-1291D01*
X853Y-1292D01*
X855Y-1293D01*
X857Y-1293D01*
X859Y-1293D01*
X864Y-1293D01*
X1102Y-1293D01*
X1161Y-1352D01*
X1364Y-1554D01*
X1368Y-1558D01*
X1371Y-1561D01*
X1374Y-1563D01*
X1377Y-1566D01*
X1382Y-1568D01*
X1386Y-1571D01*
X1389Y-1572D01*
X1392Y-1574D01*
X1397Y-1576D01*
X1402Y-1578D01*
X1406Y-1579D01*
X1409Y-1580D01*
X1414Y-1581D01*
X1419Y-1582D01*
X1423Y-1582D01*
X1426Y-1583D01*
X1432Y-1583D01*
X1437Y-1583D01*
X1441Y-1583D01*
X1444Y-1583D01*
X1449Y-1582D01*
X1454Y-1581D01*
X1458Y-1580D01*
X1461Y-1579D01*
X1466Y-1577D01*
X1471Y-1576D01*
X1475Y-1574D01*
X1478Y-1573D01*
X1482Y-1570D01*
X1487Y-1568D01*
X1490Y-1565D01*
X1493Y-1564D01*
X1497Y-1560D01*
X1501Y-1557D01*
X1503Y-1554D01*
X1506Y-1552D01*
X1509Y-1548D01*
X1513Y-1544D01*
X1515Y-1541D01*
X1517Y-1538D01*
X1519Y-1533D01*
X1522Y-1529D01*
X1524Y-1525D01*
X1525Y-1522D01*
X1527Y-1517D01*
X1529Y-1512D01*
X1530Y-1509D01*
X1531Y-1505D01*
X1531Y-1500D01*
X1532Y-1495D01*
X1533Y-1490D01*
X1533Y-1488D01*
X1533Y-1487D01*
X1533Y-1484D01*
X1533Y-1383D01*
X1532Y-1376D01*
X1532Y-1370D01*
X1532Y-1368D01*
X1531Y-1366D01*
X1530Y-1359D01*
X1528Y-1352D01*
X1527Y-1351D01*
X1527Y-1349D01*
X1524Y-1342D01*
X1521Y-1336D01*
X1520Y-1335D01*
X1519Y-1333D01*
X1515Y-1327D01*
X1511Y-1321D01*
X1510Y-1320D01*
X1509Y-1318D01*
X1507Y-1317D01*
X1504Y-1313D01*
X1444Y-1254D01*
X1444Y-772D01*
X1444Y-771D01*
X1444Y-769D01*
X1443Y-762D01*
X1443Y-755D01*
X1442Y-753D01*
X1442Y-752D01*
X1440Y-745D01*
X1438Y-738D01*
X1437Y-736D01*
X1437Y-735D01*
X1434Y-728D01*
X1430Y-722D01*
X1429Y-721D01*
X1429Y-719D01*
X1424Y-713D01*
X1420Y-708D01*
X1419Y-706D01*
X1418Y-705D01*
X1413Y-700D01*
X1407Y-695D01*
X1406Y-694D01*
X1405Y-693D01*
X1399Y-689D01*
X1393Y-685D01*
X1391Y-685D01*
X1390Y-684D01*
X1383Y-681D01*
X1377Y-678D01*
X1375Y-678D01*
X1373Y-677D01*
X1366Y-676D01*
X1359Y-674D01*
X1358Y-674D01*
X1356Y-674D01*
X1345Y-673D01*
X1338Y-673D01*
X1273Y-646D01*
X1224Y-597D01*
X1197Y-532D01*
X1197Y-450D01*
X1196Y-441D01*
X1195Y-433D01*
X1195Y-432D01*
X1193Y-424D01*
X1191Y-416D01*
X1191Y-415D01*
X1187Y-407D01*
X1183Y-400D01*
X1183Y-399D01*
X1178Y-392D01*
X1173Y-385D01*
X1166Y-379D01*
X1160Y-373D01*
X1153Y-368D01*
X1146Y-363D01*
X1145Y-363D01*
X1135Y-358D01*
X1074Y-333D01*
X1025Y-283D01*
X998Y-219D01*
X998Y-149D01*
X1025Y-84D01*
X1039Y-70D01*
X1040Y-69D01*
X1041Y-68D01*
X1045Y-62D01*
X1050Y-57D01*
X1051Y-55D01*
X1052Y-54D01*
X1055Y-48D01*
X1059Y-41D01*
X1059Y-40D01*
X1060Y-38D01*
X1062Y-31D01*
X1065Y-25D01*
X1065Y-23D01*
X1065Y-21D01*
X1066Y-14D01*
X1068Y-7D01*
X1068Y-6D01*
X1068Y-4D01*
X1067Y3D01*
X1067Y10D01*
X1067Y12D01*
X1067Y14D01*
X1065Y21D01*
X1064Y28D01*
X1063Y29D01*
X1063Y31D01*
X1060Y38D01*
X1057Y44D01*
X1057Y46D01*
X1056Y47D01*
X1052Y53D01*
X1048Y59D01*
X1047Y61D01*
X1046Y62D01*
X1039Y70D01*
X1025Y84D01*
X998Y149D01*
X998Y154D01*
X998Y155D01*
X998Y156D01*
X998Y157D01*
X997Y164D01*
X996Y171D01*
X996Y173D01*
X996Y175D01*
X994Y181D01*
X992Y188D01*
X991Y190D01*
X991Y191D01*
X987Y198D01*
X984Y204D01*
X983Y206D01*
X982Y207D01*
X978Y213D01*
X974Y219D01*
X973Y220D01*
X972Y221D01*
X966Y226D01*
X961Y231D01*
X960Y232D01*
X959Y233D01*
X952Y237D01*
X946Y241D01*
X945Y241D01*
X944Y242D01*
X937Y245D01*
X930Y248D01*
X929Y248D01*
X927Y249D01*
X920Y250D01*
X913Y252D01*
X911Y252D01*
X910Y252D01*
X899Y253D01*
X833Y253D01*
X768Y280D01*
X739Y308D01*
X738Y309D01*
X737Y311D01*
X731Y315D01*
X726Y320D01*
X724Y320D01*
X723Y321D01*
X717Y325D01*
X710Y328D01*
X709Y329D01*
X707Y330D01*
X701Y332D01*
X694Y334D01*
X692Y335D01*
X691Y335D01*
X684Y336D01*
X676Y337D01*
X675Y337D01*
X673Y337D01*
X666Y337D01*
X659Y337D01*
X657Y337D01*
X655Y336D01*
X648Y335D01*
X641Y333D01*
X640Y333D01*
X638Y332D01*
X632Y330D01*
X625Y327D01*
X624Y326D01*
X622Y325D01*
X616Y322D01*
X610Y318D01*
X609Y317D01*
X607Y316D01*
X599Y308D01*
X587Y296D01*
X368Y206D01*
X132Y206D01*
X-87Y296D01*
X-254Y463D01*
X-344Y682D01*
X-344Y918D01*
X-254Y1137D01*
X-87Y1304D01*
X132Y1394D01*
X368Y1394D01*
X587Y1304D01*
X754Y1137D01*
X844Y918D01*
X844Y695D01*
X845Y686D01*
X846Y678D01*
X846Y677D01*
X848Y669D01*
X851Y661D01*
X851Y660D01*
X854Y652D01*
X858Y645D01*
X858Y644D01*
X863Y637D01*
X868Y630D01*
X869Y630D01*
X875Y624D01*
X881Y618D01*
X888Y613D01*
X896Y608D01*
X906Y603D01*
X967Y578D01*
X1016Y528D01*
X1043Y464D01*
X1043Y459D01*
X1043Y457D01*
X1043Y455D01*
X1044Y448D01*
X1045Y441D01*
X1045Y440D01*
X1045Y438D01*
X1048Y431D01*
X1049Y424D01*
X1050Y423D01*
X1051Y421D01*
X1054Y415D01*
X1057Y408D01*
X1058Y407D01*
X1059Y405D01*
X1063Y400D01*
X1067Y394D01*
X1069Y393D01*
X1070Y391D01*
X1075Y387D01*
X1080Y382D01*
X1081Y381D01*
X1083Y380D01*
X1089Y376D01*
X1095Y372D01*
X1096Y371D01*
X1098Y370D01*
X1104Y368D01*
X1111Y365D01*
X1113Y364D01*
X1114Y364D01*
X1121Y362D01*
X1128Y361D01*
X1130Y360D01*
X1131Y360D01*
X1142Y359D01*
X1209Y359D01*
X1273Y333D01*
X1323Y283D01*
X1349Y219D01*
X1349Y149D01*
X1323Y84D01*
X1309Y70D01*
X1308Y69D01*
X1306Y68D01*
X1302Y62D01*
X1297Y57D01*
X1297Y55D01*
X1296Y54D01*
X1292Y48D01*
X1289Y41D01*
X1288Y40D01*
X1287Y38D01*
X1285Y31D01*
X1283Y25D01*
X1282Y23D01*
X1282Y21D01*
X1281Y14D01*
X1280Y7D01*
X1280Y6D01*
X1280Y4D01*
X1280Y-3D01*
X1280Y-10D01*
X1281Y-12D01*
X1281Y-14D01*
X1282Y-21D01*
X1284Y-28D01*
X1284Y-29D01*
X1285Y-31D01*
X1287Y-38D01*
X1290Y-44D01*
X1291Y-46D01*
X1292Y-47D01*
X1296Y-53D01*
X1299Y-59D01*
X1300Y-61D01*
X1301Y-62D01*
X1309Y-70D01*
X1323Y-84D01*
X1349Y-149D01*
X1349Y-231D01*
X1350Y-240D01*
X1351Y-249D01*
X1353Y-257D01*
X1356Y-266D01*
X1359Y-274D01*
X1363Y-282D01*
X1368Y-289D01*
X1373Y-296D01*
X1374Y-296D01*
X1380Y-302D01*
X1386Y-308D01*
X1386Y-309D01*
X1393Y-313D01*
X1401Y-318D01*
X1401Y-319D01*
X1411Y-323D01*
X1472Y-349D01*
X1521Y-398D01*
X1548Y-463D01*
X1548Y-536D01*
X1548Y-537D01*
X1547Y-542D01*
X1546Y-547D01*
X1546Y-553D01*
X1546Y-555D01*
X1546Y-556D01*
X1546Y-558D01*
X1546Y-1170D01*
X1546Y-1177D01*
X1547Y-1184D01*
X1547Y-1186D01*
X1547Y-1188D01*
X1549Y-1195D01*
X1551Y-1201D01*
X1551Y-1203D01*
X1552Y-1205D01*
X1555Y-1211D01*
X1558Y-1218D01*
X1559Y-1219D01*
X1560Y-1221D01*
X1564Y-1227D01*
X1567Y-1232D01*
X1569Y-1234D01*
X1570Y-1235D01*
X1571Y-1237D01*
X1575Y-1241D01*
X1634Y-1300D01*
X1634Y-1400D01*
X1635Y-1403D01*
X1635Y-1407D01*
X1636Y-1412D01*
X1636Y-1418D01*
X1637Y-1421D01*
X1637Y-1424D01*
X1639Y-1429D01*
X1641Y-1435D01*
X1642Y-1438D01*
X1643Y-1441D01*
X1646Y-1446D01*
X1648Y-1450D01*
X1650Y-1453D01*
X1652Y-1456D01*
X1655Y-1460D01*
X1659Y-1465D01*
X1661Y-1467D01*
X1663Y-1470D01*
X1667Y-1473D01*
X1671Y-1477D01*
X1674Y-1479D01*
X1677Y-1481D01*
X1681Y-1484D01*
X1686Y-1487D01*
X1689Y-1488D01*
X1692Y-1490D01*
X1697Y-1492D01*
X1702Y-1494D01*
X1706Y-1495D01*
X1709Y-1496D01*
X1714Y-1497D01*
X1719Y-1498D01*
X1723Y-1498D01*
X1726Y-1499D01*
X1732Y-1499D01*
X1737Y-1499D01*
X1740Y-1499D01*
X1744Y-1499D01*
X1749Y-1498D01*
X1754Y-1497D01*
X1758Y-1496D01*
X1760Y-1495D01*
X1832Y-1495D01*
X1897Y-1522D01*
X1946Y-1572D01*
X1958Y-1599D01*
X1962Y-1607D01*
X1966Y-1615D01*
X1971Y-1622D01*
X1977Y-1629D01*
X1983Y-1635D01*
X1990Y-1640D01*
X1990Y-1641D01*
X1997Y-1645D01*
X2005Y-1650D01*
X2013Y-1653D01*
X2021Y-1656D01*
X2030Y-1658D01*
X2038Y-1660D01*
X2039Y-1660D01*
X2050Y-1660D01*
X2091Y-1660D01*
X2156Y-1687D01*
X2205Y-1737D01*
X2232Y-1801D01*
X2232Y-1850D01*
X2232Y-1852D01*
X2232Y-1853D01*
X2233Y-1860D01*
X2234Y-1868D01*
X2234Y-1869D01*
X2234Y-1871D01*
X2236Y-1878D01*
X2238Y-1885D01*
X2239Y-1886D01*
X2239Y-1888D01*
X2243Y-1894D01*
X2246Y-1901D01*
X2247Y-1902D01*
X2248Y-1903D01*
X2252Y-1909D01*
X2256Y-1915D01*
X2257Y-1916D01*
X2258Y-1917D01*
X2264Y-1922D01*
X2269Y-1927D01*
X2270Y-1928D01*
X2271Y-1929D01*
X2278Y-1933D01*
X2284Y-1937D01*
X2285Y-1938D01*
X2286Y-1939D01*
X2293Y-1941D01*
X2300Y-1944D01*
X2301Y-1944D01*
X2303Y-1945D01*
X2310Y-1947D01*
X2317Y-1948D01*
X2319Y-1948D01*
X2320Y-1949D01*
X2331Y-1949D01*
X2371Y-1949D01*
X2371Y-2125D01*
X2371Y-2127D01*
X2371Y-2128D01*
X2372Y-2135D01*
X2372Y-2143D01*
X2373Y-2144D01*
X2373Y-2146D01*
X2375Y-2153D01*
X2377Y-2160D01*
X2378Y-2161D01*
X2378Y-2163D01*
X2381Y-2169D01*
X2385Y-2176D01*
X2386Y-2177D01*
X2386Y-2178D01*
X2391Y-2184D01*
X2395Y-2190D01*
X2396Y-2191D01*
X2397Y-2192D01*
X2402Y-2197D01*
X2408Y-2202D01*
X2409Y-2203D01*
X2410Y-2204D01*
X2416Y-2208D01*
X2422Y-2212D01*
X2424Y-2213D01*
X2425Y-2214D01*
X2432Y-2216D01*
X2438Y-2219D01*
X2440Y-2219D01*
X2442Y-2220D01*
X2449Y-2222D01*
X2456Y-2223D01*
X2457Y-2223D01*
X2459Y-2224D01*
X2470Y-2224D01*
X2472Y-2224D01*
X2473Y-2224D01*
X2480Y-2223D01*
X2488Y-2223D01*
X2489Y-2222D01*
X2491Y-2222D01*
X2498Y-2220D01*
X2505Y-2218D01*
X2506Y-2217D01*
X2508Y-2217D01*
X2514Y-2213D01*
X2521Y-2210D01*
X2522Y-2209D01*
X2523Y-2209D01*
X2529Y-2204D01*
X2535Y-2200D01*
X2536Y-2199D01*
X2537Y-2198D01*
X2542Y-2193D01*
X2547Y-2187D01*
X2548Y-2186D01*
X2549Y-2185D01*
X2553Y-2179D01*
X2557Y-2173D01*
X2558Y-2171D01*
X2559Y-2170D01*
X2561Y-2163D01*
X2564Y-2157D01*
X2564Y-2155D01*
X2565Y-2153D01*
X2567Y-2146D01*
X2568Y-2139D01*
X2568Y-2138D01*
X2569Y-2136D01*
X2569Y-2125D01*
X2569Y-1949D01*
X2633Y-1949D01*
X2659Y-1956D01*
X2675Y-1965D01*
X2680Y-1968D01*
X2686Y-1971D01*
X2688Y-1972D01*
X2691Y-1973D01*
X2697Y-1974D01*
X2703Y-1976D01*
X2705Y-1977D01*
X2708Y-1977D01*
X2714Y-1978D01*
X2720Y-1978D01*
X2723Y-1978D01*
X2725Y-1979D01*
X2732Y-1978D01*
X2738Y-1978D01*
X2740Y-1977D01*
X2743Y-1977D01*
X2749Y-1975D01*
X2755Y-1974D01*
X2758Y-1973D01*
X2760Y-1972D01*
X2766Y-1969D01*
X2771Y-1967D01*
X2774Y-1965D01*
X2776Y-1964D01*
X2781Y-1960D01*
X2786Y-1957D01*
X2789Y-1955D01*
X2790Y-1954D01*
X2791Y-1952D01*
X2794Y-1949D01*
X2857Y-1887D01*
X2921Y-1860D01*
X2991Y-1860D01*
X3056Y-1887D01*
X3105Y-1937D01*
X3132Y-2001D01*
X3132Y-2071D01*
X3100Y-2148D01*
X3098Y-2155D01*
X3096Y-2161D01*
X3095Y-2163D01*
X3095Y-2165D01*
X3094Y-2172D01*
X3093Y-2179D01*
X3093Y-2181D01*
X3093Y-2183D01*
X3093Y-2189D01*
X3093Y-2196D01*
X3093Y-2198D01*
X3094Y-2200D01*
X3095Y-2207D01*
X3096Y-2214D01*
X3097Y-2216D01*
X3098Y-2217D01*
X3098Y-2219D01*
X3100Y-2224D01*
X3132Y-2301D01*
X3132Y-2371D01*
X3100Y-2448D01*
X3098Y-2455D01*
X3096Y-2461D01*
X3095Y-2463D01*
X3095Y-2465D01*
X3094Y-2472D01*
X3093Y-2479D01*
X3093Y-2481D01*
X3093Y-2483D01*
X3093Y-2489D01*
X3093Y-2496D01*
X3093Y-2498D01*
X3094Y-2500D01*
X3095Y-2507D01*
X3096Y-2514D01*
X3097Y-2516D01*
X3098Y-2517D01*
X3098Y-2519D01*
X3100Y-2524D01*
X3132Y-2601D01*
X3132Y-2671D01*
X3100Y-2748D01*
X3098Y-2755D01*
X3096Y-2761D01*
X3095Y-2763D01*
X3095Y-2765D01*
X3094Y-2772D01*
X3093Y-2779D01*
X3093Y-2781D01*
X3093Y-2783D01*
X3093Y-2789D01*
X3093Y-2796D01*
X3093Y-2798D01*
X3094Y-2800D01*
X3095Y-2807D01*
X3096Y-2814D01*
X3097Y-2816D01*
X3098Y-2817D01*
X3098Y-2819D01*
X3100Y-2824D01*
X3132Y-2901D01*
X3132Y-2971D01*
X3100Y-3048D01*
X3098Y-3055D01*
X3096Y-3061D01*
X3095Y-3063D01*
X3095Y-3065D01*
X3094Y-3072D01*
X3093Y-3079D01*
X3093Y-3081D01*
X3093Y-3083D01*
X3093Y-3089D01*
X3093Y-3096D01*
X3093Y-3098D01*
X3094Y-3100D01*
X3095Y-3107D01*
X3096Y-3114D01*
X3097Y-3116D01*
X3098Y-3117D01*
X3098Y-3119D01*
X3100Y-3124D01*
X3132Y-3201D01*
X3132Y-3271D01*
X3100Y-3348D01*
X3098Y-3355D01*
X3096Y-3361D01*
X3095Y-3363D01*
X3095Y-3365D01*
X3094Y-3372D01*
X3093Y-3379D01*
X3093Y-3381D01*
X3093Y-3383D01*
X3093Y-3389D01*
X3093Y-3396D01*
X3093Y-3398D01*
X3094Y-3400D01*
X3095Y-3407D01*
X3096Y-3414D01*
X3097Y-3416D01*
X3098Y-3417D01*
X3098Y-3419D01*
X3100Y-3424D01*
X3132Y-3501D01*
X3132Y-3571D01*
X3100Y-3648D01*
X3098Y-3655D01*
X3096Y-3661D01*
X3095Y-3663D01*
X3095Y-3665D01*
X3094Y-3672D01*
X3093Y-3679D01*
X3093Y-3681D01*
X3093Y-3683D01*
X3093Y-3689D01*
X3093Y-3696D01*
X3093Y-3698D01*
X3094Y-3700D01*
X3095Y-3707D01*
X3096Y-3714D01*
X3097Y-3716D01*
X3098Y-3717D01*
X3098Y-3719D01*
X3100Y-3724D01*
X3132Y-3801D01*
X3132Y-3871D01*
X3100Y-3948D01*
X3098Y-3955D01*
X3096Y-3961D01*
X3095Y-3963D01*
X3095Y-3965D01*
X3094Y-3972D01*
X3093Y-3979D01*
X3093Y-3981D01*
X3093Y-3983D01*
X3093Y-3989D01*
X3093Y-3996D01*
X3093Y-3998D01*
X3094Y-4000D01*
X3095Y-4007D01*
X3096Y-4014D01*
X3097Y-4016D01*
X3098Y-4017D01*
X3098Y-4019D01*
X3100Y-4024D01*
X3132Y-4101D01*
X3132Y-4171D01*
X3100Y-4248D01*
X3098Y-4255D01*
X3096Y-4261D01*
X3095Y-4263D01*
X3095Y-4265D01*
X3094Y-4272D01*
X3093Y-4279D01*
X3093Y-4281D01*
X3093Y-4283D01*
X3093Y-4289D01*
X3093Y-4296D01*
X3093Y-4298D01*
X3094Y-4300D01*
X3095Y-4307D01*
X3096Y-4314D01*
X3097Y-4316D01*
X3098Y-4317D01*
X3098Y-4319D01*
X3100Y-4324D01*
X3132Y-4401D01*
X3132Y-4471D01*
X3100Y-4548D01*
X3098Y-4555D01*
X3096Y-4561D01*
X3095Y-4563D01*
X3095Y-4565D01*
X3094Y-4572D01*
X3093Y-4579D01*
X3093Y-4581D01*
X3093Y-4583D01*
X3093Y-4589D01*
X3093Y-4596D01*
X3093Y-4598D01*
X3094Y-4600D01*
X3095Y-4607D01*
X3096Y-4614D01*
X3097Y-4616D01*
X3098Y-4617D01*
X3098Y-4619D01*
X3100Y-4624D01*
X3132Y-4701D01*
X3132Y-4771D01*
X3100Y-4848D01*
X3098Y-4855D01*
X3096Y-4861D01*
X3095Y-4863D01*
X3095Y-4865D01*
X3094Y-4872D01*
X3093Y-4879D01*
X3093Y-4881D01*
X3093Y-4883D01*
X3093Y-4889D01*
X3093Y-4896D01*
X3093Y-4898D01*
X3094Y-4900D01*
X3095Y-4907D01*
X3096Y-4914D01*
X3097Y-4916D01*
X3098Y-4917D01*
X3098Y-4919D01*
X3100Y-4924D01*
X3132Y-5001D01*
X3132Y-5071D01*
X3100Y-5148D01*
X3098Y-5155D01*
X3096Y-5161D01*
X3095Y-5163D01*
X3095Y-5165D01*
X3094Y-5172D01*
X3093Y-5179D01*
X3093Y-5181D01*
X3093Y-5183D01*
X3093Y-5189D01*
X3093Y-5196D01*
X3093Y-5198D01*
X3094Y-5200D01*
X3095Y-5207D01*
X3096Y-5214D01*
X3097Y-5216D01*
X3098Y-5217D01*
X3098Y-5219D01*
X3100Y-5224D01*
X3132Y-5301D01*
X3132Y-5371D01*
X3100Y-5448D01*
X3098Y-5455D01*
X3096Y-5461D01*
X3095Y-5463D01*
X3095Y-5465D01*
X3094Y-5472D01*
X3093Y-5479D01*
X3093Y-5481D01*
X3093Y-5483D01*
X3093Y-5489D01*
X3093Y-5496D01*
X3093Y-5498D01*
X3094Y-5500D01*
X3095Y-5507D01*
X3096Y-5514D01*
X3097Y-5516D01*
X3098Y-5517D01*
X3098Y-5519D01*
X3100Y-5524D01*
X3132Y-5601D01*
X3132Y-5671D01*
X3100Y-5748D01*
X3098Y-5755D01*
X3096Y-5761D01*
X3095Y-5763D01*
X3095Y-5765D01*
X3094Y-5772D01*
X3093Y-5779D01*
X3093Y-5781D01*
X3093Y-5783D01*
X3093Y-5789D01*
X3093Y-5796D01*
X3093Y-5798D01*
X3094Y-5800D01*
X3095Y-5807D01*
X3096Y-5814D01*
X3097Y-5816D01*
X3098Y-5817D01*
X3098Y-5819D01*
X3100Y-5824D01*
X3132Y-5901D01*
X3132Y-5971D01*
X3100Y-6048D01*
X3098Y-6055D01*
X3096Y-6061D01*
X3095Y-6063D01*
X3095Y-6065D01*
X3094Y-6072D01*
X3093Y-6079D01*
X3093Y-6081D01*
X3093Y-6083D01*
X3093Y-6089D01*
X3093Y-6096D01*
X3093Y-6098D01*
X3094Y-6100D01*
X3095Y-6107D01*
X3096Y-6114D01*
X3097Y-6116D01*
X3098Y-6117D01*
X3098Y-6119D01*
X3100Y-6124D01*
X3132Y-6201D01*
X3132Y-6271D01*
X3100Y-6348D01*
X3098Y-6355D01*
X3096Y-6361D01*
X3095Y-6363D01*
X3095Y-6365D01*
X3094Y-6372D01*
X3093Y-6379D01*
X3093Y-6381D01*
X3093Y-6383D01*
X3093Y-6389D01*
X3093Y-6396D01*
X3093Y-6398D01*
X3094Y-6400D01*
X3095Y-6407D01*
X3096Y-6414D01*
X3097Y-6416D01*
X3098Y-6417D01*
X3098Y-6419D01*
X3100Y-6424D01*
X3132Y-6501D01*
X3132Y-6571D01*
X3105Y-6636D01*
X3056Y-6685D01*
X2991Y-6712D01*
X2921Y-6712D01*
X2857Y-6685D01*
X2813Y-6642D01*
X2811Y-6640D01*
X2808Y-6637D01*
X2804Y-6634D01*
X2800Y-6631D01*
X2797Y-6629D01*
X2794Y-6627D01*
X2789Y-6625D01*
X2785Y-6622D01*
X2781Y-6621D01*
X2778Y-6619D01*
X2773Y-6618D01*
X2768Y-6616D01*
X2764Y-6615D01*
X2761Y-6615D01*
X2756Y-6614D01*
X2750Y-6613D01*
X2747Y-6613D01*
X2744Y-6613D01*
X2738Y-6613D01*
X2733Y-6613D01*
X2729Y-6614D01*
X2726Y-6614D01*
X2721Y-6616D01*
X2715Y-6617D01*
X2712Y-6618D01*
X2709Y-6619D01*
X2704Y-6621D01*
X2699Y-6623D01*
X2696Y-6625D01*
X2693Y-6627D01*
X2689Y-6630D01*
X2684Y-6633D01*
X2681Y-6635D01*
X2679Y-6637D01*
X2675Y-6641D01*
X2671Y-6644D01*
X2669Y-6647D01*
X2666Y-6649D01*
X2663Y-6654D01*
X2660Y-6658D01*
X2658Y-6661D01*
X2656Y-6664D01*
X2652Y-6673D01*
X2652Y-6674D01*
X2618Y-6756D01*
X2568Y-6805D01*
X2504Y-6832D01*
X2434Y-6832D01*
X2369Y-6805D01*
X2320Y-6756D01*
X2293Y-6691D01*
X2293Y-6650D01*
X2293Y-6648D01*
X2293Y-6647D01*
X2292Y-6640D01*
X2291Y-6632D01*
X2291Y-6631D01*
X2291Y-6629D01*
X2289Y-6622D01*
X2287Y-6615D01*
X2286Y-6614D01*
X2286Y-6612D01*
X2282Y-6606D01*
X2279Y-6599D01*
X2278Y-6598D01*
X2277Y-6597D01*
X2273Y-6591D01*
X2269Y-6585D01*
X2268Y-6584D01*
X2267Y-6583D01*
X2261Y-6578D01*
X2256Y-6573D01*
X2255Y-6572D01*
X2254Y-6571D01*
X2247Y-6567D01*
X2241Y-6563D01*
X2240Y-6562D01*
X2239Y-6561D01*
X2232Y-6559D01*
X2225Y-6556D01*
X2224Y-6556D01*
X2222Y-6555D01*
X2215Y-6553D01*
X2208Y-6552D01*
X2206Y-6552D01*
X2205Y-6551D01*
X2194Y-6551D01*
X2169Y-6551D01*
X2169Y-6375D01*
X2169Y-6373D01*
X2169Y-6372D01*
X2168Y-6365D01*
X2168Y-6357D01*
X2167Y-6356D01*
X2167Y-6354D01*
X2165Y-6347D01*
X2163Y-6340D01*
X2162Y-6339D01*
X2162Y-6337D01*
X2159Y-6331D01*
X2155Y-6324D01*
X2154Y-6323D01*
X2154Y-6322D01*
X2149Y-6316D01*
X2145Y-6310D01*
X2144Y-6309D01*
X2143Y-6308D01*
X2138Y-6303D01*
X2132Y-6298D01*
X2131Y-6297D01*
X2130Y-6296D01*
X2124Y-6292D01*
X2118Y-6288D01*
X2116Y-6287D01*
X2115Y-6286D01*
X2108Y-6284D01*
X2102Y-6281D01*
X2100Y-6281D01*
X2098Y-6280D01*
X2091Y-6278D01*
X2084Y-6277D01*
X2083Y-6277D01*
X2081Y-6276D01*
X2070Y-6276D01*
X2068Y-6276D01*
X2067Y-6276D01*
X2060Y-6277D01*
X2052Y-6277D01*
X2051Y-6278D01*
X2049Y-6278D01*
X2042Y-6280D01*
X2035Y-6282D01*
X2034Y-6283D01*
X2032Y-6283D01*
X2026Y-6287D01*
X2019Y-6290D01*
X2018Y-6291D01*
X2017Y-6291D01*
X2011Y-6296D01*
X2005Y-6300D01*
X2004Y-6301D01*
X2003Y-6302D01*
X1998Y-6307D01*
X1993Y-6313D01*
X1992Y-6314D01*
X1991Y-6315D01*
X1987Y-6321D01*
X1983Y-6327D01*
X1982Y-6329D01*
X1981Y-6330D01*
X1979Y-6337D01*
X1976Y-6343D01*
X1976Y-6345D01*
X1975Y-6347D01*
X1973Y-6354D01*
X1972Y-6361D01*
X1972Y-6362D01*
X1971Y-6364D01*
X1971Y-6375D01*
X1971Y-6551D01*
X1907Y-6551D01*
X1881Y-6544D01*
X1858Y-6531D01*
X1839Y-6512D01*
X1826Y-6489D01*
X1817Y-6457D01*
X1817Y-6456D01*
X1817Y-6455D01*
X1814Y-6447D01*
X1811Y-6440D01*
X1811Y-6439D01*
X1810Y-6438D01*
X1806Y-6432D01*
X1803Y-6425D01*
X1802Y-6424D01*
X1801Y-6423D01*
X1796Y-6417D01*
X1791Y-6411D01*
X1790Y-6411D01*
X1789Y-6410D01*
X1783Y-6405D01*
X1777Y-6400D01*
X1776Y-6400D01*
X1776Y-6399D01*
X1769Y-6395D01*
X1762Y-6392D01*
X1761Y-6391D01*
X1760Y-6391D01*
X1753Y-6388D01*
X1745Y-6386D01*
X1744Y-6386D01*
X1743Y-6385D01*
X1735Y-6385D01*
X1728Y-6383D01*
X1727Y-6383D01*
X1726Y-6383D01*
X1718Y-6384D01*
X1710Y-6384D01*
X1709Y-6384D01*
X1708Y-6384D01*
X1700Y-6386D01*
X1693Y-6387D01*
X1692Y-6388D01*
X1691Y-6388D01*
X1684Y-6391D01*
X1676Y-6394D01*
X1675Y-6395D01*
X1674Y-6395D01*
X1668Y-6399D01*
X1661Y-6403D01*
X1661Y-6404D01*
X1660Y-6405D01*
X1651Y-6412D01*
X1584Y-6480D01*
X1579Y-6485D01*
X1575Y-6490D01*
X1574Y-6492D01*
X1572Y-6494D01*
X1569Y-6500D01*
X1565Y-6505D01*
X1564Y-6507D01*
X1563Y-6509D01*
X1561Y-6515D01*
X1559Y-6522D01*
X1558Y-6524D01*
X1558Y-6526D01*
X1556Y-6532D01*
X1555Y-6539D01*
X1555Y-6542D01*
X1555Y-6543D01*
X1555Y-6545D01*
X1554Y-6550D01*
X1554Y-7776D01*
X1356Y-7974D01*
X1169Y-7974D01*
X1162Y-7975D01*
X1156Y-7975D01*
X1154Y-7976D01*
X1152Y-7976D01*
X1145Y-7978D01*
X1138Y-7979D01*
X1137Y-7980D01*
X1135Y-7981D01*
X1128Y-7984D01*
X1122Y-7986D01*
X1120Y-7987D01*
X1119Y-7988D01*
X1113Y-7992D01*
X1107Y-7996D01*
X1105Y-7998D01*
X1104Y-7999D01*
X1103Y-8000D01*
X1099Y-8004D01*
X1063Y-8039D01*
X999Y-8066D01*
X929Y-8066D01*
G37*
%LPD*%
%LPC*%
G36*
X-1279Y-7262D02*
X-1279Y-7262D01*
X-1344Y-7236D01*
X-1393Y-7186D01*
X-1420Y-7122D01*
X-1420Y-7052D01*
X-1393Y-6987D01*
X-1341Y-6935D01*
X-1339Y-6934D01*
X-1335Y-6931D01*
X-1330Y-6928D01*
X-1328Y-6925D01*
X-1325Y-6923D01*
X-1321Y-6919D01*
X-1318Y-6916D01*
X-1315Y-6913D01*
X-1313Y-6910D01*
X-1310Y-6905D01*
X-1307Y-6901D01*
X-1306Y-6898D01*
X-1304Y-6895D01*
X-1302Y-6890D01*
X-1300Y-6885D01*
X-1299Y-6882D01*
X-1297Y-6879D01*
X-1296Y-6873D01*
X-1295Y-6868D01*
X-1294Y-6865D01*
X-1294Y-6861D01*
X-1294Y-6856D01*
X-1293Y-6851D01*
X-1293Y-6847D01*
X-1293Y-6844D01*
X-1294Y-6838D01*
X-1295Y-6833D01*
X-1296Y-6830D01*
X-1296Y-6826D01*
X-1298Y-6821D01*
X-1299Y-6816D01*
X-1301Y-6813D01*
X-1302Y-6809D01*
X-1305Y-6805D01*
X-1307Y-6800D01*
X-1309Y-6797D01*
X-1311Y-6794D01*
X-1314Y-6790D01*
X-1317Y-6786D01*
X-1320Y-6783D01*
X-1322Y-6780D01*
X-1326Y-6777D01*
X-1330Y-6773D01*
X-1333Y-6771D01*
X-1336Y-6769D01*
X-1340Y-6766D01*
X-1341Y-6766D01*
X-1393Y-6714D01*
X-1420Y-6649D01*
X-1420Y-6579D01*
X-1393Y-6515D01*
X-1341Y-6463D01*
X-1339Y-6461D01*
X-1335Y-6458D01*
X-1330Y-6455D01*
X-1328Y-6453D01*
X-1325Y-6451D01*
X-1321Y-6447D01*
X-1318Y-6443D01*
X-1315Y-6440D01*
X-1313Y-6438D01*
X-1310Y-6433D01*
X-1307Y-6429D01*
X-1306Y-6426D01*
X-1304Y-6422D01*
X-1302Y-6418D01*
X-1300Y-6413D01*
X-1299Y-6409D01*
X-1297Y-6406D01*
X-1296Y-6401D01*
X-1295Y-6396D01*
X-1294Y-6392D01*
X-1294Y-6389D01*
X-1294Y-6384D01*
X-1293Y-6378D01*
X-1293Y-6375D01*
X-1293Y-6371D01*
X-1294Y-6366D01*
X-1295Y-6361D01*
X-1296Y-6357D01*
X-1296Y-6354D01*
X-1298Y-6349D01*
X-1299Y-6344D01*
X-1301Y-6340D01*
X-1302Y-6337D01*
X-1305Y-6332D01*
X-1307Y-6328D01*
X-1309Y-6325D01*
X-1311Y-6322D01*
X-1314Y-6318D01*
X-1317Y-6313D01*
X-1320Y-6311D01*
X-1322Y-6308D01*
X-1326Y-6305D01*
X-1330Y-6301D01*
X-1333Y-6299D01*
X-1336Y-6297D01*
X-1340Y-6294D01*
X-1341Y-6293D01*
X-1393Y-6241D01*
X-1420Y-6177D01*
X-1420Y-6107D01*
X-1393Y-6042D01*
X-1341Y-5990D01*
X-1339Y-5989D01*
X-1335Y-5986D01*
X-1330Y-5983D01*
X-1328Y-5980D01*
X-1325Y-5978D01*
X-1321Y-5974D01*
X-1318Y-5971D01*
X-1315Y-5968D01*
X-1313Y-5965D01*
X-1310Y-5961D01*
X-1307Y-5956D01*
X-1306Y-5953D01*
X-1304Y-5950D01*
X-1302Y-5945D01*
X-1300Y-5940D01*
X-1299Y-5937D01*
X-1297Y-5934D01*
X-1296Y-5928D01*
X-1295Y-5923D01*
X-1294Y-5920D01*
X-1294Y-5916D01*
X-1294Y-5911D01*
X-1293Y-5906D01*
X-1293Y-5902D01*
X-1293Y-5899D01*
X-1294Y-5893D01*
X-1295Y-5888D01*
X-1296Y-5885D01*
X-1296Y-5881D01*
X-1298Y-5876D01*
X-1299Y-5871D01*
X-1301Y-5868D01*
X-1302Y-5865D01*
X-1305Y-5860D01*
X-1307Y-5855D01*
X-1309Y-5852D01*
X-1311Y-5849D01*
X-1314Y-5845D01*
X-1317Y-5841D01*
X-1320Y-5838D01*
X-1322Y-5836D01*
X-1326Y-5832D01*
X-1330Y-5829D01*
X-1333Y-5827D01*
X-1336Y-5824D01*
X-1340Y-5822D01*
X-1341Y-5821D01*
X-1393Y-5769D01*
X-1420Y-5704D01*
X-1420Y-5634D01*
X-1393Y-5570D01*
X-1341Y-5518D01*
X-1339Y-5517D01*
X-1335Y-5513D01*
X-1330Y-5510D01*
X-1328Y-5508D01*
X-1325Y-5506D01*
X-1321Y-5502D01*
X-1318Y-5498D01*
X-1315Y-5495D01*
X-1313Y-5493D01*
X-1310Y-5488D01*
X-1307Y-5484D01*
X-1306Y-5481D01*
X-1304Y-5478D01*
X-1302Y-5473D01*
X-1300Y-5468D01*
X-1299Y-5465D01*
X-1297Y-5461D01*
X-1296Y-5456D01*
X-1295Y-5451D01*
X-1294Y-5447D01*
X-1294Y-5444D01*
X-1294Y-5439D01*
X-1293Y-5433D01*
X-1293Y-5430D01*
X-1293Y-5426D01*
X-1294Y-5421D01*
X-1295Y-5416D01*
X-1296Y-5412D01*
X-1296Y-5409D01*
X-1298Y-5404D01*
X-1299Y-5399D01*
X-1301Y-5395D01*
X-1302Y-5392D01*
X-1305Y-5388D01*
X-1307Y-5383D01*
X-1309Y-5380D01*
X-1311Y-5377D01*
X-1314Y-5373D01*
X-1317Y-5368D01*
X-1320Y-5366D01*
X-1322Y-5363D01*
X-1326Y-5360D01*
X-1330Y-5356D01*
X-1333Y-5354D01*
X-1336Y-5352D01*
X-1340Y-5349D01*
X-1341Y-5349D01*
X-1393Y-5296D01*
X-1420Y-5232D01*
X-1420Y-5162D01*
X-1393Y-5097D01*
X-1341Y-5045D01*
X-1339Y-5044D01*
X-1335Y-5041D01*
X-1330Y-5038D01*
X-1328Y-5036D01*
X-1325Y-5033D01*
X-1321Y-5029D01*
X-1318Y-5026D01*
X-1315Y-5023D01*
X-1313Y-5020D01*
X-1310Y-5016D01*
X-1307Y-5011D01*
X-1306Y-5008D01*
X-1304Y-5005D01*
X-1302Y-5000D01*
X-1300Y-4996D01*
X-1299Y-4992D01*
X-1297Y-4989D01*
X-1296Y-4984D01*
X-1295Y-4979D01*
X-1294Y-4975D01*
X-1294Y-4971D01*
X-1294Y-4966D01*
X-1293Y-4961D01*
X-1293Y-4957D01*
X-1293Y-4954D01*
X-1294Y-4949D01*
X-1295Y-4943D01*
X-1296Y-4940D01*
X-1296Y-4936D01*
X-1298Y-4931D01*
X-1299Y-4926D01*
X-1301Y-4923D01*
X-1302Y-4920D01*
X-1305Y-4915D01*
X-1307Y-4910D01*
X-1309Y-4907D01*
X-1311Y-4904D01*
X-1314Y-4900D01*
X-1317Y-4896D01*
X-1320Y-4893D01*
X-1322Y-4891D01*
X-1326Y-4887D01*
X-1330Y-4884D01*
X-1333Y-4882D01*
X-1336Y-4879D01*
X-1340Y-4877D01*
X-1341Y-4876D01*
X-1393Y-4824D01*
X-1420Y-4759D01*
X-1420Y-4689D01*
X-1393Y-4625D01*
X-1341Y-4573D01*
X-1339Y-4572D01*
X-1335Y-4568D01*
X-1330Y-4566D01*
X-1328Y-4563D01*
X-1325Y-4561D01*
X-1321Y-4557D01*
X-1318Y-4553D01*
X-1315Y-4550D01*
X-1313Y-4548D01*
X-1310Y-4543D01*
X-1307Y-4539D01*
X-1306Y-4536D01*
X-1304Y-4533D01*
X-1302Y-4528D01*
X-1300Y-4523D01*
X-1299Y-4520D01*
X-1297Y-4516D01*
X-1296Y-4511D01*
X-1295Y-4506D01*
X-1294Y-4503D01*
X-1294Y-4499D01*
X-1294Y-4494D01*
X-1293Y-4489D01*
X-1293Y-4485D01*
X-1293Y-4481D01*
X-1294Y-4476D01*
X-1295Y-4471D01*
X-1296Y-4467D01*
X-1296Y-4464D01*
X-1298Y-4459D01*
X-1299Y-4454D01*
X-1301Y-4451D01*
X-1302Y-4447D01*
X-1305Y-4443D01*
X-1307Y-4438D01*
X-1309Y-4435D01*
X-1311Y-4432D01*
X-1314Y-4428D01*
X-1317Y-4424D01*
X-1320Y-4421D01*
X-1322Y-4418D01*
X-1326Y-4415D01*
X-1330Y-4411D01*
X-1333Y-4409D01*
X-1336Y-4407D01*
X-1340Y-4404D01*
X-1341Y-4404D01*
X-1393Y-4352D01*
X-1420Y-4287D01*
X-1420Y-4217D01*
X-1393Y-4152D01*
X-1341Y-4101D01*
X-1339Y-4099D01*
X-1335Y-4096D01*
X-1330Y-4093D01*
X-1328Y-4091D01*
X-1325Y-4088D01*
X-1321Y-4085D01*
X-1318Y-4081D01*
X-1315Y-4078D01*
X-1313Y-4075D01*
X-1310Y-4071D01*
X-1307Y-4067D01*
X-1306Y-4063D01*
X-1304Y-4060D01*
X-1302Y-4055D01*
X-1300Y-4051D01*
X-1299Y-4047D01*
X-1297Y-4044D01*
X-1296Y-4039D01*
X-1295Y-4034D01*
X-1294Y-4030D01*
X-1294Y-4027D01*
X-1294Y-4021D01*
X-1293Y-4016D01*
X-1293Y-4012D01*
X-1293Y-4009D01*
X-1294Y-4004D01*
X-1295Y-3998D01*
X-1296Y-3995D01*
X-1296Y-3991D01*
X-1298Y-3987D01*
X-1299Y-3981D01*
X-1301Y-3978D01*
X-1302Y-3975D01*
X-1305Y-3970D01*
X-1307Y-3965D01*
X-1309Y-3963D01*
X-1311Y-3959D01*
X-1314Y-3955D01*
X-1317Y-3951D01*
X-1320Y-3949D01*
X-1322Y-3946D01*
X-1326Y-3942D01*
X-1330Y-3939D01*
X-1333Y-3937D01*
X-1336Y-3934D01*
X-1340Y-3932D01*
X-1341Y-3931D01*
X-1393Y-3879D01*
X-1420Y-3814D01*
X-1420Y-3745D01*
X-1393Y-3680D01*
X-1341Y-3628D01*
X-1339Y-3627D01*
X-1335Y-3624D01*
X-1330Y-3621D01*
X-1328Y-3618D01*
X-1325Y-3616D01*
X-1321Y-3612D01*
X-1318Y-3608D01*
X-1315Y-3606D01*
X-1313Y-3603D01*
X-1310Y-3598D01*
X-1307Y-3594D01*
X-1306Y-3591D01*
X-1304Y-3588D01*
X-1302Y-3583D01*
X-1300Y-3578D01*
X-1299Y-3575D01*
X-1297Y-3571D01*
X-1296Y-3566D01*
X-1295Y-3561D01*
X-1294Y-3558D01*
X-1294Y-3554D01*
X-1294Y-3549D01*
X-1293Y-3544D01*
X-1293Y-3540D01*
X-1293Y-3536D01*
X-1294Y-3531D01*
X-1295Y-3526D01*
X-1296Y-3523D01*
X-1296Y-3519D01*
X-1298Y-3514D01*
X-1299Y-3509D01*
X-1301Y-3506D01*
X-1302Y-3502D01*
X-1305Y-3498D01*
X-1307Y-3493D01*
X-1309Y-3490D01*
X-1311Y-3487D01*
X-1314Y-3483D01*
X-1317Y-3479D01*
X-1320Y-3476D01*
X-1322Y-3473D01*
X-1326Y-3470D01*
X-1330Y-3466D01*
X-1333Y-3464D01*
X-1336Y-3462D01*
X-1340Y-3459D01*
X-1341Y-3459D01*
X-1393Y-3407D01*
X-1420Y-3342D01*
X-1420Y-3272D01*
X-1393Y-3208D01*
X-1341Y-3156D01*
X-1339Y-3154D01*
X-1335Y-3151D01*
X-1330Y-3148D01*
X-1328Y-3146D01*
X-1325Y-3144D01*
X-1321Y-3140D01*
X-1318Y-3136D01*
X-1315Y-3133D01*
X-1313Y-3130D01*
X-1310Y-3126D01*
X-1307Y-3122D01*
X-1306Y-3118D01*
X-1304Y-3115D01*
X-1302Y-3111D01*
X-1300Y-3106D01*
X-1299Y-3102D01*
X-1297Y-3099D01*
X-1296Y-3094D01*
X-1295Y-3089D01*
X-1294Y-3085D01*
X-1294Y-3082D01*
X-1294Y-3076D01*
X-1293Y-3071D01*
X-1293Y-3068D01*
X-1293Y-3064D01*
X-1294Y-3059D01*
X-1295Y-3054D01*
X-1296Y-3050D01*
X-1296Y-3047D01*
X-1298Y-3042D01*
X-1299Y-3037D01*
X-1301Y-3033D01*
X-1302Y-3030D01*
X-1305Y-3025D01*
X-1307Y-3021D01*
X-1309Y-3018D01*
X-1311Y-3015D01*
X-1314Y-3010D01*
X-1317Y-3006D01*
X-1320Y-3004D01*
X-1322Y-3001D01*
X-1326Y-2998D01*
X-1330Y-2994D01*
X-1333Y-2992D01*
X-1336Y-2990D01*
X-1340Y-2987D01*
X-1341Y-2986D01*
X-1393Y-2934D01*
X-1420Y-2870D01*
X-1420Y-2800D01*
X-1393Y-2735D01*
X-1341Y-2683D01*
X-1339Y-2682D01*
X-1335Y-2679D01*
X-1330Y-2676D01*
X-1328Y-2673D01*
X-1325Y-2671D01*
X-1321Y-2667D01*
X-1318Y-2664D01*
X-1315Y-2661D01*
X-1313Y-2658D01*
X-1310Y-2654D01*
X-1307Y-2649D01*
X-1306Y-2646D01*
X-1304Y-2643D01*
X-1302Y-2638D01*
X-1300Y-2633D01*
X-1299Y-2630D01*
X-1297Y-2627D01*
X-1296Y-2621D01*
X-1295Y-2616D01*
X-1294Y-2613D01*
X-1294Y-2609D01*
X-1294Y-2604D01*
X-1293Y-2599D01*
X-1293Y-2595D01*
X-1293Y-2592D01*
X-1294Y-2586D01*
X-1295Y-2581D01*
X-1296Y-2578D01*
X-1296Y-2574D01*
X-1298Y-2569D01*
X-1299Y-2564D01*
X-1301Y-2561D01*
X-1302Y-2557D01*
X-1305Y-2553D01*
X-1307Y-2548D01*
X-1309Y-2545D01*
X-1311Y-2542D01*
X-1314Y-2538D01*
X-1317Y-2534D01*
X-1320Y-2531D01*
X-1322Y-2528D01*
X-1326Y-2525D01*
X-1330Y-2521D01*
X-1333Y-2519D01*
X-1336Y-2517D01*
X-1340Y-2514D01*
X-1341Y-2514D01*
X-1393Y-2462D01*
X-1420Y-2397D01*
X-1420Y-2327D01*
X-1393Y-2263D01*
X-1341Y-2211D01*
X-1339Y-2210D01*
X-1335Y-2206D01*
X-1330Y-2203D01*
X-1328Y-2201D01*
X-1325Y-2199D01*
X-1321Y-2195D01*
X-1318Y-2191D01*
X-1315Y-2188D01*
X-1313Y-2186D01*
X-1310Y-2181D01*
X-1307Y-2177D01*
X-1306Y-2174D01*
X-1304Y-2171D01*
X-1302Y-2166D01*
X-1300Y-2161D01*
X-1299Y-2157D01*
X-1297Y-2154D01*
X-1296Y-2149D01*
X-1295Y-2144D01*
X-1294Y-2140D01*
X-1294Y-2137D01*
X-1294Y-2132D01*
X-1293Y-2126D01*
X-1293Y-2123D01*
X-1293Y-2119D01*
X-1294Y-2114D01*
X-1295Y-2109D01*
X-1296Y-2105D01*
X-1296Y-2102D01*
X-1298Y-2097D01*
X-1299Y-2092D01*
X-1301Y-2088D01*
X-1302Y-2085D01*
X-1305Y-2080D01*
X-1307Y-2076D01*
X-1309Y-2073D01*
X-1311Y-2070D01*
X-1314Y-2066D01*
X-1317Y-2061D01*
X-1320Y-2059D01*
X-1322Y-2056D01*
X-1326Y-2053D01*
X-1330Y-2049D01*
X-1333Y-2047D01*
X-1336Y-2045D01*
X-1340Y-2042D01*
X-1341Y-2041D01*
X-1393Y-1989D01*
X-1420Y-1925D01*
X-1420Y-1855D01*
X-1393Y-1790D01*
X-1341Y-1738D01*
X-1339Y-1737D01*
X-1335Y-1734D01*
X-1330Y-1731D01*
X-1328Y-1728D01*
X-1325Y-1726D01*
X-1321Y-1722D01*
X-1318Y-1719D01*
X-1315Y-1716D01*
X-1313Y-1713D01*
X-1310Y-1709D01*
X-1307Y-1704D01*
X-1306Y-1701D01*
X-1304Y-1698D01*
X-1302Y-1693D01*
X-1300Y-1688D01*
X-1299Y-1685D01*
X-1297Y-1682D01*
X-1296Y-1677D01*
X-1295Y-1671D01*
X-1294Y-1668D01*
X-1294Y-1664D01*
X-1294Y-1659D01*
X-1293Y-1654D01*
X-1293Y-1650D01*
X-1293Y-1647D01*
X-1294Y-1642D01*
X-1295Y-1636D01*
X-1296Y-1633D01*
X-1296Y-1629D01*
X-1298Y-1624D01*
X-1299Y-1619D01*
X-1301Y-1616D01*
X-1302Y-1613D01*
X-1305Y-1608D01*
X-1307Y-1603D01*
X-1309Y-1600D01*
X-1311Y-1597D01*
X-1314Y-1593D01*
X-1317Y-1589D01*
X-1320Y-1586D01*
X-1322Y-1584D01*
X-1326Y-1580D01*
X-1330Y-1577D01*
X-1333Y-1575D01*
X-1336Y-1572D01*
X-1340Y-1570D01*
X-1341Y-1569D01*
X-1393Y-1517D01*
X-1420Y-1452D01*
X-1420Y-1382D01*
X-1393Y-1318D01*
X-1341Y-1266D01*
X-1339Y-1265D01*
X-1335Y-1261D01*
X-1330Y-1258D01*
X-1328Y-1256D01*
X-1325Y-1254D01*
X-1321Y-1250D01*
X-1318Y-1246D01*
X-1315Y-1243D01*
X-1313Y-1241D01*
X-1310Y-1236D01*
X-1307Y-1232D01*
X-1306Y-1229D01*
X-1304Y-1226D01*
X-1302Y-1221D01*
X-1300Y-1216D01*
X-1299Y-1213D01*
X-1297Y-1209D01*
X-1296Y-1204D01*
X-1295Y-1199D01*
X-1294Y-1195D01*
X-1294Y-1192D01*
X-1294Y-1187D01*
X-1293Y-1181D01*
X-1293Y-1178D01*
X-1293Y-1174D01*
X-1294Y-1169D01*
X-1295Y-1164D01*
X-1296Y-1160D01*
X-1296Y-1157D01*
X-1298Y-1152D01*
X-1299Y-1147D01*
X-1301Y-1144D01*
X-1302Y-1140D01*
X-1305Y-1136D01*
X-1307Y-1131D01*
X-1309Y-1128D01*
X-1311Y-1125D01*
X-1314Y-1121D01*
X-1317Y-1116D01*
X-1320Y-1114D01*
X-1322Y-1111D01*
X-1326Y-1108D01*
X-1330Y-1104D01*
X-1333Y-1102D01*
X-1336Y-1100D01*
X-1340Y-1097D01*
X-1341Y-1097D01*
X-1393Y-1044D01*
X-1420Y-980D01*
X-1420Y-910D01*
X-1393Y-845D01*
X-1341Y-793D01*
X-1339Y-792D01*
X-1335Y-789D01*
X-1330Y-786D01*
X-1328Y-784D01*
X-1325Y-781D01*
X-1321Y-777D01*
X-1318Y-774D01*
X-1315Y-771D01*
X-1313Y-768D01*
X-1310Y-764D01*
X-1307Y-760D01*
X-1306Y-756D01*
X-1304Y-753D01*
X-1302Y-748D01*
X-1300Y-744D01*
X-1299Y-740D01*
X-1297Y-737D01*
X-1296Y-732D01*
X-1295Y-727D01*
X-1294Y-723D01*
X-1294Y-719D01*
X-1294Y-714D01*
X-1293Y-709D01*
X-1293Y-705D01*
X-1293Y-702D01*
X-1294Y-697D01*
X-1295Y-691D01*
X-1296Y-688D01*
X-1296Y-684D01*
X-1298Y-679D01*
X-1299Y-674D01*
X-1301Y-671D01*
X-1302Y-668D01*
X-1305Y-663D01*
X-1307Y-658D01*
X-1309Y-655D01*
X-1311Y-652D01*
X-1314Y-648D01*
X-1317Y-644D01*
X-1320Y-641D01*
X-1322Y-639D01*
X-1326Y-635D01*
X-1330Y-632D01*
X-1333Y-630D01*
X-1336Y-627D01*
X-1340Y-625D01*
X-1341Y-624D01*
X-1393Y-572D01*
X-1420Y-507D01*
X-1420Y-437D01*
X-1393Y-373D01*
X-1341Y-321D01*
X-1339Y-320D01*
X-1335Y-317D01*
X-1330Y-314D01*
X-1328Y-311D01*
X-1325Y-309D01*
X-1321Y-305D01*
X-1318Y-301D01*
X-1315Y-298D01*
X-1313Y-296D01*
X-1310Y-291D01*
X-1307Y-287D01*
X-1306Y-284D01*
X-1304Y-281D01*
X-1302Y-276D01*
X-1300Y-271D01*
X-1299Y-268D01*
X-1297Y-264D01*
X-1296Y-259D01*
X-1295Y-254D01*
X-1294Y-251D01*
X-1294Y-247D01*
X-1294Y-242D01*
X-1293Y-237D01*
X-1293Y-233D01*
X-1293Y-229D01*
X-1294Y-224D01*
X-1295Y-219D01*
X-1296Y-215D01*
X-1296Y-212D01*
X-1298Y-207D01*
X-1299Y-202D01*
X-1301Y-199D01*
X-1302Y-195D01*
X-1305Y-191D01*
X-1307Y-186D01*
X-1309Y-183D01*
X-1311Y-180D01*
X-1314Y-176D01*
X-1317Y-172D01*
X-1320Y-169D01*
X-1322Y-166D01*
X-1326Y-163D01*
X-1330Y-159D01*
X-1333Y-157D01*
X-1336Y-155D01*
X-1340Y-152D01*
X-1341Y-152D01*
X-1393Y-100D01*
X-1420Y-35D01*
X-1420Y35D01*
X-1393Y100D01*
X-1344Y149D01*
X-1279Y176D01*
X-1209Y176D01*
X-1145Y149D01*
X-1095Y100D01*
X-1068Y35D01*
X-1068Y-35D01*
X-1095Y-100D01*
X-1147Y-151D01*
X-1149Y-153D01*
X-1154Y-156D01*
X-1158Y-159D01*
X-1161Y-161D01*
X-1163Y-164D01*
X-1167Y-167D01*
X-1171Y-171D01*
X-1173Y-174D01*
X-1175Y-177D01*
X-1178Y-181D01*
X-1181Y-185D01*
X-1183Y-189D01*
X-1184Y-192D01*
X-1186Y-197D01*
X-1189Y-201D01*
X-1190Y-205D01*
X-1191Y-208D01*
X-1192Y-213D01*
X-1193Y-218D01*
X-1194Y-222D01*
X-1194Y-225D01*
X-1195Y-231D01*
X-1195Y-236D01*
X-1195Y-239D01*
X-1195Y-243D01*
X-1194Y-248D01*
X-1194Y-254D01*
X-1193Y-257D01*
X-1192Y-261D01*
X-1190Y-265D01*
X-1189Y-271D01*
X-1187Y-274D01*
X-1186Y-277D01*
X-1184Y-282D01*
X-1181Y-287D01*
X-1179Y-289D01*
X-1177Y-293D01*
X-1174Y-297D01*
X-1171Y-301D01*
X-1168Y-303D01*
X-1166Y-306D01*
X-1162Y-310D01*
X-1158Y-313D01*
X-1155Y-315D01*
X-1153Y-318D01*
X-1148Y-320D01*
X-1147Y-321D01*
X-1095Y-373D01*
X-1068Y-437D01*
X-1068Y-507D01*
X-1095Y-572D01*
X-1147Y-624D01*
X-1149Y-625D01*
X-1154Y-628D01*
X-1158Y-631D01*
X-1161Y-634D01*
X-1163Y-636D01*
X-1167Y-640D01*
X-1171Y-644D01*
X-1173Y-646D01*
X-1175Y-649D01*
X-1178Y-654D01*
X-1181Y-658D01*
X-1183Y-661D01*
X-1184Y-664D01*
X-1186Y-669D01*
X-1189Y-674D01*
X-1190Y-677D01*
X-1191Y-681D01*
X-1192Y-686D01*
X-1193Y-691D01*
X-1194Y-694D01*
X-1194Y-698D01*
X-1195Y-703D01*
X-1195Y-708D01*
X-1195Y-712D01*
X-1195Y-716D01*
X-1194Y-721D01*
X-1194Y-726D01*
X-1193Y-729D01*
X-1192Y-733D01*
X-1190Y-738D01*
X-1189Y-743D01*
X-1187Y-746D01*
X-1186Y-750D01*
X-1184Y-754D01*
X-1181Y-759D01*
X-1179Y-762D01*
X-1177Y-765D01*
X-1174Y-769D01*
X-1171Y-773D01*
X-1168Y-776D01*
X-1166Y-779D01*
X-1162Y-782D01*
X-1158Y-786D01*
X-1155Y-788D01*
X-1153Y-790D01*
X-1148Y-793D01*
X-1147Y-793D01*
X-1095Y-845D01*
X-1068Y-910D01*
X-1068Y-980D01*
X-1095Y-1044D01*
X-1147Y-1096D01*
X-1149Y-1098D01*
X-1154Y-1101D01*
X-1158Y-1104D01*
X-1161Y-1106D01*
X-1163Y-1108D01*
X-1167Y-1112D01*
X-1171Y-1116D01*
X-1173Y-1119D01*
X-1175Y-1122D01*
X-1178Y-1126D01*
X-1181Y-1130D01*
X-1183Y-1134D01*
X-1184Y-1137D01*
X-1186Y-1141D01*
X-1189Y-1146D01*
X-1190Y-1150D01*
X-1191Y-1153D01*
X-1192Y-1158D01*
X-1193Y-1163D01*
X-1194Y-1167D01*
X-1194Y-1170D01*
X-1195Y-1176D01*
X-1195Y-1181D01*
X-1195Y-1184D01*
X-1195Y-1188D01*
X-1194Y-1193D01*
X-1194Y-1198D01*
X-1193Y-1202D01*
X-1192Y-1205D01*
X-1190Y-1210D01*
X-1189Y-1215D01*
X-1187Y-1219D01*
X-1186Y-1222D01*
X-1184Y-1227D01*
X-1181Y-1231D01*
X-1179Y-1234D01*
X-1177Y-1237D01*
X-1174Y-1241D01*
X-1171Y-1246D01*
X-1168Y-1248D01*
X-1166Y-1251D01*
X-1162Y-1254D01*
X-1158Y-1258D01*
X-1155Y-1260D01*
X-1153Y-1262D01*
X-1148Y-1265D01*
X-1147Y-1266D01*
X-1095Y-1318D01*
X-1068Y-1382D01*
X-1068Y-1452D01*
X-1095Y-1517D01*
X-1147Y-1569D01*
X-1149Y-1570D01*
X-1154Y-1573D01*
X-1158Y-1576D01*
X-1161Y-1579D01*
X-1163Y-1581D01*
X-1167Y-1585D01*
X-1171Y-1588D01*
X-1173Y-1591D01*
X-1175Y-1594D01*
X-1178Y-1598D01*
X-1181Y-1603D01*
X-1183Y-1606D01*
X-1184Y-1609D01*
X-1186Y-1614D01*
X-1189Y-1619D01*
X-1190Y-1622D01*
X-1191Y-1625D01*
X-1192Y-1631D01*
X-1193Y-1636D01*
X-1194Y-1639D01*
X-1194Y-1643D01*
X-1195Y-1648D01*
X-1195Y-1653D01*
X-1195Y-1657D01*
X-1195Y-1660D01*
X-1194Y-1666D01*
X-1194Y-1671D01*
X-1193Y-1674D01*
X-1192Y-1678D01*
X-1190Y-1683D01*
X-1189Y-1688D01*
X-1187Y-1691D01*
X-1186Y-1695D01*
X-1184Y-1699D01*
X-1181Y-1704D01*
X-1179Y-1707D01*
X-1177Y-1710D01*
X-1174Y-1714D01*
X-1171Y-1718D01*
X-1168Y-1721D01*
X-1166Y-1723D01*
X-1162Y-1727D01*
X-1158Y-1731D01*
X-1155Y-1733D01*
X-1153Y-1735D01*
X-1148Y-1737D01*
X-1147Y-1738D01*
X-1095Y-1790D01*
X-1068Y-1855D01*
X-1068Y-1925D01*
X-1095Y-1989D01*
X-1147Y-2041D01*
X-1149Y-2042D01*
X-1154Y-2046D01*
X-1158Y-2049D01*
X-1161Y-2051D01*
X-1163Y-2053D01*
X-1167Y-2057D01*
X-1171Y-2061D01*
X-1173Y-2064D01*
X-1175Y-2066D01*
X-1178Y-2071D01*
X-1181Y-2075D01*
X-1183Y-2078D01*
X-1184Y-2081D01*
X-1186Y-2086D01*
X-1189Y-2091D01*
X-1190Y-2095D01*
X-1191Y-2098D01*
X-1192Y-2103D01*
X-1193Y-2108D01*
X-1194Y-2112D01*
X-1194Y-2115D01*
X-1195Y-2120D01*
X-1195Y-2126D01*
X-1195Y-2129D01*
X-1195Y-2133D01*
X-1194Y-2138D01*
X-1194Y-2143D01*
X-1193Y-2147D01*
X-1192Y-2150D01*
X-1190Y-2155D01*
X-1189Y-2160D01*
X-1187Y-2164D01*
X-1186Y-2167D01*
X-1184Y-2172D01*
X-1181Y-2176D01*
X-1179Y-2179D01*
X-1177Y-2182D01*
X-1174Y-2186D01*
X-1171Y-2191D01*
X-1168Y-2193D01*
X-1166Y-2196D01*
X-1162Y-2199D01*
X-1158Y-2203D01*
X-1155Y-2205D01*
X-1153Y-2207D01*
X-1148Y-2210D01*
X-1147Y-2211D01*
X-1095Y-2263D01*
X-1068Y-2327D01*
X-1068Y-2397D01*
X-1095Y-2462D01*
X-1147Y-2514D01*
X-1149Y-2515D01*
X-1154Y-2518D01*
X-1158Y-2521D01*
X-1161Y-2524D01*
X-1163Y-2526D01*
X-1167Y-2530D01*
X-1171Y-2533D01*
X-1173Y-2536D01*
X-1175Y-2539D01*
X-1178Y-2543D01*
X-1181Y-2548D01*
X-1183Y-2551D01*
X-1184Y-2554D01*
X-1186Y-2559D01*
X-1189Y-2563D01*
X-1190Y-2567D01*
X-1191Y-2570D01*
X-1192Y-2575D01*
X-1193Y-2581D01*
X-1194Y-2584D01*
X-1194Y-2588D01*
X-1195Y-2593D01*
X-1195Y-2598D01*
X-1195Y-2602D01*
X-1195Y-2605D01*
X-1194Y-2610D01*
X-1194Y-2616D01*
X-1193Y-2619D01*
X-1192Y-2623D01*
X-1190Y-2628D01*
X-1189Y-2633D01*
X-1187Y-2636D01*
X-1186Y-2639D01*
X-1184Y-2644D01*
X-1181Y-2649D01*
X-1179Y-2652D01*
X-1177Y-2655D01*
X-1174Y-2659D01*
X-1171Y-2663D01*
X-1168Y-2666D01*
X-1166Y-2668D01*
X-1162Y-2672D01*
X-1158Y-2675D01*
X-1155Y-2677D01*
X-1153Y-2680D01*
X-1148Y-2682D01*
X-1147Y-2683D01*
X-1095Y-2735D01*
X-1068Y-2800D01*
X-1068Y-2870D01*
X-1095Y-2934D01*
X-1147Y-2986D01*
X-1149Y-2987D01*
X-1154Y-2991D01*
X-1158Y-2993D01*
X-1161Y-2996D01*
X-1163Y-2998D01*
X-1167Y-3002D01*
X-1171Y-3006D01*
X-1173Y-3009D01*
X-1175Y-3011D01*
X-1178Y-3016D01*
X-1181Y-3020D01*
X-1183Y-3023D01*
X-1184Y-3026D01*
X-1186Y-3031D01*
X-1189Y-3036D01*
X-1190Y-3039D01*
X-1191Y-3043D01*
X-1192Y-3048D01*
X-1193Y-3053D01*
X-1194Y-3057D01*
X-1194Y-3060D01*
X-1195Y-3065D01*
X-1195Y-3071D01*
X-1195Y-3074D01*
X-1195Y-3078D01*
X-1194Y-3083D01*
X-1194Y-3088D01*
X-1193Y-3092D01*
X-1192Y-3095D01*
X-1190Y-3100D01*
X-1189Y-3105D01*
X-1187Y-3108D01*
X-1186Y-3112D01*
X-1184Y-3116D01*
X-1181Y-3121D01*
X-1179Y-3124D01*
X-1177Y-3127D01*
X-1174Y-3131D01*
X-1171Y-3136D01*
X-1168Y-3138D01*
X-1166Y-3141D01*
X-1162Y-3144D01*
X-1158Y-3148D01*
X-1155Y-3150D01*
X-1153Y-3152D01*
X-1148Y-3155D01*
X-1147Y-3155D01*
X-1095Y-3208D01*
X-1068Y-3272D01*
X-1068Y-3342D01*
X-1095Y-3407D01*
X-1147Y-3459D01*
X-1149Y-3460D01*
X-1154Y-3463D01*
X-1158Y-3466D01*
X-1161Y-3468D01*
X-1163Y-3471D01*
X-1167Y-3475D01*
X-1171Y-3478D01*
X-1173Y-3481D01*
X-1175Y-3484D01*
X-1178Y-3488D01*
X-1181Y-3492D01*
X-1183Y-3496D01*
X-1184Y-3499D01*
X-1186Y-3504D01*
X-1189Y-3508D01*
X-1190Y-3512D01*
X-1191Y-3515D01*
X-1192Y-3520D01*
X-1193Y-3525D01*
X-1194Y-3529D01*
X-1194Y-3533D01*
X-1195Y-3538D01*
X-1195Y-3543D01*
X-1195Y-3547D01*
X-1195Y-3550D01*
X-1194Y-3555D01*
X-1194Y-3561D01*
X-1193Y-3564D01*
X-1192Y-3568D01*
X-1190Y-3573D01*
X-1189Y-3578D01*
X-1187Y-3581D01*
X-1186Y-3584D01*
X-1184Y-3589D01*
X-1181Y-3594D01*
X-1179Y-3597D01*
X-1177Y-3600D01*
X-1174Y-3604D01*
X-1171Y-3608D01*
X-1168Y-3610D01*
X-1166Y-3613D01*
X-1162Y-3617D01*
X-1158Y-3620D01*
X-1155Y-3622D01*
X-1153Y-3625D01*
X-1148Y-3627D01*
X-1147Y-3628D01*
X-1095Y-3680D01*
X-1068Y-3745D01*
X-1068Y-3814D01*
X-1095Y-3879D01*
X-1147Y-3931D01*
X-1149Y-3932D01*
X-1154Y-3935D01*
X-1158Y-3938D01*
X-1161Y-3941D01*
X-1163Y-3943D01*
X-1167Y-3947D01*
X-1171Y-3951D01*
X-1173Y-3954D01*
X-1175Y-3956D01*
X-1178Y-3961D01*
X-1181Y-3965D01*
X-1183Y-3968D01*
X-1184Y-3971D01*
X-1186Y-3976D01*
X-1189Y-3981D01*
X-1190Y-3984D01*
X-1191Y-3988D01*
X-1192Y-3993D01*
X-1193Y-3998D01*
X-1194Y-4001D01*
X-1194Y-4005D01*
X-1195Y-4010D01*
X-1195Y-4015D01*
X-1195Y-4019D01*
X-1195Y-4023D01*
X-1194Y-4028D01*
X-1194Y-4033D01*
X-1193Y-4037D01*
X-1192Y-4040D01*
X-1190Y-4045D01*
X-1189Y-4050D01*
X-1187Y-4053D01*
X-1186Y-4057D01*
X-1184Y-4061D01*
X-1181Y-4066D01*
X-1179Y-4069D01*
X-1177Y-4072D01*
X-1174Y-4076D01*
X-1171Y-4080D01*
X-1168Y-4083D01*
X-1166Y-4086D01*
X-1162Y-4089D01*
X-1158Y-4093D01*
X-1155Y-4095D01*
X-1153Y-4097D01*
X-1148Y-4100D01*
X-1147Y-4100D01*
X-1095Y-4152D01*
X-1068Y-4217D01*
X-1068Y-4287D01*
X-1095Y-4352D01*
X-1147Y-4403D01*
X-1149Y-4405D01*
X-1154Y-4408D01*
X-1158Y-4411D01*
X-1161Y-4413D01*
X-1163Y-4416D01*
X-1167Y-4419D01*
X-1171Y-4423D01*
X-1173Y-4426D01*
X-1175Y-4429D01*
X-1178Y-4433D01*
X-1181Y-4437D01*
X-1183Y-4441D01*
X-1184Y-4444D01*
X-1186Y-4449D01*
X-1189Y-4453D01*
X-1190Y-4457D01*
X-1191Y-4460D01*
X-1192Y-4465D01*
X-1193Y-4470D01*
X-1194Y-4474D01*
X-1194Y-4477D01*
X-1195Y-4483D01*
X-1195Y-4488D01*
X-1195Y-4491D01*
X-1195Y-4495D01*
X-1194Y-4500D01*
X-1194Y-4505D01*
X-1193Y-4509D01*
X-1192Y-4513D01*
X-1190Y-4517D01*
X-1189Y-4523D01*
X-1187Y-4526D01*
X-1186Y-4529D01*
X-1184Y-4534D01*
X-1181Y-4538D01*
X-1179Y-4541D01*
X-1177Y-4545D01*
X-1174Y-4549D01*
X-1171Y-4553D01*
X-1168Y-4555D01*
X-1166Y-4558D01*
X-1162Y-4562D01*
X-1158Y-4565D01*
X-1155Y-4567D01*
X-1153Y-4570D01*
X-1148Y-4572D01*
X-1147Y-4573D01*
X-1095Y-4625D01*
X-1068Y-4689D01*
X-1068Y-4759D01*
X-1095Y-4824D01*
X-1147Y-4876D01*
X-1149Y-4877D01*
X-1154Y-4880D01*
X-1158Y-4883D01*
X-1161Y-4886D01*
X-1163Y-4888D01*
X-1167Y-4892D01*
X-1171Y-4895D01*
X-1173Y-4898D01*
X-1175Y-4901D01*
X-1178Y-4906D01*
X-1181Y-4910D01*
X-1183Y-4913D01*
X-1184Y-4916D01*
X-1186Y-4921D01*
X-1189Y-4926D01*
X-1190Y-4929D01*
X-1191Y-4933D01*
X-1192Y-4938D01*
X-1193Y-4943D01*
X-1194Y-4946D01*
X-1194Y-4950D01*
X-1195Y-4955D01*
X-1195Y-4960D01*
X-1195Y-4964D01*
X-1195Y-4968D01*
X-1194Y-4973D01*
X-1194Y-4978D01*
X-1193Y-4981D01*
X-1192Y-4985D01*
X-1190Y-4990D01*
X-1189Y-4995D01*
X-1187Y-4998D01*
X-1186Y-5002D01*
X-1184Y-5006D01*
X-1181Y-5011D01*
X-1179Y-5014D01*
X-1177Y-5017D01*
X-1174Y-5021D01*
X-1171Y-5025D01*
X-1168Y-5028D01*
X-1166Y-5031D01*
X-1162Y-5034D01*
X-1158Y-5038D01*
X-1155Y-5040D01*
X-1153Y-5042D01*
X-1148Y-5045D01*
X-1147Y-5045D01*
X-1095Y-5097D01*
X-1068Y-5162D01*
X-1068Y-5232D01*
X-1095Y-5296D01*
X-1147Y-5348D01*
X-1149Y-5350D01*
X-1154Y-5353D01*
X-1158Y-5356D01*
X-1161Y-5358D01*
X-1163Y-5360D01*
X-1167Y-5364D01*
X-1171Y-5368D01*
X-1173Y-5371D01*
X-1175Y-5374D01*
X-1178Y-5378D01*
X-1181Y-5382D01*
X-1183Y-5385D01*
X-1184Y-5389D01*
X-1186Y-5393D01*
X-1189Y-5398D01*
X-1190Y-5402D01*
X-1191Y-5405D01*
X-1192Y-5410D01*
X-1193Y-5415D01*
X-1194Y-5419D01*
X-1194Y-5422D01*
X-1195Y-5428D01*
X-1195Y-5433D01*
X-1195Y-5436D01*
X-1195Y-5440D01*
X-1194Y-5445D01*
X-1194Y-5450D01*
X-1193Y-5454D01*
X-1192Y-5457D01*
X-1190Y-5462D01*
X-1189Y-5467D01*
X-1187Y-5471D01*
X-1186Y-5474D01*
X-1184Y-5479D01*
X-1181Y-5483D01*
X-1179Y-5486D01*
X-1177Y-5489D01*
X-1174Y-5493D01*
X-1171Y-5498D01*
X-1168Y-5500D01*
X-1166Y-5503D01*
X-1162Y-5506D01*
X-1158Y-5510D01*
X-1155Y-5512D01*
X-1153Y-5514D01*
X-1148Y-5517D01*
X-1147Y-5518D01*
X-1095Y-5570D01*
X-1068Y-5634D01*
X-1068Y-5704D01*
X-1095Y-5769D01*
X-1147Y-5821D01*
X-1149Y-5822D01*
X-1154Y-5825D01*
X-1158Y-5828D01*
X-1161Y-5831D01*
X-1163Y-5833D01*
X-1167Y-5837D01*
X-1171Y-5840D01*
X-1173Y-5843D01*
X-1175Y-5846D01*
X-1178Y-5850D01*
X-1181Y-5855D01*
X-1183Y-5858D01*
X-1184Y-5861D01*
X-1186Y-5866D01*
X-1189Y-5871D01*
X-1190Y-5874D01*
X-1191Y-5877D01*
X-1192Y-5883D01*
X-1193Y-5888D01*
X-1194Y-5891D01*
X-1194Y-5895D01*
X-1195Y-5900D01*
X-1195Y-5905D01*
X-1195Y-5909D01*
X-1195Y-5912D01*
X-1194Y-5918D01*
X-1194Y-5923D01*
X-1193Y-5926D01*
X-1192Y-5930D01*
X-1190Y-5935D01*
X-1189Y-5940D01*
X-1187Y-5943D01*
X-1186Y-5947D01*
X-1184Y-5951D01*
X-1181Y-5956D01*
X-1179Y-5959D01*
X-1177Y-5962D01*
X-1174Y-5966D01*
X-1171Y-5970D01*
X-1168Y-5973D01*
X-1166Y-5975D01*
X-1162Y-5979D01*
X-1158Y-5982D01*
X-1155Y-5985D01*
X-1153Y-5987D01*
X-1148Y-5989D01*
X-1147Y-5990D01*
X-1095Y-6042D01*
X-1068Y-6107D01*
X-1068Y-6177D01*
X-1095Y-6241D01*
X-1147Y-6293D01*
X-1149Y-6294D01*
X-1154Y-6298D01*
X-1158Y-6301D01*
X-1161Y-6303D01*
X-1163Y-6305D01*
X-1167Y-6309D01*
X-1171Y-6313D01*
X-1173Y-6316D01*
X-1175Y-6318D01*
X-1178Y-6323D01*
X-1181Y-6327D01*
X-1183Y-6330D01*
X-1184Y-6333D01*
X-1186Y-6338D01*
X-1189Y-6343D01*
X-1190Y-6347D01*
X-1191Y-6350D01*
X-1192Y-6355D01*
X-1193Y-6360D01*
X-1194Y-6364D01*
X-1194Y-6367D01*
X-1195Y-6372D01*
X-1195Y-6378D01*
X-1195Y-6381D01*
X-1195Y-6385D01*
X-1194Y-6390D01*
X-1194Y-6395D01*
X-1193Y-6399D01*
X-1192Y-6402D01*
X-1190Y-6407D01*
X-1189Y-6412D01*
X-1187Y-6416D01*
X-1186Y-6419D01*
X-1184Y-6423D01*
X-1181Y-6428D01*
X-1179Y-6431D01*
X-1177Y-6434D01*
X-1174Y-6438D01*
X-1171Y-6443D01*
X-1168Y-6445D01*
X-1166Y-6448D01*
X-1162Y-6451D01*
X-1158Y-6455D01*
X-1155Y-6457D01*
X-1153Y-6459D01*
X-1148Y-6462D01*
X-1147Y-6462D01*
X-1095Y-6515D01*
X-1068Y-6579D01*
X-1068Y-6649D01*
X-1095Y-6714D01*
X-1147Y-6766D01*
X-1149Y-6767D01*
X-1154Y-6770D01*
X-1158Y-6773D01*
X-1161Y-6776D01*
X-1163Y-6778D01*
X-1167Y-6782D01*
X-1171Y-6785D01*
X-1173Y-6788D01*
X-1175Y-6791D01*
X-1178Y-6795D01*
X-1181Y-6800D01*
X-1183Y-6803D01*
X-1184Y-6806D01*
X-1186Y-6811D01*
X-1189Y-6815D01*
X-1190Y-6819D01*
X-1191Y-6822D01*
X-1192Y-6827D01*
X-1193Y-6832D01*
X-1194Y-6836D01*
X-1194Y-6840D01*
X-1195Y-6845D01*
X-1195Y-6850D01*
X-1195Y-6854D01*
X-1195Y-6857D01*
X-1194Y-6862D01*
X-1194Y-6868D01*
X-1193Y-6871D01*
X-1192Y-6875D01*
X-1190Y-6880D01*
X-1189Y-6885D01*
X-1187Y-6888D01*
X-1186Y-6891D01*
X-1184Y-6896D01*
X-1181Y-6901D01*
X-1179Y-6904D01*
X-1177Y-6907D01*
X-1174Y-6911D01*
X-1171Y-6915D01*
X-1168Y-6918D01*
X-1166Y-6920D01*
X-1162Y-6924D01*
X-1158Y-6927D01*
X-1155Y-6929D01*
X-1153Y-6932D01*
X-1148Y-6934D01*
X-1147Y-6935D01*
X-1095Y-6987D01*
X-1068Y-7052D01*
X-1068Y-7122D01*
X-1095Y-7186D01*
X-1145Y-7236D01*
X-1209Y-7262D01*
X-1279Y-7262D01*
G37*
%LPD*%
%LPC*%
G36*
X3167Y-8418D02*
X3167Y-8418D01*
X3013Y-8355D01*
X2895Y-8237D01*
X2832Y-8083D01*
X2832Y-7917D01*
X2895Y-7763D01*
X3013Y-7645D01*
X3167Y-7582D01*
X3333Y-7582D01*
X3487Y-7645D01*
X3605Y-7763D01*
X3668Y-7917D01*
X3668Y-8083D01*
X3605Y-8237D01*
X3487Y-8355D01*
X3333Y-8418D01*
X3167Y-8418D01*
G37*
%LPD*%
G36*
X1113Y-5497D02*
X1113Y-5497D01*
X1120Y-5497D01*
X1122Y-5497D01*
X1124Y-5496D01*
X1130Y-5495D01*
X1137Y-5493D01*
X1139Y-5492D01*
X1141Y-5492D01*
X1147Y-5489D01*
X1153Y-5486D01*
X1155Y-5485D01*
X1157Y-5484D01*
X1162Y-5480D01*
X1168Y-5476D01*
X1170Y-5475D01*
X1171Y-5474D01*
X1172Y-5472D01*
X1176Y-5469D01*
X1550Y-5095D01*
X1553Y-5091D01*
X1557Y-5087D01*
X1559Y-5084D01*
X1561Y-5082D01*
X1564Y-5077D01*
X1567Y-5073D01*
X1568Y-5069D01*
X1570Y-5066D01*
X1572Y-5061D01*
X1574Y-5057D01*
X1575Y-5053D01*
X1576Y-5050D01*
X1577Y-5044D01*
X1578Y-5039D01*
X1578Y-5036D01*
X1579Y-5032D01*
X1579Y-5027D01*
X1579Y-5022D01*
X1579Y-5018D01*
X1578Y-5015D01*
X1577Y-5009D01*
X1577Y-5004D01*
X1576Y-5001D01*
X1575Y-4997D01*
X1573Y-4992D01*
X1572Y-4987D01*
X1570Y-4984D01*
X1569Y-4981D01*
X1566Y-4976D01*
X1563Y-4972D01*
X1561Y-4969D01*
X1559Y-4966D01*
X1556Y-4962D01*
X1553Y-4958D01*
X1550Y-4955D01*
X1548Y-4953D01*
X1543Y-4949D01*
X1540Y-4946D01*
X1537Y-4944D01*
X1534Y-4942D01*
X1529Y-4939D01*
X1525Y-4936D01*
X1521Y-4935D01*
X1518Y-4933D01*
X1513Y-4932D01*
X1508Y-4930D01*
X1505Y-4929D01*
X1501Y-4928D01*
X1496Y-4927D01*
X1491Y-4926D01*
X1486Y-4926D01*
X1484Y-4926D01*
X1482Y-4926D01*
X1480Y-4926D01*
X962Y-4926D01*
X961Y-4926D01*
X959Y-4926D01*
X952Y-4927D01*
X945Y-4927D01*
X943Y-4928D01*
X942Y-4928D01*
X935Y-4930D01*
X928Y-4932D01*
X926Y-4933D01*
X925Y-4933D01*
X918Y-4936D01*
X912Y-4940D01*
X911Y-4941D01*
X909Y-4941D01*
X903Y-4946D01*
X898Y-4950D01*
X896Y-4951D01*
X895Y-4952D01*
X890Y-4957D01*
X885Y-4963D01*
X884Y-4964D01*
X883Y-4965D01*
X879Y-4971D01*
X875Y-4977D01*
X875Y-4979D01*
X874Y-4980D01*
X871Y-4987D01*
X868Y-4993D01*
X868Y-4995D01*
X867Y-4997D01*
X866Y-5004D01*
X864Y-5011D01*
X864Y-5012D01*
X864Y-5014D01*
X863Y-5025D01*
X863Y-5097D01*
X831Y-5176D01*
X830Y-5177D01*
X829Y-5179D01*
X829Y-5180D01*
X826Y-5187D01*
X824Y-5194D01*
X824Y-5196D01*
X823Y-5197D01*
X822Y-5204D01*
X821Y-5211D01*
X821Y-5213D01*
X821Y-5215D01*
X821Y-5222D01*
X821Y-5229D01*
X822Y-5231D01*
X822Y-5232D01*
X823Y-5239D01*
X825Y-5246D01*
X825Y-5248D01*
X826Y-5250D01*
X828Y-5255D01*
X829Y-5257D01*
X831Y-5262D01*
X831Y-5263D01*
X863Y-5340D01*
X863Y-5399D01*
X863Y-5400D01*
X863Y-5402D01*
X864Y-5409D01*
X865Y-5416D01*
X865Y-5418D01*
X865Y-5420D01*
X868Y-5426D01*
X869Y-5433D01*
X870Y-5435D01*
X871Y-5436D01*
X874Y-5443D01*
X877Y-5449D01*
X878Y-5451D01*
X879Y-5452D01*
X883Y-5458D01*
X887Y-5464D01*
X889Y-5465D01*
X890Y-5466D01*
X895Y-5471D01*
X900Y-5476D01*
X901Y-5477D01*
X903Y-5478D01*
X909Y-5482D01*
X915Y-5486D01*
X916Y-5486D01*
X918Y-5487D01*
X924Y-5490D01*
X931Y-5493D01*
X933Y-5493D01*
X934Y-5494D01*
X941Y-5495D01*
X948Y-5497D01*
X950Y-5497D01*
X951Y-5497D01*
X962Y-5498D01*
X1106Y-5498D01*
X1113Y-5497D01*
G37*
G36*
X1311Y-1878D02*
X1311Y-1878D01*
X1314Y-1878D01*
X1319Y-1877D01*
X1324Y-1876D01*
X1328Y-1875D01*
X1331Y-1874D01*
X1336Y-1872D01*
X1341Y-1871D01*
X1345Y-1869D01*
X1348Y-1868D01*
X1352Y-1865D01*
X1357Y-1863D01*
X1360Y-1861D01*
X1363Y-1859D01*
X1367Y-1855D01*
X1371Y-1852D01*
X1373Y-1849D01*
X1376Y-1847D01*
X1379Y-1843D01*
X1383Y-1839D01*
X1385Y-1836D01*
X1387Y-1833D01*
X1389Y-1828D01*
X1392Y-1824D01*
X1394Y-1821D01*
X1395Y-1817D01*
X1397Y-1812D01*
X1399Y-1807D01*
X1400Y-1804D01*
X1401Y-1801D01*
X1401Y-1795D01*
X1402Y-1790D01*
X1403Y-1785D01*
X1403Y-1783D01*
X1403Y-1782D01*
X1403Y-1781D01*
X1403Y-1779D01*
X1403Y-1778D01*
X1402Y-1771D01*
X1402Y-1765D01*
X1402Y-1763D01*
X1401Y-1761D01*
X1400Y-1754D01*
X1398Y-1747D01*
X1397Y-1746D01*
X1397Y-1744D01*
X1394Y-1737D01*
X1391Y-1731D01*
X1390Y-1729D01*
X1389Y-1728D01*
X1385Y-1722D01*
X1381Y-1716D01*
X1380Y-1714D01*
X1379Y-1713D01*
X1377Y-1712D01*
X1374Y-1708D01*
X1089Y-1424D01*
X1084Y-1419D01*
X1079Y-1415D01*
X1077Y-1414D01*
X1076Y-1412D01*
X1070Y-1409D01*
X1064Y-1405D01*
X1062Y-1404D01*
X1060Y-1403D01*
X1054Y-1401D01*
X1048Y-1399D01*
X1046Y-1398D01*
X1044Y-1398D01*
X1037Y-1396D01*
X1030Y-1395D01*
X1028Y-1395D01*
X1026Y-1395D01*
X1024Y-1395D01*
X1019Y-1394D01*
X949Y-1394D01*
X940Y-1395D01*
X932Y-1396D01*
X931Y-1396D01*
X923Y-1398D01*
X915Y-1401D01*
X914Y-1401D01*
X906Y-1404D01*
X899Y-1408D01*
X898Y-1408D01*
X891Y-1413D01*
X884Y-1418D01*
X884Y-1419D01*
X878Y-1425D01*
X872Y-1431D01*
X867Y-1438D01*
X862Y-1446D01*
X857Y-1456D01*
X831Y-1520D01*
X830Y-1521D01*
X829Y-1523D01*
X829Y-1524D01*
X826Y-1531D01*
X824Y-1538D01*
X824Y-1539D01*
X823Y-1541D01*
X822Y-1548D01*
X821Y-1555D01*
X821Y-1557D01*
X821Y-1559D01*
X821Y-1566D01*
X821Y-1573D01*
X822Y-1575D01*
X822Y-1576D01*
X823Y-1583D01*
X825Y-1590D01*
X825Y-1592D01*
X826Y-1593D01*
X828Y-1599D01*
X829Y-1601D01*
X831Y-1605D01*
X831Y-1607D01*
X868Y-1695D01*
X868Y-1696D01*
X869Y-1698D01*
X869Y-1700D01*
X872Y-1706D01*
X875Y-1712D01*
X876Y-1714D01*
X877Y-1716D01*
X881Y-1721D01*
X885Y-1727D01*
X887Y-1729D01*
X887Y-1730D01*
X889Y-1732D01*
X892Y-1735D01*
X938Y-1781D01*
X944Y-1786D01*
X949Y-1790D01*
X950Y-1791D01*
X952Y-1793D01*
X958Y-1796D01*
X964Y-1800D01*
X965Y-1801D01*
X967Y-1802D01*
X974Y-1804D01*
X980Y-1806D01*
X982Y-1807D01*
X984Y-1807D01*
X991Y-1809D01*
X997Y-1810D01*
X1000Y-1810D01*
X1001Y-1810D01*
X1003Y-1810D01*
X1008Y-1811D01*
X1195Y-1811D01*
X1234Y-1849D01*
X1238Y-1853D01*
X1241Y-1856D01*
X1244Y-1858D01*
X1247Y-1861D01*
X1252Y-1863D01*
X1256Y-1866D01*
X1259Y-1868D01*
X1262Y-1869D01*
X1267Y-1871D01*
X1272Y-1873D01*
X1276Y-1874D01*
X1279Y-1875D01*
X1284Y-1876D01*
X1289Y-1877D01*
X1293Y-1877D01*
X1296Y-1878D01*
X1302Y-1878D01*
X1307Y-1878D01*
X1311Y-1878D01*
G37*
G36*
X976Y-6355D02*
X976Y-6355D01*
X983Y-6355D01*
X985Y-6354D01*
X987Y-6354D01*
X993Y-6352D01*
X1000Y-6351D01*
X1002Y-6350D01*
X1004Y-6349D01*
X1010Y-6346D01*
X1016Y-6344D01*
X1018Y-6343D01*
X1020Y-6342D01*
X1025Y-6338D01*
X1031Y-6334D01*
X1033Y-6332D01*
X1034Y-6331D01*
X1035Y-6330D01*
X1039Y-6326D01*
X1271Y-6095D01*
X1274Y-6091D01*
X1278Y-6087D01*
X1280Y-6084D01*
X1282Y-6082D01*
X1284Y-6077D01*
X1287Y-6073D01*
X1289Y-6069D01*
X1291Y-6066D01*
X1292Y-6061D01*
X1294Y-6057D01*
X1295Y-6053D01*
X1297Y-6050D01*
X1297Y-6044D01*
X1299Y-6039D01*
X1299Y-6036D01*
X1299Y-6032D01*
X1299Y-6027D01*
X1300Y-6022D01*
X1299Y-6018D01*
X1299Y-6015D01*
X1298Y-6009D01*
X1297Y-6004D01*
X1296Y-6001D01*
X1296Y-5997D01*
X1294Y-5992D01*
X1292Y-5987D01*
X1291Y-5984D01*
X1289Y-5981D01*
X1286Y-5976D01*
X1284Y-5972D01*
X1282Y-5969D01*
X1280Y-5966D01*
X1276Y-5962D01*
X1273Y-5958D01*
X1271Y-5955D01*
X1268Y-5953D01*
X1264Y-5949D01*
X1260Y-5946D01*
X1257Y-5944D01*
X1254Y-5942D01*
X1250Y-5939D01*
X1245Y-5936D01*
X1242Y-5935D01*
X1239Y-5933D01*
X1234Y-5932D01*
X1229Y-5930D01*
X1225Y-5929D01*
X1222Y-5928D01*
X1217Y-5927D01*
X1211Y-5926D01*
X1206Y-5926D01*
X1204Y-5926D01*
X1203Y-5926D01*
X1200Y-5926D01*
X962Y-5926D01*
X961Y-5926D01*
X959Y-5926D01*
X952Y-5927D01*
X945Y-5927D01*
X943Y-5928D01*
X942Y-5928D01*
X935Y-5930D01*
X928Y-5932D01*
X926Y-5933D01*
X925Y-5933D01*
X918Y-5936D01*
X912Y-5940D01*
X911Y-5941D01*
X909Y-5941D01*
X903Y-5946D01*
X898Y-5950D01*
X896Y-5951D01*
X895Y-5952D01*
X890Y-5957D01*
X885Y-5963D01*
X884Y-5964D01*
X883Y-5965D01*
X879Y-5971D01*
X875Y-5977D01*
X875Y-5979D01*
X874Y-5980D01*
X871Y-5987D01*
X868Y-5993D01*
X868Y-5995D01*
X867Y-5997D01*
X866Y-6004D01*
X864Y-6011D01*
X864Y-6012D01*
X864Y-6014D01*
X863Y-6025D01*
X863Y-6066D01*
X836Y-6131D01*
X834Y-6133D01*
X833Y-6134D01*
X832Y-6135D01*
X828Y-6141D01*
X823Y-6146D01*
X822Y-6148D01*
X821Y-6149D01*
X818Y-6156D01*
X814Y-6162D01*
X814Y-6163D01*
X813Y-6165D01*
X811Y-6172D01*
X808Y-6178D01*
X808Y-6180D01*
X808Y-6182D01*
X807Y-6189D01*
X806Y-6196D01*
X806Y-6198D01*
X805Y-6199D01*
X806Y-6206D01*
X806Y-6214D01*
X806Y-6215D01*
X806Y-6217D01*
X808Y-6224D01*
X809Y-6231D01*
X810Y-6232D01*
X810Y-6234D01*
X813Y-6241D01*
X816Y-6247D01*
X817Y-6249D01*
X817Y-6250D01*
X821Y-6256D01*
X825Y-6262D01*
X826Y-6264D01*
X827Y-6265D01*
X834Y-6273D01*
X836Y-6275D01*
X844Y-6294D01*
X848Y-6302D01*
X852Y-6310D01*
X858Y-6317D01*
X863Y-6324D01*
X870Y-6330D01*
X876Y-6335D01*
X876Y-6336D01*
X884Y-6340D01*
X891Y-6345D01*
X899Y-6348D01*
X908Y-6351D01*
X916Y-6353D01*
X925Y-6355D01*
X926Y-6355D01*
X936Y-6356D01*
X969Y-6356D01*
X976Y-6355D01*
G37*
G36*
X1280Y-7872D02*
X1280Y-7872D01*
X1286Y-7872D01*
X1288Y-7872D01*
X1290Y-7871D01*
X1297Y-7870D01*
X1304Y-7868D01*
X1306Y-7867D01*
X1307Y-7867D01*
X1314Y-7864D01*
X1320Y-7861D01*
X1322Y-7860D01*
X1323Y-7859D01*
X1329Y-7855D01*
X1335Y-7851D01*
X1337Y-7850D01*
X1338Y-7849D01*
X1339Y-7847D01*
X1343Y-7844D01*
X1424Y-7763D01*
X1428Y-7758D01*
X1433Y-7753D01*
X1434Y-7751D01*
X1435Y-7749D01*
X1439Y-7743D01*
X1442Y-7738D01*
X1443Y-7736D01*
X1444Y-7734D01*
X1446Y-7728D01*
X1449Y-7721D01*
X1449Y-7719D01*
X1450Y-7717D01*
X1451Y-7711D01*
X1452Y-7704D01*
X1453Y-7701D01*
X1453Y-7700D01*
X1453Y-7698D01*
X1453Y-7693D01*
X1453Y-7421D01*
X1453Y-7416D01*
X1452Y-7410D01*
X1452Y-7407D01*
X1451Y-7403D01*
X1450Y-7398D01*
X1449Y-7393D01*
X1448Y-7390D01*
X1447Y-7386D01*
X1445Y-7382D01*
X1443Y-7377D01*
X1441Y-7374D01*
X1439Y-7370D01*
X1436Y-7366D01*
X1433Y-7362D01*
X1431Y-7359D01*
X1429Y-7356D01*
X1425Y-7352D01*
X1422Y-7348D01*
X1419Y-7346D01*
X1416Y-7344D01*
X1412Y-7341D01*
X1408Y-7338D01*
X1404Y-7336D01*
X1401Y-7334D01*
X1397Y-7332D01*
X1392Y-7329D01*
X1389Y-7328D01*
X1385Y-7327D01*
X1380Y-7326D01*
X1375Y-7324D01*
X1372Y-7324D01*
X1368Y-7323D01*
X1363Y-7322D01*
X1358Y-7322D01*
X1354Y-7322D01*
X1350Y-7322D01*
X1345Y-7322D01*
X1340Y-7323D01*
X1337Y-7323D01*
X1333Y-7324D01*
X1328Y-7325D01*
X1323Y-7327D01*
X1320Y-7328D01*
X1316Y-7329D01*
X1311Y-7331D01*
X1307Y-7334D01*
X1304Y-7336D01*
X1300Y-7337D01*
X1296Y-7340D01*
X1292Y-7343D01*
X1288Y-7347D01*
X1286Y-7348D01*
X1285Y-7349D01*
X1284Y-7351D01*
X1171Y-7463D01*
X1165Y-7470D01*
X1160Y-7476D01*
X1160Y-7477D01*
X1155Y-7484D01*
X1151Y-7492D01*
X1148Y-7500D01*
X1145Y-7508D01*
X1145Y-7509D01*
X1144Y-7517D01*
X1142Y-7526D01*
X1143Y-7535D01*
X1143Y-7543D01*
X1143Y-7544D01*
X1144Y-7552D01*
X1144Y-7553D01*
X1144Y-7629D01*
X1111Y-7710D01*
X1109Y-7717D01*
X1106Y-7723D01*
X1106Y-7725D01*
X1106Y-7727D01*
X1105Y-7734D01*
X1104Y-7741D01*
X1104Y-7742D01*
X1103Y-7744D01*
X1104Y-7751D01*
X1104Y-7758D01*
X1104Y-7760D01*
X1104Y-7762D01*
X1106Y-7769D01*
X1107Y-7776D01*
X1108Y-7778D01*
X1108Y-7779D01*
X1109Y-7781D01*
X1111Y-7786D01*
X1121Y-7812D01*
X1126Y-7820D01*
X1129Y-7827D01*
X1130Y-7827D01*
X1135Y-7834D01*
X1140Y-7841D01*
X1147Y-7847D01*
X1153Y-7853D01*
X1154Y-7853D01*
X1161Y-7858D01*
X1168Y-7862D01*
X1169Y-7862D01*
X1177Y-7866D01*
X1185Y-7869D01*
X1194Y-7871D01*
X1202Y-7872D01*
X1203Y-7872D01*
X1213Y-7873D01*
X1273Y-7873D01*
X1280Y-7872D01*
G37*
G36*
X1166Y-4574D02*
X1166Y-4574D01*
X1171Y-4574D01*
X1175Y-4573D01*
X1179Y-4573D01*
X1184Y-4571D01*
X1189Y-4570D01*
X1192Y-4569D01*
X1196Y-4568D01*
X1200Y-4566D01*
X1205Y-4564D01*
X1208Y-4562D01*
X1212Y-4560D01*
X1216Y-4557D01*
X1220Y-4555D01*
X1223Y-4552D01*
X1226Y-4550D01*
X1230Y-4546D01*
X1233Y-4543D01*
X1236Y-4540D01*
X1238Y-4537D01*
X1241Y-4533D01*
X1244Y-4529D01*
X1246Y-4526D01*
X1248Y-4523D01*
X1250Y-4518D01*
X1253Y-4513D01*
X1254Y-4510D01*
X1255Y-4507D01*
X1256Y-4501D01*
X1258Y-4496D01*
X1258Y-4493D01*
X1259Y-4489D01*
X1260Y-4484D01*
X1260Y-4479D01*
X1260Y-4475D01*
X1260Y-4472D01*
X1260Y-4467D01*
X1259Y-4461D01*
X1259Y-4458D01*
X1258Y-4454D01*
X1257Y-4449D01*
X1255Y-4444D01*
X1254Y-4441D01*
X1253Y-4437D01*
X1250Y-4433D01*
X1248Y-4428D01*
X1246Y-4425D01*
X1245Y-4422D01*
X1242Y-4417D01*
X1239Y-4413D01*
X1235Y-4409D01*
X1234Y-4408D01*
X1233Y-4407D01*
X1231Y-4405D01*
X1032Y-4205D01*
X1029Y-4203D01*
X1027Y-4201D01*
X1022Y-4198D01*
X1018Y-4194D01*
X1015Y-4192D01*
X1012Y-4190D01*
X1008Y-4188D01*
X1003Y-4185D01*
X1000Y-4184D01*
X997Y-4183D01*
X991Y-4181D01*
X986Y-4179D01*
X983Y-4179D01*
X980Y-4178D01*
X974Y-4177D01*
X969Y-4177D01*
X965Y-4177D01*
X962Y-4176D01*
X957Y-4177D01*
X951Y-4177D01*
X948Y-4178D01*
X944Y-4178D01*
X939Y-4179D01*
X934Y-4180D01*
X931Y-4182D01*
X927Y-4182D01*
X922Y-4185D01*
X917Y-4187D01*
X914Y-4189D01*
X911Y-4190D01*
X907Y-4193D01*
X902Y-4196D01*
X900Y-4198D01*
X897Y-4200D01*
X893Y-4204D01*
X889Y-4208D01*
X887Y-4210D01*
X885Y-4213D01*
X882Y-4217D01*
X878Y-4222D01*
X877Y-4225D01*
X875Y-4228D01*
X870Y-4237D01*
X870Y-4238D01*
X831Y-4332D01*
X830Y-4334D01*
X829Y-4335D01*
X829Y-4337D01*
X826Y-4344D01*
X824Y-4350D01*
X824Y-4352D01*
X823Y-4354D01*
X822Y-4361D01*
X821Y-4368D01*
X821Y-4369D01*
X821Y-4371D01*
X821Y-4378D01*
X821Y-4385D01*
X822Y-4387D01*
X822Y-4389D01*
X823Y-4396D01*
X825Y-4403D01*
X825Y-4404D01*
X826Y-4406D01*
X828Y-4412D01*
X829Y-4413D01*
X831Y-4418D01*
X831Y-4419D01*
X870Y-4513D01*
X874Y-4521D01*
X878Y-4528D01*
X878Y-4529D01*
X884Y-4536D01*
X889Y-4542D01*
X889Y-4543D01*
X896Y-4548D01*
X902Y-4554D01*
X910Y-4559D01*
X917Y-4564D01*
X925Y-4567D01*
X933Y-4570D01*
X934Y-4570D01*
X942Y-4572D01*
X951Y-4574D01*
X952Y-4574D01*
X962Y-4574D01*
X1161Y-4574D01*
X1166Y-4574D01*
G37*
G36*
X1149Y-3486D02*
X1149Y-3486D01*
X1154Y-3486D01*
X1158Y-3485D01*
X1161Y-3485D01*
X1166Y-3483D01*
X1171Y-3482D01*
X1175Y-3481D01*
X1178Y-3480D01*
X1183Y-3478D01*
X1188Y-3476D01*
X1191Y-3474D01*
X1194Y-3472D01*
X1198Y-3469D01*
X1203Y-3467D01*
X1206Y-3464D01*
X1209Y-3462D01*
X1212Y-3458D01*
X1216Y-3455D01*
X1218Y-3452D01*
X1221Y-3449D01*
X1224Y-3445D01*
X1227Y-3441D01*
X1229Y-3438D01*
X1231Y-3435D01*
X1233Y-3430D01*
X1235Y-3425D01*
X1236Y-3422D01*
X1238Y-3419D01*
X1239Y-3413D01*
X1241Y-3409D01*
X1241Y-3405D01*
X1242Y-3401D01*
X1242Y-3396D01*
X1243Y-3391D01*
X1243Y-3387D01*
X1243Y-3384D01*
X1242Y-3379D01*
X1242Y-3373D01*
X1241Y-3370D01*
X1241Y-3366D01*
X1239Y-3361D01*
X1238Y-3356D01*
X1237Y-3353D01*
X1235Y-3349D01*
X1233Y-3345D01*
X1231Y-3340D01*
X1229Y-3337D01*
X1227Y-3334D01*
X1224Y-3330D01*
X1221Y-3325D01*
X1218Y-3321D01*
X1217Y-3320D01*
X1216Y-3319D01*
X1214Y-3317D01*
X1020Y-3123D01*
X1018Y-3121D01*
X1015Y-3119D01*
X1011Y-3115D01*
X1007Y-3112D01*
X1004Y-3110D01*
X1001Y-3108D01*
X996Y-3106D01*
X991Y-3103D01*
X988Y-3102D01*
X985Y-3101D01*
X980Y-3099D01*
X975Y-3097D01*
X971Y-3097D01*
X968Y-3096D01*
X963Y-3095D01*
X957Y-3094D01*
X954Y-3095D01*
X950Y-3094D01*
X945Y-3095D01*
X940Y-3095D01*
X936Y-3095D01*
X933Y-3096D01*
X928Y-3097D01*
X922Y-3098D01*
X919Y-3099D01*
X916Y-3100D01*
X911Y-3103D01*
X906Y-3105D01*
X903Y-3106D01*
X900Y-3108D01*
X895Y-3111D01*
X891Y-3114D01*
X888Y-3116D01*
X885Y-3118D01*
X882Y-3122D01*
X878Y-3126D01*
X876Y-3128D01*
X873Y-3131D01*
X870Y-3135D01*
X867Y-3140D01*
X865Y-3143D01*
X863Y-3145D01*
X859Y-3155D01*
X858Y-3156D01*
X830Y-3224D01*
X829Y-3225D01*
X828Y-3227D01*
X827Y-3228D01*
X824Y-3235D01*
X820Y-3241D01*
X819Y-3242D01*
X819Y-3244D01*
X816Y-3251D01*
X814Y-3257D01*
X814Y-3259D01*
X813Y-3261D01*
X812Y-3268D01*
X811Y-3275D01*
X811Y-3277D01*
X811Y-3278D01*
X811Y-3285D01*
X812Y-3293D01*
X812Y-3294D01*
X812Y-3296D01*
X814Y-3303D01*
X815Y-3310D01*
X816Y-3311D01*
X816Y-3313D01*
X819Y-3320D01*
X821Y-3326D01*
X822Y-3328D01*
X823Y-3329D01*
X827Y-3335D01*
X830Y-3341D01*
X865Y-3425D01*
X869Y-3433D01*
X873Y-3440D01*
X873Y-3441D01*
X879Y-3448D01*
X884Y-3454D01*
X884Y-3455D01*
X891Y-3460D01*
X897Y-3466D01*
X905Y-3471D01*
X912Y-3476D01*
X920Y-3479D01*
X928Y-3482D01*
X929Y-3482D01*
X937Y-3484D01*
X946Y-3486D01*
X947Y-3486D01*
X957Y-3486D01*
X1144Y-3486D01*
X1149Y-3486D01*
G37*
G36*
X1013Y-2683D02*
X1013Y-2683D01*
X1017Y-2683D01*
X1022Y-2682D01*
X1027Y-2681D01*
X1030Y-2680D01*
X1034Y-2679D01*
X1039Y-2677D01*
X1044Y-2676D01*
X1047Y-2674D01*
X1050Y-2673D01*
X1055Y-2670D01*
X1060Y-2668D01*
X1062Y-2666D01*
X1066Y-2664D01*
X1069Y-2660D01*
X1074Y-2657D01*
X1076Y-2654D01*
X1079Y-2652D01*
X1082Y-2648D01*
X1085Y-2644D01*
X1087Y-2641D01*
X1090Y-2638D01*
X1092Y-2633D01*
X1095Y-2629D01*
X1096Y-2626D01*
X1098Y-2622D01*
X1099Y-2617D01*
X1101Y-2612D01*
X1102Y-2609D01*
X1103Y-2605D01*
X1104Y-2600D01*
X1105Y-2595D01*
X1105Y-2590D01*
X1105Y-2588D01*
X1105Y-2587D01*
X1106Y-2584D01*
X1106Y-2303D01*
X1105Y-2297D01*
X1105Y-2290D01*
X1104Y-2288D01*
X1104Y-2286D01*
X1102Y-2279D01*
X1101Y-2273D01*
X1100Y-2271D01*
X1099Y-2269D01*
X1096Y-2263D01*
X1094Y-2256D01*
X1093Y-2255D01*
X1092Y-2253D01*
X1088Y-2247D01*
X1084Y-2242D01*
X1082Y-2240D01*
X1081Y-2239D01*
X1080Y-2237D01*
X1076Y-2233D01*
X1030Y-2187D01*
X1025Y-2183D01*
X1020Y-2178D01*
X1018Y-2177D01*
X1017Y-2176D01*
X1011Y-2173D01*
X1005Y-2169D01*
X1003Y-2168D01*
X1002Y-2167D01*
X995Y-2165D01*
X989Y-2162D01*
X987Y-2162D01*
X985Y-2161D01*
X978Y-2160D01*
X971Y-2159D01*
X969Y-2159D01*
X967Y-2159D01*
X966Y-2159D01*
X960Y-2158D01*
X956Y-2158D01*
X950Y-2159D01*
X948Y-2159D01*
X939Y-2160D01*
X930Y-2162D01*
X922Y-2164D01*
X914Y-2168D01*
X906Y-2172D01*
X899Y-2177D01*
X892Y-2182D01*
X891Y-2182D01*
X885Y-2189D01*
X879Y-2195D01*
X874Y-2202D01*
X869Y-2209D01*
X869Y-2210D01*
X864Y-2220D01*
X831Y-2301D01*
X830Y-2302D01*
X829Y-2304D01*
X829Y-2305D01*
X826Y-2312D01*
X824Y-2319D01*
X824Y-2321D01*
X823Y-2322D01*
X822Y-2329D01*
X821Y-2336D01*
X821Y-2338D01*
X821Y-2340D01*
X821Y-2347D01*
X821Y-2354D01*
X822Y-2356D01*
X822Y-2357D01*
X823Y-2364D01*
X825Y-2371D01*
X825Y-2373D01*
X826Y-2375D01*
X828Y-2380D01*
X829Y-2382D01*
X831Y-2387D01*
X831Y-2388D01*
X863Y-2465D01*
X863Y-2540D01*
X864Y-2547D01*
X864Y-2554D01*
X865Y-2556D01*
X865Y-2558D01*
X867Y-2564D01*
X868Y-2571D01*
X869Y-2573D01*
X869Y-2575D01*
X872Y-2581D01*
X875Y-2587D01*
X876Y-2589D01*
X877Y-2591D01*
X881Y-2596D01*
X885Y-2602D01*
X887Y-2604D01*
X887Y-2605D01*
X889Y-2607D01*
X892Y-2610D01*
X936Y-2654D01*
X940Y-2658D01*
X944Y-2661D01*
X947Y-2663D01*
X950Y-2666D01*
X954Y-2668D01*
X959Y-2671D01*
X962Y-2673D01*
X965Y-2674D01*
X970Y-2676D01*
X975Y-2678D01*
X978Y-2679D01*
X982Y-2680D01*
X987Y-2681D01*
X992Y-2682D01*
X995Y-2682D01*
X999Y-2683D01*
X1004Y-2683D01*
X1010Y-2683D01*
X1013Y-2683D01*
G37*
%LPC*%
G36*
X2184Y-7394D02*
X2184Y-7394D01*
X2119Y-7368D01*
X2070Y-7318D01*
X2043Y-7254D01*
X2043Y-7184D01*
X2070Y-7119D01*
X2119Y-7070D01*
X2184Y-7043D01*
X2254Y-7043D01*
X2318Y-7070D01*
X2368Y-7119D01*
X2394Y-7184D01*
X2394Y-7254D01*
X2368Y-7318D01*
X2318Y-7368D01*
X2254Y-7394D01*
X2184Y-7394D01*
G37*
%LPD*%
D10*
X3500Y750D03*
X3250Y-8000D03*
D11*
X2470Y-5375D03*
X2470Y-5125D03*
X2470Y-5625D03*
X2470Y-4875D03*
X2470Y-5875D03*
X2470Y-4625D03*
X2470Y-6125D03*
X2470Y-6375D03*
X2470Y-4375D03*
X2470Y-4125D03*
X2070Y-6375D03*
X2070Y-6125D03*
X2070Y-5875D03*
X2070Y-5625D03*
X2070Y-5375D03*
X2070Y-5125D03*
X2070Y-4875D03*
X2070Y-4625D03*
X2470Y-3875D03*
X2470Y-3625D03*
X2470Y-3375D03*
X2470Y-3125D03*
X2470Y-2875D03*
X2470Y-2625D03*
X2470Y-2375D03*
X2470Y-2125D03*
X2070Y-4375D03*
X2070Y-4125D03*
X2070Y-3875D03*
X2070Y-3625D03*
X2070Y-3375D03*
X2070Y-3125D03*
X2070Y-2875D03*
X2070Y-2625D03*
X2070Y-2375D03*
X2070Y-2125D03*
D10*
X-3000Y750D03*
D12*
X-1480Y-236D03*
X-1480Y-709D03*
X-1480Y-1181D03*
X-1480Y-1654D03*
X-1480Y-2126D03*
X-1480Y-2598D03*
X-1480Y-3071D03*
X-1480Y-3543D03*
X-1480Y-4016D03*
X-1480Y-4488D03*
X-1480Y-4961D03*
X-1480Y-5433D03*
X-1480Y-5906D03*
X-1480Y-6378D03*
X-1480Y-6850D03*
X938Y-4375D03*
X938Y-3286D03*
X938Y-5219D03*
X938Y-1563D03*
X938Y-2344D03*
X2313Y-6906D03*
X2075Y-1517D03*
X3256Y-6386D03*
X3256Y-2186D03*
X3256Y-2486D03*
X3256Y-2786D03*
X3256Y-3086D03*
X3256Y-3386D03*
X3256Y-3686D03*
X3256Y-3986D03*
X3256Y-4286D03*
X3256Y-4586D03*
X3256Y-4886D03*
X3256Y-5186D03*
X3256Y-5486D03*
X3256Y-5786D03*
X3256Y-6086D03*
X938Y-6188D03*
X1250Y-7719D03*
X1419Y0D03*
X1664Y-490D03*
X1174Y490D03*
X-2500Y1500D03*
X500Y1500D03*
X3500Y1500D03*
X4000Y-1688D03*
X4000Y-4500D03*
X-3500Y-1688D03*
X2000Y-9500D03*
X-3500Y-9500D03*
X-1000Y-9500D03*
X-3500Y-6813D03*
X-3500Y-4500D03*
X4000Y-6813D03*
X2956Y-3836D03*
X-1244Y-3307D03*
D13*
X2470Y-3875D02*
X2478Y-3867D01*
D14*
X2925Y-3867D02*
X2956Y-3836D01*
X2925Y-3867D02*
X2478Y-3867D01*
D12*
X2956Y-3536D03*
X-1244Y-2835D03*
D14*
X2885Y-3608D02*
X2956Y-3536D01*
X2885Y-3608D02*
X2488Y-3608D01*
X2470Y-3625D01*
D12*
X2956Y-3236D03*
X-1244Y-2362D03*
D14*
X2470Y-3375D02*
X2488Y-3358D01*
X2894Y-3236D02*
X2956Y-3236D01*
X2894Y-3236D02*
X2772Y-3358D01*
X2488Y-3358D01*
D12*
X2956Y-2936D03*
X-1244Y-1890D03*
D14*
X2488Y-3108D02*
X2753Y-3108D01*
X2488Y-3108D02*
X2470Y-3125D01*
X2924Y-2936D02*
X2956Y-2936D01*
X2924Y-2936D02*
X2753Y-3108D01*
D12*
X2956Y-2636D03*
X-1244Y-1417D03*
D14*
X2955Y-2636D02*
X2956Y-2636D01*
X2955Y-2636D02*
X2716Y-2875D01*
X2470Y-2875D01*
D12*
X2956Y-2336D03*
X-1244Y-945D03*
D14*
X2667Y-2625D02*
X2956Y-2336D01*
X2667Y-2625D02*
X2470Y-2625D01*
D12*
X2956Y-2036D03*
X-1244Y-472D03*
D14*
X2617Y-2375D02*
X2956Y-2036D01*
X2617Y-2375D02*
X2470Y-2375D01*
D12*
X1797Y-1671D03*
D14*
X1945Y-2375D02*
X2070Y-2375D01*
X1945Y-2375D02*
X1791Y-2221D01*
X1791Y-1677D02*
X1797Y-1671D01*
X1791Y-1677D02*
X1791Y-2221D01*
D12*
X1373Y-498D03*
D14*
X1495Y-1233D02*
X1584Y-1321D01*
X1495Y-620D02*
X1373Y-498D01*
X1495Y-620D02*
X1495Y-1233D01*
X1584Y-1321D02*
X1584Y-2287D01*
X2051Y-2644D02*
X2070Y-2625D01*
X2051Y-2644D02*
X1941Y-2644D01*
X1584Y-2287D01*
D12*
X688Y-1406D03*
D14*
X1891Y-2875D02*
X2070Y-2875D01*
X1454Y-2438D02*
X1454Y-1716D01*
X1454Y-2438D02*
X1891Y-2875D01*
X1454Y-1716D02*
X1081Y-1344D01*
X750Y-1344D01*
X688Y-1406D01*
D12*
X688Y-1719D03*
D14*
X804Y-1719D01*
X946Y-1861D01*
X1174Y-1861D01*
X1311Y-1999D02*
X1311Y-2471D01*
X1313Y-2472D01*
X1313Y-2625D01*
X1813Y-3125D01*
X2070Y-3125D01*
X1311Y-1999D02*
X1174Y-1861D01*
D12*
X688Y-2188D03*
D14*
X1813Y-3375D02*
X2070Y-3375D01*
X1022Y-2108D02*
X768Y-2108D01*
X688Y-2188D01*
X1156Y-2719D02*
X1813Y-3375D01*
X1156Y-2719D02*
X1156Y-2241D01*
X1022Y-2108D01*
D12*
X688Y-2500D03*
D14*
X710Y-2500D01*
X1835Y-3625D01*
X2070Y-3625D01*
D12*
X683Y-3121D03*
D14*
X2039Y-3844D02*
X2070Y-3875D01*
X2039Y-3844D02*
X1813Y-3844D01*
X1000Y-3031D01*
X772Y-3031D02*
X683Y-3121D01*
X772Y-3031D02*
X1000Y-3031D01*
D12*
X683Y-3443D03*
D14*
X1781Y-4125D02*
X2070Y-4125D01*
X776Y-3537D02*
X683Y-3443D01*
X776Y-3537D02*
X1193Y-3537D01*
X1781Y-4125D01*
D12*
X688Y-4219D03*
D14*
X2053Y-4358D02*
X2070Y-4375D01*
X2053Y-4358D02*
X1256Y-4358D01*
X974Y-4076D02*
X821Y-4076D01*
X974Y-4076D02*
X1256Y-4358D01*
X821Y-4076D02*
X688Y-4210D01*
X688Y-4219D01*
D12*
X688Y-4531D03*
D14*
X719Y-4531D01*
X813Y-4625D01*
X2070Y-4625D01*
D12*
X688Y-5063D03*
D14*
X875Y-4875D01*
X2070Y-4875D01*
D12*
X688Y-5375D03*
D14*
X688Y-5415D01*
X821Y-5549D01*
X2053Y-5143D02*
X2070Y-5125D01*
X2053Y-5143D02*
X1574Y-5143D01*
X1168Y-5549D02*
X821Y-5549D01*
X1168Y-5549D02*
X1574Y-5143D01*
D12*
X688Y-6031D03*
D14*
X844Y-5875D01*
X1205Y-5875D01*
X1726Y-5354D01*
X2049Y-5354D02*
X2070Y-5375D01*
X2049Y-5354D02*
X1726Y-5354D01*
D12*
X688Y-6375D03*
D14*
X719Y-6406D02*
X1031Y-6406D01*
X719Y-6406D02*
X688Y-6375D01*
X1031Y-6406D02*
X1813Y-5625D01*
X2070Y-5625D01*
D12*
X969Y-7594D03*
D14*
X1804Y-5875D02*
X2070Y-5875D01*
X1804Y-5875D02*
X1250Y-6429D01*
X1250Y-7313D01*
X969Y-7594D01*
D12*
X964Y-7890D03*
D14*
X1867Y-6125D02*
X2070Y-6125D01*
X1867Y-6125D02*
X1504Y-6488D01*
X1504Y-7755D01*
X1335Y-7924D01*
X997Y-7924D01*
X964Y-7890D01*
D12*
X2956Y-6536D03*
X2219Y-7219D03*
D14*
X2863Y-6536D02*
X2956Y-6536D01*
X2863Y-6536D02*
X2715Y-6389D01*
X2715Y-6261D01*
X2579Y-6125D01*
X2470Y-6125D01*
D12*
X2956Y-6236D03*
X-1244Y-7087D03*
D14*
X2595Y-5875D02*
X2956Y-6236D01*
X2595Y-5875D02*
X2470Y-5875D01*
D12*
X2956Y-5936D03*
X-1244Y-6614D03*
D14*
X2470Y-5625D02*
X2625Y-5625D01*
X2936Y-5936D02*
X2956Y-5936D01*
X2936Y-5936D02*
X2625Y-5625D01*
D12*
X2956Y-5636D03*
X-1244Y-6142D03*
D14*
X2695Y-5375D02*
X2956Y-5636D01*
X2695Y-5375D02*
X2470Y-5375D01*
D12*
X2956Y-5336D03*
X-1244Y-5669D03*
D14*
X2745Y-5125D02*
X2956Y-5336D01*
X2745Y-5125D02*
X2470Y-5125D01*
D12*
X2956Y-5036D03*
X-1244Y-5197D03*
D14*
X2795Y-4875D02*
X2956Y-5036D01*
X2795Y-4875D02*
X2470Y-4875D01*
D12*
X2956Y-4736D03*
X-1244Y-4724D03*
D14*
X2845Y-4625D02*
X2956Y-4736D01*
X2845Y-4625D02*
X2470Y-4625D01*
D12*
X2956Y-4436D03*
X-1244Y-4252D03*
D14*
X2895Y-4375D02*
X2956Y-4436D01*
X2895Y-4375D02*
X2470Y-4375D01*
D12*
X1174Y-184D03*
X2469Y-6656D03*
D14*
X2475Y-6380D02*
X2470Y-6375D01*
X2475Y-6380D02*
X2475Y-6650D01*
X2469Y-6656D01*
D12*
X2056Y-1836D03*
D14*
X2070Y-1850D01*
X2070Y-2125D01*
D12*
X1174Y184D03*
X868Y429D03*
X2956Y-4136D03*
X-1244Y-3780D03*
D13*
X2470Y-4125D02*
X2481Y-4136D01*
D14*
X2956Y-4136D01*
D12*
X-1244Y0D03*
D15*
X-8000Y-10000D02*
X-7998Y-10044D01*
X-7992Y-10087D01*
X-7983Y-10129D01*
X-7970Y-10171D01*
X-7953Y-10211D01*
X-7933Y-10250D01*
X-7910Y-10287D01*
X-7883Y-10321D01*
X-7854Y-10354D01*
X-7821Y-10383D01*
X-7787Y-10410D01*
X-7750Y-10433D01*
X-7711Y-10453D01*
X-7671Y-10470D01*
X-7629Y-10483D01*
X-7587Y-10492D01*
X-7544Y-10498D01*
X-7500Y-10500D01*
X-5500Y-10500D01*
X-5456Y-10498D01*
X-5413Y-10492D01*
X-5371Y-10483D01*
X-5329Y-10470D01*
X-5289Y-10453D01*
X-5250Y-10433D01*
X-5213Y-10410D01*
X-5179Y-10383D01*
X-5146Y-10354D01*
X-5117Y-10321D01*
X-5090Y-10287D01*
X-5067Y-10250D01*
X-5047Y-10211D01*
X-5030Y-10171D01*
X-5017Y-10129D01*
X-5008Y-10087D01*
X-5002Y-10044D01*
X-5000Y-10000D01*
X-5000Y-9025D01*
X-4998Y-8990D01*
X-4994Y-8956D01*
X-4986Y-8921D01*
X-4976Y-8888D01*
X-4963Y-8856D01*
X-4946Y-8825D01*
X-4928Y-8796D01*
X-4906Y-8768D01*
X-4883Y-8742D01*
X-4857Y-8719D01*
X-4829Y-8697D01*
X-4800Y-8679D01*
X-4769Y-8662D01*
X-4737Y-8649D01*
X-4704Y-8639D01*
X-4669Y-8631D01*
X-4635Y-8627D01*
X-4600Y-8625D01*
X-4400Y-8625D01*
X-4365Y-8627D01*
X-4331Y-8631D01*
X-4296Y-8639D01*
X-4263Y-8649D01*
X-4231Y-8662D01*
X-4200Y-8679D01*
X-4171Y-8697D01*
X-4143Y-8719D01*
X-4117Y-8742D01*
X-4094Y-8768D01*
X-4072Y-8796D01*
X-4054Y-8825D01*
X-4037Y-8856D01*
X-4024Y-8888D01*
X-4014Y-8921D01*
X-4006Y-8956D01*
X-4002Y-8990D01*
X-4000Y-9025D01*
X-4000Y-10000D01*
X-3998Y-10044D01*
X-3992Y-10087D01*
X-3983Y-10129D01*
X-3970Y-10171D01*
X-3953Y-10211D01*
X-3933Y-10250D01*
X-3910Y-10287D01*
X-3883Y-10321D01*
X-3854Y-10354D01*
X-3821Y-10383D01*
X-3787Y-10410D01*
X-3750Y-10433D01*
X-3711Y-10453D01*
X-3671Y-10470D01*
X-3629Y-10483D01*
X-3587Y-10492D01*
X-3544Y-10498D01*
X-3500Y-10500D01*
X4000Y-10500D01*
X4044Y-10498D01*
X4087Y-10492D01*
X4129Y-10483D01*
X4171Y-10470D01*
X4211Y-10453D01*
X4250Y-10433D01*
X4287Y-10410D01*
X4321Y-10383D01*
X4354Y-10354D01*
X4383Y-10321D01*
X4410Y-10287D01*
X4433Y-10250D01*
X4453Y-10211D01*
X4470Y-10171D01*
X4483Y-10129D01*
X4492Y-10087D01*
X4498Y-10044D01*
X4500Y-10000D01*
X4500Y-9025D01*
X4502Y-8990D01*
X4506Y-8956D01*
X4514Y-8921D01*
X4524Y-8888D01*
X4537Y-8856D01*
X4554Y-8825D01*
X4572Y-8796D01*
X4594Y-8768D01*
X4617Y-8742D01*
X4643Y-8719D01*
X4671Y-8697D01*
X4700Y-8679D01*
X4731Y-8662D01*
X4763Y-8649D01*
X4796Y-8639D01*
X4831Y-8631D01*
X4865Y-8627D01*
X4900Y-8625D01*
X5100Y-8625D01*
X5140Y-8632D01*
X5179Y-8643D01*
X5218Y-8657D01*
X5254Y-8674D01*
X5290Y-8695D01*
X5323Y-8718D01*
X5354Y-8744D01*
X5383Y-8773D01*
X5409Y-8805D01*
X5432Y-8838D01*
X5452Y-8873D01*
X5469Y-8910D01*
X5483Y-8949D01*
X5493Y-8988D01*
X5500Y-9028D01*
X5504Y-9069D01*
X5504Y-9109D01*
X5500Y-9150D01*
X5500Y-10000D01*
X5502Y-10044D01*
X5508Y-10087D01*
X5517Y-10129D01*
X5530Y-10171D01*
X5547Y-10211D01*
X5567Y-10250D01*
X5590Y-10287D01*
X5617Y-10321D01*
X5646Y-10354D01*
X5679Y-10383D01*
X5713Y-10410D01*
X5750Y-10433D01*
X5789Y-10453D01*
X5829Y-10470D01*
X5871Y-10483D01*
X5913Y-10492D01*
X5956Y-10498D01*
X6000Y-10500D01*
X8000Y-10500D01*
X8044Y-10498D01*
X8087Y-10492D01*
X8129Y-10483D01*
X8171Y-10470D01*
X8211Y-10453D01*
X8250Y-10433D01*
X8287Y-10410D01*
X8321Y-10383D01*
X8354Y-10354D01*
X8383Y-10321D01*
X8410Y-10287D01*
X8433Y-10250D01*
X8453Y-10211D01*
X8470Y-10171D01*
X8483Y-10129D01*
X8492Y-10087D01*
X8498Y-10044D01*
X8500Y-10000D01*
X8500Y1500D01*
X8498Y1544D01*
X8492Y1587D01*
X8483Y1629D01*
X8470Y1671D01*
X8453Y1711D01*
X8433Y1750D01*
X8410Y1787D01*
X8383Y1821D01*
X8354Y1854D01*
X8321Y1883D01*
X8287Y1910D01*
X8250Y1933D01*
X8211Y1953D01*
X8171Y1970D01*
X8129Y1983D01*
X8087Y1992D01*
X8044Y1998D01*
X8000Y2000D01*
X6000Y2000D01*
X5956Y1998D01*
X5913Y1992D01*
X5871Y1983D01*
X5829Y1970D01*
X5789Y1953D01*
X5750Y1933D01*
X5713Y1910D01*
X5679Y1883D01*
X5646Y1854D01*
X5617Y1821D01*
X5590Y1787D01*
X5567Y1750D01*
X5547Y1711D01*
X5530Y1671D01*
X5517Y1629D01*
X5508Y1587D01*
X5502Y1544D01*
X5500Y1500D01*
X5500Y525D01*
X5498Y490D01*
X5494Y456D01*
X5486Y421D01*
X5476Y388D01*
X5463Y356D01*
X5446Y325D01*
X5428Y296D01*
X5406Y268D01*
X5383Y242D01*
X5357Y219D01*
X5329Y197D01*
X5300Y179D01*
X5269Y162D01*
X5237Y149D01*
X5204Y139D01*
X5169Y131D01*
X5135Y127D01*
X5100Y125D01*
X4900Y125D01*
X4865Y127D01*
X4831Y131D01*
X4796Y139D01*
X4763Y149D01*
X4731Y162D01*
X4700Y179D01*
X4671Y197D01*
X4643Y219D01*
X4617Y242D01*
X4594Y268D01*
X4572Y296D01*
X4554Y325D01*
X4537Y356D01*
X4524Y388D01*
X4514Y421D01*
X4506Y456D01*
X4502Y490D01*
X4500Y525D01*
X4500Y1500D01*
X4498Y1544D01*
X4492Y1587D01*
X4483Y1629D01*
X4470Y1671D01*
X4453Y1711D01*
X4433Y1750D01*
X4410Y1787D01*
X4383Y1821D01*
X4354Y1854D01*
X4321Y1883D01*
X4287Y1910D01*
X4250Y1933D01*
X4211Y1953D01*
X4171Y1970D01*
X4129Y1983D01*
X4087Y1992D01*
X4044Y1998D01*
X4000Y2000D01*
X-3500Y2000D01*
X-3544Y1998D01*
X-3587Y1992D01*
X-3629Y1983D01*
X-3671Y1970D01*
X-3711Y1953D01*
X-3750Y1933D01*
X-3787Y1910D01*
X-3821Y1883D01*
X-3854Y1854D01*
X-3883Y1821D01*
X-3910Y1787D01*
X-3933Y1750D01*
X-3953Y1711D01*
X-3970Y1671D01*
X-3983Y1629D01*
X-3992Y1587D01*
X-3998Y1544D01*
X-4000Y1500D01*
X-4000Y525D01*
X-4002Y490D01*
X-4006Y456D01*
X-4014Y421D01*
X-4024Y388D01*
X-4037Y356D01*
X-4054Y325D01*
X-4072Y296D01*
X-4094Y268D01*
X-4117Y242D01*
X-4143Y219D01*
X-4171Y197D01*
X-4200Y179D01*
X-4231Y162D01*
X-4263Y149D01*
X-4296Y139D01*
X-4331Y131D01*
X-4365Y127D01*
X-4400Y125D01*
X-4600Y125D01*
X-4635Y127D01*
X-4669Y131D01*
X-4704Y139D01*
X-4737Y149D01*
X-4769Y162D01*
X-4800Y179D01*
X-4829Y197D01*
X-4857Y219D01*
X-4883Y242D01*
X-4906Y268D01*
X-4928Y296D01*
X-4946Y325D01*
X-4963Y356D01*
X-4976Y388D01*
X-4986Y421D01*
X-4994Y456D01*
X-4998Y490D01*
X-5000Y525D01*
X-5000Y1500D01*
X-5002Y1544D01*
X-5008Y1587D01*
X-5017Y1629D01*
X-5030Y1671D01*
X-5047Y1711D01*
X-5067Y1750D01*
X-5090Y1787D01*
X-5117Y1821D01*
X-5146Y1854D01*
X-5179Y1883D01*
X-5213Y1910D01*
X-5250Y1933D01*
X-5289Y1953D01*
X-5329Y1970D01*
X-5371Y1983D01*
X-5413Y1992D01*
X-5456Y1998D01*
X-5500Y2000D01*
X-7500Y2000D01*
X-7544Y1998D01*
X-7587Y1992D01*
X-7629Y1983D01*
X-7671Y1970D01*
X-7711Y1953D01*
X-7750Y1933D01*
X-7787Y1910D01*
X-7821Y1883D01*
X-7854Y1854D01*
X-7883Y1821D01*
X-7910Y1787D01*
X-7933Y1750D01*
X-7953Y1711D01*
X-7970Y1671D01*
X-7983Y1629D01*
X-7992Y1587D01*
X-7998Y1544D01*
X-8000Y1500D01*
X-8000Y-10000D01*
X4500Y-7100D02*
X4502Y-7135D01*
X4506Y-7169D01*
X4514Y-7204D01*
X4524Y-7237D01*
X4537Y-7269D01*
X4554Y-7300D01*
X4572Y-7329D01*
X4594Y-7357D01*
X4617Y-7383D01*
X4643Y-7406D01*
X4671Y-7428D01*
X4700Y-7446D01*
X4731Y-7463D01*
X4763Y-7476D01*
X4796Y-7486D01*
X4831Y-7494D01*
X4865Y-7498D01*
X4900Y-7500D01*
X5100Y-7500D01*
X5135Y-7498D01*
X5169Y-7494D01*
X5204Y-7486D01*
X5237Y-7476D01*
X5269Y-7463D01*
X5300Y-7446D01*
X5329Y-7428D01*
X5357Y-7406D01*
X5383Y-7383D01*
X5406Y-7357D01*
X5428Y-7329D01*
X5446Y-7300D01*
X5463Y-7269D01*
X5476Y-7237D01*
X5486Y-7204D01*
X5494Y-7169D01*
X5498Y-7135D01*
X5500Y-7100D01*
X5500Y-1400D01*
X5498Y-1365D01*
X5494Y-1331D01*
X5486Y-1296D01*
X5476Y-1263D01*
X5463Y-1231D01*
X5446Y-1200D01*
X5428Y-1171D01*
X5406Y-1143D01*
X5383Y-1117D01*
X5357Y-1094D01*
X5329Y-1072D01*
X5300Y-1054D01*
X5269Y-1037D01*
X5237Y-1024D01*
X5204Y-1014D01*
X5169Y-1006D01*
X5135Y-1002D01*
X5100Y-1000D01*
X4900Y-1000D01*
X4865Y-1002D01*
X4831Y-1006D01*
X4796Y-1014D01*
X4763Y-1024D01*
X4731Y-1037D01*
X4700Y-1054D01*
X4671Y-1072D01*
X4643Y-1094D01*
X4617Y-1117D01*
X4594Y-1143D01*
X4572Y-1171D01*
X4554Y-1200D01*
X4537Y-1231D01*
X4524Y-1263D01*
X4514Y-1296D01*
X4506Y-1331D01*
X4502Y-1365D01*
X4500Y-1400D01*
X4500Y-7100D01*
X-5000Y-7100D02*
X-4998Y-7135D01*
X-4994Y-7169D01*
X-4986Y-7204D01*
X-4976Y-7237D01*
X-4963Y-7269D01*
X-4946Y-7300D01*
X-4928Y-7329D01*
X-4906Y-7357D01*
X-4883Y-7383D01*
X-4857Y-7406D01*
X-4829Y-7428D01*
X-4800Y-7446D01*
X-4769Y-7463D01*
X-4737Y-7476D01*
X-4704Y-7486D01*
X-4669Y-7494D01*
X-4635Y-7498D01*
X-4600Y-7500D01*
X-4400Y-7500D01*
X-4365Y-7498D01*
X-4331Y-7494D01*
X-4296Y-7486D01*
X-4263Y-7476D01*
X-4231Y-7463D01*
X-4200Y-7446D01*
X-4171Y-7428D01*
X-4143Y-7406D01*
X-4117Y-7383D01*
X-4094Y-7357D01*
X-4072Y-7329D01*
X-4054Y-7300D01*
X-4037Y-7269D01*
X-4024Y-7237D01*
X-4014Y-7204D01*
X-4006Y-7169D01*
X-4002Y-7135D01*
X-4000Y-7100D01*
X-4000Y-1400D01*
X-4002Y-1365D01*
X-4006Y-1331D01*
X-4014Y-1296D01*
X-4024Y-1263D01*
X-4037Y-1231D01*
X-4054Y-1200D01*
X-4072Y-1171D01*
X-4094Y-1143D01*
X-4117Y-1117D01*
X-4143Y-1094D01*
X-4171Y-1072D01*
X-4200Y-1054D01*
X-4231Y-1037D01*
X-4263Y-1024D01*
X-4296Y-1014D01*
X-4331Y-1006D01*
X-4365Y-1002D01*
X-4400Y-1000D01*
X-4600Y-1000D01*
X-4635Y-1002D01*
X-4669Y-1006D01*
X-4704Y-1014D01*
X-4737Y-1024D01*
X-4769Y-1037D01*
X-4800Y-1054D01*
X-4829Y-1072D01*
X-4857Y-1094D01*
X-4883Y-1117D01*
X-4906Y-1143D01*
X-4928Y-1171D01*
X-4946Y-1200D01*
X-4963Y-1231D01*
X-4976Y-1263D01*
X-4986Y-1296D01*
X-4994Y-1331D01*
X-4998Y-1365D01*
X-5000Y-1400D01*
X-5000Y-7100D01*
X4575Y-8632D02*
X4572Y-8647D01*
X4566Y-8661D01*
X4558Y-8673D01*
X4548Y-8683D01*
X4536Y-8691D01*
X4522Y-8697D01*
X4507Y-8700D01*
X4493Y-8700D01*
X4478Y-8697D01*
X4464Y-8691D01*
X4452Y-8683D01*
X4442Y-8673D01*
X4434Y-8661D01*
X4428Y-8647D01*
X4425Y-8632D01*
X4425Y-8618D01*
X4428Y-8603D01*
X4434Y-8589D01*
X4442Y-8577D01*
X4452Y-8567D01*
X4464Y-8559D01*
X4478Y-8553D01*
X4493Y-8550D01*
X4507Y-8550D01*
X4522Y-8553D01*
X4536Y-8559D01*
X4548Y-8567D01*
X4558Y-8577D01*
X4566Y-8589D01*
X4572Y-8603D01*
X4575Y-8618D01*
X4575Y-8632D01*
X4575Y-7507D02*
X4572Y-7522D01*
X4566Y-7536D01*
X4558Y-7548D01*
X4548Y-7558D01*
X4536Y-7566D01*
X4522Y-7572D01*
X4507Y-7575D01*
X4493Y-7575D01*
X4478Y-7572D01*
X4464Y-7566D01*
X4452Y-7558D01*
X4442Y-7548D01*
X4434Y-7536D01*
X4428Y-7522D01*
X4425Y-7507D01*
X4425Y-7493D01*
X4428Y-7478D01*
X4434Y-7464D01*
X4442Y-7452D01*
X4452Y-7442D01*
X4464Y-7434D01*
X4478Y-7428D01*
X4493Y-7425D01*
X4507Y-7425D01*
X4522Y-7428D01*
X4536Y-7434D01*
X4548Y-7442D01*
X4558Y-7452D01*
X4566Y-7464D01*
X4572Y-7478D01*
X4575Y-7493D01*
X4575Y-7507D01*
X4575Y-7882D02*
X4572Y-7897D01*
X4566Y-7911D01*
X4558Y-7923D01*
X4548Y-7933D01*
X4536Y-7941D01*
X4522Y-7947D01*
X4507Y-7950D01*
X4493Y-7950D01*
X4478Y-7947D01*
X4464Y-7941D01*
X4452Y-7933D01*
X4442Y-7923D01*
X4434Y-7911D01*
X4428Y-7897D01*
X4425Y-7882D01*
X4425Y-7868D01*
X4428Y-7853D01*
X4434Y-7839D01*
X4442Y-7827D01*
X4452Y-7817D01*
X4464Y-7809D01*
X4478Y-7803D01*
X4493Y-7800D01*
X4507Y-7800D01*
X4522Y-7803D01*
X4536Y-7809D01*
X4548Y-7817D01*
X4558Y-7827D01*
X4566Y-7839D01*
X4572Y-7853D01*
X4575Y-7868D01*
X4575Y-7882D01*
X4575Y-8257D02*
X4572Y-8272D01*
X4566Y-8286D01*
X4558Y-8298D01*
X4548Y-8308D01*
X4536Y-8316D01*
X4522Y-8322D01*
X4507Y-8325D01*
X4493Y-8325D01*
X4478Y-8322D01*
X4464Y-8316D01*
X4452Y-8308D01*
X4442Y-8298D01*
X4434Y-8286D01*
X4428Y-8272D01*
X4425Y-8257D01*
X4425Y-8243D01*
X4428Y-8228D01*
X4434Y-8214D01*
X4442Y-8202D01*
X4452Y-8192D01*
X4464Y-8184D01*
X4478Y-8178D01*
X4493Y-8175D01*
X4507Y-8175D01*
X4522Y-8178D01*
X4536Y-8184D01*
X4548Y-8192D01*
X4558Y-8202D01*
X4566Y-8214D01*
X4572Y-8228D01*
X4575Y-8243D01*
X4575Y-8257D01*
X7625Y-9020D02*
X7622Y-9061D01*
X7617Y-9102D01*
X7609Y-9142D01*
X7598Y-9182D01*
X7585Y-9220D01*
X7570Y-9258D01*
X7551Y-9295D01*
X7531Y-9330D01*
X7508Y-9364D01*
X7483Y-9397D01*
X7456Y-9427D01*
X7427Y-9456D01*
X7397Y-9483D01*
X7364Y-9508D01*
X7330Y-9531D01*
X7295Y-9551D01*
X7258Y-9570D01*
X7220Y-9585D01*
X7182Y-9598D01*
X7142Y-9609D01*
X7102Y-9617D01*
X7061Y-9622D01*
X7020Y-9625D01*
X6980Y-9625D01*
X6939Y-9622D01*
X6898Y-9617D01*
X6858Y-9609D01*
X6818Y-9598D01*
X6780Y-9585D01*
X6742Y-9570D01*
X6705Y-9551D01*
X6670Y-9531D01*
X6636Y-9508D01*
X6603Y-9483D01*
X6573Y-9456D01*
X6544Y-9427D01*
X6517Y-9397D01*
X6492Y-9364D01*
X6469Y-9330D01*
X6449Y-9295D01*
X6430Y-9258D01*
X6415Y-9220D01*
X6402Y-9182D01*
X6391Y-9142D01*
X6383Y-9102D01*
X6378Y-9061D01*
X6375Y-9020D01*
X6375Y-8980D01*
X6378Y-8939D01*
X6383Y-8898D01*
X6391Y-8858D01*
X6402Y-8818D01*
X6415Y-8780D01*
X6430Y-8742D01*
X6449Y-8705D01*
X6469Y-8670D01*
X6492Y-8636D01*
X6517Y-8603D01*
X6544Y-8573D01*
X6573Y-8544D01*
X6603Y-8517D01*
X6636Y-8492D01*
X6670Y-8469D01*
X6705Y-8449D01*
X6742Y-8430D01*
X6780Y-8415D01*
X6818Y-8402D01*
X6858Y-8391D01*
X6898Y-8383D01*
X6939Y-8378D01*
X6980Y-8375D01*
X7020Y-8375D01*
X7061Y-8378D01*
X7102Y-8383D01*
X7142Y-8391D01*
X7182Y-8402D01*
X7220Y-8415D01*
X7258Y-8430D01*
X7295Y-8449D01*
X7330Y-8469D01*
X7364Y-8492D01*
X7397Y-8517D01*
X7427Y-8544D01*
X7456Y-8573D01*
X7483Y-8603D01*
X7508Y-8636D01*
X7531Y-8670D01*
X7551Y-8705D01*
X7570Y-8742D01*
X7585Y-8780D01*
X7598Y-8818D01*
X7609Y-8858D01*
X7617Y-8898D01*
X7622Y-8939D01*
X7625Y-8980D01*
X7625Y-9020D01*
X644Y783D02*
X641Y749D01*
X635Y715D01*
X626Y681D01*
X614Y649D01*
X600Y618D01*
X582Y588D01*
X563Y560D01*
X541Y534D01*
X516Y509D01*
X490Y487D01*
X462Y468D01*
X432Y450D01*
X401Y436D01*
X369Y424D01*
X335Y415D01*
X301Y409D01*
X267Y406D01*
X233Y406D01*
X199Y409D01*
X165Y415D01*
X131Y424D01*
X99Y436D01*
X68Y450D01*
X38Y468D01*
X10Y487D01*
X-16Y509D01*
X-41Y534D01*
X-63Y560D01*
X-82Y588D01*
X-100Y618D01*
X-114Y649D01*
X-126Y681D01*
X-135Y715D01*
X-141Y749D01*
X-144Y783D01*
X-144Y817D01*
X-141Y851D01*
X-135Y885D01*
X-126Y919D01*
X-114Y951D01*
X-100Y982D01*
X-82Y1012D01*
X-63Y1040D01*
X-41Y1066D01*
X-16Y1091D01*
X10Y1113D01*
X38Y1132D01*
X68Y1150D01*
X99Y1164D01*
X131Y1176D01*
X165Y1185D01*
X199Y1191D01*
X233Y1194D01*
X267Y1194D01*
X301Y1191D01*
X335Y1185D01*
X369Y1176D01*
X401Y1164D01*
X432Y1150D01*
X462Y1132D01*
X490Y1113D01*
X516Y1091D01*
X541Y1066D01*
X563Y1040D01*
X582Y1012D01*
X600Y982D01*
X614Y951D01*
X626Y919D01*
X635Y885D01*
X641Y851D01*
X644Y817D01*
X644Y783D01*
X4575Y-1007D02*
X4572Y-1022D01*
X4566Y-1036D01*
X4558Y-1048D01*
X4548Y-1058D01*
X4536Y-1066D01*
X4522Y-1072D01*
X4507Y-1075D01*
X4493Y-1075D01*
X4478Y-1072D01*
X4464Y-1066D01*
X4452Y-1058D01*
X4442Y-1048D01*
X4434Y-1036D01*
X4428Y-1022D01*
X4425Y-1007D01*
X4425Y-993D01*
X4428Y-978D01*
X4434Y-964D01*
X4442Y-952D01*
X4452Y-942D01*
X4464Y-934D01*
X4478Y-928D01*
X4493Y-925D01*
X4507Y-925D01*
X4522Y-928D01*
X4536Y-934D01*
X4548Y-942D01*
X4558Y-952D01*
X4566Y-964D01*
X4572Y-978D01*
X4575Y-993D01*
X4575Y-1007D01*
X4575Y118D02*
X4572Y103D01*
X4566Y89D01*
X4558Y77D01*
X4548Y67D01*
X4536Y59D01*
X4522Y53D01*
X4507Y50D01*
X4493Y50D01*
X4478Y53D01*
X4464Y59D01*
X4452Y67D01*
X4442Y77D01*
X4434Y89D01*
X4428Y103D01*
X4425Y118D01*
X4425Y132D01*
X4428Y147D01*
X4434Y161D01*
X4442Y173D01*
X4452Y183D01*
X4464Y191D01*
X4478Y197D01*
X4493Y200D01*
X4507Y200D01*
X4522Y197D01*
X4536Y191D01*
X4548Y183D01*
X4558Y173D01*
X4566Y161D01*
X4572Y147D01*
X4575Y132D01*
X4575Y118D01*
X4575Y-257D02*
X4572Y-272D01*
X4566Y-286D01*
X4558Y-298D01*
X4548Y-308D01*
X4536Y-316D01*
X4522Y-322D01*
X4507Y-325D01*
X4493Y-325D01*
X4478Y-322D01*
X4464Y-316D01*
X4452Y-308D01*
X4442Y-298D01*
X4434Y-286D01*
X4428Y-272D01*
X4425Y-257D01*
X4425Y-243D01*
X4428Y-228D01*
X4434Y-214D01*
X4442Y-202D01*
X4452Y-192D01*
X4464Y-184D01*
X4478Y-178D01*
X4493Y-175D01*
X4507Y-175D01*
X4522Y-178D01*
X4536Y-184D01*
X4548Y-192D01*
X4558Y-202D01*
X4566Y-214D01*
X4572Y-228D01*
X4575Y-243D01*
X4575Y-257D01*
X4575Y-632D02*
X4572Y-647D01*
X4566Y-661D01*
X4558Y-673D01*
X4548Y-683D01*
X4536Y-691D01*
X4522Y-697D01*
X4507Y-700D01*
X4493Y-700D01*
X4478Y-697D01*
X4464Y-691D01*
X4452Y-683D01*
X4442Y-673D01*
X4434Y-661D01*
X4428Y-647D01*
X4425Y-632D01*
X4425Y-618D01*
X4428Y-603D01*
X4434Y-589D01*
X4442Y-577D01*
X4452Y-567D01*
X4464Y-559D01*
X4478Y-553D01*
X4493Y-550D01*
X4507Y-550D01*
X4522Y-553D01*
X4536Y-559D01*
X4548Y-567D01*
X4558Y-577D01*
X4566Y-589D01*
X4572Y-603D01*
X4575Y-618D01*
X4575Y-632D01*
X-3925Y-1007D02*
X-3928Y-1022D01*
X-3934Y-1036D01*
X-3942Y-1048D01*
X-3952Y-1058D01*
X-3964Y-1066D01*
X-3978Y-1072D01*
X-3993Y-1075D01*
X-4007Y-1075D01*
X-4022Y-1072D01*
X-4036Y-1066D01*
X-4048Y-1058D01*
X-4058Y-1048D01*
X-4066Y-1036D01*
X-4072Y-1022D01*
X-4075Y-1007D01*
X-4075Y-993D01*
X-4072Y-978D01*
X-4066Y-964D01*
X-4058Y-952D01*
X-4048Y-942D01*
X-4036Y-934D01*
X-4022Y-928D01*
X-4007Y-925D01*
X-3993Y-925D01*
X-3978Y-928D01*
X-3964Y-934D01*
X-3952Y-942D01*
X-3942Y-952D01*
X-3934Y-964D01*
X-3928Y-978D01*
X-3925Y-993D01*
X-3925Y-1007D01*
X-3925Y118D02*
X-3928Y103D01*
X-3934Y89D01*
X-3942Y77D01*
X-3952Y67D01*
X-3964Y59D01*
X-3978Y53D01*
X-3993Y50D01*
X-4007Y50D01*
X-4022Y53D01*
X-4036Y59D01*
X-4048Y67D01*
X-4058Y77D01*
X-4066Y89D01*
X-4072Y103D01*
X-4075Y118D01*
X-4075Y132D01*
X-4072Y147D01*
X-4066Y161D01*
X-4058Y173D01*
X-4048Y183D01*
X-4036Y191D01*
X-4022Y197D01*
X-4007Y200D01*
X-3993Y200D01*
X-3978Y197D01*
X-3964Y191D01*
X-3952Y183D01*
X-3942Y173D01*
X-3934Y161D01*
X-3928Y147D01*
X-3925Y132D01*
X-3925Y118D01*
X-3925Y-257D02*
X-3928Y-272D01*
X-3934Y-286D01*
X-3942Y-298D01*
X-3952Y-308D01*
X-3964Y-316D01*
X-3978Y-322D01*
X-3993Y-325D01*
X-4007Y-325D01*
X-4022Y-322D01*
X-4036Y-316D01*
X-4048Y-308D01*
X-4058Y-298D01*
X-4066Y-286D01*
X-4072Y-272D01*
X-4075Y-257D01*
X-4075Y-243D01*
X-4072Y-228D01*
X-4066Y-214D01*
X-4058Y-202D01*
X-4048Y-192D01*
X-4036Y-184D01*
X-4022Y-178D01*
X-4007Y-175D01*
X-3993Y-175D01*
X-3978Y-178D01*
X-3964Y-184D01*
X-3952Y-192D01*
X-3942Y-202D01*
X-3934Y-214D01*
X-3928Y-228D01*
X-3925Y-243D01*
X-3925Y-257D01*
X-3925Y-632D02*
X-3928Y-647D01*
X-3934Y-661D01*
X-3942Y-673D01*
X-3952Y-683D01*
X-3964Y-691D01*
X-3978Y-697D01*
X-3993Y-700D01*
X-4007Y-700D01*
X-4022Y-697D01*
X-4036Y-691D01*
X-4048Y-683D01*
X-4058Y-673D01*
X-4066Y-661D01*
X-4072Y-647D01*
X-4075Y-632D01*
X-4075Y-618D01*
X-4072Y-603D01*
X-4066Y-589D01*
X-4058Y-577D01*
X-4048Y-567D01*
X-4036Y-559D01*
X-4022Y-553D01*
X-4007Y-550D01*
X-3993Y-550D01*
X-3978Y-553D01*
X-3964Y-559D01*
X-3952Y-567D01*
X-3942Y-577D01*
X-3934Y-589D01*
X-3928Y-603D01*
X-3925Y-618D01*
X-3925Y-632D01*
X-3925Y-8632D02*
X-3928Y-8647D01*
X-3934Y-8661D01*
X-3942Y-8673D01*
X-3952Y-8683D01*
X-3964Y-8691D01*
X-3978Y-8697D01*
X-3993Y-8700D01*
X-4007Y-8700D01*
X-4022Y-8697D01*
X-4036Y-8691D01*
X-4048Y-8683D01*
X-4058Y-8673D01*
X-4066Y-8661D01*
X-4072Y-8647D01*
X-4075Y-8632D01*
X-4075Y-8618D01*
X-4072Y-8603D01*
X-4066Y-8589D01*
X-4058Y-8577D01*
X-4048Y-8567D01*
X-4036Y-8559D01*
X-4022Y-8553D01*
X-4007Y-8550D01*
X-3993Y-8550D01*
X-3978Y-8553D01*
X-3964Y-8559D01*
X-3952Y-8567D01*
X-3942Y-8577D01*
X-3934Y-8589D01*
X-3928Y-8603D01*
X-3925Y-8618D01*
X-3925Y-8632D01*
X-3925Y-7507D02*
X-3928Y-7522D01*
X-3934Y-7536D01*
X-3942Y-7548D01*
X-3952Y-7558D01*
X-3964Y-7566D01*
X-3978Y-7572D01*
X-3993Y-7575D01*
X-4007Y-7575D01*
X-4022Y-7572D01*
X-4036Y-7566D01*
X-4048Y-7558D01*
X-4058Y-7548D01*
X-4066Y-7536D01*
X-4072Y-7522D01*
X-4075Y-7507D01*
X-4075Y-7493D01*
X-4072Y-7478D01*
X-4066Y-7464D01*
X-4058Y-7452D01*
X-4048Y-7442D01*
X-4036Y-7434D01*
X-4022Y-7428D01*
X-4007Y-7425D01*
X-3993Y-7425D01*
X-3978Y-7428D01*
X-3964Y-7434D01*
X-3952Y-7442D01*
X-3942Y-7452D01*
X-3934Y-7464D01*
X-3928Y-7478D01*
X-3925Y-7493D01*
X-3925Y-7507D01*
X-3925Y-7882D02*
X-3928Y-7897D01*
X-3934Y-7911D01*
X-3942Y-7923D01*
X-3952Y-7933D01*
X-3964Y-7941D01*
X-3978Y-7947D01*
X-3993Y-7950D01*
X-4007Y-7950D01*
X-4022Y-7947D01*
X-4036Y-7941D01*
X-4048Y-7933D01*
X-4058Y-7923D01*
X-4066Y-7911D01*
X-4072Y-7897D01*
X-4075Y-7882D01*
X-4075Y-7868D01*
X-4072Y-7853D01*
X-4066Y-7839D01*
X-4058Y-7827D01*
X-4048Y-7817D01*
X-4036Y-7809D01*
X-4022Y-7803D01*
X-4007Y-7800D01*
X-3993Y-7800D01*
X-3978Y-7803D01*
X-3964Y-7809D01*
X-3952Y-7817D01*
X-3942Y-7827D01*
X-3934Y-7839D01*
X-3928Y-7853D01*
X-3925Y-7868D01*
X-3925Y-7882D01*
X-3925Y-8257D02*
X-3928Y-8272D01*
X-3934Y-8286D01*
X-3942Y-8298D01*
X-3952Y-8308D01*
X-3964Y-8316D01*
X-3978Y-8322D01*
X-3993Y-8325D01*
X-4007Y-8325D01*
X-4022Y-8322D01*
X-4036Y-8316D01*
X-4048Y-8308D01*
X-4058Y-8298D01*
X-4066Y-8286D01*
X-4072Y-8272D01*
X-4075Y-8257D01*
X-4075Y-8243D01*
X-4072Y-8228D01*
X-4066Y-8214D01*
X-4058Y-8202D01*
X-4048Y-8192D01*
X-4036Y-8184D01*
X-4022Y-8178D01*
X-4007Y-8175D01*
X-3993Y-8175D01*
X-3978Y-8178D01*
X-3964Y-8184D01*
X-3952Y-8192D01*
X-3942Y-8202D01*
X-3934Y-8214D01*
X-3928Y-8228D01*
X-3925Y-8243D01*
X-3925Y-8257D01*
X7625Y480D02*
X7622Y439D01*
X7617Y398D01*
X7609Y358D01*
X7598Y318D01*
X7585Y280D01*
X7570Y242D01*
X7551Y205D01*
X7531Y170D01*
X7508Y136D01*
X7483Y103D01*
X7456Y73D01*
X7427Y44D01*
X7397Y17D01*
X7364Y-8D01*
X7330Y-31D01*
X7295Y-51D01*
X7258Y-70D01*
X7220Y-85D01*
X7182Y-98D01*
X7142Y-109D01*
X7102Y-117D01*
X7061Y-122D01*
X7020Y-125D01*
X6980Y-125D01*
X6939Y-122D01*
X6898Y-117D01*
X6858Y-109D01*
X6818Y-98D01*
X6780Y-85D01*
X6742Y-70D01*
X6705Y-51D01*
X6670Y-31D01*
X6636Y-8D01*
X6603Y17D01*
X6573Y44D01*
X6544Y73D01*
X6517Y103D01*
X6492Y136D01*
X6469Y170D01*
X6449Y205D01*
X6430Y242D01*
X6415Y280D01*
X6402Y318D01*
X6391Y358D01*
X6383Y398D01*
X6378Y439D01*
X6375Y480D01*
X6375Y520D01*
X6378Y561D01*
X6383Y602D01*
X6391Y642D01*
X6402Y682D01*
X6415Y720D01*
X6430Y758D01*
X6449Y795D01*
X6469Y830D01*
X6492Y864D01*
X6517Y897D01*
X6544Y927D01*
X6573Y956D01*
X6603Y983D01*
X6636Y1008D01*
X6670Y1031D01*
X6705Y1051D01*
X6742Y1070D01*
X6780Y1085D01*
X6818Y1098D01*
X6858Y1109D01*
X6898Y1117D01*
X6939Y1122D01*
X6980Y1125D01*
X7020Y1125D01*
X7061Y1122D01*
X7102Y1117D01*
X7142Y1109D01*
X7182Y1098D01*
X7220Y1085D01*
X7258Y1070D01*
X7295Y1051D01*
X7330Y1031D01*
X7364Y1008D01*
X7397Y983D01*
X7427Y956D01*
X7456Y927D01*
X7483Y897D01*
X7508Y864D01*
X7531Y830D01*
X7551Y795D01*
X7570Y758D01*
X7585Y720D01*
X7598Y682D01*
X7609Y642D01*
X7617Y602D01*
X7622Y561D01*
X7625Y520D01*
X7625Y480D01*
X-5875Y480D02*
X-5878Y439D01*
X-5883Y398D01*
X-5891Y358D01*
X-5902Y318D01*
X-5915Y280D01*
X-5930Y242D01*
X-5949Y205D01*
X-5969Y170D01*
X-5992Y136D01*
X-6017Y103D01*
X-6044Y73D01*
X-6073Y44D01*
X-6103Y17D01*
X-6136Y-8D01*
X-6170Y-31D01*
X-6205Y-51D01*
X-6242Y-70D01*
X-6280Y-85D01*
X-6318Y-98D01*
X-6358Y-109D01*
X-6398Y-117D01*
X-6439Y-122D01*
X-6480Y-125D01*
X-6520Y-125D01*
X-6561Y-122D01*
X-6602Y-117D01*
X-6642Y-109D01*
X-6682Y-98D01*
X-6720Y-85D01*
X-6758Y-70D01*
X-6795Y-51D01*
X-6830Y-31D01*
X-6864Y-8D01*
X-6897Y17D01*
X-6927Y44D01*
X-6956Y73D01*
X-6983Y103D01*
X-7008Y136D01*
X-7031Y170D01*
X-7051Y205D01*
X-7070Y242D01*
X-7085Y280D01*
X-7098Y318D01*
X-7109Y358D01*
X-7117Y398D01*
X-7122Y439D01*
X-7125Y480D01*
X-7125Y520D01*
X-7122Y561D01*
X-7117Y602D01*
X-7109Y642D01*
X-7098Y682D01*
X-7085Y720D01*
X-7070Y758D01*
X-7051Y795D01*
X-7031Y830D01*
X-7008Y864D01*
X-6983Y897D01*
X-6956Y927D01*
X-6927Y956D01*
X-6897Y983D01*
X-6864Y1008D01*
X-6830Y1031D01*
X-6795Y1051D01*
X-6758Y1070D01*
X-6720Y1085D01*
X-6682Y1098D01*
X-6642Y1109D01*
X-6602Y1117D01*
X-6561Y1122D01*
X-6520Y1125D01*
X-6480Y1125D01*
X-6439Y1122D01*
X-6398Y1117D01*
X-6358Y1109D01*
X-6318Y1098D01*
X-6280Y1085D01*
X-6242Y1070D01*
X-6205Y1051D01*
X-6170Y1031D01*
X-6136Y1008D01*
X-6103Y983D01*
X-6073Y956D01*
X-6044Y927D01*
X-6017Y897D01*
X-5992Y864D01*
X-5969Y830D01*
X-5949Y795D01*
X-5930Y758D01*
X-5915Y720D01*
X-5902Y682D01*
X-5891Y642D01*
X-5883Y602D01*
X-5878Y561D01*
X-5875Y520D01*
X-5875Y480D01*
X-5875Y-9020D02*
X-5878Y-9061D01*
X-5883Y-9102D01*
X-5891Y-9142D01*
X-5902Y-9182D01*
X-5915Y-9220D01*
X-5930Y-9258D01*
X-5949Y-9295D01*
X-5969Y-9330D01*
X-5992Y-9364D01*
X-6017Y-9397D01*
X-6044Y-9427D01*
X-6073Y-9456D01*
X-6103Y-9483D01*
X-6136Y-9508D01*
X-6170Y-9531D01*
X-6205Y-9551D01*
X-6242Y-9570D01*
X-6280Y-9585D01*
X-6318Y-9598D01*
X-6358Y-9609D01*
X-6398Y-9617D01*
X-6439Y-9622D01*
X-6480Y-9625D01*
X-6520Y-9625D01*
X-6561Y-9622D01*
X-6602Y-9617D01*
X-6642Y-9609D01*
X-6682Y-9598D01*
X-6720Y-9585D01*
X-6758Y-9570D01*
X-6795Y-9551D01*
X-6830Y-9531D01*
X-6864Y-9508D01*
X-6897Y-9483D01*
X-6927Y-9456D01*
X-6956Y-9427D01*
X-6983Y-9397D01*
X-7008Y-9364D01*
X-7031Y-9330D01*
X-7051Y-9295D01*
X-7070Y-9258D01*
X-7085Y-9220D01*
X-7098Y-9182D01*
X-7109Y-9142D01*
X-7117Y-9102D01*
X-7122Y-9061D01*
X-7125Y-9020D01*
X-7125Y-8980D01*
X-7122Y-8939D01*
X-7117Y-8898D01*
X-7109Y-8858D01*
X-7098Y-8818D01*
X-7085Y-8780D01*
X-7070Y-8742D01*
X-7051Y-8705D01*
X-7031Y-8670D01*
X-7008Y-8636D01*
X-6983Y-8603D01*
X-6956Y-8573D01*
X-6927Y-8544D01*
X-6897Y-8517D01*
X-6864Y-8492D01*
X-6830Y-8469D01*
X-6795Y-8449D01*
X-6758Y-8430D01*
X-6720Y-8415D01*
X-6682Y-8402D01*
X-6642Y-8391D01*
X-6602Y-8383D01*
X-6561Y-8378D01*
X-6520Y-8375D01*
X-6480Y-8375D01*
X-6439Y-8378D01*
X-6398Y-8383D01*
X-6358Y-8391D01*
X-6318Y-8402D01*
X-6280Y-8415D01*
X-6242Y-8430D01*
X-6205Y-8449D01*
X-6170Y-8469D01*
X-6136Y-8492D01*
X-6103Y-8517D01*
X-6073Y-8544D01*
X-6044Y-8573D01*
X-6017Y-8603D01*
X-5992Y-8636D01*
X-5969Y-8670D01*
X-5949Y-8705D01*
X-5930Y-8742D01*
X-5915Y-8780D01*
X-5902Y-8818D01*
X-5891Y-8858D01*
X-5883Y-8898D01*
X-5878Y-8939D01*
X-5875Y-8980D01*
X-5875Y-9020D01*
M02*
