G04 EAGLE Gerber RS-274X export*
G75*
%MOIN*%
%FSLAX34Y34*%
%LPD*%
%INSilkscreen Bottom*%
%IPPOS*%
%AMOC8*
5,1,8,0,0,1.08239X$1,22.5*%
G01*
%ADD10C,0.006000*%
%ADD11R,0.007000X0.000500*%
%ADD12R,0.006500X0.000500*%
%ADD13R,0.011000X0.000500*%
%ADD14R,0.008000X0.000500*%
%ADD15R,0.011500X0.000500*%
%ADD16R,0.014000X0.000500*%
%ADD17R,0.016500X0.000500*%
%ADD18R,0.017500X0.000500*%
%ADD19R,0.019500X0.000500*%
%ADD20R,0.020500X0.000500*%
%ADD21R,0.022000X0.000500*%
%ADD22R,0.023500X0.000500*%
%ADD23R,0.024500X0.000500*%
%ADD24R,0.025500X0.000500*%
%ADD25R,0.026500X0.000500*%
%ADD26R,0.027500X0.000500*%
%ADD27R,0.028500X0.000500*%
%ADD28R,0.029500X0.000500*%
%ADD29R,0.013000X0.000500*%
%ADD30R,0.012000X0.000500*%
%ADD31R,0.065000X0.000500*%
%ADD32R,0.010500X0.000500*%
%ADD33R,0.010000X0.000500*%
%ADD34R,0.064500X0.000500*%
%ADD35R,0.000500X0.000500*%
%ADD36R,0.009500X0.000500*%
%ADD37R,0.064000X0.000500*%
%ADD38R,0.004500X0.000500*%
%ADD39R,0.009000X0.000500*%
%ADD40R,0.063500X0.000500*%
%ADD41R,0.007500X0.000500*%
%ADD42R,0.063000X0.000500*%
%ADD43R,0.008500X0.000500*%
%ADD44R,0.006000X0.000500*%
%ADD45R,0.015000X0.000500*%
%ADD46R,0.015500X0.000500*%
%ADD47R,0.014500X0.000500*%
%ADD48R,0.005500X0.000500*%
%ADD49R,0.002500X0.000500*%
%ADD50R,0.012500X0.000500*%
%ADD51R,0.016000X0.000500*%
%ADD52R,0.032500X0.000500*%
%ADD53R,0.031500X0.000500*%
%ADD54R,0.030500X0.000500*%
%ADD55R,0.030000X0.000500*%
%ADD56R,0.029000X0.000500*%
%ADD57R,0.028000X0.000500*%
%ADD58R,0.027000X0.000500*%
%ADD59R,0.026000X0.000500*%
%ADD60R,0.023000X0.000500*%
%ADD61R,0.019000X0.000500*%
%ADD62R,0.017000X0.000500*%
%ADD63R,0.013500X0.000500*%
%ADD64R,0.038500X0.000500*%
%ADD65R,0.039500X0.000500*%
%ADD66R,0.040000X0.000500*%
%ADD67R,0.040500X0.000500*%
%ADD68R,0.041000X0.000500*%
%ADD69R,0.041500X0.000500*%
%ADD70R,0.042000X0.000500*%
%ADD71R,0.042500X0.000500*%
%ADD72R,0.043000X0.000500*%
%ADD73R,0.043500X0.000500*%
%ADD74R,0.037000X0.000500*%
%ADD75R,0.025000X0.000500*%
%ADD76R,0.024000X0.000500*%
%ADD77R,0.020000X0.000500*%
%ADD78R,0.004000X0.000500*%
%ADD79R,0.111500X0.000500*%
%ADD80R,0.112500X0.000500*%
%ADD81R,0.113000X0.000500*%
%ADD82R,0.113500X0.000500*%
%ADD83R,0.114000X0.000500*%
%ADD84R,0.114500X0.000500*%
%ADD85R,0.115000X0.000500*%
%ADD86R,0.115500X0.000500*%
%ADD87R,0.116000X0.000500*%
%ADD88R,0.018000X0.000500*%
%ADD89R,0.018500X0.000500*%
%ADD90R,0.021000X0.000500*%
%ADD91R,0.021500X0.000500*%
%ADD92R,0.050500X0.000500*%
%ADD93R,0.033500X0.000500*%
%ADD94R,0.070000X0.000500*%
%ADD95R,0.068500X0.000500*%
%ADD96R,0.066500X0.000500*%
%ADD97R,0.053500X0.000500*%
%ADD98R,0.048500X0.000500*%
%ADD99R,0.036500X0.000500*%
%ADD100R,0.005000X0.000500*%
%ADD101R,0.003500X0.000500*%
%ADD102R,0.003000X0.000500*%
%ADD103R,0.002000X0.000500*%
%ADD104R,0.001500X0.000500*%
%ADD105R,0.001000X0.000500*%
%ADD106R,0.070500X0.000500*%
%ADD107R,0.125500X0.000500*%
%ADD108R,0.177500X0.000500*%
%ADD109R,0.177000X0.000500*%
%ADD110R,0.175500X0.000500*%
%ADD111R,0.174500X0.000500*%
%ADD112R,0.173500X0.000500*%
%ADD113R,0.171500X0.000500*%
%ADD114R,0.171000X0.000500*%
%ADD115R,0.170000X0.000500*%
%ADD116R,0.169000X0.000500*%
%ADD117R,0.167500X0.000500*%
%ADD118R,0.166000X0.000500*%
%ADD119R,0.165000X0.000500*%
%ADD120R,0.163500X0.000500*%
%ADD121R,0.163000X0.000500*%
%ADD122R,0.161500X0.000500*%
%ADD123R,0.160000X0.000500*%
%ADD124R,0.073500X0.000500*%
%ADD125R,0.084500X0.000500*%
%ADD126R,0.051000X0.000500*%
%ADD127R,0.081500X0.000500*%
%ADD128R,0.079500X0.000500*%
%ADD129R,0.050000X0.000500*%
%ADD130R,0.049500X0.000500*%
%ADD131R,0.049000X0.000500*%
%ADD132R,0.061500X0.000500*%
%ADD133R,0.048000X0.000500*%
%ADD134R,0.060500X0.000500*%
%ADD135R,0.047500X0.000500*%
%ADD136R,0.059000X0.000500*%
%ADD137R,0.046500X0.000500*%
%ADD138R,0.058000X0.000500*%
%ADD139R,0.056500X0.000500*%
%ADD140R,0.045500X0.000500*%
%ADD141R,0.055500X0.000500*%
%ADD142R,0.055000X0.000500*%
%ADD143R,0.045000X0.000500*%
%ADD144R,0.054500X0.000500*%
%ADD145R,0.053000X0.000500*%
%ADD146R,0.044000X0.000500*%
%ADD147R,0.052000X0.000500*%
%ADD148R,0.051500X0.000500*%
%ADD149R,0.038000X0.000500*%
%ADD150R,0.035500X0.000500*%
%ADD151R,0.034000X0.000500*%
%ADD152R,0.044500X0.000500*%
%ADD153R,0.033000X0.000500*%
%ADD154R,0.031000X0.000500*%
%ADD155R,0.037500X0.000500*%
%ADD156R,0.036000X0.000500*%
%ADD157R,0.035000X0.000500*%
%ADD158R,0.034500X0.000500*%
%ADD159R,0.022500X0.000500*%
%ADD160R,0.039000X0.000500*%
%ADD161R,0.046000X0.000500*%
%ADD162R,0.054000X0.000500*%
%ADD163R,0.056000X0.000500*%
%ADD164R,0.057000X0.000500*%
%ADD165R,0.058500X0.000500*%
%ADD166R,0.059500X0.000500*%
%ADD167R,0.060000X0.000500*%
%ADD168R,0.061000X0.000500*%
%ADD169R,0.062500X0.000500*%
%ADD170R,0.047000X0.000500*%
%ADD171R,0.000150X0.004350*%
%ADD172R,0.000150X0.007800*%
%ADD173R,0.000150X0.010200*%
%ADD174R,0.000150X0.012000*%
%ADD175R,0.000150X0.013650*%
%ADD176R,0.000150X0.015000*%
%ADD177R,0.000150X0.016350*%
%ADD178R,0.000150X0.017700*%
%ADD179R,0.000150X0.018750*%
%ADD180R,0.000150X0.019800*%
%ADD181R,0.000150X0.020700*%
%ADD182R,0.000150X0.021900*%
%ADD183R,0.000150X0.022650*%
%ADD184R,0.000150X0.023400*%
%ADD185R,0.000150X0.024300*%
%ADD186R,0.000150X0.025200*%
%ADD187R,0.000150X0.025800*%
%ADD188R,0.000150X0.026700*%
%ADD189R,0.000150X0.027450*%
%ADD190R,0.000150X0.028200*%
%ADD191R,0.000150X0.028800*%
%ADD192R,0.000150X0.029400*%
%ADD193R,0.000150X0.030000*%
%ADD194R,0.000150X0.030900*%
%ADD195R,0.000150X0.031350*%
%ADD196R,0.000150X0.031800*%
%ADD197R,0.000150X0.032400*%
%ADD198R,0.000150X0.033000*%
%ADD199R,0.000150X0.033600*%
%ADD200R,0.000150X0.034200*%
%ADD201R,0.000150X0.034800*%
%ADD202R,0.000150X0.035100*%
%ADD203R,0.000150X0.035700*%
%ADD204R,0.000150X0.036300*%
%ADD205R,0.000150X0.036900*%
%ADD206R,0.000150X0.037200*%
%ADD207R,0.000150X0.037800*%
%ADD208R,0.000150X0.038100*%
%ADD209R,0.000150X0.038700*%
%ADD210R,0.000150X0.039000*%
%ADD211R,0.000150X0.039600*%
%ADD212R,0.000150X0.039900*%
%ADD213R,0.000150X0.040500*%
%ADD214R,0.000150X0.040800*%
%ADD215R,0.000150X0.041400*%
%ADD216R,0.000150X0.041700*%
%ADD217R,0.000150X0.042000*%
%ADD218R,0.000150X0.042600*%
%ADD219R,0.000150X0.042900*%
%ADD220R,0.000150X0.043200*%
%ADD221R,0.000150X0.043800*%
%ADD222R,0.000150X0.044100*%
%ADD223R,0.000150X0.044400*%
%ADD224R,0.000150X0.019950*%
%ADD225R,0.000150X0.018750*%
%ADD226R,0.000150X0.018900*%
%ADD227R,0.000150X0.018000*%
%ADD228R,0.000150X0.017250*%
%ADD229R,0.000150X0.016800*%
%ADD230R,0.000150X0.016500*%
%ADD231R,0.000150X0.016050*%
%ADD232R,0.000150X0.015600*%
%ADD233R,0.000150X0.015750*%
%ADD234R,0.000150X0.015450*%
%ADD235R,0.000150X0.015150*%
%ADD236R,0.000150X0.015000*%
%ADD237R,0.000150X0.014700*%
%ADD238R,0.000150X0.014700*%
%ADD239R,0.000150X0.014400*%
%ADD240R,0.000150X0.014100*%
%ADD241R,0.000150X0.013950*%
%ADD242R,0.000150X0.013950*%
%ADD243R,0.000150X0.013800*%
%ADD244R,0.000150X0.013650*%
%ADD245R,0.000150X0.013500*%
%ADD246R,0.000150X0.013200*%
%ADD247R,0.000150X0.013350*%
%ADD248R,0.000150X0.013050*%
%ADD249R,0.000150X0.012900*%
%ADD250R,0.000150X0.013050*%
%ADD251R,0.000150X0.012750*%
%ADD252R,0.000150X0.012900*%
%ADD253R,0.000150X0.012600*%
%ADD254R,0.000150X0.012450*%
%ADD255R,0.000150X0.012450*%
%ADD256R,0.000150X0.012300*%
%ADD257R,0.000150X0.012450*%
%ADD258R,0.000150X0.012150*%
%ADD259R,0.000150X0.012000*%
%ADD260R,0.000150X0.011850*%
%ADD261R,0.000150X0.011700*%
%ADD262R,0.000150X0.011700*%
%ADD263R,0.000150X0.011700*%
%ADD264R,0.000150X0.011700*%
%ADD265R,0.000150X0.011550*%
%ADD266R,0.000150X0.011400*%
%ADD267R,0.000150X0.011400*%
%ADD268R,0.000150X0.011250*%
%ADD269R,0.000150X0.011250*%
%ADD270R,0.000150X0.011100*%
%ADD271R,0.000150X0.010950*%
%ADD272R,0.000150X0.010950*%
%ADD273R,0.000150X0.010950*%
%ADD274R,0.000150X0.010950*%
%ADD275R,0.000150X0.010800*%
%ADD276R,0.000150X0.010650*%
%ADD277R,0.000150X0.010650*%
%ADD278R,0.000150X0.010650*%
%ADD279R,0.000150X0.010650*%
%ADD280R,0.000150X0.010500*%
%ADD281R,0.000150X0.003600*%
%ADD282R,0.000150X0.006000*%
%ADD283R,0.000150X0.010350*%
%ADD284R,0.000150X0.009450*%
%ADD285R,0.000150X0.010350*%
%ADD286R,0.000150X0.010200*%
%ADD287R,0.000150X0.010050*%
%ADD288R,0.000150X0.014250*%
%ADD289R,0.000150X0.009900*%
%ADD290R,0.000150X0.015150*%
%ADD291R,0.000150X0.015900*%
%ADD292R,0.000150X0.016650*%
%ADD293R,0.000150X0.009900*%
%ADD294R,0.000150X0.017850*%
%ADD295R,0.000150X0.009900*%
%ADD296R,0.000150X0.018450*%
%ADD297R,0.000150X0.009750*%
%ADD298R,0.000150X0.019050*%
%ADD299R,0.000150X0.019650*%
%ADD300R,0.000150X0.009600*%
%ADD301R,0.000150X0.020250*%
%ADD302R,0.000150X0.009600*%
%ADD303R,0.000150X0.021150*%
%ADD304R,0.000150X0.021750*%
%ADD305R,0.000150X0.022050*%
%ADD306R,0.000150X0.009450*%
%ADD307R,0.000150X0.023100*%
%ADD308R,0.000150X0.009300*%
%ADD309R,0.000150X0.023550*%
%ADD310R,0.000150X0.023850*%
%ADD311R,0.000150X0.024450*%
%ADD312R,0.000150X0.009300*%
%ADD313R,0.000150X0.024750*%
%ADD314R,0.000150X0.025050*%
%ADD315R,0.000150X0.025650*%
%ADD316R,0.000150X0.025950*%
%ADD317R,0.000150X0.009150*%
%ADD318R,0.000150X0.026250*%
%ADD319R,0.000150X0.026550*%
%ADD320R,0.000150X0.009150*%
%ADD321R,0.000150X0.027000*%
%ADD322R,0.000150X0.009150*%
%ADD323R,0.000150X0.009000*%
%ADD324R,0.000150X0.027750*%
%ADD325R,0.000150X0.028050*%
%ADD326R,0.000150X0.028350*%
%ADD327R,0.000150X0.008850*%
%ADD328R,0.000150X0.028650*%
%ADD329R,0.000150X0.009000*%
%ADD330R,0.000150X0.028950*%
%ADD331R,0.000150X0.029250*%
%ADD332R,0.000150X0.029550*%
%ADD333R,0.000150X0.029850*%
%ADD334R,0.000150X0.030150*%
%ADD335R,0.000150X0.008850*%
%ADD336R,0.000150X0.030450*%
%ADD337R,0.000150X0.030750*%
%ADD338R,0.000150X0.031050*%
%ADD339R,0.000150X0.008700*%
%ADD340R,0.000150X0.031200*%
%ADD341R,0.000150X0.008700*%
%ADD342R,0.000150X0.008700*%
%ADD343R,0.000150X0.031650*%
%ADD344R,0.000150X0.031950*%
%ADD345R,0.000150X0.032250*%
%ADD346R,0.000150X0.008550*%
%ADD347R,0.000150X0.014550*%
%ADD348R,0.000150X0.008550*%
%ADD349R,0.000150X0.013650*%
%ADD350R,0.000150X0.012900*%
%ADD351R,0.000150X0.012300*%
%ADD352R,0.000150X0.012150*%
%ADD353R,0.000150X0.008400*%
%ADD354R,0.000150X0.008400*%
%ADD355R,0.000150X0.011100*%
%ADD356R,0.000150X0.008250*%
%ADD357R,0.000150X0.008250*%
%ADD358R,0.000150X0.009900*%
%ADD359R,0.000150X0.008400*%
%ADD360R,0.000150X0.009750*%
%ADD361R,0.000150X0.009450*%
%ADD362R,0.000150X0.009450*%
%ADD363R,0.000150X0.008100*%
%ADD364R,0.000150X0.008100*%
%ADD365R,0.000150X0.007950*%
%ADD366R,0.000150X0.007950*%
%ADD367R,0.000150X0.007950*%
%ADD368R,0.000150X0.007950*%
%ADD369R,0.000150X0.007800*%
%ADD370R,0.000150X0.008400*%
%ADD371R,0.000150X0.010200*%
%ADD372R,0.000150X0.010200*%
%ADD373R,0.000150X0.010800*%
%ADD374R,0.000150X0.011850*%
%ADD375R,0.000150X0.013200*%
%ADD376R,0.000150X0.013350*%
%ADD377R,0.000150X0.008700*%
%ADD378R,0.000150X0.013800*%
%ADD379R,0.000150X0.032550*%
%ADD380R,0.000150X0.031950*%
%ADD381R,0.000150X0.031650*%
%ADD382R,0.000150X0.030750*%
%ADD383R,0.000150X0.030450*%
%ADD384R,0.000150X0.029250*%
%ADD385R,0.000150X0.028950*%
%ADD386R,0.000150X0.027750*%
%ADD387R,0.000150X0.027450*%
%ADD388R,0.000150X0.026850*%
%ADD389R,0.000150X0.025950*%
%ADD390R,0.000150X0.025650*%
%ADD391R,0.000150X0.023850*%
%ADD392R,0.000150X0.023550*%
%ADD393R,0.000150X0.021750*%
%ADD394R,0.000150X0.021150*%
%ADD395R,0.000150X0.020850*%
%ADD396R,0.000150X0.019050*%
%ADD397R,0.000150X0.018450*%
%ADD398R,0.000150X0.015900*%
%ADD399R,0.000150X0.006150*%
%ADD400R,0.000150X0.010500*%
%ADD401R,0.000150X0.003750*%
%ADD402R,0.000150X0.012750*%
%ADD403R,0.000150X0.013650*%
%ADD404R,0.000150X0.014700*%
%ADD405R,0.000150X0.014700*%
%ADD406R,0.000150X0.014850*%
%ADD407R,0.000150X0.016050*%
%ADD408R,0.000150X0.016500*%
%ADD409R,0.000150X0.018900*%
%ADD410R,0.000150X0.043200*%
%ADD411R,0.000150X0.042900*%
%ADD412R,0.000150X0.041400*%
%ADD413R,0.000150X0.040800*%
%ADD414R,0.000150X0.039000*%
%ADD415R,0.000150X0.038700*%
%ADD416R,0.000150X0.036900*%
%ADD417R,0.000150X0.036300*%
%ADD418R,0.000150X0.035400*%
%ADD419R,0.000150X0.034200*%
%ADD420R,0.000150X0.033600*%
%ADD421R,0.000150X0.031200*%
%ADD422R,0.000150X0.030600*%
%ADD423R,0.000150X0.028200*%
%ADD424R,0.000150X0.027600*%
%ADD425R,0.000150X0.024300*%
%ADD426R,0.000150X0.023400*%
%ADD427R,0.000150X0.022500*%
%ADD428R,0.000150X0.021600*%
%ADD429R,0.000150X0.021000*%
%ADD430R,0.000150X0.019800*%
%ADD431R,0.000150X0.013500*%
%ADD432R,0.000150X0.004500*%
%ADD433R,0.004000X0.001000*%
%ADD434R,0.005000X0.001000*%
%ADD435R,0.006000X0.001000*%
%ADD436R,0.007000X0.001000*%
%ADD437R,0.008000X0.001000*%
%ADD438R,0.009000X0.001000*%
%ADD439R,0.010000X0.001000*%
%ADD440R,0.011000X0.001000*%
%ADD441R,0.003000X0.001000*%
%ADD442R,0.012000X0.001000*%
%ADD443R,0.014000X0.001000*%
%ADD444R,0.015000X0.001000*%
%ADD445R,0.016000X0.001000*%
%ADD446R,0.020000X0.001000*%
%ADD447R,0.038000X0.001000*%
%ADD448R,0.039000X0.001000*%
%ADD449R,0.040000X0.001000*%
%ADD450R,0.042000X0.001000*%
%ADD451R,0.033000X0.001000*%
%ADD452R,0.029000X0.001000*%
%ADD453R,0.021000X0.001000*%
%ADD454R,0.018000X0.001000*%
%ADD455R,0.013000X0.001000*%
%ADD456R,0.017000X0.001000*%
%ADD457R,0.019000X0.001000*%
%ADD458R,0.023000X0.001000*%
%ADD459R,0.002000X0.001000*%
%ADD460R,0.025000X0.001000*%
%ADD461R,0.036000X0.001000*%
%ADD462R,0.022000X0.001000*%
%ADD463R,0.030000X0.001000*%
%ADD464R,0.045000X0.001000*%
%ADD465R,0.050000X0.001000*%
%ADD466R,0.055000X0.001000*%
%ADD467R,0.061000X0.001000*%
%ADD468R,0.066000X0.001000*%
%ADD469R,0.071000X0.001000*%
%ADD470R,0.075000X0.001000*%
%ADD471R,0.081000X0.001000*%
%ADD472R,0.086000X0.001000*%
%ADD473R,0.091000X0.001000*%
%ADD474R,0.024000X0.001000*%
%ADD475R,0.100000X0.001000*%
%ADD476R,0.026000X0.001000*%
%ADD477R,0.111000X0.001000*%
%ADD478R,0.027000X0.001000*%
%ADD479R,0.127000X0.001000*%
%ADD480R,0.034000X0.001000*%
%ADD481R,0.092000X0.001000*%
%ADD482R,0.041000X0.001000*%
%ADD483R,0.107000X0.001000*%
%ADD484R,0.046000X0.001000*%
%ADD485R,0.160000X0.001000*%
%ADD486R,0.158000X0.001000*%
%ADD487R,0.116000X0.001000*%
%ADD488R,0.082000X0.001000*%
%ADD489R,0.051000X0.001000*%
%ADD490R,0.191000X0.001000*%
%ADD491R,0.053000X0.001000*%
%ADD492R,0.043000X0.001000*%
%ADD493R,0.189000X0.001000*%
%ADD494R,0.044000X0.001000*%
%ADD495R,0.087000X0.001000*%
%ADD496R,0.078000X0.001000*%
%ADD497R,0.080000X0.001000*%
%ADD498R,0.032000X0.001000*%
%ADD499R,0.031000X0.001000*%
%ADD500R,0.076000X0.001000*%
%ADD501R,0.028000X0.001000*%
%ADD502R,0.037000X0.001000*%
%ADD503R,0.067000X0.001000*%
%ADD504R,0.062000X0.001000*%
%ADD505R,0.057000X0.001000*%
%ADD506R,0.001000X0.001000*%
%ADD507R,0.052000X0.001000*%
%ADD508C,0.005000*%
%ADD509C,0.010000*%


D10*
X-2103Y-7648D02*
X-2030Y-7721D01*
X-2030Y-7868D01*
X-2103Y-7942D01*
X-2397Y-7942D01*
X-2470Y-7868D01*
X-2470Y-7721D01*
X-2397Y-7648D01*
X-2470Y-7408D02*
X-2470Y-7261D01*
X-2397Y-7188D01*
X-2250Y-7188D01*
X-2176Y-7261D01*
X-2176Y-7408D01*
X-2250Y-7481D01*
X-2397Y-7481D01*
X-2470Y-7408D01*
X-2617Y-7021D02*
X-2176Y-7021D01*
X-2176Y-6801D01*
X-2250Y-6727D01*
X-2397Y-6727D01*
X-2470Y-6801D01*
X-2470Y-7021D01*
X-2397Y-6560D02*
X-2176Y-6560D01*
X-2397Y-6560D02*
X-2470Y-6487D01*
X-2470Y-6267D01*
X-2543Y-6267D02*
X-2176Y-6267D01*
X-2543Y-6267D02*
X-2617Y-6340D01*
X-2617Y-6414D01*
X-2470Y-6100D02*
X-2176Y-6100D01*
X-2323Y-6100D02*
X-2176Y-5953D01*
X-2176Y-5880D01*
X-2176Y-5716D02*
X-2176Y-5643D01*
X-2470Y-5643D01*
X-2470Y-5716D02*
X-2470Y-5569D01*
X-2030Y-5643D02*
X-1956Y-5643D01*
X-2617Y-5263D02*
X-2617Y-5189D01*
X-2543Y-5116D01*
X-2176Y-5116D01*
X-2176Y-5336D01*
X-2250Y-5409D01*
X-2397Y-5409D01*
X-2470Y-5336D01*
X-2470Y-5116D01*
X-2470Y-4949D02*
X-2030Y-4949D01*
X-2176Y-4876D02*
X-2250Y-4949D01*
X-2176Y-4876D02*
X-2176Y-4729D01*
X-2250Y-4655D01*
X-2470Y-4655D01*
X-2397Y-4415D02*
X-2103Y-4415D01*
X-2397Y-4415D02*
X-2470Y-4342D01*
X-2176Y-4342D02*
X-2176Y-4489D01*
X-2470Y-2800D02*
X-2470Y-2507D01*
X-2470Y-2800D02*
X-2176Y-2507D01*
X-2103Y-2507D01*
X-2030Y-2580D01*
X-2030Y-2727D01*
X-2103Y-2800D01*
X-2103Y-2340D02*
X-2397Y-2340D01*
X-2103Y-2340D02*
X-2030Y-2267D01*
X-2030Y-2120D01*
X-2103Y-2046D01*
X-2397Y-2046D01*
X-2470Y-2120D01*
X-2470Y-2267D01*
X-2397Y-2340D01*
X-2103Y-2046D01*
X-2470Y-1880D02*
X-2470Y-1586D01*
X-2470Y-1880D02*
X-2176Y-1586D01*
X-2103Y-1586D01*
X-2030Y-1659D01*
X-2030Y-1806D01*
X-2103Y-1880D01*
X-2103Y-1419D02*
X-2397Y-1419D01*
X-2103Y-1419D02*
X-2030Y-1346D01*
X-2030Y-1199D01*
X-2103Y-1126D01*
X-2397Y-1126D01*
X-2470Y-1199D01*
X-2470Y-1346D01*
X-2397Y-1419D01*
X-2103Y-1126D01*
X-2780Y-6829D02*
X-3220Y-6829D01*
X-2780Y-6829D02*
X-2780Y-6609D01*
X-2853Y-6535D01*
X-2926Y-6535D01*
X-3000Y-6609D01*
X-3073Y-6535D01*
X-3147Y-6535D01*
X-3220Y-6609D01*
X-3220Y-6829D01*
X-3000Y-6829D02*
X-3000Y-6609D01*
X-2926Y-6369D02*
X-3220Y-6369D01*
X-3073Y-6369D02*
X-2926Y-6222D01*
X-2926Y-6148D01*
X-2926Y-5911D02*
X-2926Y-5765D01*
X-3000Y-5691D01*
X-3220Y-5691D01*
X-3220Y-5911D01*
X-3147Y-5985D01*
X-3073Y-5911D01*
X-3073Y-5691D01*
X-2926Y-5524D02*
X-2926Y-5451D01*
X-3220Y-5451D01*
X-3220Y-5524D02*
X-3220Y-5378D01*
X-2780Y-5451D02*
X-2706Y-5451D01*
X-2926Y-5218D02*
X-3220Y-5218D01*
X-2926Y-5218D02*
X-2926Y-4997D01*
X-3000Y-4924D01*
X-3220Y-4924D01*
X-3367Y-4610D02*
X-3367Y-4537D01*
X-3293Y-4464D01*
X-2926Y-4464D01*
X-2926Y-4684D01*
X-3000Y-4757D01*
X-3147Y-4757D01*
X-3220Y-4684D01*
X-3220Y-4464D01*
X-3220Y-4223D02*
X-3220Y-4077D01*
X-3220Y-4223D02*
X-3147Y-4297D01*
X-3000Y-4297D01*
X-2926Y-4223D01*
X-2926Y-4077D01*
X-3000Y-4003D01*
X-3073Y-4003D01*
X-3073Y-4297D01*
X-3220Y-3836D02*
X-2926Y-3836D01*
X-2926Y-3616D01*
X-3000Y-3543D01*
X-3220Y-3543D01*
X-3220Y-3303D02*
X-3220Y-3156D01*
X-3220Y-3303D02*
X-3147Y-3376D01*
X-3000Y-3376D01*
X-2926Y-3303D01*
X-2926Y-3156D01*
X-3000Y-3082D01*
X-3073Y-3082D01*
X-3073Y-3376D01*
X-3220Y-2842D02*
X-3220Y-2695D01*
X-3220Y-2842D02*
X-3147Y-2916D01*
X-3000Y-2916D01*
X-2926Y-2842D01*
X-2926Y-2695D01*
X-3000Y-2622D01*
X-3073Y-2622D01*
X-3073Y-2916D01*
X-3220Y-2455D02*
X-2926Y-2455D01*
X-3073Y-2455D02*
X-2926Y-2308D01*
X-2926Y-2235D01*
X-3220Y-2072D02*
X-3220Y-1851D01*
X-3147Y-1778D01*
X-3073Y-1851D01*
X-3073Y-1998D01*
X-3000Y-2072D01*
X-2926Y-1998D01*
X-2926Y-1778D01*
D11*
X1112Y-3951D03*
D12*
X2984Y-3951D03*
D11*
X1117Y-3946D03*
X2982Y-3946D03*
X1122Y-3941D03*
X2977Y-3941D03*
X1127Y-3936D03*
X2972Y-3936D03*
X1132Y-3931D03*
X2967Y-3931D03*
X1137Y-3926D03*
X2962Y-3926D03*
X1142Y-3921D03*
X2957Y-3921D03*
X1147Y-3916D03*
D12*
X2954Y-3916D03*
D11*
X1152Y-3911D03*
D12*
X2949Y-3911D03*
D11*
X1157Y-3906D03*
D12*
X2944Y-3906D03*
D11*
X1162Y-3901D03*
D12*
X2939Y-3901D03*
D11*
X1167Y-3896D03*
D12*
X2934Y-3896D03*
D11*
X1172Y-3891D03*
D12*
X2929Y-3891D03*
D11*
X1177Y-3886D03*
D12*
X2924Y-3886D03*
D11*
X1182Y-3881D03*
D12*
X2919Y-3881D03*
D11*
X1187Y-3876D03*
X2917Y-3876D03*
X1192Y-3871D03*
X2912Y-3871D03*
X1197Y-3866D03*
X2907Y-3866D03*
X1202Y-3861D03*
X2902Y-3861D03*
X1207Y-3856D03*
X2897Y-3856D03*
X1212Y-3851D03*
X2892Y-3851D03*
X1217Y-3846D03*
X2887Y-3846D03*
X1222Y-3841D03*
X2882Y-3841D03*
X1227Y-3836D03*
X2877Y-3836D03*
X1232Y-3831D03*
X2872Y-3831D03*
X1237Y-3826D03*
X2867Y-3826D03*
X1242Y-3821D03*
D12*
X2864Y-3821D03*
D11*
X1247Y-3816D03*
D12*
X2859Y-3816D03*
D11*
X1252Y-3811D03*
D12*
X2854Y-3811D03*
D11*
X1257Y-3806D03*
D12*
X2849Y-3806D03*
D11*
X1262Y-3801D03*
D12*
X2844Y-3801D03*
D11*
X1267Y-3796D03*
D12*
X2839Y-3796D03*
X1269Y-3791D03*
X2834Y-3791D03*
X1274Y-3786D03*
X2829Y-3786D03*
X1279Y-3781D03*
D13*
X1802Y-3781D03*
D14*
X2437Y-3781D03*
D11*
X2827Y-3781D03*
D12*
X1284Y-3776D03*
D13*
X1802Y-3776D03*
D15*
X2434Y-3776D03*
D11*
X2822Y-3776D03*
D12*
X1289Y-3771D03*
D13*
X1802Y-3771D03*
D16*
X2437Y-3771D03*
D11*
X2817Y-3771D03*
D12*
X1294Y-3766D03*
D13*
X1802Y-3766D03*
D17*
X2434Y-3766D03*
D11*
X2812Y-3766D03*
D12*
X1299Y-3761D03*
D13*
X1802Y-3761D03*
D18*
X2434Y-3761D03*
D11*
X2807Y-3761D03*
D12*
X1304Y-3756D03*
D13*
X1802Y-3756D03*
D19*
X2434Y-3756D03*
D11*
X2802Y-3756D03*
D12*
X1309Y-3751D03*
D13*
X1802Y-3751D03*
D20*
X2434Y-3751D03*
D11*
X2797Y-3751D03*
D12*
X1314Y-3746D03*
D13*
X1802Y-3746D03*
D21*
X2437Y-3746D03*
D11*
X2792Y-3746D03*
D12*
X1319Y-3741D03*
D13*
X1802Y-3741D03*
D22*
X2434Y-3741D03*
D11*
X2787Y-3741D03*
D12*
X1324Y-3736D03*
D13*
X1802Y-3736D03*
D23*
X2434Y-3736D03*
D11*
X2782Y-3736D03*
X1327Y-3731D03*
D13*
X1802Y-3731D03*
D24*
X2434Y-3731D03*
D11*
X2777Y-3731D03*
X1332Y-3726D03*
D13*
X1802Y-3726D03*
D25*
X2434Y-3726D03*
D12*
X2774Y-3726D03*
D11*
X1337Y-3721D03*
D13*
X1802Y-3721D03*
D25*
X2434Y-3721D03*
D12*
X2769Y-3721D03*
D11*
X1342Y-3716D03*
D13*
X1802Y-3716D03*
D26*
X2434Y-3716D03*
D12*
X2764Y-3716D03*
D11*
X1347Y-3711D03*
D13*
X1802Y-3711D03*
D27*
X2434Y-3711D03*
D12*
X2759Y-3711D03*
D11*
X1352Y-3706D03*
D13*
X1802Y-3706D03*
D28*
X2434Y-3706D03*
D12*
X2754Y-3706D03*
D11*
X1357Y-3701D03*
D13*
X1802Y-3701D03*
D29*
X2352Y-3701D03*
X2517Y-3701D03*
D12*
X2749Y-3701D03*
D11*
X1362Y-3696D03*
D15*
X1804Y-3696D03*
D30*
X2342Y-3696D03*
X2527Y-3696D03*
D12*
X2744Y-3696D03*
D11*
X1367Y-3691D03*
D31*
X2067Y-3691D03*
D13*
X2532Y-3691D03*
D12*
X2739Y-3691D03*
D11*
X1372Y-3686D03*
D31*
X2057Y-3686D03*
D32*
X2539Y-3686D03*
D12*
X2734Y-3686D03*
D11*
X1377Y-3681D03*
D31*
X2052Y-3681D03*
D33*
X2542Y-3681D03*
D11*
X2732Y-3681D03*
X1382Y-3676D03*
D34*
X2049Y-3676D03*
D33*
X2547Y-3676D03*
D11*
X2727Y-3676D03*
X1387Y-3671D03*
D34*
X2044Y-3671D03*
D35*
X2434Y-3671D03*
D36*
X2549Y-3671D03*
D11*
X2722Y-3671D03*
X1392Y-3666D03*
D37*
X2042Y-3666D03*
D38*
X2434Y-3666D03*
D39*
X2552Y-3666D03*
D11*
X2717Y-3666D03*
X1397Y-3661D03*
D40*
X2039Y-3661D03*
D12*
X2434Y-3661D03*
D39*
X2557Y-3661D03*
D11*
X2712Y-3661D03*
X1402Y-3656D03*
D40*
X2039Y-3656D03*
D41*
X2434Y-3656D03*
D39*
X2557Y-3656D03*
D11*
X2707Y-3656D03*
X1407Y-3651D03*
D42*
X2037Y-3651D03*
D43*
X2434Y-3651D03*
X2559Y-3651D03*
D11*
X2702Y-3651D03*
X1412Y-3646D03*
D42*
X2037Y-3646D03*
D36*
X2434Y-3646D03*
D43*
X2559Y-3646D03*
D11*
X2697Y-3646D03*
X1417Y-3641D03*
D42*
X2032Y-3641D03*
D32*
X2434Y-3641D03*
D43*
X2564Y-3641D03*
D11*
X2692Y-3641D03*
X1422Y-3636D03*
D42*
X2032Y-3636D03*
D32*
X2434Y-3636D03*
D43*
X2564Y-3636D03*
D11*
X2687Y-3636D03*
X1427Y-3631D03*
D44*
X1747Y-3631D03*
D43*
X2304Y-3631D03*
D13*
X2437Y-3631D03*
D43*
X2564Y-3631D03*
D12*
X2684Y-3631D03*
D11*
X1432Y-3626D03*
D44*
X1747Y-3626D03*
D43*
X2304Y-3626D03*
D15*
X2434Y-3626D03*
D43*
X2564Y-3626D03*
D12*
X2679Y-3626D03*
D11*
X1437Y-3621D03*
D44*
X1747Y-3621D03*
D43*
X2304Y-3621D03*
D15*
X2434Y-3621D03*
D43*
X2564Y-3621D03*
D12*
X2674Y-3621D03*
D11*
X1442Y-3616D03*
D44*
X1747Y-3616D03*
D43*
X2304Y-3616D03*
D15*
X2434Y-3616D03*
D43*
X2564Y-3616D03*
D12*
X2669Y-3616D03*
D11*
X1447Y-3611D03*
D44*
X1747Y-3611D03*
D43*
X2304Y-3611D03*
D15*
X2434Y-3611D03*
D14*
X2567Y-3611D03*
D12*
X2664Y-3611D03*
D11*
X1452Y-3606D03*
D44*
X1747Y-3606D03*
D43*
X2304Y-3606D03*
D15*
X2434Y-3606D03*
D43*
X2564Y-3606D03*
D12*
X2659Y-3606D03*
D11*
X1457Y-3601D03*
D44*
X1747Y-3601D03*
D43*
X2304Y-3601D03*
D15*
X2434Y-3601D03*
D43*
X2564Y-3601D03*
D12*
X2654Y-3601D03*
D11*
X1462Y-3596D03*
D44*
X1747Y-3596D03*
D43*
X2304Y-3596D03*
D15*
X2434Y-3596D03*
D43*
X2564Y-3596D03*
D12*
X2649Y-3596D03*
D11*
X1467Y-3591D03*
D44*
X1747Y-3591D03*
D43*
X2304Y-3591D03*
D32*
X2434Y-3591D03*
D43*
X2564Y-3591D03*
D12*
X2644Y-3591D03*
D11*
X1472Y-3586D03*
D44*
X1747Y-3586D03*
D43*
X2304Y-3586D03*
D32*
X2434Y-3586D03*
D45*
X2597Y-3586D03*
D11*
X1477Y-3581D03*
D44*
X1742Y-3581D03*
D43*
X2309Y-3581D03*
D36*
X2434Y-3581D03*
D46*
X2594Y-3581D03*
D11*
X1482Y-3576D03*
D44*
X1742Y-3576D03*
D43*
X2309Y-3576D03*
D39*
X2437Y-3576D03*
D45*
X2592Y-3576D03*
D11*
X1487Y-3571D03*
D44*
X1742Y-3571D03*
D39*
X2312Y-3571D03*
D43*
X2434Y-3571D03*
D45*
X2587Y-3571D03*
D11*
X1492Y-3566D03*
D44*
X1742Y-3566D03*
D39*
X2312Y-3566D03*
D12*
X2434Y-3566D03*
D47*
X2584Y-3566D03*
D11*
X1497Y-3561D03*
D44*
X1742Y-3561D03*
D39*
X2317Y-3561D03*
D48*
X2434Y-3561D03*
D47*
X2579Y-3561D03*
D11*
X1502Y-3556D03*
D44*
X1742Y-3556D03*
D36*
X2319Y-3556D03*
D49*
X2434Y-3556D03*
D47*
X2574Y-3556D03*
D11*
X1507Y-3551D03*
D44*
X1742Y-3551D03*
D33*
X2322Y-3551D03*
D16*
X2572Y-3551D03*
D11*
X1512Y-3546D03*
D44*
X1742Y-3546D03*
D33*
X2327Y-3546D03*
D16*
X2567Y-3546D03*
D11*
X1517Y-3541D03*
D44*
X1742Y-3541D03*
D32*
X2329Y-3541D03*
D47*
X2559Y-3541D03*
D11*
X1522Y-3536D03*
D44*
X1742Y-3536D03*
D32*
X2334Y-3536D03*
D47*
X2554Y-3536D03*
D11*
X1527Y-3531D03*
D44*
X1742Y-3531D03*
D15*
X2339Y-3531D03*
D45*
X2547Y-3531D03*
D11*
X1532Y-3526D03*
D12*
X1739Y-3526D03*
D50*
X2349Y-3526D03*
D51*
X2537Y-3526D03*
D11*
X1537Y-3521D03*
D44*
X1737Y-3521D03*
D52*
X2449Y-3521D03*
D12*
X1539Y-3516D03*
D44*
X1737Y-3516D03*
D53*
X2449Y-3516D03*
D12*
X1544Y-3511D03*
D44*
X1737Y-3511D03*
D54*
X2449Y-3511D03*
D12*
X1549Y-3506D03*
D44*
X1737Y-3506D03*
D55*
X2447Y-3506D03*
D12*
X1554Y-3501D03*
D44*
X1737Y-3501D03*
D56*
X2447Y-3501D03*
D12*
X1559Y-3496D03*
D44*
X1737Y-3496D03*
D57*
X2447Y-3496D03*
D12*
X1564Y-3491D03*
D44*
X1737Y-3491D03*
D58*
X2447Y-3491D03*
D12*
X1569Y-3486D03*
D44*
X1737Y-3486D03*
D59*
X2447Y-3486D03*
D12*
X1574Y-3481D03*
D44*
X1737Y-3481D03*
D24*
X2449Y-3481D03*
D12*
X1579Y-3476D03*
D44*
X1737Y-3476D03*
D23*
X2449Y-3476D03*
D12*
X1584Y-3471D03*
D44*
X1737Y-3471D03*
D60*
X2452Y-3471D03*
D12*
X1589Y-3466D03*
X1734Y-3466D03*
D21*
X2452Y-3466D03*
D12*
X1594Y-3461D03*
D44*
X1732Y-3461D03*
D20*
X2454Y-3461D03*
D12*
X1599Y-3456D03*
D44*
X1732Y-3456D03*
D61*
X2457Y-3456D03*
D12*
X1604Y-3451D03*
D44*
X1732Y-3451D03*
D62*
X2462Y-3451D03*
D12*
X1609Y-3446D03*
D44*
X1732Y-3446D03*
D45*
X2467Y-3446D03*
D11*
X1612Y-3441D03*
D44*
X1732Y-3441D03*
D50*
X2474Y-3441D03*
D11*
X1617Y-3436D03*
D44*
X1732Y-3436D03*
D15*
X2474Y-3436D03*
D11*
X1622Y-3431D03*
D44*
X1732Y-3431D03*
D13*
X2472Y-3431D03*
D11*
X1627Y-3426D03*
D44*
X1732Y-3426D03*
D32*
X2469Y-3426D03*
D11*
X1632Y-3421D03*
D44*
X1732Y-3421D03*
D33*
X2467Y-3421D03*
D11*
X1637Y-3416D03*
D44*
X1732Y-3416D03*
D36*
X2464Y-3416D03*
D11*
X1642Y-3411D03*
D44*
X1732Y-3411D03*
D39*
X2462Y-3411D03*
D11*
X1647Y-3406D03*
D44*
X1727Y-3406D03*
D43*
X2459Y-3406D03*
D11*
X1652Y-3401D03*
D44*
X1727Y-3401D03*
D14*
X2457Y-3401D03*
D11*
X1657Y-3396D03*
D44*
X1727Y-3396D03*
D41*
X2454Y-3396D03*
D29*
X1692Y-3391D03*
D11*
X2452Y-3391D03*
D50*
X1694Y-3386D03*
D12*
X2449Y-3386D03*
D30*
X1697Y-3381D03*
D11*
X2447Y-3381D03*
D15*
X1699Y-3376D03*
D41*
X2444Y-3376D03*
D13*
X1702Y-3371D03*
D14*
X2442Y-3371D03*
D32*
X1704Y-3366D03*
D43*
X2439Y-3366D03*
D33*
X1707Y-3361D03*
D39*
X2437Y-3361D03*
D36*
X1709Y-3356D03*
X2434Y-3356D03*
D39*
X1712Y-3351D03*
D33*
X2432Y-3351D03*
D14*
X1712Y-3346D03*
D32*
X2429Y-3346D03*
D41*
X1714Y-3341D03*
D32*
X2429Y-3341D03*
D11*
X1717Y-3336D03*
D15*
X2429Y-3336D03*
D11*
X1722Y-3331D03*
D30*
X2427Y-3331D03*
D11*
X1727Y-3326D03*
D50*
X2424Y-3326D03*
D41*
X1729Y-3321D03*
D12*
X2389Y-3321D03*
D44*
X2457Y-3321D03*
D14*
X1732Y-3316D03*
D12*
X2384Y-3316D03*
D44*
X2457Y-3316D03*
D43*
X1734Y-3311D03*
D12*
X2379Y-3311D03*
D44*
X2457Y-3311D03*
D39*
X1737Y-3306D03*
D12*
X2374Y-3306D03*
D44*
X2457Y-3306D03*
D36*
X1739Y-3301D03*
D12*
X2369Y-3301D03*
D44*
X2457Y-3301D03*
D33*
X1742Y-3296D03*
D12*
X2364Y-3296D03*
D44*
X2457Y-3296D03*
D13*
X1742Y-3291D03*
D12*
X2359Y-3291D03*
D44*
X2457Y-3291D03*
D15*
X1744Y-3286D03*
D11*
X2357Y-3286D03*
D44*
X2457Y-3286D03*
D30*
X1747Y-3281D03*
D11*
X2352Y-3281D03*
D12*
X2459Y-3281D03*
D50*
X1749Y-3276D03*
D11*
X2347Y-3276D03*
D44*
X2462Y-3276D03*
D29*
X1752Y-3271D03*
D11*
X2342Y-3271D03*
D44*
X2462Y-3271D03*
X1717Y-3266D03*
D11*
X1787Y-3266D03*
X2337Y-3266D03*
D44*
X2462Y-3266D03*
X1717Y-3261D03*
D11*
X1792Y-3261D03*
X2332Y-3261D03*
D44*
X2462Y-3261D03*
X1717Y-3256D03*
D11*
X1797Y-3256D03*
X2327Y-3256D03*
D44*
X2462Y-3256D03*
X1717Y-3251D03*
D11*
X1802Y-3251D03*
X2322Y-3251D03*
D44*
X2462Y-3251D03*
X1717Y-3246D03*
D11*
X1807Y-3246D03*
D12*
X2319Y-3246D03*
D44*
X2462Y-3246D03*
X1717Y-3241D03*
D12*
X1809Y-3241D03*
X2314Y-3241D03*
D44*
X2462Y-3241D03*
X1717Y-3236D03*
D12*
X1814Y-3236D03*
X2309Y-3236D03*
D44*
X2462Y-3236D03*
X1712Y-3231D03*
D12*
X1819Y-3231D03*
X2304Y-3231D03*
D44*
X2462Y-3231D03*
X1712Y-3226D03*
D12*
X1824Y-3226D03*
X2299Y-3226D03*
D44*
X2467Y-3226D03*
X1712Y-3221D03*
D12*
X1829Y-3221D03*
X2294Y-3221D03*
D44*
X2467Y-3221D03*
X1712Y-3216D03*
D12*
X1834Y-3216D03*
X2289Y-3216D03*
D44*
X2467Y-3216D03*
X1712Y-3211D03*
D12*
X1839Y-3211D03*
X2284Y-3211D03*
D44*
X2467Y-3211D03*
X1712Y-3206D03*
D12*
X1844Y-3206D03*
X2279Y-3206D03*
D44*
X2467Y-3206D03*
X1712Y-3201D03*
D12*
X1849Y-3201D03*
X2274Y-3201D03*
D44*
X2467Y-3201D03*
X1712Y-3196D03*
D12*
X1854Y-3196D03*
X2269Y-3196D03*
D44*
X2467Y-3196D03*
X1712Y-3191D03*
D12*
X1859Y-3191D03*
X2264Y-3191D03*
D44*
X2467Y-3191D03*
X1712Y-3186D03*
D12*
X1864Y-3186D03*
D11*
X2262Y-3186D03*
D44*
X2467Y-3186D03*
X1712Y-3181D03*
D12*
X1869Y-3181D03*
D11*
X2257Y-3181D03*
D44*
X2467Y-3181D03*
D12*
X1709Y-3176D03*
X1874Y-3176D03*
D11*
X2252Y-3176D03*
D44*
X2467Y-3176D03*
X1707Y-3171D03*
D12*
X1879Y-3171D03*
D11*
X2247Y-3171D03*
D44*
X2472Y-3171D03*
X1707Y-3166D03*
D12*
X1884Y-3166D03*
D11*
X2242Y-3166D03*
D44*
X2472Y-3166D03*
X1707Y-3161D03*
D12*
X1889Y-3161D03*
D11*
X2237Y-3161D03*
D44*
X2472Y-3161D03*
X1707Y-3156D03*
D11*
X1892Y-3156D03*
X2232Y-3156D03*
D44*
X2472Y-3156D03*
X1707Y-3151D03*
D11*
X1897Y-3151D03*
D12*
X2229Y-3151D03*
D44*
X2472Y-3151D03*
X1707Y-3146D03*
D11*
X1902Y-3146D03*
D12*
X2224Y-3146D03*
D44*
X2472Y-3146D03*
X1707Y-3141D03*
D11*
X1907Y-3141D03*
D12*
X2219Y-3141D03*
D44*
X2472Y-3141D03*
X1707Y-3136D03*
D11*
X1912Y-3136D03*
D12*
X2214Y-3136D03*
D44*
X2472Y-3136D03*
X1707Y-3131D03*
D11*
X1917Y-3131D03*
D12*
X2209Y-3131D03*
D44*
X2472Y-3131D03*
X1707Y-3126D03*
D11*
X1922Y-3126D03*
D12*
X2204Y-3126D03*
D44*
X2472Y-3126D03*
X1707Y-3121D03*
D11*
X1927Y-3121D03*
D12*
X2199Y-3121D03*
X2474Y-3121D03*
D44*
X1702Y-3116D03*
D11*
X1932Y-3116D03*
D12*
X2194Y-3116D03*
D44*
X2477Y-3116D03*
X1702Y-3111D03*
D11*
X1937Y-3111D03*
D12*
X2189Y-3111D03*
D44*
X2477Y-3111D03*
X1702Y-3106D03*
D11*
X1942Y-3106D03*
D12*
X2184Y-3106D03*
D44*
X2477Y-3106D03*
X1702Y-3101D03*
D11*
X1947Y-3101D03*
D12*
X2179Y-3101D03*
D44*
X2477Y-3101D03*
X1702Y-3096D03*
D11*
X1952Y-3096D03*
D12*
X2174Y-3096D03*
D44*
X2477Y-3096D03*
X1702Y-3091D03*
D11*
X1957Y-3091D03*
D12*
X2169Y-3091D03*
D44*
X2477Y-3091D03*
X1702Y-3086D03*
D11*
X1962Y-3086D03*
X2167Y-3086D03*
D44*
X2477Y-3086D03*
X1702Y-3081D03*
D11*
X1967Y-3081D03*
X2162Y-3081D03*
D44*
X2477Y-3081D03*
X1702Y-3076D03*
D11*
X1972Y-3076D03*
X2157Y-3076D03*
D44*
X2477Y-3076D03*
X1702Y-3071D03*
D11*
X1977Y-3071D03*
X2152Y-3071D03*
D44*
X2477Y-3071D03*
X1702Y-3066D03*
D11*
X1982Y-3066D03*
X2147Y-3066D03*
D12*
X2479Y-3066D03*
X1699Y-3061D03*
D11*
X1987Y-3061D03*
X2142Y-3061D03*
D44*
X2482Y-3061D03*
X1697Y-3056D03*
D11*
X1992Y-3056D03*
X2137Y-3056D03*
D44*
X2482Y-3056D03*
X1697Y-3051D03*
D11*
X1997Y-3051D03*
D12*
X2134Y-3051D03*
D44*
X2482Y-3051D03*
X1697Y-3046D03*
D11*
X2002Y-3046D03*
D12*
X2129Y-3046D03*
D44*
X2482Y-3046D03*
X1697Y-3041D03*
D11*
X2007Y-3041D03*
D12*
X2124Y-3041D03*
D44*
X2482Y-3041D03*
X1697Y-3036D03*
D11*
X2012Y-3036D03*
D12*
X2119Y-3036D03*
D44*
X2482Y-3036D03*
X1697Y-3031D03*
D11*
X2017Y-3031D03*
D12*
X2114Y-3031D03*
D44*
X2482Y-3031D03*
X1697Y-3026D03*
D11*
X2022Y-3026D03*
D12*
X2109Y-3026D03*
D44*
X2482Y-3026D03*
X1697Y-3021D03*
D11*
X2027Y-3021D03*
D12*
X2104Y-3021D03*
D44*
X2482Y-3021D03*
X1697Y-3016D03*
D63*
X2064Y-3016D03*
D44*
X2482Y-3016D03*
X1697Y-3011D03*
D50*
X2064Y-3011D03*
D44*
X2487Y-3011D03*
X1697Y-3006D03*
D15*
X2064Y-3006D03*
D44*
X2487Y-3006D03*
D12*
X1694Y-3001D03*
D32*
X2064Y-3001D03*
D44*
X2487Y-3001D03*
X1692Y-2996D03*
D36*
X2064Y-2996D03*
D44*
X2487Y-2996D03*
X1692Y-2991D03*
D43*
X2064Y-2991D03*
D44*
X2487Y-2991D03*
X1692Y-2986D03*
D14*
X2067Y-2986D03*
D44*
X2487Y-2986D03*
X1692Y-2981D03*
D11*
X2067Y-2981D03*
D44*
X2487Y-2981D03*
X1692Y-2976D03*
D14*
X2067Y-2976D03*
D44*
X2487Y-2976D03*
X1692Y-2971D03*
D39*
X2067Y-2971D03*
D44*
X2487Y-2971D03*
X1692Y-2966D03*
D36*
X2064Y-2966D03*
D44*
X2487Y-2966D03*
X1692Y-2961D03*
D32*
X2064Y-2961D03*
D12*
X2489Y-2961D03*
D44*
X1692Y-2956D03*
D13*
X2067Y-2956D03*
D44*
X2492Y-2956D03*
X1692Y-2951D03*
D30*
X2067Y-2951D03*
D44*
X2492Y-2951D03*
X1692Y-2946D03*
D29*
X2067Y-2946D03*
D44*
X2492Y-2946D03*
X1687Y-2941D03*
D12*
X2029Y-2941D03*
X2104Y-2941D03*
D44*
X2492Y-2941D03*
X1687Y-2936D03*
D12*
X2024Y-2936D03*
X2109Y-2936D03*
D44*
X2492Y-2936D03*
X1687Y-2931D03*
D12*
X2019Y-2931D03*
X2114Y-2931D03*
D44*
X2492Y-2931D03*
X1687Y-2926D03*
D12*
X2014Y-2926D03*
X2119Y-2926D03*
D44*
X2492Y-2926D03*
X1687Y-2921D03*
D12*
X2009Y-2921D03*
X2124Y-2921D03*
D44*
X2492Y-2921D03*
X1687Y-2916D03*
D12*
X2004Y-2916D03*
X2129Y-2916D03*
D44*
X2492Y-2916D03*
X1687Y-2911D03*
D12*
X1999Y-2911D03*
X2134Y-2911D03*
D44*
X2492Y-2911D03*
X1687Y-2906D03*
D12*
X1994Y-2906D03*
X2139Y-2906D03*
X2494Y-2906D03*
D44*
X1687Y-2901D03*
D12*
X1989Y-2901D03*
X2144Y-2901D03*
D44*
X2497Y-2901D03*
X1687Y-2896D03*
D12*
X1984Y-2896D03*
X2149Y-2896D03*
D44*
X2497Y-2896D03*
X1687Y-2891D03*
D12*
X1979Y-2891D03*
X2154Y-2891D03*
D44*
X2497Y-2891D03*
D12*
X1684Y-2886D03*
D11*
X1977Y-2886D03*
D12*
X2159Y-2886D03*
D44*
X2497Y-2886D03*
X1682Y-2881D03*
D11*
X1972Y-2881D03*
D12*
X2164Y-2881D03*
D44*
X2497Y-2881D03*
X1682Y-2876D03*
D11*
X1967Y-2876D03*
D12*
X2169Y-2876D03*
D44*
X2497Y-2876D03*
X1682Y-2871D03*
D11*
X1962Y-2871D03*
D12*
X2174Y-2871D03*
D44*
X2497Y-2871D03*
X1682Y-2866D03*
D11*
X1957Y-2866D03*
X2177Y-2866D03*
D44*
X2497Y-2866D03*
X1682Y-2861D03*
D12*
X1954Y-2861D03*
D11*
X2182Y-2861D03*
D44*
X2497Y-2861D03*
X1682Y-2856D03*
D12*
X1949Y-2856D03*
D11*
X2187Y-2856D03*
D44*
X2497Y-2856D03*
X1682Y-2851D03*
D12*
X1944Y-2851D03*
D11*
X2192Y-2851D03*
D12*
X2499Y-2851D03*
D44*
X1682Y-2846D03*
D12*
X1939Y-2846D03*
D11*
X2197Y-2846D03*
D44*
X2502Y-2846D03*
X1682Y-2841D03*
D12*
X1934Y-2841D03*
D11*
X2202Y-2841D03*
D44*
X2502Y-2841D03*
X1682Y-2836D03*
D12*
X1929Y-2836D03*
D11*
X2207Y-2836D03*
D44*
X2502Y-2836D03*
X1682Y-2831D03*
D12*
X1924Y-2831D03*
D11*
X2212Y-2831D03*
D44*
X2502Y-2831D03*
X1677Y-2826D03*
D12*
X1919Y-2826D03*
D11*
X2217Y-2826D03*
D44*
X2502Y-2826D03*
X1677Y-2821D03*
D12*
X1914Y-2821D03*
D11*
X2222Y-2821D03*
D44*
X2502Y-2821D03*
X1677Y-2816D03*
D12*
X1909Y-2816D03*
D11*
X2227Y-2816D03*
D44*
X2502Y-2816D03*
X1677Y-2811D03*
D12*
X1904Y-2811D03*
D11*
X2232Y-2811D03*
D44*
X2502Y-2811D03*
X1677Y-2806D03*
D12*
X1899Y-2806D03*
D11*
X2237Y-2806D03*
D44*
X2502Y-2806D03*
X1677Y-2801D03*
D12*
X1894Y-2801D03*
D11*
X2242Y-2801D03*
D44*
X2502Y-2801D03*
X1677Y-2796D03*
D12*
X1889Y-2796D03*
D11*
X2247Y-2796D03*
D44*
X2507Y-2796D03*
X1677Y-2791D03*
D11*
X1887Y-2791D03*
X2252Y-2791D03*
D44*
X2507Y-2791D03*
X1677Y-2786D03*
D11*
X1882Y-2786D03*
X2257Y-2786D03*
D44*
X2507Y-2786D03*
X1677Y-2781D03*
D11*
X1877Y-2781D03*
X2262Y-2781D03*
D44*
X2507Y-2781D03*
X1677Y-2776D03*
D11*
X1872Y-2776D03*
X2267Y-2776D03*
D44*
X2507Y-2776D03*
X1677Y-2771D03*
D11*
X1867Y-2771D03*
X2272Y-2771D03*
D44*
X2507Y-2771D03*
X1672Y-2766D03*
D12*
X1864Y-2766D03*
D11*
X2277Y-2766D03*
D44*
X2507Y-2766D03*
X1672Y-2761D03*
D12*
X1859Y-2761D03*
D11*
X2282Y-2761D03*
D44*
X2507Y-2761D03*
X1672Y-2756D03*
D12*
X1854Y-2756D03*
D11*
X2287Y-2756D03*
D44*
X2507Y-2756D03*
X1672Y-2751D03*
D12*
X1849Y-2751D03*
D11*
X2292Y-2751D03*
D44*
X2507Y-2751D03*
X1672Y-2746D03*
D12*
X1844Y-2746D03*
D11*
X2297Y-2746D03*
D12*
X2509Y-2746D03*
D44*
X1672Y-2741D03*
D12*
X1839Y-2741D03*
D11*
X2302Y-2741D03*
D44*
X2512Y-2741D03*
X1672Y-2736D03*
D12*
X1834Y-2736D03*
D11*
X2307Y-2736D03*
D44*
X2512Y-2736D03*
X1672Y-2731D03*
D12*
X1829Y-2731D03*
D11*
X2312Y-2731D03*
D44*
X2512Y-2731D03*
X1672Y-2726D03*
D12*
X1824Y-2726D03*
D11*
X2317Y-2726D03*
D44*
X2512Y-2726D03*
X1672Y-2721D03*
D12*
X1819Y-2721D03*
D11*
X2322Y-2721D03*
D44*
X2512Y-2721D03*
X1672Y-2716D03*
D12*
X1814Y-2716D03*
D64*
X2169Y-2716D03*
D44*
X2512Y-2716D03*
D12*
X1669Y-2711D03*
X1809Y-2711D03*
D65*
X2169Y-2711D03*
D44*
X2512Y-2711D03*
X1667Y-2706D03*
D12*
X1804Y-2706D03*
D66*
X2172Y-2706D03*
D44*
X2512Y-2706D03*
X1667Y-2701D03*
D12*
X1799Y-2701D03*
D67*
X2174Y-2701D03*
D44*
X2512Y-2701D03*
X1667Y-2696D03*
D12*
X1794Y-2696D03*
D67*
X2174Y-2696D03*
D44*
X2512Y-2696D03*
X1667Y-2691D03*
D11*
X1792Y-2691D03*
D68*
X2177Y-2691D03*
D12*
X2514Y-2691D03*
D44*
X1667Y-2686D03*
D11*
X1787Y-2686D03*
D69*
X2179Y-2686D03*
D44*
X2517Y-2686D03*
X1667Y-2681D03*
D11*
X1782Y-2681D03*
D70*
X2182Y-2681D03*
D44*
X2517Y-2681D03*
X1667Y-2676D03*
D11*
X1777Y-2676D03*
D71*
X2184Y-2676D03*
D44*
X2517Y-2676D03*
X1667Y-2671D03*
D12*
X1774Y-2671D03*
D72*
X2187Y-2671D03*
D44*
X2517Y-2671D03*
X1667Y-2666D03*
D12*
X1769Y-2666D03*
D73*
X2189Y-2666D03*
D44*
X2517Y-2666D03*
X1667Y-2661D03*
D12*
X1764Y-2661D03*
D74*
X2157Y-2661D03*
D12*
X2379Y-2661D03*
D44*
X2517Y-2661D03*
X1667Y-2656D03*
D12*
X1759Y-2656D03*
D74*
X2157Y-2656D03*
D12*
X2384Y-2656D03*
D44*
X2517Y-2656D03*
X1662Y-2651D03*
D12*
X1754Y-2651D03*
D74*
X2157Y-2651D03*
D12*
X2389Y-2651D03*
D44*
X2517Y-2651D03*
X1662Y-2646D03*
D12*
X1749Y-2646D03*
D74*
X2157Y-2646D03*
D12*
X2394Y-2646D03*
D44*
X2517Y-2646D03*
X1662Y-2641D03*
D12*
X1744Y-2641D03*
D74*
X2157Y-2641D03*
D12*
X2399Y-2641D03*
D44*
X2517Y-2641D03*
X1662Y-2636D03*
D12*
X1739Y-2636D03*
D74*
X2157Y-2636D03*
D12*
X2404Y-2636D03*
D44*
X2522Y-2636D03*
X1662Y-2631D03*
D12*
X1734Y-2631D03*
D74*
X2157Y-2631D03*
D12*
X2409Y-2631D03*
D44*
X2522Y-2631D03*
X1662Y-2626D03*
D12*
X1729Y-2626D03*
D74*
X2157Y-2626D03*
D12*
X2414Y-2626D03*
D44*
X2522Y-2626D03*
D50*
X1694Y-2621D03*
D74*
X2157Y-2621D03*
D12*
X2419Y-2621D03*
D44*
X2522Y-2621D03*
D30*
X1692Y-2616D03*
D74*
X2157Y-2616D03*
D12*
X2424Y-2616D03*
D44*
X2522Y-2616D03*
D15*
X1689Y-2611D03*
D74*
X2157Y-2611D03*
D12*
X2429Y-2611D03*
D44*
X2522Y-2611D03*
D13*
X1687Y-2606D03*
D74*
X2157Y-2606D03*
D12*
X2434Y-2606D03*
D44*
X2522Y-2606D03*
D32*
X1684Y-2601D03*
D74*
X2157Y-2601D03*
D12*
X2439Y-2601D03*
D44*
X2522Y-2601D03*
D32*
X1679Y-2596D03*
D12*
X2444Y-2596D03*
D20*
X2589Y-2596D03*
D32*
X1679Y-2591D03*
D12*
X2449Y-2591D03*
D20*
X2589Y-2591D03*
D33*
X1677Y-2586D03*
D58*
X2557Y-2586D03*
D36*
X1674Y-2581D03*
D25*
X2559Y-2581D03*
D39*
X1672Y-2576D03*
D25*
X2559Y-2576D03*
D43*
X1669Y-2571D03*
D59*
X2562Y-2571D03*
D14*
X1667Y-2566D03*
D24*
X2564Y-2566D03*
D41*
X1664Y-2561D03*
D75*
X2567Y-2561D03*
D11*
X1662Y-2556D03*
D23*
X2569Y-2556D03*
D12*
X1659Y-2551D03*
D76*
X2572Y-2551D03*
D12*
X1654Y-2546D03*
D22*
X2574Y-2546D03*
D11*
X1652Y-2541D03*
D36*
X2509Y-2541D03*
D48*
X2664Y-2541D03*
D41*
X1649Y-2536D03*
D39*
X2512Y-2536D03*
D48*
X2664Y-2536D03*
D41*
X1644Y-2531D03*
D39*
X2517Y-2531D03*
D48*
X2664Y-2531D03*
D14*
X1642Y-2526D03*
D43*
X2519Y-2526D03*
D48*
X2664Y-2526D03*
D43*
X1639Y-2521D03*
D14*
X2522Y-2521D03*
D48*
X2664Y-2521D03*
D39*
X1637Y-2516D03*
D41*
X2524Y-2516D03*
D48*
X2664Y-2516D03*
D36*
X1634Y-2511D03*
D41*
X2524Y-2511D03*
D48*
X2664Y-2511D03*
D33*
X1632Y-2506D03*
D14*
X2527Y-2506D03*
D48*
X2664Y-2506D03*
D32*
X1629Y-2501D03*
D43*
X2529Y-2501D03*
D48*
X2664Y-2501D03*
D13*
X1627Y-2496D03*
D39*
X2532Y-2496D03*
D48*
X2664Y-2496D03*
D15*
X1624Y-2491D03*
D36*
X2534Y-2491D03*
D48*
X2664Y-2491D03*
D30*
X1622Y-2486D03*
D33*
X2537Y-2486D03*
D48*
X2664Y-2486D03*
D50*
X1619Y-2481D03*
D32*
X2539Y-2481D03*
D48*
X2664Y-2481D03*
D30*
X1617Y-2476D03*
D13*
X2542Y-2476D03*
D48*
X2664Y-2476D03*
D50*
X1614Y-2471D03*
D15*
X2544Y-2471D03*
D48*
X2664Y-2471D03*
D12*
X1579Y-2466D03*
D44*
X1647Y-2466D03*
D30*
X2547Y-2466D03*
D48*
X2664Y-2466D03*
D12*
X1574Y-2461D03*
D44*
X1647Y-2461D03*
D50*
X2549Y-2461D03*
D48*
X2664Y-2461D03*
D12*
X1569Y-2456D03*
D44*
X1647Y-2456D03*
D29*
X2552Y-2456D03*
D48*
X2664Y-2456D03*
D12*
X1564Y-2451D03*
D44*
X1647Y-2451D03*
D63*
X2554Y-2451D03*
D48*
X2664Y-2451D03*
D12*
X1559Y-2446D03*
D44*
X1647Y-2446D03*
D16*
X2557Y-2446D03*
D48*
X2664Y-2446D03*
D12*
X1554Y-2441D03*
D44*
X1647Y-2441D03*
D20*
X2589Y-2441D03*
D12*
X1549Y-2436D03*
D44*
X1647Y-2436D03*
D20*
X2589Y-2436D03*
D12*
X1544Y-2431D03*
D44*
X1647Y-2431D03*
D20*
X2589Y-2431D03*
D12*
X1539Y-2426D03*
D44*
X1647Y-2426D03*
D20*
X2589Y-2426D03*
D12*
X1534Y-2421D03*
X1644Y-2421D03*
D20*
X2589Y-2421D03*
D12*
X1529Y-2416D03*
D44*
X1642Y-2416D03*
D20*
X2589Y-2416D03*
D12*
X1524Y-2411D03*
D44*
X1642Y-2411D03*
D20*
X2589Y-2411D03*
D12*
X1519Y-2406D03*
D44*
X1642Y-2406D03*
D20*
X2589Y-2406D03*
D12*
X1514Y-2401D03*
D44*
X1642Y-2401D03*
D20*
X2589Y-2401D03*
D12*
X1509Y-2396D03*
D44*
X1642Y-2396D03*
D20*
X2589Y-2396D03*
D11*
X1507Y-2391D03*
D44*
X1642Y-2391D03*
D77*
X2587Y-2391D03*
D11*
X1502Y-2386D03*
D44*
X1642Y-2386D03*
X2542Y-2386D03*
D12*
X2649Y-2386D03*
X1499Y-2381D03*
D44*
X1642Y-2381D03*
X2542Y-2381D03*
D12*
X2654Y-2381D03*
X1494Y-2376D03*
D44*
X1642Y-2376D03*
X2542Y-2376D03*
D12*
X2659Y-2376D03*
X1489Y-2371D03*
D44*
X1642Y-2371D03*
D12*
X2544Y-2371D03*
X2664Y-2371D03*
X1484Y-2366D03*
D44*
X1642Y-2366D03*
X2547Y-2366D03*
D12*
X2669Y-2366D03*
X1479Y-2361D03*
D44*
X1637Y-2361D03*
X2547Y-2361D03*
D12*
X2674Y-2361D03*
X1474Y-2356D03*
D44*
X1637Y-2356D03*
X2547Y-2356D03*
D12*
X2679Y-2356D03*
X1469Y-2351D03*
D44*
X1637Y-2351D03*
X2547Y-2351D03*
D12*
X2684Y-2351D03*
X1464Y-2346D03*
D44*
X1637Y-2346D03*
X2547Y-2346D03*
D12*
X2689Y-2346D03*
X1459Y-2341D03*
D44*
X1637Y-2341D03*
X2547Y-2341D03*
D12*
X2694Y-2341D03*
X1454Y-2336D03*
D44*
X1637Y-2336D03*
X2547Y-2336D03*
D12*
X2699Y-2336D03*
X1449Y-2331D03*
D44*
X1637Y-2331D03*
X2547Y-2331D03*
D12*
X2704Y-2331D03*
X1444Y-2326D03*
D44*
X1637Y-2326D03*
X2547Y-2326D03*
D12*
X2709Y-2326D03*
X1439Y-2321D03*
D44*
X1637Y-2321D03*
X2547Y-2321D03*
D12*
X2714Y-2321D03*
X1434Y-2316D03*
D44*
X1637Y-2316D03*
D12*
X2549Y-2316D03*
X2719Y-2316D03*
X1429Y-2311D03*
D44*
X1637Y-2311D03*
X2552Y-2311D03*
D12*
X2724Y-2311D03*
X1424Y-2306D03*
D44*
X1637Y-2306D03*
X2552Y-2306D03*
D12*
X2729Y-2306D03*
X1419Y-2301D03*
D44*
X1632Y-2301D03*
X2552Y-2301D03*
D78*
X2612Y-2301D03*
D12*
X2734Y-2301D03*
D11*
X1417Y-2296D03*
D79*
X2089Y-2296D03*
D12*
X2739Y-2296D03*
D11*
X1412Y-2291D03*
D80*
X2094Y-2291D03*
D12*
X2744Y-2291D03*
X1409Y-2286D03*
D81*
X2097Y-2286D03*
D11*
X2747Y-2286D03*
D12*
X1404Y-2281D03*
D82*
X2099Y-2281D03*
D11*
X2752Y-2281D03*
D12*
X1399Y-2276D03*
D83*
X2102Y-2276D03*
D11*
X2757Y-2276D03*
D12*
X1394Y-2271D03*
D84*
X2104Y-2271D03*
D11*
X2762Y-2271D03*
D12*
X1389Y-2266D03*
D85*
X2107Y-2266D03*
D11*
X2767Y-2266D03*
D12*
X1384Y-2261D03*
D85*
X2107Y-2261D03*
D11*
X2772Y-2261D03*
D12*
X1379Y-2256D03*
D86*
X2109Y-2256D03*
D11*
X2777Y-2256D03*
D12*
X1374Y-2251D03*
D86*
X2109Y-2251D03*
D11*
X2782Y-2251D03*
D12*
X1369Y-2246D03*
D86*
X2109Y-2246D03*
D11*
X2787Y-2246D03*
D12*
X1364Y-2241D03*
D87*
X2112Y-2241D03*
D11*
X2792Y-2241D03*
D12*
X1359Y-2236D03*
D11*
X1627Y-2236D03*
D32*
X1769Y-2236D03*
D18*
X2604Y-2236D03*
D11*
X2797Y-2236D03*
D12*
X1354Y-2231D03*
X1629Y-2231D03*
D32*
X1769Y-2231D03*
D18*
X2604Y-2231D03*
D11*
X2802Y-2231D03*
D12*
X1349Y-2226D03*
D11*
X1632Y-2226D03*
D32*
X1769Y-2226D03*
D88*
X2602Y-2226D03*
D11*
X2807Y-2226D03*
D12*
X1344Y-2221D03*
X1634Y-2221D03*
D32*
X1769Y-2221D03*
D88*
X2602Y-2221D03*
D11*
X2812Y-2221D03*
D12*
X1339Y-2216D03*
D11*
X1637Y-2216D03*
D32*
X1769Y-2216D03*
D89*
X2599Y-2216D03*
D11*
X2817Y-2216D03*
D12*
X1334Y-2211D03*
D11*
X1642Y-2211D03*
D32*
X1769Y-2211D03*
D61*
X2597Y-2211D03*
D11*
X2822Y-2211D03*
D12*
X1329Y-2206D03*
D41*
X1644Y-2206D03*
D32*
X1769Y-2206D03*
D19*
X2594Y-2206D03*
D11*
X2827Y-2206D03*
D12*
X1324Y-2201D03*
D14*
X1652Y-2201D03*
D32*
X1769Y-2201D03*
D19*
X2589Y-2201D03*
D11*
X2832Y-2201D03*
X1322Y-2196D03*
D14*
X1657Y-2196D03*
D32*
X1769Y-2196D03*
D77*
X2587Y-2196D03*
D11*
X2837Y-2196D03*
X1317Y-2191D03*
D43*
X1659Y-2191D03*
D32*
X1769Y-2191D03*
D20*
X2584Y-2191D03*
D11*
X2842Y-2191D03*
D12*
X1314Y-2186D03*
D39*
X1667Y-2186D03*
D32*
X1769Y-2186D03*
D90*
X2577Y-2186D03*
D11*
X2847Y-2186D03*
D12*
X1309Y-2181D03*
D19*
X1724Y-2181D03*
D28*
X2129Y-2181D03*
D91*
X2574Y-2181D03*
D11*
X2852Y-2181D03*
D12*
X1304Y-2176D03*
D61*
X1727Y-2176D03*
D28*
X2129Y-2176D03*
D21*
X2567Y-2176D03*
D11*
X2857Y-2176D03*
D12*
X1299Y-2171D03*
D89*
X1729Y-2171D03*
D28*
X2129Y-2171D03*
D33*
X2497Y-2171D03*
D30*
X2612Y-2171D03*
D11*
X2862Y-2171D03*
D12*
X1294Y-2166D03*
D88*
X1732Y-2166D03*
D28*
X2129Y-2166D03*
D32*
X2489Y-2166D03*
D13*
X2612Y-2166D03*
D11*
X2867Y-2166D03*
D12*
X1289Y-2161D03*
D18*
X1734Y-2161D03*
D28*
X2129Y-2161D03*
D15*
X2479Y-2161D03*
D33*
X2612Y-2161D03*
D11*
X2872Y-2161D03*
D12*
X1284Y-2156D03*
D62*
X1737Y-2156D03*
D28*
X2129Y-2156D03*
D50*
X2469Y-2156D03*
D39*
X2612Y-2156D03*
D11*
X2877Y-2156D03*
D12*
X1279Y-2151D03*
D17*
X1739Y-2151D03*
D28*
X2129Y-2151D03*
D63*
X2459Y-2151D03*
D11*
X2612Y-2151D03*
X2882Y-2151D03*
D12*
X1274Y-2146D03*
D46*
X1744Y-2146D03*
D28*
X2129Y-2146D03*
D47*
X2449Y-2146D03*
D78*
X2612Y-2146D03*
D12*
X2884Y-2146D03*
X1269Y-2141D03*
D62*
X1757Y-2141D03*
D28*
X2129Y-2141D03*
D46*
X2434Y-2141D03*
D12*
X2889Y-2141D03*
X1264Y-2136D03*
D89*
X1774Y-2136D03*
D28*
X2129Y-2136D03*
D18*
X2419Y-2136D03*
D12*
X2894Y-2136D03*
X1259Y-2131D03*
D20*
X1794Y-2131D03*
D28*
X2129Y-2131D03*
D19*
X2399Y-2131D03*
D12*
X2899Y-2131D03*
X1254Y-2126D03*
D76*
X1817Y-2126D03*
D92*
X2234Y-2126D03*
D12*
X2904Y-2126D03*
X1249Y-2121D03*
D93*
X1874Y-2121D03*
D25*
X2349Y-2121D03*
D12*
X2909Y-2121D03*
X1244Y-2116D03*
D52*
X1879Y-2116D03*
D24*
X2344Y-2116D03*
D12*
X2914Y-2116D03*
X1239Y-2111D03*
D52*
X1879Y-2111D03*
D76*
X2337Y-2111D03*
D12*
X2919Y-2111D03*
X1234Y-2106D03*
D52*
X1879Y-2106D03*
D60*
X2332Y-2106D03*
D12*
X2924Y-2106D03*
X1229Y-2101D03*
D52*
X1879Y-2101D03*
D91*
X2324Y-2101D03*
D12*
X2929Y-2101D03*
D11*
X1227Y-2096D03*
D94*
X2067Y-2096D03*
D12*
X2934Y-2096D03*
X1224Y-2091D03*
D95*
X2059Y-2091D03*
D12*
X2939Y-2091D03*
X1219Y-2086D03*
D96*
X2049Y-2086D03*
D12*
X2944Y-2086D03*
X1214Y-2081D03*
D32*
X1769Y-2081D03*
D97*
X2094Y-2081D03*
D12*
X2949Y-2081D03*
X1209Y-2076D03*
D98*
X2094Y-2076D03*
D12*
X2954Y-2076D03*
X1204Y-2071D03*
D71*
X2094Y-2071D03*
D12*
X2959Y-2071D03*
X1199Y-2066D03*
D99*
X2099Y-2066D03*
D12*
X2964Y-2066D03*
X1194Y-2061D03*
D54*
X2124Y-2061D03*
D12*
X2969Y-2061D03*
X1189Y-2056D03*
D28*
X2129Y-2056D03*
D12*
X2974Y-2056D03*
X1184Y-2051D03*
D28*
X2129Y-2051D03*
D12*
X2979Y-2051D03*
X1179Y-2046D03*
D28*
X2129Y-2046D03*
D12*
X2984Y-2046D03*
X1174Y-2041D03*
D28*
X2129Y-2041D03*
D12*
X2989Y-2041D03*
X1169Y-2036D03*
X2994Y-2036D03*
X1164Y-2031D03*
X2999Y-2031D03*
X1159Y-2026D03*
X3004Y-2026D03*
X1154Y-2021D03*
X3009Y-2021D03*
X1149Y-2016D03*
X3014Y-2016D03*
X1144Y-2011D03*
X3019Y-2011D03*
X1139Y-2006D03*
X3024Y-2006D03*
X1134Y-2001D03*
D11*
X3027Y-2001D03*
D12*
X1134Y-1996D03*
D11*
X3032Y-1996D03*
D12*
X1129Y-1991D03*
D11*
X3037Y-1991D03*
D12*
X1124Y-1986D03*
D11*
X3042Y-1986D03*
D12*
X1119Y-1981D03*
D11*
X3047Y-1981D03*
D12*
X1114Y-1976D03*
D11*
X3052Y-1976D03*
D12*
X1109Y-1971D03*
D11*
X3057Y-1971D03*
D12*
X1104Y-1966D03*
D11*
X3062Y-1966D03*
D12*
X1099Y-1961D03*
D11*
X3067Y-1961D03*
D12*
X1094Y-1956D03*
D11*
X3072Y-1956D03*
D12*
X1089Y-1951D03*
D11*
X3077Y-1951D03*
D12*
X1084Y-1946D03*
D11*
X3082Y-1946D03*
D12*
X1079Y-1941D03*
D11*
X3087Y-1941D03*
D12*
X1074Y-1936D03*
D11*
X3092Y-1936D03*
D12*
X1069Y-1931D03*
D11*
X3097Y-1931D03*
D44*
X1067Y-1926D03*
D11*
X3102Y-1926D03*
D48*
X1064Y-1921D03*
D12*
X3104Y-1921D03*
D100*
X1062Y-1916D03*
D44*
X3107Y-1916D03*
D38*
X1059Y-1911D03*
D48*
X3109Y-1911D03*
D78*
X1057Y-1906D03*
D100*
X3112Y-1906D03*
D101*
X1054Y-1901D03*
D38*
X3114Y-1901D03*
D101*
X1054Y-1896D03*
D78*
X3117Y-1896D03*
D102*
X1052Y-1891D03*
D101*
X3119Y-1891D03*
D49*
X1049Y-1886D03*
D102*
X3122Y-1886D03*
D103*
X1047Y-1881D03*
D49*
X3124Y-1881D03*
D104*
X1044Y-1876D03*
D103*
X3127Y-1876D03*
D105*
X1042Y-1871D03*
D104*
X3129Y-1871D03*
D35*
X1039Y-1866D03*
D105*
X3132Y-1866D03*
D35*
X3134Y-1861D03*
D106*
X2673Y-5538D03*
D105*
X2306Y-5538D03*
D107*
X2398Y-5533D03*
D104*
X1758Y-5533D03*
D35*
X1733Y-5533D03*
D105*
X1431Y-5533D03*
D35*
X1363Y-5533D03*
D108*
X2133Y-5528D03*
D109*
X2136Y-5523D03*
D110*
X2138Y-5518D03*
D111*
X2138Y-5513D03*
D112*
X2143Y-5508D03*
D113*
X2148Y-5503D03*
D114*
X2151Y-5498D03*
D115*
X2151Y-5493D03*
D116*
X2156Y-5488D03*
D117*
X2158Y-5483D03*
D118*
X2161Y-5478D03*
D119*
X2166Y-5473D03*
D120*
X2168Y-5468D03*
D121*
X2171Y-5463D03*
D122*
X2173Y-5458D03*
D123*
X2176Y-5453D03*
D124*
X2608Y-5448D03*
D125*
X1803Y-5448D03*
D126*
X2716Y-5443D03*
D89*
X2358Y-5443D03*
D127*
X1803Y-5443D03*
D126*
X2716Y-5438D03*
D49*
X2433Y-5438D03*
D47*
X2343Y-5438D03*
D128*
X1803Y-5438D03*
D129*
X2716Y-5433D03*
D49*
X2433Y-5433D03*
D50*
X2338Y-5433D03*
D14*
X2156Y-5433D03*
D35*
X2083Y-5433D03*
D96*
X1743Y-5433D03*
D130*
X2718Y-5428D03*
D103*
X2431Y-5428D03*
D15*
X2338Y-5428D03*
D12*
X2158Y-5428D03*
D31*
X1746Y-5428D03*
D131*
X2716Y-5423D03*
D104*
X2433Y-5423D03*
D32*
X2338Y-5423D03*
D48*
X2158Y-5423D03*
D42*
X1746Y-5423D03*
D98*
X2713Y-5418D03*
D103*
X2436Y-5418D03*
D33*
X2336Y-5418D03*
D48*
X2158Y-5418D03*
D132*
X1748Y-5418D03*
D133*
X2716Y-5413D03*
D104*
X2433Y-5413D03*
D33*
X2331Y-5413D03*
D38*
X2158Y-5413D03*
D134*
X1748Y-5413D03*
D135*
X2713Y-5408D03*
D104*
X2433Y-5408D03*
D36*
X2328Y-5408D03*
D78*
X2156Y-5408D03*
D136*
X1751Y-5408D03*
D137*
X2713Y-5403D03*
D105*
X2436Y-5403D03*
D39*
X2326Y-5403D03*
D101*
X2153Y-5403D03*
D138*
X1756Y-5403D03*
D137*
X2713Y-5398D03*
D104*
X2438Y-5398D03*
D39*
X2326Y-5398D03*
D101*
X2153Y-5398D03*
D139*
X1758Y-5398D03*
D140*
X2713Y-5393D03*
D103*
X2436Y-5393D03*
D39*
X2326Y-5393D03*
D101*
X2153Y-5393D03*
D141*
X1763Y-5393D03*
D140*
X2713Y-5388D03*
D104*
X2438Y-5388D03*
D39*
X2321Y-5388D03*
D102*
X2151Y-5388D03*
D142*
X1766Y-5388D03*
D143*
X2711Y-5383D03*
D104*
X2443Y-5383D03*
D12*
X2333Y-5383D03*
D103*
X2286Y-5383D03*
D102*
X2151Y-5383D03*
D144*
X1768Y-5383D03*
D143*
X2711Y-5378D03*
D104*
X2443Y-5378D03*
D44*
X2336Y-5378D03*
D103*
X2286Y-5378D03*
D102*
X2146Y-5378D03*
D145*
X1776Y-5378D03*
D35*
X1178Y-5378D03*
D146*
X2711Y-5373D03*
D103*
X2441Y-5373D03*
D48*
X2333Y-5373D03*
D103*
X2286Y-5373D03*
D102*
X2141Y-5373D03*
D147*
X1781Y-5373D03*
D104*
X1183Y-5373D03*
D146*
X2711Y-5368D03*
D103*
X2446Y-5368D03*
D48*
X2333Y-5368D03*
D103*
X2281Y-5368D03*
D102*
X2141Y-5368D03*
D148*
X1783Y-5368D03*
D49*
X1188Y-5368D03*
D73*
X2708Y-5363D03*
D103*
X2446Y-5363D03*
D100*
X2336Y-5363D03*
D103*
X2281Y-5363D03*
D101*
X2138Y-5363D03*
D92*
X1788Y-5363D03*
D49*
X1193Y-5363D03*
D72*
X2706Y-5358D03*
D103*
X2446Y-5358D03*
D100*
X2336Y-5358D03*
D49*
X2278Y-5358D03*
D102*
X2136Y-5358D03*
D129*
X1791Y-5358D03*
D49*
X1198Y-5358D03*
D72*
X2706Y-5353D03*
D104*
X2448Y-5353D03*
D100*
X2336Y-5353D03*
D49*
X2278Y-5353D03*
D78*
X2131Y-5353D03*
D130*
X1798Y-5353D03*
D78*
X1206Y-5353D03*
D70*
X2706Y-5348D03*
D104*
X2448Y-5348D03*
D100*
X2336Y-5348D03*
D103*
X2276Y-5348D03*
D78*
X2126Y-5348D03*
D102*
X2031Y-5348D03*
D72*
X1776Y-5348D03*
D38*
X1213Y-5348D03*
D69*
X2703Y-5343D03*
D103*
X2451Y-5343D03*
D100*
X2336Y-5343D03*
D103*
X2271Y-5343D03*
D38*
X2123Y-5343D03*
D101*
X2033Y-5343D03*
D69*
X1778Y-5343D03*
D100*
X1221Y-5343D03*
D69*
X2703Y-5338D03*
D103*
X2451Y-5338D03*
D100*
X2336Y-5338D03*
D103*
X2271Y-5338D03*
D78*
X2121Y-5338D03*
D101*
X2033Y-5338D03*
D66*
X1781Y-5338D03*
D48*
X1223Y-5338D03*
D68*
X2701Y-5333D03*
D103*
X2451Y-5333D03*
D100*
X2336Y-5333D03*
D49*
X2268Y-5333D03*
D78*
X2121Y-5333D03*
D102*
X2041Y-5333D03*
D64*
X1783Y-5333D03*
D44*
X1231Y-5333D03*
D67*
X2703Y-5328D03*
D104*
X2453Y-5328D03*
D100*
X2336Y-5328D03*
D103*
X2266Y-5328D03*
D38*
X2118Y-5328D03*
D102*
X2041Y-5328D03*
D149*
X1786Y-5328D03*
D11*
X1236Y-5328D03*
D66*
X2701Y-5323D03*
D104*
X2453Y-5323D03*
D100*
X2336Y-5323D03*
D103*
X2266Y-5323D03*
D100*
X2116Y-5323D03*
D101*
X2043Y-5323D03*
D74*
X1786Y-5323D03*
D11*
X1241Y-5323D03*
D66*
X2701Y-5318D03*
D103*
X2456Y-5318D03*
D100*
X2336Y-5318D03*
D49*
X2263Y-5318D03*
D100*
X2116Y-5318D03*
D101*
X2048Y-5318D03*
D150*
X1793Y-5318D03*
D14*
X1246Y-5318D03*
D66*
X2696Y-5313D03*
D102*
X2461Y-5313D03*
D48*
X2333Y-5313D03*
D49*
X2258Y-5313D03*
D12*
X2118Y-5313D03*
D101*
X2048Y-5313D03*
D151*
X1796Y-5313D03*
D43*
X1253Y-5313D03*
D152*
X2673Y-5308D03*
D48*
X2333Y-5308D03*
D103*
X2256Y-5308D03*
D102*
X2141Y-5308D03*
D101*
X2098Y-5308D03*
X2053Y-5308D03*
D153*
X1801Y-5308D03*
D39*
X1261Y-5308D03*
D73*
X2673Y-5303D03*
D48*
X2333Y-5303D03*
D49*
X2253Y-5303D03*
X2143Y-5303D03*
D41*
X2078Y-5303D03*
D52*
X1803Y-5303D03*
D36*
X1263Y-5303D03*
D71*
X2673Y-5298D03*
D44*
X2336Y-5298D03*
D103*
X2251Y-5298D03*
D102*
X2151Y-5298D03*
D41*
X2078Y-5298D03*
D154*
X1806Y-5298D03*
D33*
X1271Y-5298D03*
D155*
X2698Y-5293D03*
D12*
X2333Y-5293D03*
D102*
X2246Y-5293D03*
D101*
X2153Y-5293D03*
D44*
X2076Y-5293D03*
D55*
X1811Y-5293D03*
D13*
X1276Y-5293D03*
D156*
X2701Y-5288D03*
D12*
X2333Y-5288D03*
D101*
X2238Y-5288D03*
D78*
X2161Y-5288D03*
D44*
X2076Y-5288D03*
D28*
X1813Y-5288D03*
D13*
X1281Y-5288D03*
D156*
X2701Y-5283D03*
D12*
X2333Y-5283D03*
D33*
X2201Y-5283D03*
D48*
X2078Y-5283D03*
D27*
X1818Y-5283D03*
D50*
X1288Y-5283D03*
D157*
X2701Y-5278D03*
D11*
X2336Y-5278D03*
D43*
X2203Y-5278D03*
D38*
X2078Y-5278D03*
D57*
X1826Y-5278D03*
D29*
X1296Y-5278D03*
D158*
X2698Y-5273D03*
D41*
X2333Y-5273D03*
D44*
X2206Y-5273D03*
D38*
X2078Y-5273D03*
D58*
X1831Y-5273D03*
D63*
X1303Y-5273D03*
D158*
X2698Y-5268D03*
D41*
X2333Y-5268D03*
D101*
X2208Y-5268D03*
X2078Y-5268D03*
D25*
X1838Y-5268D03*
D16*
X1306Y-5268D03*
D151*
X2696Y-5263D03*
D41*
X2333Y-5263D03*
D78*
X2076Y-5263D03*
D24*
X1843Y-5263D03*
D47*
X1313Y-5263D03*
D151*
X2696Y-5258D03*
D14*
X2336Y-5258D03*
D101*
X2073Y-5258D03*
D75*
X1846Y-5258D03*
D45*
X1316Y-5258D03*
D153*
X2696Y-5253D03*
D14*
X2336Y-5253D03*
D78*
X2071Y-5253D03*
D23*
X1853Y-5253D03*
D46*
X1323Y-5253D03*
D153*
X2696Y-5248D03*
D100*
X2356Y-5248D03*
D101*
X2308Y-5248D03*
X2068Y-5248D03*
D22*
X1858Y-5248D03*
D51*
X1331Y-5248D03*
D52*
X2693Y-5243D03*
D38*
X2358Y-5243D03*
D101*
X2308Y-5243D03*
D78*
X2061Y-5243D03*
D159*
X1863Y-5243D03*
D62*
X1336Y-5243D03*
D53*
X2693Y-5238D03*
D101*
X2363Y-5238D03*
X2303Y-5238D03*
D38*
X2058Y-5238D03*
D21*
X1871Y-5238D03*
D18*
X1343Y-5238D03*
D154*
X2696Y-5233D03*
D101*
X2363Y-5233D03*
X2303Y-5233D03*
D100*
X2056Y-5233D03*
D90*
X1876Y-5233D03*
D18*
X1348Y-5233D03*
D54*
X2693Y-5228D03*
D78*
X2366Y-5228D03*
D101*
X2298Y-5228D03*
D100*
X2051Y-5228D03*
D90*
X1881Y-5228D03*
D89*
X1353Y-5228D03*
D54*
X2693Y-5223D03*
D101*
X2368Y-5223D03*
X2298Y-5223D03*
D48*
X2043Y-5223D03*
D20*
X1888Y-5223D03*
D61*
X1361Y-5223D03*
D28*
X2693Y-5218D03*
D78*
X2371Y-5218D03*
X2296Y-5218D03*
D48*
X2038Y-5218D03*
D77*
X1896Y-5218D03*
X1366Y-5218D03*
D28*
X2693Y-5213D03*
D101*
X2373Y-5213D03*
X2293Y-5213D03*
D48*
X2033Y-5213D03*
D19*
X1903Y-5213D03*
D20*
X1373Y-5213D03*
D56*
X2691Y-5208D03*
D78*
X2376Y-5208D03*
D101*
X2293Y-5208D03*
D76*
X1931Y-5208D03*
D90*
X1381Y-5208D03*
D57*
X2691Y-5203D03*
D101*
X2378Y-5203D03*
X2288Y-5203D03*
D21*
X1936Y-5203D03*
X1386Y-5203D03*
D57*
X2691Y-5198D03*
D78*
X2381Y-5198D03*
D101*
X2288Y-5198D03*
D90*
X1936Y-5198D03*
D159*
X1388Y-5198D03*
D26*
X2688Y-5193D03*
D101*
X2383Y-5193D03*
X2283Y-5193D03*
D19*
X1938Y-5193D03*
D60*
X1396Y-5193D03*
D58*
X2691Y-5188D03*
D78*
X2386Y-5188D03*
D101*
X2283Y-5188D03*
D88*
X1941Y-5188D03*
D60*
X1401Y-5188D03*
D25*
X2688Y-5183D03*
D38*
X2388Y-5183D03*
D78*
X2281Y-5183D03*
D51*
X1941Y-5183D03*
D76*
X1406Y-5183D03*
D59*
X2686Y-5178D03*
D38*
X2393Y-5178D03*
D101*
X2278Y-5178D03*
D47*
X1943Y-5178D03*
D23*
X1413Y-5178D03*
D59*
X2686Y-5173D03*
D100*
X2396Y-5173D03*
D78*
X2276Y-5173D03*
D63*
X1943Y-5173D03*
D75*
X1421Y-5173D03*
D24*
X2683Y-5168D03*
D78*
X2396Y-5168D03*
D38*
X2278Y-5168D03*
D30*
X1946Y-5168D03*
D59*
X1426Y-5168D03*
D24*
X2683Y-5163D03*
D101*
X2393Y-5163D03*
D100*
X2276Y-5163D03*
D15*
X1948Y-5163D03*
D59*
X1431Y-5163D03*
D75*
X2681Y-5158D03*
D101*
X2388Y-5158D03*
D48*
X2273Y-5158D03*
D36*
X1948Y-5158D03*
D58*
X1436Y-5158D03*
D23*
X2683Y-5153D03*
D101*
X2388Y-5153D03*
D44*
X2276Y-5153D03*
D14*
X1951Y-5153D03*
D26*
X1443Y-5153D03*
D76*
X2681Y-5148D03*
D102*
X2386Y-5148D03*
D11*
X2276Y-5148D03*
D44*
X1956Y-5148D03*
D27*
X1448Y-5148D03*
D22*
X2678Y-5143D03*
D102*
X2386Y-5143D03*
D11*
X2276Y-5143D03*
D100*
X1956Y-5143D03*
D56*
X1456Y-5143D03*
D22*
X2678Y-5138D03*
D102*
X2386Y-5138D03*
D49*
X2298Y-5138D03*
D78*
X2256Y-5138D03*
D101*
X1958Y-5138D03*
D28*
X1463Y-5138D03*
D60*
X2676Y-5133D03*
D101*
X2383Y-5133D03*
D102*
X2301Y-5133D03*
D78*
X2256Y-5133D03*
D103*
X1961Y-5133D03*
D28*
X1468Y-5133D03*
D159*
X2678Y-5128D03*
D102*
X2381Y-5128D03*
D49*
X2303Y-5128D03*
D78*
X2251Y-5128D03*
D105*
X1961Y-5128D03*
D54*
X1473Y-5128D03*
D21*
X2676Y-5123D03*
D102*
X2381Y-5123D03*
X2306Y-5123D03*
D78*
X2246Y-5123D03*
D154*
X1481Y-5123D03*
D90*
X2676Y-5118D03*
D102*
X2381Y-5118D03*
D101*
X2308Y-5118D03*
D78*
X2241Y-5118D03*
D53*
X1488Y-5118D03*
D90*
X2676Y-5113D03*
D102*
X2381Y-5113D03*
D101*
X2313Y-5113D03*
D38*
X2238Y-5113D03*
D52*
X1493Y-5113D03*
D20*
X2673Y-5108D03*
D102*
X2381Y-5108D03*
D101*
X2313Y-5108D03*
D38*
X2233Y-5108D03*
D153*
X1496Y-5108D03*
D77*
X2676Y-5103D03*
D102*
X2381Y-5103D03*
D101*
X2318Y-5103D03*
D100*
X2231Y-5103D03*
D93*
X1503Y-5103D03*
D77*
X2671Y-5098D03*
D102*
X2381Y-5098D03*
D78*
X2321Y-5098D03*
D12*
X2228Y-5098D03*
D158*
X1508Y-5098D03*
D19*
X2673Y-5093D03*
D102*
X2381Y-5093D03*
D78*
X2326Y-5093D03*
D11*
X2226Y-5093D03*
D158*
X1513Y-5093D03*
D61*
X2671Y-5088D03*
D101*
X2383Y-5088D03*
D78*
X2331Y-5088D03*
D43*
X2223Y-5088D03*
D157*
X1521Y-5088D03*
D89*
X2673Y-5083D03*
D101*
X2383Y-5083D03*
D78*
X2336Y-5083D03*
D36*
X2223Y-5083D03*
D156*
X1531Y-5083D03*
D88*
X2671Y-5078D03*
D101*
X2383Y-5078D03*
D78*
X2336Y-5078D03*
D101*
X2258Y-5078D03*
D44*
X2201Y-5078D03*
D99*
X1533Y-5078D03*
D18*
X2668Y-5073D03*
D102*
X2386Y-5073D03*
D78*
X2336Y-5073D03*
X2261Y-5073D03*
D44*
X2196Y-5073D03*
D99*
X1538Y-5073D03*
D17*
X2668Y-5068D03*
D102*
X2386Y-5068D03*
D101*
X2333Y-5068D03*
X2263Y-5068D03*
D48*
X2188Y-5068D03*
D155*
X1543Y-5068D03*
D17*
X2668Y-5063D03*
D101*
X2388Y-5063D03*
X2328Y-5063D03*
X2268Y-5063D03*
D48*
X2183Y-5063D03*
D149*
X1551Y-5063D03*
D17*
X2668Y-5058D03*
D101*
X2388Y-5058D03*
X2328Y-5058D03*
D49*
X2268Y-5058D03*
D44*
X2181Y-5058D03*
D160*
X1556Y-5058D03*
D51*
X2666Y-5053D03*
D101*
X2388Y-5053D03*
D102*
X2326Y-5053D03*
D103*
X2271Y-5053D03*
D12*
X2178Y-5053D03*
D65*
X1563Y-5053D03*
D46*
X2668Y-5048D03*
D101*
X2393Y-5048D03*
D102*
X2326Y-5048D03*
D103*
X2271Y-5048D03*
D41*
X2178Y-5048D03*
D66*
X1571Y-5048D03*
D45*
X2666Y-5043D03*
D101*
X2393Y-5043D03*
D102*
X2321Y-5043D03*
D103*
X2271Y-5043D03*
D14*
X2181Y-5043D03*
D67*
X1573Y-5043D03*
D47*
X2663Y-5038D03*
D78*
X2396Y-5038D03*
D102*
X2321Y-5038D03*
D103*
X2271Y-5038D03*
D39*
X2181Y-5038D03*
D68*
X1581Y-5038D03*
D47*
X2663Y-5033D03*
D101*
X2398Y-5033D03*
X2318Y-5033D03*
D103*
X2266Y-5033D03*
D39*
X2181Y-5033D03*
D70*
X1586Y-5033D03*
D63*
X2663Y-5028D03*
D78*
X2401Y-5028D03*
D102*
X2316Y-5028D03*
D103*
X2266Y-5028D03*
D36*
X2183Y-5028D03*
D70*
X1591Y-5028D03*
D29*
X2661Y-5023D03*
D78*
X2401Y-5023D03*
D102*
X2316Y-5023D03*
D103*
X2266Y-5023D03*
D14*
X2186Y-5023D03*
D71*
X1598Y-5023D03*
D29*
X2661Y-5018D03*
D38*
X2403Y-5018D03*
D102*
X2316Y-5018D03*
D103*
X2266Y-5018D03*
D41*
X2188Y-5018D03*
D72*
X1601Y-5018D03*
D50*
X2658Y-5013D03*
D100*
X2406Y-5013D03*
D102*
X2316Y-5013D03*
D49*
X2263Y-5013D03*
D48*
X2193Y-5013D03*
D70*
X1601Y-5013D03*
D29*
X2656Y-5008D03*
D100*
X2401Y-5008D03*
D102*
X2316Y-5008D03*
X2261Y-5008D03*
D100*
X2196Y-5008D03*
D69*
X1598Y-5008D03*
D50*
X2653Y-5003D03*
D38*
X2393Y-5003D03*
D102*
X2316Y-5003D03*
X2261Y-5003D03*
D101*
X2198Y-5003D03*
D67*
X1598Y-5003D03*
D50*
X2653Y-4998D03*
D38*
X2388Y-4998D03*
D102*
X2316Y-4998D03*
D49*
X2253Y-4998D03*
D102*
X2201Y-4998D03*
D66*
X1596Y-4998D03*
D30*
X2651Y-4993D03*
D78*
X2381Y-4993D03*
D102*
X2316Y-4993D03*
X2251Y-4993D03*
D104*
X2203Y-4993D03*
D64*
X1593Y-4993D03*
D30*
X2646Y-4988D03*
D78*
X2376Y-4988D03*
D101*
X2313Y-4988D03*
D102*
X2246Y-4988D03*
D155*
X1593Y-4988D03*
D30*
X2646Y-4983D03*
D38*
X2373Y-4983D03*
D101*
X2313Y-4983D03*
D102*
X2246Y-4983D03*
D74*
X1591Y-4983D03*
D15*
X2643Y-4978D03*
D38*
X2368Y-4978D03*
X2308Y-4978D03*
D49*
X2243Y-4978D03*
D156*
X1591Y-4978D03*
D15*
X2643Y-4973D03*
D78*
X2366Y-4973D03*
D38*
X2303Y-4973D03*
D104*
X2243Y-4973D03*
D150*
X1588Y-4973D03*
D15*
X2638Y-4968D03*
D38*
X2363Y-4968D03*
X2298Y-4968D03*
D105*
X2246Y-4968D03*
D158*
X1588Y-4968D03*
D15*
X2638Y-4963D03*
D38*
X2358Y-4963D03*
D78*
X2296Y-4963D03*
D151*
X1586Y-4963D03*
D13*
X2636Y-4958D03*
D78*
X2356Y-4958D03*
X2286Y-4958D03*
D153*
X1586Y-4958D03*
D32*
X2633Y-4953D03*
D78*
X2351Y-4953D03*
D102*
X2286Y-4953D03*
D53*
X1583Y-4953D03*
D13*
X2631Y-4948D03*
D78*
X2351Y-4948D03*
D103*
X2291Y-4948D03*
D53*
X1583Y-4948D03*
D32*
X2628Y-4943D03*
D38*
X2348Y-4943D03*
D105*
X2291Y-4943D03*
D55*
X1581Y-4943D03*
D32*
X2628Y-4938D03*
D78*
X2346Y-4938D03*
D28*
X1583Y-4938D03*
D32*
X2623Y-4933D03*
D38*
X2343Y-4933D03*
D56*
X1581Y-4933D03*
D32*
X2618Y-4928D03*
D78*
X2341Y-4928D03*
D26*
X1578Y-4928D03*
D32*
X2618Y-4923D03*
D101*
X2343Y-4923D03*
D25*
X1578Y-4923D03*
D32*
X2613Y-4918D03*
D103*
X2346Y-4918D03*
D59*
X1576Y-4918D03*
D32*
X2613Y-4913D03*
D104*
X2348Y-4913D03*
D75*
X1576Y-4913D03*
D33*
X2611Y-4908D03*
D76*
X1576Y-4908D03*
D33*
X2606Y-4903D03*
D76*
X1576Y-4903D03*
D33*
X2606Y-4898D03*
D22*
X1573Y-4898D03*
D33*
X2601Y-4893D03*
D159*
X1573Y-4893D03*
D32*
X2598Y-4888D03*
D91*
X1573Y-4888D03*
D33*
X2596Y-4883D03*
D91*
X1573Y-4883D03*
D33*
X2596Y-4878D03*
D20*
X1573Y-4878D03*
D33*
X2591Y-4873D03*
D20*
X1573Y-4873D03*
D33*
X2591Y-4868D03*
D19*
X1573Y-4868D03*
D33*
X2586Y-4863D03*
D89*
X1573Y-4863D03*
D33*
X2581Y-4858D03*
D88*
X1571Y-4858D03*
D33*
X2576Y-4853D03*
D18*
X1573Y-4853D03*
D33*
X2576Y-4848D03*
D17*
X1573Y-4848D03*
D36*
X2573Y-4843D03*
D17*
X1573Y-4843D03*
D33*
X2571Y-4838D03*
D46*
X1573Y-4838D03*
D36*
X2568Y-4833D03*
D46*
X1573Y-4833D03*
D33*
X2566Y-4828D03*
D45*
X1576Y-4828D03*
D36*
X2563Y-4823D03*
D47*
X1573Y-4823D03*
D33*
X2561Y-4818D03*
D16*
X1576Y-4818D03*
D43*
X2563Y-4813D03*
D29*
X1576Y-4813D03*
D41*
X2568Y-4808D03*
D29*
X1576Y-4808D03*
D12*
X2568Y-4803D03*
D30*
X1576Y-4803D03*
D48*
X2573Y-4798D03*
D30*
X1576Y-4798D03*
D78*
X2576Y-4793D03*
D32*
X1573Y-4793D03*
D49*
X2578Y-4788D03*
D33*
X1571Y-4788D03*
D105*
X2581Y-4783D03*
D43*
X1568Y-4783D03*
D11*
X1561Y-4778D03*
D48*
X1558Y-4773D03*
D38*
X1558Y-4768D03*
D102*
X1551Y-4763D03*
D104*
X1548Y-4758D03*
X2438Y-4668D03*
D49*
X2438Y-4663D03*
D101*
X2443Y-4658D03*
D48*
X2448Y-4653D03*
X2448Y-4648D03*
D11*
X2451Y-4643D03*
D43*
X2453Y-4638D03*
D36*
X2453Y-4633D03*
X2453Y-4628D03*
X2448Y-4623D03*
X2443Y-4618D03*
D33*
X2441Y-4613D03*
X2441Y-4608D03*
X2436Y-4603D03*
D13*
X2426Y-4598D03*
D15*
X2423Y-4593D03*
D30*
X2416Y-4588D03*
D50*
X2408Y-4583D03*
D63*
X2403Y-4578D03*
D47*
X2393Y-4573D03*
D17*
X2378Y-4568D03*
D61*
X2366Y-4563D03*
D20*
X2353Y-4558D03*
D23*
X2333Y-4553D03*
D57*
X2311Y-4548D03*
D35*
X2163Y-4548D03*
D54*
X2298Y-4543D03*
D156*
X2266Y-4538D03*
D67*
X2238Y-4533D03*
D35*
X2028Y-4533D03*
D146*
X2221Y-4528D03*
D105*
X1986Y-4528D03*
D161*
X2206Y-4523D03*
D130*
X2188Y-4518D03*
D148*
X2173Y-4513D03*
D162*
X2156Y-4508D03*
D163*
X2146Y-4503D03*
D164*
X2136Y-4498D03*
D138*
X2131Y-4493D03*
D165*
X2128Y-4488D03*
D136*
X2121Y-4483D03*
D166*
X2113Y-4478D03*
D167*
X2111Y-4473D03*
X2106Y-4468D03*
X2101Y-4463D03*
D168*
X2096Y-4458D03*
X2091Y-4453D03*
D132*
X2088Y-4448D03*
X2083Y-4443D03*
D169*
X2078Y-4438D03*
X2073Y-4433D03*
D42*
X2071Y-4428D03*
X2066Y-4423D03*
D169*
X2063Y-4418D03*
D42*
X2061Y-4413D03*
D169*
X2058Y-4408D03*
D132*
X2058Y-4403D03*
X2058Y-4398D03*
D134*
X2058Y-4393D03*
X2058Y-4388D03*
D166*
X2058Y-4383D03*
D136*
X2061Y-4378D03*
D138*
X2061Y-4373D03*
X2061Y-4368D03*
D164*
X2061Y-4363D03*
D139*
X2058Y-4358D03*
D163*
X2061Y-4353D03*
D141*
X2058Y-4348D03*
D142*
X2061Y-4343D03*
D162*
X2061Y-4338D03*
X2061Y-4333D03*
D145*
X2061Y-4328D03*
X2061Y-4323D03*
D147*
X2061Y-4318D03*
D126*
X2061Y-4313D03*
D92*
X2058Y-4308D03*
D129*
X2061Y-4303D03*
D130*
X2058Y-4298D03*
D131*
X2061Y-4293D03*
D98*
X2058Y-4288D03*
D133*
X2061Y-4283D03*
D170*
X2061Y-4278D03*
X2061Y-4273D03*
D161*
X2061Y-4268D03*
D140*
X2063Y-4263D03*
D143*
X2061Y-4258D03*
D146*
X2061Y-4253D03*
D73*
X2063Y-4248D03*
D72*
X2061Y-4243D03*
D70*
X2061Y-4238D03*
X2061Y-4233D03*
D68*
X2061Y-4228D03*
X2061Y-4223D03*
D66*
X2061Y-4218D03*
D65*
X2063Y-4213D03*
D160*
X2061Y-4208D03*
D64*
X2063Y-4203D03*
D155*
X2063Y-4198D03*
D74*
X2061Y-4193D03*
D99*
X2063Y-4188D03*
D156*
X2061Y-4183D03*
D157*
X2061Y-4178D03*
X2061Y-4173D03*
D151*
X2061Y-4168D03*
X2061Y-4163D03*
D153*
X2061Y-4158D03*
D52*
X2063Y-4153D03*
D53*
X2063Y-4148D03*
D154*
X2061Y-4143D03*
X2061Y-4138D03*
D55*
X2061Y-4133D03*
D28*
X2063Y-4128D03*
D56*
X2061Y-4123D03*
D57*
X2061Y-4118D03*
D26*
X2063Y-4113D03*
D58*
X2061Y-4108D03*
D25*
X2063Y-4103D03*
D59*
X2061Y-4098D03*
D24*
X2063Y-4093D03*
D23*
X2063Y-4088D03*
D76*
X2061Y-4083D03*
D22*
X2063Y-4078D03*
D60*
X2061Y-4073D03*
D159*
X2063Y-4068D03*
D21*
X2061Y-4063D03*
D91*
X2063Y-4058D03*
D90*
X2061Y-4053D03*
D20*
X2063Y-4048D03*
D19*
X2063Y-4043D03*
D89*
X2063Y-4038D03*
X2063Y-4033D03*
D88*
X2061Y-4028D03*
D18*
X2063Y-4023D03*
D62*
X2061Y-4018D03*
D51*
X2061Y-4013D03*
D46*
X2063Y-4008D03*
D47*
X2063Y-4003D03*
X2063Y-3998D03*
D63*
X2063Y-3993D03*
X2063Y-3988D03*
D50*
X2063Y-3983D03*
D30*
X2066Y-3978D03*
D15*
X2063Y-3973D03*
D32*
X2063Y-3968D03*
X2063Y-3963D03*
D36*
X2063Y-3958D03*
D39*
X2061Y-3953D03*
D43*
X2063Y-3948D03*
D41*
X2063Y-3943D03*
X2063Y-3938D03*
D11*
X2066Y-3933D03*
D12*
X2063Y-3928D03*
D48*
X2063Y-3923D03*
D100*
X2061Y-3918D03*
D38*
X2063Y-3913D03*
D101*
X2063Y-3908D03*
X2063Y-3903D03*
D102*
X2066Y-3898D03*
D103*
X2066Y-3893D03*
D104*
X2063Y-3888D03*
D105*
X2066Y-3883D03*
D171*
X-2740Y-3599D03*
D172*
X-2738Y-3598D03*
D173*
X-2737Y-3598D03*
D174*
X-2735Y-3598D03*
D175*
X-2734Y-3597D03*
D176*
X-2732Y-3598D03*
D177*
X-2731Y-3599D03*
D178*
X-2729Y-3598D03*
D179*
X-2728Y-3597D03*
D180*
X-2726Y-3598D03*
D181*
X-2725Y-3598D03*
D182*
X-2723Y-3598D03*
D183*
X-2722Y-3597D03*
D184*
X-2720Y-3598D03*
D185*
X-2719Y-3598D03*
D186*
X-2717Y-3598D03*
D187*
X-2716Y-3598D03*
D188*
X-2714Y-3598D03*
D189*
X-2713Y-3599D03*
D190*
X-2711Y-3598D03*
D191*
X-2710Y-3598D03*
D192*
X-2708Y-3598D03*
D193*
X-2707Y-3598D03*
D194*
X-2705Y-3598D03*
D195*
X-2704Y-3599D03*
D196*
X-2702Y-3598D03*
D197*
X-2701Y-3598D03*
D198*
X-2699Y-3598D03*
D199*
X-2698Y-3598D03*
D200*
X-2696Y-3598D03*
D201*
X-2695Y-3598D03*
D202*
X-2693Y-3598D03*
D203*
X-2692Y-3598D03*
D204*
X-2690Y-3598D03*
D205*
X-2689Y-3598D03*
D206*
X-2687Y-3598D03*
D207*
X-2686Y-3598D03*
D208*
X-2684Y-3598D03*
D209*
X-2683Y-3598D03*
D210*
X-2681Y-3598D03*
D211*
X-2680Y-3598D03*
D212*
X-2678Y-3598D03*
D213*
X-2677Y-3598D03*
D214*
X-2675Y-3598D03*
D215*
X-2674Y-3598D03*
D216*
X-2672Y-3598D03*
D217*
X-2671Y-3598D03*
D218*
X-2669Y-3598D03*
D219*
X-2668Y-3598D03*
D220*
X-2666Y-3598D03*
D221*
X-2665Y-3598D03*
D222*
X-2663Y-3598D03*
D223*
X-2662Y-3598D03*
D224*
X-2660Y-3721D03*
X-2660Y-3474D03*
D225*
X-2659Y-3730D03*
D226*
X-2659Y-3466D03*
D227*
X-2657Y-3736D03*
X-2657Y-3460D03*
D228*
X-2656Y-3741D03*
X-2656Y-3455D03*
D229*
X-2654Y-3745D03*
X-2654Y-3451D03*
D230*
X-2653Y-3748D03*
X-2653Y-3448D03*
D231*
X-2651Y-3751D03*
X-2651Y-3444D03*
D232*
X-2650Y-3755D03*
D233*
X-2650Y-3440D03*
D234*
X-2648Y-3759D03*
X-2648Y-3436D03*
D235*
X-2647Y-3762D03*
X-2647Y-3434D03*
D236*
X-2645Y-3764D03*
X-2645Y-3431D03*
D237*
X-2644Y-3767D03*
D238*
X-2644Y-3428D03*
D239*
X-2642Y-3770D03*
X-2642Y-3425D03*
D240*
X-2641Y-3773D03*
X-2641Y-3422D03*
D241*
X-2639Y-3776D03*
D242*
X-2639Y-3420D03*
D243*
X-2638Y-3778D03*
X-2638Y-3418D03*
D244*
X-2636Y-3780D03*
D175*
X-2636Y-3416D03*
D245*
X-2635Y-3782D03*
X-2635Y-3413D03*
D246*
X-2633Y-3785D03*
D247*
X-2633Y-3411D03*
D248*
X-2632Y-3788D03*
X-2632Y-3408D03*
D249*
X-2630Y-3790D03*
D250*
X-2630Y-3406D03*
D251*
X-2629Y-3792D03*
D252*
X-2629Y-3404D03*
D251*
X-2627Y-3794D03*
X-2627Y-3402D03*
D253*
X-2626Y-3796D03*
X-2626Y-3400D03*
D254*
X-2624Y-3798D03*
D255*
X-2624Y-3398D03*
D256*
X-2623Y-3800D03*
D257*
X-2623Y-3396D03*
D258*
X-2621Y-3801D03*
X-2621Y-3395D03*
D259*
X-2620Y-3803D03*
X-2620Y-3392D03*
X-2618Y-3805D03*
X-2618Y-3391D03*
D260*
X-2617Y-3807D03*
X-2617Y-3389D03*
D261*
X-2615Y-3809D03*
D262*
X-2615Y-3386D03*
D263*
X-2614Y-3811D03*
D264*
X-2614Y-3385D03*
X-2612Y-3812D03*
D265*
X-2612Y-3383D03*
D266*
X-2611Y-3814D03*
D267*
X-2611Y-3382D03*
X-2609Y-3815D03*
X-2609Y-3380D03*
D268*
X-2608Y-3818D03*
X-2608Y-3378D03*
D269*
X-2606Y-3819D03*
X-2606Y-3376D03*
X-2605Y-3820D03*
X-2605Y-3375D03*
D270*
X-2603Y-3821D03*
X-2603Y-3374D03*
D271*
X-2602Y-3824D03*
D272*
X-2602Y-3372D03*
D273*
X-2600Y-3825D03*
D274*
X-2600Y-3371D03*
D271*
X-2599Y-3826D03*
X-2599Y-3369D03*
D275*
X-2597Y-3829D03*
D276*
X-2597Y-3368D03*
D277*
X-2596Y-3830D03*
X-2596Y-3366D03*
X-2594Y-3831D03*
X-2594Y-3365D03*
D278*
X-2593Y-3833D03*
D279*
X-2593Y-3363D03*
D280*
X-2591Y-3833D03*
D281*
X-2591Y-3590D03*
D280*
X-2591Y-3362D03*
X-2590Y-3835D03*
D282*
X-2590Y-3590D03*
D280*
X-2590Y-3361D03*
X-2588Y-3836D03*
D172*
X-2588Y-3592D03*
D280*
X-2588Y-3359D03*
D283*
X-2587Y-3837D03*
D284*
X-2587Y-3591D03*
D283*
X-2587Y-3359D03*
D285*
X-2585Y-3839D03*
X-2585Y-3591D03*
X-2585Y-3357D03*
D286*
X-2584Y-3841D03*
D265*
X-2584Y-3591D03*
D173*
X-2584Y-3355D03*
X-2582Y-3842D03*
D251*
X-2582Y-3591D03*
D286*
X-2582Y-3353D03*
D287*
X-2581Y-3843D03*
D247*
X-2581Y-3591D03*
D287*
X-2581Y-3353D03*
X-2579Y-3845D03*
D288*
X-2579Y-3591D03*
D287*
X-2579Y-3351D03*
D289*
X-2578Y-3845D03*
D290*
X-2578Y-3591D03*
D289*
X-2578Y-3350D03*
D287*
X-2576Y-3846D03*
D291*
X-2576Y-3592D03*
D287*
X-2576Y-3350D03*
X-2575Y-3848D03*
D292*
X-2575Y-3591D03*
D287*
X-2575Y-3348D03*
D293*
X-2573Y-3848D03*
D228*
X-2573Y-3591D03*
D293*
X-2573Y-3347D03*
X-2572Y-3850D03*
D294*
X-2572Y-3591D03*
D293*
X-2572Y-3346D03*
D295*
X-2570Y-3851D03*
D296*
X-2570Y-3591D03*
D289*
X-2570Y-3344D03*
D297*
X-2569Y-3852D03*
D298*
X-2569Y-3591D03*
D297*
X-2569Y-3344D03*
X-2567Y-3854D03*
D299*
X-2567Y-3591D03*
D297*
X-2567Y-3342D03*
D300*
X-2566Y-3854D03*
D301*
X-2566Y-3591D03*
D300*
X-2566Y-3341D03*
X-2564Y-3856D03*
D181*
X-2564Y-3590D03*
D300*
X-2564Y-3340D03*
D302*
X-2563Y-3857D03*
D303*
X-2563Y-3591D03*
D302*
X-2563Y-3338D03*
D300*
X-2561Y-3857D03*
D304*
X-2561Y-3591D03*
D284*
X-2561Y-3338D03*
D300*
X-2560Y-3859D03*
D305*
X-2560Y-3591D03*
D300*
X-2560Y-3337D03*
D306*
X-2558Y-3860D03*
D183*
X-2558Y-3591D03*
D284*
X-2558Y-3336D03*
X-2557Y-3861D03*
D307*
X-2557Y-3592D03*
D306*
X-2557Y-3335D03*
D308*
X-2555Y-3862D03*
D309*
X-2555Y-3591D03*
D308*
X-2555Y-3334D03*
D284*
X-2554Y-3863D03*
D310*
X-2554Y-3591D03*
D306*
X-2554Y-3333D03*
D284*
X-2552Y-3864D03*
D311*
X-2552Y-3591D03*
D284*
X-2552Y-3331D03*
D312*
X-2551Y-3865D03*
D313*
X-2551Y-3591D03*
D312*
X-2551Y-3331D03*
X-2549Y-3866D03*
D314*
X-2549Y-3591D03*
D312*
X-2549Y-3329D03*
D308*
X-2548Y-3866D03*
D315*
X-2548Y-3591D03*
D308*
X-2548Y-3329D03*
D312*
X-2546Y-3868D03*
D316*
X-2546Y-3591D03*
D312*
X-2546Y-3328D03*
D317*
X-2545Y-3869D03*
D318*
X-2545Y-3591D03*
D317*
X-2545Y-3327D03*
D312*
X-2543Y-3869D03*
D319*
X-2543Y-3591D03*
D312*
X-2543Y-3326D03*
D320*
X-2542Y-3870D03*
D321*
X-2542Y-3592D03*
D317*
X-2542Y-3326D03*
D322*
X-2540Y-3872D03*
D189*
X-2540Y-3591D03*
D322*
X-2540Y-3324D03*
D323*
X-2539Y-3872D03*
D324*
X-2539Y-3591D03*
D323*
X-2539Y-3323D03*
D317*
X-2537Y-3873D03*
D325*
X-2537Y-3591D03*
D323*
X-2537Y-3323D03*
X-2536Y-3874D03*
D326*
X-2536Y-3591D03*
D323*
X-2536Y-3322D03*
D327*
X-2534Y-3875D03*
D328*
X-2534Y-3591D03*
D327*
X-2534Y-3321D03*
D329*
X-2533Y-3875D03*
D330*
X-2533Y-3591D03*
D329*
X-2533Y-3320D03*
D327*
X-2531Y-3876D03*
D331*
X-2531Y-3591D03*
D327*
X-2531Y-3320D03*
D323*
X-2530Y-3877D03*
D332*
X-2530Y-3591D03*
D323*
X-2530Y-3319D03*
D327*
X-2528Y-3878D03*
D333*
X-2528Y-3591D03*
D327*
X-2528Y-3318D03*
X-2527Y-3879D03*
D334*
X-2527Y-3591D03*
D327*
X-2527Y-3317D03*
D335*
X-2525Y-3879D03*
D336*
X-2525Y-3591D03*
D335*
X-2525Y-3317D03*
D327*
X-2524Y-3881D03*
D337*
X-2524Y-3591D03*
D327*
X-2524Y-3315D03*
X-2522Y-3881D03*
D338*
X-2522Y-3591D03*
D327*
X-2522Y-3315D03*
D339*
X-2521Y-3881D03*
D340*
X-2521Y-3592D03*
D341*
X-2521Y-3314D03*
D339*
X-2519Y-3883D03*
D195*
X-2519Y-3591D03*
D339*
X-2519Y-3313D03*
D342*
X-2518Y-3883D03*
D343*
X-2518Y-3591D03*
D342*
X-2518Y-3313D03*
D341*
X-2516Y-3884D03*
D344*
X-2516Y-3591D03*
D339*
X-2516Y-3311D03*
D341*
X-2515Y-3884D03*
D345*
X-2515Y-3591D03*
D339*
X-2515Y-3311D03*
D346*
X-2513Y-3885D03*
D197*
X-2513Y-3592D03*
D346*
X-2513Y-3311D03*
D341*
X-2512Y-3886D03*
D239*
X-2512Y-3682D03*
D347*
X-2512Y-3501D03*
D339*
X-2512Y-3310D03*
D348*
X-2510Y-3886D03*
D349*
X-2510Y-3687D03*
D243*
X-2510Y-3496D03*
D348*
X-2510Y-3309D03*
D346*
X-2509Y-3886D03*
D247*
X-2509Y-3690D03*
X-2509Y-3492D03*
D341*
X-2509Y-3308D03*
D346*
X-2507Y-3888D03*
D350*
X-2507Y-3694D03*
D252*
X-2507Y-3490D03*
D346*
X-2507Y-3308D03*
X-2506Y-3888D03*
D255*
X-2506Y-3696D03*
D253*
X-2506Y-3487D03*
D346*
X-2506Y-3308D03*
X-2504Y-3890D03*
D258*
X-2504Y-3699D03*
D351*
X-2504Y-3484D03*
D346*
X-2504Y-3306D03*
D348*
X-2503Y-3890D03*
D174*
X-2503Y-3701D03*
D352*
X-2503Y-3482D03*
D348*
X-2503Y-3306D03*
D346*
X-2501Y-3890D03*
D260*
X-2501Y-3704D03*
D263*
X-2501Y-3479D03*
D353*
X-2501Y-3305D03*
D346*
X-2500Y-3891D03*
D265*
X-2500Y-3705D03*
X-2500Y-3477D03*
D346*
X-2500Y-3305D03*
D353*
X-2498Y-3892D03*
D267*
X-2498Y-3707D03*
X-2498Y-3475D03*
D346*
X-2498Y-3305D03*
D353*
X-2497Y-3892D03*
D270*
X-2497Y-3709D03*
X-2497Y-3473D03*
D354*
X-2497Y-3304D03*
D348*
X-2495Y-3893D03*
D273*
X-2495Y-3711D03*
D355*
X-2495Y-3472D03*
D348*
X-2495Y-3303D03*
D353*
X-2494Y-3893D03*
D271*
X-2494Y-3713D03*
D275*
X-2494Y-3470D03*
D353*
X-2494Y-3302D03*
X-2492Y-3893D03*
D277*
X-2492Y-3714D03*
D275*
X-2492Y-3469D03*
D353*
X-2492Y-3302D03*
X-2491Y-3895D03*
D277*
X-2491Y-3716D03*
X-2491Y-3467D03*
D353*
X-2491Y-3301D03*
X-2489Y-3895D03*
D283*
X-2489Y-3717D03*
X-2489Y-3465D03*
D353*
X-2489Y-3301D03*
D356*
X-2488Y-3895D03*
D285*
X-2488Y-3719D03*
X-2488Y-3464D03*
D356*
X-2488Y-3300D03*
D357*
X-2486Y-3895D03*
D286*
X-2486Y-3721D03*
D283*
X-2486Y-3462D03*
D357*
X-2486Y-3300D03*
D354*
X-2485Y-3896D03*
D287*
X-2485Y-3721D03*
D173*
X-2485Y-3461D03*
D353*
X-2485Y-3299D03*
D357*
X-2483Y-3897D03*
D287*
X-2483Y-3723D03*
X-2483Y-3459D03*
D357*
X-2483Y-3299D03*
X-2482Y-3897D03*
D358*
X-2482Y-3724D03*
D293*
X-2482Y-3458D03*
D357*
X-2482Y-3299D03*
D359*
X-2480Y-3898D03*
D289*
X-2480Y-3725D03*
D360*
X-2480Y-3458D03*
D359*
X-2480Y-3298D03*
D357*
X-2479Y-3899D03*
D297*
X-2479Y-3726D03*
X-2479Y-3456D03*
D357*
X-2479Y-3297D03*
X-2477Y-3899D03*
D297*
X-2477Y-3728D03*
X-2477Y-3455D03*
D357*
X-2477Y-3297D03*
D353*
X-2476Y-3899D03*
D284*
X-2476Y-3729D03*
D300*
X-2476Y-3454D03*
D354*
X-2476Y-3296D03*
D357*
X-2474Y-3900D03*
D306*
X-2474Y-3731D03*
D300*
X-2474Y-3452D03*
D357*
X-2474Y-3295D03*
D356*
X-2473Y-3900D03*
D361*
X-2473Y-3731D03*
D362*
X-2473Y-3451D03*
D356*
X-2473Y-3295D03*
D357*
X-2471Y-3900D03*
D306*
X-2471Y-3732D03*
D312*
X-2471Y-3451D03*
D357*
X-2471Y-3295D03*
X-2470Y-3901D03*
D312*
X-2470Y-3733D03*
X-2470Y-3449D03*
D357*
X-2470Y-3294D03*
X-2468Y-3901D03*
D312*
X-2468Y-3734D03*
D317*
X-2468Y-3449D03*
D357*
X-2468Y-3294D03*
X-2467Y-3901D03*
D320*
X-2467Y-3735D03*
D317*
X-2467Y-3447D03*
D357*
X-2467Y-3294D03*
D363*
X-2465Y-3902D03*
D322*
X-2465Y-3737D03*
X-2465Y-3447D03*
D363*
X-2465Y-3293D03*
D364*
X-2464Y-3902D03*
D323*
X-2464Y-3737D03*
D317*
X-2464Y-3446D03*
D364*
X-2464Y-3293D03*
D357*
X-2462Y-3903D03*
D323*
X-2462Y-3737D03*
X-2462Y-3445D03*
D357*
X-2462Y-3293D03*
X-2461Y-3903D03*
D323*
X-2461Y-3739D03*
D327*
X-2461Y-3444D03*
D357*
X-2461Y-3293D03*
D364*
X-2459Y-3904D03*
D327*
X-2459Y-3740D03*
D323*
X-2459Y-3443D03*
D364*
X-2459Y-3292D03*
D363*
X-2458Y-3904D03*
D342*
X-2458Y-3740D03*
D335*
X-2458Y-3443D03*
D363*
X-2458Y-3292D03*
D357*
X-2456Y-3905D03*
D327*
X-2456Y-3741D03*
X-2456Y-3441D03*
D357*
X-2456Y-3291D03*
D364*
X-2455Y-3905D03*
D341*
X-2455Y-3742D03*
D327*
X-2455Y-3441D03*
D357*
X-2455Y-3291D03*
D364*
X-2453Y-3905D03*
D341*
X-2453Y-3742D03*
D339*
X-2453Y-3440D03*
D364*
X-2453Y-3290D03*
X-2452Y-3905D03*
D341*
X-2452Y-3743D03*
D339*
X-2452Y-3439D03*
D364*
X-2452Y-3290D03*
D363*
X-2450Y-3905D03*
D348*
X-2450Y-3744D03*
D342*
X-2450Y-3439D03*
D363*
X-2450Y-3290D03*
D365*
X-2449Y-3906D03*
D339*
X-2449Y-3745D03*
D346*
X-2449Y-3438D03*
D366*
X-2449Y-3290D03*
D364*
X-2447Y-3907D03*
D346*
X-2447Y-3746D03*
X-2447Y-3436D03*
D364*
X-2447Y-3289D03*
X-2446Y-3907D03*
D346*
X-2446Y-3746D03*
X-2446Y-3436D03*
D364*
X-2446Y-3289D03*
X-2444Y-3907D03*
D354*
X-2444Y-3746D03*
D364*
X-2444Y-3289D03*
D367*
X-2443Y-3908D03*
D348*
X-2443Y-3747D03*
D368*
X-2443Y-3288D03*
D365*
X-2441Y-3908D03*
D353*
X-2441Y-3748D03*
D366*
X-2441Y-3288D03*
D365*
X-2440Y-3908D03*
D353*
X-2440Y-3748D03*
D366*
X-2440Y-3288D03*
D364*
X-2438Y-3908D03*
D357*
X-2438Y-3749D03*
D364*
X-2438Y-3287D03*
X-2437Y-3908D03*
D353*
X-2437Y-3749D03*
D364*
X-2437Y-3287D03*
D367*
X-2435Y-3909D03*
D356*
X-2435Y-3750D03*
D367*
X-2435Y-3286D03*
D365*
X-2434Y-3909D03*
D357*
X-2434Y-3750D03*
D365*
X-2434Y-3286D03*
X-2432Y-3909D03*
D357*
X-2432Y-3751D03*
D365*
X-2432Y-3286D03*
X-2431Y-3909D03*
D357*
X-2431Y-3751D03*
D365*
X-2431Y-3286D03*
X-2429Y-3909D03*
D357*
X-2429Y-3751D03*
D365*
X-2429Y-3286D03*
D369*
X-2428Y-3910D03*
D363*
X-2428Y-3752D03*
D369*
X-2428Y-3286D03*
D366*
X-2426Y-3911D03*
D364*
X-2426Y-3752D03*
D365*
X-2426Y-3285D03*
D366*
X-2425Y-3911D03*
D357*
X-2425Y-3753D03*
D365*
X-2425Y-3285D03*
D366*
X-2423Y-3911D03*
D364*
X-2423Y-3754D03*
D365*
X-2423Y-3285D03*
D366*
X-2422Y-3911D03*
D364*
X-2422Y-3754D03*
D365*
X-2422Y-3285D03*
D368*
X-2420Y-3911D03*
D363*
X-2420Y-3754D03*
D367*
X-2420Y-3285D03*
D366*
X-2419Y-3911D03*
X-2419Y-3755D03*
D365*
X-2419Y-3285D03*
D366*
X-2417Y-3911D03*
X-2417Y-3755D03*
D365*
X-2417Y-3285D03*
D172*
X-2416Y-3911D03*
D364*
X-2416Y-3755D03*
D172*
X-2416Y-3284D03*
X-2414Y-3911D03*
D364*
X-2414Y-3755D03*
D172*
X-2414Y-3284D03*
D369*
X-2413Y-3911D03*
D367*
X-2413Y-3756D03*
D369*
X-2413Y-3284D03*
D172*
X-2411Y-3911D03*
D365*
X-2411Y-3756D03*
D172*
X-2411Y-3284D03*
D366*
X-2410Y-3912D03*
D365*
X-2410Y-3756D03*
X-2410Y-3284D03*
D366*
X-2408Y-3912D03*
D365*
X-2408Y-3756D03*
X-2408Y-3284D03*
D366*
X-2407Y-3912D03*
D365*
X-2407Y-3756D03*
X-2407Y-3284D03*
D368*
X-2405Y-3912D03*
D363*
X-2405Y-3757D03*
D367*
X-2405Y-3284D03*
D366*
X-2404Y-3912D03*
D365*
X-2404Y-3758D03*
X-2404Y-3284D03*
D366*
X-2402Y-3912D03*
D365*
X-2402Y-3758D03*
X-2402Y-3284D03*
D366*
X-2401Y-3912D03*
D365*
X-2401Y-3758D03*
X-2401Y-3284D03*
D366*
X-2399Y-3912D03*
D365*
X-2399Y-3758D03*
X-2399Y-3284D03*
D368*
X-2398Y-3912D03*
D367*
X-2398Y-3758D03*
X-2398Y-3284D03*
D366*
X-2396Y-3912D03*
D365*
X-2396Y-3758D03*
X-2396Y-3284D03*
D172*
X-2395Y-3913D03*
D365*
X-2395Y-3758D03*
D172*
X-2395Y-3283D03*
X-2393Y-3913D03*
D365*
X-2393Y-3758D03*
D172*
X-2393Y-3283D03*
X-2392Y-3913D03*
D365*
X-2392Y-3758D03*
D172*
X-2392Y-3283D03*
D369*
X-2390Y-3913D03*
D367*
X-2390Y-3758D03*
D369*
X-2390Y-3283D03*
D172*
X-2389Y-3913D03*
D365*
X-2389Y-3758D03*
D172*
X-2389Y-3283D03*
X-2387Y-3913D03*
D365*
X-2387Y-3758D03*
D172*
X-2387Y-3283D03*
X-2386Y-3913D03*
D365*
X-2386Y-3758D03*
D172*
X-2386Y-3283D03*
X-2384Y-3913D03*
D365*
X-2384Y-3758D03*
D172*
X-2384Y-3283D03*
D369*
X-2383Y-3913D03*
D367*
X-2383Y-3758D03*
D369*
X-2383Y-3283D03*
D172*
X-2381Y-3913D03*
D365*
X-2381Y-3758D03*
D172*
X-2381Y-3283D03*
X-2380Y-3913D03*
D365*
X-2380Y-3758D03*
D172*
X-2380Y-3283D03*
X-2378Y-3913D03*
D365*
X-2378Y-3758D03*
D172*
X-2378Y-3283D03*
X-2377Y-3913D03*
D365*
X-2377Y-3758D03*
D172*
X-2377Y-3283D03*
D369*
X-2375Y-3913D03*
D367*
X-2375Y-3758D03*
D369*
X-2375Y-3283D03*
D172*
X-2374Y-3913D03*
D365*
X-2374Y-3758D03*
D172*
X-2374Y-3283D03*
D366*
X-2372Y-3912D03*
D365*
X-2372Y-3758D03*
X-2372Y-3284D03*
D366*
X-2371Y-3912D03*
D365*
X-2371Y-3758D03*
X-2371Y-3284D03*
D366*
X-2369Y-3912D03*
D365*
X-2369Y-3758D03*
X-2369Y-3284D03*
D368*
X-2368Y-3912D03*
D363*
X-2368Y-3757D03*
D367*
X-2368Y-3284D03*
D366*
X-2366Y-3912D03*
D365*
X-2366Y-3756D03*
X-2366Y-3284D03*
D366*
X-2365Y-3912D03*
D365*
X-2365Y-3756D03*
X-2365Y-3284D03*
D366*
X-2363Y-3912D03*
D365*
X-2363Y-3756D03*
X-2363Y-3284D03*
D366*
X-2362Y-3912D03*
D365*
X-2362Y-3756D03*
X-2362Y-3284D03*
D369*
X-2360Y-3911D03*
D367*
X-2360Y-3756D03*
D369*
X-2360Y-3284D03*
D172*
X-2359Y-3911D03*
D365*
X-2359Y-3756D03*
D172*
X-2359Y-3284D03*
X-2357Y-3911D03*
D364*
X-2357Y-3755D03*
D172*
X-2357Y-3284D03*
X-2356Y-3911D03*
D364*
X-2356Y-3755D03*
D172*
X-2356Y-3284D03*
D366*
X-2354Y-3911D03*
X-2354Y-3755D03*
D365*
X-2354Y-3285D03*
D368*
X-2353Y-3911D03*
X-2353Y-3755D03*
D367*
X-2353Y-3285D03*
D366*
X-2351Y-3911D03*
D364*
X-2351Y-3754D03*
D365*
X-2351Y-3285D03*
D366*
X-2350Y-3911D03*
D364*
X-2350Y-3754D03*
D365*
X-2350Y-3285D03*
D366*
X-2348Y-3911D03*
D364*
X-2348Y-3754D03*
D365*
X-2348Y-3285D03*
D366*
X-2347Y-3911D03*
D357*
X-2347Y-3753D03*
D365*
X-2347Y-3285D03*
D368*
X-2345Y-3911D03*
D363*
X-2345Y-3752D03*
D367*
X-2345Y-3285D03*
D172*
X-2344Y-3910D03*
D364*
X-2344Y-3752D03*
D172*
X-2344Y-3286D03*
D365*
X-2342Y-3909D03*
D357*
X-2342Y-3751D03*
D365*
X-2342Y-3286D03*
X-2341Y-3909D03*
D357*
X-2341Y-3751D03*
D365*
X-2341Y-3286D03*
X-2339Y-3909D03*
D364*
X-2339Y-3751D03*
D365*
X-2339Y-3286D03*
D367*
X-2338Y-3909D03*
D356*
X-2338Y-3750D03*
D367*
X-2338Y-3286D03*
D365*
X-2336Y-3909D03*
D357*
X-2336Y-3750D03*
D365*
X-2336Y-3286D03*
D364*
X-2335Y-3908D03*
D353*
X-2335Y-3749D03*
D364*
X-2335Y-3287D03*
X-2333Y-3908D03*
D357*
X-2333Y-3749D03*
D364*
X-2333Y-3287D03*
D365*
X-2332Y-3908D03*
D353*
X-2332Y-3748D03*
D366*
X-2332Y-3288D03*
D367*
X-2330Y-3908D03*
D359*
X-2330Y-3748D03*
D368*
X-2330Y-3288D03*
D365*
X-2329Y-3908D03*
D346*
X-2329Y-3747D03*
D366*
X-2329Y-3288D03*
D364*
X-2327Y-3907D03*
D354*
X-2327Y-3746D03*
D364*
X-2327Y-3289D03*
X-2326Y-3907D03*
D346*
X-2326Y-3746D03*
X-2326Y-3436D03*
D364*
X-2326Y-3289D03*
X-2324Y-3907D03*
D346*
X-2324Y-3746D03*
X-2324Y-3436D03*
D364*
X-2324Y-3289D03*
D367*
X-2323Y-3906D03*
D342*
X-2323Y-3745D03*
D348*
X-2323Y-3438D03*
D368*
X-2323Y-3290D03*
D364*
X-2321Y-3905D03*
D346*
X-2321Y-3744D03*
X-2321Y-3438D03*
D364*
X-2321Y-3290D03*
X-2320Y-3905D03*
D341*
X-2320Y-3743D03*
D339*
X-2320Y-3439D03*
D364*
X-2320Y-3290D03*
X-2318Y-3905D03*
D327*
X-2318Y-3743D03*
D339*
X-2318Y-3440D03*
D364*
X-2318Y-3290D03*
X-2317Y-3905D03*
D341*
X-2317Y-3742D03*
D327*
X-2317Y-3441D03*
D364*
X-2317Y-3290D03*
D356*
X-2315Y-3905D03*
D335*
X-2315Y-3741D03*
X-2315Y-3441D03*
D356*
X-2315Y-3291D03*
D364*
X-2314Y-3904D03*
D339*
X-2314Y-3740D03*
D327*
X-2314Y-3443D03*
D364*
X-2314Y-3292D03*
X-2312Y-3904D03*
D327*
X-2312Y-3740D03*
D323*
X-2312Y-3443D03*
D364*
X-2312Y-3292D03*
X-2311Y-3904D03*
D323*
X-2311Y-3739D03*
D327*
X-2311Y-3444D03*
D364*
X-2311Y-3292D03*
D357*
X-2309Y-3903D03*
D323*
X-2309Y-3737D03*
X-2309Y-3445D03*
D357*
X-2309Y-3293D03*
D356*
X-2308Y-3903D03*
D329*
X-2308Y-3737D03*
D322*
X-2308Y-3446D03*
D363*
X-2308Y-3293D03*
D364*
X-2306Y-3902D03*
D317*
X-2306Y-3737D03*
X-2306Y-3447D03*
D364*
X-2306Y-3293D03*
X-2305Y-3902D03*
D320*
X-2305Y-3735D03*
D317*
X-2305Y-3447D03*
D364*
X-2305Y-3293D03*
D357*
X-2303Y-3901D03*
D312*
X-2303Y-3734D03*
D317*
X-2303Y-3449D03*
D357*
X-2303Y-3294D03*
X-2302Y-3901D03*
D312*
X-2302Y-3733D03*
X-2302Y-3449D03*
D357*
X-2302Y-3294D03*
D356*
X-2300Y-3900D03*
D361*
X-2300Y-3732D03*
D308*
X-2300Y-3451D03*
D356*
X-2300Y-3295D03*
D357*
X-2299Y-3900D03*
D306*
X-2299Y-3731D03*
D284*
X-2299Y-3451D03*
D357*
X-2299Y-3295D03*
X-2297Y-3900D03*
D306*
X-2297Y-3731D03*
D300*
X-2297Y-3452D03*
D357*
X-2297Y-3295D03*
D353*
X-2296Y-3899D03*
D284*
X-2296Y-3729D03*
D300*
X-2296Y-3454D03*
D354*
X-2296Y-3296D03*
D357*
X-2294Y-3899D03*
D300*
X-2294Y-3728D03*
D297*
X-2294Y-3455D03*
D357*
X-2294Y-3297D03*
D356*
X-2293Y-3899D03*
D360*
X-2293Y-3726D03*
X-2293Y-3456D03*
D356*
X-2293Y-3297D03*
D353*
X-2291Y-3898D03*
D293*
X-2291Y-3725D03*
X-2291Y-3457D03*
D353*
X-2291Y-3298D03*
D357*
X-2290Y-3897D03*
D358*
X-2290Y-3724D03*
D293*
X-2290Y-3458D03*
D357*
X-2290Y-3299D03*
X-2288Y-3897D03*
D287*
X-2288Y-3723D03*
D293*
X-2288Y-3460D03*
D357*
X-2288Y-3299D03*
D354*
X-2287Y-3896D03*
D287*
X-2287Y-3721D03*
D173*
X-2287Y-3461D03*
D353*
X-2287Y-3299D03*
D370*
X-2285Y-3896D03*
D371*
X-2285Y-3721D03*
D372*
X-2285Y-3463D03*
D359*
X-2285Y-3299D03*
D353*
X-2284Y-3895D03*
D283*
X-2284Y-3719D03*
X-2284Y-3464D03*
D357*
X-2284Y-3300D03*
D353*
X-2282Y-3895D03*
D283*
X-2282Y-3717D03*
D280*
X-2282Y-3466D03*
D353*
X-2282Y-3301D03*
X-2281Y-3895D03*
D280*
X-2281Y-3716D03*
D277*
X-2281Y-3467D03*
D353*
X-2281Y-3301D03*
X-2279Y-3893D03*
D277*
X-2279Y-3714D03*
X-2279Y-3468D03*
D353*
X-2279Y-3302D03*
D359*
X-2278Y-3893D03*
D373*
X-2278Y-3713D03*
X-2278Y-3470D03*
D359*
X-2278Y-3302D03*
D353*
X-2276Y-3893D03*
D271*
X-2276Y-3711D03*
X-2276Y-3471D03*
D346*
X-2276Y-3303D03*
D353*
X-2275Y-3892D03*
D270*
X-2275Y-3709D03*
X-2275Y-3473D03*
D354*
X-2275Y-3304D03*
D353*
X-2273Y-3892D03*
D267*
X-2273Y-3707D03*
X-2273Y-3475D03*
D354*
X-2273Y-3304D03*
D346*
X-2272Y-3891D03*
D265*
X-2272Y-3705D03*
X-2272Y-3477D03*
D346*
X-2272Y-3305D03*
D348*
X-2270Y-3890D03*
D374*
X-2270Y-3704D03*
D261*
X-2270Y-3479D03*
D359*
X-2270Y-3305D03*
D346*
X-2269Y-3890D03*
D259*
X-2269Y-3701D03*
X-2269Y-3481D03*
D346*
X-2269Y-3306D03*
X-2267Y-3890D03*
D258*
X-2267Y-3699D03*
D351*
X-2267Y-3484D03*
D346*
X-2267Y-3306D03*
X-2266Y-3888D03*
D255*
X-2266Y-3696D03*
D253*
X-2266Y-3487D03*
D346*
X-2266Y-3308D03*
X-2264Y-3888D03*
D350*
X-2264Y-3694D03*
D248*
X-2264Y-3489D03*
D346*
X-2264Y-3308D03*
D342*
X-2263Y-3887D03*
D375*
X-2263Y-3691D03*
D376*
X-2263Y-3492D03*
D377*
X-2263Y-3308D03*
D346*
X-2261Y-3886D03*
D175*
X-2261Y-3687D03*
D378*
X-2261Y-3496D03*
D346*
X-2261Y-3309D03*
D341*
X-2260Y-3886D03*
D239*
X-2260Y-3682D03*
X-2260Y-3500D03*
D339*
X-2260Y-3310D03*
D346*
X-2258Y-3885D03*
D379*
X-2258Y-3591D03*
D346*
X-2258Y-3311D03*
D341*
X-2257Y-3884D03*
D345*
X-2257Y-3591D03*
D339*
X-2257Y-3311D03*
D377*
X-2255Y-3884D03*
D380*
X-2255Y-3591D03*
D342*
X-2255Y-3311D03*
D339*
X-2254Y-3883D03*
D381*
X-2254Y-3591D03*
D339*
X-2254Y-3313D03*
X-2252Y-3883D03*
D195*
X-2252Y-3591D03*
D339*
X-2252Y-3313D03*
X-2251Y-3881D03*
D338*
X-2251Y-3591D03*
D341*
X-2251Y-3314D03*
D327*
X-2249Y-3881D03*
D338*
X-2249Y-3591D03*
D327*
X-2249Y-3315D03*
D335*
X-2248Y-3881D03*
D382*
X-2248Y-3591D03*
D335*
X-2248Y-3315D03*
D327*
X-2246Y-3879D03*
D383*
X-2246Y-3591D03*
D327*
X-2246Y-3317D03*
D323*
X-2245Y-3878D03*
D334*
X-2245Y-3591D03*
D327*
X-2245Y-3317D03*
X-2243Y-3878D03*
D333*
X-2243Y-3591D03*
D327*
X-2243Y-3318D03*
D323*
X-2242Y-3877D03*
D332*
X-2242Y-3591D03*
D323*
X-2242Y-3319D03*
D335*
X-2240Y-3876D03*
D384*
X-2240Y-3591D03*
D335*
X-2240Y-3320D03*
D323*
X-2239Y-3875D03*
D385*
X-2239Y-3591D03*
D323*
X-2239Y-3320D03*
X-2237Y-3875D03*
D328*
X-2237Y-3591D03*
D327*
X-2237Y-3321D03*
D323*
X-2236Y-3874D03*
D326*
X-2236Y-3591D03*
D323*
X-2236Y-3322D03*
D317*
X-2234Y-3873D03*
D325*
X-2234Y-3591D03*
D320*
X-2234Y-3323D03*
D329*
X-2233Y-3872D03*
D386*
X-2233Y-3591D03*
D329*
X-2233Y-3323D03*
D317*
X-2231Y-3872D03*
D387*
X-2231Y-3591D03*
D317*
X-2231Y-3324D03*
D320*
X-2230Y-3870D03*
D388*
X-2230Y-3591D03*
D317*
X-2230Y-3326D03*
D320*
X-2228Y-3870D03*
D319*
X-2228Y-3591D03*
D317*
X-2228Y-3326D03*
X-2227Y-3869D03*
D318*
X-2227Y-3591D03*
D317*
X-2227Y-3327D03*
D308*
X-2225Y-3868D03*
D389*
X-2225Y-3591D03*
D308*
X-2225Y-3328D03*
D312*
X-2224Y-3866D03*
D390*
X-2224Y-3591D03*
D312*
X-2224Y-3329D03*
X-2222Y-3866D03*
D314*
X-2222Y-3591D03*
D312*
X-2222Y-3331D03*
X-2221Y-3865D03*
D313*
X-2221Y-3591D03*
D312*
X-2221Y-3331D03*
X-2219Y-3863D03*
D311*
X-2219Y-3591D03*
D312*
X-2219Y-3332D03*
D362*
X-2218Y-3863D03*
D391*
X-2218Y-3591D03*
D361*
X-2218Y-3333D03*
D312*
X-2216Y-3862D03*
D392*
X-2216Y-3591D03*
D312*
X-2216Y-3334D03*
D284*
X-2215Y-3861D03*
D307*
X-2215Y-3592D03*
D306*
X-2215Y-3335D03*
X-2213Y-3860D03*
D183*
X-2213Y-3591D03*
D284*
X-2213Y-3336D03*
D300*
X-2212Y-3859D03*
D305*
X-2212Y-3591D03*
D300*
X-2212Y-3337D03*
D361*
X-2210Y-3858D03*
D393*
X-2210Y-3591D03*
D362*
X-2210Y-3338D03*
D300*
X-2209Y-3857D03*
D394*
X-2209Y-3591D03*
D300*
X-2209Y-3338D03*
X-2207Y-3856D03*
D395*
X-2207Y-3591D03*
D300*
X-2207Y-3340D03*
X-2206Y-3854D03*
D301*
X-2206Y-3591D03*
D300*
X-2206Y-3341D03*
D297*
X-2204Y-3854D03*
D299*
X-2204Y-3591D03*
D297*
X-2204Y-3342D03*
D360*
X-2203Y-3852D03*
D396*
X-2203Y-3591D03*
D360*
X-2203Y-3344D03*
D358*
X-2201Y-3851D03*
D397*
X-2201Y-3591D03*
D293*
X-2201Y-3344D03*
X-2200Y-3850D03*
D294*
X-2200Y-3591D03*
D293*
X-2200Y-3346D03*
X-2198Y-3848D03*
D228*
X-2198Y-3591D03*
D293*
X-2198Y-3347D03*
D287*
X-2197Y-3848D03*
D292*
X-2197Y-3591D03*
D287*
X-2197Y-3348D03*
D289*
X-2195Y-3847D03*
D398*
X-2195Y-3592D03*
D295*
X-2195Y-3349D03*
D293*
X-2194Y-3845D03*
D235*
X-2194Y-3591D03*
D293*
X-2194Y-3350D03*
D287*
X-2192Y-3845D03*
D288*
X-2192Y-3591D03*
D287*
X-2192Y-3351D03*
X-2191Y-3843D03*
D175*
X-2191Y-3591D03*
D287*
X-2191Y-3353D03*
D173*
X-2189Y-3842D03*
D251*
X-2189Y-3591D03*
D286*
X-2189Y-3353D03*
D371*
X-2188Y-3841D03*
D374*
X-2188Y-3591D03*
D372*
X-2188Y-3355D03*
D283*
X-2186Y-3839D03*
D277*
X-2186Y-3591D03*
D283*
X-2186Y-3357D03*
X-2185Y-3837D03*
D312*
X-2185Y-3590D03*
D280*
X-2185Y-3358D03*
X-2183Y-3836D03*
D365*
X-2183Y-3591D03*
D280*
X-2183Y-3359D03*
X-2182Y-3835D03*
D399*
X-2182Y-3591D03*
D280*
X-2182Y-3361D03*
D400*
X-2180Y-3833D03*
D401*
X-2180Y-3591D03*
D400*
X-2180Y-3362D03*
D276*
X-2179Y-3833D03*
D277*
X-2179Y-3363D03*
X-2177Y-3831D03*
X-2177Y-3365D03*
X-2176Y-3830D03*
X-2176Y-3366D03*
D275*
X-2174Y-3829D03*
X-2174Y-3367D03*
D373*
X-2173Y-3827D03*
X-2173Y-3368D03*
D271*
X-2171Y-3825D03*
D272*
X-2171Y-3371D03*
D271*
X-2170Y-3824D03*
D272*
X-2170Y-3372D03*
X-2168Y-3822D03*
D271*
X-2168Y-3374D03*
D269*
X-2167Y-3820D03*
X-2167Y-3375D03*
D268*
X-2165Y-3819D03*
X-2165Y-3376D03*
D267*
X-2164Y-3817D03*
D269*
X-2164Y-3378D03*
D267*
X-2162Y-3815D03*
X-2162Y-3380D03*
D265*
X-2161Y-3815D03*
X-2161Y-3381D03*
X-2159Y-3813D03*
X-2159Y-3383D03*
D261*
X-2158Y-3811D03*
D262*
X-2158Y-3385D03*
D263*
X-2156Y-3809D03*
D264*
X-2156Y-3386D03*
D260*
X-2155Y-3807D03*
X-2155Y-3389D03*
D259*
X-2153Y-3805D03*
X-2153Y-3391D03*
X-2152Y-3803D03*
X-2152Y-3392D03*
D352*
X-2150Y-3801D03*
X-2150Y-3395D03*
D254*
X-2149Y-3800D03*
D255*
X-2149Y-3396D03*
D254*
X-2147Y-3798D03*
D255*
X-2147Y-3398D03*
D253*
X-2146Y-3796D03*
X-2146Y-3400D03*
D251*
X-2144Y-3794D03*
D253*
X-2144Y-3401D03*
D402*
X-2143Y-3792D03*
X-2143Y-3404D03*
D252*
X-2141Y-3790D03*
X-2141Y-3406D03*
D248*
X-2140Y-3788D03*
X-2140Y-3408D03*
D246*
X-2138Y-3785D03*
D247*
X-2138Y-3411D03*
D245*
X-2137Y-3782D03*
X-2137Y-3413D03*
D403*
X-2135Y-3780D03*
D349*
X-2135Y-3416D03*
D378*
X-2134Y-3778D03*
X-2134Y-3418D03*
D241*
X-2132Y-3776D03*
D242*
X-2132Y-3420D03*
D240*
X-2131Y-3773D03*
X-2131Y-3422D03*
D239*
X-2129Y-3770D03*
X-2129Y-3425D03*
D404*
X-2128Y-3767D03*
D405*
X-2128Y-3428D03*
D406*
X-2126Y-3765D03*
X-2126Y-3431D03*
D235*
X-2125Y-3762D03*
X-2125Y-3434D03*
D234*
X-2123Y-3759D03*
X-2123Y-3436D03*
D233*
X-2122Y-3756D03*
X-2122Y-3440D03*
D407*
X-2120Y-3751D03*
X-2120Y-3444D03*
D408*
X-2119Y-3748D03*
X-2119Y-3448D03*
D229*
X-2117Y-3745D03*
X-2117Y-3451D03*
D228*
X-2116Y-3741D03*
X-2116Y-3455D03*
D227*
X-2114Y-3736D03*
X-2114Y-3460D03*
D179*
X-2113Y-3730D03*
D409*
X-2113Y-3466D03*
D180*
X-2111Y-3722D03*
X-2111Y-3473D03*
D223*
X-2110Y-3598D03*
D222*
X-2108Y-3598D03*
D221*
X-2107Y-3598D03*
D410*
X-2105Y-3598D03*
D411*
X-2104Y-3598D03*
D218*
X-2102Y-3598D03*
D217*
X-2101Y-3598D03*
D216*
X-2099Y-3598D03*
D412*
X-2098Y-3598D03*
D413*
X-2096Y-3598D03*
D213*
X-2095Y-3598D03*
D212*
X-2093Y-3598D03*
D211*
X-2092Y-3598D03*
D414*
X-2090Y-3598D03*
D415*
X-2089Y-3598D03*
D208*
X-2087Y-3598D03*
D207*
X-2086Y-3598D03*
D206*
X-2084Y-3598D03*
D416*
X-2083Y-3598D03*
D417*
X-2081Y-3598D03*
D203*
X-2080Y-3598D03*
D418*
X-2078Y-3598D03*
D201*
X-2077Y-3598D03*
D419*
X-2075Y-3598D03*
D420*
X-2074Y-3598D03*
D198*
X-2072Y-3598D03*
D197*
X-2071Y-3598D03*
D196*
X-2069Y-3598D03*
D421*
X-2068Y-3598D03*
D422*
X-2066Y-3598D03*
D193*
X-2065Y-3598D03*
D192*
X-2063Y-3598D03*
D191*
X-2062Y-3598D03*
D423*
X-2060Y-3598D03*
D424*
X-2059Y-3598D03*
D188*
X-2057Y-3598D03*
D187*
X-2056Y-3598D03*
D186*
X-2054Y-3598D03*
D425*
X-2053Y-3598D03*
D426*
X-2051Y-3598D03*
D427*
X-2050Y-3598D03*
D428*
X-2048Y-3598D03*
D429*
X-2047Y-3598D03*
D430*
X-2045Y-3598D03*
D226*
X-2044Y-3598D03*
D178*
X-2042Y-3598D03*
D408*
X-2041Y-3598D03*
D176*
X-2039Y-3598D03*
D431*
X-2038Y-3598D03*
D259*
X-2036Y-3598D03*
D293*
X-2035Y-3598D03*
D172*
X-2033Y-3598D03*
D432*
X-2032Y-3598D03*
D46*
X1996Y-6953D03*
D21*
X1998Y-6948D03*
D58*
X1998Y-6943D03*
D53*
X2001Y-6938D03*
D157*
X1998Y-6933D03*
D149*
X1998Y-6928D03*
D68*
X1998Y-6923D03*
D146*
X1998Y-6918D03*
D170*
X1998Y-6913D03*
D88*
X2153Y-6908D03*
X1843Y-6908D03*
D51*
X2178Y-6903D03*
D46*
X1821Y-6903D03*
D47*
X2196Y-6898D03*
D16*
X1803Y-6898D03*
D63*
X2211Y-6893D03*
D29*
X1788Y-6893D03*
D50*
X2226Y-6888D03*
D30*
X1773Y-6888D03*
X2238Y-6883D03*
D15*
X1761Y-6883D03*
D13*
X2248Y-6878D03*
X1748Y-6878D03*
X2258Y-6873D03*
D32*
X1736Y-6873D03*
X2271Y-6868D03*
X1726Y-6868D03*
X2281Y-6863D03*
D36*
X1716Y-6863D03*
X2291Y-6858D03*
X1706Y-6858D03*
X2301Y-6853D03*
D39*
X1698Y-6853D03*
X2308Y-6848D03*
X1688Y-6848D03*
D36*
X2316Y-6843D03*
D43*
X1681Y-6843D03*
D39*
X2323Y-6838D03*
X1673Y-6838D03*
D43*
X2331Y-6833D03*
X1666Y-6833D03*
X2341Y-6828D03*
D14*
X1658Y-6828D03*
D43*
X2346Y-6823D03*
D14*
X1648Y-6823D03*
X2353Y-6818D03*
X1643Y-6818D03*
X2358Y-6813D03*
D41*
X1636Y-6813D03*
D14*
X2368Y-6808D03*
D41*
X1631Y-6808D03*
D14*
X2373Y-6803D03*
D41*
X1626Y-6803D03*
X2381Y-6798D03*
X1616Y-6798D03*
X2386Y-6793D03*
X1611Y-6793D03*
X2391Y-6788D03*
X1606Y-6788D03*
X2396Y-6783D03*
D11*
X1598Y-6783D03*
X2403Y-6778D03*
X1593Y-6778D03*
X2408Y-6773D03*
X1588Y-6773D03*
X2413Y-6768D03*
X1583Y-6768D03*
X2418Y-6763D03*
X1578Y-6763D03*
X2423Y-6758D03*
X1573Y-6758D03*
X2428Y-6753D03*
D12*
X1566Y-6753D03*
D11*
X2433Y-6748D03*
D101*
X2341Y-6748D03*
D78*
X2203Y-6748D03*
D12*
X2086Y-6748D03*
D101*
X1951Y-6748D03*
X1831Y-6748D03*
D14*
X1703Y-6748D03*
D12*
X1561Y-6748D03*
D11*
X2438Y-6743D03*
D101*
X2341Y-6743D03*
X2206Y-6743D03*
D43*
X2086Y-6743D03*
D101*
X1951Y-6743D03*
X1831Y-6743D03*
D13*
X1708Y-6743D03*
D44*
X1558Y-6743D03*
D11*
X2443Y-6738D03*
D101*
X2341Y-6738D03*
D78*
X2208Y-6738D03*
D33*
X2088Y-6738D03*
D101*
X1951Y-6738D03*
X1831Y-6738D03*
D29*
X1708Y-6738D03*
D44*
X1553Y-6738D03*
D12*
X2446Y-6733D03*
D101*
X2341Y-6733D03*
X2211Y-6733D03*
D13*
X2088Y-6733D03*
D101*
X1951Y-6733D03*
X1831Y-6733D03*
D63*
X1706Y-6733D03*
D44*
X1548Y-6733D03*
D12*
X2451Y-6728D03*
D101*
X2341Y-6728D03*
X2211Y-6728D03*
D30*
X2088Y-6728D03*
D101*
X1951Y-6728D03*
X1831Y-6728D03*
D16*
X1703Y-6728D03*
D44*
X1543Y-6728D03*
D12*
X2456Y-6723D03*
D101*
X2341Y-6723D03*
X2216Y-6723D03*
D38*
X2126Y-6723D03*
D100*
X2048Y-6723D03*
D101*
X1951Y-6723D03*
X1831Y-6723D03*
D48*
X1746Y-6723D03*
X1656Y-6723D03*
D12*
X1541Y-6723D03*
X2461Y-6718D03*
D101*
X2341Y-6718D03*
X2216Y-6718D03*
D78*
X2133Y-6718D03*
X2043Y-6718D03*
D101*
X1951Y-6718D03*
X1831Y-6718D03*
X1756Y-6718D03*
D78*
X1648Y-6718D03*
D12*
X1536Y-6718D03*
X2466Y-6713D03*
D101*
X2341Y-6713D03*
X2221Y-6713D03*
X2136Y-6713D03*
D78*
X2038Y-6713D03*
D101*
X1951Y-6713D03*
X1831Y-6713D03*
D49*
X1761Y-6713D03*
D78*
X1643Y-6713D03*
D44*
X1533Y-6713D03*
X2468Y-6708D03*
D101*
X2341Y-6708D03*
X2221Y-6708D03*
X2141Y-6708D03*
X2036Y-6708D03*
X1951Y-6708D03*
X1831Y-6708D03*
D104*
X1766Y-6708D03*
D101*
X1641Y-6708D03*
D44*
X1528Y-6708D03*
X2473Y-6703D03*
D101*
X2341Y-6703D03*
X2226Y-6703D03*
X2141Y-6703D03*
X2036Y-6703D03*
X1951Y-6703D03*
X1831Y-6703D03*
X1641Y-6703D03*
D44*
X1523Y-6703D03*
D12*
X2476Y-6698D03*
D101*
X2341Y-6698D03*
X2226Y-6698D03*
X2141Y-6698D03*
X2031Y-6698D03*
X1951Y-6698D03*
X1831Y-6698D03*
X1636Y-6698D03*
D44*
X1518Y-6698D03*
D12*
X2481Y-6693D03*
D101*
X2341Y-6693D03*
X2231Y-6693D03*
X2146Y-6693D03*
X2031Y-6693D03*
X1951Y-6693D03*
X1831Y-6693D03*
X1636Y-6693D03*
D48*
X1516Y-6693D03*
D44*
X2483Y-6688D03*
D101*
X2341Y-6688D03*
X2231Y-6688D03*
X2146Y-6688D03*
X2031Y-6688D03*
X1951Y-6688D03*
X1831Y-6688D03*
X1636Y-6688D03*
D44*
X1513Y-6688D03*
X2488Y-6683D03*
D101*
X2341Y-6683D03*
X2236Y-6683D03*
X2146Y-6683D03*
X2031Y-6683D03*
X1951Y-6683D03*
X1831Y-6683D03*
X1636Y-6683D03*
D44*
X1508Y-6683D03*
X2493Y-6678D03*
D101*
X2341Y-6678D03*
X2236Y-6678D03*
X2146Y-6678D03*
D102*
X2028Y-6678D03*
D101*
X1951Y-6678D03*
X1831Y-6678D03*
X1636Y-6678D03*
D48*
X1506Y-6678D03*
D44*
X2493Y-6673D03*
D101*
X2341Y-6673D03*
X2241Y-6673D03*
X2146Y-6673D03*
D102*
X2028Y-6673D03*
D101*
X1951Y-6673D03*
X1831Y-6673D03*
X1636Y-6673D03*
D48*
X1501Y-6673D03*
D44*
X2498Y-6668D03*
D101*
X2341Y-6668D03*
D78*
X2243Y-6668D03*
D101*
X2146Y-6668D03*
X2026Y-6668D03*
X1951Y-6668D03*
X1831Y-6668D03*
D78*
X1638Y-6668D03*
D44*
X1498Y-6668D03*
X2503Y-6663D03*
D101*
X2341Y-6663D03*
X2246Y-6663D03*
X2146Y-6663D03*
X2026Y-6663D03*
X1951Y-6663D03*
X1831Y-6663D03*
X1641Y-6663D03*
D48*
X1496Y-6663D03*
D44*
X2503Y-6658D03*
D101*
X2341Y-6658D03*
D78*
X2248Y-6658D03*
D101*
X2146Y-6658D03*
X2026Y-6658D03*
X1951Y-6658D03*
X1831Y-6658D03*
D78*
X1643Y-6658D03*
D48*
X1491Y-6658D03*
D44*
X2508Y-6653D03*
D101*
X2341Y-6653D03*
D38*
X2256Y-6653D03*
D101*
X2146Y-6653D03*
X2026Y-6653D03*
X1951Y-6653D03*
X1831Y-6653D03*
D100*
X1648Y-6653D03*
D44*
X1488Y-6653D03*
D48*
X2511Y-6648D03*
D30*
X2298Y-6648D03*
D101*
X2146Y-6648D03*
D102*
X2028Y-6648D03*
D101*
X1951Y-6648D03*
X1831Y-6648D03*
D48*
X1656Y-6648D03*
X1486Y-6648D03*
D44*
X2513Y-6643D03*
D15*
X2301Y-6643D03*
D101*
X2146Y-6643D03*
D102*
X2028Y-6643D03*
D101*
X1951Y-6643D03*
X1831Y-6643D03*
D41*
X1666Y-6643D03*
D48*
X1481Y-6643D03*
D44*
X2518Y-6638D03*
D32*
X2306Y-6638D03*
D101*
X2146Y-6638D03*
D102*
X2028Y-6638D03*
D101*
X1951Y-6638D03*
X1831Y-6638D03*
D43*
X1676Y-6638D03*
D48*
X1481Y-6638D03*
X2521Y-6633D03*
D15*
X2301Y-6633D03*
D101*
X2146Y-6633D03*
X2031Y-6633D03*
D46*
X1891Y-6633D03*
D36*
X1686Y-6633D03*
D48*
X1476Y-6633D03*
D44*
X2523Y-6628D03*
D50*
X2296Y-6628D03*
D101*
X2146Y-6628D03*
X2031Y-6628D03*
D46*
X1891Y-6628D03*
D33*
X1693Y-6628D03*
D100*
X1473Y-6628D03*
D48*
X2526Y-6623D03*
D29*
X2293Y-6623D03*
D102*
X2143Y-6623D03*
D101*
X2031Y-6623D03*
D46*
X1891Y-6623D03*
D33*
X1703Y-6623D03*
D48*
X1471Y-6623D03*
D44*
X2528Y-6618D03*
D101*
X2341Y-6618D03*
D100*
X2248Y-6618D03*
D101*
X2141Y-6618D03*
D102*
X2033Y-6618D03*
D46*
X1891Y-6618D03*
D36*
X1711Y-6618D03*
D100*
X1468Y-6618D03*
D48*
X2531Y-6613D03*
D101*
X2341Y-6613D03*
D38*
X2241Y-6613D03*
D101*
X2141Y-6613D03*
X2036Y-6613D03*
D46*
X1891Y-6613D03*
D14*
X1723Y-6613D03*
D48*
X1466Y-6613D03*
D44*
X2533Y-6608D03*
D101*
X2341Y-6608D03*
D78*
X2238Y-6608D03*
X2138Y-6608D03*
X2038Y-6608D03*
D46*
X1891Y-6608D03*
D44*
X1733Y-6608D03*
D100*
X1463Y-6608D03*
D48*
X2536Y-6603D03*
D101*
X2341Y-6603D03*
D78*
X2233Y-6603D03*
X2133Y-6603D03*
D101*
X2041Y-6603D03*
X1951Y-6603D03*
X1831Y-6603D03*
D100*
X1743Y-6603D03*
D48*
X1461Y-6603D03*
D44*
X2538Y-6598D03*
D101*
X2341Y-6598D03*
X2231Y-6598D03*
D38*
X2131Y-6598D03*
X2046Y-6598D03*
D101*
X1951Y-6598D03*
X1831Y-6598D03*
D78*
X1748Y-6598D03*
D48*
X1456Y-6598D03*
X2541Y-6593D03*
D101*
X2341Y-6593D03*
X2231Y-6593D03*
D30*
X2088Y-6593D03*
D101*
X1951Y-6593D03*
X1831Y-6593D03*
D78*
X1753Y-6593D03*
D48*
X1456Y-6593D03*
D44*
X2543Y-6588D03*
D101*
X2341Y-6588D03*
X2231Y-6588D03*
D13*
X2088Y-6588D03*
D101*
X1951Y-6588D03*
X1831Y-6588D03*
X1756Y-6588D03*
D100*
X1453Y-6588D03*
D48*
X2546Y-6583D03*
D101*
X2341Y-6583D03*
D78*
X2228Y-6583D03*
D33*
X2088Y-6583D03*
D101*
X1951Y-6583D03*
X1831Y-6583D03*
X1756Y-6583D03*
D48*
X1451Y-6583D03*
X2546Y-6578D03*
D101*
X2341Y-6578D03*
D78*
X2228Y-6578D03*
D39*
X2088Y-6578D03*
D101*
X1951Y-6578D03*
X1831Y-6578D03*
X1756Y-6578D03*
D100*
X1448Y-6578D03*
D48*
X2551Y-6573D03*
D101*
X2341Y-6573D03*
D78*
X2228Y-6573D03*
D41*
X2086Y-6573D03*
D101*
X1951Y-6573D03*
X1831Y-6573D03*
X1756Y-6573D03*
D48*
X1446Y-6573D03*
X2551Y-6568D03*
D101*
X2341Y-6568D03*
X2231Y-6568D03*
D38*
X2086Y-6568D03*
D101*
X1951Y-6568D03*
X1831Y-6568D03*
X1756Y-6568D03*
D100*
X1443Y-6568D03*
D48*
X2556Y-6563D03*
D101*
X2341Y-6563D03*
X2231Y-6563D03*
X1951Y-6563D03*
X1831Y-6563D03*
X1756Y-6563D03*
D48*
X1441Y-6563D03*
X2556Y-6558D03*
D101*
X2341Y-6558D03*
D78*
X2233Y-6558D03*
D101*
X1951Y-6558D03*
X1831Y-6558D03*
X1756Y-6558D03*
D100*
X1438Y-6558D03*
D48*
X2561Y-6553D03*
D101*
X2341Y-6553D03*
D38*
X2236Y-6553D03*
D101*
X1951Y-6553D03*
X1831Y-6553D03*
X1751Y-6553D03*
D100*
X1438Y-6553D03*
D48*
X2561Y-6548D03*
D101*
X2341Y-6548D03*
D38*
X2241Y-6548D03*
D101*
X1951Y-6548D03*
X1831Y-6548D03*
X1751Y-6548D03*
D105*
X1638Y-6548D03*
D48*
X1436Y-6548D03*
X2561Y-6543D03*
D101*
X2341Y-6543D03*
D100*
X2243Y-6543D03*
D101*
X1951Y-6543D03*
X1831Y-6543D03*
D78*
X1743Y-6543D03*
D103*
X1643Y-6543D03*
D100*
X1433Y-6543D03*
D48*
X2566Y-6538D03*
D63*
X2291Y-6538D03*
D101*
X1951Y-6538D03*
X1831Y-6538D03*
D100*
X1738Y-6538D03*
D101*
X1651Y-6538D03*
D100*
X1433Y-6538D03*
D48*
X2566Y-6533D03*
D29*
X2293Y-6533D03*
D101*
X1951Y-6533D03*
X1831Y-6533D03*
D50*
X1696Y-6533D03*
D100*
X1428Y-6533D03*
X2568Y-6528D03*
D50*
X2296Y-6528D03*
D101*
X1951Y-6528D03*
X1831Y-6528D03*
D30*
X1693Y-6528D03*
D100*
X1428Y-6528D03*
D48*
X2571Y-6523D03*
D30*
X2298Y-6523D03*
D101*
X1951Y-6523D03*
X1831Y-6523D03*
D15*
X1691Y-6523D03*
D100*
X1428Y-6523D03*
D48*
X2571Y-6518D03*
D13*
X2303Y-6518D03*
D104*
X2061Y-6518D03*
D101*
X1951Y-6518D03*
X1831Y-6518D03*
D13*
X1688Y-6518D03*
D100*
X1423Y-6518D03*
X2573Y-6513D03*
D36*
X2311Y-6513D03*
D104*
X2061Y-6513D03*
D101*
X1951Y-6513D03*
X1831Y-6513D03*
D43*
X1691Y-6513D03*
D100*
X1423Y-6513D03*
D48*
X2576Y-6508D03*
D49*
X2061Y-6508D03*
D38*
X1696Y-6508D03*
D100*
X1423Y-6508D03*
D48*
X2576Y-6503D03*
D102*
X2063Y-6503D03*
D100*
X1418Y-6503D03*
X2578Y-6498D03*
D78*
X2063Y-6498D03*
D100*
X1418Y-6498D03*
X2578Y-6493D03*
D78*
X2063Y-6493D03*
D100*
X1418Y-6493D03*
D48*
X2581Y-6488D03*
D100*
X2063Y-6488D03*
X1418Y-6488D03*
D48*
X2581Y-6483D03*
D100*
X2063Y-6483D03*
X1413Y-6483D03*
X2583Y-6478D03*
D44*
X2063Y-6478D03*
D100*
X1413Y-6478D03*
X2583Y-6473D03*
D12*
X2066Y-6473D03*
D100*
X1413Y-6473D03*
D48*
X2586Y-6468D03*
D11*
X2063Y-6468D03*
D100*
X1413Y-6468D03*
D48*
X2586Y-6463D03*
D41*
X2066Y-6463D03*
D100*
X1408Y-6463D03*
X2588Y-6458D03*
D43*
X2066Y-6458D03*
D100*
X1408Y-6458D03*
X2588Y-6453D03*
D39*
X2068Y-6453D03*
D100*
X1408Y-6453D03*
X2588Y-6448D03*
D36*
X2066Y-6448D03*
D100*
X1408Y-6448D03*
D48*
X2591Y-6443D03*
D33*
X2068Y-6443D03*
D100*
X1408Y-6443D03*
D48*
X2591Y-6438D03*
D13*
X2068Y-6438D03*
D100*
X1403Y-6438D03*
X2593Y-6433D03*
D15*
X2071Y-6433D03*
D100*
X1403Y-6433D03*
X2593Y-6428D03*
D50*
X2071Y-6428D03*
D100*
X1403Y-6428D03*
X2593Y-6423D03*
D29*
X2068Y-6423D03*
D100*
X1403Y-6423D03*
X2593Y-6418D03*
D63*
X2071Y-6418D03*
D100*
X1403Y-6418D03*
D48*
X2596Y-6413D03*
D47*
X2071Y-6413D03*
D100*
X1403Y-6413D03*
D48*
X2596Y-6408D03*
D45*
X2073Y-6408D03*
D38*
X1401Y-6408D03*
D48*
X2596Y-6403D03*
D51*
X2073Y-6403D03*
D100*
X1398Y-6403D03*
D48*
X2596Y-6398D03*
D17*
X2076Y-6398D03*
D100*
X1398Y-6398D03*
X2598Y-6393D03*
D18*
X2076Y-6393D03*
D100*
X1398Y-6393D03*
X2598Y-6388D03*
D89*
X2076Y-6388D03*
D100*
X1398Y-6388D03*
X2598Y-6383D03*
D61*
X2078Y-6383D03*
D100*
X1398Y-6383D03*
X2598Y-6378D03*
D77*
X2078Y-6378D03*
D100*
X1398Y-6378D03*
X2598Y-6373D03*
D20*
X2081Y-6373D03*
D100*
X1398Y-6373D03*
X2598Y-6368D03*
D91*
X2081Y-6368D03*
D100*
X1398Y-6368D03*
X2598Y-6363D03*
D159*
X2081Y-6363D03*
D100*
X1398Y-6363D03*
X2598Y-6358D03*
D22*
X2086Y-6358D03*
D100*
X1398Y-6358D03*
X2598Y-6353D03*
D23*
X2086Y-6353D03*
D100*
X1398Y-6353D03*
X2598Y-6348D03*
D24*
X2086Y-6348D03*
D100*
X1398Y-6348D03*
X2598Y-6343D03*
D59*
X2088Y-6343D03*
D100*
X1398Y-6343D03*
X2598Y-6338D03*
D58*
X2088Y-6338D03*
D100*
X1398Y-6338D03*
X2598Y-6333D03*
D26*
X2091Y-6333D03*
D100*
X1398Y-6333D03*
X2598Y-6328D03*
D27*
X2091Y-6328D03*
D100*
X1398Y-6328D03*
X2598Y-6323D03*
D28*
X2091Y-6323D03*
D100*
X1398Y-6323D03*
X2598Y-6318D03*
D54*
X2091Y-6318D03*
D100*
X1398Y-6318D03*
X2598Y-6313D03*
D18*
X2161Y-6313D03*
D50*
X2001Y-6313D03*
D100*
X1398Y-6313D03*
X2598Y-6308D03*
D88*
X2168Y-6308D03*
D50*
X1996Y-6308D03*
D100*
X1398Y-6308D03*
X2598Y-6303D03*
D88*
X2173Y-6303D03*
D29*
X1993Y-6303D03*
D100*
X1398Y-6303D03*
X2598Y-6298D03*
D89*
X2176Y-6298D03*
D50*
X1991Y-6298D03*
D100*
X1398Y-6298D03*
X2598Y-6293D03*
D89*
X2181Y-6293D03*
D29*
X1988Y-6293D03*
D100*
X1398Y-6293D03*
X2598Y-6288D03*
D61*
X2183Y-6288D03*
D29*
X1983Y-6288D03*
D100*
X1398Y-6288D03*
X2598Y-6283D03*
D89*
X2186Y-6283D03*
D29*
X1983Y-6283D03*
D100*
X1398Y-6283D03*
X2598Y-6278D03*
D89*
X2186Y-6278D03*
D29*
X1978Y-6278D03*
D100*
X1398Y-6278D03*
D48*
X2596Y-6273D03*
D88*
X2183Y-6273D03*
D63*
X1976Y-6273D03*
D100*
X1398Y-6273D03*
D48*
X2596Y-6268D03*
D62*
X2183Y-6268D03*
D63*
X1971Y-6268D03*
D100*
X1398Y-6268D03*
D48*
X2596Y-6263D03*
D17*
X2181Y-6263D03*
D63*
X1971Y-6263D03*
D100*
X1398Y-6263D03*
D48*
X2596Y-6258D03*
D46*
X2181Y-6258D03*
D63*
X1966Y-6258D03*
D48*
X1401Y-6258D03*
X2596Y-6253D03*
D45*
X2178Y-6253D03*
D16*
X1963Y-6253D03*
D100*
X1403Y-6253D03*
D48*
X2596Y-6248D03*
D16*
X2178Y-6248D03*
X1958Y-6248D03*
D100*
X1403Y-6248D03*
X2593Y-6243D03*
D29*
X2173Y-6243D03*
D16*
X1958Y-6243D03*
D100*
X1403Y-6243D03*
D48*
X2591Y-6238D03*
D30*
X2173Y-6238D03*
D16*
X1953Y-6238D03*
D100*
X1403Y-6238D03*
D48*
X2591Y-6233D03*
D15*
X2171Y-6233D03*
D47*
X1951Y-6233D03*
D100*
X1403Y-6233D03*
D48*
X2591Y-6228D03*
D13*
X2168Y-6228D03*
D45*
X1948Y-6228D03*
D48*
X1406Y-6228D03*
X2591Y-6223D03*
D36*
X2166Y-6223D03*
D47*
X1946Y-6223D03*
D48*
X1406Y-6223D03*
X2591Y-6218D03*
D39*
X2163Y-6218D03*
D45*
X1943Y-6218D03*
D100*
X1408Y-6218D03*
D48*
X2586Y-6213D03*
D14*
X2163Y-6213D03*
D45*
X1938Y-6213D03*
D100*
X1408Y-6213D03*
D48*
X2586Y-6208D03*
D41*
X2161Y-6208D03*
D46*
X1936Y-6208D03*
D100*
X1408Y-6208D03*
D48*
X2586Y-6203D03*
D44*
X2158Y-6203D03*
D46*
X1931Y-6203D03*
D48*
X1411Y-6203D03*
X2586Y-6198D03*
X2156Y-6198D03*
D51*
X1928Y-6198D03*
D48*
X1411Y-6198D03*
X2586Y-6193D03*
D38*
X2156Y-6193D03*
D46*
X1926Y-6193D03*
D100*
X1413Y-6193D03*
D48*
X2581Y-6188D03*
D101*
X2151Y-6188D03*
D51*
X1923Y-6188D03*
D100*
X1413Y-6188D03*
D48*
X2581Y-6183D03*
D102*
X2148Y-6183D03*
D51*
X1918Y-6183D03*
D48*
X1416Y-6183D03*
X2581Y-6178D03*
D104*
X2146Y-6178D03*
D17*
X1916Y-6178D03*
D48*
X1416Y-6178D03*
D44*
X2578Y-6173D03*
D17*
X1911Y-6173D03*
D100*
X1418Y-6173D03*
D48*
X2576Y-6168D03*
D62*
X1908Y-6168D03*
D48*
X1421Y-6168D03*
X2576Y-6163D03*
D62*
X1903Y-6163D03*
D48*
X1421Y-6163D03*
X2576Y-6158D03*
D18*
X1901Y-6158D03*
D48*
X1421Y-6158D03*
D44*
X2573Y-6153D03*
D18*
X1896Y-6153D03*
D100*
X1423Y-6153D03*
D48*
X2571Y-6148D03*
D89*
X1891Y-6148D03*
D48*
X1426Y-6148D03*
D44*
X2568Y-6143D03*
D89*
X1886Y-6143D03*
D48*
X1426Y-6143D03*
D44*
X2568Y-6138D03*
D61*
X1883Y-6138D03*
D48*
X1431Y-6138D03*
X2566Y-6133D03*
D61*
X1878Y-6133D03*
D48*
X1431Y-6133D03*
D44*
X2563Y-6128D03*
D19*
X1876Y-6128D03*
D48*
X1431Y-6128D03*
D44*
X2563Y-6123D03*
D19*
X1871Y-6123D03*
D48*
X1436Y-6123D03*
X2561Y-6118D03*
D77*
X1868Y-6118D03*
D48*
X1436Y-6118D03*
D44*
X2558Y-6113D03*
D77*
X1863Y-6113D03*
D48*
X1436Y-6113D03*
X2556Y-6108D03*
D77*
X1863Y-6108D03*
D48*
X1441Y-6108D03*
D44*
X2553Y-6103D03*
D77*
X1858Y-6103D03*
D48*
X1441Y-6103D03*
D44*
X2553Y-6098D03*
D77*
X1858Y-6098D03*
D48*
X1446Y-6098D03*
D44*
X2548Y-6093D03*
D19*
X1856Y-6093D03*
D48*
X1446Y-6093D03*
D44*
X2548Y-6088D03*
D19*
X1856Y-6088D03*
D44*
X1448Y-6088D03*
X2543Y-6083D03*
D61*
X1853Y-6083D03*
D48*
X1451Y-6083D03*
D44*
X2543Y-6078D03*
D89*
X1851Y-6078D03*
D44*
X1453Y-6078D03*
D12*
X2541Y-6073D03*
D88*
X1853Y-6073D03*
D48*
X1456Y-6073D03*
D44*
X2538Y-6068D03*
D18*
X1851Y-6068D03*
D44*
X1458Y-6068D03*
D12*
X2536Y-6063D03*
D18*
X1851Y-6063D03*
D48*
X1461Y-6063D03*
D44*
X2533Y-6058D03*
D62*
X1848Y-6058D03*
D44*
X1463Y-6058D03*
D12*
X2531Y-6053D03*
D62*
X1848Y-6053D03*
D48*
X1466Y-6053D03*
D44*
X2528Y-6048D03*
D17*
X1846Y-6048D03*
D44*
X1468Y-6048D03*
D12*
X2526Y-6043D03*
D51*
X1843Y-6043D03*
D44*
X1473Y-6043D03*
X2523Y-6038D03*
D51*
X1843Y-6038D03*
D44*
X1473Y-6038D03*
D12*
X2521Y-6033D03*
D46*
X1841Y-6033D03*
D44*
X1478Y-6033D03*
D12*
X2516Y-6028D03*
D46*
X1841Y-6028D03*
D44*
X1478Y-6028D03*
X2513Y-6023D03*
D45*
X1838Y-6023D03*
D44*
X1483Y-6023D03*
D12*
X2511Y-6018D03*
D47*
X1836Y-6018D03*
D12*
X1486Y-6018D03*
X2506Y-6013D03*
D47*
X1836Y-6013D03*
D44*
X1488Y-6013D03*
D12*
X2506Y-6008D03*
D16*
X1833Y-6008D03*
D12*
X1491Y-6008D03*
X2501Y-6003D03*
D63*
X1831Y-6003D03*
D12*
X1496Y-6003D03*
D11*
X2498Y-5998D03*
D63*
X1831Y-5998D03*
D44*
X1498Y-5998D03*
D11*
X2493Y-5993D03*
D29*
X1828Y-5993D03*
D12*
X1501Y-5993D03*
X2491Y-5988D03*
D50*
X1826Y-5988D03*
D12*
X1506Y-5988D03*
D11*
X2488Y-5983D03*
D50*
X1826Y-5983D03*
D12*
X1511Y-5983D03*
D11*
X2483Y-5978D03*
D30*
X1823Y-5978D03*
D12*
X1511Y-5978D03*
D11*
X2478Y-5973D03*
D15*
X1821Y-5973D03*
D12*
X1516Y-5973D03*
X2476Y-5968D03*
D15*
X1821Y-5968D03*
D12*
X1521Y-5968D03*
D11*
X2473Y-5963D03*
D13*
X1818Y-5963D03*
D11*
X1523Y-5963D03*
X2468Y-5958D03*
D32*
X1816Y-5958D03*
D11*
X1528Y-5958D03*
X2463Y-5953D03*
D32*
X1816Y-5953D03*
D11*
X1533Y-5953D03*
D41*
X2461Y-5948D03*
D33*
X1813Y-5948D03*
D11*
X1538Y-5948D03*
D41*
X2456Y-5943D03*
D36*
X1811Y-5943D03*
D11*
X1538Y-5943D03*
D41*
X2451Y-5938D03*
D39*
X1808Y-5938D03*
D11*
X1543Y-5938D03*
D41*
X2446Y-5933D03*
D43*
X1806Y-5933D03*
D11*
X1548Y-5933D03*
D41*
X2441Y-5928D03*
D14*
X1803Y-5928D03*
D11*
X1553Y-5928D03*
D41*
X2436Y-5923D03*
X1801Y-5923D03*
D11*
X1558Y-5923D03*
D14*
X2433Y-5918D03*
D11*
X1798Y-5918D03*
X1563Y-5918D03*
D14*
X2428Y-5913D03*
D11*
X1793Y-5913D03*
D41*
X1571Y-5913D03*
D14*
X2423Y-5908D03*
D12*
X1791Y-5908D03*
D14*
X1573Y-5908D03*
X2418Y-5903D03*
D44*
X1788Y-5903D03*
D14*
X1578Y-5903D03*
X2413Y-5898D03*
D48*
X1786Y-5898D03*
D14*
X1583Y-5898D03*
X2408Y-5893D03*
D100*
X1783Y-5893D03*
D14*
X1588Y-5893D03*
D43*
X2401Y-5888D03*
D38*
X1781Y-5888D03*
D14*
X1593Y-5888D03*
D43*
X2396Y-5883D03*
D78*
X1778Y-5883D03*
D43*
X1601Y-5883D03*
X2391Y-5878D03*
D101*
X1776Y-5878D03*
D43*
X1606Y-5878D03*
X2386Y-5873D03*
D102*
X1773Y-5873D03*
D43*
X1611Y-5873D03*
D39*
X2378Y-5868D03*
D104*
X1771Y-5868D03*
D39*
X1618Y-5868D03*
X2373Y-5863D03*
D105*
X1768Y-5863D03*
D43*
X1626Y-5863D03*
D36*
X2366Y-5858D03*
D43*
X1631Y-5858D03*
D39*
X2358Y-5853D03*
X1638Y-5853D03*
D36*
X2351Y-5848D03*
D39*
X1643Y-5848D03*
D33*
X2343Y-5843D03*
D36*
X1651Y-5843D03*
D33*
X2338Y-5838D03*
X1658Y-5838D03*
D32*
X2331Y-5833D03*
D33*
X1668Y-5833D03*
D32*
X2321Y-5828D03*
X1676Y-5828D03*
D13*
X2313Y-5823D03*
D32*
X1681Y-5823D03*
D13*
X2303Y-5818D03*
D32*
X1691Y-5818D03*
D15*
X2296Y-5813D03*
X1701Y-5813D03*
X2286Y-5808D03*
X1711Y-5808D03*
D30*
X2278Y-5803D03*
X1718Y-5803D03*
D50*
X2266Y-5798D03*
D30*
X1728Y-5798D03*
D29*
X2258Y-5793D03*
X1738Y-5793D03*
D63*
X2246Y-5788D03*
X1751Y-5788D03*
D47*
X2231Y-5783D03*
D16*
X1763Y-5783D03*
D45*
X2218Y-5778D03*
X1778Y-5778D03*
D17*
X2206Y-5773D03*
D51*
X1793Y-5773D03*
D89*
X2186Y-5768D03*
D18*
X1811Y-5768D03*
D20*
X2161Y-5763D03*
D77*
X1833Y-5763D03*
D126*
X1998Y-5758D03*
D131*
X1998Y-5753D03*
D137*
X2001Y-5748D03*
D146*
X1998Y-5743D03*
D68*
X1998Y-5738D03*
D149*
X1998Y-5733D03*
D157*
X1998Y-5728D03*
D154*
X1998Y-5723D03*
D58*
X1998Y-5718D03*
D21*
X1998Y-5713D03*
D45*
X1998Y-5708D03*
D433*
G36*
X-899Y-9958D02*
X-861Y-9951D01*
X-859Y-9960D01*
X-897Y-9967D01*
X-899Y-9958D01*
G37*
D434*
G36*
X-901Y-9949D02*
X-853Y-9940D01*
X-851Y-9949D01*
X-899Y-9958D01*
X-901Y-9949D01*
G37*
D435*
G36*
X-903Y-9938D02*
X-845Y-9928D01*
X-843Y-9938D01*
X-901Y-9948D01*
X-903Y-9938D01*
G37*
G36*
X-895Y-9926D02*
X-837Y-9916D01*
X-835Y-9926D01*
X-893Y-9936D01*
X-895Y-9926D01*
G37*
G36*
X-897Y-9916D02*
X-839Y-9906D01*
X-837Y-9916D01*
X-895Y-9926D01*
X-897Y-9916D01*
G37*
D436*
G36*
X-899Y-9907D02*
X-831Y-9895D01*
X-829Y-9905D01*
X-897Y-9917D01*
X-899Y-9907D01*
G37*
D435*
G36*
X-891Y-9895D02*
X-833Y-9885D01*
X-831Y-9895D01*
X-889Y-9905D01*
X-891Y-9895D01*
G37*
G36*
X-892Y-9885D02*
X-834Y-9875D01*
X-832Y-9885D01*
X-890Y-9895D01*
X-892Y-9885D01*
G37*
D436*
G36*
X-894Y-9875D02*
X-826Y-9863D01*
X-824Y-9873D01*
X-892Y-9885D01*
X-894Y-9875D01*
G37*
D435*
G36*
X-886Y-9864D02*
X-828Y-9854D01*
X-826Y-9864D01*
X-884Y-9874D01*
X-886Y-9864D01*
G37*
D436*
G36*
X-888Y-9854D02*
X-820Y-9842D01*
X-818Y-9852D01*
X-886Y-9864D01*
X-888Y-9854D01*
G37*
G36*
X-890Y-9844D02*
X-822Y-9832D01*
X-820Y-9842D01*
X-888Y-9854D01*
X-890Y-9844D01*
G37*
D435*
G36*
X-882Y-9832D02*
X-824Y-9822D01*
X-822Y-9832D01*
X-880Y-9842D01*
X-882Y-9832D01*
G37*
G36*
X-884Y-9823D02*
X-826Y-9813D01*
X-824Y-9823D01*
X-882Y-9833D01*
X-884Y-9823D01*
G37*
D436*
G36*
X-885Y-9813D02*
X-817Y-9801D01*
X-815Y-9811D01*
X-883Y-9823D01*
X-885Y-9813D01*
G37*
G36*
X-887Y-9803D02*
X-819Y-9791D01*
X-817Y-9801D01*
X-885Y-9813D01*
X-887Y-9803D01*
G37*
G36*
X-889Y-9793D02*
X-821Y-9781D01*
X-819Y-9791D01*
X-887Y-9803D01*
X-889Y-9793D01*
G37*
D435*
G36*
X-881Y-9781D02*
X-823Y-9771D01*
X-821Y-9781D01*
X-879Y-9791D01*
X-881Y-9781D01*
G37*
G36*
X-883Y-9772D02*
X-825Y-9762D01*
X-823Y-9772D01*
X-881Y-9782D01*
X-883Y-9772D01*
G37*
D436*
G36*
X-885Y-9762D02*
X-817Y-9750D01*
X-815Y-9760D01*
X-883Y-9772D01*
X-885Y-9762D01*
G37*
G36*
X-886Y-9752D02*
X-818Y-9740D01*
X-816Y-9750D01*
X-884Y-9762D01*
X-886Y-9752D01*
G37*
G36*
X-888Y-9742D02*
X-820Y-9730D01*
X-818Y-9740D01*
X-886Y-9752D01*
X-888Y-9742D01*
G37*
G36*
X-890Y-9732D02*
X-822Y-9720D01*
X-820Y-9730D01*
X-888Y-9742D01*
X-890Y-9732D01*
G37*
D437*
G36*
X-892Y-9723D02*
X-814Y-9709D01*
X-812Y-9719D01*
X-890Y-9733D01*
X-892Y-9723D01*
G37*
G36*
X-894Y-9713D02*
X-816Y-9699D01*
X-814Y-9709D01*
X-892Y-9723D01*
X-894Y-9713D01*
G37*
G36*
X-895Y-9703D02*
X-817Y-9689D01*
X-815Y-9699D01*
X-893Y-9713D01*
X-895Y-9703D01*
G37*
D438*
G36*
X-897Y-9693D02*
X-809Y-9678D01*
X-807Y-9687D01*
X-895Y-9702D01*
X-897Y-9693D01*
G37*
G36*
X-899Y-9683D02*
X-811Y-9668D01*
X-809Y-9677D01*
X-897Y-9692D01*
X-899Y-9683D01*
G37*
D439*
G36*
X-911Y-9675D02*
X-813Y-9658D01*
X-811Y-9667D01*
X-909Y-9684D01*
X-911Y-9675D01*
G37*
D440*
G36*
X-913Y-9665D02*
X-805Y-9647D01*
X-803Y-9657D01*
X-911Y-9675D01*
X-913Y-9665D01*
G37*
D441*
G36*
X-1246Y-9727D02*
X-1218Y-9722D01*
X-1216Y-9731D01*
X-1244Y-9736D01*
X-1246Y-9727D01*
G37*
D442*
G36*
X-923Y-9657D02*
X-806Y-9637D01*
X-805Y-9647D01*
X-922Y-9667D01*
X-923Y-9657D01*
G37*
D433*
G36*
X-1238Y-9715D02*
X-1200Y-9708D01*
X-1198Y-9717D01*
X-1236Y-9724D01*
X-1238Y-9715D01*
G37*
D443*
G36*
X-935Y-9649D02*
X-799Y-9625D01*
X-797Y-9635D01*
X-933Y-9659D01*
X-935Y-9649D01*
G37*
D434*
G36*
X-1221Y-9702D02*
X-1173Y-9693D01*
X-1171Y-9702D01*
X-1219Y-9711D01*
X-1221Y-9702D01*
G37*
D444*
G36*
X-947Y-9641D02*
X-801Y-9615D01*
X-799Y-9625D01*
X-945Y-9651D01*
X-947Y-9641D01*
G37*
D435*
G36*
X-1213Y-9689D02*
X-1155Y-9679D01*
X-1153Y-9689D01*
X-1211Y-9699D01*
X-1213Y-9689D01*
G37*
D445*
G36*
X-958Y-9633D02*
X-802Y-9605D01*
X-800Y-9615D01*
X-956Y-9643D01*
X-958Y-9633D01*
G37*
D436*
G36*
X-1195Y-9676D02*
X-1127Y-9664D01*
X-1125Y-9674D01*
X-1193Y-9686D01*
X-1195Y-9676D01*
G37*
D446*
G36*
X-990Y-9628D02*
X-794Y-9594D01*
X-792Y-9604D01*
X-988Y-9638D01*
X-990Y-9628D01*
G37*
D439*
G36*
X-1187Y-9665D02*
X-1089Y-9648D01*
X-1087Y-9657D01*
X-1185Y-9674D01*
X-1187Y-9665D01*
G37*
D447*
G36*
X-1168Y-9651D02*
X-795Y-9584D01*
X-794Y-9593D01*
X-1167Y-9660D01*
X-1168Y-9651D01*
G37*
D448*
G36*
X-1170Y-9640D02*
X-788Y-9572D01*
X-786Y-9582D01*
X-1168Y-9650D01*
X-1170Y-9640D01*
G37*
D449*
G36*
X-1182Y-9633D02*
X-790Y-9563D01*
X-788Y-9573D01*
X-1180Y-9643D01*
X-1182Y-9633D01*
G37*
D450*
G36*
X-1194Y-9625D02*
X-782Y-9551D01*
X-780Y-9561D01*
X-1192Y-9635D01*
X-1194Y-9625D01*
G37*
D447*
G36*
X-1146Y-9606D02*
X-773Y-9539D01*
X-772Y-9548D01*
X-1145Y-9615D01*
X-1146Y-9606D01*
G37*
D451*
G36*
X-1099Y-9587D02*
X-775Y-9529D01*
X-773Y-9539D01*
X-1097Y-9597D01*
X-1099Y-9587D01*
G37*
D452*
G36*
X-1052Y-9569D02*
X-768Y-9518D01*
X-766Y-9527D01*
X-1050Y-9578D01*
X-1052Y-9569D01*
G37*
D453*
G36*
X-965Y-9542D02*
X-759Y-9506D01*
X-757Y-9516D01*
X-963Y-9552D01*
X-965Y-9542D01*
G37*
D454*
G36*
X-927Y-9526D02*
X-751Y-9494D01*
X-749Y-9504D01*
X-925Y-9536D01*
X-927Y-9526D01*
G37*
D445*
G36*
X-899Y-9510D02*
X-743Y-9482D01*
X-741Y-9492D01*
X-897Y-9520D01*
X-899Y-9510D01*
G37*
D443*
G36*
X-872Y-9495D02*
X-736Y-9471D01*
X-734Y-9481D01*
X-870Y-9505D01*
X-872Y-9495D01*
G37*
G36*
X-854Y-9482D02*
X-718Y-9458D01*
X-716Y-9468D01*
X-852Y-9492D01*
X-854Y-9482D01*
G37*
D455*
G36*
X-836Y-9468D02*
X-709Y-9446D01*
X-708Y-9456D01*
X-835Y-9478D01*
X-836Y-9468D01*
G37*
G36*
X-828Y-9456D02*
X-701Y-9434D01*
X-700Y-9444D01*
X-827Y-9466D01*
X-828Y-9456D01*
G37*
D443*
G36*
X-820Y-9445D02*
X-684Y-9421D01*
X-682Y-9431D01*
X-818Y-9455D01*
X-820Y-9445D01*
G37*
D444*
G36*
X-822Y-9435D02*
X-676Y-9409D01*
X-674Y-9419D01*
X-820Y-9445D01*
X-822Y-9435D01*
G37*
D456*
G36*
X-833Y-9427D02*
X-667Y-9397D01*
X-665Y-9407D01*
X-831Y-9437D01*
X-833Y-9427D01*
G37*
D457*
G36*
X-835Y-9418D02*
X-649Y-9385D01*
X-647Y-9394D01*
X-833Y-9427D01*
X-835Y-9418D01*
G37*
D453*
G36*
X-847Y-9409D02*
X-641Y-9373D01*
X-639Y-9383D01*
X-845Y-9419D01*
X-847Y-9409D01*
G37*
D458*
G36*
X-859Y-9401D02*
X-633Y-9361D01*
X-631Y-9371D01*
X-857Y-9411D01*
X-859Y-9401D01*
G37*
D459*
G36*
X-1665Y-9548D02*
X-1647Y-9545D01*
X-1645Y-9554D01*
X-1663Y-9557D01*
X-1665Y-9548D01*
G37*
D460*
G36*
X-870Y-9393D02*
X-625Y-9349D01*
X-624Y-9359D01*
X-869Y-9403D01*
X-870Y-9393D01*
G37*
D433*
G36*
X-1667Y-9539D02*
X-1629Y-9532D01*
X-1627Y-9541D01*
X-1665Y-9548D01*
X-1667Y-9539D01*
G37*
D442*
G36*
X-734Y-9358D02*
X-617Y-9338D01*
X-616Y-9348D01*
X-733Y-9368D01*
X-734Y-9358D01*
G37*
D440*
G36*
X-892Y-9387D02*
X-784Y-9369D01*
X-782Y-9379D01*
X-890Y-9397D01*
X-892Y-9387D01*
G37*
D433*
G36*
X-1669Y-9529D02*
X-1631Y-9522D01*
X-1629Y-9531D01*
X-1667Y-9538D01*
X-1669Y-9529D01*
G37*
D440*
G36*
X-707Y-9343D02*
X-599Y-9325D01*
X-597Y-9335D01*
X-705Y-9353D01*
X-707Y-9343D01*
G37*
D438*
G36*
X-913Y-9381D02*
X-825Y-9366D01*
X-823Y-9375D01*
X-911Y-9390D01*
X-913Y-9381D01*
G37*
D434*
G36*
X-1680Y-9521D02*
X-1632Y-9512D01*
X-1630Y-9521D01*
X-1678Y-9530D01*
X-1680Y-9521D01*
G37*
D438*
G36*
X-679Y-9328D02*
X-591Y-9313D01*
X-589Y-9322D01*
X-677Y-9337D01*
X-679Y-9328D01*
G37*
D439*
G36*
X-935Y-9375D02*
X-837Y-9358D01*
X-835Y-9367D01*
X-933Y-9384D01*
X-935Y-9375D01*
G37*
D434*
G36*
X-1682Y-9511D02*
X-1634Y-9502D01*
X-1632Y-9511D01*
X-1680Y-9520D01*
X-1682Y-9511D01*
G37*
D438*
G36*
X-671Y-9317D02*
X-583Y-9302D01*
X-581Y-9311D01*
X-669Y-9326D01*
X-671Y-9317D01*
G37*
D440*
G36*
X-966Y-9370D02*
X-858Y-9352D01*
X-856Y-9362D01*
X-964Y-9380D01*
X-966Y-9370D01*
G37*
D434*
G36*
X-1684Y-9501D02*
X-1636Y-9492D01*
X-1634Y-9501D01*
X-1682Y-9510D01*
X-1684Y-9501D01*
G37*
D437*
G36*
X-653Y-9303D02*
X-575Y-9289D01*
X-573Y-9299D01*
X-651Y-9313D01*
X-653Y-9303D01*
G37*
D455*
G36*
X-1006Y-9367D02*
X-879Y-9345D01*
X-878Y-9355D01*
X-1005Y-9377D01*
X-1006Y-9367D01*
G37*
D434*
G36*
X-1686Y-9492D02*
X-1638Y-9483D01*
X-1636Y-9492D01*
X-1684Y-9501D01*
X-1686Y-9492D01*
G37*
D437*
G36*
X-645Y-9292D02*
X-567Y-9278D01*
X-565Y-9288D01*
X-643Y-9302D01*
X-645Y-9292D01*
G37*
D456*
G36*
X-1058Y-9367D02*
X-892Y-9337D01*
X-890Y-9347D01*
X-1056Y-9377D01*
X-1058Y-9367D01*
G37*
D434*
G36*
X-1688Y-9482D02*
X-1640Y-9473D01*
X-1638Y-9482D01*
X-1686Y-9491D01*
X-1688Y-9482D01*
G37*
D437*
G36*
X-637Y-9280D02*
X-559Y-9266D01*
X-557Y-9276D01*
X-635Y-9290D01*
X-637Y-9280D01*
G37*
D461*
G36*
X-1266Y-9394D02*
X-913Y-9330D01*
X-912Y-9340D01*
X-1265Y-9404D01*
X-1266Y-9394D01*
G37*
D434*
G36*
X-1689Y-9472D02*
X-1641Y-9463D01*
X-1639Y-9472D01*
X-1687Y-9481D01*
X-1689Y-9472D01*
G37*
D437*
G36*
X-629Y-9268D02*
X-551Y-9254D01*
X-549Y-9264D01*
X-627Y-9278D01*
X-629Y-9268D01*
G37*
D451*
G36*
X-1258Y-9382D02*
X-934Y-9324D01*
X-932Y-9334D01*
X-1256Y-9392D01*
X-1258Y-9382D01*
G37*
D434*
G36*
X-1691Y-9462D02*
X-1643Y-9453D01*
X-1641Y-9462D01*
X-1689Y-9471D01*
X-1691Y-9462D01*
G37*
D436*
G36*
X-611Y-9255D02*
X-543Y-9243D01*
X-541Y-9253D01*
X-609Y-9265D01*
X-611Y-9255D01*
G37*
D446*
G36*
X-1152Y-9352D02*
X-956Y-9318D01*
X-954Y-9328D01*
X-1150Y-9362D01*
X-1152Y-9352D01*
G37*
D434*
G36*
X-1693Y-9452D02*
X-1645Y-9443D01*
X-1643Y-9452D01*
X-1691Y-9461D01*
X-1693Y-9452D01*
G37*
D436*
G36*
X-603Y-9243D02*
X-535Y-9231D01*
X-533Y-9241D01*
X-601Y-9253D01*
X-603Y-9243D01*
G37*
D443*
G36*
X-1114Y-9336D02*
X-978Y-9312D01*
X-976Y-9322D01*
X-1112Y-9346D01*
X-1114Y-9336D01*
G37*
D433*
G36*
X-1695Y-9442D02*
X-1657Y-9435D01*
X-1655Y-9444D01*
X-1693Y-9451D01*
X-1695Y-9442D01*
G37*
D436*
G36*
X-595Y-9231D02*
X-527Y-9219D01*
X-525Y-9229D01*
X-593Y-9241D01*
X-595Y-9231D01*
G37*
D442*
G36*
X-1106Y-9324D02*
X-989Y-9304D01*
X-988Y-9314D01*
X-1105Y-9334D01*
X-1106Y-9324D01*
G37*
D433*
G36*
X-1696Y-9432D02*
X-1658Y-9425D01*
X-1656Y-9434D01*
X-1694Y-9441D01*
X-1696Y-9432D01*
G37*
D436*
G36*
X-587Y-9220D02*
X-519Y-9208D01*
X-517Y-9218D01*
X-585Y-9230D01*
X-587Y-9220D01*
G37*
D438*
G36*
X-1089Y-9311D02*
X-1001Y-9296D01*
X-999Y-9305D01*
X-1087Y-9320D01*
X-1089Y-9311D01*
G37*
D434*
G36*
X-1708Y-9424D02*
X-1660Y-9415D01*
X-1658Y-9424D01*
X-1706Y-9433D01*
X-1708Y-9424D01*
G37*
D436*
G36*
X-579Y-9208D02*
X-511Y-9196D01*
X-509Y-9206D01*
X-577Y-9218D01*
X-579Y-9208D01*
G37*
G36*
X-1080Y-9299D02*
X-1012Y-9287D01*
X-1010Y-9297D01*
X-1078Y-9309D01*
X-1080Y-9299D01*
G37*
D434*
G36*
X-1710Y-9415D02*
X-1662Y-9406D01*
X-1660Y-9415D01*
X-1708Y-9424D01*
X-1710Y-9415D01*
G37*
D436*
G36*
X-571Y-9197D02*
X-503Y-9185D01*
X-501Y-9195D01*
X-569Y-9207D01*
X-571Y-9197D01*
G37*
D435*
G36*
X-1082Y-9289D02*
X-1024Y-9279D01*
X-1022Y-9289D01*
X-1080Y-9299D01*
X-1082Y-9289D01*
G37*
D434*
G36*
X-1712Y-9405D02*
X-1664Y-9396D01*
X-1662Y-9405D01*
X-1710Y-9414D01*
X-1712Y-9405D01*
G37*
D436*
G36*
X-562Y-9185D02*
X-494Y-9173D01*
X-492Y-9183D01*
X-560Y-9195D01*
X-562Y-9185D01*
G37*
D434*
G36*
X-1074Y-9279D02*
X-1026Y-9270D01*
X-1024Y-9279D01*
X-1072Y-9288D01*
X-1074Y-9279D01*
G37*
G36*
X-1713Y-9395D02*
X-1665Y-9386D01*
X-1663Y-9395D01*
X-1711Y-9404D01*
X-1713Y-9395D01*
G37*
D436*
G36*
X-554Y-9173D02*
X-486Y-9161D01*
X-484Y-9171D01*
X-552Y-9183D01*
X-554Y-9173D01*
G37*
D433*
G36*
X-1076Y-9269D02*
X-1038Y-9262D01*
X-1036Y-9271D01*
X-1074Y-9278D01*
X-1076Y-9269D01*
G37*
D434*
G36*
X-1715Y-9385D02*
X-1667Y-9376D01*
X-1665Y-9385D01*
X-1713Y-9394D01*
X-1715Y-9385D01*
G37*
D436*
G36*
X-546Y-9162D02*
X-478Y-9150D01*
X-476Y-9160D01*
X-544Y-9172D01*
X-546Y-9162D01*
G37*
D433*
G36*
X-1077Y-9259D02*
X-1039Y-9252D01*
X-1037Y-9261D01*
X-1075Y-9268D01*
X-1077Y-9259D01*
G37*
D434*
G36*
X-1717Y-9375D02*
X-1669Y-9366D01*
X-1667Y-9375D01*
X-1715Y-9384D01*
X-1717Y-9375D01*
G37*
D436*
G36*
X-538Y-9150D02*
X-470Y-9138D01*
X-468Y-9148D01*
X-536Y-9160D01*
X-538Y-9150D01*
G37*
D433*
G36*
X-1089Y-9251D02*
X-1051Y-9244D01*
X-1049Y-9253D01*
X-1087Y-9260D01*
X-1089Y-9251D01*
G37*
G36*
X-1719Y-9365D02*
X-1681Y-9358D01*
X-1679Y-9367D01*
X-1717Y-9374D01*
X-1719Y-9365D01*
G37*
D459*
G36*
X-1974Y-9412D02*
X-1956Y-9409D01*
X-1954Y-9418D01*
X-1972Y-9421D01*
X-1974Y-9412D01*
G37*
D435*
G36*
X-530Y-9138D02*
X-472Y-9128D01*
X-470Y-9138D01*
X-528Y-9148D01*
X-530Y-9138D01*
G37*
D433*
G36*
X-1091Y-9241D02*
X-1053Y-9234D01*
X-1051Y-9243D01*
X-1089Y-9250D01*
X-1091Y-9241D01*
G37*
D434*
G36*
X-1730Y-9357D02*
X-1682Y-9348D01*
X-1680Y-9357D01*
X-1728Y-9366D01*
X-1730Y-9357D01*
G37*
D433*
G36*
X-1957Y-9398D02*
X-1919Y-9391D01*
X-1917Y-9400D01*
X-1955Y-9407D01*
X-1957Y-9398D01*
G37*
D435*
G36*
X-522Y-9127D02*
X-464Y-9117D01*
X-462Y-9127D01*
X-520Y-9137D01*
X-522Y-9127D01*
G37*
D434*
G36*
X-1103Y-9233D02*
X-1055Y-9224D01*
X-1053Y-9233D01*
X-1101Y-9242D01*
X-1103Y-9233D01*
G37*
D435*
G36*
X-1742Y-9348D02*
X-1684Y-9338D01*
X-1682Y-9348D01*
X-1740Y-9358D01*
X-1742Y-9348D01*
G37*
G36*
X-1939Y-9384D02*
X-1881Y-9374D01*
X-1879Y-9384D01*
X-1937Y-9394D01*
X-1939Y-9384D01*
G37*
G36*
X-514Y-9115D02*
X-456Y-9105D01*
X-454Y-9115D01*
X-512Y-9125D01*
X-514Y-9115D01*
G37*
D433*
G36*
X-1104Y-9223D02*
X-1066Y-9216D01*
X-1064Y-9225D01*
X-1102Y-9232D01*
X-1104Y-9223D01*
G37*
D438*
G36*
X-1774Y-9344D02*
X-1686Y-9329D01*
X-1684Y-9338D01*
X-1772Y-9353D01*
X-1774Y-9344D01*
G37*
D439*
G36*
X-1921Y-9371D02*
X-1823Y-9354D01*
X-1821Y-9363D01*
X-1919Y-9380D01*
X-1921Y-9371D01*
G37*
D435*
G36*
X-506Y-9103D02*
X-448Y-9093D01*
X-446Y-9103D01*
X-504Y-9113D01*
X-506Y-9103D01*
G37*
D459*
G36*
X-1106Y-9213D02*
X-1088Y-9210D01*
X-1086Y-9219D01*
X-1104Y-9222D01*
X-1106Y-9213D01*
G37*
D462*
G36*
X-1903Y-9357D02*
X-1687Y-9319D01*
X-1685Y-9329D01*
X-1901Y-9367D01*
X-1903Y-9357D01*
G37*
D435*
G36*
X-498Y-9092D02*
X-440Y-9082D01*
X-438Y-9092D01*
X-496Y-9102D01*
X-498Y-9092D01*
G37*
D446*
G36*
X-1885Y-9343D02*
X-1689Y-9309D01*
X-1687Y-9319D01*
X-1883Y-9353D01*
X-1885Y-9343D01*
G37*
D456*
G36*
X592Y-8884D02*
X758Y-8854D01*
X760Y-8864D01*
X594Y-8894D01*
X592Y-8884D01*
G37*
D435*
G36*
X-490Y-9080D02*
X-432Y-9070D01*
X-430Y-9080D01*
X-488Y-9090D01*
X-490Y-9080D01*
G37*
D454*
G36*
X-1867Y-9331D02*
X-1691Y-9299D01*
X-1689Y-9309D01*
X-1865Y-9341D01*
X-1867Y-9331D01*
G37*
D463*
G36*
X522Y-8886D02*
X816Y-8834D01*
X818Y-8844D01*
X524Y-8896D01*
X522Y-8886D01*
G37*
D435*
G36*
X-482Y-9069D02*
X-424Y-9059D01*
X-422Y-9069D01*
X-480Y-9079D01*
X-482Y-9069D01*
G37*
D445*
G36*
X-1849Y-9317D02*
X-1693Y-9289D01*
X-1691Y-9299D01*
X-1847Y-9327D01*
X-1849Y-9317D01*
G37*
D447*
G36*
X471Y-8886D02*
X844Y-8819D01*
X845Y-8828D01*
X472Y-8895D01*
X471Y-8886D01*
G37*
D435*
G36*
X-474Y-9057D02*
X-416Y-9047D01*
X-414Y-9057D01*
X-472Y-9067D01*
X-474Y-9057D01*
G37*
D443*
G36*
X-1821Y-9302D02*
X-1685Y-9278D01*
X-1683Y-9288D01*
X-1819Y-9312D01*
X-1821Y-9302D01*
G37*
D464*
G36*
X439Y-8881D02*
X881Y-8801D01*
X883Y-8811D01*
X441Y-8891D01*
X439Y-8881D01*
G37*
D435*
G36*
X-466Y-9045D02*
X-408Y-9035D01*
X-406Y-9045D01*
X-464Y-9055D01*
X-466Y-9045D01*
G37*
D455*
G36*
X-1803Y-9288D02*
X-1676Y-9266D01*
X-1675Y-9276D01*
X-1802Y-9298D01*
X-1803Y-9288D01*
G37*
D465*
G36*
X409Y-8876D02*
X900Y-8788D01*
X901Y-8798D01*
X410Y-8886D01*
X409Y-8876D01*
G37*
D435*
G36*
X-468Y-9036D02*
X-410Y-9026D01*
X-408Y-9036D01*
X-466Y-9046D01*
X-468Y-9036D01*
G37*
D442*
G36*
X-1785Y-9275D02*
X-1668Y-9255D01*
X-1667Y-9265D01*
X-1784Y-9285D01*
X-1785Y-9275D01*
G37*
D466*
G36*
X387Y-8870D02*
X927Y-8772D01*
X929Y-8782D01*
X389Y-8880D01*
X387Y-8870D01*
G37*
D435*
G36*
X-460Y-9024D02*
X-402Y-9014D01*
X-400Y-9024D01*
X-458Y-9034D01*
X-460Y-9024D01*
G37*
D455*
G36*
X-1768Y-9261D02*
X-1641Y-9239D01*
X-1640Y-9249D01*
X-1767Y-9271D01*
X-1768Y-9261D01*
G37*
D467*
G36*
X356Y-8865D02*
X955Y-8757D01*
X956Y-8767D01*
X357Y-8875D01*
X356Y-8865D01*
G37*
D435*
G36*
X-451Y-9012D02*
X-393Y-9002D01*
X-391Y-9012D01*
X-449Y-9022D01*
X-451Y-9012D01*
G37*
D443*
G36*
X-1750Y-9248D02*
X-1614Y-9224D01*
X-1612Y-9234D01*
X-1748Y-9258D01*
X-1750Y-9248D01*
G37*
D468*
G36*
X334Y-8860D02*
X982Y-8743D01*
X984Y-8752D01*
X336Y-8869D01*
X334Y-8860D01*
G37*
D435*
G36*
X-443Y-9001D02*
X-385Y-8991D01*
X-383Y-9001D01*
X-441Y-9011D01*
X-443Y-9001D01*
G37*
D443*
G36*
X-1732Y-9235D02*
X-1596Y-9211D01*
X-1594Y-9221D01*
X-1730Y-9245D01*
X-1732Y-9235D01*
G37*
D437*
G36*
X2172Y-8515D02*
X2250Y-8501D01*
X2252Y-8511D01*
X2174Y-8525D01*
X2172Y-8515D01*
G37*
D469*
G36*
X312Y-8853D02*
X1010Y-8727D01*
X1012Y-8737D01*
X314Y-8863D01*
X312Y-8853D01*
G37*
D435*
G36*
X-435Y-8989D02*
X-377Y-8979D01*
X-375Y-8989D01*
X-433Y-8999D01*
X-435Y-8989D01*
G37*
D455*
G36*
X-1704Y-9219D02*
X-1577Y-9197D01*
X-1576Y-9207D01*
X-1703Y-9229D01*
X-1704Y-9219D01*
G37*
D443*
G36*
X2131Y-8512D02*
X2267Y-8488D01*
X2269Y-8498D01*
X2133Y-8522D01*
X2131Y-8512D01*
G37*
D470*
G36*
X301Y-8845D02*
X1038Y-8712D01*
X1039Y-8721D01*
X302Y-8854D01*
X301Y-8845D01*
G37*
D435*
G36*
X-427Y-8977D02*
X-369Y-8967D01*
X-367Y-8977D01*
X-425Y-8987D01*
X-427Y-8977D01*
G37*
D440*
G36*
X-1667Y-9202D02*
X-1559Y-9184D01*
X-1557Y-9194D01*
X-1665Y-9212D01*
X-1667Y-9202D01*
G37*
D456*
G36*
X2100Y-8508D02*
X2266Y-8478D01*
X2268Y-8488D01*
X2102Y-8518D01*
X2100Y-8508D01*
G37*
D471*
G36*
X279Y-8839D02*
X1075Y-8695D01*
X1077Y-8705D01*
X281Y-8849D01*
X279Y-8839D01*
G37*
D435*
G36*
X-419Y-8966D02*
X-361Y-8956D01*
X-359Y-8966D01*
X-417Y-8976D01*
X-419Y-8966D01*
G37*
D436*
G36*
X-1620Y-9184D02*
X-1552Y-9172D01*
X-1550Y-9182D01*
X-1618Y-9194D01*
X-1620Y-9184D01*
G37*
D457*
G36*
X2078Y-8502D02*
X2264Y-8469D01*
X2266Y-8478D01*
X2080Y-8511D01*
X2078Y-8502D01*
G37*
D472*
G36*
X258Y-8832D02*
X1103Y-8680D01*
X1104Y-8690D01*
X259Y-8842D01*
X258Y-8832D01*
G37*
D435*
G36*
X-421Y-8956D02*
X-363Y-8946D01*
X-361Y-8956D01*
X-419Y-8966D01*
X-421Y-8956D01*
G37*
D436*
G36*
X-1612Y-9172D02*
X-1544Y-9160D01*
X-1542Y-9170D01*
X-1610Y-9182D01*
X-1612Y-9172D01*
G37*
D462*
G36*
X2056Y-8495D02*
X2272Y-8457D01*
X2274Y-8467D01*
X2058Y-8505D01*
X2056Y-8495D01*
G37*
D473*
G36*
X246Y-8824D02*
X1140Y-8662D01*
X1142Y-8672D01*
X248Y-8834D01*
X246Y-8824D01*
G37*
D435*
G36*
X-413Y-8944D02*
X-355Y-8934D01*
X-353Y-8944D01*
X-411Y-8954D01*
X-413Y-8944D01*
G37*
D436*
G36*
X-1594Y-9159D02*
X-1526Y-9147D01*
X-1524Y-9157D01*
X-1592Y-9169D01*
X-1594Y-9159D01*
G37*
D474*
G36*
X2036Y-8489D02*
X2271Y-8447D01*
X2272Y-8457D01*
X2037Y-8499D01*
X2036Y-8489D01*
G37*
D475*
G36*
X225Y-8818D02*
X1208Y-8640D01*
X1209Y-8650D01*
X226Y-8828D01*
X225Y-8818D01*
G37*
D435*
G36*
X-405Y-8933D02*
X-347Y-8923D01*
X-345Y-8933D01*
X-403Y-8943D01*
X-405Y-8933D01*
G37*
D436*
G36*
X-1586Y-9147D02*
X-1518Y-9135D01*
X-1516Y-9145D01*
X-1584Y-9157D01*
X-1586Y-9147D01*
G37*
D476*
G36*
X2014Y-8483D02*
X2269Y-8437D01*
X2270Y-8447D01*
X2015Y-8493D01*
X2014Y-8483D01*
G37*
D477*
G36*
X204Y-8812D02*
X1295Y-8614D01*
X1296Y-8624D01*
X205Y-8822D01*
X204Y-8812D01*
G37*
D435*
G36*
X-397Y-8921D02*
X-339Y-8911D01*
X-337Y-8921D01*
X-395Y-8931D01*
X-397Y-8921D01*
G37*
D436*
G36*
X-1578Y-9136D02*
X-1510Y-9124D01*
X-1508Y-9134D01*
X-1576Y-9146D01*
X-1578Y-9136D01*
G37*
D478*
G36*
X2002Y-8475D02*
X2266Y-8427D01*
X2268Y-8437D01*
X2004Y-8485D01*
X2002Y-8475D01*
G37*
D479*
G36*
X192Y-8804D02*
X1440Y-8578D01*
X1442Y-8588D01*
X194Y-8814D01*
X192Y-8804D01*
G37*
D436*
G36*
X-399Y-8911D02*
X-331Y-8899D01*
X-329Y-8909D01*
X-397Y-8921D01*
X-399Y-8911D01*
G37*
G36*
X-1570Y-9124D02*
X-1502Y-9112D01*
X-1500Y-9122D01*
X-1568Y-9134D01*
X-1570Y-9124D01*
G37*
D480*
G36*
X1980Y-8469D02*
X2314Y-8409D01*
X2316Y-8419D01*
X1982Y-8479D01*
X1980Y-8469D01*
G37*
D481*
G36*
X721Y-8698D02*
X1625Y-8534D01*
X1627Y-8544D01*
X723Y-8708D01*
X721Y-8698D01*
G37*
D461*
G36*
X171Y-8798D02*
X524Y-8734D01*
X525Y-8744D01*
X172Y-8808D01*
X171Y-8798D01*
G37*
D436*
G36*
X-391Y-8900D02*
X-323Y-8888D01*
X-321Y-8898D01*
X-389Y-8910D01*
X-391Y-8900D01*
G37*
D435*
G36*
X-1561Y-9112D02*
X-1503Y-9102D01*
X-1501Y-9112D01*
X-1559Y-9122D01*
X-1561Y-9112D01*
G37*
D482*
G36*
X1959Y-8462D02*
X2361Y-8390D01*
X2363Y-8400D01*
X1961Y-8472D01*
X1959Y-8462D01*
G37*
D483*
G36*
X768Y-8678D02*
X1820Y-8488D01*
X1822Y-8498D01*
X770Y-8688D01*
X768Y-8678D01*
G37*
D480*
G36*
X148Y-8791D02*
X482Y-8731D01*
X484Y-8741D01*
X150Y-8801D01*
X148Y-8791D01*
G37*
D437*
G36*
X-393Y-8890D02*
X-315Y-8876D01*
X-313Y-8886D01*
X-391Y-8900D01*
X-393Y-8890D01*
G37*
D435*
G36*
X-1553Y-9101D02*
X-1495Y-9091D01*
X-1493Y-9101D01*
X-1551Y-9111D01*
X-1553Y-9101D01*
G37*
D484*
G36*
X1928Y-8458D02*
X2380Y-8376D01*
X2382Y-8386D01*
X1930Y-8468D01*
X1928Y-8458D01*
G37*
D477*
G36*
X797Y-8664D02*
X1888Y-8466D01*
X1889Y-8476D01*
X798Y-8674D01*
X797Y-8664D01*
G37*
D451*
G36*
X117Y-8787D02*
X441Y-8729D01*
X443Y-8739D01*
X119Y-8797D01*
X117Y-8787D01*
G37*
D438*
G36*
X-394Y-8880D02*
X-306Y-8865D01*
X-304Y-8874D01*
X-392Y-8889D01*
X-394Y-8880D01*
G37*
D435*
G36*
X-1545Y-9089D02*
X-1487Y-9079D01*
X-1485Y-9089D01*
X-1543Y-9099D01*
X-1545Y-9089D01*
G37*
D485*
G36*
X824Y-8649D02*
X2398Y-8364D01*
X2400Y-8373D01*
X826Y-8658D01*
X824Y-8649D01*
G37*
D461*
G36*
X67Y-8786D02*
X420Y-8722D01*
X421Y-8732D01*
X68Y-8796D01*
X67Y-8786D01*
G37*
D438*
G36*
X-396Y-8870D02*
X-308Y-8855D01*
X-306Y-8864D01*
X-394Y-8879D01*
X-396Y-8870D01*
G37*
D435*
G36*
X-1537Y-9077D02*
X-1479Y-9067D01*
X-1477Y-9077D01*
X-1535Y-9087D01*
X-1537Y-9077D01*
G37*
D486*
G36*
X842Y-8635D02*
X2396Y-8353D01*
X2398Y-8363D01*
X844Y-8645D01*
X842Y-8635D01*
G37*
D487*
G36*
X-752Y-8924D02*
X388Y-8718D01*
X390Y-8728D01*
X-750Y-8934D01*
X-752Y-8924D01*
G37*
D435*
G36*
X-1529Y-9066D02*
X-1471Y-9056D01*
X-1469Y-9066D01*
X-1527Y-9076D01*
X-1529Y-9066D01*
G37*
D488*
G36*
X1598Y-8487D02*
X2404Y-8341D01*
X2406Y-8351D01*
X1600Y-8497D01*
X1598Y-8487D01*
G37*
D489*
G36*
X850Y-8623D02*
X1350Y-8533D01*
X1352Y-8543D01*
X852Y-8633D01*
X850Y-8623D01*
G37*
D490*
G36*
X-1511Y-9052D02*
X367Y-8712D01*
X369Y-8722D01*
X-1509Y-9062D01*
X-1511Y-9052D01*
G37*
D455*
G36*
X2275Y-8354D02*
X2402Y-8332D01*
X2403Y-8342D01*
X2276Y-8364D01*
X2275Y-8354D01*
G37*
D491*
G36*
X1704Y-8458D02*
X2224Y-8364D01*
X2226Y-8374D01*
X1706Y-8468D01*
X1704Y-8458D01*
G37*
D492*
G36*
X858Y-8612D02*
X1280Y-8536D01*
X1282Y-8546D01*
X860Y-8622D01*
X858Y-8612D01*
G37*
D493*
G36*
X-1503Y-9041D02*
X355Y-8704D01*
X357Y-8713D01*
X-1501Y-9050D01*
X-1503Y-9041D01*
G37*
D437*
G36*
X2312Y-8337D02*
X2390Y-8323D01*
X2392Y-8333D01*
X2314Y-8347D01*
X2312Y-8337D01*
G37*
D494*
G36*
X1791Y-8432D02*
X2223Y-8354D01*
X2225Y-8364D01*
X1793Y-8442D01*
X1791Y-8432D01*
G37*
D447*
G36*
X866Y-8600D02*
X1239Y-8533D01*
X1240Y-8542D01*
X867Y-8609D01*
X866Y-8600D01*
G37*
D495*
G36*
X-521Y-8852D02*
X334Y-8698D01*
X335Y-8708D01*
X-520Y-8862D01*
X-521Y-8852D01*
G37*
D496*
G36*
X-1495Y-9029D02*
X-729Y-8891D01*
X-727Y-8901D01*
X-1493Y-9039D01*
X-1495Y-9029D01*
G37*
D459*
G36*
X2360Y-8319D02*
X2378Y-8316D01*
X2380Y-8325D01*
X2362Y-8328D01*
X2360Y-8319D01*
G37*
D448*
G36*
X1839Y-8413D02*
X2221Y-8345D01*
X2223Y-8355D01*
X1841Y-8423D01*
X1839Y-8413D01*
G37*
D480*
G36*
X874Y-8588D02*
X1208Y-8528D01*
X1210Y-8538D01*
X876Y-8598D01*
X874Y-8588D01*
G37*
D497*
G36*
X-464Y-8831D02*
X322Y-8689D01*
X324Y-8699D01*
X-462Y-8841D01*
X-464Y-8831D01*
G37*
D462*
G36*
X-1222Y-8969D02*
X-1006Y-8931D01*
X-1004Y-8941D01*
X-1220Y-8979D01*
X-1222Y-8969D01*
G37*
D457*
G36*
X-1487Y-9018D02*
X-1301Y-8985D01*
X-1299Y-8994D01*
X-1485Y-9027D01*
X-1487Y-9018D01*
G37*
D480*
G36*
X1876Y-8396D02*
X2210Y-8336D01*
X2212Y-8346D01*
X1878Y-8406D01*
X1876Y-8396D01*
G37*
D498*
G36*
X872Y-8578D02*
X1186Y-8522D01*
X1188Y-8532D01*
X874Y-8588D01*
X872Y-8578D01*
G37*
D496*
G36*
X-456Y-8820D02*
X310Y-8682D01*
X312Y-8692D01*
X-454Y-8830D01*
X-456Y-8820D01*
G37*
D455*
G36*
X-1203Y-8956D02*
X-1076Y-8934D01*
X-1075Y-8944D01*
X-1202Y-8966D01*
X-1203Y-8956D01*
G37*
G36*
X-1489Y-9007D02*
X-1362Y-8985D01*
X-1361Y-8995D01*
X-1488Y-9017D01*
X-1489Y-9007D01*
G37*
D498*
G36*
X1894Y-8383D02*
X2208Y-8327D01*
X2210Y-8337D01*
X1896Y-8393D01*
X1894Y-8383D01*
G37*
D499*
G36*
X861Y-8570D02*
X1165Y-8516D01*
X1167Y-8526D01*
X863Y-8580D01*
X861Y-8570D01*
G37*
D500*
G36*
X-448Y-8809D02*
X298Y-8674D01*
X300Y-8683D01*
X-446Y-8818D01*
X-448Y-8809D01*
G37*
D437*
G36*
X-1206Y-8946D02*
X-1128Y-8932D01*
X-1126Y-8942D01*
X-1204Y-8956D01*
X-1206Y-8946D01*
G37*
D439*
G36*
X-1491Y-8998D02*
X-1393Y-8981D01*
X-1391Y-8990D01*
X-1489Y-9007D01*
X-1491Y-8998D01*
G37*
D463*
G36*
X1912Y-8369D02*
X2206Y-8317D01*
X2208Y-8327D01*
X1914Y-8379D01*
X1912Y-8369D01*
G37*
D452*
G36*
X859Y-8561D02*
X1143Y-8510D01*
X1145Y-8519D01*
X861Y-8570D01*
X859Y-8561D01*
G37*
D500*
G36*
X-449Y-8799D02*
X297Y-8664D01*
X299Y-8673D01*
X-447Y-8808D01*
X-449Y-8799D01*
G37*
D435*
G36*
X-1207Y-8936D02*
X-1149Y-8926D01*
X-1147Y-8936D01*
X-1205Y-8946D01*
X-1207Y-8936D01*
G37*
D437*
G36*
X-1493Y-8988D02*
X-1415Y-8974D01*
X-1413Y-8984D01*
X-1491Y-8998D01*
X-1493Y-8988D01*
G37*
D499*
G36*
X1930Y-8356D02*
X2234Y-8302D01*
X2236Y-8312D01*
X1932Y-8366D01*
X1930Y-8356D01*
G37*
D501*
G36*
X848Y-8553D02*
X1122Y-8504D01*
X1124Y-8513D01*
X850Y-8562D01*
X848Y-8553D01*
G37*
D500*
G36*
X-451Y-8789D02*
X295Y-8654D01*
X297Y-8663D01*
X-449Y-8798D01*
X-451Y-8789D01*
G37*
D433*
G36*
X-1209Y-8927D02*
X-1171Y-8920D01*
X-1169Y-8929D01*
X-1207Y-8936D01*
X-1209Y-8927D01*
G37*
D436*
G36*
X-1494Y-8978D02*
X-1426Y-8966D01*
X-1424Y-8976D01*
X-1492Y-8988D01*
X-1494Y-8978D01*
G37*
D480*
G36*
X1937Y-8344D02*
X2271Y-8284D01*
X2273Y-8294D01*
X1939Y-8354D01*
X1937Y-8344D01*
G37*
D478*
G36*
X836Y-8545D02*
X1100Y-8497D01*
X1102Y-8507D01*
X838Y-8555D01*
X836Y-8545D01*
G37*
D461*
G36*
X-59Y-8707D02*
X294Y-8643D01*
X295Y-8653D01*
X-58Y-8717D01*
X-59Y-8707D01*
G37*
D478*
G36*
X-463Y-8781D02*
X-199Y-8733D01*
X-197Y-8743D01*
X-461Y-8791D01*
X-463Y-8781D01*
G37*
D441*
G36*
X-1211Y-8917D02*
X-1183Y-8912D01*
X-1181Y-8921D01*
X-1209Y-8926D01*
X-1211Y-8917D01*
G37*
D435*
G36*
X-1496Y-8968D02*
X-1438Y-8958D01*
X-1436Y-8968D01*
X-1494Y-8978D01*
X-1496Y-8968D01*
G37*
D461*
G36*
X1956Y-8331D02*
X2309Y-8267D01*
X2310Y-8277D01*
X1957Y-8341D01*
X1956Y-8331D01*
G37*
D478*
G36*
X814Y-8539D02*
X1078Y-8491D01*
X1080Y-8501D01*
X816Y-8549D01*
X814Y-8539D01*
G37*
D452*
G36*
X17Y-8684D02*
X301Y-8633D01*
X303Y-8642D01*
X19Y-8693D01*
X17Y-8684D01*
G37*
D454*
G36*
X-475Y-8773D02*
X-299Y-8741D01*
X-297Y-8751D01*
X-473Y-8783D01*
X-475Y-8773D01*
G37*
D441*
G36*
X-1222Y-8909D02*
X-1194Y-8904D01*
X-1192Y-8913D01*
X-1220Y-8918D01*
X-1222Y-8909D01*
G37*
D435*
G36*
X-1508Y-8960D02*
X-1450Y-8950D01*
X-1448Y-8960D01*
X-1506Y-8970D01*
X-1508Y-8960D01*
G37*
D502*
G36*
X1964Y-8320D02*
X2327Y-8255D01*
X2328Y-8264D01*
X1965Y-8329D01*
X1964Y-8320D01*
G37*
D478*
G36*
X793Y-8532D02*
X1057Y-8484D01*
X1059Y-8494D01*
X795Y-8542D01*
X793Y-8532D01*
G37*
D460*
G36*
X65Y-8664D02*
X310Y-8620D01*
X311Y-8630D01*
X66Y-8674D01*
X65Y-8664D01*
G37*
D443*
G36*
X-486Y-8764D02*
X-350Y-8740D01*
X-348Y-8750D01*
X-484Y-8774D01*
X-486Y-8764D01*
G37*
D441*
G36*
X-1224Y-8899D02*
X-1196Y-8894D01*
X-1194Y-8903D01*
X-1222Y-8908D01*
X-1224Y-8899D01*
G37*
D434*
G36*
X-1509Y-8951D02*
X-1461Y-8942D01*
X-1459Y-8951D01*
X-1507Y-8960D01*
X-1509Y-8951D01*
G37*
D502*
G36*
X1972Y-8308D02*
X2335Y-8243D01*
X2336Y-8252D01*
X1973Y-8317D01*
X1972Y-8308D01*
G37*
D501*
G36*
X762Y-8528D02*
X1036Y-8479D01*
X1038Y-8488D01*
X764Y-8537D01*
X762Y-8528D01*
G37*
D458*
G36*
X102Y-8647D02*
X328Y-8607D01*
X330Y-8617D01*
X104Y-8657D01*
X102Y-8647D01*
G37*
D442*
G36*
X-507Y-8758D02*
X-390Y-8738D01*
X-389Y-8748D01*
X-506Y-8768D01*
X-507Y-8758D01*
G37*
D441*
G36*
X-1236Y-8891D02*
X-1208Y-8886D01*
X-1206Y-8895D01*
X-1234Y-8900D01*
X-1236Y-8891D01*
G37*
D434*
G36*
X-1521Y-8943D02*
X-1473Y-8934D01*
X-1471Y-8943D01*
X-1519Y-8952D01*
X-1521Y-8943D01*
G37*
D502*
G36*
X1980Y-8296D02*
X2343Y-8231D01*
X2344Y-8240D01*
X1981Y-8305D01*
X1980Y-8296D01*
G37*
D501*
G36*
X740Y-8522D02*
X1014Y-8473D01*
X1016Y-8482D01*
X742Y-8531D01*
X740Y-8522D01*
G37*
D453*
G36*
X140Y-8630D02*
X346Y-8594D01*
X348Y-8604D01*
X142Y-8640D01*
X140Y-8630D01*
G37*
D439*
G36*
X-520Y-8751D02*
X-422Y-8734D01*
X-420Y-8743D01*
X-518Y-8760D01*
X-520Y-8751D01*
G37*
D459*
G36*
X-1237Y-8881D02*
X-1219Y-8878D01*
X-1217Y-8887D01*
X-1235Y-8890D01*
X-1237Y-8881D01*
G37*
D433*
G36*
X-1523Y-8933D02*
X-1485Y-8926D01*
X-1483Y-8935D01*
X-1521Y-8942D01*
X-1523Y-8933D01*
G37*
D445*
G36*
X2185Y-8249D02*
X2341Y-8221D01*
X2343Y-8231D01*
X2187Y-8259D01*
X2185Y-8249D01*
G37*
D457*
G36*
X1988Y-8285D02*
X2174Y-8252D01*
X2176Y-8261D01*
X1990Y-8294D01*
X1988Y-8285D01*
G37*
D452*
G36*
X709Y-8517D02*
X993Y-8466D01*
X995Y-8475D01*
X711Y-8526D01*
X709Y-8517D01*
G37*
D453*
G36*
X167Y-8615D02*
X373Y-8579D01*
X375Y-8589D01*
X169Y-8625D01*
X167Y-8615D01*
G37*
D438*
G36*
X-531Y-8742D02*
X-443Y-8727D01*
X-441Y-8736D01*
X-529Y-8751D01*
X-531Y-8742D01*
G37*
D441*
G36*
X-1249Y-8873D02*
X-1221Y-8868D01*
X-1219Y-8877D01*
X-1247Y-8882D01*
X-1249Y-8873D01*
G37*
D433*
G36*
X-1534Y-8925D02*
X-1496Y-8918D01*
X-1494Y-8927D01*
X-1532Y-8934D01*
X-1534Y-8925D01*
G37*
D440*
G36*
X2231Y-8229D02*
X2339Y-8211D01*
X2341Y-8221D01*
X2233Y-8239D01*
X2231Y-8229D01*
G37*
D454*
G36*
X1996Y-8273D02*
X2172Y-8241D01*
X2174Y-8251D01*
X1998Y-8283D01*
X1996Y-8273D01*
G37*
D499*
G36*
X667Y-8514D02*
X971Y-8460D01*
X973Y-8470D01*
X669Y-8524D01*
X667Y-8514D01*
G37*
D458*
G36*
X185Y-8602D02*
X411Y-8562D01*
X413Y-8572D01*
X187Y-8612D01*
X185Y-8602D01*
G37*
D437*
G36*
X-543Y-8734D02*
X-465Y-8720D01*
X-463Y-8730D01*
X-541Y-8744D01*
X-543Y-8734D01*
G37*
D459*
G36*
X-1251Y-8863D02*
X-1233Y-8860D01*
X-1231Y-8869D01*
X-1249Y-8872D01*
X-1251Y-8863D01*
G37*
D433*
G36*
X-1546Y-8917D02*
X-1508Y-8910D01*
X-1506Y-8919D01*
X-1544Y-8926D01*
X-1546Y-8917D01*
G37*
D434*
G36*
X2279Y-8212D02*
X2327Y-8203D01*
X2329Y-8212D01*
X2281Y-8221D01*
X2279Y-8212D01*
G37*
D444*
G36*
X2014Y-8259D02*
X2160Y-8233D01*
X2162Y-8243D01*
X2016Y-8269D01*
X2014Y-8259D01*
G37*
D451*
G36*
X626Y-8511D02*
X950Y-8453D01*
X952Y-8463D01*
X628Y-8521D01*
X626Y-8511D01*
G37*
D460*
G36*
X214Y-8587D02*
X459Y-8543D01*
X460Y-8553D01*
X215Y-8597D01*
X214Y-8587D01*
G37*
D436*
G36*
X-554Y-8726D02*
X-486Y-8714D01*
X-484Y-8724D01*
X-552Y-8736D01*
X-554Y-8726D01*
G37*
D459*
G36*
X-1262Y-8855D02*
X-1244Y-8852D01*
X-1242Y-8861D01*
X-1260Y-8864D01*
X-1262Y-8855D01*
G37*
D433*
G36*
X-1558Y-8909D02*
X-1520Y-8902D01*
X-1518Y-8911D01*
X-1556Y-8918D01*
X-1558Y-8909D01*
G37*
D443*
G36*
X2022Y-8248D02*
X2158Y-8224D01*
X2160Y-8234D01*
X2024Y-8258D01*
X2022Y-8248D01*
G37*
D469*
G36*
X231Y-8573D02*
X929Y-8447D01*
X931Y-8457D01*
X233Y-8583D01*
X231Y-8573D01*
G37*
D436*
G36*
X-576Y-8720D02*
X-508Y-8708D01*
X-506Y-8718D01*
X-574Y-8730D01*
X-576Y-8720D01*
G37*
D459*
G36*
X-1264Y-8846D02*
X-1246Y-8843D01*
X-1244Y-8852D01*
X-1262Y-8855D01*
X-1264Y-8846D01*
G37*
D433*
G36*
X-1569Y-8901D02*
X-1531Y-8894D01*
X-1529Y-8903D01*
X-1567Y-8910D01*
X-1569Y-8901D01*
G37*
D442*
G36*
X2040Y-8234D02*
X2157Y-8214D01*
X2158Y-8224D01*
X2041Y-8244D01*
X2040Y-8234D01*
G37*
D503*
G36*
X249Y-8559D02*
X907Y-8441D01*
X909Y-8451D01*
X251Y-8569D01*
X249Y-8559D01*
G37*
D436*
G36*
X-587Y-8712D02*
X-519Y-8700D01*
X-517Y-8710D01*
X-585Y-8722D01*
X-587Y-8712D01*
G37*
D459*
G36*
X-1276Y-8837D02*
X-1258Y-8834D01*
X-1256Y-8843D01*
X-1274Y-8846D01*
X-1276Y-8837D01*
G37*
D433*
G36*
X-1581Y-8893D02*
X-1543Y-8886D01*
X-1541Y-8895D01*
X-1579Y-8902D01*
X-1581Y-8893D01*
G37*
D438*
G36*
X2057Y-8221D02*
X2145Y-8206D01*
X2147Y-8215D01*
X2059Y-8230D01*
X2057Y-8221D01*
G37*
D504*
G36*
X267Y-8546D02*
X876Y-8436D01*
X877Y-8446D01*
X268Y-8556D01*
X267Y-8546D01*
G37*
D436*
G36*
X-599Y-8704D02*
X-531Y-8692D01*
X-529Y-8702D01*
X-597Y-8714D01*
X-599Y-8704D01*
G37*
D441*
G36*
X-1287Y-8830D02*
X-1259Y-8825D01*
X-1257Y-8834D01*
X-1285Y-8839D01*
X-1287Y-8830D01*
G37*
D433*
G36*
X-1593Y-8885D02*
X-1555Y-8878D01*
X-1553Y-8887D01*
X-1591Y-8894D01*
X-1593Y-8885D01*
G37*
D436*
G36*
X2075Y-8208D02*
X2143Y-8196D01*
X2145Y-8206D01*
X2077Y-8218D01*
X2075Y-8208D01*
G37*
D505*
G36*
X294Y-8532D02*
X854Y-8431D01*
X856Y-8440D01*
X296Y-8541D01*
X294Y-8532D01*
G37*
D436*
G36*
X-611Y-8696D02*
X-543Y-8684D01*
X-541Y-8694D01*
X-609Y-8706D01*
X-611Y-8696D01*
G37*
D441*
G36*
X-1299Y-8821D02*
X-1271Y-8816D01*
X-1269Y-8825D01*
X-1297Y-8830D01*
X-1299Y-8821D01*
G37*
D433*
G36*
X-1604Y-8877D02*
X-1566Y-8870D01*
X-1564Y-8879D01*
X-1602Y-8886D01*
X-1604Y-8877D01*
G37*
D506*
G36*
X2103Y-8193D02*
X2112Y-8192D01*
X2113Y-8201D01*
X2104Y-8202D01*
X2103Y-8193D01*
G37*
D507*
G36*
X313Y-8518D02*
X823Y-8426D01*
X825Y-8436D01*
X315Y-8528D01*
X313Y-8518D01*
G37*
D436*
G36*
X-622Y-8688D02*
X-554Y-8676D01*
X-552Y-8686D01*
X-620Y-8698D01*
X-622Y-8688D01*
G37*
D441*
G36*
X-1311Y-8813D02*
X-1283Y-8808D01*
X-1281Y-8817D01*
X-1309Y-8822D01*
X-1311Y-8813D01*
G37*
D433*
G36*
X-1616Y-8869D02*
X-1578Y-8862D01*
X-1576Y-8871D01*
X-1614Y-8878D01*
X-1616Y-8869D01*
G37*
D484*
G36*
X340Y-8503D02*
X792Y-8421D01*
X794Y-8431D01*
X342Y-8513D01*
X340Y-8503D01*
G37*
D436*
G36*
X-634Y-8680D02*
X-566Y-8668D01*
X-564Y-8678D01*
X-632Y-8690D01*
X-634Y-8680D01*
G37*
D441*
G36*
X-1313Y-8804D02*
X-1285Y-8799D01*
X-1283Y-8808D01*
X-1311Y-8813D01*
X-1313Y-8804D01*
G37*
D433*
G36*
X-1627Y-8861D02*
X-1589Y-8854D01*
X-1587Y-8863D01*
X-1625Y-8870D01*
X-1627Y-8861D01*
G37*
D447*
G36*
X378Y-8486D02*
X751Y-8419D01*
X752Y-8428D01*
X379Y-8495D01*
X378Y-8486D01*
G37*
D437*
G36*
X-656Y-8673D02*
X-578Y-8659D01*
X-576Y-8669D01*
X-654Y-8683D01*
X-656Y-8673D01*
G37*
D441*
G36*
X-1324Y-8796D02*
X-1296Y-8791D01*
X-1294Y-8800D01*
X-1322Y-8805D01*
X-1324Y-8796D01*
G37*
D433*
G36*
X-1639Y-8853D02*
X-1601Y-8846D01*
X-1599Y-8855D01*
X-1637Y-8862D01*
X-1639Y-8853D01*
G37*
D452*
G36*
X425Y-8467D02*
X709Y-8416D01*
X711Y-8425D01*
X427Y-8476D01*
X425Y-8467D01*
G37*
D437*
G36*
X-667Y-8665D02*
X-589Y-8651D01*
X-587Y-8661D01*
X-665Y-8675D01*
X-667Y-8665D01*
G37*
D441*
G36*
X-1336Y-8787D02*
X-1308Y-8782D01*
X-1306Y-8791D01*
X-1334Y-8796D01*
X-1336Y-8787D01*
G37*
D433*
G36*
X-1651Y-8845D02*
X-1613Y-8838D01*
X-1611Y-8847D01*
X-1649Y-8854D01*
X-1651Y-8845D01*
G37*
D443*
G36*
X502Y-8442D02*
X638Y-8418D01*
X640Y-8428D01*
X504Y-8452D01*
X502Y-8442D01*
G37*
D436*
G36*
X-679Y-8657D02*
X-611Y-8645D01*
X-609Y-8655D01*
X-677Y-8667D01*
X-679Y-8657D01*
G37*
D441*
G36*
X-1347Y-8779D02*
X-1319Y-8774D01*
X-1317Y-8783D01*
X-1345Y-8788D01*
X-1347Y-8779D01*
G37*
D434*
G36*
X-1672Y-8839D02*
X-1624Y-8830D01*
X-1622Y-8839D01*
X-1670Y-8848D01*
X-1672Y-8839D01*
G37*
D436*
G36*
X-690Y-8649D02*
X-622Y-8637D01*
X-620Y-8647D01*
X-688Y-8659D01*
X-690Y-8649D01*
G37*
D433*
G36*
X-1359Y-8771D02*
X-1321Y-8764D01*
X-1319Y-8773D01*
X-1357Y-8780D01*
X-1359Y-8771D01*
G37*
D434*
G36*
X-1684Y-8831D02*
X-1636Y-8822D01*
X-1634Y-8831D01*
X-1682Y-8840D01*
X-1684Y-8831D01*
G37*
D436*
G36*
X-702Y-8641D02*
X-634Y-8629D01*
X-632Y-8639D01*
X-700Y-8651D01*
X-702Y-8641D01*
G37*
D433*
G36*
X-1026Y-8701D02*
X-988Y-8694D01*
X-986Y-8703D01*
X-1024Y-8710D01*
X-1026Y-8701D01*
G37*
G36*
X-1371Y-8763D02*
X-1333Y-8756D01*
X-1331Y-8765D01*
X-1369Y-8772D01*
X-1371Y-8763D01*
G37*
D434*
G36*
X-1696Y-8823D02*
X-1648Y-8814D01*
X-1646Y-8823D01*
X-1694Y-8832D01*
X-1696Y-8823D01*
G37*
D436*
G36*
X-714Y-8633D02*
X-646Y-8621D01*
X-644Y-8631D01*
X-712Y-8643D01*
X-714Y-8633D01*
G37*
G36*
X-1019Y-8689D02*
X-951Y-8677D01*
X-949Y-8687D01*
X-1017Y-8699D01*
X-1019Y-8689D01*
G37*
D433*
G36*
X-1382Y-8755D02*
X-1344Y-8748D01*
X-1342Y-8757D01*
X-1380Y-8764D01*
X-1382Y-8755D01*
G37*
D434*
G36*
X-1707Y-8814D02*
X-1659Y-8805D01*
X-1657Y-8814D01*
X-1705Y-8823D01*
X-1707Y-8814D01*
G37*
D437*
G36*
X-735Y-8627D02*
X-657Y-8613D01*
X-655Y-8623D01*
X-733Y-8637D01*
X-735Y-8627D01*
G37*
G36*
X-1001Y-8675D02*
X-923Y-8661D01*
X-921Y-8671D01*
X-999Y-8685D01*
X-1001Y-8675D01*
G37*
D433*
G36*
X-1394Y-8747D02*
X-1356Y-8740D01*
X-1354Y-8749D01*
X-1392Y-8756D01*
X-1394Y-8747D01*
G37*
D435*
G36*
X-1729Y-8807D02*
X-1671Y-8797D01*
X-1669Y-8807D01*
X-1727Y-8817D01*
X-1729Y-8807D01*
G37*
D437*
G36*
X-747Y-8619D02*
X-669Y-8605D01*
X-667Y-8615D01*
X-745Y-8629D01*
X-747Y-8619D01*
G37*
D438*
G36*
X-983Y-8662D02*
X-895Y-8647D01*
X-893Y-8656D01*
X-981Y-8671D01*
X-983Y-8662D01*
G37*
D434*
G36*
X-1406Y-8739D02*
X-1358Y-8730D01*
X-1356Y-8739D01*
X-1404Y-8748D01*
X-1406Y-8739D01*
G37*
G36*
X-1730Y-8798D02*
X-1682Y-8789D01*
X-1680Y-8798D01*
X-1728Y-8807D01*
X-1730Y-8798D01*
G37*
D436*
G36*
X-758Y-8611D02*
X-690Y-8599D01*
X-688Y-8609D01*
X-756Y-8621D01*
X-758Y-8611D01*
G37*
D438*
G36*
X-965Y-8649D02*
X-877Y-8634D01*
X-875Y-8643D01*
X-963Y-8658D01*
X-965Y-8649D01*
G37*
D435*
G36*
X-1427Y-8732D02*
X-1369Y-8722D01*
X-1367Y-8732D01*
X-1425Y-8742D01*
X-1427Y-8732D01*
G37*
D433*
G36*
X-1732Y-8788D02*
X-1694Y-8781D01*
X-1692Y-8790D01*
X-1730Y-8797D01*
X-1732Y-8788D01*
G37*
D436*
G36*
X-770Y-8603D02*
X-702Y-8591D01*
X-700Y-8601D01*
X-768Y-8613D01*
X-770Y-8603D01*
G37*
D439*
G36*
X-947Y-8635D02*
X-849Y-8618D01*
X-847Y-8627D01*
X-945Y-8644D01*
X-947Y-8635D01*
G37*
D435*
G36*
X-1439Y-8724D02*
X-1381Y-8714D01*
X-1379Y-8724D01*
X-1437Y-8734D01*
X-1439Y-8724D01*
G37*
D433*
G36*
X-1734Y-8779D02*
X-1696Y-8772D01*
X-1694Y-8781D01*
X-1732Y-8788D01*
X-1734Y-8779D01*
G37*
D462*
G36*
X-929Y-8621D02*
X-713Y-8583D01*
X-711Y-8593D01*
X-927Y-8631D01*
X-929Y-8621D01*
G37*
D435*
G36*
X-1451Y-8716D02*
X-1393Y-8706D01*
X-1391Y-8716D01*
X-1449Y-8726D01*
X-1451Y-8716D01*
G37*
D433*
G36*
X-1746Y-8771D02*
X-1708Y-8764D01*
X-1706Y-8773D01*
X-1744Y-8780D01*
X-1746Y-8771D01*
G37*
D457*
G36*
X-911Y-8608D02*
X-725Y-8575D01*
X-723Y-8584D01*
X-909Y-8617D01*
X-911Y-8608D01*
G37*
D435*
G36*
X-1462Y-8708D02*
X-1404Y-8698D01*
X-1402Y-8708D01*
X-1460Y-8718D01*
X-1462Y-8708D01*
G37*
D434*
G36*
X-1757Y-8763D02*
X-1709Y-8754D01*
X-1707Y-8763D01*
X-1755Y-8772D01*
X-1757Y-8763D01*
G37*
D444*
G36*
X-893Y-8594D02*
X-747Y-8568D01*
X-745Y-8578D01*
X-891Y-8604D01*
X-893Y-8594D01*
G37*
D435*
G36*
X-1474Y-8700D02*
X-1416Y-8690D01*
X-1414Y-8700D01*
X-1472Y-8710D01*
X-1474Y-8700D01*
G37*
G36*
X-1769Y-8754D02*
X-1711Y-8744D01*
X-1709Y-8754D01*
X-1767Y-8764D01*
X-1769Y-8754D01*
G37*
D442*
G36*
X-875Y-8581D02*
X-758Y-8561D01*
X-757Y-8571D01*
X-874Y-8591D01*
X-875Y-8581D01*
G37*
D434*
G36*
X-1475Y-8691D02*
X-1427Y-8682D01*
X-1425Y-8691D01*
X-1473Y-8700D01*
X-1475Y-8691D01*
G37*
D436*
G36*
X-1790Y-8748D02*
X-1722Y-8736D01*
X-1720Y-8746D01*
X-1788Y-8758D01*
X-1790Y-8748D01*
G37*
D440*
G36*
X-878Y-8571D02*
X-770Y-8553D01*
X-768Y-8563D01*
X-876Y-8581D01*
X-878Y-8571D01*
G37*
D435*
G36*
X-1487Y-8682D02*
X-1429Y-8672D01*
X-1427Y-8682D01*
X-1485Y-8692D01*
X-1487Y-8682D01*
G37*
D438*
G36*
X-1812Y-8741D02*
X-1724Y-8726D01*
X-1722Y-8735D01*
X-1810Y-8750D01*
X-1812Y-8741D01*
G37*
D439*
G36*
X-879Y-8562D02*
X-781Y-8545D01*
X-779Y-8554D01*
X-877Y-8571D01*
X-879Y-8562D01*
G37*
D434*
G36*
X-1489Y-8673D02*
X-1441Y-8664D01*
X-1439Y-8673D01*
X-1487Y-8682D01*
X-1489Y-8673D01*
G37*
D441*
G36*
X-1754Y-8721D02*
X-1726Y-8716D01*
X-1724Y-8725D01*
X-1752Y-8730D01*
X-1754Y-8721D01*
G37*
D435*
G36*
X-1823Y-8733D02*
X-1765Y-8723D01*
X-1763Y-8733D01*
X-1821Y-8743D01*
X-1823Y-8733D01*
G37*
D438*
G36*
X-891Y-8554D02*
X-803Y-8539D01*
X-801Y-8548D01*
X-889Y-8563D01*
X-891Y-8554D01*
G37*
D433*
G36*
X-1491Y-8663D02*
X-1453Y-8656D01*
X-1451Y-8665D01*
X-1489Y-8672D01*
X-1491Y-8663D01*
G37*
D441*
G36*
X-1756Y-8711D02*
X-1728Y-8706D01*
X-1726Y-8715D01*
X-1754Y-8720D01*
X-1756Y-8711D01*
G37*
D434*
G36*
X-1845Y-8728D02*
X-1797Y-8719D01*
X-1795Y-8728D01*
X-1843Y-8737D01*
X-1845Y-8728D01*
G37*
D438*
G36*
X-902Y-8546D02*
X-814Y-8531D01*
X-812Y-8540D01*
X-900Y-8555D01*
X-902Y-8546D01*
G37*
D433*
G36*
X-1502Y-8655D02*
X-1464Y-8648D01*
X-1462Y-8657D01*
X-1500Y-8664D01*
X-1502Y-8655D01*
G37*
D441*
G36*
X-1758Y-8702D02*
X-1730Y-8697D01*
X-1728Y-8706D01*
X-1756Y-8711D01*
X-1758Y-8702D01*
G37*
G36*
X-1856Y-8719D02*
X-1828Y-8714D01*
X-1826Y-8723D01*
X-1854Y-8728D01*
X-1856Y-8719D01*
G37*
D438*
G36*
X-914Y-8538D02*
X-826Y-8523D01*
X-824Y-8532D01*
X-912Y-8547D01*
X-914Y-8538D01*
G37*
D441*
G36*
X-1504Y-8645D02*
X-1476Y-8640D01*
X-1474Y-8649D01*
X-1502Y-8654D01*
X-1504Y-8645D01*
G37*
G36*
X-1760Y-8692D02*
X-1732Y-8687D01*
X-1730Y-8696D01*
X-1758Y-8701D01*
X-1760Y-8692D01*
G37*
D459*
G36*
X-1878Y-8713D02*
X-1860Y-8710D01*
X-1858Y-8719D01*
X-1876Y-8722D01*
X-1878Y-8713D01*
G37*
D439*
G36*
X-936Y-8531D02*
X-838Y-8514D01*
X-836Y-8523D01*
X-934Y-8540D01*
X-936Y-8531D01*
G37*
D459*
G36*
X-1506Y-8635D02*
X-1488Y-8632D01*
X-1486Y-8641D01*
X-1504Y-8644D01*
X-1506Y-8635D01*
G37*
D433*
G36*
X-1771Y-8684D02*
X-1733Y-8677D01*
X-1731Y-8686D01*
X-1769Y-8693D01*
X-1771Y-8684D01*
G37*
D439*
G36*
X-947Y-8523D02*
X-849Y-8506D01*
X-847Y-8515D01*
X-945Y-8532D01*
X-947Y-8523D01*
G37*
D433*
G36*
X-1773Y-8674D02*
X-1735Y-8667D01*
X-1733Y-8676D01*
X-1771Y-8683D01*
X-1773Y-8674D01*
G37*
D439*
G36*
X-969Y-8517D02*
X-871Y-8500D01*
X-869Y-8509D01*
X-967Y-8526D01*
X-969Y-8517D01*
G37*
D441*
G36*
X-1775Y-8664D02*
X-1747Y-8659D01*
X-1745Y-8668D01*
X-1773Y-8673D01*
X-1775Y-8664D01*
G37*
D439*
G36*
X-980Y-8509D02*
X-882Y-8492D01*
X-880Y-8501D01*
X-978Y-8518D01*
X-980Y-8509D01*
G37*
D441*
G36*
X-1777Y-8654D02*
X-1749Y-8649D01*
X-1747Y-8658D01*
X-1775Y-8663D01*
X-1777Y-8654D01*
G37*
D440*
G36*
X-1002Y-8502D02*
X-894Y-8484D01*
X-892Y-8494D01*
X-1000Y-8512D01*
X-1002Y-8502D01*
G37*
D433*
G36*
X-1788Y-8646D02*
X-1750Y-8639D01*
X-1748Y-8648D01*
X-1786Y-8655D01*
X-1788Y-8646D01*
G37*
D440*
G36*
X-1014Y-8494D02*
X-906Y-8476D01*
X-904Y-8486D01*
X-1012Y-8504D01*
X-1014Y-8494D01*
G37*
D433*
G36*
X-1790Y-8636D02*
X-1752Y-8629D01*
X-1750Y-8638D01*
X-1788Y-8645D01*
X-1790Y-8636D01*
G37*
D442*
G36*
X-1034Y-8488D02*
X-917Y-8468D01*
X-916Y-8478D01*
X-1033Y-8498D01*
X-1034Y-8488D01*
G37*
D441*
G36*
X-1792Y-8626D02*
X-1764Y-8621D01*
X-1762Y-8630D01*
X-1790Y-8635D01*
X-1792Y-8626D01*
G37*
D455*
G36*
X-1046Y-8480D02*
X-919Y-8458D01*
X-918Y-8468D01*
X-1045Y-8490D01*
X-1046Y-8480D01*
G37*
D441*
G36*
X-1794Y-8617D02*
X-1766Y-8612D01*
X-1764Y-8621D01*
X-1792Y-8626D01*
X-1794Y-8617D01*
G37*
D444*
G36*
X-1067Y-8474D02*
X-921Y-8448D01*
X-919Y-8458D01*
X-1065Y-8484D01*
X-1067Y-8474D01*
G37*
D433*
G36*
X-1805Y-8609D02*
X-1767Y-8602D01*
X-1765Y-8611D01*
X-1803Y-8618D01*
X-1805Y-8609D01*
G37*
D456*
G36*
X-1089Y-8468D02*
X-923Y-8438D01*
X-921Y-8448D01*
X-1087Y-8478D01*
X-1089Y-8468D01*
G37*
D433*
G36*
X-1807Y-8599D02*
X-1769Y-8592D01*
X-1767Y-8601D01*
X-1805Y-8608D01*
X-1807Y-8599D01*
G37*
D457*
G36*
X-1101Y-8460D02*
X-915Y-8427D01*
X-913Y-8436D01*
X-1099Y-8469D01*
X-1101Y-8460D01*
G37*
D441*
G36*
X-1809Y-8589D02*
X-1781Y-8584D01*
X-1779Y-8593D01*
X-1807Y-8598D01*
X-1809Y-8589D01*
G37*
D437*
G36*
X-994Y-8430D02*
X-916Y-8416D01*
X-914Y-8426D01*
X-992Y-8440D01*
X-994Y-8430D01*
G37*
D442*
G36*
X-1122Y-8453D02*
X-1005Y-8433D01*
X-1004Y-8443D01*
X-1121Y-8463D01*
X-1122Y-8453D01*
G37*
D441*
G36*
X-1811Y-8579D02*
X-1783Y-8574D01*
X-1781Y-8583D01*
X-1809Y-8588D01*
X-1811Y-8579D01*
G37*
D435*
G36*
X-967Y-8415D02*
X-909Y-8405D01*
X-907Y-8415D01*
X-965Y-8425D01*
X-967Y-8415D01*
G37*
D440*
G36*
X-1144Y-8446D02*
X-1036Y-8428D01*
X-1034Y-8438D01*
X-1142Y-8456D01*
X-1144Y-8446D01*
G37*
D441*
G36*
X-1813Y-8569D02*
X-1785Y-8564D01*
X-1783Y-8573D01*
X-1811Y-8578D01*
X-1813Y-8569D01*
G37*
D435*
G36*
X-968Y-8405D02*
X-910Y-8395D01*
X-908Y-8405D01*
X-966Y-8415D01*
X-968Y-8405D01*
G37*
D439*
G36*
X-1156Y-8439D02*
X-1058Y-8422D01*
X-1056Y-8431D01*
X-1154Y-8448D01*
X-1156Y-8439D01*
G37*
D459*
G36*
X-1814Y-8559D02*
X-1796Y-8556D01*
X-1794Y-8565D01*
X-1812Y-8568D01*
X-1814Y-8559D01*
G37*
D436*
G36*
X-970Y-8395D02*
X-902Y-8383D01*
X-900Y-8393D01*
X-968Y-8405D01*
X-970Y-8395D01*
G37*
D438*
G36*
X-1177Y-8433D02*
X-1089Y-8418D01*
X-1087Y-8427D01*
X-1175Y-8442D01*
X-1177Y-8433D01*
G37*
D459*
G36*
X-1816Y-8549D02*
X-1798Y-8546D01*
X-1796Y-8555D01*
X-1814Y-8558D01*
X-1816Y-8549D01*
G37*
D435*
G36*
X-962Y-8383D02*
X-904Y-8373D01*
X-902Y-8383D01*
X-960Y-8393D01*
X-962Y-8383D01*
G37*
D437*
G36*
X-1189Y-8425D02*
X-1111Y-8411D01*
X-1109Y-8421D01*
X-1187Y-8435D01*
X-1189Y-8425D01*
G37*
D506*
G36*
X-1818Y-8539D02*
X-1809Y-8538D01*
X-1808Y-8547D01*
X-1817Y-8548D01*
X-1818Y-8539D01*
G37*
D435*
G36*
X-964Y-8374D02*
X-906Y-8364D01*
X-904Y-8374D01*
X-962Y-8384D01*
X-964Y-8374D01*
G37*
D438*
G36*
X-1210Y-8419D02*
X-1122Y-8404D01*
X-1120Y-8413D01*
X-1208Y-8428D01*
X-1210Y-8419D01*
G37*
D436*
G36*
X-966Y-8364D02*
X-898Y-8352D01*
X-896Y-8362D01*
X-964Y-8374D01*
X-966Y-8364D01*
G37*
D437*
G36*
X-1222Y-8410D02*
X-1144Y-8396D01*
X-1142Y-8406D01*
X-1220Y-8420D01*
X-1222Y-8410D01*
G37*
D436*
G36*
X-968Y-8354D02*
X-900Y-8342D01*
X-898Y-8352D01*
X-966Y-8364D01*
X-968Y-8354D01*
G37*
D438*
G36*
X-1243Y-8404D02*
X-1155Y-8389D01*
X-1153Y-8398D01*
X-1241Y-8413D01*
X-1243Y-8404D01*
G37*
D436*
G36*
X-969Y-8344D02*
X-901Y-8332D01*
X-899Y-8342D01*
X-967Y-8354D01*
X-969Y-8344D01*
G37*
D438*
G36*
X-1255Y-8396D02*
X-1167Y-8381D01*
X-1165Y-8390D01*
X-1253Y-8405D01*
X-1255Y-8396D01*
G37*
D435*
G36*
X-961Y-8332D02*
X-903Y-8322D01*
X-901Y-8332D01*
X-959Y-8342D01*
X-961Y-8332D01*
G37*
D438*
G36*
X-1276Y-8390D02*
X-1188Y-8375D01*
X-1186Y-8384D01*
X-1274Y-8399D01*
X-1276Y-8390D01*
G37*
D436*
G36*
X-963Y-8323D02*
X-895Y-8311D01*
X-893Y-8321D01*
X-961Y-8333D01*
X-963Y-8323D01*
G37*
D438*
G36*
X-1288Y-8382D02*
X-1200Y-8367D01*
X-1198Y-8376D01*
X-1286Y-8391D01*
X-1288Y-8382D01*
G37*
D436*
G36*
X-965Y-8313D02*
X-897Y-8301D01*
X-895Y-8311D01*
X-963Y-8323D01*
X-965Y-8313D01*
G37*
D437*
G36*
X-1299Y-8374D02*
X-1221Y-8360D01*
X-1219Y-8370D01*
X-1297Y-8384D01*
X-1299Y-8374D01*
G37*
D435*
G36*
X-967Y-8303D02*
X-909Y-8293D01*
X-907Y-8303D01*
X-965Y-8313D01*
X-967Y-8303D01*
G37*
D437*
G36*
X-1321Y-8368D02*
X-1243Y-8354D01*
X-1241Y-8364D01*
X-1319Y-8378D01*
X-1321Y-8368D01*
G37*
D435*
G36*
X-968Y-8293D02*
X-910Y-8283D01*
X-908Y-8293D01*
X-966Y-8303D01*
X-968Y-8293D01*
G37*
D436*
G36*
X-1333Y-8359D02*
X-1265Y-8347D01*
X-1263Y-8357D01*
X-1331Y-8369D01*
X-1333Y-8359D01*
G37*
D435*
G36*
X-970Y-8283D02*
X-912Y-8273D01*
X-910Y-8283D01*
X-968Y-8293D01*
X-970Y-8283D01*
G37*
D436*
G36*
X-1344Y-8351D02*
X-1276Y-8339D01*
X-1274Y-8349D01*
X-1342Y-8361D01*
X-1344Y-8351D01*
G37*
D435*
G36*
X-972Y-8273D02*
X-914Y-8263D01*
X-912Y-8273D01*
X-970Y-8283D01*
X-972Y-8273D01*
G37*
G36*
X-1356Y-8343D02*
X-1298Y-8333D01*
X-1296Y-8343D01*
X-1354Y-8353D01*
X-1356Y-8343D01*
G37*
G36*
X-974Y-8264D02*
X-916Y-8254D01*
X-914Y-8264D01*
X-972Y-8274D01*
X-974Y-8264D01*
G37*
D434*
G36*
X-1367Y-8336D02*
X-1319Y-8327D01*
X-1317Y-8336D01*
X-1365Y-8345D01*
X-1367Y-8336D01*
G37*
D435*
G36*
X-976Y-8254D02*
X-918Y-8244D01*
X-916Y-8254D01*
X-974Y-8264D01*
X-976Y-8254D01*
G37*
D433*
G36*
X-1379Y-8328D02*
X-1341Y-8321D01*
X-1339Y-8330D01*
X-1377Y-8337D01*
X-1379Y-8328D01*
G37*
D434*
G36*
X-977Y-8245D02*
X-929Y-8236D01*
X-927Y-8245D01*
X-975Y-8254D01*
X-977Y-8245D01*
G37*
D441*
G36*
X-1390Y-8320D02*
X-1362Y-8315D01*
X-1360Y-8324D01*
X-1388Y-8329D01*
X-1390Y-8320D01*
G37*
D434*
G36*
X-979Y-8235D02*
X-931Y-8226D01*
X-929Y-8235D01*
X-977Y-8244D01*
X-979Y-8235D01*
G37*
D506*
G36*
X-1392Y-8310D02*
X-1383Y-8309D01*
X-1382Y-8318D01*
X-1391Y-8319D01*
X-1392Y-8310D01*
G37*
D435*
G36*
X-991Y-8226D02*
X-933Y-8216D01*
X-931Y-8226D01*
X-989Y-8236D01*
X-991Y-8226D01*
G37*
D434*
G36*
X-992Y-8217D02*
X-944Y-8208D01*
X-942Y-8217D01*
X-990Y-8226D01*
X-992Y-8217D01*
G37*
G36*
X-994Y-8207D02*
X-946Y-8198D01*
X-944Y-8207D01*
X-992Y-8216D01*
X-994Y-8207D01*
G37*
G36*
X-1006Y-8199D02*
X-958Y-8190D01*
X-956Y-8199D01*
X-1004Y-8208D01*
X-1006Y-8199D01*
G37*
G36*
X-1008Y-8189D02*
X-960Y-8180D01*
X-958Y-8189D01*
X-1006Y-8198D01*
X-1008Y-8189D01*
G37*
G36*
X-1019Y-8181D02*
X-971Y-8172D01*
X-969Y-8181D01*
X-1017Y-8190D01*
X-1019Y-8181D01*
G37*
G36*
X-1021Y-8171D02*
X-973Y-8162D01*
X-971Y-8171D01*
X-1019Y-8180D01*
X-1021Y-8171D01*
G37*
G36*
X-1033Y-8163D02*
X-985Y-8154D01*
X-983Y-8163D01*
X-1031Y-8172D01*
X-1033Y-8163D01*
G37*
G36*
X-1034Y-8154D02*
X-986Y-8145D01*
X-984Y-8154D01*
X-1032Y-8163D01*
X-1034Y-8154D01*
G37*
D433*
G36*
X-1036Y-8144D02*
X-998Y-8137D01*
X-996Y-8146D01*
X-1034Y-8153D01*
X-1036Y-8144D01*
G37*
D441*
G36*
X-1048Y-8135D02*
X-1020Y-8130D01*
X-1018Y-8139D01*
X-1046Y-8144D01*
X-1048Y-8135D01*
G37*
D508*
X-1051Y-2106D02*
X-382Y-2106D01*
X-382Y-1673D02*
X-1051Y-1673D01*
X-382Y-1673D02*
X-382Y-2106D01*
X-1051Y-2106D02*
X-1051Y-1673D01*
X-300Y-1690D02*
X-300Y-2090D01*
X-382Y-2579D02*
X-1051Y-2579D01*
X-1051Y-2146D02*
X-382Y-2146D01*
X-382Y-2579D01*
X-1051Y-2579D02*
X-1051Y-2146D01*
X-300Y-2162D02*
X-300Y-2562D01*
X-382Y-3996D02*
X-1051Y-3996D01*
X-1051Y-3563D02*
X-382Y-3563D01*
X-382Y-3996D01*
X-1051Y-3996D02*
X-1051Y-3563D01*
X-300Y-3580D02*
X-300Y-3980D01*
X-382Y-4469D02*
X-1051Y-4469D01*
X-1051Y-4035D02*
X-382Y-4035D01*
X-382Y-4469D01*
X-1051Y-4469D02*
X-1051Y-4035D01*
X-300Y-4052D02*
X-300Y-4452D01*
X-382Y-6831D02*
X-1051Y-6831D01*
X-1051Y-6398D02*
X-382Y-6398D01*
X-382Y-6831D01*
X-1051Y-6831D02*
X-1051Y-6398D01*
X-300Y-6414D02*
X-300Y-6814D01*
X-382Y-7303D02*
X-1051Y-7303D01*
X-1051Y-6870D02*
X-382Y-6870D01*
X-382Y-7303D01*
X-1051Y-7303D02*
X-1051Y-6870D01*
X-300Y-6887D02*
X-300Y-7287D01*
X-118Y-2854D02*
X551Y-2854D01*
X551Y-3287D02*
X-118Y-3287D01*
X-118Y-2854D01*
X551Y-2854D02*
X551Y-3287D01*
X-200Y-3271D02*
X-200Y-2871D01*
X-118Y-2382D02*
X551Y-2382D01*
X551Y-2815D02*
X-118Y-2815D01*
X-118Y-2382D01*
X551Y-2382D02*
X551Y-2815D01*
X-200Y-2798D02*
X-200Y-2398D01*
X-118Y-7106D02*
X551Y-7106D01*
X551Y-7539D02*
X-118Y-7539D01*
X-118Y-7106D01*
X551Y-7106D02*
X551Y-7539D01*
X-200Y-7523D02*
X-200Y-7123D01*
X-118Y-6634D02*
X551Y-6634D01*
X551Y-7067D02*
X-118Y-7067D01*
X-118Y-6634D01*
X551Y-6634D02*
X551Y-7067D01*
X-200Y-7050D02*
X-200Y-6650D01*
X-118Y-6161D02*
X551Y-6161D01*
X551Y-6594D02*
X-118Y-6594D01*
X-118Y-6161D01*
X551Y-6161D02*
X551Y-6594D01*
X-200Y-6578D02*
X-200Y-6178D01*
X-382Y-5886D02*
X-1051Y-5886D01*
X-1051Y-5453D02*
X-382Y-5453D01*
X-382Y-5886D01*
X-1051Y-5886D02*
X-1051Y-5453D01*
X-300Y-5469D02*
X-300Y-5869D01*
X-382Y-6358D02*
X-1051Y-6358D01*
X-1051Y-5925D02*
X-382Y-5925D01*
X-382Y-6358D01*
X-1051Y-6358D02*
X-1051Y-5925D01*
X-300Y-5942D02*
X-300Y-6342D01*
X1217Y-6732D02*
X1217Y-7402D01*
X783Y-7402D02*
X783Y-6732D01*
X1217Y-6732D01*
X1217Y-7402D02*
X783Y-7402D01*
X800Y-6650D02*
X1200Y-6650D01*
X1051Y217D02*
X382Y217D01*
X382Y-217D02*
X1051Y-217D01*
X382Y-217D02*
X382Y217D01*
X1051Y217D02*
X1051Y-217D01*
X300Y-200D02*
X300Y200D01*
X551Y-1909D02*
X-118Y-1909D01*
X-118Y-2343D02*
X551Y-2343D01*
X-118Y-2343D02*
X-118Y-1909D01*
X551Y-1909D02*
X551Y-2343D01*
X-200Y-2326D02*
X-200Y-1926D01*
X-118Y-1437D02*
X551Y-1437D01*
X551Y-1870D02*
X-118Y-1870D01*
X-118Y-1437D01*
X551Y-1437D02*
X551Y-1870D01*
X-200Y-1854D02*
X-200Y-1454D01*
X-118Y-965D02*
X551Y-965D01*
X551Y-1398D02*
X-118Y-1398D01*
X-118Y-965D01*
X551Y-965D02*
X551Y-1398D01*
X-200Y-1381D02*
X-200Y-981D01*
X-118Y-492D02*
X551Y-492D01*
X551Y-925D02*
X-118Y-925D01*
X-118Y-492D01*
X551Y-492D02*
X551Y-925D01*
X-200Y-909D02*
X-200Y-509D01*
X-118Y-5689D02*
X551Y-5689D01*
X551Y-6122D02*
X-118Y-6122D01*
X-118Y-5689D01*
X551Y-5689D02*
X551Y-6122D01*
X-200Y-6106D02*
X-200Y-5706D01*
X-118Y-5217D02*
X551Y-5217D01*
X551Y-5650D02*
X-118Y-5650D01*
X-118Y-5217D01*
X551Y-5217D02*
X551Y-5650D01*
X-200Y-5633D02*
X-200Y-5233D01*
X-118Y-4744D02*
X551Y-4744D01*
X551Y-5177D02*
X-118Y-5177D01*
X-118Y-4744D01*
X551Y-4744D02*
X551Y-5177D01*
X-200Y-5161D02*
X-200Y-4761D01*
X-118Y-4272D02*
X551Y-4272D01*
X551Y-4705D02*
X-118Y-4705D01*
X-118Y-4272D01*
X551Y-4272D02*
X551Y-4705D01*
X-200Y-4688D02*
X-200Y-4288D01*
X-118Y-3799D02*
X551Y-3799D01*
X551Y-4232D02*
X-118Y-4232D01*
X-118Y-3799D01*
X551Y-3799D02*
X551Y-4232D01*
X-200Y-4216D02*
X-200Y-3816D01*
X-118Y-3327D02*
X551Y-3327D01*
X551Y-3760D02*
X-118Y-3760D01*
X-118Y-3327D01*
X551Y-3327D02*
X551Y-3760D01*
X-200Y-3743D02*
X-200Y-3343D01*
X1217Y-1260D02*
X1217Y-591D01*
X783Y-591D02*
X783Y-1260D01*
X783Y-591D02*
X1217Y-591D01*
X1217Y-1260D02*
X783Y-1260D01*
X800Y-509D02*
X1200Y-509D01*
X-382Y-217D02*
X-1051Y-217D01*
X-1051Y217D02*
X-382Y217D01*
X-382Y-217D01*
X-1051Y-217D02*
X-1051Y217D01*
X-300Y200D02*
X-300Y-200D01*
X-382Y-689D02*
X-1051Y-689D01*
X-1051Y-256D02*
X-382Y-256D01*
X-382Y-689D01*
X-1051Y-689D02*
X-1051Y-256D01*
X-300Y-272D02*
X-300Y-672D01*
X-382Y-1161D02*
X-1051Y-1161D01*
X-1051Y-728D02*
X-382Y-728D01*
X-382Y-1161D01*
X-1051Y-1161D02*
X-1051Y-728D01*
X-300Y-745D02*
X-300Y-1145D01*
X-382Y-1634D02*
X-1051Y-1634D01*
X-1051Y-1201D02*
X-382Y-1201D01*
X-382Y-1634D01*
X-1051Y-1634D02*
X-1051Y-1201D01*
X-300Y-1217D02*
X-300Y-1617D01*
X-382Y-3051D02*
X-1051Y-3051D01*
X-1051Y-2618D02*
X-382Y-2618D01*
X-382Y-3051D01*
X-1051Y-3051D02*
X-1051Y-2618D01*
X-300Y-2635D02*
X-300Y-3035D01*
X-382Y-3524D02*
X-1051Y-3524D01*
X-1051Y-3091D02*
X-382Y-3091D01*
X-382Y-3524D01*
X-1051Y-3524D02*
X-1051Y-3091D01*
X-300Y-3107D02*
X-300Y-3507D01*
X-382Y-4941D02*
X-1051Y-4941D01*
X-1051Y-4508D02*
X-382Y-4508D01*
X-382Y-4941D01*
X-1051Y-4941D02*
X-1051Y-4508D01*
X-300Y-4524D02*
X-300Y-4924D01*
X-382Y-5413D02*
X-1051Y-5413D01*
X-1051Y-4980D02*
X-382Y-4980D01*
X-382Y-5413D01*
X-1051Y-5413D02*
X-1051Y-4980D01*
X-300Y-4997D02*
X-300Y-5397D01*
D509*
X-8000Y-10000D02*
X-7998Y-10044D01*
X-7992Y-10087D01*
X-7983Y-10129D01*
X-7970Y-10171D01*
X-7953Y-10211D01*
X-7933Y-10250D01*
X-7910Y-10287D01*
X-7883Y-10321D01*
X-7854Y-10354D01*
X-7821Y-10383D01*
X-7787Y-10410D01*
X-7750Y-10433D01*
X-7711Y-10453D01*
X-7671Y-10470D01*
X-7629Y-10483D01*
X-7587Y-10492D01*
X-7544Y-10498D01*
X-7500Y-10500D01*
X-5500Y-10500D01*
X-5456Y-10498D01*
X-5413Y-10492D01*
X-5371Y-10483D01*
X-5329Y-10470D01*
X-5289Y-10453D01*
X-5250Y-10433D01*
X-5213Y-10410D01*
X-5179Y-10383D01*
X-5146Y-10354D01*
X-5117Y-10321D01*
X-5090Y-10287D01*
X-5067Y-10250D01*
X-5047Y-10211D01*
X-5030Y-10171D01*
X-5017Y-10129D01*
X-5008Y-10087D01*
X-5002Y-10044D01*
X-5000Y-10000D01*
X-5000Y-9025D01*
X-4998Y-8990D01*
X-4994Y-8956D01*
X-4986Y-8921D01*
X-4976Y-8888D01*
X-4963Y-8856D01*
X-4946Y-8825D01*
X-4928Y-8796D01*
X-4906Y-8768D01*
X-4883Y-8742D01*
X-4857Y-8719D01*
X-4829Y-8697D01*
X-4800Y-8679D01*
X-4769Y-8662D01*
X-4737Y-8649D01*
X-4704Y-8639D01*
X-4669Y-8631D01*
X-4635Y-8627D01*
X-4600Y-8625D01*
X-4400Y-8625D01*
X-4365Y-8627D01*
X-4331Y-8631D01*
X-4296Y-8639D01*
X-4263Y-8649D01*
X-4231Y-8662D01*
X-4200Y-8679D01*
X-4171Y-8697D01*
X-4143Y-8719D01*
X-4117Y-8742D01*
X-4094Y-8768D01*
X-4072Y-8796D01*
X-4054Y-8825D01*
X-4037Y-8856D01*
X-4024Y-8888D01*
X-4014Y-8921D01*
X-4006Y-8956D01*
X-4002Y-8990D01*
X-4000Y-9025D01*
X-4000Y-10000D01*
X-3998Y-10044D01*
X-3992Y-10087D01*
X-3983Y-10129D01*
X-3970Y-10171D01*
X-3953Y-10211D01*
X-3933Y-10250D01*
X-3910Y-10287D01*
X-3883Y-10321D01*
X-3854Y-10354D01*
X-3821Y-10383D01*
X-3787Y-10410D01*
X-3750Y-10433D01*
X-3711Y-10453D01*
X-3671Y-10470D01*
X-3629Y-10483D01*
X-3587Y-10492D01*
X-3544Y-10498D01*
X-3500Y-10500D01*
X4000Y-10500D01*
X4044Y-10498D01*
X4087Y-10492D01*
X4129Y-10483D01*
X4171Y-10470D01*
X4211Y-10453D01*
X4250Y-10433D01*
X4287Y-10410D01*
X4321Y-10383D01*
X4354Y-10354D01*
X4383Y-10321D01*
X4410Y-10287D01*
X4433Y-10250D01*
X4453Y-10211D01*
X4470Y-10171D01*
X4483Y-10129D01*
X4492Y-10087D01*
X4498Y-10044D01*
X4500Y-10000D01*
X4500Y-9025D01*
X4502Y-8990D01*
X4506Y-8956D01*
X4514Y-8921D01*
X4524Y-8888D01*
X4537Y-8856D01*
X4554Y-8825D01*
X4572Y-8796D01*
X4594Y-8768D01*
X4617Y-8742D01*
X4643Y-8719D01*
X4671Y-8697D01*
X4700Y-8679D01*
X4731Y-8662D01*
X4763Y-8649D01*
X4796Y-8639D01*
X4831Y-8631D01*
X4865Y-8627D01*
X4900Y-8625D01*
X5100Y-8625D01*
X5140Y-8632D01*
X5179Y-8643D01*
X5218Y-8657D01*
X5254Y-8674D01*
X5290Y-8695D01*
X5323Y-8718D01*
X5354Y-8744D01*
X5383Y-8773D01*
X5409Y-8805D01*
X5432Y-8838D01*
X5452Y-8873D01*
X5469Y-8910D01*
X5483Y-8949D01*
X5493Y-8988D01*
X5500Y-9028D01*
X5504Y-9069D01*
X5504Y-9109D01*
X5500Y-9150D01*
X5500Y-10000D01*
X5502Y-10044D01*
X5508Y-10087D01*
X5517Y-10129D01*
X5530Y-10171D01*
X5547Y-10211D01*
X5567Y-10250D01*
X5590Y-10287D01*
X5617Y-10321D01*
X5646Y-10354D01*
X5679Y-10383D01*
X5713Y-10410D01*
X5750Y-10433D01*
X5789Y-10453D01*
X5829Y-10470D01*
X5871Y-10483D01*
X5913Y-10492D01*
X5956Y-10498D01*
X6000Y-10500D01*
X8000Y-10500D01*
X8044Y-10498D01*
X8087Y-10492D01*
X8129Y-10483D01*
X8171Y-10470D01*
X8211Y-10453D01*
X8250Y-10433D01*
X8287Y-10410D01*
X8321Y-10383D01*
X8354Y-10354D01*
X8383Y-10321D01*
X8410Y-10287D01*
X8433Y-10250D01*
X8453Y-10211D01*
X8470Y-10171D01*
X8483Y-10129D01*
X8492Y-10087D01*
X8498Y-10044D01*
X8500Y-10000D01*
X8500Y1500D01*
X8498Y1544D01*
X8492Y1587D01*
X8483Y1629D01*
X8470Y1671D01*
X8453Y1711D01*
X8433Y1750D01*
X8410Y1787D01*
X8383Y1821D01*
X8354Y1854D01*
X8321Y1883D01*
X8287Y1910D01*
X8250Y1933D01*
X8211Y1953D01*
X8171Y1970D01*
X8129Y1983D01*
X8087Y1992D01*
X8044Y1998D01*
X8000Y2000D01*
X6000Y2000D01*
X5956Y1998D01*
X5913Y1992D01*
X5871Y1983D01*
X5829Y1970D01*
X5789Y1953D01*
X5750Y1933D01*
X5713Y1910D01*
X5679Y1883D01*
X5646Y1854D01*
X5617Y1821D01*
X5590Y1787D01*
X5567Y1750D01*
X5547Y1711D01*
X5530Y1671D01*
X5517Y1629D01*
X5508Y1587D01*
X5502Y1544D01*
X5500Y1500D01*
X5500Y525D01*
X5498Y490D01*
X5494Y456D01*
X5486Y421D01*
X5476Y388D01*
X5463Y356D01*
X5446Y325D01*
X5428Y296D01*
X5406Y268D01*
X5383Y242D01*
X5357Y219D01*
X5329Y197D01*
X5300Y179D01*
X5269Y162D01*
X5237Y149D01*
X5204Y139D01*
X5169Y131D01*
X5135Y127D01*
X5100Y125D01*
X4900Y125D01*
X4865Y127D01*
X4831Y131D01*
X4796Y139D01*
X4763Y149D01*
X4731Y162D01*
X4700Y179D01*
X4671Y197D01*
X4643Y219D01*
X4617Y242D01*
X4594Y268D01*
X4572Y296D01*
X4554Y325D01*
X4537Y356D01*
X4524Y388D01*
X4514Y421D01*
X4506Y456D01*
X4502Y490D01*
X4500Y525D01*
X4500Y1500D01*
X4498Y1544D01*
X4492Y1587D01*
X4483Y1629D01*
X4470Y1671D01*
X4453Y1711D01*
X4433Y1750D01*
X4410Y1787D01*
X4383Y1821D01*
X4354Y1854D01*
X4321Y1883D01*
X4287Y1910D01*
X4250Y1933D01*
X4211Y1953D01*
X4171Y1970D01*
X4129Y1983D01*
X4087Y1992D01*
X4044Y1998D01*
X4000Y2000D01*
X-3500Y2000D01*
X-3544Y1998D01*
X-3587Y1992D01*
X-3629Y1983D01*
X-3671Y1970D01*
X-3711Y1953D01*
X-3750Y1933D01*
X-3787Y1910D01*
X-3821Y1883D01*
X-3854Y1854D01*
X-3883Y1821D01*
X-3910Y1787D01*
X-3933Y1750D01*
X-3953Y1711D01*
X-3970Y1671D01*
X-3983Y1629D01*
X-3992Y1587D01*
X-3998Y1544D01*
X-4000Y1500D01*
X-4000Y525D01*
X-4002Y490D01*
X-4006Y456D01*
X-4014Y421D01*
X-4024Y388D01*
X-4037Y356D01*
X-4054Y325D01*
X-4072Y296D01*
X-4094Y268D01*
X-4117Y242D01*
X-4143Y219D01*
X-4171Y197D01*
X-4200Y179D01*
X-4231Y162D01*
X-4263Y149D01*
X-4296Y139D01*
X-4331Y131D01*
X-4365Y127D01*
X-4400Y125D01*
X-4600Y125D01*
X-4635Y127D01*
X-4669Y131D01*
X-4704Y139D01*
X-4737Y149D01*
X-4769Y162D01*
X-4800Y179D01*
X-4829Y197D01*
X-4857Y219D01*
X-4883Y242D01*
X-4906Y268D01*
X-4928Y296D01*
X-4946Y325D01*
X-4963Y356D01*
X-4976Y388D01*
X-4986Y421D01*
X-4994Y456D01*
X-4998Y490D01*
X-5000Y525D01*
X-5000Y1500D01*
X-5002Y1544D01*
X-5008Y1587D01*
X-5017Y1629D01*
X-5030Y1671D01*
X-5047Y1711D01*
X-5067Y1750D01*
X-5090Y1787D01*
X-5117Y1821D01*
X-5146Y1854D01*
X-5179Y1883D01*
X-5213Y1910D01*
X-5250Y1933D01*
X-5289Y1953D01*
X-5329Y1970D01*
X-5371Y1983D01*
X-5413Y1992D01*
X-5456Y1998D01*
X-5500Y2000D01*
X-7500Y2000D01*
X-7544Y1998D01*
X-7587Y1992D01*
X-7629Y1983D01*
X-7671Y1970D01*
X-7711Y1953D01*
X-7750Y1933D01*
X-7787Y1910D01*
X-7821Y1883D01*
X-7854Y1854D01*
X-7883Y1821D01*
X-7910Y1787D01*
X-7933Y1750D01*
X-7953Y1711D01*
X-7970Y1671D01*
X-7983Y1629D01*
X-7992Y1587D01*
X-7998Y1544D01*
X-8000Y1500D01*
X-8000Y-10000D01*
X4500Y-7100D02*
X4502Y-7135D01*
X4506Y-7169D01*
X4514Y-7204D01*
X4524Y-7237D01*
X4537Y-7269D01*
X4554Y-7300D01*
X4572Y-7329D01*
X4594Y-7357D01*
X4617Y-7383D01*
X4643Y-7406D01*
X4671Y-7428D01*
X4700Y-7446D01*
X4731Y-7463D01*
X4763Y-7476D01*
X4796Y-7486D01*
X4831Y-7494D01*
X4865Y-7498D01*
X4900Y-7500D01*
X5100Y-7500D01*
X5135Y-7498D01*
X5169Y-7494D01*
X5204Y-7486D01*
X5237Y-7476D01*
X5269Y-7463D01*
X5300Y-7446D01*
X5329Y-7428D01*
X5357Y-7406D01*
X5383Y-7383D01*
X5406Y-7357D01*
X5428Y-7329D01*
X5446Y-7300D01*
X5463Y-7269D01*
X5476Y-7237D01*
X5486Y-7204D01*
X5494Y-7169D01*
X5498Y-7135D01*
X5500Y-7100D01*
X5500Y-1400D01*
X5498Y-1365D01*
X5494Y-1331D01*
X5486Y-1296D01*
X5476Y-1263D01*
X5463Y-1231D01*
X5446Y-1200D01*
X5428Y-1171D01*
X5406Y-1143D01*
X5383Y-1117D01*
X5357Y-1094D01*
X5329Y-1072D01*
X5300Y-1054D01*
X5269Y-1037D01*
X5237Y-1024D01*
X5204Y-1014D01*
X5169Y-1006D01*
X5135Y-1002D01*
X5100Y-1000D01*
X4900Y-1000D01*
X4865Y-1002D01*
X4831Y-1006D01*
X4796Y-1014D01*
X4763Y-1024D01*
X4731Y-1037D01*
X4700Y-1054D01*
X4671Y-1072D01*
X4643Y-1094D01*
X4617Y-1117D01*
X4594Y-1143D01*
X4572Y-1171D01*
X4554Y-1200D01*
X4537Y-1231D01*
X4524Y-1263D01*
X4514Y-1296D01*
X4506Y-1331D01*
X4502Y-1365D01*
X4500Y-1400D01*
X4500Y-7100D01*
X-5000Y-7100D02*
X-4998Y-7135D01*
X-4994Y-7169D01*
X-4986Y-7204D01*
X-4976Y-7237D01*
X-4963Y-7269D01*
X-4946Y-7300D01*
X-4928Y-7329D01*
X-4906Y-7357D01*
X-4883Y-7383D01*
X-4857Y-7406D01*
X-4829Y-7428D01*
X-4800Y-7446D01*
X-4769Y-7463D01*
X-4737Y-7476D01*
X-4704Y-7486D01*
X-4669Y-7494D01*
X-4635Y-7498D01*
X-4600Y-7500D01*
X-4400Y-7500D01*
X-4365Y-7498D01*
X-4331Y-7494D01*
X-4296Y-7486D01*
X-4263Y-7476D01*
X-4231Y-7463D01*
X-4200Y-7446D01*
X-4171Y-7428D01*
X-4143Y-7406D01*
X-4117Y-7383D01*
X-4094Y-7357D01*
X-4072Y-7329D01*
X-4054Y-7300D01*
X-4037Y-7269D01*
X-4024Y-7237D01*
X-4014Y-7204D01*
X-4006Y-7169D01*
X-4002Y-7135D01*
X-4000Y-7100D01*
X-4000Y-1400D01*
X-4002Y-1365D01*
X-4006Y-1331D01*
X-4014Y-1296D01*
X-4024Y-1263D01*
X-4037Y-1231D01*
X-4054Y-1200D01*
X-4072Y-1171D01*
X-4094Y-1143D01*
X-4117Y-1117D01*
X-4143Y-1094D01*
X-4171Y-1072D01*
X-4200Y-1054D01*
X-4231Y-1037D01*
X-4263Y-1024D01*
X-4296Y-1014D01*
X-4331Y-1006D01*
X-4365Y-1002D01*
X-4400Y-1000D01*
X-4600Y-1000D01*
X-4635Y-1002D01*
X-4669Y-1006D01*
X-4704Y-1014D01*
X-4737Y-1024D01*
X-4769Y-1037D01*
X-4800Y-1054D01*
X-4829Y-1072D01*
X-4857Y-1094D01*
X-4883Y-1117D01*
X-4906Y-1143D01*
X-4928Y-1171D01*
X-4946Y-1200D01*
X-4963Y-1231D01*
X-4976Y-1263D01*
X-4986Y-1296D01*
X-4994Y-1331D01*
X-4998Y-1365D01*
X-5000Y-1400D01*
X-5000Y-7100D01*
X4575Y-8632D02*
X4572Y-8647D01*
X4566Y-8661D01*
X4558Y-8673D01*
X4548Y-8683D01*
X4536Y-8691D01*
X4522Y-8697D01*
X4507Y-8700D01*
X4493Y-8700D01*
X4478Y-8697D01*
X4464Y-8691D01*
X4452Y-8683D01*
X4442Y-8673D01*
X4434Y-8661D01*
X4428Y-8647D01*
X4425Y-8632D01*
X4425Y-8618D01*
X4428Y-8603D01*
X4434Y-8589D01*
X4442Y-8577D01*
X4452Y-8567D01*
X4464Y-8559D01*
X4478Y-8553D01*
X4493Y-8550D01*
X4507Y-8550D01*
X4522Y-8553D01*
X4536Y-8559D01*
X4548Y-8567D01*
X4558Y-8577D01*
X4566Y-8589D01*
X4572Y-8603D01*
X4575Y-8618D01*
X4575Y-8632D01*
X4575Y-7507D02*
X4572Y-7522D01*
X4566Y-7536D01*
X4558Y-7548D01*
X4548Y-7558D01*
X4536Y-7566D01*
X4522Y-7572D01*
X4507Y-7575D01*
X4493Y-7575D01*
X4478Y-7572D01*
X4464Y-7566D01*
X4452Y-7558D01*
X4442Y-7548D01*
X4434Y-7536D01*
X4428Y-7522D01*
X4425Y-7507D01*
X4425Y-7493D01*
X4428Y-7478D01*
X4434Y-7464D01*
X4442Y-7452D01*
X4452Y-7442D01*
X4464Y-7434D01*
X4478Y-7428D01*
X4493Y-7425D01*
X4507Y-7425D01*
X4522Y-7428D01*
X4536Y-7434D01*
X4548Y-7442D01*
X4558Y-7452D01*
X4566Y-7464D01*
X4572Y-7478D01*
X4575Y-7493D01*
X4575Y-7507D01*
X4575Y-7882D02*
X4572Y-7897D01*
X4566Y-7911D01*
X4558Y-7923D01*
X4548Y-7933D01*
X4536Y-7941D01*
X4522Y-7947D01*
X4507Y-7950D01*
X4493Y-7950D01*
X4478Y-7947D01*
X4464Y-7941D01*
X4452Y-7933D01*
X4442Y-7923D01*
X4434Y-7911D01*
X4428Y-7897D01*
X4425Y-7882D01*
X4425Y-7868D01*
X4428Y-7853D01*
X4434Y-7839D01*
X4442Y-7827D01*
X4452Y-7817D01*
X4464Y-7809D01*
X4478Y-7803D01*
X4493Y-7800D01*
X4507Y-7800D01*
X4522Y-7803D01*
X4536Y-7809D01*
X4548Y-7817D01*
X4558Y-7827D01*
X4566Y-7839D01*
X4572Y-7853D01*
X4575Y-7868D01*
X4575Y-7882D01*
X4575Y-8257D02*
X4572Y-8272D01*
X4566Y-8286D01*
X4558Y-8298D01*
X4548Y-8308D01*
X4536Y-8316D01*
X4522Y-8322D01*
X4507Y-8325D01*
X4493Y-8325D01*
X4478Y-8322D01*
X4464Y-8316D01*
X4452Y-8308D01*
X4442Y-8298D01*
X4434Y-8286D01*
X4428Y-8272D01*
X4425Y-8257D01*
X4425Y-8243D01*
X4428Y-8228D01*
X4434Y-8214D01*
X4442Y-8202D01*
X4452Y-8192D01*
X4464Y-8184D01*
X4478Y-8178D01*
X4493Y-8175D01*
X4507Y-8175D01*
X4522Y-8178D01*
X4536Y-8184D01*
X4548Y-8192D01*
X4558Y-8202D01*
X4566Y-8214D01*
X4572Y-8228D01*
X4575Y-8243D01*
X4575Y-8257D01*
X7625Y-9020D02*
X7622Y-9061D01*
X7617Y-9102D01*
X7609Y-9142D01*
X7598Y-9182D01*
X7585Y-9220D01*
X7570Y-9258D01*
X7551Y-9295D01*
X7531Y-9330D01*
X7508Y-9364D01*
X7483Y-9397D01*
X7456Y-9427D01*
X7427Y-9456D01*
X7397Y-9483D01*
X7364Y-9508D01*
X7330Y-9531D01*
X7295Y-9551D01*
X7258Y-9570D01*
X7220Y-9585D01*
X7182Y-9598D01*
X7142Y-9609D01*
X7102Y-9617D01*
X7061Y-9622D01*
X7020Y-9625D01*
X6980Y-9625D01*
X6939Y-9622D01*
X6898Y-9617D01*
X6858Y-9609D01*
X6818Y-9598D01*
X6780Y-9585D01*
X6742Y-9570D01*
X6705Y-9551D01*
X6670Y-9531D01*
X6636Y-9508D01*
X6603Y-9483D01*
X6573Y-9456D01*
X6544Y-9427D01*
X6517Y-9397D01*
X6492Y-9364D01*
X6469Y-9330D01*
X6449Y-9295D01*
X6430Y-9258D01*
X6415Y-9220D01*
X6402Y-9182D01*
X6391Y-9142D01*
X6383Y-9102D01*
X6378Y-9061D01*
X6375Y-9020D01*
X6375Y-8980D01*
X6378Y-8939D01*
X6383Y-8898D01*
X6391Y-8858D01*
X6402Y-8818D01*
X6415Y-8780D01*
X6430Y-8742D01*
X6449Y-8705D01*
X6469Y-8670D01*
X6492Y-8636D01*
X6517Y-8603D01*
X6544Y-8573D01*
X6573Y-8544D01*
X6603Y-8517D01*
X6636Y-8492D01*
X6670Y-8469D01*
X6705Y-8449D01*
X6742Y-8430D01*
X6780Y-8415D01*
X6818Y-8402D01*
X6858Y-8391D01*
X6898Y-8383D01*
X6939Y-8378D01*
X6980Y-8375D01*
X7020Y-8375D01*
X7061Y-8378D01*
X7102Y-8383D01*
X7142Y-8391D01*
X7182Y-8402D01*
X7220Y-8415D01*
X7258Y-8430D01*
X7295Y-8449D01*
X7330Y-8469D01*
X7364Y-8492D01*
X7397Y-8517D01*
X7427Y-8544D01*
X7456Y-8573D01*
X7483Y-8603D01*
X7508Y-8636D01*
X7531Y-8670D01*
X7551Y-8705D01*
X7570Y-8742D01*
X7585Y-8780D01*
X7598Y-8818D01*
X7609Y-8858D01*
X7617Y-8898D01*
X7622Y-8939D01*
X7625Y-8980D01*
X7625Y-9020D01*
X644Y783D02*
X641Y749D01*
X635Y715D01*
X626Y681D01*
X614Y649D01*
X600Y618D01*
X582Y588D01*
X563Y560D01*
X541Y534D01*
X516Y509D01*
X490Y487D01*
X462Y468D01*
X432Y450D01*
X401Y436D01*
X369Y424D01*
X335Y415D01*
X301Y409D01*
X267Y406D01*
X233Y406D01*
X199Y409D01*
X165Y415D01*
X131Y424D01*
X99Y436D01*
X68Y450D01*
X38Y468D01*
X10Y487D01*
X-16Y509D01*
X-41Y534D01*
X-63Y560D01*
X-82Y588D01*
X-100Y618D01*
X-114Y649D01*
X-126Y681D01*
X-135Y715D01*
X-141Y749D01*
X-144Y783D01*
X-144Y817D01*
X-141Y851D01*
X-135Y885D01*
X-126Y919D01*
X-114Y951D01*
X-100Y982D01*
X-82Y1012D01*
X-63Y1040D01*
X-41Y1066D01*
X-16Y1091D01*
X10Y1113D01*
X38Y1132D01*
X68Y1150D01*
X99Y1164D01*
X131Y1176D01*
X165Y1185D01*
X199Y1191D01*
X233Y1194D01*
X267Y1194D01*
X301Y1191D01*
X335Y1185D01*
X369Y1176D01*
X401Y1164D01*
X432Y1150D01*
X462Y1132D01*
X490Y1113D01*
X516Y1091D01*
X541Y1066D01*
X563Y1040D01*
X582Y1012D01*
X600Y982D01*
X614Y951D01*
X626Y919D01*
X635Y885D01*
X641Y851D01*
X644Y817D01*
X644Y783D01*
X4575Y-1007D02*
X4572Y-1022D01*
X4566Y-1036D01*
X4558Y-1048D01*
X4548Y-1058D01*
X4536Y-1066D01*
X4522Y-1072D01*
X4507Y-1075D01*
X4493Y-1075D01*
X4478Y-1072D01*
X4464Y-1066D01*
X4452Y-1058D01*
X4442Y-1048D01*
X4434Y-1036D01*
X4428Y-1022D01*
X4425Y-1007D01*
X4425Y-993D01*
X4428Y-978D01*
X4434Y-964D01*
X4442Y-952D01*
X4452Y-942D01*
X4464Y-934D01*
X4478Y-928D01*
X4493Y-925D01*
X4507Y-925D01*
X4522Y-928D01*
X4536Y-934D01*
X4548Y-942D01*
X4558Y-952D01*
X4566Y-964D01*
X4572Y-978D01*
X4575Y-993D01*
X4575Y-1007D01*
X4575Y118D02*
X4572Y103D01*
X4566Y89D01*
X4558Y77D01*
X4548Y67D01*
X4536Y59D01*
X4522Y53D01*
X4507Y50D01*
X4493Y50D01*
X4478Y53D01*
X4464Y59D01*
X4452Y67D01*
X4442Y77D01*
X4434Y89D01*
X4428Y103D01*
X4425Y118D01*
X4425Y132D01*
X4428Y147D01*
X4434Y161D01*
X4442Y173D01*
X4452Y183D01*
X4464Y191D01*
X4478Y197D01*
X4493Y200D01*
X4507Y200D01*
X4522Y197D01*
X4536Y191D01*
X4548Y183D01*
X4558Y173D01*
X4566Y161D01*
X4572Y147D01*
X4575Y132D01*
X4575Y118D01*
X4575Y-257D02*
X4572Y-272D01*
X4566Y-286D01*
X4558Y-298D01*
X4548Y-308D01*
X4536Y-316D01*
X4522Y-322D01*
X4507Y-325D01*
X4493Y-325D01*
X4478Y-322D01*
X4464Y-316D01*
X4452Y-308D01*
X4442Y-298D01*
X4434Y-286D01*
X4428Y-272D01*
X4425Y-257D01*
X4425Y-243D01*
X4428Y-228D01*
X4434Y-214D01*
X4442Y-202D01*
X4452Y-192D01*
X4464Y-184D01*
X4478Y-178D01*
X4493Y-175D01*
X4507Y-175D01*
X4522Y-178D01*
X4536Y-184D01*
X4548Y-192D01*
X4558Y-202D01*
X4566Y-214D01*
X4572Y-228D01*
X4575Y-243D01*
X4575Y-257D01*
X4575Y-632D02*
X4572Y-647D01*
X4566Y-661D01*
X4558Y-673D01*
X4548Y-683D01*
X4536Y-691D01*
X4522Y-697D01*
X4507Y-700D01*
X4493Y-700D01*
X4478Y-697D01*
X4464Y-691D01*
X4452Y-683D01*
X4442Y-673D01*
X4434Y-661D01*
X4428Y-647D01*
X4425Y-632D01*
X4425Y-618D01*
X4428Y-603D01*
X4434Y-589D01*
X4442Y-577D01*
X4452Y-567D01*
X4464Y-559D01*
X4478Y-553D01*
X4493Y-550D01*
X4507Y-550D01*
X4522Y-553D01*
X4536Y-559D01*
X4548Y-567D01*
X4558Y-577D01*
X4566Y-589D01*
X4572Y-603D01*
X4575Y-618D01*
X4575Y-632D01*
X-3925Y-1007D02*
X-3928Y-1022D01*
X-3934Y-1036D01*
X-3942Y-1048D01*
X-3952Y-1058D01*
X-3964Y-1066D01*
X-3978Y-1072D01*
X-3993Y-1075D01*
X-4007Y-1075D01*
X-4022Y-1072D01*
X-4036Y-1066D01*
X-4048Y-1058D01*
X-4058Y-1048D01*
X-4066Y-1036D01*
X-4072Y-1022D01*
X-4075Y-1007D01*
X-4075Y-993D01*
X-4072Y-978D01*
X-4066Y-964D01*
X-4058Y-952D01*
X-4048Y-942D01*
X-4036Y-934D01*
X-4022Y-928D01*
X-4007Y-925D01*
X-3993Y-925D01*
X-3978Y-928D01*
X-3964Y-934D01*
X-3952Y-942D01*
X-3942Y-952D01*
X-3934Y-964D01*
X-3928Y-978D01*
X-3925Y-993D01*
X-3925Y-1007D01*
X-3925Y118D02*
X-3928Y103D01*
X-3934Y89D01*
X-3942Y77D01*
X-3952Y67D01*
X-3964Y59D01*
X-3978Y53D01*
X-3993Y50D01*
X-4007Y50D01*
X-4022Y53D01*
X-4036Y59D01*
X-4048Y67D01*
X-4058Y77D01*
X-4066Y89D01*
X-4072Y103D01*
X-4075Y118D01*
X-4075Y132D01*
X-4072Y147D01*
X-4066Y161D01*
X-4058Y173D01*
X-4048Y183D01*
X-4036Y191D01*
X-4022Y197D01*
X-4007Y200D01*
X-3993Y200D01*
X-3978Y197D01*
X-3964Y191D01*
X-3952Y183D01*
X-3942Y173D01*
X-3934Y161D01*
X-3928Y147D01*
X-3925Y132D01*
X-3925Y118D01*
X-3925Y-257D02*
X-3928Y-272D01*
X-3934Y-286D01*
X-3942Y-298D01*
X-3952Y-308D01*
X-3964Y-316D01*
X-3978Y-322D01*
X-3993Y-325D01*
X-4007Y-325D01*
X-4022Y-322D01*
X-4036Y-316D01*
X-4048Y-308D01*
X-4058Y-298D01*
X-4066Y-286D01*
X-4072Y-272D01*
X-4075Y-257D01*
X-4075Y-243D01*
X-4072Y-228D01*
X-4066Y-214D01*
X-4058Y-202D01*
X-4048Y-192D01*
X-4036Y-184D01*
X-4022Y-178D01*
X-4007Y-175D01*
X-3993Y-175D01*
X-3978Y-178D01*
X-3964Y-184D01*
X-3952Y-192D01*
X-3942Y-202D01*
X-3934Y-214D01*
X-3928Y-228D01*
X-3925Y-243D01*
X-3925Y-257D01*
X-3925Y-632D02*
X-3928Y-647D01*
X-3934Y-661D01*
X-3942Y-673D01*
X-3952Y-683D01*
X-3964Y-691D01*
X-3978Y-697D01*
X-3993Y-700D01*
X-4007Y-700D01*
X-4022Y-697D01*
X-4036Y-691D01*
X-4048Y-683D01*
X-4058Y-673D01*
X-4066Y-661D01*
X-4072Y-647D01*
X-4075Y-632D01*
X-4075Y-618D01*
X-4072Y-603D01*
X-4066Y-589D01*
X-4058Y-577D01*
X-4048Y-567D01*
X-4036Y-559D01*
X-4022Y-553D01*
X-4007Y-550D01*
X-3993Y-550D01*
X-3978Y-553D01*
X-3964Y-559D01*
X-3952Y-567D01*
X-3942Y-577D01*
X-3934Y-589D01*
X-3928Y-603D01*
X-3925Y-618D01*
X-3925Y-632D01*
X-3925Y-8632D02*
X-3928Y-8647D01*
X-3934Y-8661D01*
X-3942Y-8673D01*
X-3952Y-8683D01*
X-3964Y-8691D01*
X-3978Y-8697D01*
X-3993Y-8700D01*
X-4007Y-8700D01*
X-4022Y-8697D01*
X-4036Y-8691D01*
X-4048Y-8683D01*
X-4058Y-8673D01*
X-4066Y-8661D01*
X-4072Y-8647D01*
X-4075Y-8632D01*
X-4075Y-8618D01*
X-4072Y-8603D01*
X-4066Y-8589D01*
X-4058Y-8577D01*
X-4048Y-8567D01*
X-4036Y-8559D01*
X-4022Y-8553D01*
X-4007Y-8550D01*
X-3993Y-8550D01*
X-3978Y-8553D01*
X-3964Y-8559D01*
X-3952Y-8567D01*
X-3942Y-8577D01*
X-3934Y-8589D01*
X-3928Y-8603D01*
X-3925Y-8618D01*
X-3925Y-8632D01*
X-3925Y-7507D02*
X-3928Y-7522D01*
X-3934Y-7536D01*
X-3942Y-7548D01*
X-3952Y-7558D01*
X-3964Y-7566D01*
X-3978Y-7572D01*
X-3993Y-7575D01*
X-4007Y-7575D01*
X-4022Y-7572D01*
X-4036Y-7566D01*
X-4048Y-7558D01*
X-4058Y-7548D01*
X-4066Y-7536D01*
X-4072Y-7522D01*
X-4075Y-7507D01*
X-4075Y-7493D01*
X-4072Y-7478D01*
X-4066Y-7464D01*
X-4058Y-7452D01*
X-4048Y-7442D01*
X-4036Y-7434D01*
X-4022Y-7428D01*
X-4007Y-7425D01*
X-3993Y-7425D01*
X-3978Y-7428D01*
X-3964Y-7434D01*
X-3952Y-7442D01*
X-3942Y-7452D01*
X-3934Y-7464D01*
X-3928Y-7478D01*
X-3925Y-7493D01*
X-3925Y-7507D01*
X-3925Y-7882D02*
X-3928Y-7897D01*
X-3934Y-7911D01*
X-3942Y-7923D01*
X-3952Y-7933D01*
X-3964Y-7941D01*
X-3978Y-7947D01*
X-3993Y-7950D01*
X-4007Y-7950D01*
X-4022Y-7947D01*
X-4036Y-7941D01*
X-4048Y-7933D01*
X-4058Y-7923D01*
X-4066Y-7911D01*
X-4072Y-7897D01*
X-4075Y-7882D01*
X-4075Y-7868D01*
X-4072Y-7853D01*
X-4066Y-7839D01*
X-4058Y-7827D01*
X-4048Y-7817D01*
X-4036Y-7809D01*
X-4022Y-7803D01*
X-4007Y-7800D01*
X-3993Y-7800D01*
X-3978Y-7803D01*
X-3964Y-7809D01*
X-3952Y-7817D01*
X-3942Y-7827D01*
X-3934Y-7839D01*
X-3928Y-7853D01*
X-3925Y-7868D01*
X-3925Y-7882D01*
X-3925Y-8257D02*
X-3928Y-8272D01*
X-3934Y-8286D01*
X-3942Y-8298D01*
X-3952Y-8308D01*
X-3964Y-8316D01*
X-3978Y-8322D01*
X-3993Y-8325D01*
X-4007Y-8325D01*
X-4022Y-8322D01*
X-4036Y-8316D01*
X-4048Y-8308D01*
X-4058Y-8298D01*
X-4066Y-8286D01*
X-4072Y-8272D01*
X-4075Y-8257D01*
X-4075Y-8243D01*
X-4072Y-8228D01*
X-4066Y-8214D01*
X-4058Y-8202D01*
X-4048Y-8192D01*
X-4036Y-8184D01*
X-4022Y-8178D01*
X-4007Y-8175D01*
X-3993Y-8175D01*
X-3978Y-8178D01*
X-3964Y-8184D01*
X-3952Y-8192D01*
X-3942Y-8202D01*
X-3934Y-8214D01*
X-3928Y-8228D01*
X-3925Y-8243D01*
X-3925Y-8257D01*
X7625Y480D02*
X7622Y439D01*
X7617Y398D01*
X7609Y358D01*
X7598Y318D01*
X7585Y280D01*
X7570Y242D01*
X7551Y205D01*
X7531Y170D01*
X7508Y136D01*
X7483Y103D01*
X7456Y73D01*
X7427Y44D01*
X7397Y17D01*
X7364Y-8D01*
X7330Y-31D01*
X7295Y-51D01*
X7258Y-70D01*
X7220Y-85D01*
X7182Y-98D01*
X7142Y-109D01*
X7102Y-117D01*
X7061Y-122D01*
X7020Y-125D01*
X6980Y-125D01*
X6939Y-122D01*
X6898Y-117D01*
X6858Y-109D01*
X6818Y-98D01*
X6780Y-85D01*
X6742Y-70D01*
X6705Y-51D01*
X6670Y-31D01*
X6636Y-8D01*
X6603Y17D01*
X6573Y44D01*
X6544Y73D01*
X6517Y103D01*
X6492Y136D01*
X6469Y170D01*
X6449Y205D01*
X6430Y242D01*
X6415Y280D01*
X6402Y318D01*
X6391Y358D01*
X6383Y398D01*
X6378Y439D01*
X6375Y480D01*
X6375Y520D01*
X6378Y561D01*
X6383Y602D01*
X6391Y642D01*
X6402Y682D01*
X6415Y720D01*
X6430Y758D01*
X6449Y795D01*
X6469Y830D01*
X6492Y864D01*
X6517Y897D01*
X6544Y927D01*
X6573Y956D01*
X6603Y983D01*
X6636Y1008D01*
X6670Y1031D01*
X6705Y1051D01*
X6742Y1070D01*
X6780Y1085D01*
X6818Y1098D01*
X6858Y1109D01*
X6898Y1117D01*
X6939Y1122D01*
X6980Y1125D01*
X7020Y1125D01*
X7061Y1122D01*
X7102Y1117D01*
X7142Y1109D01*
X7182Y1098D01*
X7220Y1085D01*
X7258Y1070D01*
X7295Y1051D01*
X7330Y1031D01*
X7364Y1008D01*
X7397Y983D01*
X7427Y956D01*
X7456Y927D01*
X7483Y897D01*
X7508Y864D01*
X7531Y830D01*
X7551Y795D01*
X7570Y758D01*
X7585Y720D01*
X7598Y682D01*
X7609Y642D01*
X7617Y602D01*
X7622Y561D01*
X7625Y520D01*
X7625Y480D01*
X-5875Y480D02*
X-5878Y439D01*
X-5883Y398D01*
X-5891Y358D01*
X-5902Y318D01*
X-5915Y280D01*
X-5930Y242D01*
X-5949Y205D01*
X-5969Y170D01*
X-5992Y136D01*
X-6017Y103D01*
X-6044Y73D01*
X-6073Y44D01*
X-6103Y17D01*
X-6136Y-8D01*
X-6170Y-31D01*
X-6205Y-51D01*
X-6242Y-70D01*
X-6280Y-85D01*
X-6318Y-98D01*
X-6358Y-109D01*
X-6398Y-117D01*
X-6439Y-122D01*
X-6480Y-125D01*
X-6520Y-125D01*
X-6561Y-122D01*
X-6602Y-117D01*
X-6642Y-109D01*
X-6682Y-98D01*
X-6720Y-85D01*
X-6758Y-70D01*
X-6795Y-51D01*
X-6830Y-31D01*
X-6864Y-8D01*
X-6897Y17D01*
X-6927Y44D01*
X-6956Y73D01*
X-6983Y103D01*
X-7008Y136D01*
X-7031Y170D01*
X-7051Y205D01*
X-7070Y242D01*
X-7085Y280D01*
X-7098Y318D01*
X-7109Y358D01*
X-7117Y398D01*
X-7122Y439D01*
X-7125Y480D01*
X-7125Y520D01*
X-7122Y561D01*
X-7117Y602D01*
X-7109Y642D01*
X-7098Y682D01*
X-7085Y720D01*
X-7070Y758D01*
X-7051Y795D01*
X-7031Y830D01*
X-7008Y864D01*
X-6983Y897D01*
X-6956Y927D01*
X-6927Y956D01*
X-6897Y983D01*
X-6864Y1008D01*
X-6830Y1031D01*
X-6795Y1051D01*
X-6758Y1070D01*
X-6720Y1085D01*
X-6682Y1098D01*
X-6642Y1109D01*
X-6602Y1117D01*
X-6561Y1122D01*
X-6520Y1125D01*
X-6480Y1125D01*
X-6439Y1122D01*
X-6398Y1117D01*
X-6358Y1109D01*
X-6318Y1098D01*
X-6280Y1085D01*
X-6242Y1070D01*
X-6205Y1051D01*
X-6170Y1031D01*
X-6136Y1008D01*
X-6103Y983D01*
X-6073Y956D01*
X-6044Y927D01*
X-6017Y897D01*
X-5992Y864D01*
X-5969Y830D01*
X-5949Y795D01*
X-5930Y758D01*
X-5915Y720D01*
X-5902Y682D01*
X-5891Y642D01*
X-5883Y602D01*
X-5878Y561D01*
X-5875Y520D01*
X-5875Y480D01*
X-5875Y-9020D02*
X-5878Y-9061D01*
X-5883Y-9102D01*
X-5891Y-9142D01*
X-5902Y-9182D01*
X-5915Y-9220D01*
X-5930Y-9258D01*
X-5949Y-9295D01*
X-5969Y-9330D01*
X-5992Y-9364D01*
X-6017Y-9397D01*
X-6044Y-9427D01*
X-6073Y-9456D01*
X-6103Y-9483D01*
X-6136Y-9508D01*
X-6170Y-9531D01*
X-6205Y-9551D01*
X-6242Y-9570D01*
X-6280Y-9585D01*
X-6318Y-9598D01*
X-6358Y-9609D01*
X-6398Y-9617D01*
X-6439Y-9622D01*
X-6480Y-9625D01*
X-6520Y-9625D01*
X-6561Y-9622D01*
X-6602Y-9617D01*
X-6642Y-9609D01*
X-6682Y-9598D01*
X-6720Y-9585D01*
X-6758Y-9570D01*
X-6795Y-9551D01*
X-6830Y-9531D01*
X-6864Y-9508D01*
X-6897Y-9483D01*
X-6927Y-9456D01*
X-6956Y-9427D01*
X-6983Y-9397D01*
X-7008Y-9364D01*
X-7031Y-9330D01*
X-7051Y-9295D01*
X-7070Y-9258D01*
X-7085Y-9220D01*
X-7098Y-9182D01*
X-7109Y-9142D01*
X-7117Y-9102D01*
X-7122Y-9061D01*
X-7125Y-9020D01*
X-7125Y-8980D01*
X-7122Y-8939D01*
X-7117Y-8898D01*
X-7109Y-8858D01*
X-7098Y-8818D01*
X-7085Y-8780D01*
X-7070Y-8742D01*
X-7051Y-8705D01*
X-7031Y-8670D01*
X-7008Y-8636D01*
X-6983Y-8603D01*
X-6956Y-8573D01*
X-6927Y-8544D01*
X-6897Y-8517D01*
X-6864Y-8492D01*
X-6830Y-8469D01*
X-6795Y-8449D01*
X-6758Y-8430D01*
X-6720Y-8415D01*
X-6682Y-8402D01*
X-6642Y-8391D01*
X-6602Y-8383D01*
X-6561Y-8378D01*
X-6520Y-8375D01*
X-6480Y-8375D01*
X-6439Y-8378D01*
X-6398Y-8383D01*
X-6358Y-8391D01*
X-6318Y-8402D01*
X-6280Y-8415D01*
X-6242Y-8430D01*
X-6205Y-8449D01*
X-6170Y-8469D01*
X-6136Y-8492D01*
X-6103Y-8517D01*
X-6073Y-8544D01*
X-6044Y-8573D01*
X-6017Y-8603D01*
X-5992Y-8636D01*
X-5969Y-8670D01*
X-5949Y-8705D01*
X-5930Y-8742D01*
X-5915Y-8780D01*
X-5902Y-8818D01*
X-5891Y-8858D01*
X-5883Y-8898D01*
X-5878Y-8939D01*
X-5875Y-8980D01*
X-5875Y-9020D01*
M02*
