G04 EAGLE Gerber RS-274X export*
G75*
%MOIN*%
%FSLAX34Y34*%
%LPD*%
%INBottom Copper*%
%IPPOS*%
%AMOC8*
5,1,8,0,0,1.08239X$1,22.5*%
G01*
%ADD10C,0.059055*%
%ADD11C,0.079118*%
%ADD12C,0.054000*%
%ADD13R,0.050000X0.090157*%
%ADD14C,0.070866*%
%ADD15C,0.024811*%
%ADD16C,0.007000*%
%ADD17C,0.010000*%

G36*
X24409Y-562D02*
X24409Y-562D01*
X24411Y-561D01*
X24413Y-562D01*
X24531Y-554D01*
X24538Y-552D01*
X24540Y-552D01*
X24769Y-491D01*
X24780Y-486D01*
X24781Y-486D01*
X24986Y-368D01*
X24996Y-360D01*
X25163Y-193D01*
X25171Y-183D01*
X25289Y22D01*
X25294Y34D01*
X25355Y263D01*
X25356Y268D01*
X25357Y271D01*
X25357Y272D01*
X25365Y390D01*
X25365Y392D01*
X25365Y394D01*
X25365Y1955D01*
X25364Y1960D01*
X25364Y1965D01*
X25363Y1966D01*
X25363Y1967D01*
X25361Y1972D01*
X25360Y1977D01*
X25359Y1978D01*
X25359Y1979D01*
X25356Y1983D01*
X25353Y1987D01*
X25352Y1988D01*
X25351Y1989D01*
X25347Y1992D01*
X25344Y1995D01*
X25343Y1996D01*
X25342Y1997D01*
X25337Y1999D01*
X25333Y2001D01*
X25332Y2001D01*
X25330Y2002D01*
X25318Y2004D01*
X25317Y2004D01*
X25316Y2004D01*
X25065Y2004D01*
X25044Y2025D01*
X25044Y4335D01*
X25065Y4356D01*
X25316Y4356D01*
X25320Y4356D01*
X25325Y4357D01*
X25327Y4357D01*
X25328Y4357D01*
X25332Y4359D01*
X25337Y4361D01*
X25338Y4361D01*
X25339Y4362D01*
X25343Y4365D01*
X25348Y4368D01*
X25348Y4369D01*
X25349Y4369D01*
X25353Y4373D01*
X25356Y4377D01*
X25356Y4378D01*
X25357Y4379D01*
X25359Y4383D01*
X25362Y4388D01*
X25362Y4389D01*
X25363Y4390D01*
X25365Y4402D01*
X25365Y4404D01*
X25365Y4405D01*
X25365Y16955D01*
X25364Y16960D01*
X25364Y16965D01*
X25363Y16966D01*
X25363Y16967D01*
X25361Y16972D01*
X25360Y16977D01*
X25359Y16978D01*
X25359Y16979D01*
X25356Y16983D01*
X25353Y16987D01*
X25352Y16988D01*
X25351Y16989D01*
X25347Y16992D01*
X25344Y16995D01*
X25343Y16996D01*
X25342Y16997D01*
X25337Y16999D01*
X25333Y17001D01*
X25332Y17001D01*
X25330Y17002D01*
X25318Y17004D01*
X25317Y17004D01*
X25316Y17004D01*
X25065Y17004D01*
X25044Y17025D01*
X25044Y19215D01*
X25065Y19236D01*
X25316Y19236D01*
X25320Y19236D01*
X25325Y19237D01*
X25327Y19237D01*
X25328Y19237D01*
X25332Y19239D01*
X25337Y19241D01*
X25338Y19241D01*
X25339Y19242D01*
X25343Y19245D01*
X25348Y19248D01*
X25348Y19249D01*
X25349Y19249D01*
X25353Y19253D01*
X25356Y19257D01*
X25356Y19258D01*
X25357Y19259D01*
X25359Y19263D01*
X25362Y19268D01*
X25362Y19269D01*
X25363Y19270D01*
X25365Y19282D01*
X25365Y19283D01*
X25365Y19284D01*
X25365Y19285D01*
X25365Y20866D01*
X25365Y20868D01*
X25365Y20869D01*
X25357Y20988D01*
X25356Y20995D01*
X25355Y20997D01*
X25294Y21226D01*
X25289Y21237D01*
X25289Y21238D01*
X25171Y21442D01*
X25163Y21452D01*
X25163Y21453D01*
X24996Y21620D01*
X24986Y21627D01*
X24986Y21628D01*
X24781Y21746D01*
X24769Y21751D01*
X24540Y21812D01*
X24533Y21813D01*
X24531Y21814D01*
X24413Y21821D01*
X24411Y21821D01*
X24409Y21821D01*
X1181Y21821D01*
X1179Y21821D01*
X1178Y21821D01*
X1060Y21814D01*
X1053Y21812D01*
X1050Y21812D01*
X822Y21751D01*
X810Y21746D01*
X605Y21628D01*
X595Y21620D01*
X427Y21453D01*
X420Y21443D01*
X420Y21442D01*
X301Y21238D01*
X297Y21226D01*
X296Y21226D01*
X235Y20997D01*
X234Y20990D01*
X234Y20988D01*
X226Y20869D01*
X226Y20867D01*
X226Y20866D01*
X226Y19285D01*
X226Y19280D01*
X227Y19275D01*
X227Y19274D01*
X227Y19273D01*
X229Y19268D01*
X231Y19263D01*
X231Y19262D01*
X232Y19261D01*
X235Y19257D01*
X238Y19253D01*
X239Y19252D01*
X239Y19251D01*
X243Y19248D01*
X247Y19245D01*
X248Y19244D01*
X249Y19243D01*
X253Y19241D01*
X258Y19239D01*
X259Y19239D01*
X260Y19238D01*
X272Y19236D01*
X274Y19236D01*
X275Y19236D01*
X495Y19236D01*
X516Y19215D01*
X516Y17025D01*
X495Y17004D01*
X275Y17004D01*
X270Y17004D01*
X265Y17003D01*
X264Y17003D01*
X263Y17003D01*
X258Y17001D01*
X253Y16999D01*
X252Y16999D01*
X251Y16998D01*
X247Y16995D01*
X243Y16992D01*
X242Y16991D01*
X241Y16991D01*
X238Y16987D01*
X235Y16983D01*
X234Y16982D01*
X233Y16981D01*
X231Y16977D01*
X229Y16972D01*
X229Y16971D01*
X228Y16970D01*
X226Y16958D01*
X226Y16956D01*
X226Y16955D01*
X226Y4285D01*
X226Y4280D01*
X227Y4275D01*
X227Y4274D01*
X227Y4273D01*
X229Y4268D01*
X231Y4263D01*
X231Y4262D01*
X232Y4261D01*
X235Y4257D01*
X238Y4253D01*
X239Y4252D01*
X239Y4251D01*
X243Y4248D01*
X247Y4245D01*
X248Y4244D01*
X249Y4243D01*
X253Y4241D01*
X258Y4239D01*
X259Y4239D01*
X260Y4238D01*
X272Y4236D01*
X274Y4236D01*
X275Y4236D01*
X495Y4236D01*
X516Y4215D01*
X516Y2025D01*
X495Y2004D01*
X275Y2004D01*
X270Y2004D01*
X265Y2003D01*
X264Y2003D01*
X263Y2003D01*
X258Y2001D01*
X253Y1999D01*
X252Y1999D01*
X251Y1998D01*
X247Y1995D01*
X243Y1992D01*
X242Y1991D01*
X241Y1991D01*
X238Y1987D01*
X235Y1983D01*
X234Y1982D01*
X233Y1981D01*
X231Y1977D01*
X229Y1972D01*
X229Y1971D01*
X228Y1970D01*
X226Y1958D01*
X226Y1956D01*
X226Y1955D01*
X226Y394D01*
X226Y392D01*
X226Y390D01*
X234Y272D01*
X234Y269D01*
X234Y266D01*
X235Y264D01*
X235Y263D01*
X296Y34D01*
X301Y23D01*
X301Y22D01*
X420Y-183D01*
X427Y-192D01*
X427Y-193D01*
X595Y-360D01*
X605Y-368D01*
X810Y-486D01*
X821Y-491D01*
X822Y-491D01*
X1050Y-552D01*
X1057Y-553D01*
X1060Y-554D01*
X1178Y-562D01*
X1180Y-561D01*
X1181Y-562D01*
X24409Y-562D01*
X24409Y-562D01*
G37*
%LPC*%
G36*
X8198Y1495D02*
X8198Y1495D01*
X8196Y1496D01*
X8195Y1496D01*
X8193Y1497D01*
X8180Y1499D01*
X8179Y1499D01*
X7690Y1499D01*
X7619Y1570D01*
X7619Y1809D01*
X7619Y1814D01*
X7618Y1819D01*
X7618Y1820D01*
X7618Y1821D01*
X7616Y1826D01*
X7614Y1831D01*
X7614Y1832D01*
X7613Y1833D01*
X7610Y1837D01*
X7607Y1841D01*
X7606Y1842D01*
X7606Y1843D01*
X7602Y1846D01*
X7598Y1849D01*
X7597Y1850D01*
X7596Y1851D01*
X7592Y1853D01*
X7587Y1855D01*
X7586Y1855D01*
X7585Y1856D01*
X7573Y1858D01*
X7571Y1858D01*
X7570Y1858D01*
X7003Y1858D01*
X6964Y1897D01*
X6964Y2853D01*
X7003Y2891D01*
X7557Y2891D01*
X7596Y2853D01*
X7596Y2545D01*
X7596Y2540D01*
X7597Y2534D01*
X7597Y2533D01*
X7599Y2528D01*
X7601Y2523D01*
X7602Y2522D01*
X7605Y2517D01*
X7608Y2512D01*
X7609Y2512D01*
X7614Y2508D01*
X7618Y2504D01*
X7619Y2504D01*
X7624Y2501D01*
X7629Y2499D01*
X7630Y2499D01*
X7630Y2498D01*
X7636Y2497D01*
X7641Y2496D01*
X7642Y2496D01*
X7648Y2497D01*
X7654Y2497D01*
X7655Y2497D01*
X7660Y2499D01*
X7665Y2501D01*
X7666Y2501D01*
X7667Y2501D01*
X7677Y2508D01*
X7679Y2510D01*
X7680Y2511D01*
X7690Y2521D01*
X7915Y2521D01*
X7920Y2521D01*
X7925Y2522D01*
X7926Y2522D01*
X7927Y2522D01*
X7932Y2524D01*
X7937Y2526D01*
X7938Y2526D01*
X7939Y2527D01*
X7943Y2530D01*
X7947Y2533D01*
X7948Y2534D01*
X7949Y2534D01*
X7952Y2538D01*
X7955Y2542D01*
X7956Y2543D01*
X7957Y2544D01*
X7959Y2548D01*
X7961Y2553D01*
X7961Y2554D01*
X7962Y2555D01*
X7964Y2567D01*
X7964Y2569D01*
X7964Y2570D01*
X7964Y2853D01*
X8003Y2891D01*
X8557Y2891D01*
X8596Y2853D01*
X8596Y2570D01*
X8596Y2565D01*
X8597Y2560D01*
X8597Y2559D01*
X8597Y2558D01*
X8599Y2553D01*
X8601Y2548D01*
X8601Y2547D01*
X8602Y2546D01*
X8605Y2542D01*
X8608Y2538D01*
X8609Y2537D01*
X8609Y2536D01*
X8613Y2533D01*
X8617Y2530D01*
X8618Y2529D01*
X8619Y2528D01*
X8623Y2526D01*
X8628Y2524D01*
X8629Y2524D01*
X8630Y2523D01*
X8642Y2521D01*
X8644Y2521D01*
X8645Y2521D01*
X8870Y2521D01*
X8880Y2511D01*
X8885Y2507D01*
X8889Y2504D01*
X8889Y2503D01*
X8890Y2503D01*
X8895Y2501D01*
X8900Y2498D01*
X8901Y2498D01*
X8907Y2497D01*
X8912Y2496D01*
X8913Y2496D01*
X8914Y2496D01*
X8919Y2497D01*
X8925Y2497D01*
X8926Y2497D01*
X8931Y2499D01*
X8937Y2501D01*
X8938Y2502D01*
X8942Y2505D01*
X8947Y2508D01*
X8948Y2509D01*
X8952Y2513D01*
X8955Y2517D01*
X8956Y2518D01*
X8959Y2523D01*
X8961Y2528D01*
X8961Y2529D01*
X8962Y2529D01*
X8964Y2542D01*
X8964Y2544D01*
X8964Y2545D01*
X8964Y2853D01*
X9003Y2891D01*
X9557Y2891D01*
X9596Y2853D01*
X9596Y2505D01*
X9596Y2500D01*
X9597Y2494D01*
X9597Y2493D01*
X9599Y2488D01*
X9601Y2483D01*
X9602Y2482D01*
X9605Y2477D01*
X9608Y2472D01*
X9609Y2472D01*
X9614Y2468D01*
X9618Y2464D01*
X9619Y2464D01*
X9624Y2461D01*
X9629Y2459D01*
X9630Y2459D01*
X9630Y2458D01*
X9636Y2457D01*
X9641Y2456D01*
X9642Y2456D01*
X9648Y2457D01*
X9654Y2457D01*
X9655Y2457D01*
X9660Y2459D01*
X9665Y2461D01*
X9666Y2461D01*
X9667Y2461D01*
X9677Y2468D01*
X9679Y2470D01*
X9680Y2471D01*
X9730Y2521D01*
X9915Y2521D01*
X9920Y2521D01*
X9925Y2522D01*
X9926Y2522D01*
X9927Y2522D01*
X9932Y2524D01*
X9937Y2526D01*
X9938Y2526D01*
X9939Y2527D01*
X9943Y2530D01*
X9947Y2533D01*
X9948Y2534D01*
X9949Y2534D01*
X9952Y2538D01*
X9955Y2542D01*
X9956Y2543D01*
X9957Y2544D01*
X9959Y2548D01*
X9961Y2553D01*
X9961Y2554D01*
X9962Y2555D01*
X9964Y2567D01*
X9964Y2569D01*
X9964Y2570D01*
X9964Y2853D01*
X10003Y2891D01*
X10557Y2891D01*
X10596Y2853D01*
X10596Y2570D01*
X10596Y2565D01*
X10597Y2560D01*
X10597Y2559D01*
X10597Y2558D01*
X10599Y2553D01*
X10601Y2548D01*
X10601Y2547D01*
X10602Y2546D01*
X10605Y2542D01*
X10608Y2538D01*
X10609Y2537D01*
X10609Y2536D01*
X10613Y2533D01*
X10617Y2530D01*
X10618Y2529D01*
X10619Y2528D01*
X10623Y2526D01*
X10628Y2524D01*
X10629Y2524D01*
X10630Y2523D01*
X10642Y2521D01*
X10644Y2521D01*
X10645Y2521D01*
X10850Y2521D01*
X10880Y2491D01*
X10885Y2487D01*
X10889Y2484D01*
X10889Y2483D01*
X10890Y2483D01*
X10895Y2481D01*
X10900Y2478D01*
X10901Y2478D01*
X10907Y2477D01*
X10912Y2476D01*
X10913Y2476D01*
X10914Y2476D01*
X10919Y2477D01*
X10925Y2477D01*
X10926Y2477D01*
X10931Y2479D01*
X10937Y2481D01*
X10937Y2482D01*
X10938Y2482D01*
X10942Y2485D01*
X10947Y2488D01*
X10948Y2489D01*
X10952Y2493D01*
X10955Y2497D01*
X10956Y2498D01*
X10959Y2503D01*
X10961Y2508D01*
X10961Y2509D01*
X10962Y2509D01*
X10964Y2522D01*
X10964Y2524D01*
X10964Y2525D01*
X10964Y2853D01*
X11003Y2891D01*
X11557Y2891D01*
X11596Y2853D01*
X11596Y2436D01*
X11596Y2430D01*
X11597Y2425D01*
X11597Y2424D01*
X11599Y2418D01*
X11601Y2413D01*
X11602Y2413D01*
X11602Y2412D01*
X11605Y2408D01*
X11608Y2403D01*
X11609Y2403D01*
X11609Y2402D01*
X11614Y2399D01*
X11618Y2395D01*
X11619Y2394D01*
X11624Y2392D01*
X11629Y2389D01*
X11630Y2389D01*
X11636Y2388D01*
X11641Y2387D01*
X11642Y2387D01*
X11648Y2387D01*
X11654Y2387D01*
X11654Y2388D01*
X11655Y2388D01*
X11660Y2390D01*
X11665Y2391D01*
X11666Y2391D01*
X11667Y2392D01*
X11677Y2399D01*
X11679Y2400D01*
X11680Y2401D01*
X11683Y2405D01*
X11837Y2405D01*
X11880Y2361D01*
X11885Y2358D01*
X11889Y2354D01*
X11890Y2354D01*
X11895Y2351D01*
X11900Y2349D01*
X11901Y2349D01*
X11907Y2348D01*
X11912Y2347D01*
X11913Y2347D01*
X11914Y2347D01*
X11919Y2347D01*
X11925Y2348D01*
X11926Y2348D01*
X11931Y2350D01*
X11937Y2352D01*
X11938Y2352D01*
X11942Y2355D01*
X11947Y2359D01*
X11948Y2359D01*
X11952Y2364D01*
X11955Y2368D01*
X11956Y2368D01*
X11956Y2369D01*
X11959Y2374D01*
X11961Y2379D01*
X11962Y2380D01*
X11964Y2392D01*
X11964Y2395D01*
X11964Y2396D01*
X11964Y2853D01*
X12003Y2891D01*
X12275Y2891D01*
X12280Y2892D01*
X12285Y2892D01*
X12286Y2893D01*
X12287Y2893D01*
X12292Y2895D01*
X12297Y2896D01*
X12298Y2897D01*
X12299Y2898D01*
X12303Y2901D01*
X12307Y2903D01*
X12308Y2904D01*
X12309Y2905D01*
X12312Y2909D01*
X12315Y2912D01*
X12316Y2914D01*
X12317Y2915D01*
X12319Y2919D01*
X12321Y2923D01*
X12321Y2924D01*
X12322Y2926D01*
X12324Y2938D01*
X12324Y2940D01*
X12324Y2941D01*
X12324Y3054D01*
X12324Y3058D01*
X12324Y3063D01*
X12323Y3064D01*
X12323Y3066D01*
X12321Y3070D01*
X12320Y3074D01*
X12319Y3076D01*
X12318Y3078D01*
X12311Y3088D01*
X12310Y3088D01*
X12310Y3089D01*
X12235Y3163D01*
X12235Y3317D01*
X12343Y3425D01*
X12497Y3425D01*
X12605Y3317D01*
X12605Y3163D01*
X12530Y3089D01*
X12528Y3085D01*
X12525Y3082D01*
X12524Y3081D01*
X12523Y3079D01*
X12521Y3075D01*
X12519Y3071D01*
X12519Y3070D01*
X12518Y3068D01*
X12516Y3055D01*
X12516Y3054D01*
X12516Y2941D01*
X12516Y2936D01*
X12517Y2931D01*
X12517Y2930D01*
X12517Y2928D01*
X12519Y2924D01*
X12521Y2919D01*
X12521Y2918D01*
X12522Y2917D01*
X12525Y2913D01*
X12528Y2909D01*
X12529Y2908D01*
X12529Y2907D01*
X12533Y2904D01*
X12537Y2900D01*
X12538Y2900D01*
X12539Y2899D01*
X12543Y2897D01*
X12548Y2895D01*
X12549Y2894D01*
X12550Y2894D01*
X12562Y2891D01*
X12564Y2892D01*
X12565Y2891D01*
X12571Y2891D01*
X12575Y2891D01*
X12576Y2891D01*
X12577Y2890D01*
X12582Y2891D01*
X12587Y2891D01*
X12588Y2892D01*
X12590Y2892D01*
X12594Y2893D01*
X12599Y2895D01*
X12600Y2895D01*
X12601Y2896D01*
X12612Y2903D01*
X12613Y2904D01*
X12613Y2905D01*
X12713Y3005D01*
X12867Y3005D01*
X12966Y2906D01*
X12969Y2903D01*
X12972Y2900D01*
X12974Y2899D01*
X12975Y2898D01*
X12979Y2897D01*
X12983Y2895D01*
X12985Y2894D01*
X12987Y2893D01*
X12999Y2891D01*
X13000Y2892D01*
X13000Y2891D01*
X13557Y2891D01*
X13596Y2853D01*
X13596Y2516D01*
X13596Y2510D01*
X13597Y2505D01*
X13597Y2504D01*
X13599Y2498D01*
X13601Y2493D01*
X13602Y2493D01*
X13602Y2492D01*
X13605Y2488D01*
X13608Y2483D01*
X13609Y2483D01*
X13609Y2482D01*
X13614Y2479D01*
X13618Y2475D01*
X13619Y2474D01*
X13624Y2472D01*
X13629Y2469D01*
X13630Y2469D01*
X13636Y2468D01*
X13641Y2467D01*
X13642Y2467D01*
X13648Y2467D01*
X13654Y2467D01*
X13654Y2468D01*
X13655Y2468D01*
X13660Y2470D01*
X13665Y2471D01*
X13666Y2471D01*
X13667Y2472D01*
X13677Y2479D01*
X13679Y2480D01*
X13680Y2481D01*
X13723Y2525D01*
X13877Y2525D01*
X13880Y2521D01*
X13885Y2518D01*
X13889Y2514D01*
X13890Y2514D01*
X13895Y2511D01*
X13900Y2509D01*
X13901Y2509D01*
X13907Y2508D01*
X13912Y2507D01*
X13913Y2507D01*
X13914Y2507D01*
X13919Y2507D01*
X13925Y2508D01*
X13926Y2508D01*
X13931Y2510D01*
X13937Y2512D01*
X13938Y2512D01*
X13942Y2515D01*
X13947Y2519D01*
X13948Y2519D01*
X13952Y2524D01*
X13955Y2528D01*
X13956Y2528D01*
X13956Y2529D01*
X13959Y2534D01*
X13961Y2539D01*
X13962Y2540D01*
X13964Y2552D01*
X13964Y2555D01*
X13964Y2556D01*
X13964Y2853D01*
X14003Y2891D01*
X14557Y2891D01*
X14596Y2853D01*
X14596Y1897D01*
X14557Y1858D01*
X14003Y1858D01*
X13964Y1897D01*
X13964Y2124D01*
X13964Y2130D01*
X13963Y2135D01*
X13963Y2136D01*
X13961Y2142D01*
X13959Y2147D01*
X13958Y2147D01*
X13958Y2148D01*
X13955Y2152D01*
X13952Y2157D01*
X13951Y2157D01*
X13951Y2158D01*
X13946Y2161D01*
X13942Y2165D01*
X13941Y2166D01*
X13936Y2168D01*
X13931Y2171D01*
X13930Y2171D01*
X13924Y2172D01*
X13919Y2173D01*
X13918Y2173D01*
X13912Y2173D01*
X13906Y2173D01*
X13906Y2172D01*
X13905Y2172D01*
X13900Y2170D01*
X13895Y2169D01*
X13894Y2169D01*
X13893Y2168D01*
X13883Y2161D01*
X13881Y2160D01*
X13880Y2159D01*
X13877Y2155D01*
X13723Y2155D01*
X13680Y2199D01*
X13675Y2202D01*
X13671Y2206D01*
X13670Y2206D01*
X13665Y2209D01*
X13660Y2211D01*
X13659Y2211D01*
X13653Y2212D01*
X13648Y2213D01*
X13647Y2213D01*
X13646Y2213D01*
X13641Y2213D01*
X13635Y2212D01*
X13634Y2212D01*
X13629Y2210D01*
X13623Y2208D01*
X13622Y2208D01*
X13618Y2205D01*
X13613Y2201D01*
X13612Y2201D01*
X13608Y2196D01*
X13605Y2192D01*
X13604Y2192D01*
X13604Y2191D01*
X13601Y2186D01*
X13599Y2181D01*
X13598Y2180D01*
X13596Y2168D01*
X13596Y2165D01*
X13596Y2164D01*
X13596Y1897D01*
X13557Y1858D01*
X13003Y1858D01*
X12964Y1897D01*
X12964Y2614D01*
X12964Y2620D01*
X12963Y2625D01*
X12963Y2626D01*
X12961Y2632D01*
X12959Y2637D01*
X12958Y2637D01*
X12958Y2638D01*
X12955Y2642D01*
X12952Y2647D01*
X12951Y2647D01*
X12951Y2648D01*
X12946Y2651D01*
X12942Y2655D01*
X12941Y2656D01*
X12936Y2658D01*
X12931Y2661D01*
X12930Y2661D01*
X12924Y2662D01*
X12919Y2663D01*
X12918Y2663D01*
X12912Y2663D01*
X12906Y2663D01*
X12906Y2662D01*
X12905Y2662D01*
X12900Y2660D01*
X12895Y2659D01*
X12894Y2659D01*
X12893Y2658D01*
X12883Y2651D01*
X12881Y2650D01*
X12880Y2649D01*
X12867Y2635D01*
X12713Y2635D01*
X12680Y2669D01*
X12675Y2672D01*
X12671Y2676D01*
X12670Y2676D01*
X12665Y2679D01*
X12660Y2681D01*
X12659Y2681D01*
X12653Y2682D01*
X12648Y2683D01*
X12647Y2683D01*
X12646Y2683D01*
X12641Y2683D01*
X12635Y2682D01*
X12634Y2682D01*
X12629Y2680D01*
X12623Y2678D01*
X12622Y2678D01*
X12618Y2675D01*
X12613Y2671D01*
X12612Y2671D01*
X12608Y2666D01*
X12605Y2662D01*
X12604Y2662D01*
X12604Y2661D01*
X12601Y2656D01*
X12599Y2651D01*
X12598Y2650D01*
X12596Y2638D01*
X12596Y2635D01*
X12596Y2634D01*
X12596Y1897D01*
X12557Y1858D01*
X12003Y1858D01*
X11964Y1897D01*
X11964Y2044D01*
X11964Y2050D01*
X11963Y2055D01*
X11963Y2056D01*
X11961Y2062D01*
X11959Y2067D01*
X11958Y2067D01*
X11958Y2068D01*
X11955Y2072D01*
X11952Y2077D01*
X11951Y2077D01*
X11951Y2078D01*
X11946Y2081D01*
X11942Y2085D01*
X11941Y2086D01*
X11936Y2088D01*
X11931Y2091D01*
X11930Y2091D01*
X11924Y2092D01*
X11919Y2093D01*
X11918Y2093D01*
X11912Y2093D01*
X11906Y2093D01*
X11906Y2092D01*
X11905Y2092D01*
X11900Y2090D01*
X11895Y2089D01*
X11894Y2089D01*
X11893Y2088D01*
X11883Y2081D01*
X11881Y2080D01*
X11880Y2079D01*
X11837Y2035D01*
X11683Y2035D01*
X11680Y2039D01*
X11675Y2042D01*
X11671Y2046D01*
X11670Y2046D01*
X11665Y2049D01*
X11660Y2051D01*
X11659Y2051D01*
X11653Y2052D01*
X11648Y2053D01*
X11647Y2053D01*
X11646Y2053D01*
X11641Y2053D01*
X11635Y2052D01*
X11634Y2052D01*
X11629Y2050D01*
X11623Y2048D01*
X11622Y2048D01*
X11618Y2045D01*
X11613Y2041D01*
X11612Y2041D01*
X11608Y2036D01*
X11605Y2032D01*
X11604Y2032D01*
X11604Y2031D01*
X11601Y2026D01*
X11599Y2021D01*
X11598Y2020D01*
X11596Y2008D01*
X11596Y2005D01*
X11596Y2004D01*
X11596Y1897D01*
X11557Y1858D01*
X11001Y1858D01*
X11000Y1859D01*
X10999Y1860D01*
X10994Y1862D01*
X10989Y1864D01*
X10988Y1864D01*
X10988Y1865D01*
X10982Y1866D01*
X10977Y1867D01*
X10976Y1867D01*
X10975Y1867D01*
X10970Y1866D01*
X10964Y1866D01*
X10964Y1865D01*
X10963Y1865D01*
X10958Y1863D01*
X10952Y1862D01*
X10952Y1861D01*
X10951Y1861D01*
X10947Y1858D01*
X10942Y1855D01*
X10942Y1854D01*
X10941Y1854D01*
X10937Y1850D01*
X10934Y1846D01*
X10933Y1845D01*
X10931Y1840D01*
X10928Y1835D01*
X10928Y1834D01*
X10927Y1833D01*
X10925Y1821D01*
X10925Y1819D01*
X10925Y1817D01*
X10925Y1718D01*
X10924Y1716D01*
X10924Y1715D01*
X10923Y1713D01*
X10921Y1700D01*
X10921Y1699D01*
X10921Y1630D01*
X10850Y1559D01*
X10481Y1559D01*
X10477Y1559D01*
X10472Y1559D01*
X10471Y1558D01*
X10469Y1558D01*
X10465Y1556D01*
X10461Y1555D01*
X10459Y1554D01*
X10457Y1553D01*
X10447Y1546D01*
X10447Y1545D01*
X10446Y1545D01*
X10397Y1495D01*
X10243Y1495D01*
X10194Y1545D01*
X10190Y1547D01*
X10187Y1550D01*
X10186Y1551D01*
X10184Y1552D01*
X10180Y1554D01*
X10176Y1556D01*
X10175Y1556D01*
X10173Y1557D01*
X10160Y1559D01*
X10159Y1559D01*
X9730Y1559D01*
X9659Y1630D01*
X9659Y1699D01*
X9659Y1703D01*
X9659Y1708D01*
X9658Y1709D01*
X9658Y1711D01*
X9656Y1715D01*
X9655Y1718D01*
X9655Y1837D01*
X9654Y1843D01*
X9654Y1848D01*
X9654Y1849D01*
X9654Y1850D01*
X9652Y1855D01*
X9650Y1860D01*
X9649Y1861D01*
X9646Y1866D01*
X9643Y1870D01*
X9642Y1871D01*
X9637Y1875D01*
X9633Y1878D01*
X9633Y1879D01*
X9632Y1879D01*
X9627Y1882D01*
X9622Y1884D01*
X9621Y1884D01*
X9615Y1885D01*
X9610Y1887D01*
X9609Y1886D01*
X9609Y1887D01*
X9603Y1886D01*
X9597Y1886D01*
X9596Y1886D01*
X9591Y1884D01*
X9586Y1882D01*
X9585Y1882D01*
X9584Y1882D01*
X9574Y1875D01*
X9572Y1873D01*
X9571Y1872D01*
X9557Y1858D01*
X8990Y1858D01*
X8985Y1858D01*
X8980Y1857D01*
X8979Y1857D01*
X8978Y1857D01*
X8973Y1855D01*
X8968Y1853D01*
X8967Y1853D01*
X8966Y1852D01*
X8962Y1849D01*
X8958Y1847D01*
X8957Y1846D01*
X8956Y1845D01*
X8953Y1841D01*
X8950Y1837D01*
X8949Y1836D01*
X8948Y1835D01*
X8946Y1831D01*
X8944Y1826D01*
X8944Y1825D01*
X8943Y1824D01*
X8941Y1812D01*
X8941Y1810D01*
X8941Y1809D01*
X8941Y1570D01*
X8870Y1499D01*
X8381Y1499D01*
X8377Y1499D01*
X8372Y1499D01*
X8371Y1498D01*
X8369Y1498D01*
X8365Y1496D01*
X8362Y1495D01*
X8198Y1495D01*
G37*
%LPD*%
%LPC*%
G36*
X5003Y-131D02*
X5003Y-131D01*
X4964Y-93D01*
X4964Y863D01*
X5003Y902D01*
X5530Y902D01*
X5535Y902D01*
X5540Y903D01*
X5541Y903D01*
X5542Y903D01*
X5547Y905D01*
X5552Y907D01*
X5553Y907D01*
X5554Y908D01*
X5558Y911D01*
X5562Y913D01*
X5563Y914D01*
X5564Y915D01*
X5567Y919D01*
X5570Y923D01*
X5571Y924D01*
X5572Y925D01*
X5574Y929D01*
X5576Y934D01*
X5576Y935D01*
X5577Y936D01*
X5579Y948D01*
X5579Y950D01*
X5579Y951D01*
X5579Y1190D01*
X5650Y1261D01*
X6139Y1261D01*
X6143Y1261D01*
X6148Y1261D01*
X6149Y1262D01*
X6151Y1262D01*
X6155Y1264D01*
X6158Y1265D01*
X6322Y1265D01*
X6324Y1264D01*
X6325Y1264D01*
X6327Y1263D01*
X6340Y1261D01*
X6341Y1261D01*
X6830Y1261D01*
X6901Y1190D01*
X6901Y1061D01*
X6901Y1057D01*
X6901Y1052D01*
X6902Y1051D01*
X6902Y1049D01*
X6904Y1045D01*
X6905Y1042D01*
X6905Y923D01*
X6906Y917D01*
X6906Y912D01*
X6906Y911D01*
X6906Y910D01*
X6908Y905D01*
X6910Y900D01*
X6911Y899D01*
X6914Y894D01*
X6917Y890D01*
X6918Y889D01*
X6923Y885D01*
X6927Y882D01*
X6927Y881D01*
X6928Y881D01*
X6933Y878D01*
X6938Y876D01*
X6939Y876D01*
X6945Y875D01*
X6950Y873D01*
X6951Y874D01*
X6951Y873D01*
X6957Y874D01*
X6963Y874D01*
X6964Y874D01*
X6969Y876D01*
X6974Y878D01*
X6975Y878D01*
X6976Y878D01*
X6986Y885D01*
X6988Y887D01*
X6989Y888D01*
X7003Y902D01*
X7566Y902D01*
X7571Y902D01*
X7576Y903D01*
X7577Y903D01*
X7578Y903D01*
X7583Y905D01*
X7588Y907D01*
X7589Y907D01*
X7590Y908D01*
X7594Y911D01*
X7598Y913D01*
X7599Y914D01*
X7600Y915D01*
X7603Y919D01*
X7606Y923D01*
X7607Y924D01*
X7608Y925D01*
X7610Y929D01*
X7612Y934D01*
X7612Y935D01*
X7613Y936D01*
X7615Y948D01*
X7615Y950D01*
X7615Y951D01*
X7615Y1042D01*
X7616Y1044D01*
X7616Y1045D01*
X7617Y1047D01*
X7619Y1060D01*
X7619Y1061D01*
X7619Y1190D01*
X7690Y1261D01*
X8179Y1261D01*
X8183Y1261D01*
X8188Y1261D01*
X8189Y1262D01*
X8191Y1262D01*
X8195Y1264D01*
X8198Y1265D01*
X8362Y1265D01*
X8364Y1264D01*
X8365Y1264D01*
X8367Y1263D01*
X8380Y1261D01*
X8381Y1261D01*
X8870Y1261D01*
X8941Y1190D01*
X8941Y1061D01*
X8941Y1057D01*
X8941Y1052D01*
X8942Y1051D01*
X8942Y1049D01*
X8944Y1045D01*
X8945Y1042D01*
X8945Y951D01*
X8945Y946D01*
X8946Y941D01*
X8946Y940D01*
X8946Y939D01*
X8948Y934D01*
X8950Y929D01*
X8950Y928D01*
X8951Y927D01*
X8954Y923D01*
X8957Y919D01*
X8958Y918D01*
X8958Y917D01*
X8962Y914D01*
X8966Y911D01*
X8967Y910D01*
X8968Y909D01*
X8972Y907D01*
X8977Y905D01*
X8978Y905D01*
X8979Y904D01*
X8991Y902D01*
X8993Y902D01*
X8994Y902D01*
X9557Y902D01*
X9596Y863D01*
X9596Y-93D01*
X9557Y-131D01*
X9003Y-131D01*
X8964Y-93D01*
X8964Y215D01*
X8964Y220D01*
X8963Y226D01*
X8963Y227D01*
X8961Y232D01*
X8959Y237D01*
X8958Y238D01*
X8955Y243D01*
X8952Y248D01*
X8951Y248D01*
X8946Y252D01*
X8942Y256D01*
X8941Y256D01*
X8936Y259D01*
X8931Y261D01*
X8930Y261D01*
X8930Y262D01*
X8924Y263D01*
X8919Y264D01*
X8918Y264D01*
X8912Y263D01*
X8906Y263D01*
X8905Y263D01*
X8900Y261D01*
X8895Y259D01*
X8894Y259D01*
X8893Y259D01*
X8883Y252D01*
X8881Y250D01*
X8880Y249D01*
X8870Y239D01*
X8645Y239D01*
X8640Y239D01*
X8635Y238D01*
X8634Y238D01*
X8633Y238D01*
X8628Y236D01*
X8623Y234D01*
X8622Y234D01*
X8621Y233D01*
X8617Y230D01*
X8613Y227D01*
X8612Y226D01*
X8611Y226D01*
X8608Y222D01*
X8605Y218D01*
X8604Y217D01*
X8603Y216D01*
X8601Y212D01*
X8599Y207D01*
X8599Y206D01*
X8598Y205D01*
X8596Y193D01*
X8596Y191D01*
X8596Y190D01*
X8596Y-93D01*
X8557Y-131D01*
X8003Y-131D01*
X7964Y-93D01*
X7964Y190D01*
X7964Y195D01*
X7963Y200D01*
X7963Y201D01*
X7963Y202D01*
X7961Y207D01*
X7959Y212D01*
X7959Y213D01*
X7958Y214D01*
X7955Y218D01*
X7952Y222D01*
X7951Y223D01*
X7951Y224D01*
X7947Y227D01*
X7943Y230D01*
X7942Y231D01*
X7941Y232D01*
X7937Y234D01*
X7932Y236D01*
X7931Y236D01*
X7930Y237D01*
X7918Y239D01*
X7916Y239D01*
X7915Y239D01*
X7690Y239D01*
X7680Y249D01*
X7675Y253D01*
X7671Y256D01*
X7671Y257D01*
X7670Y257D01*
X7665Y259D01*
X7660Y262D01*
X7659Y262D01*
X7653Y263D01*
X7648Y264D01*
X7647Y264D01*
X7646Y264D01*
X7641Y263D01*
X7635Y263D01*
X7634Y263D01*
X7629Y261D01*
X7623Y259D01*
X7623Y258D01*
X7622Y258D01*
X7618Y255D01*
X7613Y252D01*
X7612Y251D01*
X7608Y247D01*
X7605Y243D01*
X7604Y242D01*
X7601Y237D01*
X7599Y232D01*
X7599Y231D01*
X7598Y231D01*
X7596Y218D01*
X7596Y216D01*
X7596Y215D01*
X7596Y-93D01*
X7557Y-131D01*
X7003Y-131D01*
X6964Y-93D01*
X6964Y255D01*
X6964Y260D01*
X6963Y266D01*
X6963Y267D01*
X6961Y272D01*
X6959Y277D01*
X6958Y278D01*
X6955Y283D01*
X6952Y288D01*
X6951Y288D01*
X6946Y292D01*
X6942Y296D01*
X6941Y296D01*
X6936Y299D01*
X6931Y301D01*
X6930Y301D01*
X6930Y302D01*
X6924Y303D01*
X6919Y304D01*
X6918Y304D01*
X6912Y303D01*
X6906Y303D01*
X6905Y303D01*
X6900Y301D01*
X6895Y299D01*
X6894Y299D01*
X6893Y299D01*
X6883Y292D01*
X6881Y290D01*
X6880Y289D01*
X6830Y239D01*
X6645Y239D01*
X6640Y239D01*
X6635Y238D01*
X6634Y238D01*
X6633Y238D01*
X6628Y236D01*
X6623Y234D01*
X6622Y234D01*
X6621Y233D01*
X6617Y230D01*
X6613Y227D01*
X6612Y226D01*
X6611Y226D01*
X6608Y222D01*
X6605Y218D01*
X6604Y217D01*
X6603Y216D01*
X6601Y212D01*
X6599Y207D01*
X6599Y206D01*
X6598Y205D01*
X6596Y193D01*
X6596Y191D01*
X6596Y190D01*
X6596Y-93D01*
X6557Y-131D01*
X6003Y-131D01*
X5964Y-93D01*
X5964Y190D01*
X5964Y195D01*
X5963Y200D01*
X5963Y201D01*
X5963Y202D01*
X5961Y207D01*
X5959Y212D01*
X5959Y213D01*
X5958Y214D01*
X5955Y218D01*
X5952Y222D01*
X5951Y223D01*
X5951Y224D01*
X5947Y227D01*
X5943Y230D01*
X5942Y231D01*
X5941Y232D01*
X5937Y234D01*
X5932Y236D01*
X5931Y236D01*
X5930Y237D01*
X5918Y239D01*
X5916Y239D01*
X5915Y239D01*
X5645Y239D01*
X5640Y239D01*
X5635Y238D01*
X5634Y238D01*
X5633Y238D01*
X5628Y236D01*
X5623Y234D01*
X5622Y234D01*
X5621Y233D01*
X5617Y230D01*
X5613Y227D01*
X5612Y226D01*
X5611Y226D01*
X5608Y222D01*
X5605Y218D01*
X5604Y217D01*
X5603Y216D01*
X5601Y212D01*
X5599Y207D01*
X5599Y206D01*
X5598Y205D01*
X5596Y193D01*
X5596Y191D01*
X5596Y190D01*
X5596Y-93D01*
X5557Y-131D01*
X5003Y-131D01*
G37*
%LPD*%
%LPC*%
G36*
X12003Y-131D02*
X12003Y-131D01*
X11964Y-93D01*
X11964Y863D01*
X12003Y902D01*
X12557Y902D01*
X12575Y884D01*
X12580Y880D01*
X12584Y877D01*
X12585Y876D01*
X12590Y874D01*
X12595Y872D01*
X12596Y871D01*
X12602Y870D01*
X12607Y869D01*
X12608Y869D01*
X12609Y869D01*
X12614Y870D01*
X12620Y870D01*
X12621Y871D01*
X12626Y872D01*
X12632Y874D01*
X12632Y875D01*
X12633Y875D01*
X12637Y878D01*
X12642Y881D01*
X12642Y882D01*
X12643Y882D01*
X12647Y886D01*
X12650Y890D01*
X12651Y891D01*
X12654Y896D01*
X12656Y901D01*
X12656Y902D01*
X12657Y902D01*
X12659Y915D01*
X12659Y917D01*
X12659Y919D01*
X12659Y923D01*
X12659Y928D01*
X12658Y929D01*
X12658Y931D01*
X12656Y935D01*
X12655Y938D01*
X12655Y1102D01*
X12656Y1104D01*
X12656Y1105D01*
X12657Y1107D01*
X12659Y1120D01*
X12659Y1121D01*
X12659Y1190D01*
X12730Y1261D01*
X13219Y1261D01*
X13223Y1261D01*
X13228Y1261D01*
X13229Y1262D01*
X13231Y1262D01*
X13235Y1264D01*
X13238Y1265D01*
X13402Y1265D01*
X13404Y1264D01*
X13405Y1264D01*
X13407Y1263D01*
X13420Y1261D01*
X13421Y1261D01*
X13910Y1261D01*
X13981Y1190D01*
X13981Y951D01*
X13981Y946D01*
X13982Y941D01*
X13982Y940D01*
X13982Y939D01*
X13984Y934D01*
X13986Y929D01*
X13986Y928D01*
X13987Y927D01*
X13990Y923D01*
X13993Y919D01*
X13994Y918D01*
X13994Y917D01*
X13998Y914D01*
X14002Y911D01*
X14003Y910D01*
X14004Y909D01*
X14008Y907D01*
X14013Y905D01*
X14014Y905D01*
X14015Y904D01*
X14027Y902D01*
X14029Y902D01*
X14030Y902D01*
X14557Y902D01*
X14596Y863D01*
X14596Y-93D01*
X14557Y-131D01*
X14003Y-131D01*
X13964Y-93D01*
X13964Y190D01*
X13964Y195D01*
X13963Y200D01*
X13963Y201D01*
X13963Y202D01*
X13961Y207D01*
X13959Y212D01*
X13959Y213D01*
X13958Y214D01*
X13955Y218D01*
X13952Y222D01*
X13951Y223D01*
X13951Y224D01*
X13947Y227D01*
X13943Y230D01*
X13942Y231D01*
X13941Y232D01*
X13937Y234D01*
X13932Y236D01*
X13931Y236D01*
X13930Y237D01*
X13918Y239D01*
X13916Y239D01*
X13915Y239D01*
X13645Y239D01*
X13640Y239D01*
X13635Y238D01*
X13634Y238D01*
X13633Y238D01*
X13628Y236D01*
X13623Y234D01*
X13622Y234D01*
X13621Y233D01*
X13617Y230D01*
X13613Y227D01*
X13612Y226D01*
X13611Y226D01*
X13608Y222D01*
X13605Y218D01*
X13604Y217D01*
X13603Y216D01*
X13601Y212D01*
X13599Y207D01*
X13599Y206D01*
X13598Y205D01*
X13596Y193D01*
X13596Y191D01*
X13596Y190D01*
X13596Y-93D01*
X13557Y-131D01*
X13003Y-131D01*
X12964Y-93D01*
X12964Y190D01*
X12964Y195D01*
X12963Y200D01*
X12963Y201D01*
X12963Y202D01*
X12961Y207D01*
X12959Y212D01*
X12959Y213D01*
X12958Y214D01*
X12955Y218D01*
X12952Y222D01*
X12951Y223D01*
X12951Y224D01*
X12947Y227D01*
X12943Y230D01*
X12942Y231D01*
X12941Y232D01*
X12937Y234D01*
X12932Y236D01*
X12931Y236D01*
X12930Y237D01*
X12918Y239D01*
X12916Y239D01*
X12915Y239D01*
X12730Y239D01*
X12680Y289D01*
X12675Y293D01*
X12671Y296D01*
X12671Y297D01*
X12670Y297D01*
X12665Y299D01*
X12660Y302D01*
X12659Y302D01*
X12653Y303D01*
X12648Y304D01*
X12647Y304D01*
X12646Y304D01*
X12641Y303D01*
X12635Y303D01*
X12634Y303D01*
X12629Y301D01*
X12623Y299D01*
X12623Y298D01*
X12622Y298D01*
X12618Y295D01*
X12613Y292D01*
X12612Y291D01*
X12608Y287D01*
X12605Y283D01*
X12604Y282D01*
X12601Y277D01*
X12599Y272D01*
X12599Y271D01*
X12598Y271D01*
X12596Y258D01*
X12596Y256D01*
X12596Y255D01*
X12596Y-93D01*
X12557Y-131D01*
X12003Y-131D01*
G37*
%LPD*%
%LPC*%
G36*
X21003Y-131D02*
X21003Y-131D01*
X20964Y-93D01*
X20964Y863D01*
X21003Y902D01*
X21510Y902D01*
X21515Y902D01*
X21520Y903D01*
X21521Y903D01*
X21522Y903D01*
X21527Y905D01*
X21532Y907D01*
X21533Y907D01*
X21534Y908D01*
X21538Y911D01*
X21542Y913D01*
X21543Y914D01*
X21544Y915D01*
X21547Y919D01*
X21550Y923D01*
X21551Y924D01*
X21552Y925D01*
X21554Y929D01*
X21556Y934D01*
X21556Y935D01*
X21557Y936D01*
X21559Y948D01*
X21559Y950D01*
X21559Y951D01*
X21559Y1147D01*
X21653Y1241D01*
X22149Y1241D01*
X22153Y1241D01*
X22158Y1241D01*
X22159Y1242D01*
X22161Y1242D01*
X22165Y1244D01*
X22169Y1245D01*
X22171Y1246D01*
X22173Y1247D01*
X22183Y1254D01*
X22183Y1255D01*
X22337Y1255D01*
X22340Y1253D01*
X22343Y1250D01*
X22344Y1249D01*
X22346Y1248D01*
X22350Y1246D01*
X22354Y1244D01*
X22355Y1244D01*
X22357Y1243D01*
X22370Y1241D01*
X22371Y1241D01*
X22867Y1241D01*
X22961Y1147D01*
X22961Y541D01*
X22961Y537D01*
X22961Y532D01*
X22962Y531D01*
X22962Y529D01*
X22964Y525D01*
X22965Y521D01*
X22966Y519D01*
X22967Y517D01*
X22974Y507D01*
X22975Y507D01*
X22975Y506D01*
X22985Y497D01*
X22985Y343D01*
X22975Y334D01*
X22973Y330D01*
X22970Y327D01*
X22969Y326D01*
X22968Y324D01*
X22966Y320D01*
X22964Y316D01*
X22964Y315D01*
X22963Y313D01*
X22961Y300D01*
X22961Y299D01*
X22961Y293D01*
X22867Y199D01*
X22645Y199D01*
X22640Y199D01*
X22635Y198D01*
X22634Y198D01*
X22633Y198D01*
X22628Y196D01*
X22623Y194D01*
X22622Y194D01*
X22621Y193D01*
X22617Y190D01*
X22613Y187D01*
X22612Y186D01*
X22611Y186D01*
X22608Y182D01*
X22605Y178D01*
X22604Y177D01*
X22603Y176D01*
X22601Y172D01*
X22599Y167D01*
X22599Y166D01*
X22598Y165D01*
X22596Y153D01*
X22596Y151D01*
X22596Y150D01*
X22596Y-93D01*
X22557Y-131D01*
X22003Y-131D01*
X21964Y-93D01*
X21964Y150D01*
X21964Y155D01*
X21963Y160D01*
X21963Y161D01*
X21963Y162D01*
X21961Y167D01*
X21959Y172D01*
X21959Y173D01*
X21958Y174D01*
X21955Y178D01*
X21952Y182D01*
X21951Y183D01*
X21951Y184D01*
X21947Y187D01*
X21943Y190D01*
X21942Y191D01*
X21941Y192D01*
X21937Y194D01*
X21932Y196D01*
X21931Y196D01*
X21930Y197D01*
X21918Y199D01*
X21916Y199D01*
X21915Y199D01*
X21645Y199D01*
X21640Y199D01*
X21635Y198D01*
X21634Y198D01*
X21633Y198D01*
X21628Y196D01*
X21623Y194D01*
X21622Y194D01*
X21621Y193D01*
X21617Y190D01*
X21613Y187D01*
X21612Y186D01*
X21611Y186D01*
X21608Y182D01*
X21605Y178D01*
X21604Y177D01*
X21603Y176D01*
X21601Y172D01*
X21599Y167D01*
X21599Y166D01*
X21598Y165D01*
X21596Y153D01*
X21596Y151D01*
X21596Y150D01*
X21596Y-93D01*
X21557Y-131D01*
X21003Y-131D01*
G37*
%LPD*%
%LPC*%
G36*
X18223Y1375D02*
X18223Y1375D01*
X18174Y1425D01*
X18170Y1427D01*
X18167Y1430D01*
X18166Y1431D01*
X18164Y1432D01*
X18160Y1434D01*
X18156Y1436D01*
X18155Y1436D01*
X18153Y1437D01*
X18140Y1439D01*
X18139Y1439D01*
X17770Y1439D01*
X17699Y1510D01*
X17699Y1579D01*
X17699Y1583D01*
X17699Y1588D01*
X17698Y1589D01*
X17698Y1591D01*
X17696Y1595D01*
X17695Y1598D01*
X17695Y1762D01*
X17696Y1764D01*
X17696Y1765D01*
X17697Y1767D01*
X17699Y1780D01*
X17699Y1781D01*
X17699Y2450D01*
X17770Y2521D01*
X17915Y2521D01*
X17920Y2521D01*
X17925Y2522D01*
X17926Y2522D01*
X17927Y2522D01*
X17932Y2524D01*
X17937Y2526D01*
X17938Y2526D01*
X17939Y2527D01*
X17943Y2530D01*
X17947Y2533D01*
X17948Y2534D01*
X17949Y2534D01*
X17952Y2538D01*
X17955Y2542D01*
X17956Y2543D01*
X17957Y2544D01*
X17959Y2548D01*
X17961Y2553D01*
X17961Y2554D01*
X17962Y2555D01*
X17964Y2567D01*
X17964Y2569D01*
X17964Y2570D01*
X17964Y2853D01*
X18003Y2891D01*
X18557Y2891D01*
X18596Y2853D01*
X18596Y2570D01*
X18596Y2565D01*
X18597Y2560D01*
X18597Y2559D01*
X18597Y2558D01*
X18599Y2553D01*
X18601Y2548D01*
X18601Y2547D01*
X18602Y2546D01*
X18605Y2542D01*
X18608Y2538D01*
X18609Y2537D01*
X18609Y2536D01*
X18613Y2533D01*
X18617Y2530D01*
X18618Y2529D01*
X18619Y2528D01*
X18623Y2526D01*
X18628Y2524D01*
X18629Y2524D01*
X18630Y2523D01*
X18642Y2521D01*
X18644Y2521D01*
X18645Y2521D01*
X18830Y2521D01*
X18880Y2471D01*
X18885Y2467D01*
X18889Y2464D01*
X18889Y2463D01*
X18890Y2463D01*
X18895Y2461D01*
X18900Y2458D01*
X18901Y2458D01*
X18907Y2457D01*
X18912Y2456D01*
X18913Y2456D01*
X18914Y2456D01*
X18919Y2457D01*
X18925Y2457D01*
X18926Y2457D01*
X18931Y2459D01*
X18937Y2461D01*
X18937Y2462D01*
X18938Y2462D01*
X18942Y2465D01*
X18947Y2468D01*
X18948Y2469D01*
X18952Y2473D01*
X18955Y2477D01*
X18956Y2478D01*
X18959Y2483D01*
X18961Y2488D01*
X18961Y2489D01*
X18962Y2489D01*
X18964Y2502D01*
X18964Y2504D01*
X18964Y2505D01*
X18964Y2853D01*
X19003Y2891D01*
X19557Y2891D01*
X19596Y2853D01*
X19596Y1897D01*
X19557Y1858D01*
X19003Y1858D01*
X18985Y1876D01*
X18980Y1880D01*
X18976Y1883D01*
X18975Y1884D01*
X18970Y1886D01*
X18965Y1888D01*
X18964Y1889D01*
X18958Y1890D01*
X18953Y1891D01*
X18952Y1891D01*
X18951Y1891D01*
X18946Y1890D01*
X18940Y1890D01*
X18939Y1889D01*
X18934Y1888D01*
X18928Y1886D01*
X18928Y1885D01*
X18927Y1885D01*
X18923Y1882D01*
X18918Y1879D01*
X18918Y1878D01*
X18917Y1878D01*
X18913Y1874D01*
X18910Y1870D01*
X18909Y1869D01*
X18906Y1864D01*
X18904Y1859D01*
X18904Y1858D01*
X18903Y1858D01*
X18901Y1845D01*
X18901Y1843D01*
X18901Y1841D01*
X18901Y1781D01*
X18901Y1777D01*
X18901Y1772D01*
X18902Y1771D01*
X18902Y1769D01*
X18904Y1765D01*
X18905Y1762D01*
X18905Y1598D01*
X18904Y1596D01*
X18904Y1595D01*
X18903Y1593D01*
X18901Y1580D01*
X18901Y1579D01*
X18901Y1510D01*
X18830Y1439D01*
X18461Y1439D01*
X18457Y1439D01*
X18452Y1439D01*
X18451Y1438D01*
X18449Y1438D01*
X18445Y1436D01*
X18441Y1435D01*
X18439Y1434D01*
X18437Y1433D01*
X18427Y1426D01*
X18427Y1425D01*
X18426Y1425D01*
X18377Y1375D01*
X18223Y1375D01*
G37*
%LPD*%
%LPC*%
G36*
X3158Y1495D02*
X3158Y1495D01*
X3156Y1496D01*
X3155Y1496D01*
X3153Y1497D01*
X3140Y1499D01*
X3139Y1499D01*
X2650Y1499D01*
X2579Y1570D01*
X2579Y2390D01*
X2650Y2461D01*
X2915Y2461D01*
X2920Y2461D01*
X2925Y2462D01*
X2926Y2462D01*
X2927Y2462D01*
X2932Y2464D01*
X2937Y2466D01*
X2938Y2466D01*
X2939Y2467D01*
X2943Y2470D01*
X2947Y2473D01*
X2948Y2474D01*
X2949Y2474D01*
X2952Y2478D01*
X2955Y2482D01*
X2956Y2483D01*
X2957Y2484D01*
X2959Y2488D01*
X2961Y2493D01*
X2961Y2494D01*
X2962Y2495D01*
X2964Y2507D01*
X2964Y2509D01*
X2964Y2510D01*
X2964Y2853D01*
X3003Y2891D01*
X3557Y2891D01*
X3596Y2853D01*
X3596Y2510D01*
X3596Y2505D01*
X3597Y2500D01*
X3597Y2499D01*
X3597Y2498D01*
X3599Y2493D01*
X3601Y2488D01*
X3601Y2487D01*
X3602Y2486D01*
X3605Y2482D01*
X3608Y2478D01*
X3609Y2477D01*
X3609Y2476D01*
X3613Y2473D01*
X3617Y2470D01*
X3618Y2469D01*
X3619Y2468D01*
X3623Y2466D01*
X3628Y2464D01*
X3629Y2464D01*
X3630Y2463D01*
X3642Y2461D01*
X3644Y2461D01*
X3645Y2461D01*
X3830Y2461D01*
X3880Y2411D01*
X3885Y2407D01*
X3889Y2404D01*
X3889Y2403D01*
X3890Y2403D01*
X3895Y2401D01*
X3900Y2398D01*
X3901Y2398D01*
X3907Y2397D01*
X3912Y2396D01*
X3913Y2396D01*
X3914Y2396D01*
X3919Y2397D01*
X3925Y2397D01*
X3926Y2397D01*
X3931Y2399D01*
X3937Y2401D01*
X3937Y2402D01*
X3938Y2402D01*
X3942Y2405D01*
X3947Y2408D01*
X3948Y2409D01*
X3952Y2413D01*
X3955Y2417D01*
X3956Y2418D01*
X3959Y2423D01*
X3961Y2428D01*
X3961Y2429D01*
X3962Y2429D01*
X3964Y2442D01*
X3964Y2444D01*
X3964Y2445D01*
X3964Y2853D01*
X4003Y2891D01*
X4557Y2891D01*
X4596Y2853D01*
X4596Y1897D01*
X4557Y1858D01*
X4003Y1858D01*
X3985Y1876D01*
X3980Y1880D01*
X3976Y1883D01*
X3975Y1884D01*
X3970Y1886D01*
X3965Y1888D01*
X3964Y1889D01*
X3958Y1890D01*
X3953Y1891D01*
X3952Y1891D01*
X3951Y1891D01*
X3946Y1890D01*
X3940Y1890D01*
X3939Y1889D01*
X3934Y1888D01*
X3928Y1886D01*
X3928Y1885D01*
X3927Y1885D01*
X3923Y1882D01*
X3918Y1879D01*
X3918Y1878D01*
X3917Y1878D01*
X3913Y1874D01*
X3910Y1870D01*
X3909Y1869D01*
X3906Y1864D01*
X3904Y1859D01*
X3904Y1858D01*
X3903Y1858D01*
X3901Y1845D01*
X3901Y1843D01*
X3901Y1841D01*
X3901Y1570D01*
X3830Y1499D01*
X3341Y1499D01*
X3337Y1499D01*
X3332Y1499D01*
X3331Y1498D01*
X3329Y1498D01*
X3325Y1496D01*
X3322Y1495D01*
X3158Y1495D01*
G37*
%LPD*%
%LPC*%
G36*
X15003Y-131D02*
X15003Y-131D01*
X14964Y-93D01*
X14964Y863D01*
X15003Y902D01*
X15557Y902D01*
X15575Y884D01*
X15580Y880D01*
X15584Y877D01*
X15585Y876D01*
X15590Y874D01*
X15595Y872D01*
X15596Y871D01*
X15602Y870D01*
X15607Y869D01*
X15608Y869D01*
X15609Y869D01*
X15614Y870D01*
X15620Y870D01*
X15621Y871D01*
X15626Y872D01*
X15632Y874D01*
X15632Y875D01*
X15633Y875D01*
X15637Y878D01*
X15642Y881D01*
X15642Y882D01*
X15643Y882D01*
X15647Y886D01*
X15650Y890D01*
X15651Y891D01*
X15654Y896D01*
X15656Y901D01*
X15656Y902D01*
X15657Y902D01*
X15659Y915D01*
X15659Y917D01*
X15659Y919D01*
X15659Y923D01*
X15659Y928D01*
X15658Y929D01*
X15658Y931D01*
X15656Y935D01*
X15655Y938D01*
X15655Y1102D01*
X15656Y1104D01*
X15656Y1105D01*
X15657Y1107D01*
X15659Y1120D01*
X15659Y1121D01*
X15659Y1190D01*
X15730Y1261D01*
X16159Y1261D01*
X16163Y1261D01*
X16168Y1261D01*
X16169Y1262D01*
X16171Y1262D01*
X16175Y1264D01*
X16178Y1265D01*
X16342Y1265D01*
X16344Y1264D01*
X16345Y1264D01*
X16347Y1263D01*
X16360Y1261D01*
X16361Y1261D01*
X16790Y1261D01*
X16861Y1190D01*
X16861Y1121D01*
X16861Y1117D01*
X16861Y1112D01*
X16862Y1111D01*
X16862Y1109D01*
X16864Y1105D01*
X16865Y1102D01*
X16865Y938D01*
X16864Y936D01*
X16864Y935D01*
X16863Y933D01*
X16861Y920D01*
X16861Y919D01*
X16861Y310D01*
X16790Y239D01*
X16645Y239D01*
X16640Y239D01*
X16635Y238D01*
X16634Y238D01*
X16633Y238D01*
X16628Y236D01*
X16623Y234D01*
X16622Y234D01*
X16621Y233D01*
X16617Y230D01*
X16613Y227D01*
X16612Y226D01*
X16611Y226D01*
X16608Y222D01*
X16605Y218D01*
X16604Y217D01*
X16603Y216D01*
X16601Y212D01*
X16599Y207D01*
X16599Y206D01*
X16598Y205D01*
X16596Y193D01*
X16596Y191D01*
X16596Y190D01*
X16596Y-93D01*
X16557Y-131D01*
X16003Y-131D01*
X15964Y-93D01*
X15964Y190D01*
X15964Y195D01*
X15963Y200D01*
X15963Y201D01*
X15963Y202D01*
X15961Y207D01*
X15959Y212D01*
X15959Y213D01*
X15958Y214D01*
X15955Y218D01*
X15952Y222D01*
X15951Y223D01*
X15951Y224D01*
X15947Y227D01*
X15943Y230D01*
X15942Y231D01*
X15941Y232D01*
X15937Y234D01*
X15932Y236D01*
X15931Y236D01*
X15930Y237D01*
X15918Y239D01*
X15916Y239D01*
X15915Y239D01*
X15730Y239D01*
X15680Y289D01*
X15675Y293D01*
X15671Y296D01*
X15671Y297D01*
X15670Y297D01*
X15665Y299D01*
X15660Y302D01*
X15659Y302D01*
X15653Y303D01*
X15648Y304D01*
X15647Y304D01*
X15646Y304D01*
X15641Y303D01*
X15635Y303D01*
X15634Y303D01*
X15629Y301D01*
X15623Y299D01*
X15623Y298D01*
X15622Y298D01*
X15618Y295D01*
X15613Y292D01*
X15612Y291D01*
X15608Y287D01*
X15605Y283D01*
X15604Y282D01*
X15601Y277D01*
X15599Y272D01*
X15599Y271D01*
X15598Y271D01*
X15596Y258D01*
X15596Y256D01*
X15596Y255D01*
X15596Y-93D01*
X15557Y-131D01*
X15003Y-131D01*
G37*
%LPD*%
%LPC*%
G36*
X24055Y19878D02*
X24055Y19878D01*
X23764Y19998D01*
X23542Y20221D01*
X23421Y20512D01*
X23421Y20827D01*
X23542Y21118D01*
X23764Y21340D01*
X24055Y21461D01*
X24370Y21461D01*
X24661Y21340D01*
X24883Y21118D01*
X25004Y20827D01*
X25004Y20512D01*
X24883Y20221D01*
X24661Y19998D01*
X24370Y19878D01*
X24055Y19878D01*
G37*
%LPD*%
%LPC*%
G36*
X1221Y587D02*
X1221Y587D01*
X930Y707D01*
X707Y930D01*
X587Y1221D01*
X587Y1535D01*
X707Y1826D01*
X930Y2049D01*
X1221Y2169D01*
X1535Y2169D01*
X1826Y2049D01*
X2049Y1826D01*
X2169Y1535D01*
X2169Y1221D01*
X2049Y930D01*
X1826Y707D01*
X1535Y587D01*
X1221Y587D01*
G37*
%LPD*%
%LPC*%
G36*
X24055Y587D02*
X24055Y587D01*
X23764Y707D01*
X23542Y930D01*
X23421Y1221D01*
X23421Y1535D01*
X23542Y1826D01*
X23764Y2049D01*
X24055Y2169D01*
X24370Y2169D01*
X24661Y2049D01*
X24883Y1826D01*
X25004Y1535D01*
X25004Y1221D01*
X24883Y930D01*
X24661Y707D01*
X24370Y587D01*
X24055Y587D01*
G37*
%LPD*%
%LPC*%
G36*
X1221Y19878D02*
X1221Y19878D01*
X930Y19998D01*
X707Y20221D01*
X587Y20512D01*
X587Y20827D01*
X707Y21118D01*
X930Y21340D01*
X1221Y21461D01*
X1535Y21461D01*
X1826Y21340D01*
X2049Y21118D01*
X2169Y20827D01*
X2169Y20512D01*
X2049Y20221D01*
X1826Y19998D01*
X1535Y19878D01*
X1221Y19878D01*
G37*
%LPD*%
%LPC*%
G36*
X10003Y-131D02*
X10003Y-131D01*
X9964Y-93D01*
X9964Y863D01*
X10003Y902D01*
X10557Y902D01*
X10596Y863D01*
X10596Y536D01*
X10596Y530D01*
X10597Y525D01*
X10597Y524D01*
X10599Y518D01*
X10601Y513D01*
X10602Y513D01*
X10602Y512D01*
X10605Y508D01*
X10608Y503D01*
X10609Y503D01*
X10609Y502D01*
X10614Y499D01*
X10618Y495D01*
X10619Y494D01*
X10624Y492D01*
X10629Y489D01*
X10630Y489D01*
X10636Y488D01*
X10641Y487D01*
X10642Y487D01*
X10648Y487D01*
X10654Y487D01*
X10654Y488D01*
X10655Y488D01*
X10660Y490D01*
X10665Y491D01*
X10666Y491D01*
X10667Y492D01*
X10677Y499D01*
X10679Y500D01*
X10680Y501D01*
X10723Y545D01*
X10877Y545D01*
X10880Y541D01*
X10885Y538D01*
X10889Y534D01*
X10890Y534D01*
X10895Y531D01*
X10900Y529D01*
X10901Y529D01*
X10907Y528D01*
X10912Y527D01*
X10913Y527D01*
X10914Y527D01*
X10919Y527D01*
X10925Y528D01*
X10926Y528D01*
X10931Y530D01*
X10937Y532D01*
X10938Y532D01*
X10942Y535D01*
X10947Y539D01*
X10948Y539D01*
X10952Y544D01*
X10955Y548D01*
X10956Y548D01*
X10956Y549D01*
X10959Y554D01*
X10961Y559D01*
X10962Y560D01*
X10964Y572D01*
X10964Y575D01*
X10964Y576D01*
X10964Y863D01*
X11003Y902D01*
X11557Y902D01*
X11596Y863D01*
X11596Y-93D01*
X11557Y-131D01*
X11003Y-131D01*
X10964Y-93D01*
X10964Y144D01*
X10964Y150D01*
X10963Y155D01*
X10963Y156D01*
X10961Y162D01*
X10959Y167D01*
X10958Y167D01*
X10958Y168D01*
X10955Y172D01*
X10952Y177D01*
X10951Y177D01*
X10951Y178D01*
X10946Y181D01*
X10942Y185D01*
X10941Y186D01*
X10936Y188D01*
X10931Y191D01*
X10930Y191D01*
X10924Y192D01*
X10919Y193D01*
X10918Y193D01*
X10912Y193D01*
X10906Y193D01*
X10906Y192D01*
X10905Y192D01*
X10900Y190D01*
X10895Y189D01*
X10894Y189D01*
X10893Y188D01*
X10883Y181D01*
X10881Y180D01*
X10880Y179D01*
X10877Y175D01*
X10723Y175D01*
X10680Y219D01*
X10675Y222D01*
X10671Y226D01*
X10670Y226D01*
X10665Y229D01*
X10660Y231D01*
X10659Y231D01*
X10653Y232D01*
X10648Y233D01*
X10647Y233D01*
X10646Y233D01*
X10641Y233D01*
X10635Y232D01*
X10634Y232D01*
X10629Y230D01*
X10623Y228D01*
X10622Y228D01*
X10618Y225D01*
X10613Y221D01*
X10612Y221D01*
X10608Y216D01*
X10605Y212D01*
X10604Y212D01*
X10604Y211D01*
X10601Y206D01*
X10599Y201D01*
X10598Y200D01*
X10596Y188D01*
X10596Y185D01*
X10596Y184D01*
X10596Y-93D01*
X10557Y-131D01*
X10003Y-131D01*
G37*
%LPD*%
%LPC*%
G36*
X20898Y15742D02*
X20898Y15742D01*
X20729Y15812D01*
X20599Y15942D01*
X20529Y16112D01*
X20529Y17086D01*
X20599Y17256D01*
X20729Y17386D01*
X20898Y17456D01*
X21082Y17456D01*
X21251Y17386D01*
X21381Y17256D01*
X21451Y17086D01*
X21451Y16112D01*
X21381Y15942D01*
X21251Y15812D01*
X21082Y15742D01*
X20898Y15742D01*
G37*
%LPD*%
%LPC*%
G36*
X20003Y-131D02*
X20003Y-131D01*
X19964Y-93D01*
X19964Y250D01*
X19964Y255D01*
X19963Y260D01*
X19963Y261D01*
X19963Y262D01*
X19961Y267D01*
X19959Y272D01*
X19959Y273D01*
X19958Y274D01*
X19955Y278D01*
X19952Y282D01*
X19951Y283D01*
X19951Y284D01*
X19947Y287D01*
X19943Y290D01*
X19942Y291D01*
X19941Y292D01*
X19937Y294D01*
X19932Y296D01*
X19931Y296D01*
X19930Y297D01*
X19918Y299D01*
X19916Y299D01*
X19915Y299D01*
X19810Y299D01*
X19739Y370D01*
X19739Y859D01*
X19739Y863D01*
X19739Y868D01*
X19738Y869D01*
X19738Y871D01*
X19736Y875D01*
X19735Y879D01*
X19734Y881D01*
X19733Y883D01*
X19726Y893D01*
X19725Y893D01*
X19725Y894D01*
X19675Y943D01*
X19675Y1097D01*
X19725Y1146D01*
X19727Y1150D01*
X19730Y1153D01*
X19731Y1154D01*
X19732Y1156D01*
X19734Y1160D01*
X19736Y1164D01*
X19736Y1165D01*
X19737Y1167D01*
X19739Y1180D01*
X19739Y1181D01*
X19739Y1250D01*
X19810Y1321D01*
X20179Y1321D01*
X20183Y1321D01*
X20188Y1321D01*
X20189Y1322D01*
X20191Y1322D01*
X20195Y1324D01*
X20198Y1325D01*
X20362Y1325D01*
X20364Y1324D01*
X20365Y1324D01*
X20367Y1323D01*
X20380Y1321D01*
X20381Y1321D01*
X20750Y1321D01*
X20821Y1250D01*
X20821Y1181D01*
X20821Y1177D01*
X20821Y1172D01*
X20822Y1171D01*
X20822Y1169D01*
X20824Y1165D01*
X20825Y1161D01*
X20826Y1159D01*
X20827Y1157D01*
X20834Y1147D01*
X20835Y1147D01*
X20835Y1146D01*
X20885Y1097D01*
X20885Y943D01*
X20835Y894D01*
X20833Y890D01*
X20830Y887D01*
X20829Y886D01*
X20828Y884D01*
X20826Y880D01*
X20824Y876D01*
X20824Y875D01*
X20823Y873D01*
X20821Y860D01*
X20821Y859D01*
X20821Y370D01*
X20750Y299D01*
X20645Y299D01*
X20640Y299D01*
X20635Y298D01*
X20634Y298D01*
X20633Y298D01*
X20628Y296D01*
X20623Y294D01*
X20622Y294D01*
X20621Y293D01*
X20617Y290D01*
X20613Y287D01*
X20612Y286D01*
X20611Y286D01*
X20608Y282D01*
X20605Y278D01*
X20604Y277D01*
X20603Y276D01*
X20601Y272D01*
X20599Y267D01*
X20599Y266D01*
X20598Y265D01*
X20596Y253D01*
X20596Y251D01*
X20596Y250D01*
X20596Y-93D01*
X20557Y-131D01*
X20003Y-131D01*
G37*
%LPD*%
%LPC*%
G36*
X3157Y18976D02*
X3157Y18976D01*
X3003Y19040D01*
X2885Y19158D01*
X2821Y19312D01*
X2821Y20188D01*
X2885Y20342D01*
X3003Y20460D01*
X3157Y20524D01*
X3325Y20524D01*
X3479Y20460D01*
X3597Y20342D01*
X3661Y20188D01*
X3661Y19312D01*
X3597Y19158D01*
X3479Y19040D01*
X3325Y18976D01*
X3157Y18976D01*
G37*
%LPD*%
%LPC*%
G36*
X15727Y18976D02*
X15727Y18976D01*
X15573Y19040D01*
X15455Y19158D01*
X15391Y19312D01*
X15391Y20188D01*
X15455Y20342D01*
X15573Y20460D01*
X15727Y20524D01*
X15895Y20524D01*
X16049Y20460D01*
X16167Y20342D01*
X16231Y20188D01*
X16231Y19312D01*
X16167Y19158D01*
X16049Y19040D01*
X15895Y18976D01*
X15727Y18976D01*
G37*
%LPD*%
%LPC*%
G36*
X8727Y18976D02*
X8727Y18976D01*
X8573Y19040D01*
X8455Y19158D01*
X8391Y19312D01*
X8391Y20188D01*
X8455Y20342D01*
X8573Y20460D01*
X8727Y20524D01*
X8895Y20524D01*
X9049Y20460D01*
X9167Y20342D01*
X9231Y20188D01*
X9231Y19312D01*
X9167Y19158D01*
X9049Y19040D01*
X8895Y18976D01*
X8727Y18976D01*
G37*
%LPD*%
G36*
X21831Y261D02*
X21831Y261D01*
X21832Y261D01*
X21833Y261D01*
X21834Y261D01*
X22255Y261D01*
X22257Y261D01*
X22258Y261D01*
X22265Y262D01*
X22273Y262D01*
X22274Y263D01*
X22276Y263D01*
X22280Y264D01*
X22284Y264D01*
X22291Y262D01*
X22292Y262D01*
X22294Y261D01*
X22305Y261D01*
X22728Y261D01*
X22730Y261D01*
X22800Y261D01*
X22802Y261D01*
X22803Y261D01*
X22810Y262D01*
X22818Y262D01*
X22819Y263D01*
X22821Y263D01*
X22828Y265D01*
X22835Y267D01*
X22836Y268D01*
X22838Y268D01*
X22844Y271D01*
X22851Y275D01*
X22852Y276D01*
X22853Y276D01*
X22859Y281D01*
X22865Y285D01*
X22866Y286D01*
X22867Y287D01*
X22872Y292D01*
X22877Y298D01*
X22878Y299D01*
X22879Y300D01*
X22883Y306D01*
X22887Y312D01*
X22888Y314D01*
X22889Y315D01*
X22891Y322D01*
X22894Y328D01*
X22894Y330D01*
X22895Y332D01*
X22897Y339D01*
X22898Y346D01*
X22898Y347D01*
X22899Y349D01*
X22899Y360D01*
X22899Y1080D01*
X22899Y1082D01*
X22899Y1083D01*
X22898Y1090D01*
X22898Y1098D01*
X22897Y1099D01*
X22897Y1101D01*
X22895Y1108D01*
X22893Y1115D01*
X22892Y1116D01*
X22892Y1118D01*
X22889Y1124D01*
X22885Y1131D01*
X22884Y1132D01*
X22884Y1133D01*
X22879Y1139D01*
X22875Y1145D01*
X22874Y1146D01*
X22873Y1147D01*
X22868Y1152D01*
X22862Y1157D01*
X22861Y1158D01*
X22860Y1159D01*
X22854Y1163D01*
X22848Y1167D01*
X22846Y1168D01*
X22845Y1169D01*
X22838Y1171D01*
X22832Y1174D01*
X22830Y1174D01*
X22828Y1175D01*
X22821Y1177D01*
X22814Y1178D01*
X22813Y1178D01*
X22811Y1179D01*
X22800Y1179D01*
X22722Y1179D01*
X22715Y1179D01*
X22708Y1178D01*
X22706Y1178D01*
X22704Y1178D01*
X22697Y1176D01*
X22691Y1174D01*
X22689Y1174D01*
X22687Y1173D01*
X22681Y1170D01*
X22680Y1170D01*
X22597Y1135D01*
X22523Y1135D01*
X22444Y1168D01*
X22443Y1169D01*
X22441Y1169D01*
X22440Y1170D01*
X22433Y1173D01*
X22427Y1175D01*
X22425Y1175D01*
X22423Y1176D01*
X22416Y1177D01*
X22409Y1179D01*
X22407Y1179D01*
X22406Y1179D01*
X22404Y1179D01*
X22398Y1179D01*
X22122Y1179D01*
X22115Y1179D01*
X22108Y1178D01*
X22106Y1178D01*
X22104Y1178D01*
X22097Y1176D01*
X22091Y1174D01*
X22089Y1174D01*
X22087Y1173D01*
X22081Y1170D01*
X22080Y1170D01*
X21997Y1135D01*
X21923Y1135D01*
X21844Y1168D01*
X21843Y1169D01*
X21841Y1169D01*
X21840Y1170D01*
X21833Y1173D01*
X21827Y1175D01*
X21825Y1175D01*
X21823Y1176D01*
X21816Y1177D01*
X21809Y1179D01*
X21807Y1179D01*
X21806Y1179D01*
X21804Y1179D01*
X21798Y1179D01*
X21720Y1179D01*
X21718Y1179D01*
X21717Y1179D01*
X21710Y1178D01*
X21702Y1178D01*
X21701Y1177D01*
X21699Y1177D01*
X21692Y1175D01*
X21685Y1173D01*
X21684Y1172D01*
X21682Y1172D01*
X21676Y1169D01*
X21669Y1165D01*
X21668Y1164D01*
X21667Y1164D01*
X21661Y1159D01*
X21655Y1155D01*
X21654Y1154D01*
X21653Y1153D01*
X21648Y1148D01*
X21643Y1142D01*
X21642Y1141D01*
X21641Y1140D01*
X21637Y1134D01*
X21633Y1128D01*
X21632Y1126D01*
X21631Y1125D01*
X21629Y1118D01*
X21626Y1112D01*
X21626Y1110D01*
X21625Y1108D01*
X21623Y1101D01*
X21622Y1094D01*
X21622Y1093D01*
X21621Y1091D01*
X21621Y1080D01*
X21621Y360D01*
X21621Y358D01*
X21621Y357D01*
X21622Y350D01*
X21622Y342D01*
X21623Y341D01*
X21623Y339D01*
X21625Y332D01*
X21627Y325D01*
X21628Y324D01*
X21628Y322D01*
X21631Y316D01*
X21635Y309D01*
X21636Y308D01*
X21636Y307D01*
X21641Y301D01*
X21645Y295D01*
X21646Y294D01*
X21647Y293D01*
X21652Y288D01*
X21658Y283D01*
X21659Y282D01*
X21660Y281D01*
X21666Y277D01*
X21672Y273D01*
X21674Y272D01*
X21675Y271D01*
X21682Y269D01*
X21688Y266D01*
X21690Y266D01*
X21692Y265D01*
X21699Y263D01*
X21706Y262D01*
X21707Y262D01*
X21709Y261D01*
X21720Y261D01*
X21830Y261D01*
X21831Y261D01*
G37*
G36*
X8821Y1561D02*
X8821Y1561D01*
X8823Y1561D01*
X8828Y1562D01*
X8834Y1562D01*
X8835Y1563D01*
X8836Y1563D01*
X8841Y1565D01*
X8846Y1567D01*
X8847Y1568D01*
X8849Y1568D01*
X8853Y1571D01*
X8858Y1574D01*
X8859Y1575D01*
X8860Y1576D01*
X8863Y1580D01*
X8867Y1584D01*
X8868Y1585D01*
X8869Y1586D01*
X8871Y1591D01*
X8874Y1596D01*
X8875Y1597D01*
X8875Y1598D01*
X8877Y1604D01*
X8878Y1609D01*
X8878Y1610D01*
X8879Y1612D01*
X8879Y1620D01*
X8879Y2400D01*
X8879Y2401D01*
X8879Y2403D01*
X8878Y2408D01*
X8878Y2414D01*
X8877Y2415D01*
X8877Y2416D01*
X8875Y2421D01*
X8873Y2426D01*
X8872Y2427D01*
X8872Y2429D01*
X8869Y2433D01*
X8866Y2438D01*
X8865Y2439D01*
X8864Y2440D01*
X8860Y2443D01*
X8856Y2447D01*
X8855Y2448D01*
X8854Y2449D01*
X8849Y2451D01*
X8844Y2454D01*
X8843Y2455D01*
X8842Y2455D01*
X8836Y2457D01*
X8831Y2458D01*
X8830Y2458D01*
X8828Y2459D01*
X8820Y2459D01*
X8340Y2459D01*
X8339Y2459D01*
X8337Y2459D01*
X8332Y2458D01*
X8326Y2458D01*
X8325Y2457D01*
X8324Y2457D01*
X8319Y2455D01*
X8314Y2453D01*
X8313Y2452D01*
X8311Y2452D01*
X8307Y2449D01*
X8302Y2446D01*
X8301Y2445D01*
X8300Y2444D01*
X8297Y2440D01*
X8293Y2436D01*
X8292Y2435D01*
X8291Y2434D01*
X8289Y2429D01*
X8286Y2424D01*
X8285Y2423D01*
X8285Y2422D01*
X8283Y2416D01*
X8282Y2411D01*
X8282Y2410D01*
X8281Y2408D01*
X8281Y2400D01*
X8281Y2374D01*
X8279Y2374D01*
X8279Y2400D01*
X8279Y2401D01*
X8279Y2403D01*
X8278Y2408D01*
X8278Y2414D01*
X8277Y2415D01*
X8277Y2416D01*
X8275Y2421D01*
X8273Y2426D01*
X8272Y2427D01*
X8272Y2429D01*
X8269Y2433D01*
X8266Y2438D01*
X8265Y2439D01*
X8264Y2440D01*
X8260Y2443D01*
X8256Y2447D01*
X8255Y2448D01*
X8254Y2449D01*
X8249Y2451D01*
X8244Y2454D01*
X8243Y2455D01*
X8242Y2455D01*
X8236Y2457D01*
X8231Y2458D01*
X8230Y2458D01*
X8228Y2459D01*
X8220Y2459D01*
X7740Y2459D01*
X7739Y2459D01*
X7737Y2459D01*
X7732Y2458D01*
X7726Y2458D01*
X7725Y2457D01*
X7724Y2457D01*
X7719Y2455D01*
X7714Y2453D01*
X7713Y2452D01*
X7711Y2452D01*
X7707Y2449D01*
X7702Y2446D01*
X7701Y2445D01*
X7700Y2444D01*
X7697Y2440D01*
X7693Y2436D01*
X7692Y2435D01*
X7691Y2434D01*
X7689Y2429D01*
X7686Y2424D01*
X7685Y2423D01*
X7685Y2422D01*
X7683Y2416D01*
X7682Y2411D01*
X7682Y2410D01*
X7681Y2408D01*
X7681Y2400D01*
X7681Y1620D01*
X7681Y1619D01*
X7681Y1617D01*
X7682Y1612D01*
X7682Y1606D01*
X7683Y1605D01*
X7683Y1604D01*
X7685Y1599D01*
X7687Y1594D01*
X7688Y1593D01*
X7688Y1591D01*
X7691Y1587D01*
X7694Y1582D01*
X7695Y1581D01*
X7696Y1580D01*
X7700Y1577D01*
X7704Y1573D01*
X7705Y1572D01*
X7706Y1571D01*
X7711Y1569D01*
X7716Y1566D01*
X7717Y1565D01*
X7718Y1565D01*
X7724Y1563D01*
X7729Y1562D01*
X7730Y1562D01*
X7732Y1561D01*
X7740Y1561D01*
X8820Y1561D01*
X8821Y1561D01*
G37*
G36*
X6221Y301D02*
X6221Y301D01*
X6223Y301D01*
X6228Y302D01*
X6234Y302D01*
X6235Y303D01*
X6236Y303D01*
X6241Y305D01*
X6246Y307D01*
X6247Y308D01*
X6249Y308D01*
X6253Y311D01*
X6258Y314D01*
X6259Y315D01*
X6260Y316D01*
X6263Y320D01*
X6267Y324D01*
X6268Y325D01*
X6269Y326D01*
X6271Y331D01*
X6274Y336D01*
X6275Y337D01*
X6275Y338D01*
X6277Y344D01*
X6278Y349D01*
X6278Y350D01*
X6279Y352D01*
X6279Y360D01*
X6279Y386D01*
X6281Y386D01*
X6281Y360D01*
X6281Y359D01*
X6281Y357D01*
X6282Y352D01*
X6282Y346D01*
X6283Y345D01*
X6283Y344D01*
X6285Y339D01*
X6287Y334D01*
X6288Y333D01*
X6288Y331D01*
X6291Y327D01*
X6294Y322D01*
X6295Y321D01*
X6296Y320D01*
X6300Y317D01*
X6304Y313D01*
X6305Y312D01*
X6306Y311D01*
X6311Y309D01*
X6316Y306D01*
X6317Y305D01*
X6318Y305D01*
X6324Y303D01*
X6329Y302D01*
X6330Y302D01*
X6332Y301D01*
X6340Y301D01*
X6780Y301D01*
X6781Y301D01*
X6783Y301D01*
X6788Y302D01*
X6794Y302D01*
X6795Y303D01*
X6796Y303D01*
X6801Y305D01*
X6806Y307D01*
X6807Y308D01*
X6809Y308D01*
X6813Y311D01*
X6818Y314D01*
X6819Y315D01*
X6820Y316D01*
X6823Y320D01*
X6827Y324D01*
X6828Y325D01*
X6829Y326D01*
X6831Y331D01*
X6834Y336D01*
X6835Y337D01*
X6835Y338D01*
X6837Y344D01*
X6838Y349D01*
X6838Y350D01*
X6839Y352D01*
X6839Y360D01*
X6839Y1140D01*
X6839Y1141D01*
X6839Y1143D01*
X6838Y1148D01*
X6838Y1154D01*
X6837Y1155D01*
X6837Y1156D01*
X6835Y1161D01*
X6833Y1166D01*
X6832Y1167D01*
X6832Y1169D01*
X6829Y1173D01*
X6826Y1178D01*
X6825Y1179D01*
X6824Y1180D01*
X6820Y1183D01*
X6816Y1187D01*
X6815Y1188D01*
X6814Y1189D01*
X6809Y1191D01*
X6804Y1194D01*
X6803Y1195D01*
X6802Y1195D01*
X6796Y1197D01*
X6791Y1198D01*
X6790Y1198D01*
X6788Y1199D01*
X6780Y1199D01*
X6598Y1199D01*
X6597Y1199D01*
X6591Y1198D01*
X6585Y1198D01*
X6584Y1197D01*
X6577Y1195D01*
X6503Y1195D01*
X6497Y1197D01*
X6491Y1198D01*
X6491Y1199D01*
X6490Y1199D01*
X6482Y1199D01*
X5998Y1199D01*
X5997Y1199D01*
X5991Y1198D01*
X5985Y1198D01*
X5984Y1197D01*
X5977Y1195D01*
X5903Y1195D01*
X5897Y1197D01*
X5891Y1198D01*
X5891Y1199D01*
X5890Y1199D01*
X5882Y1199D01*
X5700Y1199D01*
X5699Y1199D01*
X5697Y1199D01*
X5692Y1198D01*
X5686Y1198D01*
X5685Y1197D01*
X5684Y1197D01*
X5679Y1195D01*
X5674Y1193D01*
X5673Y1192D01*
X5671Y1192D01*
X5667Y1189D01*
X5662Y1186D01*
X5661Y1185D01*
X5660Y1184D01*
X5657Y1180D01*
X5653Y1176D01*
X5652Y1175D01*
X5651Y1174D01*
X5649Y1169D01*
X5646Y1164D01*
X5645Y1163D01*
X5645Y1162D01*
X5643Y1156D01*
X5642Y1151D01*
X5642Y1150D01*
X5641Y1148D01*
X5641Y1140D01*
X5641Y360D01*
X5641Y359D01*
X5641Y357D01*
X5642Y352D01*
X5642Y346D01*
X5643Y345D01*
X5643Y344D01*
X5645Y339D01*
X5647Y334D01*
X5648Y333D01*
X5648Y331D01*
X5651Y327D01*
X5654Y322D01*
X5655Y321D01*
X5656Y320D01*
X5660Y317D01*
X5664Y313D01*
X5665Y312D01*
X5666Y311D01*
X5671Y309D01*
X5676Y306D01*
X5677Y305D01*
X5678Y305D01*
X5684Y303D01*
X5689Y302D01*
X5690Y302D01*
X5692Y301D01*
X5700Y301D01*
X6220Y301D01*
X6221Y301D01*
G37*
G36*
X13221Y301D02*
X13221Y301D01*
X13223Y301D01*
X13228Y302D01*
X13234Y302D01*
X13235Y303D01*
X13236Y303D01*
X13241Y305D01*
X13246Y307D01*
X13247Y308D01*
X13249Y308D01*
X13253Y311D01*
X13258Y314D01*
X13259Y315D01*
X13260Y316D01*
X13263Y320D01*
X13267Y324D01*
X13268Y325D01*
X13269Y326D01*
X13271Y331D01*
X13274Y336D01*
X13275Y337D01*
X13275Y338D01*
X13277Y344D01*
X13278Y349D01*
X13278Y350D01*
X13279Y352D01*
X13279Y360D01*
X13279Y386D01*
X13281Y386D01*
X13281Y360D01*
X13281Y359D01*
X13281Y357D01*
X13282Y352D01*
X13282Y346D01*
X13283Y345D01*
X13283Y344D01*
X13285Y339D01*
X13287Y334D01*
X13288Y333D01*
X13288Y331D01*
X13291Y327D01*
X13294Y322D01*
X13295Y321D01*
X13296Y320D01*
X13300Y317D01*
X13304Y313D01*
X13305Y312D01*
X13306Y311D01*
X13311Y309D01*
X13316Y306D01*
X13317Y305D01*
X13318Y305D01*
X13324Y303D01*
X13329Y302D01*
X13330Y302D01*
X13332Y301D01*
X13340Y301D01*
X13860Y301D01*
X13861Y301D01*
X13863Y301D01*
X13868Y302D01*
X13874Y302D01*
X13875Y303D01*
X13876Y303D01*
X13881Y305D01*
X13886Y307D01*
X13887Y308D01*
X13889Y308D01*
X13893Y311D01*
X13898Y314D01*
X13899Y315D01*
X13900Y316D01*
X13903Y320D01*
X13907Y324D01*
X13908Y325D01*
X13909Y326D01*
X13911Y331D01*
X13914Y336D01*
X13915Y337D01*
X13915Y338D01*
X13917Y344D01*
X13918Y349D01*
X13918Y350D01*
X13919Y352D01*
X13919Y360D01*
X13919Y1140D01*
X13919Y1141D01*
X13919Y1143D01*
X13918Y1148D01*
X13918Y1154D01*
X13917Y1155D01*
X13917Y1156D01*
X13915Y1161D01*
X13913Y1166D01*
X13912Y1167D01*
X13912Y1169D01*
X13909Y1173D01*
X13906Y1178D01*
X13905Y1179D01*
X13904Y1180D01*
X13900Y1183D01*
X13896Y1187D01*
X13895Y1188D01*
X13894Y1189D01*
X13889Y1191D01*
X13884Y1194D01*
X13883Y1195D01*
X13882Y1195D01*
X13876Y1197D01*
X13871Y1198D01*
X13870Y1198D01*
X13868Y1199D01*
X13860Y1199D01*
X13678Y1199D01*
X13677Y1199D01*
X13671Y1198D01*
X13665Y1198D01*
X13664Y1197D01*
X13657Y1195D01*
X13583Y1195D01*
X13577Y1197D01*
X13571Y1198D01*
X13571Y1199D01*
X13570Y1199D01*
X13562Y1199D01*
X13078Y1199D01*
X13077Y1199D01*
X13071Y1198D01*
X13065Y1198D01*
X13064Y1197D01*
X13057Y1195D01*
X12983Y1195D01*
X12977Y1197D01*
X12971Y1198D01*
X12971Y1199D01*
X12970Y1199D01*
X12962Y1199D01*
X12780Y1199D01*
X12779Y1199D01*
X12777Y1199D01*
X12772Y1198D01*
X12766Y1198D01*
X12765Y1197D01*
X12764Y1197D01*
X12759Y1195D01*
X12754Y1193D01*
X12753Y1192D01*
X12751Y1192D01*
X12747Y1189D01*
X12742Y1186D01*
X12741Y1185D01*
X12740Y1184D01*
X12737Y1180D01*
X12733Y1176D01*
X12732Y1175D01*
X12731Y1174D01*
X12729Y1169D01*
X12726Y1164D01*
X12725Y1163D01*
X12725Y1162D01*
X12723Y1156D01*
X12722Y1151D01*
X12722Y1150D01*
X12721Y1148D01*
X12721Y1140D01*
X12721Y360D01*
X12721Y359D01*
X12721Y357D01*
X12722Y352D01*
X12722Y346D01*
X12723Y345D01*
X12723Y344D01*
X12725Y339D01*
X12727Y334D01*
X12728Y333D01*
X12728Y331D01*
X12731Y327D01*
X12734Y322D01*
X12735Y321D01*
X12736Y320D01*
X12740Y317D01*
X12744Y313D01*
X12745Y312D01*
X12746Y311D01*
X12751Y309D01*
X12756Y306D01*
X12757Y305D01*
X12758Y305D01*
X12764Y303D01*
X12769Y302D01*
X12770Y302D01*
X12772Y301D01*
X12780Y301D01*
X13220Y301D01*
X13221Y301D01*
G37*
G36*
X8221Y301D02*
X8221Y301D01*
X8223Y301D01*
X8228Y302D01*
X8234Y302D01*
X8235Y303D01*
X8236Y303D01*
X8241Y305D01*
X8246Y307D01*
X8247Y308D01*
X8249Y308D01*
X8253Y311D01*
X8258Y314D01*
X8259Y315D01*
X8260Y316D01*
X8263Y320D01*
X8267Y324D01*
X8268Y325D01*
X8269Y326D01*
X8271Y331D01*
X8274Y336D01*
X8275Y337D01*
X8275Y338D01*
X8277Y344D01*
X8278Y349D01*
X8278Y350D01*
X8279Y352D01*
X8279Y360D01*
X8279Y386D01*
X8281Y386D01*
X8281Y360D01*
X8281Y359D01*
X8281Y357D01*
X8282Y352D01*
X8282Y346D01*
X8283Y345D01*
X8283Y344D01*
X8285Y339D01*
X8287Y334D01*
X8288Y333D01*
X8288Y331D01*
X8291Y327D01*
X8294Y322D01*
X8295Y321D01*
X8296Y320D01*
X8300Y317D01*
X8304Y313D01*
X8305Y312D01*
X8306Y311D01*
X8311Y309D01*
X8316Y306D01*
X8317Y305D01*
X8318Y305D01*
X8324Y303D01*
X8329Y302D01*
X8330Y302D01*
X8332Y301D01*
X8340Y301D01*
X8820Y301D01*
X8821Y301D01*
X8823Y301D01*
X8828Y302D01*
X8834Y302D01*
X8835Y303D01*
X8836Y303D01*
X8841Y305D01*
X8846Y307D01*
X8847Y308D01*
X8849Y308D01*
X8853Y311D01*
X8858Y314D01*
X8859Y315D01*
X8860Y316D01*
X8863Y320D01*
X8867Y324D01*
X8868Y325D01*
X8869Y326D01*
X8871Y331D01*
X8874Y336D01*
X8875Y337D01*
X8875Y338D01*
X8877Y344D01*
X8878Y349D01*
X8878Y350D01*
X8879Y352D01*
X8879Y360D01*
X8879Y1140D01*
X8879Y1141D01*
X8879Y1143D01*
X8878Y1148D01*
X8878Y1154D01*
X8877Y1155D01*
X8877Y1156D01*
X8875Y1161D01*
X8873Y1166D01*
X8872Y1167D01*
X8872Y1169D01*
X8869Y1173D01*
X8866Y1178D01*
X8865Y1179D01*
X8864Y1180D01*
X8860Y1183D01*
X8856Y1187D01*
X8855Y1188D01*
X8854Y1189D01*
X8849Y1191D01*
X8844Y1194D01*
X8843Y1195D01*
X8842Y1195D01*
X8836Y1197D01*
X8831Y1198D01*
X8830Y1198D01*
X8828Y1199D01*
X8820Y1199D01*
X8635Y1199D01*
X8634Y1199D01*
X8633Y1199D01*
X8627Y1198D01*
X8621Y1198D01*
X8620Y1197D01*
X8612Y1195D01*
X8577Y1180D01*
X8503Y1180D01*
X8468Y1195D01*
X8467Y1195D01*
X8461Y1197D01*
X8455Y1198D01*
X8454Y1199D01*
X8445Y1199D01*
X8095Y1199D01*
X8094Y1199D01*
X8093Y1199D01*
X8087Y1198D01*
X8081Y1198D01*
X8080Y1197D01*
X8072Y1195D01*
X8037Y1180D01*
X7963Y1180D01*
X7928Y1195D01*
X7927Y1195D01*
X7921Y1197D01*
X7915Y1198D01*
X7914Y1199D01*
X7905Y1199D01*
X7740Y1199D01*
X7739Y1199D01*
X7737Y1199D01*
X7732Y1198D01*
X7726Y1198D01*
X7725Y1197D01*
X7724Y1197D01*
X7719Y1195D01*
X7714Y1193D01*
X7713Y1192D01*
X7711Y1192D01*
X7707Y1189D01*
X7702Y1186D01*
X7701Y1185D01*
X7700Y1184D01*
X7697Y1180D01*
X7693Y1176D01*
X7692Y1175D01*
X7691Y1174D01*
X7689Y1169D01*
X7686Y1164D01*
X7685Y1163D01*
X7685Y1162D01*
X7683Y1156D01*
X7682Y1151D01*
X7682Y1150D01*
X7681Y1148D01*
X7681Y1140D01*
X7681Y360D01*
X7681Y359D01*
X7681Y357D01*
X7682Y352D01*
X7682Y346D01*
X7683Y345D01*
X7683Y344D01*
X7685Y339D01*
X7687Y334D01*
X7688Y333D01*
X7688Y331D01*
X7691Y327D01*
X7694Y322D01*
X7695Y321D01*
X7696Y320D01*
X7700Y317D01*
X7704Y313D01*
X7705Y312D01*
X7706Y311D01*
X7711Y309D01*
X7716Y306D01*
X7717Y305D01*
X7718Y305D01*
X7724Y303D01*
X7729Y302D01*
X7730Y302D01*
X7732Y301D01*
X7740Y301D01*
X8220Y301D01*
X8221Y301D01*
G37*
G36*
X17942Y1501D02*
X17942Y1501D01*
X17943Y1501D01*
X17949Y1502D01*
X17955Y1502D01*
X17956Y1503D01*
X17963Y1505D01*
X18037Y1505D01*
X18043Y1503D01*
X18049Y1502D01*
X18049Y1501D01*
X18050Y1501D01*
X18058Y1501D01*
X18542Y1501D01*
X18543Y1501D01*
X18549Y1502D01*
X18555Y1502D01*
X18556Y1503D01*
X18563Y1505D01*
X18637Y1505D01*
X18643Y1503D01*
X18649Y1502D01*
X18649Y1501D01*
X18650Y1501D01*
X18658Y1501D01*
X18780Y1501D01*
X18781Y1501D01*
X18783Y1501D01*
X18788Y1502D01*
X18794Y1502D01*
X18795Y1503D01*
X18796Y1503D01*
X18801Y1505D01*
X18806Y1507D01*
X18807Y1508D01*
X18809Y1508D01*
X18813Y1511D01*
X18818Y1514D01*
X18819Y1515D01*
X18820Y1516D01*
X18823Y1520D01*
X18827Y1524D01*
X18828Y1525D01*
X18829Y1526D01*
X18831Y1531D01*
X18834Y1536D01*
X18835Y1537D01*
X18835Y1538D01*
X18837Y1544D01*
X18838Y1549D01*
X18838Y1550D01*
X18839Y1552D01*
X18839Y1560D01*
X18839Y2400D01*
X18839Y2401D01*
X18839Y2403D01*
X18838Y2408D01*
X18838Y2414D01*
X18837Y2415D01*
X18837Y2416D01*
X18835Y2421D01*
X18833Y2426D01*
X18832Y2427D01*
X18832Y2429D01*
X18829Y2433D01*
X18826Y2438D01*
X18825Y2439D01*
X18824Y2440D01*
X18820Y2443D01*
X18816Y2447D01*
X18815Y2448D01*
X18814Y2449D01*
X18809Y2451D01*
X18804Y2454D01*
X18803Y2455D01*
X18802Y2455D01*
X18796Y2457D01*
X18791Y2458D01*
X18790Y2458D01*
X18788Y2459D01*
X18780Y2459D01*
X18340Y2459D01*
X18339Y2459D01*
X18337Y2459D01*
X18332Y2458D01*
X18326Y2458D01*
X18325Y2457D01*
X18324Y2457D01*
X18319Y2455D01*
X18314Y2453D01*
X18313Y2452D01*
X18311Y2452D01*
X18307Y2449D01*
X18302Y2446D01*
X18301Y2445D01*
X18300Y2444D01*
X18297Y2440D01*
X18293Y2436D01*
X18292Y2435D01*
X18291Y2434D01*
X18289Y2429D01*
X18286Y2424D01*
X18285Y2423D01*
X18285Y2422D01*
X18283Y2416D01*
X18282Y2411D01*
X18282Y2410D01*
X18281Y2408D01*
X18281Y2400D01*
X18281Y2374D01*
X18279Y2374D01*
X18279Y2400D01*
X18279Y2401D01*
X18279Y2403D01*
X18278Y2408D01*
X18278Y2414D01*
X18277Y2415D01*
X18277Y2416D01*
X18275Y2421D01*
X18273Y2426D01*
X18272Y2427D01*
X18272Y2429D01*
X18269Y2433D01*
X18266Y2438D01*
X18265Y2439D01*
X18264Y2440D01*
X18260Y2443D01*
X18256Y2447D01*
X18255Y2448D01*
X18254Y2449D01*
X18249Y2451D01*
X18244Y2454D01*
X18243Y2455D01*
X18242Y2455D01*
X18236Y2457D01*
X18231Y2458D01*
X18230Y2458D01*
X18228Y2459D01*
X18220Y2459D01*
X17820Y2459D01*
X17819Y2459D01*
X17817Y2459D01*
X17812Y2458D01*
X17806Y2458D01*
X17805Y2457D01*
X17804Y2457D01*
X17799Y2455D01*
X17794Y2453D01*
X17793Y2452D01*
X17791Y2452D01*
X17787Y2449D01*
X17782Y2446D01*
X17781Y2445D01*
X17780Y2444D01*
X17777Y2440D01*
X17773Y2436D01*
X17772Y2435D01*
X17771Y2434D01*
X17769Y2429D01*
X17766Y2424D01*
X17765Y2423D01*
X17765Y2422D01*
X17763Y2416D01*
X17762Y2411D01*
X17762Y2410D01*
X17761Y2408D01*
X17761Y2400D01*
X17761Y1560D01*
X17761Y1559D01*
X17761Y1557D01*
X17762Y1552D01*
X17762Y1546D01*
X17763Y1545D01*
X17763Y1544D01*
X17765Y1539D01*
X17767Y1534D01*
X17768Y1533D01*
X17768Y1531D01*
X17771Y1527D01*
X17774Y1522D01*
X17775Y1521D01*
X17776Y1520D01*
X17780Y1517D01*
X17784Y1513D01*
X17785Y1512D01*
X17786Y1511D01*
X17791Y1509D01*
X17796Y1506D01*
X17797Y1505D01*
X17798Y1505D01*
X17804Y1503D01*
X17809Y1502D01*
X17810Y1502D01*
X17812Y1501D01*
X17820Y1501D01*
X17942Y1501D01*
X17942Y1501D01*
G37*
G36*
X3781Y1561D02*
X3781Y1561D01*
X3783Y1561D01*
X3788Y1562D01*
X3794Y1562D01*
X3795Y1563D01*
X3796Y1563D01*
X3801Y1565D01*
X3806Y1567D01*
X3807Y1568D01*
X3809Y1568D01*
X3813Y1571D01*
X3818Y1574D01*
X3819Y1575D01*
X3820Y1576D01*
X3823Y1580D01*
X3827Y1584D01*
X3828Y1585D01*
X3829Y1586D01*
X3831Y1591D01*
X3834Y1596D01*
X3835Y1597D01*
X3835Y1598D01*
X3837Y1604D01*
X3838Y1609D01*
X3838Y1610D01*
X3839Y1612D01*
X3839Y1620D01*
X3839Y2340D01*
X3839Y2341D01*
X3839Y2343D01*
X3838Y2348D01*
X3838Y2354D01*
X3837Y2355D01*
X3837Y2356D01*
X3835Y2361D01*
X3833Y2366D01*
X3832Y2367D01*
X3832Y2369D01*
X3829Y2373D01*
X3826Y2378D01*
X3825Y2379D01*
X3824Y2380D01*
X3820Y2383D01*
X3816Y2387D01*
X3815Y2388D01*
X3814Y2389D01*
X3809Y2391D01*
X3804Y2394D01*
X3803Y2395D01*
X3802Y2395D01*
X3796Y2397D01*
X3791Y2398D01*
X3790Y2398D01*
X3788Y2399D01*
X3780Y2399D01*
X3340Y2399D01*
X3339Y2399D01*
X3337Y2399D01*
X3332Y2398D01*
X3326Y2398D01*
X3325Y2397D01*
X3324Y2397D01*
X3319Y2395D01*
X3314Y2393D01*
X3313Y2392D01*
X3311Y2392D01*
X3307Y2389D01*
X3302Y2386D01*
X3301Y2385D01*
X3300Y2384D01*
X3297Y2380D01*
X3293Y2376D01*
X3292Y2375D01*
X3292Y2374D01*
X3268Y2374D01*
X3266Y2378D01*
X3265Y2379D01*
X3264Y2380D01*
X3260Y2383D01*
X3256Y2387D01*
X3255Y2388D01*
X3254Y2389D01*
X3249Y2391D01*
X3244Y2394D01*
X3243Y2395D01*
X3242Y2395D01*
X3236Y2397D01*
X3231Y2398D01*
X3230Y2398D01*
X3228Y2399D01*
X3220Y2399D01*
X2700Y2399D01*
X2699Y2399D01*
X2697Y2399D01*
X2692Y2398D01*
X2686Y2398D01*
X2685Y2397D01*
X2684Y2397D01*
X2679Y2395D01*
X2674Y2393D01*
X2673Y2392D01*
X2671Y2392D01*
X2667Y2389D01*
X2662Y2386D01*
X2661Y2385D01*
X2660Y2384D01*
X2657Y2380D01*
X2653Y2376D01*
X2652Y2375D01*
X2651Y2374D01*
X2649Y2369D01*
X2646Y2364D01*
X2645Y2363D01*
X2645Y2362D01*
X2643Y2356D01*
X2642Y2351D01*
X2642Y2350D01*
X2641Y2348D01*
X2641Y2340D01*
X2641Y1620D01*
X2641Y1619D01*
X2641Y1617D01*
X2642Y1612D01*
X2642Y1606D01*
X2643Y1605D01*
X2643Y1604D01*
X2645Y1599D01*
X2647Y1594D01*
X2648Y1593D01*
X2648Y1591D01*
X2651Y1587D01*
X2654Y1582D01*
X2655Y1581D01*
X2656Y1580D01*
X2660Y1577D01*
X2664Y1573D01*
X2665Y1572D01*
X2666Y1571D01*
X2671Y1569D01*
X2676Y1566D01*
X2677Y1565D01*
X2678Y1565D01*
X2684Y1563D01*
X2689Y1562D01*
X2690Y1562D01*
X2692Y1561D01*
X2700Y1561D01*
X3780Y1561D01*
X3781Y1561D01*
G37*
G36*
X16221Y301D02*
X16221Y301D01*
X16223Y301D01*
X16228Y302D01*
X16234Y302D01*
X16235Y303D01*
X16236Y303D01*
X16241Y305D01*
X16246Y307D01*
X16247Y308D01*
X16249Y308D01*
X16253Y311D01*
X16258Y314D01*
X16259Y315D01*
X16260Y316D01*
X16263Y320D01*
X16267Y324D01*
X16268Y325D01*
X16269Y326D01*
X16271Y331D01*
X16274Y336D01*
X16275Y337D01*
X16275Y338D01*
X16277Y344D01*
X16278Y349D01*
X16278Y350D01*
X16279Y352D01*
X16279Y360D01*
X16279Y386D01*
X16281Y386D01*
X16281Y360D01*
X16281Y359D01*
X16281Y357D01*
X16282Y352D01*
X16282Y346D01*
X16283Y345D01*
X16283Y344D01*
X16285Y339D01*
X16287Y334D01*
X16288Y333D01*
X16288Y331D01*
X16291Y327D01*
X16294Y322D01*
X16295Y321D01*
X16296Y320D01*
X16300Y317D01*
X16304Y313D01*
X16305Y312D01*
X16306Y311D01*
X16311Y309D01*
X16316Y306D01*
X16317Y305D01*
X16318Y305D01*
X16324Y303D01*
X16329Y302D01*
X16330Y302D01*
X16332Y301D01*
X16340Y301D01*
X16740Y301D01*
X16741Y301D01*
X16743Y301D01*
X16748Y302D01*
X16754Y302D01*
X16755Y303D01*
X16756Y303D01*
X16761Y305D01*
X16766Y307D01*
X16767Y308D01*
X16769Y308D01*
X16773Y311D01*
X16778Y314D01*
X16779Y315D01*
X16780Y316D01*
X16783Y320D01*
X16787Y324D01*
X16788Y325D01*
X16789Y326D01*
X16791Y331D01*
X16794Y336D01*
X16795Y337D01*
X16795Y338D01*
X16797Y344D01*
X16798Y349D01*
X16798Y350D01*
X16799Y352D01*
X16799Y360D01*
X16799Y1140D01*
X16799Y1141D01*
X16799Y1143D01*
X16798Y1148D01*
X16798Y1154D01*
X16797Y1155D01*
X16797Y1156D01*
X16795Y1161D01*
X16793Y1166D01*
X16792Y1167D01*
X16792Y1169D01*
X16789Y1173D01*
X16786Y1178D01*
X16785Y1179D01*
X16784Y1180D01*
X16780Y1183D01*
X16776Y1187D01*
X16775Y1188D01*
X16774Y1189D01*
X16769Y1191D01*
X16764Y1194D01*
X16763Y1195D01*
X16762Y1195D01*
X16756Y1197D01*
X16751Y1198D01*
X16750Y1198D01*
X16748Y1199D01*
X16740Y1199D01*
X16618Y1199D01*
X16617Y1199D01*
X16611Y1198D01*
X16605Y1198D01*
X16604Y1197D01*
X16597Y1195D01*
X16523Y1195D01*
X16517Y1197D01*
X16511Y1198D01*
X16511Y1199D01*
X16510Y1199D01*
X16502Y1199D01*
X16018Y1199D01*
X16017Y1199D01*
X16011Y1198D01*
X16005Y1198D01*
X16004Y1197D01*
X15997Y1195D01*
X15923Y1195D01*
X15917Y1197D01*
X15911Y1198D01*
X15911Y1199D01*
X15910Y1199D01*
X15902Y1199D01*
X15780Y1199D01*
X15779Y1199D01*
X15777Y1199D01*
X15772Y1198D01*
X15766Y1198D01*
X15765Y1197D01*
X15764Y1197D01*
X15759Y1195D01*
X15754Y1193D01*
X15753Y1192D01*
X15751Y1192D01*
X15747Y1189D01*
X15742Y1186D01*
X15741Y1185D01*
X15740Y1184D01*
X15737Y1180D01*
X15733Y1176D01*
X15732Y1175D01*
X15731Y1174D01*
X15729Y1169D01*
X15726Y1164D01*
X15725Y1163D01*
X15725Y1162D01*
X15723Y1156D01*
X15722Y1151D01*
X15722Y1150D01*
X15721Y1148D01*
X15721Y1140D01*
X15721Y360D01*
X15721Y359D01*
X15721Y357D01*
X15722Y352D01*
X15722Y346D01*
X15723Y345D01*
X15723Y344D01*
X15725Y339D01*
X15727Y334D01*
X15728Y333D01*
X15728Y331D01*
X15731Y327D01*
X15734Y322D01*
X15735Y321D01*
X15736Y320D01*
X15740Y317D01*
X15744Y313D01*
X15745Y312D01*
X15746Y311D01*
X15751Y309D01*
X15756Y306D01*
X15757Y305D01*
X15758Y305D01*
X15764Y303D01*
X15769Y302D01*
X15770Y302D01*
X15772Y301D01*
X15780Y301D01*
X16220Y301D01*
X16221Y301D01*
G37*
G36*
X9962Y1621D02*
X9962Y1621D01*
X9963Y1621D01*
X9969Y1622D01*
X9975Y1622D01*
X9976Y1623D01*
X9983Y1625D01*
X10057Y1625D01*
X10063Y1623D01*
X10069Y1622D01*
X10069Y1621D01*
X10070Y1621D01*
X10078Y1621D01*
X10562Y1621D01*
X10563Y1621D01*
X10569Y1622D01*
X10575Y1622D01*
X10576Y1623D01*
X10583Y1625D01*
X10657Y1625D01*
X10663Y1623D01*
X10669Y1622D01*
X10669Y1621D01*
X10670Y1621D01*
X10678Y1621D01*
X10800Y1621D01*
X10801Y1621D01*
X10803Y1621D01*
X10808Y1622D01*
X10814Y1622D01*
X10815Y1623D01*
X10816Y1623D01*
X10821Y1625D01*
X10826Y1627D01*
X10827Y1628D01*
X10829Y1628D01*
X10833Y1631D01*
X10838Y1634D01*
X10839Y1635D01*
X10840Y1636D01*
X10843Y1640D01*
X10847Y1644D01*
X10848Y1645D01*
X10849Y1646D01*
X10851Y1651D01*
X10854Y1656D01*
X10855Y1657D01*
X10855Y1658D01*
X10857Y1664D01*
X10858Y1669D01*
X10858Y1670D01*
X10859Y1672D01*
X10859Y1680D01*
X10859Y2400D01*
X10859Y2401D01*
X10859Y2403D01*
X10858Y2408D01*
X10858Y2414D01*
X10857Y2415D01*
X10857Y2416D01*
X10855Y2421D01*
X10853Y2426D01*
X10852Y2427D01*
X10852Y2429D01*
X10849Y2433D01*
X10846Y2438D01*
X10845Y2439D01*
X10844Y2440D01*
X10840Y2443D01*
X10836Y2447D01*
X10835Y2448D01*
X10834Y2449D01*
X10829Y2451D01*
X10824Y2454D01*
X10823Y2455D01*
X10822Y2455D01*
X10816Y2457D01*
X10811Y2458D01*
X10810Y2458D01*
X10808Y2459D01*
X10800Y2459D01*
X10340Y2459D01*
X10339Y2459D01*
X10337Y2459D01*
X10332Y2458D01*
X10326Y2458D01*
X10325Y2457D01*
X10324Y2457D01*
X10319Y2455D01*
X10314Y2453D01*
X10313Y2452D01*
X10311Y2452D01*
X10307Y2449D01*
X10302Y2446D01*
X10301Y2445D01*
X10300Y2444D01*
X10297Y2440D01*
X10293Y2436D01*
X10292Y2435D01*
X10291Y2434D01*
X10289Y2429D01*
X10286Y2424D01*
X10285Y2423D01*
X10285Y2422D01*
X10283Y2416D01*
X10282Y2411D01*
X10282Y2410D01*
X10281Y2408D01*
X10281Y2400D01*
X10281Y2374D01*
X10279Y2374D01*
X10279Y2400D01*
X10279Y2401D01*
X10279Y2403D01*
X10278Y2408D01*
X10278Y2414D01*
X10277Y2415D01*
X10277Y2416D01*
X10275Y2421D01*
X10273Y2426D01*
X10272Y2427D01*
X10272Y2429D01*
X10269Y2433D01*
X10266Y2438D01*
X10265Y2439D01*
X10264Y2440D01*
X10260Y2443D01*
X10256Y2447D01*
X10255Y2448D01*
X10254Y2449D01*
X10249Y2451D01*
X10244Y2454D01*
X10243Y2455D01*
X10242Y2455D01*
X10236Y2457D01*
X10231Y2458D01*
X10230Y2458D01*
X10228Y2459D01*
X10220Y2459D01*
X9780Y2459D01*
X9779Y2459D01*
X9777Y2459D01*
X9772Y2458D01*
X9766Y2458D01*
X9765Y2457D01*
X9764Y2457D01*
X9759Y2455D01*
X9754Y2453D01*
X9753Y2452D01*
X9751Y2452D01*
X9747Y2449D01*
X9742Y2446D01*
X9741Y2445D01*
X9740Y2444D01*
X9737Y2440D01*
X9733Y2436D01*
X9732Y2435D01*
X9731Y2434D01*
X9729Y2429D01*
X9726Y2424D01*
X9725Y2423D01*
X9725Y2422D01*
X9723Y2416D01*
X9722Y2411D01*
X9722Y2410D01*
X9721Y2408D01*
X9721Y2400D01*
X9721Y1680D01*
X9721Y1679D01*
X9721Y1677D01*
X9722Y1672D01*
X9722Y1666D01*
X9723Y1665D01*
X9723Y1664D01*
X9725Y1659D01*
X9727Y1654D01*
X9728Y1653D01*
X9728Y1651D01*
X9731Y1647D01*
X9734Y1642D01*
X9735Y1641D01*
X9736Y1640D01*
X9740Y1637D01*
X9744Y1633D01*
X9745Y1632D01*
X9746Y1631D01*
X9751Y1629D01*
X9756Y1626D01*
X9757Y1625D01*
X9758Y1625D01*
X9764Y1623D01*
X9769Y1622D01*
X9770Y1622D01*
X9772Y1621D01*
X9780Y1621D01*
X9962Y1621D01*
X9962Y1621D01*
G37*
G36*
X20221Y361D02*
X20221Y361D01*
X20223Y361D01*
X20228Y362D01*
X20234Y362D01*
X20235Y363D01*
X20236Y363D01*
X20241Y365D01*
X20246Y367D01*
X20247Y368D01*
X20249Y368D01*
X20253Y371D01*
X20258Y374D01*
X20259Y375D01*
X20260Y376D01*
X20263Y380D01*
X20267Y384D01*
X20268Y385D01*
X20268Y386D01*
X20292Y386D01*
X20294Y382D01*
X20295Y381D01*
X20296Y380D01*
X20300Y377D01*
X20304Y373D01*
X20305Y372D01*
X20306Y371D01*
X20311Y369D01*
X20316Y366D01*
X20317Y365D01*
X20318Y365D01*
X20324Y363D01*
X20329Y362D01*
X20330Y362D01*
X20332Y361D01*
X20340Y361D01*
X20700Y361D01*
X20701Y361D01*
X20703Y361D01*
X20708Y362D01*
X20714Y362D01*
X20715Y363D01*
X20716Y363D01*
X20721Y365D01*
X20726Y367D01*
X20727Y368D01*
X20729Y368D01*
X20733Y371D01*
X20738Y374D01*
X20739Y375D01*
X20740Y376D01*
X20743Y380D01*
X20747Y384D01*
X20748Y385D01*
X20749Y386D01*
X20751Y391D01*
X20754Y396D01*
X20755Y397D01*
X20755Y398D01*
X20757Y404D01*
X20758Y409D01*
X20758Y410D01*
X20759Y412D01*
X20759Y420D01*
X20759Y1200D01*
X20759Y1201D01*
X20759Y1203D01*
X20758Y1208D01*
X20758Y1214D01*
X20757Y1215D01*
X20757Y1216D01*
X20755Y1221D01*
X20753Y1226D01*
X20752Y1227D01*
X20752Y1229D01*
X20749Y1233D01*
X20746Y1238D01*
X20745Y1239D01*
X20744Y1240D01*
X20740Y1243D01*
X20736Y1247D01*
X20735Y1248D01*
X20734Y1249D01*
X20729Y1251D01*
X20724Y1254D01*
X20723Y1255D01*
X20722Y1255D01*
X20716Y1257D01*
X20711Y1258D01*
X20710Y1258D01*
X20708Y1259D01*
X20700Y1259D01*
X20638Y1259D01*
X20637Y1259D01*
X20631Y1258D01*
X20625Y1258D01*
X20624Y1257D01*
X20617Y1255D01*
X20543Y1255D01*
X20537Y1257D01*
X20531Y1258D01*
X20531Y1259D01*
X20530Y1259D01*
X20522Y1259D01*
X20038Y1259D01*
X20037Y1259D01*
X20031Y1258D01*
X20025Y1258D01*
X20024Y1257D01*
X20017Y1255D01*
X19943Y1255D01*
X19937Y1257D01*
X19931Y1258D01*
X19931Y1259D01*
X19930Y1259D01*
X19922Y1259D01*
X19860Y1259D01*
X19859Y1259D01*
X19857Y1259D01*
X19852Y1258D01*
X19846Y1258D01*
X19845Y1257D01*
X19844Y1257D01*
X19839Y1255D01*
X19834Y1253D01*
X19833Y1252D01*
X19831Y1252D01*
X19827Y1249D01*
X19822Y1246D01*
X19821Y1245D01*
X19820Y1244D01*
X19817Y1240D01*
X19813Y1236D01*
X19812Y1235D01*
X19811Y1234D01*
X19809Y1229D01*
X19806Y1224D01*
X19805Y1223D01*
X19805Y1222D01*
X19803Y1216D01*
X19802Y1211D01*
X19802Y1210D01*
X19801Y1208D01*
X19801Y1200D01*
X19801Y420D01*
X19801Y419D01*
X19801Y417D01*
X19802Y412D01*
X19802Y406D01*
X19803Y405D01*
X19803Y404D01*
X19805Y399D01*
X19807Y394D01*
X19808Y393D01*
X19808Y391D01*
X19811Y387D01*
X19814Y382D01*
X19815Y381D01*
X19816Y380D01*
X19820Y377D01*
X19824Y373D01*
X19825Y372D01*
X19826Y371D01*
X19831Y369D01*
X19836Y366D01*
X19837Y365D01*
X19838Y365D01*
X19844Y363D01*
X19849Y362D01*
X19850Y362D01*
X19852Y361D01*
X19860Y361D01*
X20220Y361D01*
X20221Y361D01*
G37*
%LPC*%
G36*
X9333Y16894D02*
X9333Y16894D01*
X9210Y16945D01*
X9115Y17040D01*
X9064Y17163D01*
X9064Y17837D01*
X9115Y17960D01*
X9210Y18055D01*
X9333Y18106D01*
X9467Y18106D01*
X9590Y18055D01*
X9685Y17960D01*
X9736Y17837D01*
X9736Y17163D01*
X9685Y17040D01*
X9590Y16945D01*
X9467Y16894D01*
X9333Y16894D01*
G37*
%LPD*%
%LPC*%
G36*
X3133Y16894D02*
X3133Y16894D01*
X3010Y16945D01*
X2915Y17040D01*
X2864Y17163D01*
X2864Y17837D01*
X2915Y17960D01*
X3010Y18055D01*
X3133Y18106D01*
X3267Y18106D01*
X3390Y18055D01*
X3485Y17960D01*
X3536Y17837D01*
X3536Y17163D01*
X3485Y17040D01*
X3390Y16945D01*
X3267Y16894D01*
X3133Y16894D01*
G37*
%LPD*%
%LPC*%
G36*
X8333Y16894D02*
X8333Y16894D01*
X8210Y16945D01*
X8115Y17040D01*
X8064Y17163D01*
X8064Y17837D01*
X8115Y17960D01*
X8210Y18055D01*
X8333Y18106D01*
X8467Y18106D01*
X8590Y18055D01*
X8685Y17960D01*
X8736Y17837D01*
X8736Y17163D01*
X8685Y17040D01*
X8590Y16945D01*
X8467Y16894D01*
X8333Y16894D01*
G37*
%LPD*%
%LPC*%
G36*
X5133Y16894D02*
X5133Y16894D01*
X5010Y16945D01*
X4915Y17040D01*
X4864Y17163D01*
X4864Y17837D01*
X4915Y17960D01*
X5010Y18055D01*
X5133Y18106D01*
X5267Y18106D01*
X5390Y18055D01*
X5485Y17960D01*
X5536Y17837D01*
X5536Y17163D01*
X5485Y17040D01*
X5390Y16945D01*
X5267Y16894D01*
X5133Y16894D01*
G37*
%LPD*%
%LPC*%
G36*
X10333Y16894D02*
X10333Y16894D01*
X10210Y16945D01*
X10115Y17040D01*
X10064Y17163D01*
X10064Y17837D01*
X10115Y17960D01*
X10210Y18055D01*
X10333Y18106D01*
X10467Y18106D01*
X10590Y18055D01*
X10685Y17960D01*
X10736Y17837D01*
X10736Y17163D01*
X10685Y17040D01*
X10590Y16945D01*
X10467Y16894D01*
X10333Y16894D01*
G37*
%LPD*%
%LPC*%
G36*
X15433Y16894D02*
X15433Y16894D01*
X15310Y16945D01*
X15215Y17040D01*
X15164Y17163D01*
X15164Y17837D01*
X15215Y17960D01*
X15310Y18055D01*
X15433Y18106D01*
X15567Y18106D01*
X15690Y18055D01*
X15785Y17960D01*
X15836Y17837D01*
X15836Y17163D01*
X15785Y17040D01*
X15690Y16945D01*
X15567Y16894D01*
X15433Y16894D01*
G37*
%LPD*%
%LPC*%
G36*
X16433Y16894D02*
X16433Y16894D01*
X16310Y16945D01*
X16215Y17040D01*
X16164Y17163D01*
X16164Y17837D01*
X16215Y17960D01*
X16310Y18055D01*
X16433Y18106D01*
X16567Y18106D01*
X16690Y18055D01*
X16785Y17960D01*
X16836Y17837D01*
X16836Y17163D01*
X16785Y17040D01*
X16690Y16945D01*
X16567Y16894D01*
X16433Y16894D01*
G37*
%LPD*%
%LPC*%
G36*
X17433Y16894D02*
X17433Y16894D01*
X17310Y16945D01*
X17215Y17040D01*
X17164Y17163D01*
X17164Y17837D01*
X17215Y17960D01*
X17310Y18055D01*
X17433Y18106D01*
X17567Y18106D01*
X17690Y18055D01*
X17785Y17960D01*
X17836Y17837D01*
X17836Y17163D01*
X17785Y17040D01*
X17690Y16945D01*
X17567Y16894D01*
X17433Y16894D01*
G37*
%LPD*%
%LPC*%
G36*
X4133Y16894D02*
X4133Y16894D01*
X4010Y16945D01*
X3915Y17040D01*
X3864Y17163D01*
X3864Y17837D01*
X3915Y17960D01*
X4010Y18055D01*
X4133Y18106D01*
X4267Y18106D01*
X4390Y18055D01*
X4485Y17960D01*
X4536Y17837D01*
X4536Y17163D01*
X4485Y17040D01*
X4390Y16945D01*
X4267Y16894D01*
X4133Y16894D01*
G37*
%LPD*%
%LPC*%
G36*
X22003Y1858D02*
X22003Y1858D01*
X21964Y1897D01*
X21964Y2853D01*
X22003Y2891D01*
X22557Y2891D01*
X22596Y2853D01*
X22596Y1897D01*
X22557Y1858D01*
X22003Y1858D01*
G37*
%LPD*%
%LPC*%
G36*
X5003Y1858D02*
X5003Y1858D01*
X4964Y1897D01*
X4964Y2853D01*
X5003Y2891D01*
X5557Y2891D01*
X5596Y2853D01*
X5596Y1897D01*
X5557Y1858D01*
X5003Y1858D01*
G37*
%LPD*%
%LPC*%
G36*
X15003Y1858D02*
X15003Y1858D01*
X14964Y1897D01*
X14964Y2853D01*
X15003Y2891D01*
X15557Y2891D01*
X15596Y2853D01*
X15596Y1897D01*
X15557Y1858D01*
X15003Y1858D01*
G37*
%LPD*%
%LPC*%
G36*
X6003Y1858D02*
X6003Y1858D01*
X5964Y1897D01*
X5964Y2853D01*
X6003Y2891D01*
X6557Y2891D01*
X6596Y2853D01*
X6596Y1897D01*
X6557Y1858D01*
X6003Y1858D01*
G37*
%LPD*%
%LPC*%
G36*
X17003Y1858D02*
X17003Y1858D01*
X16964Y1897D01*
X16964Y2853D01*
X17003Y2891D01*
X17557Y2891D01*
X17596Y2853D01*
X17596Y1897D01*
X17557Y1858D01*
X17003Y1858D01*
G37*
%LPD*%
%LPC*%
G36*
X20003Y1858D02*
X20003Y1858D01*
X19964Y1897D01*
X19964Y2853D01*
X20003Y2891D01*
X20557Y2891D01*
X20596Y2853D01*
X20596Y1897D01*
X20557Y1858D01*
X20003Y1858D01*
G37*
%LPD*%
%LPC*%
G36*
X21003Y1858D02*
X21003Y1858D01*
X20964Y1897D01*
X20964Y2853D01*
X21003Y2891D01*
X21557Y2891D01*
X21596Y2853D01*
X21596Y1897D01*
X21557Y1858D01*
X21003Y1858D01*
G37*
%LPD*%
%LPC*%
G36*
X16003Y1858D02*
X16003Y1858D01*
X15964Y1897D01*
X15964Y2853D01*
X16003Y2891D01*
X16557Y2891D01*
X16596Y2853D01*
X16596Y1897D01*
X16557Y1858D01*
X16003Y1858D01*
G37*
%LPD*%
%LPC*%
G36*
X3003Y-131D02*
X3003Y-131D01*
X2964Y-93D01*
X2964Y863D01*
X3003Y902D01*
X3557Y902D01*
X3596Y863D01*
X3596Y-93D01*
X3557Y-131D01*
X3003Y-131D01*
G37*
%LPD*%
%LPC*%
G36*
X4003Y-131D02*
X4003Y-131D01*
X3964Y-93D01*
X3964Y863D01*
X4003Y902D01*
X4557Y902D01*
X4596Y863D01*
X4596Y-93D01*
X4557Y-131D01*
X4003Y-131D01*
G37*
%LPD*%
%LPC*%
G36*
X18003Y-131D02*
X18003Y-131D01*
X17964Y-93D01*
X17964Y863D01*
X18003Y902D01*
X18557Y902D01*
X18596Y863D01*
X18596Y-93D01*
X18557Y-131D01*
X18003Y-131D01*
G37*
%LPD*%
%LPC*%
G36*
X17003Y-131D02*
X17003Y-131D01*
X16964Y-93D01*
X16964Y863D01*
X17003Y902D01*
X17557Y902D01*
X17596Y863D01*
X17596Y-93D01*
X17557Y-131D01*
X17003Y-131D01*
G37*
%LPD*%
%LPC*%
G36*
X19003Y-131D02*
X19003Y-131D01*
X18964Y-93D01*
X18964Y863D01*
X19003Y902D01*
X19557Y902D01*
X19596Y863D01*
X19596Y-93D01*
X19557Y-131D01*
X19003Y-131D01*
G37*
%LPD*%
%LPC*%
G36*
X1177Y18842D02*
X1177Y18842D01*
X1023Y18905D01*
X905Y19023D01*
X842Y19177D01*
X842Y19343D01*
X905Y19497D01*
X1023Y19615D01*
X1177Y19678D01*
X1343Y19678D01*
X1497Y19615D01*
X1615Y19497D01*
X1678Y19343D01*
X1678Y19177D01*
X1615Y19023D01*
X1497Y18905D01*
X1343Y18842D01*
X1177Y18842D01*
G37*
%LPD*%
%LPC*%
G36*
X24037Y2582D02*
X24037Y2582D01*
X23883Y2645D01*
X23765Y2763D01*
X23702Y2917D01*
X23702Y3083D01*
X23765Y3237D01*
X23883Y3355D01*
X24037Y3418D01*
X24203Y3418D01*
X24357Y3355D01*
X24475Y3237D01*
X24538Y3083D01*
X24538Y2917D01*
X24475Y2763D01*
X24357Y2645D01*
X24203Y2582D01*
X24037Y2582D01*
G37*
%LPD*%
%LPC*%
G36*
X23917Y18722D02*
X23917Y18722D01*
X23763Y18785D01*
X23645Y18903D01*
X23582Y19057D01*
X23582Y19223D01*
X23645Y19377D01*
X23763Y19495D01*
X23917Y19558D01*
X24083Y19558D01*
X24237Y19495D01*
X24355Y19377D01*
X24418Y19223D01*
X24418Y19057D01*
X24355Y18903D01*
X24237Y18785D01*
X24083Y18722D01*
X23917Y18722D01*
G37*
%LPD*%
%LPC*%
G36*
X18233Y14735D02*
X18233Y14735D01*
X18125Y14843D01*
X18125Y15015D01*
X18124Y15020D01*
X18124Y15026D01*
X18124Y15027D01*
X18122Y15032D01*
X18120Y15038D01*
X18119Y15038D01*
X18119Y15039D01*
X18116Y15043D01*
X18113Y15048D01*
X18112Y15048D01*
X18112Y15049D01*
X18107Y15052D01*
X18103Y15056D01*
X18102Y15057D01*
X18097Y15059D01*
X18092Y15062D01*
X18091Y15062D01*
X18085Y15063D01*
X18080Y15064D01*
X18079Y15064D01*
X18073Y15064D01*
X18067Y15063D01*
X18066Y15063D01*
X18061Y15061D01*
X18056Y15060D01*
X18055Y15059D01*
X18054Y15059D01*
X18044Y15052D01*
X18042Y15051D01*
X18041Y15050D01*
X18027Y15035D01*
X17873Y15035D01*
X17765Y15143D01*
X17765Y15297D01*
X17873Y15405D01*
X18027Y15405D01*
X18135Y15297D01*
X18135Y15125D01*
X18136Y15120D01*
X18136Y15114D01*
X18136Y15113D01*
X18138Y15108D01*
X18140Y15102D01*
X18141Y15102D01*
X18141Y15101D01*
X18144Y15097D01*
X18147Y15092D01*
X18148Y15092D01*
X18148Y15091D01*
X18153Y15088D01*
X18157Y15084D01*
X18158Y15083D01*
X18163Y15081D01*
X18168Y15078D01*
X18169Y15078D01*
X18175Y15077D01*
X18180Y15076D01*
X18181Y15076D01*
X18187Y15076D01*
X18193Y15077D01*
X18194Y15077D01*
X18199Y15079D01*
X18204Y15080D01*
X18205Y15081D01*
X18206Y15081D01*
X18216Y15088D01*
X18218Y15089D01*
X18219Y15090D01*
X18233Y15105D01*
X18387Y15105D01*
X18401Y15090D01*
X18406Y15087D01*
X18410Y15083D01*
X18411Y15083D01*
X18416Y15080D01*
X18421Y15078D01*
X18422Y15078D01*
X18428Y15077D01*
X18433Y15076D01*
X18434Y15076D01*
X18435Y15076D01*
X18440Y15076D01*
X18446Y15077D01*
X18447Y15077D01*
X18452Y15079D01*
X18458Y15081D01*
X18459Y15081D01*
X18463Y15085D01*
X18468Y15088D01*
X18469Y15088D01*
X18473Y15093D01*
X18476Y15097D01*
X18477Y15097D01*
X18477Y15098D01*
X18479Y15103D01*
X18482Y15108D01*
X18483Y15109D01*
X18485Y15121D01*
X18485Y15124D01*
X18485Y15125D01*
X18485Y15177D01*
X18593Y15285D01*
X18747Y15285D01*
X18855Y15177D01*
X18855Y15125D01*
X18856Y15120D01*
X18856Y15114D01*
X18856Y15113D01*
X18858Y15108D01*
X18860Y15102D01*
X18861Y15102D01*
X18861Y15101D01*
X18864Y15097D01*
X18867Y15092D01*
X18868Y15092D01*
X18868Y15091D01*
X18873Y15088D01*
X18877Y15084D01*
X18878Y15083D01*
X18883Y15081D01*
X18888Y15078D01*
X18889Y15078D01*
X18895Y15077D01*
X18900Y15076D01*
X18901Y15076D01*
X18907Y15076D01*
X18913Y15077D01*
X18914Y15077D01*
X18919Y15079D01*
X18924Y15080D01*
X18925Y15081D01*
X18926Y15081D01*
X18936Y15088D01*
X18938Y15089D01*
X18939Y15090D01*
X18953Y15105D01*
X19107Y15105D01*
X19215Y14997D01*
X19215Y14843D01*
X19107Y14735D01*
X18953Y14735D01*
X18845Y14843D01*
X18845Y14895D01*
X18844Y14900D01*
X18844Y14906D01*
X18844Y14907D01*
X18842Y14912D01*
X18840Y14918D01*
X18839Y14918D01*
X18839Y14919D01*
X18836Y14923D01*
X18833Y14928D01*
X18832Y14928D01*
X18832Y14929D01*
X18827Y14932D01*
X18823Y14936D01*
X18822Y14937D01*
X18817Y14939D01*
X18812Y14942D01*
X18811Y14942D01*
X18805Y14943D01*
X18800Y14944D01*
X18799Y14944D01*
X18793Y14944D01*
X18787Y14943D01*
X18786Y14943D01*
X18781Y14941D01*
X18776Y14940D01*
X18775Y14939D01*
X18774Y14939D01*
X18764Y14932D01*
X18762Y14931D01*
X18761Y14930D01*
X18747Y14915D01*
X18593Y14915D01*
X18579Y14930D01*
X18574Y14933D01*
X18570Y14937D01*
X18569Y14937D01*
X18564Y14940D01*
X18559Y14942D01*
X18558Y14942D01*
X18552Y14943D01*
X18547Y14944D01*
X18546Y14944D01*
X18545Y14944D01*
X18540Y14944D01*
X18534Y14943D01*
X18533Y14943D01*
X18528Y14941D01*
X18522Y14939D01*
X18521Y14939D01*
X18517Y14935D01*
X18512Y14932D01*
X18511Y14932D01*
X18507Y14927D01*
X18504Y14923D01*
X18503Y14923D01*
X18503Y14922D01*
X18501Y14917D01*
X18498Y14912D01*
X18497Y14911D01*
X18495Y14899D01*
X18495Y14896D01*
X18495Y14895D01*
X18495Y14843D01*
X18387Y14735D01*
X18233Y14735D01*
G37*
%LPD*%
%LPC*%
G36*
X2023Y13975D02*
X2023Y13975D01*
X1915Y14083D01*
X1915Y14237D01*
X1990Y14311D01*
X1993Y14316D01*
X1997Y14320D01*
X1997Y14321D01*
X2000Y14326D01*
X2002Y14331D01*
X2002Y14332D01*
X2003Y14338D01*
X2004Y14343D01*
X2004Y14344D01*
X2004Y14345D01*
X2004Y14350D01*
X2003Y14356D01*
X2003Y14357D01*
X2001Y14362D01*
X1999Y14368D01*
X1999Y14369D01*
X1995Y14373D01*
X1992Y14378D01*
X1992Y14379D01*
X1987Y14383D01*
X1983Y14386D01*
X1983Y14387D01*
X1982Y14387D01*
X1977Y14389D01*
X1972Y14392D01*
X1971Y14393D01*
X1965Y14394D01*
X1855Y14503D01*
X1855Y14657D01*
X1965Y14766D01*
X1966Y14766D01*
X1967Y14766D01*
X1972Y14768D01*
X1978Y14770D01*
X1978Y14771D01*
X1979Y14771D01*
X1983Y14774D01*
X1988Y14777D01*
X1988Y14778D01*
X1989Y14778D01*
X1992Y14783D01*
X1996Y14787D01*
X1997Y14788D01*
X1999Y14793D01*
X2002Y14798D01*
X2002Y14799D01*
X2003Y14805D01*
X2004Y14810D01*
X2004Y14811D01*
X2004Y14817D01*
X2003Y14823D01*
X2003Y14824D01*
X2001Y14829D01*
X2000Y14834D01*
X1999Y14835D01*
X1999Y14836D01*
X1992Y14846D01*
X1991Y14848D01*
X1990Y14849D01*
X1915Y14923D01*
X1915Y15077D01*
X2023Y15185D01*
X2177Y15185D01*
X2285Y15077D01*
X2285Y14923D01*
X2175Y14814D01*
X2174Y14814D01*
X2173Y14814D01*
X2168Y14812D01*
X2162Y14810D01*
X2162Y14809D01*
X2161Y14809D01*
X2157Y14806D01*
X2152Y14803D01*
X2152Y14802D01*
X2151Y14802D01*
X2148Y14797D01*
X2144Y14793D01*
X2143Y14792D01*
X2141Y14787D01*
X2138Y14782D01*
X2138Y14781D01*
X2137Y14775D01*
X2136Y14770D01*
X2136Y14769D01*
X2136Y14763D01*
X2137Y14757D01*
X2137Y14756D01*
X2139Y14751D01*
X2140Y14746D01*
X2141Y14745D01*
X2141Y14744D01*
X2148Y14734D01*
X2149Y14732D01*
X2150Y14731D01*
X2225Y14657D01*
X2225Y14503D01*
X2150Y14429D01*
X2147Y14424D01*
X2143Y14420D01*
X2143Y14419D01*
X2140Y14414D01*
X2138Y14409D01*
X2138Y14408D01*
X2137Y14402D01*
X2136Y14397D01*
X2136Y14396D01*
X2136Y14395D01*
X2136Y14390D01*
X2137Y14384D01*
X2137Y14383D01*
X2139Y14378D01*
X2141Y14372D01*
X2141Y14371D01*
X2145Y14367D01*
X2148Y14362D01*
X2148Y14361D01*
X2153Y14357D01*
X2157Y14354D01*
X2157Y14353D01*
X2158Y14353D01*
X2163Y14351D01*
X2168Y14348D01*
X2169Y14347D01*
X2175Y14346D01*
X2285Y14237D01*
X2285Y14083D01*
X2177Y13975D01*
X2023Y13975D01*
G37*
%LPD*%
%LPC*%
G36*
X15933Y15155D02*
X15933Y15155D01*
X15825Y15263D01*
X15825Y15417D01*
X15934Y15525D01*
X15937Y15529D01*
X15940Y15533D01*
X15941Y15534D01*
X15941Y15535D01*
X15943Y15540D01*
X15946Y15544D01*
X15946Y15545D01*
X15946Y15546D01*
X15947Y15551D01*
X15948Y15556D01*
X15948Y15557D01*
X15948Y15559D01*
X15948Y15564D01*
X15948Y15569D01*
X15947Y15570D01*
X15947Y15571D01*
X15945Y15576D01*
X15944Y15580D01*
X15943Y15581D01*
X15943Y15583D01*
X15936Y15593D01*
X15934Y15594D01*
X15934Y15595D01*
X15845Y15683D01*
X15845Y15837D01*
X15944Y15935D01*
X15947Y15939D01*
X15950Y15943D01*
X15951Y15944D01*
X15951Y15945D01*
X15953Y15950D01*
X15956Y15954D01*
X15956Y15955D01*
X15956Y15956D01*
X15957Y15961D01*
X15958Y15966D01*
X15958Y15967D01*
X15958Y15969D01*
X15958Y15974D01*
X15958Y15979D01*
X15957Y15980D01*
X15957Y15981D01*
X15955Y15986D01*
X15954Y15990D01*
X15953Y15991D01*
X15953Y15993D01*
X15946Y16003D01*
X15944Y16004D01*
X15944Y16005D01*
X15845Y16103D01*
X15845Y16257D01*
X15953Y16365D01*
X16107Y16365D01*
X16215Y16257D01*
X16215Y16103D01*
X16116Y16005D01*
X16113Y16001D01*
X16110Y15997D01*
X16109Y15996D01*
X16109Y15995D01*
X16107Y15990D01*
X16104Y15986D01*
X16104Y15985D01*
X16104Y15984D01*
X16103Y15979D01*
X16102Y15974D01*
X16102Y15973D01*
X16102Y15971D01*
X16102Y15966D01*
X16102Y15961D01*
X16103Y15960D01*
X16103Y15959D01*
X16105Y15954D01*
X16106Y15950D01*
X16107Y15949D01*
X16107Y15947D01*
X16114Y15937D01*
X16116Y15936D01*
X16116Y15935D01*
X16215Y15837D01*
X16215Y15683D01*
X16106Y15575D01*
X16103Y15571D01*
X16100Y15567D01*
X16099Y15566D01*
X16099Y15565D01*
X16097Y15560D01*
X16094Y15556D01*
X16094Y15555D01*
X16094Y15554D01*
X16093Y15549D01*
X16092Y15544D01*
X16092Y15543D01*
X16092Y15541D01*
X16092Y15536D01*
X16092Y15531D01*
X16093Y15530D01*
X16093Y15529D01*
X16095Y15524D01*
X16096Y15520D01*
X16097Y15519D01*
X16097Y15517D01*
X16104Y15507D01*
X16106Y15506D01*
X16106Y15505D01*
X16195Y15417D01*
X16195Y15263D01*
X16087Y15155D01*
X15933Y15155D01*
G37*
%LPD*%
%LPC*%
G36*
X3403Y10975D02*
X3403Y10975D01*
X3295Y11083D01*
X3295Y11135D01*
X3294Y11140D01*
X3294Y11146D01*
X3294Y11147D01*
X3292Y11152D01*
X3290Y11158D01*
X3289Y11158D01*
X3289Y11159D01*
X3286Y11163D01*
X3283Y11168D01*
X3282Y11168D01*
X3282Y11169D01*
X3277Y11172D01*
X3273Y11176D01*
X3272Y11177D01*
X3267Y11179D01*
X3262Y11182D01*
X3261Y11182D01*
X3255Y11183D01*
X3250Y11184D01*
X3249Y11184D01*
X3243Y11184D01*
X3237Y11183D01*
X3236Y11183D01*
X3231Y11181D01*
X3226Y11180D01*
X3225Y11179D01*
X3224Y11179D01*
X3214Y11172D01*
X3212Y11171D01*
X3211Y11170D01*
X3137Y11095D01*
X2983Y11095D01*
X2875Y11203D01*
X2875Y11357D01*
X2983Y11465D01*
X3137Y11465D01*
X3245Y11357D01*
X3245Y11305D01*
X3246Y11300D01*
X3246Y11294D01*
X3246Y11293D01*
X3248Y11288D01*
X3250Y11282D01*
X3251Y11282D01*
X3251Y11281D01*
X3254Y11277D01*
X3257Y11272D01*
X3258Y11272D01*
X3258Y11271D01*
X3263Y11268D01*
X3267Y11264D01*
X3268Y11263D01*
X3273Y11261D01*
X3278Y11258D01*
X3279Y11258D01*
X3285Y11257D01*
X3290Y11256D01*
X3291Y11256D01*
X3297Y11256D01*
X3303Y11257D01*
X3304Y11257D01*
X3309Y11259D01*
X3314Y11260D01*
X3315Y11261D01*
X3316Y11261D01*
X3326Y11268D01*
X3328Y11269D01*
X3329Y11270D01*
X3403Y11345D01*
X3557Y11345D01*
X3611Y11290D01*
X3616Y11287D01*
X3620Y11283D01*
X3621Y11283D01*
X3626Y11280D01*
X3631Y11278D01*
X3632Y11278D01*
X3638Y11277D01*
X3643Y11276D01*
X3644Y11276D01*
X3645Y11276D01*
X3650Y11276D01*
X3656Y11277D01*
X3657Y11277D01*
X3662Y11279D01*
X3668Y11281D01*
X3669Y11281D01*
X3673Y11285D01*
X3678Y11288D01*
X3679Y11288D01*
X3683Y11293D01*
X3686Y11297D01*
X3687Y11297D01*
X3687Y11298D01*
X3689Y11303D01*
X3692Y11308D01*
X3693Y11309D01*
X3695Y11321D01*
X3695Y11324D01*
X3695Y11325D01*
X3695Y11357D01*
X3803Y11465D01*
X3957Y11465D01*
X4065Y11357D01*
X4065Y11203D01*
X3957Y11095D01*
X3803Y11095D01*
X3749Y11150D01*
X3744Y11153D01*
X3740Y11157D01*
X3739Y11157D01*
X3734Y11160D01*
X3729Y11162D01*
X3728Y11162D01*
X3722Y11163D01*
X3717Y11164D01*
X3716Y11164D01*
X3715Y11164D01*
X3710Y11164D01*
X3704Y11163D01*
X3703Y11163D01*
X3698Y11161D01*
X3692Y11159D01*
X3691Y11159D01*
X3687Y11155D01*
X3682Y11152D01*
X3681Y11152D01*
X3677Y11147D01*
X3674Y11143D01*
X3673Y11143D01*
X3673Y11142D01*
X3671Y11137D01*
X3668Y11132D01*
X3667Y11131D01*
X3665Y11119D01*
X3665Y11116D01*
X3665Y11115D01*
X3665Y11083D01*
X3557Y10975D01*
X3403Y10975D01*
G37*
%LPD*%
%LPC*%
G36*
X10423Y10975D02*
X10423Y10975D01*
X10315Y11083D01*
X10315Y11135D01*
X10314Y11140D01*
X10314Y11146D01*
X10314Y11147D01*
X10312Y11152D01*
X10310Y11158D01*
X10309Y11158D01*
X10309Y11159D01*
X10306Y11163D01*
X10303Y11168D01*
X10302Y11168D01*
X10302Y11169D01*
X10297Y11172D01*
X10293Y11176D01*
X10292Y11177D01*
X10287Y11179D01*
X10282Y11182D01*
X10281Y11182D01*
X10275Y11183D01*
X10270Y11184D01*
X10269Y11184D01*
X10263Y11184D01*
X10257Y11183D01*
X10256Y11183D01*
X10251Y11181D01*
X10246Y11180D01*
X10245Y11179D01*
X10244Y11179D01*
X10234Y11172D01*
X10232Y11171D01*
X10231Y11170D01*
X10157Y11095D01*
X10003Y11095D01*
X9895Y11203D01*
X9895Y11357D01*
X10003Y11465D01*
X10157Y11465D01*
X10265Y11357D01*
X10265Y11305D01*
X10266Y11300D01*
X10266Y11294D01*
X10266Y11293D01*
X10268Y11288D01*
X10270Y11282D01*
X10271Y11282D01*
X10271Y11281D01*
X10274Y11277D01*
X10277Y11272D01*
X10278Y11272D01*
X10278Y11271D01*
X10283Y11268D01*
X10287Y11264D01*
X10288Y11263D01*
X10293Y11261D01*
X10298Y11258D01*
X10299Y11258D01*
X10305Y11257D01*
X10310Y11256D01*
X10311Y11256D01*
X10317Y11256D01*
X10323Y11257D01*
X10324Y11257D01*
X10329Y11259D01*
X10334Y11260D01*
X10335Y11261D01*
X10336Y11261D01*
X10346Y11268D01*
X10348Y11269D01*
X10349Y11270D01*
X10423Y11345D01*
X10577Y11345D01*
X10651Y11270D01*
X10656Y11267D01*
X10660Y11263D01*
X10661Y11263D01*
X10666Y11260D01*
X10671Y11258D01*
X10672Y11258D01*
X10678Y11257D01*
X10683Y11256D01*
X10684Y11256D01*
X10685Y11256D01*
X10690Y11256D01*
X10696Y11257D01*
X10697Y11257D01*
X10702Y11259D01*
X10708Y11261D01*
X10709Y11261D01*
X10713Y11265D01*
X10718Y11268D01*
X10719Y11268D01*
X10723Y11273D01*
X10726Y11277D01*
X10727Y11277D01*
X10727Y11278D01*
X10729Y11283D01*
X10732Y11288D01*
X10733Y11289D01*
X10735Y11301D01*
X10735Y11304D01*
X10735Y11305D01*
X10735Y11357D01*
X10843Y11465D01*
X10997Y11465D01*
X11105Y11357D01*
X11105Y11203D01*
X10997Y11095D01*
X10843Y11095D01*
X10769Y11170D01*
X10764Y11173D01*
X10760Y11177D01*
X10759Y11177D01*
X10754Y11180D01*
X10749Y11182D01*
X10748Y11182D01*
X10742Y11183D01*
X10737Y11184D01*
X10736Y11184D01*
X10735Y11184D01*
X10730Y11184D01*
X10724Y11183D01*
X10723Y11183D01*
X10718Y11181D01*
X10712Y11179D01*
X10711Y11179D01*
X10707Y11175D01*
X10702Y11172D01*
X10701Y11172D01*
X10697Y11167D01*
X10694Y11163D01*
X10693Y11163D01*
X10693Y11162D01*
X10691Y11157D01*
X10688Y11152D01*
X10687Y11151D01*
X10685Y11139D01*
X10685Y11136D01*
X10685Y11135D01*
X10685Y11083D01*
X10577Y10975D01*
X10423Y10975D01*
G37*
%LPD*%
%LPC*%
G36*
X12223Y15195D02*
X12223Y15195D01*
X12115Y15303D01*
X12115Y15457D01*
X12184Y15525D01*
X12187Y15529D01*
X12190Y15533D01*
X12191Y15534D01*
X12191Y15535D01*
X12193Y15540D01*
X12196Y15544D01*
X12196Y15545D01*
X12196Y15546D01*
X12197Y15551D01*
X12198Y15556D01*
X12198Y15557D01*
X12198Y15559D01*
X12198Y15564D01*
X12198Y15569D01*
X12197Y15570D01*
X12197Y15571D01*
X12195Y15576D01*
X12194Y15580D01*
X12193Y15581D01*
X12193Y15583D01*
X12186Y15593D01*
X12184Y15594D01*
X12184Y15595D01*
X12115Y15663D01*
X12115Y15817D01*
X12194Y15895D01*
X12197Y15899D01*
X12200Y15903D01*
X12201Y15904D01*
X12201Y15905D01*
X12203Y15910D01*
X12206Y15914D01*
X12206Y15915D01*
X12206Y15916D01*
X12207Y15921D01*
X12208Y15926D01*
X12208Y15927D01*
X12208Y15929D01*
X12208Y15934D01*
X12208Y15939D01*
X12207Y15940D01*
X12207Y15941D01*
X12205Y15946D01*
X12204Y15950D01*
X12203Y15951D01*
X12203Y15953D01*
X12196Y15963D01*
X12194Y15964D01*
X12194Y15965D01*
X12115Y16043D01*
X12115Y16197D01*
X12223Y16305D01*
X12377Y16305D01*
X12485Y16197D01*
X12485Y16043D01*
X12406Y15965D01*
X12403Y15961D01*
X12400Y15957D01*
X12399Y15956D01*
X12399Y15955D01*
X12397Y15950D01*
X12394Y15946D01*
X12394Y15945D01*
X12394Y15944D01*
X12393Y15939D01*
X12392Y15934D01*
X12392Y15933D01*
X12392Y15931D01*
X12392Y15926D01*
X12392Y15921D01*
X12393Y15920D01*
X12393Y15919D01*
X12395Y15914D01*
X12396Y15910D01*
X12397Y15909D01*
X12397Y15907D01*
X12404Y15897D01*
X12406Y15896D01*
X12406Y15895D01*
X12485Y15817D01*
X12485Y15663D01*
X12416Y15595D01*
X12413Y15591D01*
X12410Y15587D01*
X12409Y15586D01*
X12409Y15585D01*
X12407Y15580D01*
X12404Y15576D01*
X12404Y15575D01*
X12404Y15574D01*
X12403Y15569D01*
X12402Y15564D01*
X12402Y15563D01*
X12402Y15561D01*
X12402Y15556D01*
X12402Y15551D01*
X12403Y15550D01*
X12403Y15549D01*
X12405Y15544D01*
X12406Y15540D01*
X12407Y15539D01*
X12407Y15537D01*
X12414Y15527D01*
X12416Y15526D01*
X12416Y15525D01*
X12485Y15457D01*
X12485Y15303D01*
X12377Y15195D01*
X12223Y15195D01*
G37*
%LPD*%
%LPC*%
G36*
X11263Y6055D02*
X11263Y6055D01*
X11155Y6163D01*
X11155Y6317D01*
X11263Y6425D01*
X11417Y6425D01*
X11485Y6356D01*
X11489Y6353D01*
X11493Y6350D01*
X11494Y6349D01*
X11495Y6349D01*
X11500Y6347D01*
X11504Y6344D01*
X11505Y6344D01*
X11506Y6344D01*
X11511Y6343D01*
X11516Y6342D01*
X11517Y6342D01*
X11519Y6342D01*
X11524Y6342D01*
X11529Y6342D01*
X11530Y6343D01*
X11531Y6343D01*
X11536Y6345D01*
X11540Y6346D01*
X11541Y6347D01*
X11543Y6347D01*
X11553Y6354D01*
X11554Y6356D01*
X11555Y6356D01*
X11623Y6425D01*
X11777Y6425D01*
X11845Y6356D01*
X11849Y6353D01*
X11853Y6350D01*
X11854Y6349D01*
X11855Y6349D01*
X11860Y6347D01*
X11864Y6344D01*
X11865Y6344D01*
X11866Y6344D01*
X11871Y6343D01*
X11876Y6342D01*
X11877Y6342D01*
X11879Y6342D01*
X11884Y6342D01*
X11889Y6342D01*
X11890Y6343D01*
X11891Y6343D01*
X11896Y6345D01*
X11900Y6346D01*
X11901Y6347D01*
X11903Y6347D01*
X11913Y6354D01*
X11914Y6356D01*
X11915Y6356D01*
X11983Y6425D01*
X12137Y6425D01*
X12245Y6317D01*
X12245Y6163D01*
X12137Y6055D01*
X11983Y6055D01*
X11915Y6124D01*
X11911Y6127D01*
X11907Y6130D01*
X11906Y6131D01*
X11905Y6131D01*
X11900Y6133D01*
X11896Y6136D01*
X11895Y6136D01*
X11894Y6136D01*
X11889Y6137D01*
X11884Y6138D01*
X11883Y6138D01*
X11881Y6138D01*
X11876Y6138D01*
X11871Y6138D01*
X11870Y6137D01*
X11869Y6137D01*
X11864Y6135D01*
X11860Y6134D01*
X11859Y6133D01*
X11857Y6133D01*
X11847Y6126D01*
X11846Y6124D01*
X11845Y6124D01*
X11777Y6055D01*
X11623Y6055D01*
X11555Y6124D01*
X11551Y6127D01*
X11547Y6130D01*
X11546Y6131D01*
X11545Y6131D01*
X11540Y6133D01*
X11536Y6136D01*
X11535Y6136D01*
X11534Y6136D01*
X11529Y6137D01*
X11524Y6138D01*
X11523Y6138D01*
X11521Y6138D01*
X11516Y6138D01*
X11511Y6138D01*
X11510Y6137D01*
X11509Y6137D01*
X11504Y6135D01*
X11500Y6134D01*
X11499Y6133D01*
X11497Y6133D01*
X11487Y6126D01*
X11486Y6124D01*
X11485Y6124D01*
X11417Y6055D01*
X11263Y6055D01*
G37*
%LPD*%
%LPC*%
G36*
X11263Y4255D02*
X11263Y4255D01*
X11155Y4363D01*
X11155Y4517D01*
X11263Y4625D01*
X11417Y4625D01*
X11485Y4556D01*
X11489Y4553D01*
X11493Y4550D01*
X11494Y4549D01*
X11495Y4549D01*
X11500Y4547D01*
X11504Y4544D01*
X11505Y4544D01*
X11506Y4544D01*
X11511Y4543D01*
X11516Y4542D01*
X11517Y4542D01*
X11519Y4542D01*
X11524Y4542D01*
X11529Y4542D01*
X11530Y4543D01*
X11531Y4543D01*
X11536Y4545D01*
X11540Y4546D01*
X11541Y4547D01*
X11543Y4547D01*
X11553Y4554D01*
X11554Y4556D01*
X11555Y4556D01*
X11623Y4625D01*
X11777Y4625D01*
X11845Y4556D01*
X11849Y4553D01*
X11853Y4550D01*
X11854Y4549D01*
X11855Y4549D01*
X11860Y4547D01*
X11864Y4544D01*
X11865Y4544D01*
X11866Y4544D01*
X11871Y4543D01*
X11876Y4542D01*
X11877Y4542D01*
X11879Y4542D01*
X11884Y4542D01*
X11889Y4542D01*
X11890Y4543D01*
X11891Y4543D01*
X11896Y4545D01*
X11900Y4546D01*
X11901Y4547D01*
X11903Y4547D01*
X11913Y4554D01*
X11914Y4556D01*
X11915Y4556D01*
X11983Y4625D01*
X12137Y4625D01*
X12245Y4517D01*
X12245Y4363D01*
X12137Y4255D01*
X11983Y4255D01*
X11915Y4324D01*
X11911Y4327D01*
X11907Y4330D01*
X11906Y4331D01*
X11905Y4331D01*
X11900Y4333D01*
X11896Y4336D01*
X11895Y4336D01*
X11894Y4336D01*
X11889Y4337D01*
X11884Y4338D01*
X11883Y4338D01*
X11881Y4338D01*
X11876Y4338D01*
X11871Y4338D01*
X11870Y4337D01*
X11869Y4337D01*
X11864Y4335D01*
X11860Y4334D01*
X11859Y4333D01*
X11857Y4333D01*
X11847Y4326D01*
X11846Y4324D01*
X11845Y4324D01*
X11777Y4255D01*
X11623Y4255D01*
X11555Y4324D01*
X11551Y4327D01*
X11547Y4330D01*
X11546Y4331D01*
X11545Y4331D01*
X11540Y4333D01*
X11536Y4336D01*
X11535Y4336D01*
X11534Y4336D01*
X11529Y4337D01*
X11524Y4338D01*
X11523Y4338D01*
X11521Y4338D01*
X11516Y4338D01*
X11511Y4338D01*
X11510Y4337D01*
X11509Y4337D01*
X11504Y4335D01*
X11500Y4334D01*
X11499Y4333D01*
X11497Y4333D01*
X11487Y4326D01*
X11486Y4324D01*
X11485Y4324D01*
X11417Y4255D01*
X11263Y4255D01*
G37*
%LPD*%
%LPC*%
G36*
X19239Y17681D02*
X19239Y17681D01*
X19636Y17681D01*
X19636Y17345D01*
X19624Y17268D01*
X19600Y17194D01*
X19564Y17124D01*
X19518Y17061D01*
X19463Y17006D01*
X19400Y16960D01*
X19330Y16924D01*
X19256Y16900D01*
X19239Y16898D01*
X19239Y17681D01*
G37*
%LPD*%
%LPC*%
G36*
X21089Y18862D02*
X21089Y18862D01*
X21486Y18862D01*
X21486Y18526D01*
X21474Y18449D01*
X21450Y18375D01*
X21415Y18305D01*
X21369Y18242D01*
X21313Y18187D01*
X21250Y18141D01*
X21181Y18106D01*
X21106Y18081D01*
X21089Y18079D01*
X21089Y18862D01*
G37*
%LPD*%
%LPC*%
G36*
X21089Y19060D02*
X21089Y19060D01*
X21089Y19843D01*
X21106Y19841D01*
X21181Y19817D01*
X21250Y19781D01*
X21313Y19735D01*
X21369Y19680D01*
X21415Y19617D01*
X21450Y19547D01*
X21474Y19473D01*
X21486Y19396D01*
X21486Y19060D01*
X21089Y19060D01*
G37*
%LPD*%
%LPC*%
G36*
X19239Y17879D02*
X19239Y17879D01*
X19239Y18662D01*
X19256Y18660D01*
X19330Y18636D01*
X19400Y18600D01*
X19463Y18554D01*
X19518Y18499D01*
X19564Y18436D01*
X19600Y18366D01*
X19624Y18292D01*
X19636Y18215D01*
X19636Y17879D01*
X19239Y17879D01*
G37*
%LPD*%
%LPC*%
G36*
X20874Y18081D02*
X20874Y18081D01*
X20799Y18106D01*
X20730Y18141D01*
X20667Y18187D01*
X20611Y18242D01*
X20565Y18305D01*
X20530Y18375D01*
X20506Y18449D01*
X20494Y18526D01*
X20494Y18862D01*
X20891Y18862D01*
X20891Y18079D01*
X20874Y18081D01*
G37*
%LPD*%
%LPC*%
G36*
X19023Y16900D02*
X19023Y16900D01*
X18949Y16924D01*
X18879Y16960D01*
X18816Y17006D01*
X18761Y17061D01*
X18715Y17124D01*
X18680Y17194D01*
X18655Y17268D01*
X18643Y17345D01*
X18643Y17681D01*
X19040Y17681D01*
X19040Y16898D01*
X19023Y16900D01*
G37*
%LPD*%
%LPC*%
G36*
X18643Y17879D02*
X18643Y17879D01*
X18643Y18215D01*
X18655Y18292D01*
X18680Y18366D01*
X18715Y18436D01*
X18761Y18499D01*
X18816Y18554D01*
X18879Y18600D01*
X18949Y18636D01*
X19023Y18660D01*
X19040Y18662D01*
X19040Y17879D01*
X18643Y17879D01*
G37*
%LPD*%
%LPC*%
G36*
X20494Y19060D02*
X20494Y19060D01*
X20494Y19396D01*
X20506Y19473D01*
X20530Y19547D01*
X20565Y19617D01*
X20611Y19680D01*
X20667Y19735D01*
X20730Y19781D01*
X20799Y19817D01*
X20874Y19841D01*
X20891Y19843D01*
X20891Y19060D01*
X20494Y19060D01*
G37*
%LPD*%
%LPC*%
G36*
X4223Y7215D02*
X4223Y7215D01*
X4115Y7323D01*
X4115Y7477D01*
X4223Y7585D01*
X4377Y7585D01*
X4465Y7496D01*
X4469Y7493D01*
X4473Y7490D01*
X4474Y7489D01*
X4475Y7489D01*
X4480Y7487D01*
X4484Y7484D01*
X4485Y7484D01*
X4486Y7484D01*
X4491Y7483D01*
X4496Y7482D01*
X4497Y7482D01*
X4499Y7482D01*
X4504Y7482D01*
X4509Y7482D01*
X4510Y7483D01*
X4511Y7483D01*
X4516Y7485D01*
X4520Y7486D01*
X4521Y7487D01*
X4523Y7487D01*
X4533Y7494D01*
X4534Y7496D01*
X4535Y7496D01*
X4623Y7585D01*
X4777Y7585D01*
X4885Y7477D01*
X4885Y7323D01*
X4777Y7215D01*
X4623Y7215D01*
X4535Y7304D01*
X4531Y7307D01*
X4527Y7310D01*
X4526Y7311D01*
X4525Y7311D01*
X4520Y7313D01*
X4516Y7316D01*
X4515Y7316D01*
X4514Y7316D01*
X4509Y7317D01*
X4504Y7318D01*
X4503Y7318D01*
X4501Y7318D01*
X4496Y7318D01*
X4491Y7318D01*
X4490Y7317D01*
X4489Y7317D01*
X4484Y7315D01*
X4480Y7314D01*
X4479Y7313D01*
X4477Y7313D01*
X4467Y7306D01*
X4466Y7304D01*
X4465Y7304D01*
X4377Y7215D01*
X4223Y7215D01*
G37*
%LPD*%
%LPC*%
G36*
X4223Y5115D02*
X4223Y5115D01*
X4115Y5223D01*
X4115Y5377D01*
X4223Y5485D01*
X4377Y5485D01*
X4465Y5396D01*
X4469Y5393D01*
X4473Y5390D01*
X4474Y5389D01*
X4475Y5389D01*
X4480Y5387D01*
X4484Y5384D01*
X4485Y5384D01*
X4486Y5384D01*
X4491Y5383D01*
X4496Y5382D01*
X4497Y5382D01*
X4499Y5382D01*
X4504Y5382D01*
X4509Y5382D01*
X4510Y5383D01*
X4511Y5383D01*
X4516Y5385D01*
X4520Y5386D01*
X4521Y5387D01*
X4523Y5387D01*
X4533Y5394D01*
X4534Y5396D01*
X4535Y5396D01*
X4623Y5485D01*
X4777Y5485D01*
X4885Y5377D01*
X4885Y5223D01*
X4777Y5115D01*
X4623Y5115D01*
X4535Y5204D01*
X4531Y5207D01*
X4527Y5210D01*
X4526Y5211D01*
X4525Y5211D01*
X4520Y5213D01*
X4516Y5216D01*
X4515Y5216D01*
X4514Y5216D01*
X4509Y5217D01*
X4504Y5218D01*
X4503Y5218D01*
X4501Y5218D01*
X4496Y5218D01*
X4491Y5218D01*
X4490Y5217D01*
X4489Y5217D01*
X4484Y5215D01*
X4480Y5214D01*
X4479Y5213D01*
X4477Y5213D01*
X4467Y5206D01*
X4466Y5204D01*
X4465Y5204D01*
X4377Y5115D01*
X4223Y5115D01*
G37*
%LPD*%
%LPC*%
G36*
X4223Y4015D02*
X4223Y4015D01*
X4115Y4123D01*
X4115Y4277D01*
X4223Y4385D01*
X4377Y4385D01*
X4465Y4296D01*
X4469Y4293D01*
X4473Y4290D01*
X4474Y4289D01*
X4475Y4289D01*
X4480Y4287D01*
X4484Y4284D01*
X4485Y4284D01*
X4486Y4284D01*
X4491Y4283D01*
X4496Y4282D01*
X4497Y4282D01*
X4499Y4282D01*
X4504Y4282D01*
X4509Y4282D01*
X4510Y4283D01*
X4511Y4283D01*
X4516Y4285D01*
X4520Y4286D01*
X4521Y4287D01*
X4523Y4287D01*
X4533Y4294D01*
X4534Y4296D01*
X4535Y4296D01*
X4623Y4385D01*
X4777Y4385D01*
X4885Y4277D01*
X4885Y4123D01*
X4777Y4015D01*
X4623Y4015D01*
X4535Y4104D01*
X4531Y4107D01*
X4530Y4108D01*
X4529Y4108D01*
X4527Y4110D01*
X4526Y4111D01*
X4525Y4111D01*
X4520Y4113D01*
X4516Y4116D01*
X4515Y4116D01*
X4514Y4116D01*
X4509Y4117D01*
X4504Y4118D01*
X4503Y4118D01*
X4501Y4118D01*
X4496Y4118D01*
X4491Y4118D01*
X4490Y4117D01*
X4489Y4117D01*
X4484Y4115D01*
X4480Y4114D01*
X4479Y4113D01*
X4477Y4113D01*
X4467Y4106D01*
X4466Y4104D01*
X4465Y4104D01*
X4377Y4015D01*
X4223Y4015D01*
G37*
%LPD*%
%LPC*%
G36*
X4223Y6115D02*
X4223Y6115D01*
X4115Y6223D01*
X4115Y6377D01*
X4223Y6485D01*
X4377Y6485D01*
X4465Y6396D01*
X4469Y6393D01*
X4471Y6391D01*
X4473Y6390D01*
X4474Y6389D01*
X4475Y6389D01*
X4480Y6387D01*
X4484Y6384D01*
X4485Y6384D01*
X4486Y6384D01*
X4491Y6383D01*
X4496Y6382D01*
X4497Y6382D01*
X4499Y6382D01*
X4504Y6382D01*
X4509Y6382D01*
X4510Y6383D01*
X4511Y6383D01*
X4516Y6385D01*
X4520Y6386D01*
X4521Y6387D01*
X4523Y6387D01*
X4533Y6394D01*
X4534Y6395D01*
X4535Y6396D01*
X4623Y6485D01*
X4777Y6485D01*
X4885Y6377D01*
X4885Y6223D01*
X4777Y6115D01*
X4623Y6115D01*
X4535Y6204D01*
X4531Y6207D01*
X4527Y6210D01*
X4526Y6211D01*
X4525Y6211D01*
X4520Y6213D01*
X4516Y6216D01*
X4515Y6216D01*
X4514Y6216D01*
X4509Y6217D01*
X4504Y6218D01*
X4503Y6218D01*
X4501Y6218D01*
X4496Y6218D01*
X4491Y6218D01*
X4490Y6217D01*
X4489Y6217D01*
X4484Y6215D01*
X4480Y6214D01*
X4479Y6213D01*
X4477Y6213D01*
X4467Y6206D01*
X4466Y6204D01*
X4465Y6204D01*
X4377Y6115D01*
X4223Y6115D01*
G37*
%LPD*%
%LPC*%
G36*
X7913Y5855D02*
X7913Y5855D01*
X7805Y5963D01*
X7805Y6117D01*
X7889Y6200D01*
X7892Y6204D01*
X7895Y6208D01*
X7895Y6209D01*
X7896Y6209D01*
X7896Y6210D01*
X7898Y6215D01*
X7901Y6219D01*
X7901Y6220D01*
X7901Y6221D01*
X7902Y6226D01*
X7903Y6231D01*
X7903Y6232D01*
X7903Y6234D01*
X7903Y6239D01*
X7903Y6244D01*
X7902Y6245D01*
X7902Y6246D01*
X7900Y6251D01*
X7899Y6255D01*
X7898Y6256D01*
X7898Y6258D01*
X7891Y6268D01*
X7889Y6269D01*
X7889Y6270D01*
X7805Y6353D01*
X7805Y6507D01*
X7913Y6615D01*
X8067Y6615D01*
X8175Y6507D01*
X8175Y6353D01*
X8091Y6270D01*
X8088Y6266D01*
X8085Y6262D01*
X8084Y6261D01*
X8084Y6260D01*
X8082Y6255D01*
X8079Y6251D01*
X8079Y6250D01*
X8079Y6249D01*
X8078Y6244D01*
X8077Y6239D01*
X8077Y6238D01*
X8077Y6236D01*
X8077Y6231D01*
X8077Y6226D01*
X8078Y6225D01*
X8078Y6224D01*
X8080Y6219D01*
X8081Y6215D01*
X8082Y6214D01*
X8082Y6213D01*
X8082Y6212D01*
X8087Y6206D01*
X8089Y6203D01*
X8089Y6202D01*
X8091Y6201D01*
X8091Y6200D01*
X8175Y6117D01*
X8175Y5963D01*
X8067Y5855D01*
X7913Y5855D01*
G37*
%LPD*%
%LPC*%
G36*
X7913Y3805D02*
X7913Y3805D01*
X7805Y3913D01*
X7805Y4067D01*
X7889Y4150D01*
X7892Y4154D01*
X7895Y4158D01*
X7896Y4159D01*
X7896Y4160D01*
X7898Y4165D01*
X7901Y4169D01*
X7901Y4170D01*
X7901Y4171D01*
X7902Y4176D01*
X7903Y4181D01*
X7903Y4182D01*
X7903Y4184D01*
X7903Y4189D01*
X7903Y4194D01*
X7902Y4195D01*
X7902Y4196D01*
X7900Y4201D01*
X7899Y4205D01*
X7898Y4206D01*
X7898Y4208D01*
X7891Y4218D01*
X7889Y4219D01*
X7889Y4220D01*
X7815Y4293D01*
X7815Y4447D01*
X7923Y4555D01*
X8077Y4555D01*
X8185Y4447D01*
X8185Y4293D01*
X8101Y4210D01*
X8098Y4206D01*
X8095Y4202D01*
X8094Y4201D01*
X8094Y4200D01*
X8092Y4195D01*
X8089Y4191D01*
X8089Y4190D01*
X8089Y4189D01*
X8088Y4184D01*
X8087Y4179D01*
X8087Y4178D01*
X8087Y4176D01*
X8087Y4171D01*
X8087Y4166D01*
X8088Y4165D01*
X8088Y4164D01*
X8090Y4159D01*
X8091Y4155D01*
X8092Y4154D01*
X8092Y4152D01*
X8099Y4142D01*
X8101Y4141D01*
X8101Y4140D01*
X8175Y4067D01*
X8175Y3913D01*
X8067Y3805D01*
X7913Y3805D01*
G37*
%LPD*%
%LPC*%
G36*
X7913Y4845D02*
X7913Y4845D01*
X7805Y4953D01*
X7805Y5107D01*
X7884Y5185D01*
X7887Y5189D01*
X7890Y5193D01*
X7891Y5194D01*
X7891Y5195D01*
X7893Y5200D01*
X7896Y5204D01*
X7896Y5205D01*
X7896Y5206D01*
X7897Y5211D01*
X7898Y5216D01*
X7898Y5217D01*
X7898Y5219D01*
X7898Y5224D01*
X7898Y5229D01*
X7897Y5230D01*
X7897Y5231D01*
X7895Y5236D01*
X7894Y5240D01*
X7893Y5241D01*
X7893Y5243D01*
X7886Y5253D01*
X7884Y5254D01*
X7884Y5255D01*
X7805Y5333D01*
X7805Y5487D01*
X7913Y5595D01*
X8067Y5595D01*
X8175Y5487D01*
X8175Y5333D01*
X8096Y5255D01*
X8093Y5251D01*
X8090Y5247D01*
X8089Y5246D01*
X8089Y5245D01*
X8087Y5240D01*
X8084Y5236D01*
X8084Y5235D01*
X8084Y5234D01*
X8083Y5229D01*
X8082Y5224D01*
X8082Y5223D01*
X8082Y5221D01*
X8082Y5216D01*
X8082Y5211D01*
X8083Y5210D01*
X8083Y5209D01*
X8085Y5204D01*
X8086Y5200D01*
X8087Y5199D01*
X8087Y5197D01*
X8094Y5187D01*
X8096Y5186D01*
X8096Y5185D01*
X8175Y5107D01*
X8175Y4953D01*
X8067Y4845D01*
X7913Y4845D01*
G37*
%LPD*%
%LPC*%
G36*
X7253Y4335D02*
X7253Y4335D01*
X7145Y4443D01*
X7145Y4597D01*
X7224Y4675D01*
X7227Y4679D01*
X7230Y4683D01*
X7231Y4684D01*
X7231Y4685D01*
X7233Y4690D01*
X7236Y4694D01*
X7236Y4695D01*
X7236Y4696D01*
X7237Y4701D01*
X7238Y4706D01*
X7238Y4707D01*
X7238Y4709D01*
X7238Y4714D01*
X7238Y4719D01*
X7237Y4720D01*
X7237Y4721D01*
X7235Y4726D01*
X7234Y4730D01*
X7233Y4731D01*
X7233Y4733D01*
X7226Y4743D01*
X7224Y4744D01*
X7224Y4745D01*
X7145Y4823D01*
X7145Y4977D01*
X7253Y5085D01*
X7407Y5085D01*
X7515Y4977D01*
X7515Y4823D01*
X7436Y4745D01*
X7433Y4741D01*
X7430Y4737D01*
X7429Y4736D01*
X7429Y4735D01*
X7427Y4730D01*
X7424Y4726D01*
X7424Y4725D01*
X7424Y4724D01*
X7423Y4719D01*
X7422Y4714D01*
X7422Y4713D01*
X7422Y4711D01*
X7422Y4706D01*
X7422Y4701D01*
X7423Y4700D01*
X7423Y4699D01*
X7425Y4694D01*
X7426Y4690D01*
X7427Y4689D01*
X7427Y4687D01*
X7434Y4677D01*
X7435Y4676D01*
X7436Y4676D01*
X7436Y4675D01*
X7515Y4597D01*
X7515Y4443D01*
X7407Y4335D01*
X7253Y4335D01*
G37*
%LPD*%
%LPC*%
G36*
X10783Y14215D02*
X10783Y14215D01*
X10675Y14323D01*
X10675Y14477D01*
X10783Y14585D01*
X10937Y14585D01*
X11011Y14510D01*
X11016Y14507D01*
X11020Y14503D01*
X11021Y14503D01*
X11026Y14500D01*
X11031Y14498D01*
X11032Y14498D01*
X11038Y14497D01*
X11043Y14496D01*
X11044Y14496D01*
X11045Y14496D01*
X11050Y14496D01*
X11056Y14497D01*
X11057Y14497D01*
X11062Y14499D01*
X11068Y14501D01*
X11069Y14501D01*
X11073Y14505D01*
X11078Y14508D01*
X11079Y14508D01*
X11083Y14513D01*
X11086Y14517D01*
X11087Y14517D01*
X11087Y14518D01*
X11089Y14523D01*
X11092Y14528D01*
X11093Y14529D01*
X11095Y14541D01*
X11095Y14544D01*
X11095Y14545D01*
X11095Y14657D01*
X11203Y14765D01*
X11357Y14765D01*
X11465Y14657D01*
X11465Y14503D01*
X11357Y14395D01*
X11203Y14395D01*
X11129Y14470D01*
X11124Y14473D01*
X11120Y14477D01*
X11119Y14477D01*
X11114Y14480D01*
X11109Y14482D01*
X11108Y14482D01*
X11102Y14483D01*
X11097Y14484D01*
X11096Y14484D01*
X11095Y14484D01*
X11090Y14484D01*
X11084Y14483D01*
X11083Y14483D01*
X11078Y14481D01*
X11072Y14479D01*
X11071Y14479D01*
X11067Y14475D01*
X11062Y14472D01*
X11061Y14472D01*
X11057Y14467D01*
X11054Y14463D01*
X11053Y14463D01*
X11053Y14462D01*
X11051Y14457D01*
X11048Y14452D01*
X11047Y14451D01*
X11045Y14439D01*
X11045Y14436D01*
X11045Y14435D01*
X11045Y14323D01*
X10937Y14215D01*
X10783Y14215D01*
G37*
%LPD*%
%LPC*%
G36*
X4873Y9775D02*
X4873Y9775D01*
X4765Y9883D01*
X4765Y10037D01*
X4873Y10145D01*
X4956Y10145D01*
X4961Y10145D01*
X4966Y10146D01*
X4967Y10146D01*
X4968Y10146D01*
X4973Y10148D01*
X4978Y10150D01*
X4979Y10150D01*
X4980Y10151D01*
X4984Y10154D01*
X4988Y10157D01*
X4989Y10158D01*
X4990Y10158D01*
X4993Y10162D01*
X4996Y10166D01*
X4997Y10167D01*
X4998Y10168D01*
X5000Y10172D01*
X5002Y10177D01*
X5002Y10178D01*
X5003Y10179D01*
X5005Y10191D01*
X5005Y10193D01*
X5005Y10194D01*
X5005Y10277D01*
X5113Y10385D01*
X5267Y10385D01*
X5375Y10277D01*
X5375Y10123D01*
X5267Y10015D01*
X5184Y10015D01*
X5179Y10015D01*
X5174Y10014D01*
X5173Y10014D01*
X5172Y10014D01*
X5167Y10012D01*
X5162Y10010D01*
X5161Y10010D01*
X5160Y10009D01*
X5156Y10006D01*
X5152Y10003D01*
X5151Y10002D01*
X5150Y10002D01*
X5147Y9998D01*
X5144Y9994D01*
X5143Y9993D01*
X5142Y9992D01*
X5140Y9988D01*
X5138Y9983D01*
X5138Y9982D01*
X5137Y9981D01*
X5135Y9969D01*
X5135Y9967D01*
X5135Y9966D01*
X5135Y9883D01*
X5027Y9775D01*
X4873Y9775D01*
G37*
%LPD*%
%LPC*%
G36*
X6253Y9775D02*
X6253Y9775D01*
X6145Y9883D01*
X6145Y9966D01*
X6145Y9971D01*
X6144Y9976D01*
X6144Y9977D01*
X6144Y9978D01*
X6142Y9983D01*
X6140Y9988D01*
X6140Y9989D01*
X6139Y9990D01*
X6136Y9994D01*
X6133Y9998D01*
X6132Y9999D01*
X6132Y10000D01*
X6128Y10003D01*
X6124Y10006D01*
X6123Y10007D01*
X6122Y10008D01*
X6118Y10010D01*
X6113Y10012D01*
X6112Y10012D01*
X6111Y10013D01*
X6099Y10015D01*
X6097Y10015D01*
X6096Y10015D01*
X6073Y10015D01*
X5965Y10123D01*
X5965Y10277D01*
X6073Y10385D01*
X6227Y10385D01*
X6335Y10277D01*
X6335Y10194D01*
X6335Y10189D01*
X6336Y10184D01*
X6336Y10183D01*
X6336Y10182D01*
X6338Y10177D01*
X6340Y10172D01*
X6340Y10171D01*
X6341Y10170D01*
X6344Y10166D01*
X6347Y10162D01*
X6348Y10161D01*
X6348Y10160D01*
X6352Y10157D01*
X6356Y10154D01*
X6357Y10153D01*
X6358Y10152D01*
X6362Y10150D01*
X6367Y10148D01*
X6368Y10148D01*
X6369Y10147D01*
X6381Y10145D01*
X6383Y10145D01*
X6384Y10145D01*
X6407Y10145D01*
X6515Y10037D01*
X6515Y9883D01*
X6407Y9775D01*
X6253Y9775D01*
G37*
%LPD*%
%LPC*%
G36*
X17288Y19651D02*
X17288Y19651D01*
X17644Y19651D01*
X17644Y19360D01*
X17633Y19289D01*
X17611Y19221D01*
X17578Y19157D01*
X17536Y19099D01*
X17485Y19049D01*
X17427Y19006D01*
X17364Y18974D01*
X17296Y18952D01*
X17288Y18951D01*
X17288Y19651D01*
G37*
%LPD*%
%LPC*%
G36*
X10288Y19651D02*
X10288Y19651D01*
X10644Y19651D01*
X10644Y19360D01*
X10633Y19289D01*
X10611Y19221D01*
X10578Y19157D01*
X10536Y19099D01*
X10485Y19049D01*
X10427Y19006D01*
X10364Y18974D01*
X10296Y18952D01*
X10288Y18951D01*
X10288Y19651D01*
G37*
%LPD*%
%LPC*%
G36*
X4718Y19651D02*
X4718Y19651D01*
X5074Y19651D01*
X5074Y19360D01*
X5063Y19289D01*
X5041Y19221D01*
X5008Y19157D01*
X4966Y19099D01*
X4915Y19049D01*
X4857Y19006D01*
X4794Y18974D01*
X4726Y18952D01*
X4718Y18951D01*
X4718Y19651D01*
G37*
%LPD*%
%LPC*%
G36*
X10288Y19849D02*
X10288Y19849D01*
X10288Y20549D01*
X10296Y20548D01*
X10364Y20526D01*
X10427Y20494D01*
X10485Y20451D01*
X10536Y20401D01*
X10578Y20343D01*
X10611Y20279D01*
X10633Y20211D01*
X10644Y20140D01*
X10644Y19849D01*
X10288Y19849D01*
G37*
%LPD*%
%LPC*%
G36*
X4718Y19849D02*
X4718Y19849D01*
X4718Y20549D01*
X4726Y20548D01*
X4794Y20526D01*
X4857Y20494D01*
X4915Y20451D01*
X4966Y20401D01*
X5008Y20343D01*
X5041Y20279D01*
X5063Y20211D01*
X5074Y20140D01*
X5074Y19849D01*
X4718Y19849D01*
G37*
%LPD*%
%LPC*%
G36*
X17288Y19849D02*
X17288Y19849D01*
X17288Y20549D01*
X17296Y20548D01*
X17364Y20526D01*
X17427Y20494D01*
X17485Y20451D01*
X17536Y20401D01*
X17578Y20343D01*
X17611Y20279D01*
X17633Y20211D01*
X17644Y20140D01*
X17644Y19849D01*
X17288Y19849D01*
G37*
%LPD*%
%LPC*%
G36*
X10082Y18952D02*
X10082Y18952D01*
X10014Y18974D01*
X9950Y19006D01*
X9893Y19049D01*
X9842Y19099D01*
X9800Y19157D01*
X9767Y19221D01*
X9745Y19289D01*
X9734Y19360D01*
X9734Y19651D01*
X10090Y19651D01*
X10090Y18951D01*
X10082Y18952D01*
G37*
%LPD*%
%LPC*%
G36*
X17082Y18952D02*
X17082Y18952D01*
X17014Y18974D01*
X16950Y19006D01*
X16893Y19049D01*
X16842Y19099D01*
X16800Y19157D01*
X16767Y19221D01*
X16745Y19289D01*
X16734Y19360D01*
X16734Y19651D01*
X17090Y19651D01*
X17090Y18951D01*
X17082Y18952D01*
G37*
%LPD*%
%LPC*%
G36*
X4512Y18952D02*
X4512Y18952D01*
X4444Y18974D01*
X4380Y19006D01*
X4323Y19049D01*
X4272Y19099D01*
X4230Y19157D01*
X4197Y19221D01*
X4175Y19289D01*
X4164Y19360D01*
X4164Y19651D01*
X4520Y19651D01*
X4520Y18951D01*
X4512Y18952D01*
G37*
%LPD*%
%LPC*%
G36*
X16734Y19849D02*
X16734Y19849D01*
X16734Y20140D01*
X16745Y20211D01*
X16767Y20279D01*
X16800Y20343D01*
X16842Y20401D01*
X16893Y20451D01*
X16950Y20494D01*
X17014Y20526D01*
X17082Y20548D01*
X17090Y20549D01*
X17090Y19849D01*
X16734Y19849D01*
G37*
%LPD*%
%LPC*%
G36*
X9734Y19849D02*
X9734Y19849D01*
X9734Y20140D01*
X9745Y20211D01*
X9767Y20279D01*
X9800Y20343D01*
X9842Y20401D01*
X9893Y20451D01*
X9950Y20494D01*
X10014Y20526D01*
X10082Y20548D01*
X10090Y20549D01*
X10090Y19849D01*
X9734Y19849D01*
G37*
%LPD*%
%LPC*%
G36*
X4164Y19849D02*
X4164Y19849D01*
X4164Y20140D01*
X4175Y20211D01*
X4197Y20279D01*
X4230Y20343D01*
X4272Y20401D01*
X4323Y20451D01*
X4380Y20494D01*
X4444Y20526D01*
X4512Y20548D01*
X4520Y20549D01*
X4520Y19849D01*
X4164Y19849D01*
G37*
%LPD*%
%LPC*%
G36*
X17263Y14215D02*
X17263Y14215D01*
X17155Y14323D01*
X17155Y14477D01*
X17230Y14551D01*
X17233Y14556D01*
X17237Y14560D01*
X17237Y14561D01*
X17240Y14566D01*
X17242Y14571D01*
X17242Y14572D01*
X17243Y14578D01*
X17244Y14583D01*
X17244Y14584D01*
X17244Y14585D01*
X17245Y14585D01*
X17417Y14585D01*
X17525Y14477D01*
X17525Y14323D01*
X17417Y14215D01*
X17263Y14215D01*
G37*
%LPD*%
%LPC*%
G36*
X17803Y14215D02*
X17803Y14215D01*
X17695Y14323D01*
X17695Y14477D01*
X17770Y14551D01*
X17773Y14556D01*
X17777Y14560D01*
X17777Y14561D01*
X17780Y14566D01*
X17782Y14571D01*
X17782Y14572D01*
X17783Y14578D01*
X17784Y14583D01*
X17784Y14584D01*
X17784Y14585D01*
X17785Y14585D01*
X17957Y14585D01*
X18065Y14477D01*
X18065Y14323D01*
X17957Y14215D01*
X17803Y14215D01*
G37*
%LPD*%
%LPC*%
G36*
X17735Y14635D02*
X17735Y14635D01*
X17563Y14635D01*
X17455Y14743D01*
X17455Y14897D01*
X17563Y15005D01*
X17717Y15005D01*
X17825Y14897D01*
X17825Y14743D01*
X17750Y14669D01*
X17747Y14664D01*
X17743Y14660D01*
X17743Y14659D01*
X17740Y14654D01*
X17738Y14649D01*
X17738Y14648D01*
X17737Y14642D01*
X17736Y14637D01*
X17736Y14636D01*
X17736Y14635D01*
X17735Y14635D01*
G37*
%LPD*%
%LPC*%
G36*
X17195Y14635D02*
X17195Y14635D01*
X17023Y14635D01*
X16915Y14743D01*
X16915Y14897D01*
X17023Y15005D01*
X17177Y15005D01*
X17285Y14897D01*
X17285Y14743D01*
X17210Y14669D01*
X17207Y14664D01*
X17203Y14660D01*
X17203Y14659D01*
X17200Y14654D01*
X17198Y14649D01*
X17198Y14648D01*
X17197Y14642D01*
X17196Y14637D01*
X17196Y14636D01*
X17196Y14635D01*
X17195Y14635D01*
G37*
%LPD*%
%LPC*%
G36*
X9643Y5815D02*
X9643Y5815D01*
X9535Y5923D01*
X9535Y6077D01*
X9643Y6185D01*
X9797Y6185D01*
X9905Y6077D01*
X9905Y5923D01*
X9797Y5815D01*
X9643Y5815D01*
G37*
%LPD*%
%LPC*%
G36*
X5593Y10015D02*
X5593Y10015D01*
X5485Y10123D01*
X5485Y10277D01*
X5593Y10385D01*
X5747Y10385D01*
X5855Y10277D01*
X5855Y10123D01*
X5747Y10015D01*
X5593Y10015D01*
G37*
%LPD*%
%LPC*%
G36*
X9943Y4975D02*
X9943Y4975D01*
X9835Y5083D01*
X9835Y5237D01*
X9943Y5345D01*
X10097Y5345D01*
X10205Y5237D01*
X10205Y5083D01*
X10097Y4975D01*
X9943Y4975D01*
G37*
%LPD*%
%LPC*%
G36*
X19543Y13195D02*
X19543Y13195D01*
X19435Y13303D01*
X19435Y13457D01*
X19543Y13565D01*
X19697Y13565D01*
X19805Y13457D01*
X19805Y13303D01*
X19697Y13195D01*
X19543Y13195D01*
G37*
%LPD*%
%LPC*%
G36*
X20083Y13195D02*
X20083Y13195D01*
X19975Y13303D01*
X19975Y13457D01*
X20083Y13565D01*
X20237Y13565D01*
X20345Y13457D01*
X20345Y13303D01*
X20237Y13195D01*
X20083Y13195D01*
G37*
%LPD*%
%LPC*%
G36*
X9943Y4255D02*
X9943Y4255D01*
X9835Y4363D01*
X9835Y4517D01*
X9943Y4625D01*
X10097Y4625D01*
X10205Y4517D01*
X10205Y4363D01*
X10097Y4255D01*
X9943Y4255D01*
G37*
%LPD*%
%LPC*%
G36*
X20563Y13195D02*
X20563Y13195D01*
X20455Y13303D01*
X20455Y13457D01*
X20563Y13565D01*
X20717Y13565D01*
X20825Y13457D01*
X20825Y13303D01*
X20717Y13195D01*
X20563Y13195D01*
G37*
%LPD*%
%LPC*%
G36*
X21923Y13565D02*
X21923Y13565D01*
X21815Y13673D01*
X21815Y13827D01*
X21923Y13935D01*
X22077Y13935D01*
X22185Y13827D01*
X22185Y13673D01*
X22077Y13565D01*
X21923Y13565D01*
G37*
%LPD*%
%LPC*%
G36*
X10603Y3535D02*
X10603Y3535D01*
X10495Y3643D01*
X10495Y3797D01*
X10603Y3905D01*
X10757Y3905D01*
X10865Y3797D01*
X10865Y3643D01*
X10757Y3535D01*
X10603Y3535D01*
G37*
%LPD*%
%LPC*%
G36*
X10723Y3055D02*
X10723Y3055D01*
X10615Y3163D01*
X10615Y3317D01*
X10723Y3425D01*
X10877Y3425D01*
X10985Y3317D01*
X10985Y3163D01*
X10877Y3055D01*
X10723Y3055D01*
G37*
%LPD*%
%LPC*%
G36*
X11923Y18815D02*
X11923Y18815D01*
X11815Y18923D01*
X11815Y19077D01*
X11923Y19185D01*
X12077Y19185D01*
X12185Y19077D01*
X12185Y18923D01*
X12077Y18815D01*
X11923Y18815D01*
G37*
%LPD*%
%LPC*%
G36*
X21923Y14065D02*
X21923Y14065D01*
X21815Y14173D01*
X21815Y14327D01*
X21923Y14435D01*
X22077Y14435D01*
X22185Y14327D01*
X22185Y14173D01*
X22077Y14065D01*
X21923Y14065D01*
G37*
%LPD*%
%LPC*%
G36*
X6673Y18815D02*
X6673Y18815D01*
X6565Y18923D01*
X6565Y19077D01*
X6673Y19185D01*
X6827Y19185D01*
X6935Y19077D01*
X6935Y18923D01*
X6827Y18815D01*
X6673Y18815D01*
G37*
%LPD*%
%LPC*%
G36*
X6173Y18815D02*
X6173Y18815D01*
X6065Y18923D01*
X6065Y19077D01*
X6173Y19185D01*
X6327Y19185D01*
X6435Y19077D01*
X6435Y18923D01*
X6327Y18815D01*
X6173Y18815D01*
G37*
%LPD*%
%LPC*%
G36*
X7173Y18815D02*
X7173Y18815D01*
X7065Y18923D01*
X7065Y19077D01*
X7173Y19185D01*
X7327Y19185D01*
X7435Y19077D01*
X7435Y18923D01*
X7327Y18815D01*
X7173Y18815D01*
G37*
%LPD*%
%LPC*%
G36*
X23423Y14065D02*
X23423Y14065D01*
X23315Y14173D01*
X23315Y14327D01*
X23423Y14435D01*
X23577Y14435D01*
X23685Y14327D01*
X23685Y14173D01*
X23577Y14065D01*
X23423Y14065D01*
G37*
%LPD*%
%LPC*%
G36*
X23423Y14565D02*
X23423Y14565D01*
X23315Y14673D01*
X23315Y14827D01*
X23423Y14935D01*
X23577Y14935D01*
X23685Y14827D01*
X23685Y14673D01*
X23577Y14565D01*
X23423Y14565D01*
G37*
%LPD*%
%LPC*%
G36*
X21923Y14565D02*
X21923Y14565D01*
X21815Y14673D01*
X21815Y14827D01*
X21923Y14935D01*
X22077Y14935D01*
X22185Y14827D01*
X22185Y14673D01*
X22077Y14565D01*
X21923Y14565D01*
G37*
%LPD*%
%LPC*%
G36*
X19603Y14755D02*
X19603Y14755D01*
X19495Y14863D01*
X19495Y15017D01*
X19603Y15125D01*
X19757Y15125D01*
X19865Y15017D01*
X19865Y14863D01*
X19757Y14755D01*
X19603Y14755D01*
G37*
%LPD*%
%LPC*%
G36*
X20083Y14755D02*
X20083Y14755D01*
X19975Y14863D01*
X19975Y15017D01*
X20083Y15125D01*
X20237Y15125D01*
X20345Y15017D01*
X20345Y14863D01*
X20237Y14755D01*
X20083Y14755D01*
G37*
%LPD*%
%LPC*%
G36*
X20563Y14755D02*
X20563Y14755D01*
X20455Y14863D01*
X20455Y15017D01*
X20563Y15125D01*
X20717Y15125D01*
X20825Y15017D01*
X20825Y14863D01*
X20717Y14755D01*
X20563Y14755D01*
G37*
%LPD*%
%LPC*%
G36*
X11263Y15115D02*
X11263Y15115D01*
X11155Y15223D01*
X11155Y15377D01*
X11263Y15485D01*
X11417Y15485D01*
X11525Y15377D01*
X11525Y15223D01*
X11417Y15115D01*
X11263Y15115D01*
G37*
%LPD*%
%LPC*%
G36*
X22613Y15565D02*
X22613Y15565D01*
X22505Y15673D01*
X22505Y15827D01*
X22613Y15935D01*
X22767Y15935D01*
X22875Y15827D01*
X22875Y15673D01*
X22767Y15565D01*
X22613Y15565D01*
G37*
%LPD*%
%LPC*%
G36*
X12923Y20565D02*
X12923Y20565D01*
X12815Y20673D01*
X12815Y20827D01*
X12923Y20935D01*
X13077Y20935D01*
X13185Y20827D01*
X13185Y20673D01*
X13077Y20565D01*
X12923Y20565D01*
G37*
%LPD*%
%LPC*%
G36*
X12923Y18815D02*
X12923Y18815D01*
X12815Y18923D01*
X12815Y19077D01*
X12923Y19185D01*
X13077Y19185D01*
X13185Y19077D01*
X13185Y18923D01*
X13077Y18815D01*
X12923Y18815D01*
G37*
%LPD*%
%LPC*%
G36*
X12423Y18815D02*
X12423Y18815D01*
X12315Y18923D01*
X12315Y19077D01*
X12423Y19185D01*
X12577Y19185D01*
X12685Y19077D01*
X12685Y18923D01*
X12577Y18815D01*
X12423Y18815D01*
G37*
%LPD*%
%LPC*%
G36*
X7173Y20565D02*
X7173Y20565D01*
X7065Y20673D01*
X7065Y20827D01*
X7173Y20935D01*
X7327Y20935D01*
X7435Y20827D01*
X7435Y20673D01*
X7327Y20565D01*
X7173Y20565D01*
G37*
%LPD*%
%LPC*%
G36*
X22613Y17065D02*
X22613Y17065D01*
X22505Y17173D01*
X22505Y17327D01*
X22613Y17435D01*
X22767Y17435D01*
X22875Y17327D01*
X22875Y17173D01*
X22767Y17065D01*
X22613Y17065D01*
G37*
%LPD*%
%LPC*%
G36*
X22613Y16565D02*
X22613Y16565D01*
X22505Y16673D01*
X22505Y16827D01*
X22613Y16935D01*
X22767Y16935D01*
X22875Y16827D01*
X22875Y16673D01*
X22767Y16565D01*
X22613Y16565D01*
G37*
%LPD*%
%LPC*%
G36*
X22613Y16065D02*
X22613Y16065D01*
X22505Y16173D01*
X22505Y16327D01*
X22613Y16435D01*
X22767Y16435D01*
X22875Y16327D01*
X22875Y16173D01*
X22767Y16065D01*
X22613Y16065D01*
G37*
%LPD*%
%LPC*%
G36*
X9283Y15955D02*
X9283Y15955D01*
X9175Y16063D01*
X9175Y16217D01*
X9283Y16325D01*
X9437Y16325D01*
X9545Y16217D01*
X9545Y16063D01*
X9437Y15955D01*
X9283Y15955D01*
G37*
%LPD*%
%LPC*%
G36*
X5443Y15825D02*
X5443Y15825D01*
X5335Y15933D01*
X5335Y16087D01*
X5443Y16195D01*
X5597Y16195D01*
X5705Y16087D01*
X5705Y15933D01*
X5597Y15825D01*
X5443Y15825D01*
G37*
%LPD*%
%LPC*%
G36*
X10903Y15715D02*
X10903Y15715D01*
X10795Y15823D01*
X10795Y15977D01*
X10903Y16085D01*
X11057Y16085D01*
X11165Y15977D01*
X11165Y15823D01*
X11057Y15715D01*
X10903Y15715D01*
G37*
%LPD*%
%LPC*%
G36*
X23423Y13565D02*
X23423Y13565D01*
X23315Y13673D01*
X23315Y13827D01*
X23423Y13935D01*
X23577Y13935D01*
X23685Y13827D01*
X23685Y13673D01*
X23577Y13565D01*
X23423Y13565D01*
G37*
%LPD*%
%LPC*%
G36*
X17873Y15575D02*
X17873Y15575D01*
X17765Y15683D01*
X17765Y15837D01*
X17873Y15945D01*
X18027Y15945D01*
X18135Y15837D01*
X18135Y15683D01*
X18027Y15575D01*
X17873Y15575D01*
G37*
%LPD*%
%LPC*%
G36*
X8863Y15595D02*
X8863Y15595D01*
X8755Y15703D01*
X8755Y15857D01*
X8863Y15965D01*
X9017Y15965D01*
X9125Y15857D01*
X9125Y15703D01*
X9017Y15595D01*
X8863Y15595D01*
G37*
%LPD*%
%LPC*%
G36*
X11203Y1135D02*
X11203Y1135D01*
X11095Y1243D01*
X11095Y1397D01*
X11203Y1505D01*
X11357Y1505D01*
X11465Y1397D01*
X11465Y1243D01*
X11357Y1135D01*
X11203Y1135D01*
G37*
%LPD*%
%LPC*%
G36*
X7173Y19565D02*
X7173Y19565D01*
X7065Y19673D01*
X7065Y19827D01*
X7173Y19935D01*
X7327Y19935D01*
X7435Y19827D01*
X7435Y19673D01*
X7327Y19565D01*
X7173Y19565D01*
G37*
%LPD*%
%LPC*%
G36*
X12923Y19565D02*
X12923Y19565D01*
X12815Y19673D01*
X12815Y19827D01*
X12923Y19935D01*
X13077Y19935D01*
X13185Y19827D01*
X13185Y19673D01*
X13077Y19565D01*
X12923Y19565D01*
G37*
%LPD*%
%LPC*%
G36*
X7173Y20065D02*
X7173Y20065D01*
X7065Y20173D01*
X7065Y20327D01*
X7173Y20435D01*
X7327Y20435D01*
X7435Y20327D01*
X7435Y20173D01*
X7327Y20065D01*
X7173Y20065D01*
G37*
%LPD*%
%LPC*%
G36*
X12923Y20065D02*
X12923Y20065D01*
X12815Y20173D01*
X12815Y20327D01*
X12923Y20435D01*
X13077Y20435D01*
X13185Y20327D01*
X13185Y20173D01*
X13077Y20065D01*
X12923Y20065D01*
G37*
%LPD*%
%LPC*%
G36*
X15929Y504D02*
X15929Y504D01*
X15929Y849D01*
X15936Y875D01*
X15949Y898D01*
X15968Y917D01*
X15991Y930D01*
X16017Y937D01*
X16161Y937D01*
X16161Y504D01*
X15929Y504D01*
G37*
%LPD*%
%LPC*%
G36*
X7929Y504D02*
X7929Y504D01*
X7929Y849D01*
X7936Y875D01*
X7949Y898D01*
X7968Y917D01*
X7991Y930D01*
X8017Y937D01*
X8161Y937D01*
X8161Y504D01*
X7929Y504D01*
G37*
%LPD*%
%LPC*%
G36*
X5929Y504D02*
X5929Y504D01*
X5929Y849D01*
X5936Y875D01*
X5949Y898D01*
X5968Y917D01*
X5991Y930D01*
X6017Y937D01*
X6161Y937D01*
X6161Y504D01*
X5929Y504D01*
G37*
%LPD*%
%LPC*%
G36*
X19929Y504D02*
X19929Y504D01*
X19929Y849D01*
X19936Y875D01*
X19949Y898D01*
X19968Y917D01*
X19991Y930D01*
X20017Y937D01*
X20161Y937D01*
X20161Y504D01*
X19929Y504D01*
G37*
%LPD*%
%LPC*%
G36*
X12929Y504D02*
X12929Y504D01*
X12929Y849D01*
X12936Y875D01*
X12949Y898D01*
X12968Y917D01*
X12991Y930D01*
X13017Y937D01*
X13161Y937D01*
X13161Y504D01*
X12929Y504D01*
G37*
%LPD*%
%LPC*%
G36*
X3017Y1823D02*
X3017Y1823D01*
X2991Y1830D01*
X2968Y1843D01*
X2949Y1862D01*
X2936Y1885D01*
X2929Y1911D01*
X2929Y2256D01*
X3161Y2256D01*
X3161Y1823D01*
X3017Y1823D01*
G37*
%LPD*%
%LPC*%
G36*
X8017Y1823D02*
X8017Y1823D01*
X7991Y1830D01*
X7968Y1843D01*
X7949Y1862D01*
X7936Y1885D01*
X7929Y1911D01*
X7929Y2256D01*
X8161Y2256D01*
X8161Y1823D01*
X8017Y1823D01*
G37*
%LPD*%
%LPC*%
G36*
X10017Y1823D02*
X10017Y1823D01*
X9991Y1830D01*
X9968Y1843D01*
X9949Y1862D01*
X9936Y1885D01*
X9929Y1911D01*
X9929Y2256D01*
X10161Y2256D01*
X10161Y1823D01*
X10017Y1823D01*
G37*
%LPD*%
%LPC*%
G36*
X18017Y1823D02*
X18017Y1823D01*
X17991Y1830D01*
X17968Y1843D01*
X17949Y1862D01*
X17936Y1885D01*
X17929Y1911D01*
X17929Y2256D01*
X18161Y2256D01*
X18161Y1823D01*
X18017Y1823D01*
G37*
%LPD*%
%LPC*%
G36*
X13399Y504D02*
X13399Y504D01*
X13399Y937D01*
X13543Y937D01*
X13569Y930D01*
X13592Y917D01*
X13611Y898D01*
X13624Y875D01*
X13631Y849D01*
X13631Y504D01*
X13399Y504D01*
G37*
%LPD*%
%LPC*%
G36*
X16399Y504D02*
X16399Y504D01*
X16399Y937D01*
X16543Y937D01*
X16569Y930D01*
X16592Y917D01*
X16611Y898D01*
X16624Y875D01*
X16631Y849D01*
X16631Y504D01*
X16399Y504D01*
G37*
%LPD*%
%LPC*%
G36*
X20399Y504D02*
X20399Y504D01*
X20399Y937D01*
X20543Y937D01*
X20569Y930D01*
X20592Y917D01*
X20611Y898D01*
X20624Y875D01*
X20631Y849D01*
X20631Y504D01*
X20399Y504D01*
G37*
%LPD*%
%LPC*%
G36*
X6399Y504D02*
X6399Y504D01*
X6399Y937D01*
X6543Y937D01*
X6569Y930D01*
X6592Y917D01*
X6611Y898D01*
X6624Y875D01*
X6631Y849D01*
X6631Y504D01*
X6399Y504D01*
G37*
%LPD*%
%LPC*%
G36*
X8399Y504D02*
X8399Y504D01*
X8399Y937D01*
X8543Y937D01*
X8569Y930D01*
X8592Y917D01*
X8611Y898D01*
X8624Y875D01*
X8631Y849D01*
X8631Y504D01*
X8399Y504D01*
G37*
%LPD*%
%LPC*%
G36*
X18399Y1823D02*
X18399Y1823D01*
X18399Y2256D01*
X18631Y2256D01*
X18631Y1911D01*
X18624Y1885D01*
X18611Y1862D01*
X18592Y1843D01*
X18569Y1830D01*
X18543Y1823D01*
X18399Y1823D01*
G37*
%LPD*%
%LPC*%
G36*
X10399Y1823D02*
X10399Y1823D01*
X10399Y2256D01*
X10631Y2256D01*
X10631Y1911D01*
X10624Y1885D01*
X10611Y1862D01*
X10592Y1843D01*
X10569Y1830D01*
X10543Y1823D01*
X10399Y1823D01*
G37*
%LPD*%
%LPC*%
G36*
X3399Y1823D02*
X3399Y1823D01*
X3399Y2256D01*
X3631Y2256D01*
X3631Y1911D01*
X3624Y1885D01*
X3611Y1862D01*
X3592Y1843D01*
X3569Y1830D01*
X3543Y1823D01*
X3399Y1823D01*
G37*
%LPD*%
%LPC*%
G36*
X8399Y1823D02*
X8399Y1823D01*
X8399Y2256D01*
X8631Y2256D01*
X8631Y1911D01*
X8624Y1885D01*
X8611Y1862D01*
X8592Y1843D01*
X8569Y1830D01*
X8543Y1823D01*
X8399Y1823D01*
G37*
%LPD*%
%LPC*%
G36*
X22404Y509D02*
X22404Y509D01*
X22404Y937D01*
X22543Y937D01*
X22569Y930D01*
X22592Y917D01*
X22611Y898D01*
X22624Y875D01*
X22631Y849D01*
X22631Y509D01*
X22404Y509D01*
G37*
%LPD*%
%LPC*%
G36*
X21929Y509D02*
X21929Y509D01*
X21929Y849D01*
X21936Y875D01*
X21949Y898D01*
X21968Y917D01*
X21991Y930D01*
X22017Y937D01*
X22156Y937D01*
X22156Y509D01*
X21929Y509D01*
G37*
%LPD*%
%LPC*%
G36*
X17188Y19749D02*
X17188Y19749D01*
X17188Y19751D01*
X17190Y19751D01*
X17190Y19749D01*
X17188Y19749D01*
G37*
%LPD*%
%LPC*%
G36*
X10188Y19749D02*
X10188Y19749D01*
X10188Y19751D01*
X10190Y19751D01*
X10190Y19749D01*
X10188Y19749D01*
G37*
%LPD*%
%LPC*%
G36*
X4618Y19749D02*
X4618Y19749D01*
X4618Y19751D01*
X4620Y19751D01*
X4620Y19749D01*
X4618Y19749D01*
G37*
%LPD*%
%LPC*%
G36*
X20989Y18960D02*
X20989Y18960D01*
X20989Y18962D01*
X20991Y18962D01*
X20991Y18960D01*
X20989Y18960D01*
G37*
%LPD*%
%LPC*%
G36*
X19139Y17779D02*
X19139Y17779D01*
X19139Y17781D01*
X19140Y17781D01*
X19140Y17779D01*
X19139Y17779D01*
G37*
%LPD*%
D10*
X24120Y3000D03*
X24000Y19140D03*
D11*
X19140Y18176D02*
X19140Y17384D01*
X20990Y18566D02*
X20990Y19357D01*
X20990Y16994D02*
X20990Y16203D01*
D10*
X-2700Y3000D03*
X-2700Y18000D03*
D12*
X17500Y17770D02*
X17500Y17230D01*
X16500Y17230D02*
X16500Y17770D01*
X15500Y17770D02*
X15500Y17230D01*
X5200Y17230D02*
X5200Y17770D01*
X4200Y17770D02*
X4200Y17230D01*
X3200Y17230D02*
X3200Y17770D01*
X10400Y17770D02*
X10400Y17230D01*
X9400Y17230D02*
X9400Y17770D01*
X8400Y17770D02*
X8400Y17230D01*
D13*
X22280Y2375D03*
X22280Y385D03*
X21280Y2375D03*
X21280Y385D03*
X20280Y2375D03*
X20280Y385D03*
X19280Y2375D03*
X19280Y385D03*
X18280Y2375D03*
X18280Y385D03*
X17280Y2375D03*
X17280Y385D03*
X16280Y2375D03*
X16280Y385D03*
X15280Y2375D03*
X15280Y385D03*
X14280Y2375D03*
X14280Y385D03*
X13280Y2375D03*
X13280Y385D03*
X12280Y2375D03*
X12280Y385D03*
X11280Y2375D03*
X11280Y385D03*
X10280Y2375D03*
X10280Y385D03*
X9280Y2375D03*
X9280Y385D03*
X8280Y2375D03*
X8280Y385D03*
X7280Y2375D03*
X7280Y385D03*
X6280Y2375D03*
X6280Y385D03*
X5280Y2375D03*
X5280Y385D03*
X4280Y2375D03*
X4280Y385D03*
X3280Y2375D03*
X3280Y385D03*
D10*
X1260Y19260D03*
D14*
X17189Y19396D02*
X17189Y20104D01*
X15811Y20104D02*
X15811Y19396D01*
X4619Y19396D02*
X4619Y20104D01*
X3241Y20104D02*
X3241Y19396D01*
X10189Y19396D02*
X10189Y20104D01*
X8811Y20104D02*
X8811Y19396D01*
D10*
X28200Y3000D03*
X28200Y18000D03*
D15*
X500Y5000D03*
X500Y7500D03*
X500Y10000D03*
X500Y12500D03*
X500Y15000D03*
X740Y17500D03*
X2000Y21625D03*
X500Y19760D03*
X4500Y21625D03*
X7000Y21625D03*
X9500Y21625D03*
X12840Y21625D03*
X14500Y21625D03*
X17000Y21625D03*
X19500Y21625D03*
X22000Y21625D03*
X24500Y21625D03*
X25000Y19500D03*
X25120Y16640D03*
X25000Y14500D03*
X25000Y12000D03*
X25000Y9500D03*
X25000Y7000D03*
X25000Y4500D03*
X24880Y2120D03*
X24947Y250D03*
X23000Y-375D03*
X20500Y-375D03*
X18000Y-375D03*
X15500Y-375D03*
X13000Y-375D03*
X10500Y-375D03*
X8000Y-375D03*
X5500Y-375D03*
X3000Y-375D03*
X500Y125D03*
X740Y2500D03*
X16440Y15520D03*
X8900Y18100D03*
X17000Y18100D03*
X16000Y18100D03*
X16440Y15940D03*
X21500Y13750D03*
X21500Y14750D03*
X21500Y14250D03*
X19860Y13020D03*
X20400Y13020D03*
X19920Y15360D03*
X20400Y15360D03*
X22250Y17000D03*
X22250Y16500D03*
X22250Y16000D03*
X10800Y840D03*
X10920Y1200D03*
X10220Y3780D03*
X11460Y6610D03*
X12060Y3360D03*
X10800Y2820D03*
X12790Y2400D03*
X22560Y1320D03*
X21960Y1320D03*
X22800Y0D03*
X10020Y1440D03*
X12840Y3240D03*
X11460Y4080D03*
X4500Y3900D03*
X4500Y5000D03*
X4500Y6000D03*
X4500Y7100D03*
X8940Y16140D03*
X13500Y20500D03*
X13500Y20000D03*
X11640Y15000D03*
X11650Y14560D03*
X7750Y20500D03*
X7750Y20000D03*
X10200Y10920D03*
X9900Y18100D03*
X10140Y6000D03*
X10200Y4800D03*
X11940Y4080D03*
X11940Y6610D03*
X5970Y16000D03*
X24000Y14750D03*
X24000Y14250D03*
X24000Y13750D03*
X17950Y16240D03*
X18430Y16120D03*
X18430Y15400D03*
X18910Y15400D03*
X18430Y15760D03*
X3700Y18100D03*
X4700Y18100D03*
X16680Y14460D03*
X16320Y14760D03*
X21780Y0D03*
X6750Y10250D03*
X2340Y9960D03*
X10800Y10920D03*
X12660Y15920D03*
X12660Y15560D03*
X11100Y16260D03*
X1740Y14820D03*
X1740Y14340D03*
X7680Y4190D03*
X7030Y4710D03*
X7680Y5220D03*
X7680Y6230D03*
X3180Y10920D03*
X3780Y10920D03*
X12250Y18500D03*
X13500Y19500D03*
X12750Y18500D03*
X6500Y18500D03*
X7000Y18500D03*
X7720Y19455D03*
X2940Y1320D03*
X3540Y1320D03*
X8000Y1365D03*
X8540Y1365D03*
X8960Y1365D03*
X7580Y1365D03*
X5940Y1380D03*
X6540Y1380D03*
X10620Y1440D03*
X13020Y1380D03*
X13620Y1380D03*
X15960Y1380D03*
X16560Y1380D03*
X18000Y1320D03*
X18600Y1320D03*
X19980Y1440D03*
X20580Y1440D03*
X8900Y16900D03*
X9900Y16900D03*
X3700Y16900D03*
X4700Y16900D03*
X16000Y16900D03*
X17000Y16900D03*
X10870Y14020D03*
X13800Y2760D03*
X11760Y2640D03*
X15500Y13875D03*
X14250Y12625D03*
X15500Y11375D03*
X14250Y10125D03*
X15500Y8875D03*
X14250Y7625D03*
X14250Y5125D03*
X15500Y6375D03*
X15500Y3875D03*
X16750Y5125D03*
X16750Y7625D03*
X16750Y10125D03*
X18000Y8875D03*
X19250Y7625D03*
X20500Y6375D03*
X19250Y5125D03*
X18000Y6375D03*
X20500Y3875D03*
X20500Y8875D03*
X19250Y10125D03*
X15500Y5125D03*
X16750Y6375D03*
X18000Y5125D03*
X19250Y6375D03*
X18000Y7625D03*
X20500Y7625D03*
X19250Y8875D03*
X18000Y10125D03*
X16750Y8875D03*
X15500Y7625D03*
X14250Y6375D03*
X13000Y6375D03*
X13000Y7625D03*
X13000Y8875D03*
X14250Y11375D03*
X13000Y11375D03*
X13000Y12625D03*
X13000Y13875D03*
X14250Y13875D03*
X15500Y12625D03*
X15500Y10125D03*
X14250Y8875D03*
X13000Y10125D03*
X11750Y10125D03*
X11750Y11375D03*
X11750Y12625D03*
X11750Y13875D03*
X11750Y8875D03*
X11750Y7625D03*
X13000Y5125D03*
X14250Y3875D03*
X16750Y3875D03*
X18000Y3875D03*
X19250Y3875D03*
X20500Y5125D03*
X21750Y5125D03*
X21750Y6375D03*
X21750Y7625D03*
X21750Y8875D03*
X21750Y10125D03*
X21750Y11375D03*
X20500Y11375D03*
X20500Y10125D03*
X23000Y7625D03*
X23000Y8875D03*
X24250Y8875D03*
X24250Y7625D03*
X24250Y6375D03*
X24250Y5125D03*
X24250Y3875D03*
X23000Y5125D03*
X23000Y6375D03*
X23000Y3875D03*
X21750Y3875D03*
X24250Y125D03*
X23000Y2625D03*
X21750Y2625D03*
X10500Y10125D03*
X10500Y8875D03*
X9250Y8875D03*
X9250Y10125D03*
X9250Y11375D03*
X9250Y12625D03*
X8000Y12625D03*
X6750Y12625D03*
X5500Y12875D03*
X4250Y11375D03*
X8000Y13875D03*
X6750Y13875D03*
X8000Y11375D03*
X6750Y11375D03*
X5500Y11625D03*
X8000Y10125D03*
X8000Y8875D03*
X8000Y7625D03*
X9250Y7625D03*
X10500Y7625D03*
X6750Y7625D03*
X6750Y8875D03*
X4250Y12625D03*
X1750Y12625D03*
X1750Y11375D03*
X1750Y10125D03*
X1750Y8875D03*
X1750Y7625D03*
X1750Y6375D03*
X1750Y5125D03*
X1750Y3875D03*
X1750Y2625D03*
X3000Y3875D03*
X4250Y9125D03*
X5500Y3875D03*
X6750Y3875D03*
X1750Y16250D03*
X1750Y17500D03*
X3000Y21250D03*
X14250Y15125D03*
X13000Y15125D03*
X14250Y18875D03*
X14250Y20125D03*
X15500Y21375D03*
X18000Y21375D03*
X19250Y20125D03*
X18000Y18875D03*
X19250Y16375D03*
X21750Y17625D03*
X21750Y18875D03*
X21750Y20125D03*
X23000Y21375D03*
X24250Y15125D03*
X24250Y12625D03*
X24250Y11375D03*
X23000Y11375D03*
X21750Y12625D03*
X20500Y12625D03*
X19250Y11375D03*
X19250Y12625D03*
X12375Y14500D03*
X12375Y13250D03*
X12375Y12000D03*
X12375Y10750D03*
X12375Y9500D03*
X12375Y8250D03*
X12375Y7000D03*
X13000Y5750D03*
X13000Y4500D03*
X13000Y7000D03*
X12375Y7625D03*
X11125Y7625D03*
X12375Y8875D03*
X12375Y10125D03*
X12375Y11375D03*
X12375Y12625D03*
X12375Y13875D03*
X13625Y3875D03*
X14250Y3250D03*
X13625Y4500D03*
X14875Y3250D03*
X1750Y7000D03*
X1750Y5750D03*
X1750Y4500D03*
X1750Y3250D03*
X2375Y8250D03*
X2375Y7625D03*
X2375Y7000D03*
X2375Y6375D03*
X2375Y5750D03*
X2375Y5125D03*
X2375Y4500D03*
X2375Y3875D03*
X3000Y8250D03*
X2375Y9500D03*
X2375Y8875D03*
X1750Y8250D03*
X2375Y10750D03*
X4250Y10750D03*
X4875Y10750D03*
X5000Y11500D03*
X5500Y11000D03*
X3125Y10375D03*
X6100Y8250D03*
X6750Y6000D03*
X6750Y7000D03*
X6100Y9200D03*
X6750Y8250D03*
X6750Y9750D03*
X7375Y7000D03*
X7375Y7625D03*
X8000Y7000D03*
X8625Y7000D03*
X8625Y7625D03*
X9250Y7000D03*
X9875Y7625D03*
X3625Y3250D03*
X4250Y3250D03*
X4875Y3250D03*
X5500Y3250D03*
X6125Y3250D03*
X6750Y3250D03*
X7375Y3250D03*
X8000Y3250D03*
X8625Y3250D03*
X9250Y3250D03*
X3000Y3250D03*
X2375Y3250D03*
X3625Y3875D03*
X6125Y3875D03*
X4875Y9125D03*
X4250Y8500D03*
X4875Y8500D03*
X6340Y5300D03*
X3775Y8250D03*
X6125Y13250D03*
X7375Y13250D03*
X4875Y12000D03*
X2375Y12000D03*
X1750Y13250D03*
X2375Y12625D03*
X1750Y12000D03*
X2375Y11375D03*
X1750Y18250D03*
X13625Y14500D03*
X13625Y13250D03*
X13625Y12000D03*
X13625Y10750D03*
X13000Y10750D03*
X13000Y12000D03*
X13000Y13250D03*
X13000Y14500D03*
X13000Y9500D03*
X18625Y20750D03*
X18625Y19500D03*
X19875Y16375D03*
X21305Y15330D03*
X21750Y17000D03*
X21750Y15750D03*
X19250Y15750D03*
X19875Y17625D03*
X14875Y4500D03*
X16125Y3250D03*
X17375Y3250D03*
X18625Y3250D03*
X19875Y3250D03*
X21125Y3250D03*
X21750Y3250D03*
X22375Y3250D03*
X20500Y3250D03*
X19250Y3250D03*
X18000Y3250D03*
X16750Y3250D03*
X15500Y3250D03*
X24875Y6375D03*
X19875Y10750D03*
X18625Y10750D03*
X17375Y10750D03*
X16125Y10750D03*
X14875Y12000D03*
X19875Y8250D03*
X19875Y7000D03*
X19875Y6375D03*
X19875Y7625D03*
X19875Y5750D03*
X19875Y5125D03*
X19875Y4500D03*
X19875Y3875D03*
X19875Y9500D03*
X1125Y4500D03*
X1125Y3250D03*
X1125Y5750D03*
X1125Y7000D03*
X1125Y8250D03*
X1125Y9500D03*
X1125Y10750D03*
X1125Y12000D03*
X2375Y15750D03*
X13625Y5125D03*
X14250Y4500D03*
X14875Y3875D03*
X13625Y5750D03*
X13625Y6375D03*
X13625Y7000D03*
X13000Y8250D03*
X5500Y12250D03*
X6125Y11375D03*
X6125Y12000D03*
X6125Y12625D03*
X6125Y13875D03*
X6750Y10750D03*
X6750Y13250D03*
X6750Y12000D03*
X14875Y10750D03*
X16125Y9500D03*
X20500Y4500D03*
X20500Y5750D03*
X20500Y8250D03*
X20500Y7000D03*
X8000Y12000D03*
X8000Y10750D03*
X8000Y9500D03*
X8000Y8250D03*
X8625Y12625D03*
X8625Y12000D03*
X8625Y11375D03*
X8625Y10750D03*
X8625Y10125D03*
X8000Y13250D03*
X8625Y8875D03*
X8625Y9500D03*
X8625Y8250D03*
X19875Y10125D03*
X19250Y10750D03*
X20500Y9500D03*
X18625Y11375D03*
X16125Y11375D03*
X15500Y12000D03*
X14875Y12625D03*
X14250Y13250D03*
X13625Y13875D03*
X18000Y10750D03*
X16750Y10750D03*
X1750Y10750D03*
X1750Y9500D03*
X1750Y125D03*
X2375Y125D03*
X2375Y750D03*
X1125Y125D03*
X19875Y19500D03*
X19875Y20750D03*
X20625Y21250D03*
X20625Y20250D03*
X18375Y18250D03*
X19250Y18875D03*
X19875Y18250D03*
X5430Y10450D03*
X5910Y10450D03*
X10800Y3240D03*
X10020Y4440D03*
X12790Y2820D03*
X10020Y5160D03*
X9720Y6000D03*
X12420Y3240D03*
D16*
X12420Y2515D01*
X12280Y2375D01*
D15*
X22000Y14750D03*
X22000Y13750D03*
X23500Y14750D03*
X19620Y13380D03*
X20160Y13380D03*
X20640Y13380D03*
X22690Y15750D03*
X22690Y16250D03*
X22690Y16750D03*
X22690Y17250D03*
X23500Y13750D03*
X22000Y14250D03*
X23500Y14250D03*
X22740Y960D03*
X22800Y420D03*
X22260Y1070D03*
X21780Y960D03*
X21780Y420D03*
X12300Y15380D03*
X12300Y16120D03*
X12300Y15740D03*
X2040Y14580D03*
X2100Y15000D03*
X2100Y14160D03*
X10920Y11280D03*
X12060Y4440D03*
X11340Y4440D03*
X11700Y4440D03*
X11340Y6240D03*
X11700Y6240D03*
X12060Y6240D03*
X13000Y19750D03*
X13000Y20250D03*
X13000Y20750D03*
X10500Y11160D03*
X10080Y11280D03*
X12000Y19000D03*
X12500Y19000D03*
X13000Y19000D03*
X8000Y4370D03*
X4300Y4200D03*
X7990Y3990D03*
X4700Y4200D03*
X7330Y4900D03*
X4300Y5300D03*
X7330Y4520D03*
X4700Y5300D03*
X7990Y5410D03*
X4300Y6300D03*
X7990Y5030D03*
X4700Y6300D03*
X11280Y1320D03*
X10680Y3720D03*
X7990Y6040D03*
X4700Y7400D03*
X7990Y6430D03*
X4300Y7400D03*
X3060Y11280D03*
X3480Y11160D03*
X3880Y11280D03*
X4950Y9960D03*
X6330Y9960D03*
X5190Y10200D03*
X6150Y10200D03*
X7250Y20750D03*
X7250Y20250D03*
X6250Y19000D03*
X6750Y19000D03*
X7250Y19000D03*
X7250Y19750D03*
X5670Y10200D03*
X10980Y15900D03*
X10860Y14400D03*
X11280Y14580D03*
X11340Y15300D03*
X19680Y14940D03*
X20160Y14940D03*
X20640Y14940D03*
X18310Y14920D03*
X18670Y15100D03*
X19030Y14920D03*
X17950Y15220D03*
X17950Y15760D03*
X17640Y14820D03*
X17340Y14400D03*
X17880Y14400D03*
X17100Y14820D03*
X16030Y16180D03*
X16030Y15760D03*
X16010Y15340D03*
X5520Y16010D03*
X9360Y16140D03*
X8940Y15780D03*
X10800Y360D03*
D16*
X10835Y325D01*
X11220Y325D02*
X11280Y385D01*
X11220Y325D02*
X10835Y325D01*
D15*
X3240Y1680D03*
X2820Y1740D03*
X3660Y1740D03*
X17880Y1680D03*
X18300Y1560D03*
X18720Y1680D03*
X15840Y1020D03*
X16260Y1080D03*
X16680Y1020D03*
X5820Y960D03*
X6240Y1080D03*
X6720Y960D03*
X9840Y1800D03*
X10320Y1680D03*
X10740Y1800D03*
X7860Y1800D03*
X8280Y1680D03*
X8700Y1800D03*
X19860Y1020D03*
X20280Y1140D03*
X20700Y1020D03*
X7800Y960D03*
X8280Y1080D03*
X8760Y960D03*
X12840Y1020D03*
X13320Y1080D03*
X13740Y1020D03*
X11760Y2220D03*
D16*
X11435Y2220D02*
X11280Y2375D01*
X11435Y2220D02*
X11760Y2220D01*
D15*
X13800Y2340D03*
D16*
X13285Y2375D02*
X13280Y2375D01*
X13320Y2340D02*
X13800Y2340D01*
X13320Y2340D02*
X13285Y2375D01*
D17*
X-4134Y-394D02*
X-4132Y-428D01*
X-4128Y-462D01*
X-4120Y-496D01*
X-4110Y-528D01*
X-4097Y-560D01*
X-4081Y-591D01*
X-4063Y-620D01*
X-4042Y-647D01*
X-4019Y-672D01*
X-3993Y-695D01*
X-3966Y-716D01*
X-3937Y-735D01*
X-3907Y-751D01*
X-3875Y-764D01*
X-3842Y-774D01*
X-3809Y-781D01*
X-3774Y-786D01*
X-3740Y-787D01*
X-1575Y-787D01*
X-1540Y-786D01*
X-1506Y-781D01*
X-1473Y-774D01*
X-1440Y-764D01*
X-1408Y-751D01*
X-1378Y-735D01*
X-1349Y-716D01*
X-1322Y-695D01*
X-1296Y-672D01*
X-1273Y-647D01*
X-1252Y-620D01*
X-1234Y-591D01*
X-1218Y-560D01*
X-1205Y-528D01*
X-1195Y-496D01*
X-1187Y-462D01*
X-1183Y-428D01*
X-1181Y-394D01*
X-1181Y2165D01*
X-1180Y2200D01*
X-1175Y2234D01*
X-1168Y2267D01*
X-1157Y2300D01*
X-1144Y2332D01*
X-1128Y2362D01*
X-1110Y2391D01*
X-1089Y2418D01*
X-1066Y2444D01*
X-1040Y2467D01*
X-1013Y2488D01*
X-984Y2506D01*
X-954Y2522D01*
X-922Y2535D01*
X-889Y2546D01*
X-856Y2553D01*
X-822Y2558D01*
X-787Y2559D01*
X-394Y2559D01*
X-359Y2558D01*
X-325Y2553D01*
X-292Y2546D01*
X-259Y2535D01*
X-227Y2522D01*
X-197Y2506D01*
X-168Y2488D01*
X-141Y2467D01*
X-115Y2444D01*
X-92Y2418D01*
X-71Y2391D01*
X-53Y2362D01*
X-37Y2332D01*
X-24Y2300D01*
X-13Y2267D01*
X-6Y2234D01*
X-1Y2200D01*
X0Y2165D01*
X0Y394D01*
X4Y291D01*
X18Y189D01*
X40Y88D01*
X71Y-10D01*
X111Y-105D01*
X158Y-197D01*
X214Y-284D01*
X276Y-365D01*
X346Y-441D01*
X422Y-511D01*
X504Y-574D01*
X591Y-629D01*
X682Y-677D01*
X777Y-716D01*
X875Y-747D01*
X976Y-769D01*
X1078Y-783D01*
X1181Y-787D01*
X24409Y-787D01*
X24512Y-783D01*
X24615Y-769D01*
X24715Y-747D01*
X24813Y-716D01*
X24909Y-677D01*
X25000Y-629D01*
X25087Y-574D01*
X25169Y-511D01*
X25245Y-441D01*
X25314Y-365D01*
X25377Y-284D01*
X25432Y-197D01*
X25480Y-105D01*
X25519Y-10D01*
X25550Y88D01*
X25573Y189D01*
X25586Y291D01*
X25591Y394D01*
X25591Y2165D01*
X25592Y2200D01*
X25597Y2234D01*
X25604Y2267D01*
X25614Y2300D01*
X25627Y2332D01*
X25643Y2362D01*
X25662Y2391D01*
X25683Y2418D01*
X25706Y2444D01*
X25731Y2467D01*
X25758Y2488D01*
X25787Y2506D01*
X25818Y2522D01*
X25850Y2535D01*
X25882Y2546D01*
X25916Y2553D01*
X25950Y2558D01*
X25984Y2559D01*
X26378Y2559D01*
X26412Y2558D01*
X26446Y2553D01*
X26480Y2546D01*
X26513Y2535D01*
X26544Y2522D01*
X26575Y2506D01*
X26604Y2488D01*
X26631Y2467D01*
X26656Y2444D01*
X26680Y2418D01*
X26700Y2391D01*
X26719Y2362D01*
X26735Y2332D01*
X26748Y2300D01*
X26758Y2267D01*
X26766Y2234D01*
X26770Y2200D01*
X26772Y2165D01*
X26772Y-394D01*
X26773Y-428D01*
X26778Y-462D01*
X26785Y-496D01*
X26795Y-528D01*
X26809Y-560D01*
X26824Y-591D01*
X26843Y-620D01*
X26864Y-647D01*
X26887Y-672D01*
X26912Y-695D01*
X26940Y-716D01*
X26969Y-735D01*
X26999Y-751D01*
X27031Y-764D01*
X27063Y-774D01*
X27097Y-781D01*
X27131Y-786D01*
X27165Y-787D01*
X29331Y-787D01*
X29365Y-786D01*
X29399Y-781D01*
X29433Y-774D01*
X29465Y-764D01*
X29497Y-751D01*
X29528Y-735D01*
X29557Y-716D01*
X29584Y-695D01*
X29609Y-672D01*
X29632Y-647D01*
X29653Y-620D01*
X29672Y-591D01*
X29688Y-560D01*
X29701Y-528D01*
X29711Y-496D01*
X29718Y-462D01*
X29723Y-428D01*
X29724Y-394D01*
X29724Y21654D01*
X29723Y21688D01*
X29718Y21722D01*
X29711Y21755D01*
X29701Y21788D01*
X29688Y21820D01*
X29672Y21850D01*
X29653Y21879D01*
X29632Y21907D01*
X29609Y21932D01*
X29584Y21955D01*
X29557Y21976D01*
X29528Y21994D01*
X29497Y22010D01*
X29465Y22024D01*
X29433Y22034D01*
X29399Y22041D01*
X29365Y22046D01*
X29331Y22047D01*
X27165Y22047D01*
X27131Y22046D01*
X27097Y22041D01*
X27063Y22034D01*
X27031Y22024D01*
X26999Y22010D01*
X26969Y21994D01*
X26940Y21976D01*
X26912Y21955D01*
X26887Y21932D01*
X26864Y21907D01*
X26843Y21879D01*
X26824Y21850D01*
X26809Y21820D01*
X26795Y21788D01*
X26785Y21755D01*
X26778Y21722D01*
X26773Y21688D01*
X26772Y21654D01*
X26772Y19094D01*
X26770Y19060D01*
X26766Y19026D01*
X26758Y18993D01*
X26748Y18960D01*
X26735Y18928D01*
X26719Y18898D01*
X26700Y18869D01*
X26680Y18841D01*
X26656Y18816D01*
X26631Y18793D01*
X26604Y18772D01*
X26575Y18754D01*
X26544Y18738D01*
X26513Y18725D01*
X26480Y18714D01*
X26446Y18707D01*
X26412Y18702D01*
X26378Y18701D01*
X25984Y18701D01*
X25950Y18702D01*
X25916Y18707D01*
X25882Y18714D01*
X25850Y18725D01*
X25818Y18738D01*
X25787Y18754D01*
X25758Y18772D01*
X25731Y18793D01*
X25706Y18816D01*
X25683Y18841D01*
X25662Y18869D01*
X25643Y18898D01*
X25627Y18928D01*
X25614Y18960D01*
X25604Y18993D01*
X25597Y19026D01*
X25592Y19060D01*
X25591Y19094D01*
X25591Y20866D01*
X25586Y20969D01*
X25573Y21071D01*
X25550Y21172D01*
X25519Y21270D01*
X25480Y21365D01*
X25432Y21457D01*
X25377Y21544D01*
X25314Y21625D01*
X25245Y21701D01*
X25169Y21771D01*
X25087Y21834D01*
X25000Y21889D01*
X24909Y21937D01*
X24813Y21976D01*
X24715Y22007D01*
X24615Y22029D01*
X24512Y22043D01*
X24409Y22047D01*
X1181Y22047D01*
X1078Y22043D01*
X976Y22029D01*
X875Y22007D01*
X777Y21976D01*
X682Y21937D01*
X591Y21889D01*
X504Y21834D01*
X422Y21771D01*
X346Y21701D01*
X276Y21625D01*
X214Y21544D01*
X158Y21457D01*
X111Y21365D01*
X71Y21270D01*
X40Y21172D01*
X18Y21071D01*
X4Y20969D01*
X0Y20866D01*
X0Y19094D01*
X-1Y19060D01*
X-6Y19026D01*
X-13Y18993D01*
X-24Y18960D01*
X-37Y18928D01*
X-53Y18898D01*
X-71Y18869D01*
X-92Y18841D01*
X-115Y18816D01*
X-141Y18793D01*
X-168Y18772D01*
X-197Y18754D01*
X-227Y18738D01*
X-259Y18725D01*
X-292Y18714D01*
X-325Y18707D01*
X-359Y18702D01*
X-394Y18701D01*
X-787Y18701D01*
X-822Y18702D01*
X-856Y18707D01*
X-889Y18714D01*
X-922Y18725D01*
X-954Y18738D01*
X-984Y18754D01*
X-1013Y18772D01*
X-1040Y18793D01*
X-1066Y18816D01*
X-1089Y18841D01*
X-1110Y18869D01*
X-1128Y18898D01*
X-1144Y18928D01*
X-1157Y18960D01*
X-1168Y18993D01*
X-1175Y19026D01*
X-1180Y19060D01*
X-1181Y19094D01*
X-1181Y21654D01*
X-1183Y21688D01*
X-1187Y21722D01*
X-1195Y21755D01*
X-1205Y21788D01*
X-1218Y21820D01*
X-1234Y21850D01*
X-1252Y21879D01*
X-1273Y21907D01*
X-1296Y21932D01*
X-1322Y21955D01*
X-1349Y21976D01*
X-1378Y21994D01*
X-1408Y22010D01*
X-1440Y22024D01*
X-1473Y22034D01*
X-1506Y22041D01*
X-1540Y22046D01*
X-1575Y22047D01*
X-3740Y22047D01*
X-3774Y22046D01*
X-3809Y22041D01*
X-3842Y22034D01*
X-3875Y22024D01*
X-3907Y22010D01*
X-3937Y21994D01*
X-3966Y21976D01*
X-3993Y21955D01*
X-4019Y21932D01*
X-4042Y21907D01*
X-4063Y21879D01*
X-4081Y21850D01*
X-4097Y21820D01*
X-4110Y21788D01*
X-4120Y21755D01*
X-4128Y21722D01*
X-4132Y21688D01*
X-4134Y21654D01*
X-4134Y-394D01*
M02*
