M48
;GenerationSoftware,Autodesk,EAGLE,9.6.2*%
;CreationDate,2020-10-05T19:43:37Z*%
FMAT,2
ICI,OFF
INCH,TZ,000.000
T7C0.012
T6C0.015
T5C0.036
T4C0.047
T3C0.055
T2C0.118
T1C0.125
%
G90
M72
T1
X-266Y118
X-266Y2008
X2825Y118
X2825Y2008
T2
X138Y138
X2421Y138
X138Y2067
X2421Y2067
T3
X1914Y1778
X2099Y1896
X2099Y1660
T4
X881Y1975
X1719Y1975
X1581Y1975
X462Y1975
X324Y1975
X1019Y1975
T5
X1550Y1750
X1650Y1750
X1750Y1750
X420Y1750
X320Y1750
X1040Y1750
X520Y1750
X940Y1750
X840Y1750
T6
X2558Y1791
X2558Y1831
X2558Y1865
X2558Y369
X2558Y335
X2558Y295
X2558Y261
X0Y1796
X0Y1831
X0Y1865
X0Y1757
X0Y369
X0Y335
X0Y295
X0Y261
X2558Y1757
T7
X2150Y1375
X2150Y1475
X2150Y1425
X1986Y1302
X2040Y1302
X1992Y1536
X2040Y1536
X2225Y1700
X2225Y1650
X2225Y1600
X1080Y84
X1092Y120
X1022Y378
X1146Y661
X1206Y336
X1080Y282
X1279Y240
X2256Y132
X2196Y132
X2280Y0
X1002Y144
X1284Y324
X1146Y408
X450Y390
X450Y500
X450Y600
X450Y710
X894Y1614
X1350Y2050
X1350Y2000
X1164Y1500
X1165Y1456
X775Y2050
X775Y2000
X1020Y1092
X990Y1810
X1014Y600
X1020Y480
X1194Y408
X1194Y661
X597Y1600
X2400Y1475
X2400Y1425
X2400Y1375
X1795Y1624
X1843Y1612
X1843Y1540
X1891Y1540
X1843Y1576
X370Y1810
X470Y1810
X1668Y1446
X1632Y1476
X2178Y0
X675Y1025
X234Y996
X1080Y1092
X1266Y1592
X1266Y1556
X1110Y1626
X174Y1482
X174Y1434
X768Y419
X703Y471
X768Y522
X768Y623
X318Y1092
X378Y1092
X1225Y1850
X1350Y1950
X1275Y1850
X650Y1850
X700Y1850
X772Y1946
X294Y132
X354Y132
X800Y137
X854Y137
X896Y137
X758Y137
X594Y138
X654Y138
X1062Y144
X1302Y138
X1362Y138
X1596Y138
X1656Y138
X1800Y132
X1860Y132
X1998Y144
X2058Y144
X890Y1690
X990Y1690
X370Y1690
X470Y1690
X1600Y1690
X1700Y1690
X1087Y1402
X1380Y276
X1176Y264
X1550Y1388
X1425Y1263
X1550Y1138
X1425Y1013
X1550Y888
X1425Y763
X1425Y513
X1550Y638
X1550Y388
X1675Y513
X1675Y763
X1675Y1013
X1800Y888
X1925Y763
X2050Y638
X1925Y513
X1800Y638
X2050Y388
X2050Y888
X1925Y1013
X1550Y513
X1675Y638
X1800Y513
X1925Y638
X1800Y763
X2050Y763
X1925Y888
X1800Y1013
X1675Y888
X1550Y763
X1425Y638
X1300Y638
X1300Y763
X1300Y888
X1425Y1138
X1300Y1138
X1300Y1263
X1300Y1388
X1425Y1388
X1550Y1263
X1550Y1013
X1425Y888
X1300Y1013
X1175Y1013
X1175Y1138
X1175Y1263
X1175Y1388
X1175Y888
X1175Y763
X1300Y513
X1425Y388
X1675Y388
X1800Y388
X1925Y388
X2050Y513
X2175Y513
X2175Y638
X2175Y763
X2175Y888
X2175Y1013
X2175Y1138
X2050Y1138
X2050Y1013
X2300Y763
X2300Y888
X2425Y888
X2425Y763
X2425Y638
X2425Y513
X2425Y388
X2300Y513
X2300Y638
X2300Y388
X2175Y388
X2425Y13
X2300Y263
X2175Y263
X1050Y1013
X1050Y888
X925Y888
X925Y1013
X925Y1138
X925Y1263
X800Y1263
X675Y1263
X550Y1288
X425Y1138
X800Y1388
X675Y1388
X800Y1138
X675Y1138
X550Y1163
X800Y1013
X800Y888
X800Y763
X925Y763
X1050Y763
X675Y763
X675Y888
X425Y1263
X175Y1263
X175Y1138
X175Y1013
X175Y888
X175Y763
X175Y638
X175Y513
X175Y388
X175Y263
X300Y388
X425Y913
X550Y388
X675Y388
X175Y1625
X175Y1750
X300Y2125
X1425Y1513
X1300Y1513
X1425Y1888
X1425Y2013
X1550Y2138
X1800Y2138
X1925Y2013
X1800Y1888
X1925Y1638
X2175Y1763
X2175Y1888
X2175Y2013
X2300Y2138
X2425Y1513
X2425Y1263
X2425Y1138
X2300Y1138
X2175Y1263
X2050Y1263
X1925Y1138
X1925Y1263
X1238Y1450
X1238Y1325
X1238Y1200
X1238Y1075
X1238Y950
X1238Y825
X1238Y700
X1300Y575
X1300Y450
X1300Y700
X1238Y763
X1113Y763
X1238Y888
X1238Y1013
X1238Y1138
X1238Y1263
X1238Y1388
X1363Y388
X1425Y325
X1363Y450
X1488Y325
X175Y700
X175Y575
X175Y450
X175Y325
X238Y825
X238Y763
X238Y700
X238Y638
X238Y575
X238Y513
X238Y450
X238Y388
X300Y825
X238Y950
X238Y888
X175Y825
X238Y1075
X425Y1075
X488Y1075
X500Y1150
X550Y1100
X313Y1038
X610Y825
X675Y600
X50Y500
X610Y920
X675Y825
X675Y975
X738Y700
X738Y763
X800Y700
X863Y700
X863Y763
X925Y700
X988Y763
X363Y325
X425Y325
X488Y325
X550Y325
X613Y325
X675Y325
X738Y325
X800Y325
X863Y325
X925Y325
X300Y325
X238Y325
X363Y388
X613Y388
X488Y913
X425Y850
X488Y850
X634Y530
X378Y825
X613Y1325
X738Y1325
X488Y1200
X238Y1200
X175Y1325
X238Y1263
X175Y1200
X238Y1138
X175Y1825
X1363Y1450
X1363Y1325
X1363Y1200
X1363Y1075
X1300Y1075
X1300Y1200
X1300Y1325
X1300Y1450
X1300Y950
X1863Y2075
X1863Y1950
X1988Y1638
X2131Y1533
X2175Y1700
X2175Y1575
X1925Y1575
X1988Y1763
X1488Y450
X1613Y325
X1738Y325
X1863Y325
X1988Y325
X2113Y325
X2175Y325
X2238Y325
X2050Y325
X1925Y325
X1800Y325
X1675Y325
X1550Y325
X2488Y638
X1988Y1075
X1863Y1075
X1738Y1075
X1613Y1075
X1488Y1200
X1988Y825
X1988Y700
X1988Y638
X1988Y763
X1988Y575
X1988Y513
X1988Y450
X1988Y388
X1988Y950
X113Y450
X113Y325
X113Y575
X113Y700
X113Y825
X113Y950
X113Y1075
X113Y1200
X238Y1575
X1363Y513
X1425Y450
X1488Y388
X1363Y575
X1363Y638
X1363Y700
X1300Y825
X550Y1225
X613Y1138
X613Y1200
X613Y1263
X613Y1388
X675Y1075
X675Y1325
X675Y1200
X1488Y1075
X1613Y950
X2050Y450
X2050Y575
X2050Y825
X2050Y700
X800Y1200
X800Y1075
X800Y950
X800Y825
X863Y1263
X863Y1200
X863Y1138
X863Y1075
X863Y1013
X800Y1325
X863Y888
X863Y950
X863Y825
X1988Y1013
X1925Y1075
X2050Y950
X1863Y1138
X1613Y1138
X1550Y1200
X1488Y1263
X1425Y1325
X1363Y1388
X1800Y1075
X1675Y1075
X175Y1075
X175Y950
X175Y13
X238Y13
X238Y75
X113Y13
X1988Y1950
X1988Y2075
X2063Y2125
X2063Y2025
X1838Y1825
X1925Y1888
X1988Y1825
X543Y1045
X591Y1045
X1080Y324
X1002Y444
X1279Y282
X1002Y516
X972Y600
X1242Y324
X2200Y1475
X2200Y1375
X2350Y1475
X1962Y1338
X2016Y1338
X2064Y1338
X2269Y1575
X2269Y1625
X2269Y1675
X2269Y1725
X2350Y1375
X2200Y1425
X2350Y1425
X2274Y96
X2280Y42
X2226Y107
X2178Y96
X2178Y42
X1230Y1538
X1230Y1612
X1230Y1574
X204Y1458
X210Y1500
X210Y1416
X1092Y1128
X1206Y444
X1134Y444
X1170Y444
X1134Y624
X1170Y624
X1206Y624
X1300Y1975
X1300Y2025
X1300Y2075
X1050Y1116
X1008Y1128
X1200Y1900
X1250Y1900
X1300Y1900
X800Y437
X430Y420
X799Y399
X470Y420
X733Y490
X430Y530
X733Y452
X470Y530
X799Y541
X430Y630
X799Y503
X470Y630
X1128Y132
X1068Y372
X799Y604
X470Y740
X799Y643
X430Y740
X306Y1128
X348Y1116
X388Y1128
X495Y996
X633Y996
X519Y1020
X615Y1020
X725Y2075
X725Y2025
X625Y1900
X675Y1900
X725Y1900
X725Y1975
X567Y1020
X1098Y1590
X1086Y1440
X1128Y1458
X1134Y1530
X1968Y1494
X2016Y1494
X2064Y1494
X1831Y1492
X1867Y1510
X1903Y1492
X1795Y1522
X1795Y1576
X1764Y1482
X1734Y1440
X1788Y1440
X1710Y1482
X1603Y1618
X1603Y1576
X1601Y1534
X552Y1601
X936Y1614
X894Y1578
X1080Y36
X324Y168
X282Y174
X366Y174
X1788Y168
X1830Y156
X1872Y168
X1584Y102
X1626Y108
X1668Y102
X582Y96
X624Y108
X672Y96
X984Y180
X1032Y168
X1074Y180
X786Y180
X828Y168
X870Y180
X1986Y102
X2028Y114
X2070Y102
X780Y96
X828Y108
X876Y96
X1284Y102
X1332Y108
X1374Y102
X1176Y222
X1380Y234
X1644Y1594
X1600Y1810
X1700Y1810
X890Y1810
X1644Y1552
X74Y250
X50Y13
X300Y-38
X550Y-38
X800Y-38
X1050Y-38
X1300Y-38
X1550Y-38
X1800Y-38
X2050Y-38
X2300Y-38
X2495Y25
X2488Y212
X2500Y450
X2500Y700
X2500Y950
X2500Y1200
X2500Y1450
X2512Y1664
X2500Y1950
X2450Y2163
X2200Y2163
X1950Y2163
X1700Y2163
X1450Y2163
X1284Y2163
X950Y2163
X700Y2163
X450Y2163
X50Y1976
X200Y2163
X74Y1750
X50Y1500
X50Y1250
X50Y1000
X50Y750
X675Y700
M30