G04 EAGLE Gerber RS-274X export*
G75*
%MOIN*%
%FSLAX34Y34*%
%LPD*%
%INEAGLE Copper Layer 2*%
%IPPOS*%
%AMOC8*
5,1,8,0,0,1.08239X$1,22.5*%
G01*
%ADD10C,0.079118*%
%ADD11C,0.054000*%
%ADD12C,0.070866*%
%ADD13C,0.024811*%
%ADD14C,0.007000*%
%ADD15C,0.006000*%
%ADD16C,0.010000*%

G36*
X24409Y-562D02*
X24409Y-562D01*
X24411Y-561D01*
X24413Y-562D01*
X24531Y-554D01*
X24538Y-552D01*
X24540Y-552D01*
X24769Y-491D01*
X24780Y-486D01*
X24781Y-486D01*
X24986Y-368D01*
X24996Y-360D01*
X25163Y-193D01*
X25171Y-183D01*
X25289Y22D01*
X25294Y34D01*
X25355Y263D01*
X25356Y268D01*
X25357Y271D01*
X25357Y272D01*
X25365Y390D01*
X25365Y392D01*
X25365Y394D01*
X25365Y1930D01*
X25364Y1935D01*
X25364Y1940D01*
X25363Y1941D01*
X25363Y1942D01*
X25361Y1947D01*
X25360Y1952D01*
X25359Y1953D01*
X25359Y1954D01*
X25356Y1958D01*
X25353Y1962D01*
X25352Y1963D01*
X25351Y1964D01*
X25347Y1967D01*
X25344Y1970D01*
X25343Y1971D01*
X25342Y1972D01*
X25337Y1974D01*
X25333Y1976D01*
X25332Y1976D01*
X25330Y1977D01*
X25318Y1979D01*
X25317Y1979D01*
X25316Y1979D01*
X25055Y1979D01*
X25019Y2015D01*
X25019Y4345D01*
X25055Y4381D01*
X25316Y4381D01*
X25320Y4381D01*
X25325Y4382D01*
X25327Y4382D01*
X25328Y4382D01*
X25332Y4384D01*
X25337Y4386D01*
X25338Y4386D01*
X25339Y4387D01*
X25343Y4390D01*
X25348Y4393D01*
X25348Y4394D01*
X25349Y4394D01*
X25353Y4398D01*
X25356Y4402D01*
X25356Y4403D01*
X25357Y4404D01*
X25359Y4408D01*
X25362Y4413D01*
X25362Y4414D01*
X25363Y4415D01*
X25365Y4427D01*
X25365Y4429D01*
X25365Y4430D01*
X25365Y16870D01*
X25364Y16875D01*
X25364Y16880D01*
X25363Y16881D01*
X25363Y16882D01*
X25361Y16887D01*
X25360Y16892D01*
X25359Y16893D01*
X25359Y16894D01*
X25356Y16898D01*
X25353Y16902D01*
X25352Y16903D01*
X25351Y16904D01*
X25347Y16907D01*
X25344Y16910D01*
X25343Y16911D01*
X25342Y16912D01*
X25337Y16914D01*
X25333Y16916D01*
X25332Y16916D01*
X25330Y16917D01*
X25318Y16919D01*
X25317Y16919D01*
X25316Y16919D01*
X25055Y16919D01*
X25019Y16955D01*
X25019Y19225D01*
X25055Y19261D01*
X25316Y19261D01*
X25320Y19261D01*
X25325Y19262D01*
X25327Y19262D01*
X25328Y19262D01*
X25332Y19264D01*
X25337Y19266D01*
X25338Y19266D01*
X25339Y19267D01*
X25343Y19270D01*
X25348Y19273D01*
X25348Y19274D01*
X25349Y19274D01*
X25353Y19278D01*
X25356Y19282D01*
X25356Y19283D01*
X25357Y19284D01*
X25359Y19288D01*
X25362Y19293D01*
X25362Y19294D01*
X25363Y19295D01*
X25365Y19307D01*
X25365Y19309D01*
X25365Y19310D01*
X25365Y20866D01*
X25365Y20868D01*
X25365Y20869D01*
X25357Y20988D01*
X25356Y20995D01*
X25355Y20997D01*
X25294Y21226D01*
X25289Y21237D01*
X25289Y21238D01*
X25171Y21442D01*
X25163Y21452D01*
X25163Y21453D01*
X24996Y21620D01*
X24986Y21627D01*
X24986Y21628D01*
X24781Y21746D01*
X24769Y21751D01*
X24540Y21812D01*
X24533Y21813D01*
X24531Y21814D01*
X24413Y21821D01*
X24411Y21821D01*
X24409Y21821D01*
X1181Y21821D01*
X1179Y21821D01*
X1178Y21821D01*
X1060Y21814D01*
X1053Y21812D01*
X1050Y21812D01*
X822Y21751D01*
X810Y21746D01*
X605Y21628D01*
X595Y21620D01*
X427Y21453D01*
X420Y21443D01*
X420Y21442D01*
X301Y21238D01*
X297Y21226D01*
X296Y21226D01*
X235Y20997D01*
X234Y20990D01*
X234Y20988D01*
X226Y20869D01*
X226Y20867D01*
X226Y20866D01*
X226Y19310D01*
X226Y19305D01*
X227Y19300D01*
X227Y19299D01*
X227Y19298D01*
X229Y19293D01*
X231Y19288D01*
X231Y19287D01*
X232Y19286D01*
X235Y19282D01*
X238Y19278D01*
X239Y19277D01*
X239Y19276D01*
X243Y19273D01*
X247Y19270D01*
X248Y19269D01*
X249Y19268D01*
X253Y19266D01*
X258Y19264D01*
X259Y19264D01*
X260Y19263D01*
X272Y19261D01*
X274Y19261D01*
X275Y19261D01*
X505Y19261D01*
X541Y19225D01*
X541Y17015D01*
X505Y16979D01*
X275Y16979D01*
X270Y16979D01*
X265Y16978D01*
X264Y16978D01*
X263Y16978D01*
X258Y16976D01*
X253Y16974D01*
X252Y16974D01*
X251Y16973D01*
X247Y16970D01*
X243Y16967D01*
X242Y16966D01*
X241Y16966D01*
X238Y16962D01*
X235Y16958D01*
X234Y16957D01*
X233Y16956D01*
X231Y16952D01*
X229Y16947D01*
X229Y16946D01*
X228Y16945D01*
X226Y16933D01*
X226Y16931D01*
X226Y16930D01*
X226Y4370D01*
X226Y4365D01*
X227Y4360D01*
X227Y4359D01*
X227Y4358D01*
X229Y4353D01*
X231Y4348D01*
X231Y4347D01*
X232Y4346D01*
X235Y4342D01*
X238Y4338D01*
X239Y4337D01*
X239Y4336D01*
X243Y4333D01*
X247Y4330D01*
X248Y4329D01*
X249Y4328D01*
X253Y4326D01*
X258Y4324D01*
X259Y4324D01*
X260Y4323D01*
X272Y4321D01*
X274Y4321D01*
X275Y4321D01*
X505Y4321D01*
X541Y4285D01*
X541Y2015D01*
X505Y1979D01*
X275Y1979D01*
X270Y1979D01*
X265Y1978D01*
X264Y1978D01*
X263Y1978D01*
X258Y1976D01*
X253Y1974D01*
X252Y1974D01*
X251Y1973D01*
X247Y1970D01*
X243Y1967D01*
X242Y1966D01*
X241Y1966D01*
X238Y1962D01*
X235Y1958D01*
X234Y1957D01*
X233Y1956D01*
X231Y1952D01*
X229Y1947D01*
X229Y1946D01*
X228Y1945D01*
X226Y1933D01*
X226Y1931D01*
X226Y1930D01*
X226Y394D01*
X226Y392D01*
X226Y390D01*
X234Y272D01*
X234Y269D01*
X234Y266D01*
X235Y264D01*
X235Y263D01*
X296Y34D01*
X301Y23D01*
X301Y22D01*
X420Y-183D01*
X427Y-192D01*
X427Y-193D01*
X595Y-360D01*
X605Y-368D01*
X810Y-486D01*
X821Y-491D01*
X822Y-491D01*
X1050Y-552D01*
X1057Y-553D01*
X1060Y-554D01*
X1178Y-562D01*
X1180Y-561D01*
X1181Y-562D01*
X24409Y-562D01*
X24409Y-562D01*
G37*
%LPC*%
G36*
X7913Y3805D02*
X7913Y3805D01*
X7889Y3830D01*
X7885Y3832D01*
X7882Y3835D01*
X7881Y3836D01*
X7879Y3837D01*
X7875Y3839D01*
X7871Y3841D01*
X7870Y3841D01*
X7868Y3842D01*
X7855Y3844D01*
X7854Y3844D01*
X7517Y3844D01*
X7352Y4010D01*
X7348Y4012D01*
X7345Y4015D01*
X7344Y4016D01*
X7342Y4017D01*
X7338Y4019D01*
X7334Y4021D01*
X7333Y4021D01*
X7331Y4022D01*
X7318Y4024D01*
X7317Y4024D01*
X6078Y4024D01*
X5607Y4495D01*
X5604Y4497D01*
X5601Y4500D01*
X5599Y4501D01*
X5597Y4502D01*
X5593Y4504D01*
X5590Y4506D01*
X5588Y4506D01*
X5586Y4507D01*
X5574Y4509D01*
X5573Y4509D01*
X5572Y4509D01*
X4708Y4509D01*
X4704Y4509D01*
X4699Y4509D01*
X4698Y4508D01*
X4696Y4508D01*
X4692Y4506D01*
X4688Y4505D01*
X4686Y4504D01*
X4684Y4503D01*
X4674Y4496D01*
X4674Y4495D01*
X4673Y4495D01*
X4655Y4477D01*
X4653Y4473D01*
X4650Y4470D01*
X4649Y4469D01*
X4648Y4467D01*
X4646Y4463D01*
X4644Y4459D01*
X4644Y4458D01*
X4643Y4456D01*
X4641Y4443D01*
X4641Y4442D01*
X4641Y4434D01*
X4641Y4429D01*
X4642Y4424D01*
X4642Y4423D01*
X4642Y4422D01*
X4644Y4417D01*
X4646Y4412D01*
X4646Y4411D01*
X4647Y4410D01*
X4650Y4406D01*
X4653Y4402D01*
X4654Y4401D01*
X4654Y4400D01*
X4658Y4397D01*
X4662Y4394D01*
X4663Y4393D01*
X4664Y4392D01*
X4668Y4390D01*
X4673Y4388D01*
X4674Y4388D01*
X4675Y4387D01*
X4687Y4385D01*
X4689Y4385D01*
X4690Y4385D01*
X4777Y4385D01*
X4885Y4277D01*
X4885Y4123D01*
X4777Y4015D01*
X4623Y4015D01*
X4535Y4104D01*
X4531Y4107D01*
X4530Y4108D01*
X4529Y4108D01*
X4527Y4110D01*
X4526Y4111D01*
X4525Y4111D01*
X4520Y4113D01*
X4516Y4116D01*
X4515Y4116D01*
X4514Y4116D01*
X4509Y4117D01*
X4504Y4118D01*
X4503Y4118D01*
X4501Y4118D01*
X4496Y4118D01*
X4491Y4118D01*
X4490Y4117D01*
X4489Y4117D01*
X4484Y4115D01*
X4480Y4114D01*
X4479Y4113D01*
X4477Y4113D01*
X4467Y4106D01*
X4466Y4104D01*
X4465Y4104D01*
X4377Y4015D01*
X4223Y4015D01*
X4115Y4123D01*
X4115Y4277D01*
X4223Y4385D01*
X4290Y4385D01*
X4295Y4385D01*
X4300Y4386D01*
X4301Y4386D01*
X4302Y4386D01*
X4307Y4388D01*
X4312Y4390D01*
X4313Y4390D01*
X4314Y4391D01*
X4318Y4394D01*
X4322Y4397D01*
X4323Y4398D01*
X4324Y4398D01*
X4327Y4402D01*
X4330Y4406D01*
X4331Y4407D01*
X4332Y4408D01*
X4334Y4412D01*
X4336Y4417D01*
X4336Y4418D01*
X4337Y4419D01*
X4339Y4431D01*
X4339Y4433D01*
X4339Y4434D01*
X4339Y4587D01*
X4563Y4811D01*
X5718Y4811D01*
X6178Y4350D01*
X6182Y4348D01*
X6185Y4345D01*
X6186Y4344D01*
X6188Y4343D01*
X6192Y4341D01*
X6196Y4339D01*
X6197Y4339D01*
X6199Y4338D01*
X6212Y4336D01*
X6213Y4336D01*
X6817Y4336D01*
X6823Y4336D01*
X6828Y4337D01*
X6829Y4337D01*
X6835Y4339D01*
X6840Y4341D01*
X6840Y4342D01*
X6841Y4342D01*
X6845Y4345D01*
X6850Y4348D01*
X6850Y4349D01*
X6851Y4349D01*
X6855Y4354D01*
X6858Y4358D01*
X6859Y4359D01*
X6861Y4364D01*
X6864Y4369D01*
X6864Y4370D01*
X6865Y4376D01*
X6866Y4381D01*
X6866Y4382D01*
X6866Y4388D01*
X6866Y4394D01*
X6865Y4394D01*
X6865Y4395D01*
X6864Y4400D01*
X6862Y4405D01*
X6862Y4406D01*
X6861Y4407D01*
X6855Y4417D01*
X6853Y4419D01*
X6852Y4420D01*
X6732Y4540D01*
X6729Y4542D01*
X6725Y4545D01*
X6724Y4546D01*
X6722Y4547D01*
X6718Y4549D01*
X6714Y4551D01*
X6713Y4551D01*
X6711Y4552D01*
X6698Y4554D01*
X6697Y4554D01*
X6398Y4554D01*
X5392Y5560D01*
X5389Y5563D01*
X5385Y5565D01*
X5384Y5566D01*
X5382Y5568D01*
X5378Y5569D01*
X5374Y5571D01*
X5373Y5572D01*
X5371Y5572D01*
X5358Y5574D01*
X5357Y5574D01*
X4806Y5574D01*
X4800Y5574D01*
X4795Y5573D01*
X4794Y5573D01*
X4788Y5571D01*
X4783Y5569D01*
X4783Y5568D01*
X4782Y5568D01*
X4777Y5565D01*
X4773Y5562D01*
X4772Y5561D01*
X4768Y5557D01*
X4765Y5552D01*
X4764Y5551D01*
X4762Y5546D01*
X4759Y5541D01*
X4759Y5540D01*
X4758Y5534D01*
X4757Y5529D01*
X4757Y5528D01*
X4757Y5522D01*
X4757Y5517D01*
X4758Y5516D01*
X4758Y5515D01*
X4759Y5510D01*
X4761Y5505D01*
X4761Y5504D01*
X4762Y5504D01*
X4768Y5493D01*
X4770Y5492D01*
X4771Y5490D01*
X4885Y5377D01*
X4885Y5223D01*
X4777Y5115D01*
X4623Y5115D01*
X4535Y5204D01*
X4531Y5207D01*
X4527Y5210D01*
X4526Y5211D01*
X4525Y5211D01*
X4520Y5213D01*
X4516Y5216D01*
X4515Y5216D01*
X4514Y5216D01*
X4509Y5217D01*
X4504Y5218D01*
X4503Y5218D01*
X4501Y5218D01*
X4496Y5218D01*
X4491Y5218D01*
X4490Y5217D01*
X4489Y5217D01*
X4484Y5215D01*
X4480Y5214D01*
X4479Y5213D01*
X4477Y5213D01*
X4467Y5206D01*
X4466Y5204D01*
X4465Y5204D01*
X4377Y5115D01*
X4223Y5115D01*
X4115Y5223D01*
X4115Y5377D01*
X4223Y5485D01*
X4290Y5485D01*
X4295Y5485D01*
X4300Y5486D01*
X4301Y5486D01*
X4302Y5486D01*
X4307Y5488D01*
X4312Y5490D01*
X4313Y5490D01*
X4314Y5491D01*
X4318Y5494D01*
X4322Y5497D01*
X4323Y5498D01*
X4324Y5498D01*
X4327Y5502D01*
X4330Y5506D01*
X4331Y5507D01*
X4332Y5508D01*
X4334Y5512D01*
X4336Y5517D01*
X4336Y5518D01*
X4337Y5519D01*
X4339Y5531D01*
X4339Y5533D01*
X4339Y5534D01*
X4339Y5637D01*
X4407Y5705D01*
X4578Y5876D01*
X5502Y5876D01*
X6498Y4880D01*
X6502Y4878D01*
X6505Y4875D01*
X6506Y4874D01*
X6508Y4873D01*
X6512Y4871D01*
X6516Y4869D01*
X6517Y4869D01*
X6519Y4868D01*
X6532Y4866D01*
X6533Y4866D01*
X6717Y4866D01*
X6721Y4866D01*
X6726Y4866D01*
X6727Y4867D01*
X6729Y4867D01*
X6733Y4869D01*
X6737Y4870D01*
X6739Y4871D01*
X6741Y4872D01*
X6751Y4879D01*
X6751Y4880D01*
X6752Y4880D01*
X6927Y5056D01*
X6933Y5056D01*
X6938Y5057D01*
X6939Y5057D01*
X6940Y5057D01*
X6945Y5059D01*
X6950Y5061D01*
X6951Y5062D01*
X6956Y5065D01*
X6960Y5068D01*
X6961Y5069D01*
X6965Y5074D01*
X6968Y5078D01*
X6969Y5078D01*
X6969Y5079D01*
X6971Y5084D01*
X6974Y5089D01*
X6974Y5090D01*
X6975Y5096D01*
X6976Y5101D01*
X6976Y5102D01*
X6976Y5108D01*
X6976Y5114D01*
X6976Y5115D01*
X6974Y5120D01*
X6972Y5125D01*
X6972Y5126D01*
X6972Y5127D01*
X6965Y5137D01*
X6963Y5139D01*
X6962Y5140D01*
X5507Y6595D01*
X5504Y6597D01*
X5501Y6600D01*
X5499Y6601D01*
X5497Y6602D01*
X5493Y6604D01*
X5490Y6606D01*
X5488Y6606D01*
X5486Y6607D01*
X5474Y6609D01*
X5473Y6609D01*
X5472Y6609D01*
X4758Y6609D01*
X4754Y6609D01*
X4749Y6609D01*
X4748Y6608D01*
X4746Y6608D01*
X4742Y6606D01*
X4738Y6605D01*
X4736Y6604D01*
X4734Y6603D01*
X4724Y6596D01*
X4724Y6595D01*
X4723Y6595D01*
X4697Y6569D01*
X4694Y6564D01*
X4690Y6560D01*
X4690Y6559D01*
X4687Y6554D01*
X4685Y6549D01*
X4685Y6548D01*
X4684Y6542D01*
X4683Y6537D01*
X4683Y6536D01*
X4683Y6535D01*
X4683Y6530D01*
X4684Y6524D01*
X4684Y6523D01*
X4686Y6518D01*
X4688Y6512D01*
X4688Y6511D01*
X4692Y6507D01*
X4695Y6502D01*
X4695Y6501D01*
X4700Y6497D01*
X4704Y6494D01*
X4704Y6493D01*
X4705Y6493D01*
X4710Y6491D01*
X4715Y6488D01*
X4716Y6487D01*
X4728Y6485D01*
X4731Y6485D01*
X4732Y6485D01*
X4777Y6485D01*
X4885Y6377D01*
X4885Y6223D01*
X4777Y6115D01*
X4623Y6115D01*
X4535Y6204D01*
X4531Y6207D01*
X4527Y6210D01*
X4526Y6211D01*
X4525Y6211D01*
X4520Y6213D01*
X4516Y6216D01*
X4515Y6216D01*
X4514Y6216D01*
X4509Y6217D01*
X4504Y6218D01*
X4503Y6218D01*
X4501Y6218D01*
X4496Y6218D01*
X4491Y6218D01*
X4490Y6217D01*
X4489Y6217D01*
X4484Y6215D01*
X4480Y6214D01*
X4479Y6213D01*
X4477Y6213D01*
X4467Y6206D01*
X4466Y6204D01*
X4465Y6204D01*
X4377Y6115D01*
X4223Y6115D01*
X4115Y6223D01*
X4115Y6377D01*
X4223Y6485D01*
X4290Y6485D01*
X4295Y6485D01*
X4300Y6486D01*
X4301Y6486D01*
X4302Y6486D01*
X4307Y6488D01*
X4312Y6490D01*
X4313Y6490D01*
X4314Y6491D01*
X4318Y6494D01*
X4322Y6497D01*
X4323Y6498D01*
X4324Y6498D01*
X4327Y6502D01*
X4330Y6506D01*
X4331Y6507D01*
X4332Y6508D01*
X4334Y6512D01*
X4336Y6517D01*
X4336Y6518D01*
X4337Y6519D01*
X4339Y6531D01*
X4339Y6533D01*
X4339Y6534D01*
X4339Y6637D01*
X4613Y6911D01*
X5618Y6911D01*
X7143Y5385D01*
X7147Y5383D01*
X7150Y5380D01*
X7151Y5379D01*
X7153Y5378D01*
X7157Y5376D01*
X7161Y5374D01*
X7162Y5374D01*
X7164Y5373D01*
X7177Y5371D01*
X7178Y5371D01*
X7362Y5371D01*
X7366Y5371D01*
X7371Y5372D01*
X7372Y5372D01*
X7374Y5372D01*
X7378Y5374D01*
X7382Y5375D01*
X7384Y5376D01*
X7386Y5377D01*
X7396Y5384D01*
X7396Y5385D01*
X7397Y5385D01*
X7562Y5551D01*
X7849Y5551D01*
X7853Y5551D01*
X7858Y5551D01*
X7859Y5552D01*
X7861Y5552D01*
X7865Y5554D01*
X7869Y5555D01*
X7871Y5556D01*
X7873Y5557D01*
X7883Y5564D01*
X7883Y5565D01*
X7884Y5565D01*
X7913Y5595D01*
X8067Y5595D01*
X8175Y5487D01*
X8175Y5333D01*
X8096Y5255D01*
X8093Y5251D01*
X8090Y5247D01*
X8089Y5246D01*
X8089Y5245D01*
X8087Y5240D01*
X8084Y5236D01*
X8084Y5235D01*
X8084Y5234D01*
X8083Y5229D01*
X8082Y5224D01*
X8082Y5223D01*
X8082Y5221D01*
X8082Y5216D01*
X8082Y5211D01*
X8083Y5210D01*
X8083Y5209D01*
X8085Y5204D01*
X8086Y5200D01*
X8087Y5199D01*
X8087Y5197D01*
X8094Y5187D01*
X8096Y5186D01*
X8096Y5185D01*
X8175Y5107D01*
X8175Y4953D01*
X8067Y4845D01*
X7913Y4845D01*
X7884Y4875D01*
X7880Y4877D01*
X7877Y4880D01*
X7875Y4881D01*
X7874Y4882D01*
X7870Y4884D01*
X7866Y4886D01*
X7865Y4886D01*
X7863Y4887D01*
X7850Y4889D01*
X7849Y4889D01*
X7564Y4889D01*
X7559Y4889D01*
X7554Y4888D01*
X7553Y4888D01*
X7552Y4888D01*
X7547Y4886D01*
X7542Y4884D01*
X7541Y4884D01*
X7540Y4883D01*
X7536Y4880D01*
X7532Y4877D01*
X7531Y4877D01*
X7530Y4876D01*
X7527Y4872D01*
X7524Y4868D01*
X7523Y4867D01*
X7522Y4866D01*
X7520Y4862D01*
X7518Y4857D01*
X7518Y4856D01*
X7517Y4855D01*
X7515Y4843D01*
X7515Y4841D01*
X7515Y4840D01*
X7515Y4823D01*
X7436Y4745D01*
X7433Y4741D01*
X7430Y4737D01*
X7429Y4736D01*
X7429Y4735D01*
X7427Y4730D01*
X7424Y4726D01*
X7424Y4725D01*
X7424Y4724D01*
X7423Y4719D01*
X7422Y4714D01*
X7422Y4713D01*
X7422Y4711D01*
X7422Y4706D01*
X7422Y4701D01*
X7423Y4700D01*
X7423Y4699D01*
X7425Y4694D01*
X7426Y4690D01*
X7427Y4689D01*
X7427Y4687D01*
X7434Y4677D01*
X7435Y4676D01*
X7436Y4676D01*
X7436Y4675D01*
X7515Y4597D01*
X7515Y4585D01*
X7515Y4580D01*
X7516Y4575D01*
X7516Y4574D01*
X7516Y4573D01*
X7518Y4568D01*
X7520Y4563D01*
X7520Y4562D01*
X7521Y4561D01*
X7524Y4557D01*
X7527Y4553D01*
X7528Y4552D01*
X7528Y4551D01*
X7532Y4548D01*
X7536Y4545D01*
X7537Y4544D01*
X7538Y4543D01*
X7542Y4541D01*
X7547Y4539D01*
X7548Y4539D01*
X7549Y4538D01*
X7561Y4536D01*
X7563Y4536D01*
X7564Y4536D01*
X7884Y4536D01*
X7888Y4536D01*
X7893Y4536D01*
X7894Y4537D01*
X7896Y4537D01*
X7900Y4539D01*
X7904Y4540D01*
X7906Y4541D01*
X7908Y4542D01*
X7918Y4549D01*
X7918Y4550D01*
X7919Y4550D01*
X7923Y4555D01*
X8077Y4555D01*
X8185Y4447D01*
X8185Y4293D01*
X8101Y4210D01*
X8098Y4206D01*
X8095Y4202D01*
X8094Y4201D01*
X8094Y4200D01*
X8092Y4195D01*
X8089Y4191D01*
X8089Y4190D01*
X8089Y4189D01*
X8088Y4184D01*
X8087Y4179D01*
X8087Y4178D01*
X8087Y4176D01*
X8087Y4171D01*
X8087Y4166D01*
X8088Y4165D01*
X8088Y4164D01*
X8090Y4159D01*
X8091Y4155D01*
X8092Y4154D01*
X8092Y4152D01*
X8099Y4142D01*
X8101Y4141D01*
X8101Y4140D01*
X8175Y4067D01*
X8175Y3913D01*
X8067Y3805D01*
X7913Y3805D01*
G37*
%LPD*%
%LPC*%
G36*
X1221Y19878D02*
X1221Y19878D01*
X930Y19998D01*
X707Y20221D01*
X587Y20512D01*
X587Y20827D01*
X707Y21118D01*
X930Y21340D01*
X1221Y21461D01*
X1535Y21461D01*
X1826Y21340D01*
X2049Y21118D01*
X2169Y20827D01*
X2169Y20512D01*
X2049Y20221D01*
X1826Y19998D01*
X1535Y19878D01*
X1221Y19878D01*
G37*
%LPD*%
%LPC*%
G36*
X24055Y19878D02*
X24055Y19878D01*
X23764Y19998D01*
X23542Y20221D01*
X23421Y20512D01*
X23421Y20827D01*
X23542Y21118D01*
X23764Y21340D01*
X24055Y21461D01*
X24370Y21461D01*
X24661Y21340D01*
X24883Y21118D01*
X25004Y20827D01*
X25004Y20512D01*
X24883Y20221D01*
X24661Y19998D01*
X24370Y19878D01*
X24055Y19878D01*
G37*
%LPD*%
%LPC*%
G36*
X24055Y587D02*
X24055Y587D01*
X23764Y707D01*
X23542Y930D01*
X23421Y1221D01*
X23421Y1535D01*
X23542Y1826D01*
X23764Y2049D01*
X24055Y2169D01*
X24370Y2169D01*
X24661Y2049D01*
X24883Y1826D01*
X25004Y1535D01*
X25004Y1221D01*
X24883Y930D01*
X24661Y707D01*
X24370Y587D01*
X24055Y587D01*
G37*
%LPD*%
%LPC*%
G36*
X1221Y587D02*
X1221Y587D01*
X930Y707D01*
X707Y930D01*
X587Y1221D01*
X587Y1535D01*
X707Y1826D01*
X930Y2049D01*
X1221Y2169D01*
X1535Y2169D01*
X1826Y2049D01*
X2049Y1826D01*
X2169Y1535D01*
X2169Y1221D01*
X2049Y930D01*
X1826Y707D01*
X1535Y587D01*
X1221Y587D01*
G37*
%LPD*%
%LPC*%
G36*
X7913Y5855D02*
X7913Y5855D01*
X7899Y5870D01*
X7895Y5872D01*
X7892Y5875D01*
X7891Y5876D01*
X7889Y5877D01*
X7885Y5879D01*
X7881Y5881D01*
X7880Y5881D01*
X7878Y5882D01*
X7865Y5884D01*
X7864Y5884D01*
X7557Y5884D01*
X7397Y6045D01*
X7394Y6047D01*
X7390Y6050D01*
X7389Y6051D01*
X7387Y6052D01*
X7383Y6054D01*
X7379Y6056D01*
X7378Y6056D01*
X7376Y6057D01*
X7363Y6059D01*
X7362Y6059D01*
X6942Y6059D01*
X5257Y7745D01*
X5253Y7747D01*
X5250Y7750D01*
X5249Y7751D01*
X5247Y7752D01*
X5243Y7754D01*
X5239Y7756D01*
X5238Y7756D01*
X5236Y7757D01*
X5223Y7759D01*
X5222Y7759D01*
X4858Y7759D01*
X4854Y7759D01*
X4849Y7759D01*
X4848Y7758D01*
X4846Y7758D01*
X4842Y7756D01*
X4838Y7755D01*
X4836Y7754D01*
X4834Y7753D01*
X4824Y7746D01*
X4824Y7745D01*
X4823Y7745D01*
X4747Y7669D01*
X4744Y7664D01*
X4740Y7660D01*
X4740Y7659D01*
X4737Y7654D01*
X4735Y7649D01*
X4735Y7648D01*
X4734Y7642D01*
X4733Y7637D01*
X4733Y7636D01*
X4733Y7635D01*
X4733Y7630D01*
X4734Y7624D01*
X4734Y7623D01*
X4736Y7618D01*
X4738Y7612D01*
X4738Y7611D01*
X4742Y7607D01*
X4745Y7602D01*
X4745Y7601D01*
X4750Y7597D01*
X4754Y7594D01*
X4754Y7593D01*
X4755Y7593D01*
X4760Y7591D01*
X4765Y7588D01*
X4766Y7587D01*
X4776Y7585D01*
X4885Y7477D01*
X4885Y7323D01*
X4777Y7215D01*
X4623Y7215D01*
X4535Y7304D01*
X4531Y7307D01*
X4527Y7310D01*
X4526Y7311D01*
X4525Y7311D01*
X4520Y7313D01*
X4516Y7316D01*
X4515Y7316D01*
X4514Y7316D01*
X4509Y7317D01*
X4504Y7318D01*
X4503Y7318D01*
X4501Y7318D01*
X4496Y7318D01*
X4491Y7318D01*
X4490Y7317D01*
X4489Y7317D01*
X4484Y7315D01*
X4480Y7314D01*
X4479Y7313D01*
X4477Y7313D01*
X4467Y7306D01*
X4466Y7304D01*
X4465Y7304D01*
X4377Y7215D01*
X4223Y7215D01*
X4115Y7323D01*
X4115Y7477D01*
X4223Y7585D01*
X4290Y7585D01*
X4295Y7585D01*
X4300Y7586D01*
X4301Y7586D01*
X4302Y7586D01*
X4307Y7588D01*
X4312Y7590D01*
X4313Y7590D01*
X4314Y7591D01*
X4318Y7594D01*
X4322Y7597D01*
X4323Y7598D01*
X4324Y7598D01*
X4327Y7602D01*
X4330Y7606D01*
X4331Y7607D01*
X4332Y7608D01*
X4334Y7612D01*
X4336Y7617D01*
X4336Y7618D01*
X4337Y7619D01*
X4339Y7631D01*
X4339Y7633D01*
X4339Y7634D01*
X4339Y7687D01*
X4713Y8061D01*
X5367Y8061D01*
X7023Y6405D01*
X7026Y6403D01*
X7029Y6400D01*
X7031Y6399D01*
X7033Y6398D01*
X7037Y6396D01*
X7040Y6394D01*
X7042Y6394D01*
X7044Y6393D01*
X7056Y6391D01*
X7057Y6391D01*
X7058Y6391D01*
X7352Y6391D01*
X7356Y6391D01*
X7361Y6391D01*
X7362Y6392D01*
X7364Y6392D01*
X7368Y6394D01*
X7373Y6395D01*
X7374Y6396D01*
X7376Y6397D01*
X7386Y6404D01*
X7386Y6405D01*
X7387Y6405D01*
X7557Y6576D01*
X7854Y6576D01*
X7858Y6576D01*
X7863Y6576D01*
X7864Y6577D01*
X7866Y6577D01*
X7870Y6579D01*
X7874Y6580D01*
X7876Y6581D01*
X7878Y6582D01*
X7888Y6589D01*
X7888Y6590D01*
X7889Y6590D01*
X7913Y6615D01*
X8067Y6615D01*
X8175Y6507D01*
X8175Y6353D01*
X8091Y6270D01*
X8088Y6266D01*
X8085Y6262D01*
X8084Y6261D01*
X8084Y6260D01*
X8082Y6255D01*
X8079Y6251D01*
X8079Y6250D01*
X8079Y6249D01*
X8078Y6244D01*
X8077Y6239D01*
X8077Y6238D01*
X8077Y6236D01*
X8077Y6231D01*
X8077Y6226D01*
X8078Y6225D01*
X8078Y6224D01*
X8080Y6219D01*
X8081Y6215D01*
X8082Y6214D01*
X8082Y6213D01*
X8082Y6212D01*
X8087Y6206D01*
X8089Y6203D01*
X8089Y6202D01*
X8091Y6201D01*
X8091Y6200D01*
X8175Y6117D01*
X8175Y5963D01*
X8067Y5855D01*
X7913Y5855D01*
G37*
%LPD*%
%LPC*%
G36*
X12343Y3055D02*
X12343Y3055D01*
X12235Y3163D01*
X12235Y3317D01*
X12310Y3391D01*
X12312Y3395D01*
X12315Y3398D01*
X12316Y3399D01*
X12317Y3401D01*
X12319Y3405D01*
X12321Y3409D01*
X12321Y3410D01*
X12322Y3412D01*
X12324Y3425D01*
X12324Y3426D01*
X12324Y4324D01*
X12324Y4330D01*
X12323Y4335D01*
X12323Y4336D01*
X12321Y4342D01*
X12319Y4347D01*
X12318Y4347D01*
X12318Y4348D01*
X12315Y4352D01*
X12312Y4357D01*
X12311Y4357D01*
X12311Y4358D01*
X12306Y4361D01*
X12302Y4365D01*
X12301Y4366D01*
X12296Y4368D01*
X12291Y4371D01*
X12290Y4371D01*
X12284Y4372D01*
X12279Y4373D01*
X12278Y4373D01*
X12272Y4373D01*
X12266Y4373D01*
X12266Y4372D01*
X12265Y4372D01*
X12260Y4370D01*
X12255Y4369D01*
X12254Y4369D01*
X12253Y4368D01*
X12243Y4361D01*
X12241Y4360D01*
X12240Y4359D01*
X12137Y4255D01*
X11983Y4255D01*
X11915Y4324D01*
X11911Y4327D01*
X11907Y4330D01*
X11906Y4331D01*
X11905Y4331D01*
X11900Y4333D01*
X11896Y4336D01*
X11895Y4336D01*
X11894Y4336D01*
X11889Y4337D01*
X11884Y4338D01*
X11883Y4338D01*
X11881Y4338D01*
X11876Y4338D01*
X11871Y4338D01*
X11870Y4337D01*
X11869Y4337D01*
X11864Y4335D01*
X11860Y4334D01*
X11859Y4333D01*
X11857Y4333D01*
X11847Y4326D01*
X11846Y4324D01*
X11845Y4324D01*
X11777Y4255D01*
X11623Y4255D01*
X11555Y4324D01*
X11551Y4327D01*
X11547Y4330D01*
X11546Y4331D01*
X11545Y4331D01*
X11540Y4333D01*
X11536Y4336D01*
X11535Y4336D01*
X11534Y4336D01*
X11529Y4337D01*
X11524Y4338D01*
X11523Y4338D01*
X11521Y4338D01*
X11516Y4338D01*
X11511Y4338D01*
X11510Y4337D01*
X11509Y4337D01*
X11504Y4335D01*
X11500Y4334D01*
X11499Y4333D01*
X11497Y4333D01*
X11487Y4326D01*
X11486Y4324D01*
X11485Y4324D01*
X11417Y4255D01*
X11263Y4255D01*
X11155Y4363D01*
X11155Y4517D01*
X11263Y4625D01*
X11417Y4625D01*
X11485Y4556D01*
X11489Y4553D01*
X11493Y4550D01*
X11494Y4549D01*
X11495Y4549D01*
X11500Y4547D01*
X11504Y4544D01*
X11505Y4544D01*
X11506Y4544D01*
X11511Y4543D01*
X11516Y4542D01*
X11517Y4542D01*
X11519Y4542D01*
X11524Y4542D01*
X11529Y4542D01*
X11530Y4543D01*
X11531Y4543D01*
X11536Y4545D01*
X11540Y4546D01*
X11541Y4547D01*
X11543Y4547D01*
X11553Y4554D01*
X11554Y4556D01*
X11555Y4556D01*
X11623Y4625D01*
X11777Y4625D01*
X11845Y4556D01*
X11849Y4553D01*
X11853Y4550D01*
X11854Y4549D01*
X11855Y4549D01*
X11860Y4547D01*
X11864Y4544D01*
X11865Y4544D01*
X11866Y4544D01*
X11871Y4543D01*
X11876Y4542D01*
X11877Y4542D01*
X11879Y4542D01*
X11884Y4542D01*
X11889Y4542D01*
X11890Y4543D01*
X11891Y4543D01*
X11896Y4545D01*
X11900Y4546D01*
X11901Y4547D01*
X11903Y4547D01*
X11913Y4554D01*
X11914Y4556D01*
X11915Y4556D01*
X11983Y4625D01*
X12137Y4625D01*
X12240Y4521D01*
X12245Y4518D01*
X12249Y4514D01*
X12250Y4514D01*
X12255Y4511D01*
X12260Y4509D01*
X12261Y4509D01*
X12267Y4508D01*
X12272Y4507D01*
X12273Y4507D01*
X12274Y4507D01*
X12279Y4507D01*
X12285Y4508D01*
X12286Y4508D01*
X12291Y4510D01*
X12297Y4512D01*
X12298Y4512D01*
X12302Y4515D01*
X12307Y4519D01*
X12308Y4519D01*
X12312Y4524D01*
X12315Y4528D01*
X12316Y4528D01*
X12316Y4529D01*
X12319Y4534D01*
X12321Y4539D01*
X12322Y4540D01*
X12324Y4552D01*
X12324Y4555D01*
X12324Y4556D01*
X12324Y4680D01*
X12324Y4684D01*
X12324Y4688D01*
X12323Y4690D01*
X12323Y4692D01*
X12321Y4696D01*
X12320Y4700D01*
X12319Y4702D01*
X12318Y4704D01*
X12311Y4714D01*
X12310Y4714D01*
X12310Y4715D01*
X11645Y5380D01*
X11641Y5382D01*
X11638Y5385D01*
X11636Y5386D01*
X11635Y5387D01*
X11631Y5389D01*
X11627Y5391D01*
X11626Y5391D01*
X11624Y5392D01*
X11611Y5394D01*
X11610Y5394D01*
X10190Y5394D01*
X9784Y5801D01*
X9780Y5803D01*
X9777Y5806D01*
X9776Y5807D01*
X9774Y5808D01*
X9770Y5810D01*
X9766Y5812D01*
X9765Y5812D01*
X9763Y5813D01*
X9750Y5815D01*
X9749Y5815D01*
X9643Y5815D01*
X9535Y5923D01*
X9535Y6077D01*
X9643Y6185D01*
X9797Y6185D01*
X9905Y6077D01*
X9905Y5971D01*
X9905Y5967D01*
X9906Y5962D01*
X9906Y5961D01*
X9906Y5959D01*
X9908Y5955D01*
X9909Y5951D01*
X9910Y5949D01*
X9911Y5947D01*
X9918Y5937D01*
X9919Y5937D01*
X9919Y5936D01*
X10255Y5600D01*
X10259Y5598D01*
X10262Y5595D01*
X10264Y5594D01*
X10265Y5593D01*
X10269Y5591D01*
X10273Y5589D01*
X10274Y5589D01*
X10276Y5588D01*
X10289Y5586D01*
X10290Y5586D01*
X11710Y5586D01*
X11780Y5515D01*
X12516Y4780D01*
X12516Y3426D01*
X12516Y3422D01*
X12516Y3417D01*
X12517Y3416D01*
X12517Y3414D01*
X12519Y3410D01*
X12520Y3406D01*
X12521Y3404D01*
X12522Y3402D01*
X12529Y3392D01*
X12530Y3392D01*
X12530Y3391D01*
X12605Y3317D01*
X12605Y3163D01*
X12497Y3055D01*
X12343Y3055D01*
G37*
%LPD*%
%LPC*%
G36*
X11203Y1135D02*
X11203Y1135D01*
X11095Y1243D01*
X11095Y1349D01*
X11095Y1353D01*
X11094Y1358D01*
X11094Y1359D01*
X11094Y1361D01*
X11092Y1365D01*
X11091Y1369D01*
X11090Y1371D01*
X11089Y1373D01*
X11082Y1383D01*
X11081Y1383D01*
X11081Y1384D01*
X10944Y1520D01*
X10944Y1624D01*
X10944Y1630D01*
X10943Y1635D01*
X10943Y1636D01*
X10941Y1642D01*
X10939Y1647D01*
X10938Y1647D01*
X10938Y1648D01*
X10935Y1652D01*
X10932Y1657D01*
X10931Y1657D01*
X10931Y1658D01*
X10926Y1661D01*
X10922Y1665D01*
X10921Y1666D01*
X10916Y1668D01*
X10911Y1671D01*
X10910Y1671D01*
X10904Y1672D01*
X10899Y1673D01*
X10898Y1673D01*
X10892Y1673D01*
X10886Y1673D01*
X10886Y1672D01*
X10885Y1672D01*
X10880Y1670D01*
X10875Y1669D01*
X10874Y1669D01*
X10873Y1668D01*
X10863Y1661D01*
X10861Y1660D01*
X10860Y1659D01*
X10817Y1615D01*
X10663Y1615D01*
X10589Y1690D01*
X10585Y1693D01*
X10583Y1695D01*
X10582Y1695D01*
X10580Y1697D01*
X10579Y1697D01*
X10574Y1700D01*
X10573Y1700D01*
X10572Y1701D01*
X10571Y1701D01*
X10569Y1702D01*
X10568Y1702D01*
X10562Y1703D01*
X10557Y1704D01*
X10556Y1704D01*
X10555Y1704D01*
X10550Y1704D01*
X10544Y1703D01*
X10543Y1703D01*
X10538Y1701D01*
X10532Y1699D01*
X10531Y1699D01*
X10527Y1695D01*
X10522Y1692D01*
X10521Y1692D01*
X10517Y1687D01*
X10514Y1683D01*
X10513Y1683D01*
X10513Y1682D01*
X10511Y1677D01*
X10508Y1672D01*
X10507Y1671D01*
X10507Y1670D01*
X10507Y1669D01*
X10507Y1667D01*
X10505Y1659D01*
X10505Y1658D01*
X10505Y1657D01*
X10505Y1656D01*
X10505Y1655D01*
X10505Y1603D01*
X10397Y1495D01*
X10243Y1495D01*
X10135Y1603D01*
X10135Y1757D01*
X10243Y1865D01*
X10397Y1865D01*
X10471Y1790D01*
X10476Y1787D01*
X10480Y1783D01*
X10481Y1783D01*
X10486Y1780D01*
X10491Y1778D01*
X10492Y1778D01*
X10498Y1777D01*
X10503Y1776D01*
X10504Y1776D01*
X10505Y1776D01*
X10510Y1776D01*
X10516Y1777D01*
X10517Y1777D01*
X10522Y1779D01*
X10528Y1781D01*
X10529Y1781D01*
X10533Y1785D01*
X10538Y1788D01*
X10539Y1788D01*
X10543Y1793D01*
X10546Y1797D01*
X10547Y1797D01*
X10547Y1798D01*
X10549Y1803D01*
X10552Y1808D01*
X10553Y1809D01*
X10555Y1821D01*
X10555Y1824D01*
X10555Y1825D01*
X10555Y1877D01*
X10663Y1985D01*
X10817Y1985D01*
X10860Y1941D01*
X10865Y1938D01*
X10869Y1934D01*
X10870Y1934D01*
X10875Y1931D01*
X10880Y1929D01*
X10881Y1929D01*
X10887Y1928D01*
X10892Y1927D01*
X10893Y1927D01*
X10894Y1927D01*
X10899Y1927D01*
X10905Y1928D01*
X10906Y1928D01*
X10911Y1930D01*
X10917Y1932D01*
X10918Y1932D01*
X10922Y1935D01*
X10927Y1939D01*
X10928Y1939D01*
X10932Y1944D01*
X10935Y1948D01*
X10936Y1948D01*
X10936Y1949D01*
X10939Y1954D01*
X10941Y1959D01*
X10942Y1960D01*
X10944Y1972D01*
X10944Y1975D01*
X10944Y1976D01*
X10944Y3006D01*
X10944Y3011D01*
X10943Y3016D01*
X10943Y3017D01*
X10943Y3018D01*
X10941Y3023D01*
X10939Y3028D01*
X10939Y3029D01*
X10938Y3030D01*
X10935Y3034D01*
X10932Y3038D01*
X10931Y3039D01*
X10931Y3040D01*
X10927Y3043D01*
X10923Y3046D01*
X10922Y3047D01*
X10921Y3048D01*
X10917Y3050D01*
X10912Y3052D01*
X10911Y3052D01*
X10910Y3053D01*
X10898Y3055D01*
X10896Y3055D01*
X10895Y3055D01*
X10723Y3055D01*
X10649Y3130D01*
X10645Y3132D01*
X10642Y3135D01*
X10641Y3136D01*
X10639Y3137D01*
X10635Y3139D01*
X10631Y3141D01*
X10630Y3141D01*
X10628Y3142D01*
X10615Y3144D01*
X10614Y3144D01*
X10300Y3144D01*
X9874Y3570D01*
X9874Y4304D01*
X9874Y4308D01*
X9874Y4313D01*
X9873Y4314D01*
X9873Y4316D01*
X9871Y4320D01*
X9870Y4324D01*
X9869Y4326D01*
X9868Y4328D01*
X9861Y4338D01*
X9860Y4338D01*
X9860Y4339D01*
X9835Y4363D01*
X9835Y4517D01*
X9943Y4625D01*
X10097Y4625D01*
X10205Y4517D01*
X10205Y4363D01*
X10088Y4247D01*
X10087Y4246D01*
X10083Y4243D01*
X10082Y4242D01*
X10081Y4242D01*
X10078Y4238D01*
X10075Y4234D01*
X10074Y4233D01*
X10073Y4232D01*
X10071Y4228D01*
X10069Y4223D01*
X10069Y4222D01*
X10068Y4221D01*
X10066Y4209D01*
X10066Y4207D01*
X10066Y4206D01*
X10066Y3670D01*
X10066Y3666D01*
X10066Y3662D01*
X10067Y3660D01*
X10067Y3658D01*
X10069Y3654D01*
X10070Y3650D01*
X10071Y3648D01*
X10072Y3646D01*
X10079Y3636D01*
X10080Y3636D01*
X10080Y3635D01*
X10365Y3350D01*
X10369Y3348D01*
X10372Y3345D01*
X10374Y3344D01*
X10375Y3343D01*
X10379Y3341D01*
X10383Y3339D01*
X10384Y3339D01*
X10386Y3338D01*
X10399Y3336D01*
X10400Y3336D01*
X10614Y3336D01*
X10618Y3336D01*
X10623Y3336D01*
X10624Y3337D01*
X10626Y3337D01*
X10630Y3339D01*
X10634Y3340D01*
X10636Y3341D01*
X10638Y3342D01*
X10648Y3349D01*
X10648Y3350D01*
X10649Y3350D01*
X10724Y3425D01*
X10726Y3426D01*
X10732Y3426D01*
X10733Y3426D01*
X10738Y3428D01*
X10744Y3430D01*
X10744Y3431D01*
X10745Y3431D01*
X10749Y3434D01*
X10754Y3437D01*
X10754Y3438D01*
X10755Y3438D01*
X10758Y3443D01*
X10762Y3447D01*
X10763Y3448D01*
X10765Y3453D01*
X10767Y3458D01*
X10768Y3459D01*
X10769Y3465D01*
X10770Y3470D01*
X10770Y3471D01*
X10770Y3477D01*
X10769Y3483D01*
X10769Y3484D01*
X10767Y3489D01*
X10766Y3494D01*
X10765Y3495D01*
X10765Y3496D01*
X10758Y3506D01*
X10757Y3508D01*
X10756Y3509D01*
X10744Y3521D01*
X10740Y3523D01*
X10737Y3526D01*
X10736Y3527D01*
X10734Y3528D01*
X10730Y3530D01*
X10726Y3532D01*
X10725Y3532D01*
X10723Y3533D01*
X10710Y3535D01*
X10709Y3535D01*
X10603Y3535D01*
X10495Y3643D01*
X10495Y3797D01*
X10603Y3905D01*
X10757Y3905D01*
X10865Y3797D01*
X10865Y3691D01*
X10865Y3687D01*
X10866Y3682D01*
X10866Y3681D01*
X10866Y3679D01*
X10868Y3675D01*
X10869Y3671D01*
X10870Y3669D01*
X10871Y3667D01*
X10878Y3657D01*
X10879Y3657D01*
X10879Y3656D01*
X11136Y3400D01*
X11136Y1620D01*
X11136Y1616D01*
X11136Y1612D01*
X11137Y1610D01*
X11137Y1608D01*
X11139Y1604D01*
X11140Y1600D01*
X11141Y1598D01*
X11142Y1596D01*
X11149Y1586D01*
X11150Y1586D01*
X11150Y1585D01*
X11216Y1519D01*
X11220Y1517D01*
X11223Y1514D01*
X11224Y1513D01*
X11226Y1512D01*
X11230Y1510D01*
X11234Y1508D01*
X11235Y1508D01*
X11237Y1507D01*
X11250Y1505D01*
X11251Y1505D01*
X11357Y1505D01*
X11465Y1397D01*
X11465Y1243D01*
X11357Y1135D01*
X11203Y1135D01*
G37*
%LPD*%
%LPC*%
G36*
X12713Y2635D02*
X12713Y2635D01*
X12639Y2710D01*
X12635Y2712D01*
X12632Y2715D01*
X12631Y2716D01*
X12629Y2717D01*
X12625Y2719D01*
X12621Y2721D01*
X12620Y2721D01*
X12618Y2722D01*
X12605Y2724D01*
X12604Y2724D01*
X12157Y2724D01*
X10399Y4483D01*
X10328Y4553D01*
X10328Y4833D01*
X10328Y4837D01*
X10327Y4841D01*
X10327Y4843D01*
X10327Y4845D01*
X10325Y4849D01*
X10324Y4853D01*
X10323Y4854D01*
X10322Y4857D01*
X10315Y4867D01*
X10314Y4867D01*
X10314Y4868D01*
X10191Y4990D01*
X10188Y4992D01*
X10185Y4995D01*
X10183Y4996D01*
X10182Y4997D01*
X10178Y4999D01*
X10174Y5001D01*
X10172Y5001D01*
X10170Y5002D01*
X10158Y5004D01*
X10157Y5004D01*
X10146Y5004D01*
X10142Y5004D01*
X10137Y5004D01*
X10136Y5003D01*
X10134Y5003D01*
X10130Y5001D01*
X10126Y5000D01*
X10124Y4999D01*
X10122Y4998D01*
X10112Y4991D01*
X10112Y4990D01*
X10111Y4990D01*
X10097Y4975D01*
X9943Y4975D01*
X9835Y5083D01*
X9835Y5237D01*
X9943Y5345D01*
X10097Y5345D01*
X10206Y5236D01*
X10206Y5235D01*
X10206Y5234D01*
X10206Y5233D01*
X10208Y5228D01*
X10210Y5223D01*
X10210Y5222D01*
X10211Y5221D01*
X10214Y5217D01*
X10217Y5213D01*
X10218Y5212D01*
X10218Y5211D01*
X10222Y5208D01*
X10226Y5205D01*
X10227Y5204D01*
X10228Y5203D01*
X10232Y5201D01*
X10237Y5199D01*
X10238Y5199D01*
X10239Y5198D01*
X10251Y5196D01*
X10253Y5196D01*
X10254Y5196D01*
X10256Y5196D01*
X10520Y4932D01*
X10520Y4653D01*
X10520Y4649D01*
X10520Y4644D01*
X10521Y4642D01*
X10521Y4640D01*
X10523Y4636D01*
X10524Y4632D01*
X10525Y4631D01*
X10526Y4629D01*
X10533Y4619D01*
X10534Y4618D01*
X12222Y2930D01*
X12225Y2928D01*
X12228Y2925D01*
X12230Y2924D01*
X12232Y2923D01*
X12236Y2921D01*
X12239Y2919D01*
X12241Y2919D01*
X12243Y2918D01*
X12255Y2916D01*
X12256Y2916D01*
X12257Y2916D01*
X12604Y2916D01*
X12608Y2916D01*
X12613Y2916D01*
X12614Y2917D01*
X12616Y2917D01*
X12620Y2919D01*
X12624Y2920D01*
X12626Y2921D01*
X12628Y2922D01*
X12638Y2929D01*
X12638Y2930D01*
X12639Y2930D01*
X12713Y3005D01*
X12867Y3005D01*
X12975Y2897D01*
X12975Y2743D01*
X12867Y2635D01*
X12713Y2635D01*
G37*
%LPD*%
%LPC*%
G36*
X20898Y16138D02*
X20898Y16138D01*
X20729Y16208D01*
X20599Y16338D01*
X20529Y16507D01*
X20529Y16691D01*
X20599Y16860D01*
X20729Y16990D01*
X20898Y17060D01*
X21082Y17060D01*
X21251Y16990D01*
X21381Y16860D01*
X21451Y16691D01*
X21451Y16507D01*
X21381Y16338D01*
X21251Y16208D01*
X21082Y16138D01*
X20898Y16138D01*
G37*
%LPD*%
%LPC*%
G36*
X15727Y19330D02*
X15727Y19330D01*
X15573Y19394D01*
X15455Y19512D01*
X15391Y19666D01*
X15391Y19834D01*
X15455Y19988D01*
X15573Y20106D01*
X15727Y20170D01*
X15895Y20170D01*
X16049Y20106D01*
X16167Y19988D01*
X16231Y19834D01*
X16231Y19666D01*
X16167Y19512D01*
X16049Y19394D01*
X15895Y19330D01*
X15727Y19330D01*
G37*
%LPD*%
%LPC*%
G36*
X8727Y19330D02*
X8727Y19330D01*
X8573Y19394D01*
X8455Y19512D01*
X8391Y19666D01*
X8391Y19834D01*
X8455Y19988D01*
X8573Y20106D01*
X8727Y20170D01*
X8895Y20170D01*
X9049Y20106D01*
X9167Y19988D01*
X9231Y19834D01*
X9231Y19666D01*
X9167Y19512D01*
X9049Y19394D01*
X8895Y19330D01*
X8727Y19330D01*
G37*
%LPD*%
%LPC*%
G36*
X3157Y19330D02*
X3157Y19330D01*
X3003Y19394D01*
X2885Y19512D01*
X2821Y19666D01*
X2821Y19834D01*
X2885Y19988D01*
X3003Y20106D01*
X3157Y20170D01*
X3325Y20170D01*
X3479Y20106D01*
X3597Y19988D01*
X3661Y19834D01*
X3661Y19666D01*
X3597Y19512D01*
X3479Y19394D01*
X3325Y19330D01*
X3157Y19330D01*
G37*
%LPD*%
%LPC*%
G36*
X18233Y14735D02*
X18233Y14735D01*
X18125Y14843D01*
X18125Y15015D01*
X18124Y15020D01*
X18124Y15026D01*
X18124Y15027D01*
X18122Y15032D01*
X18120Y15038D01*
X18119Y15038D01*
X18119Y15039D01*
X18116Y15043D01*
X18113Y15048D01*
X18112Y15048D01*
X18112Y15049D01*
X18107Y15052D01*
X18103Y15056D01*
X18102Y15057D01*
X18097Y15059D01*
X18092Y15062D01*
X18091Y15062D01*
X18085Y15063D01*
X18080Y15064D01*
X18079Y15064D01*
X18073Y15064D01*
X18067Y15063D01*
X18066Y15063D01*
X18061Y15061D01*
X18056Y15060D01*
X18055Y15059D01*
X18054Y15059D01*
X18044Y15052D01*
X18042Y15051D01*
X18041Y15050D01*
X18027Y15035D01*
X17873Y15035D01*
X17765Y15143D01*
X17765Y15297D01*
X17873Y15405D01*
X18027Y15405D01*
X18135Y15297D01*
X18135Y15125D01*
X18136Y15120D01*
X18136Y15114D01*
X18136Y15113D01*
X18138Y15108D01*
X18140Y15102D01*
X18141Y15102D01*
X18141Y15101D01*
X18144Y15097D01*
X18147Y15092D01*
X18148Y15092D01*
X18148Y15091D01*
X18153Y15088D01*
X18157Y15084D01*
X18158Y15083D01*
X18163Y15081D01*
X18168Y15078D01*
X18169Y15078D01*
X18175Y15077D01*
X18180Y15076D01*
X18181Y15076D01*
X18187Y15076D01*
X18193Y15077D01*
X18194Y15077D01*
X18199Y15079D01*
X18204Y15080D01*
X18205Y15081D01*
X18206Y15081D01*
X18216Y15088D01*
X18218Y15089D01*
X18219Y15090D01*
X18233Y15105D01*
X18387Y15105D01*
X18401Y15090D01*
X18406Y15087D01*
X18410Y15083D01*
X18411Y15083D01*
X18416Y15080D01*
X18421Y15078D01*
X18422Y15078D01*
X18428Y15077D01*
X18433Y15076D01*
X18434Y15076D01*
X18435Y15076D01*
X18440Y15076D01*
X18446Y15077D01*
X18447Y15077D01*
X18452Y15079D01*
X18458Y15081D01*
X18459Y15081D01*
X18463Y15085D01*
X18468Y15088D01*
X18469Y15088D01*
X18473Y15093D01*
X18476Y15097D01*
X18477Y15097D01*
X18477Y15098D01*
X18479Y15103D01*
X18482Y15108D01*
X18483Y15109D01*
X18485Y15121D01*
X18485Y15124D01*
X18485Y15125D01*
X18485Y15177D01*
X18593Y15285D01*
X18747Y15285D01*
X18855Y15177D01*
X18855Y15125D01*
X18856Y15120D01*
X18856Y15114D01*
X18856Y15113D01*
X18858Y15108D01*
X18860Y15102D01*
X18861Y15102D01*
X18861Y15101D01*
X18864Y15097D01*
X18867Y15092D01*
X18868Y15092D01*
X18868Y15091D01*
X18873Y15088D01*
X18877Y15084D01*
X18878Y15083D01*
X18883Y15081D01*
X18888Y15078D01*
X18889Y15078D01*
X18895Y15077D01*
X18900Y15076D01*
X18901Y15076D01*
X18907Y15076D01*
X18913Y15077D01*
X18914Y15077D01*
X18919Y15079D01*
X18924Y15080D01*
X18925Y15081D01*
X18926Y15081D01*
X18936Y15088D01*
X18938Y15089D01*
X18939Y15090D01*
X18953Y15105D01*
X19107Y15105D01*
X19215Y14997D01*
X19215Y14843D01*
X19107Y14735D01*
X18953Y14735D01*
X18845Y14843D01*
X18845Y14895D01*
X18844Y14900D01*
X18844Y14906D01*
X18844Y14907D01*
X18842Y14912D01*
X18840Y14918D01*
X18839Y14918D01*
X18839Y14919D01*
X18836Y14923D01*
X18833Y14928D01*
X18832Y14928D01*
X18832Y14929D01*
X18827Y14932D01*
X18823Y14936D01*
X18822Y14937D01*
X18817Y14939D01*
X18812Y14942D01*
X18811Y14942D01*
X18805Y14943D01*
X18800Y14944D01*
X18799Y14944D01*
X18793Y14944D01*
X18787Y14943D01*
X18786Y14943D01*
X18781Y14941D01*
X18776Y14940D01*
X18775Y14939D01*
X18774Y14939D01*
X18764Y14932D01*
X18762Y14931D01*
X18761Y14930D01*
X18747Y14915D01*
X18593Y14915D01*
X18579Y14930D01*
X18574Y14933D01*
X18570Y14937D01*
X18569Y14937D01*
X18564Y14940D01*
X18559Y14942D01*
X18558Y14942D01*
X18552Y14943D01*
X18547Y14944D01*
X18546Y14944D01*
X18545Y14944D01*
X18540Y14944D01*
X18534Y14943D01*
X18533Y14943D01*
X18528Y14941D01*
X18522Y14939D01*
X18521Y14939D01*
X18517Y14935D01*
X18512Y14932D01*
X18511Y14932D01*
X18507Y14927D01*
X18504Y14923D01*
X18503Y14923D01*
X18503Y14922D01*
X18501Y14917D01*
X18498Y14912D01*
X18497Y14911D01*
X18495Y14899D01*
X18495Y14896D01*
X18495Y14895D01*
X18495Y14843D01*
X18387Y14735D01*
X18233Y14735D01*
G37*
%LPD*%
%LPC*%
G36*
X16433Y17164D02*
X16433Y17164D01*
X16310Y17215D01*
X16215Y17310D01*
X16164Y17433D01*
X16164Y17567D01*
X16215Y17690D01*
X16310Y17785D01*
X16433Y17836D01*
X16567Y17836D01*
X16690Y17785D01*
X16785Y17690D01*
X16836Y17567D01*
X16836Y17433D01*
X16785Y17310D01*
X16690Y17215D01*
X16567Y17164D01*
X16433Y17164D01*
G37*
%LPD*%
%LPC*%
G36*
X10333Y17164D02*
X10333Y17164D01*
X10210Y17215D01*
X10115Y17310D01*
X10064Y17433D01*
X10064Y17567D01*
X10115Y17690D01*
X10210Y17785D01*
X10333Y17836D01*
X10467Y17836D01*
X10590Y17785D01*
X10685Y17690D01*
X10736Y17567D01*
X10736Y17433D01*
X10685Y17310D01*
X10590Y17215D01*
X10467Y17164D01*
X10333Y17164D01*
G37*
%LPD*%
%LPC*%
G36*
X17433Y17164D02*
X17433Y17164D01*
X17310Y17215D01*
X17215Y17310D01*
X17164Y17433D01*
X17164Y17567D01*
X17215Y17690D01*
X17310Y17785D01*
X17433Y17836D01*
X17567Y17836D01*
X17690Y17785D01*
X17785Y17690D01*
X17836Y17567D01*
X17836Y17433D01*
X17785Y17310D01*
X17690Y17215D01*
X17567Y17164D01*
X17433Y17164D01*
G37*
%LPD*%
%LPC*%
G36*
X9333Y17164D02*
X9333Y17164D01*
X9210Y17215D01*
X9115Y17310D01*
X9064Y17433D01*
X9064Y17567D01*
X9115Y17690D01*
X9210Y17785D01*
X9333Y17836D01*
X9467Y17836D01*
X9590Y17785D01*
X9685Y17690D01*
X9736Y17567D01*
X9736Y17433D01*
X9685Y17310D01*
X9590Y17215D01*
X9467Y17164D01*
X9333Y17164D01*
G37*
%LPD*%
%LPC*%
G36*
X15433Y17164D02*
X15433Y17164D01*
X15310Y17215D01*
X15215Y17310D01*
X15164Y17433D01*
X15164Y17567D01*
X15215Y17690D01*
X15310Y17785D01*
X15433Y17836D01*
X15567Y17836D01*
X15690Y17785D01*
X15785Y17690D01*
X15836Y17567D01*
X15836Y17433D01*
X15785Y17310D01*
X15690Y17215D01*
X15567Y17164D01*
X15433Y17164D01*
G37*
%LPD*%
%LPC*%
G36*
X3133Y17164D02*
X3133Y17164D01*
X3010Y17215D01*
X2915Y17310D01*
X2864Y17433D01*
X2864Y17567D01*
X2915Y17690D01*
X3010Y17785D01*
X3133Y17836D01*
X3267Y17836D01*
X3390Y17785D01*
X3485Y17690D01*
X3536Y17567D01*
X3536Y17433D01*
X3485Y17310D01*
X3390Y17215D01*
X3267Y17164D01*
X3133Y17164D01*
G37*
%LPD*%
%LPC*%
G36*
X8333Y17164D02*
X8333Y17164D01*
X8210Y17215D01*
X8115Y17310D01*
X8064Y17433D01*
X8064Y17567D01*
X8115Y17690D01*
X8210Y17785D01*
X8333Y17836D01*
X8467Y17836D01*
X8590Y17785D01*
X8685Y17690D01*
X8736Y17567D01*
X8736Y17433D01*
X8685Y17310D01*
X8590Y17215D01*
X8467Y17164D01*
X8333Y17164D01*
G37*
%LPD*%
%LPC*%
G36*
X5133Y17164D02*
X5133Y17164D01*
X5010Y17215D01*
X4915Y17310D01*
X4864Y17433D01*
X4864Y17567D01*
X4915Y17690D01*
X5010Y17785D01*
X5133Y17836D01*
X5267Y17836D01*
X5390Y17785D01*
X5485Y17690D01*
X5536Y17567D01*
X5536Y17433D01*
X5485Y17310D01*
X5390Y17215D01*
X5267Y17164D01*
X5133Y17164D01*
G37*
%LPD*%
%LPC*%
G36*
X4133Y17164D02*
X4133Y17164D01*
X4010Y17215D01*
X3915Y17310D01*
X3864Y17433D01*
X3864Y17567D01*
X3915Y17690D01*
X4010Y17785D01*
X4133Y17836D01*
X4267Y17836D01*
X4390Y17785D01*
X4485Y17690D01*
X4536Y17567D01*
X4536Y17433D01*
X4485Y17310D01*
X4390Y17215D01*
X4267Y17164D01*
X4133Y17164D01*
G37*
%LPD*%
%LPC*%
G36*
X3163Y1495D02*
X3163Y1495D01*
X3054Y1605D01*
X3054Y1606D01*
X3054Y1607D01*
X3052Y1612D01*
X3050Y1618D01*
X3049Y1618D01*
X3049Y1619D01*
X3046Y1623D01*
X3043Y1628D01*
X3042Y1628D01*
X3042Y1629D01*
X3037Y1632D01*
X3033Y1636D01*
X3032Y1637D01*
X3027Y1639D01*
X3022Y1642D01*
X3021Y1642D01*
X3015Y1643D01*
X3010Y1644D01*
X3009Y1644D01*
X3003Y1644D01*
X2997Y1643D01*
X2996Y1643D01*
X2991Y1641D01*
X2986Y1640D01*
X2985Y1639D01*
X2984Y1639D01*
X2974Y1632D01*
X2972Y1631D01*
X2971Y1630D01*
X2897Y1555D01*
X2743Y1555D01*
X2635Y1663D01*
X2635Y1817D01*
X2743Y1925D01*
X2897Y1925D01*
X3006Y1815D01*
X3006Y1814D01*
X3006Y1813D01*
X3008Y1808D01*
X3010Y1802D01*
X3011Y1802D01*
X3011Y1801D01*
X3014Y1797D01*
X3017Y1792D01*
X3018Y1792D01*
X3018Y1791D01*
X3023Y1788D01*
X3027Y1784D01*
X3028Y1783D01*
X3033Y1781D01*
X3038Y1778D01*
X3039Y1778D01*
X3045Y1777D01*
X3050Y1776D01*
X3051Y1776D01*
X3057Y1776D01*
X3063Y1777D01*
X3064Y1777D01*
X3069Y1779D01*
X3074Y1780D01*
X3075Y1781D01*
X3076Y1781D01*
X3086Y1788D01*
X3088Y1789D01*
X3089Y1790D01*
X3163Y1865D01*
X3317Y1865D01*
X3391Y1790D01*
X3396Y1787D01*
X3400Y1783D01*
X3401Y1783D01*
X3406Y1780D01*
X3411Y1778D01*
X3412Y1778D01*
X3418Y1777D01*
X3423Y1776D01*
X3424Y1776D01*
X3425Y1776D01*
X3430Y1776D01*
X3436Y1777D01*
X3437Y1777D01*
X3442Y1779D01*
X3448Y1781D01*
X3449Y1781D01*
X3453Y1785D01*
X3458Y1788D01*
X3459Y1788D01*
X3463Y1793D01*
X3466Y1797D01*
X3467Y1797D01*
X3467Y1798D01*
X3469Y1803D01*
X3472Y1808D01*
X3473Y1809D01*
X3474Y1815D01*
X3583Y1925D01*
X3737Y1925D01*
X3845Y1817D01*
X3845Y1663D01*
X3737Y1555D01*
X3583Y1555D01*
X3509Y1630D01*
X3504Y1633D01*
X3500Y1637D01*
X3499Y1637D01*
X3494Y1640D01*
X3489Y1642D01*
X3488Y1642D01*
X3482Y1643D01*
X3477Y1644D01*
X3476Y1644D01*
X3475Y1644D01*
X3470Y1644D01*
X3464Y1643D01*
X3463Y1643D01*
X3458Y1641D01*
X3452Y1639D01*
X3451Y1639D01*
X3447Y1635D01*
X3442Y1632D01*
X3441Y1632D01*
X3437Y1627D01*
X3434Y1623D01*
X3433Y1623D01*
X3433Y1622D01*
X3431Y1617D01*
X3428Y1612D01*
X3427Y1611D01*
X3426Y1605D01*
X3317Y1495D01*
X3163Y1495D01*
G37*
%LPD*%
%LPC*%
G36*
X2023Y13975D02*
X2023Y13975D01*
X1915Y14083D01*
X1915Y14237D01*
X1990Y14311D01*
X1993Y14316D01*
X1997Y14320D01*
X1997Y14321D01*
X2000Y14326D01*
X2002Y14331D01*
X2002Y14332D01*
X2003Y14338D01*
X2004Y14343D01*
X2004Y14344D01*
X2004Y14345D01*
X2004Y14350D01*
X2003Y14356D01*
X2003Y14357D01*
X2001Y14362D01*
X1999Y14368D01*
X1999Y14369D01*
X1995Y14373D01*
X1992Y14378D01*
X1992Y14379D01*
X1987Y14383D01*
X1983Y14386D01*
X1983Y14387D01*
X1982Y14387D01*
X1977Y14389D01*
X1972Y14392D01*
X1971Y14393D01*
X1965Y14394D01*
X1855Y14503D01*
X1855Y14657D01*
X1965Y14766D01*
X1966Y14766D01*
X1967Y14766D01*
X1972Y14768D01*
X1978Y14770D01*
X1978Y14771D01*
X1979Y14771D01*
X1983Y14774D01*
X1988Y14777D01*
X1988Y14778D01*
X1989Y14778D01*
X1992Y14783D01*
X1996Y14787D01*
X1997Y14788D01*
X1999Y14793D01*
X2002Y14798D01*
X2002Y14799D01*
X2003Y14805D01*
X2004Y14810D01*
X2004Y14811D01*
X2004Y14817D01*
X2003Y14823D01*
X2003Y14824D01*
X2001Y14829D01*
X2000Y14834D01*
X1999Y14835D01*
X1999Y14836D01*
X1992Y14846D01*
X1991Y14848D01*
X1990Y14849D01*
X1915Y14923D01*
X1915Y15077D01*
X2023Y15185D01*
X2177Y15185D01*
X2285Y15077D01*
X2285Y14923D01*
X2175Y14814D01*
X2174Y14814D01*
X2173Y14814D01*
X2168Y14812D01*
X2162Y14810D01*
X2162Y14809D01*
X2161Y14809D01*
X2157Y14806D01*
X2152Y14803D01*
X2152Y14802D01*
X2151Y14802D01*
X2148Y14797D01*
X2144Y14793D01*
X2143Y14792D01*
X2141Y14787D01*
X2138Y14782D01*
X2138Y14781D01*
X2137Y14775D01*
X2136Y14770D01*
X2136Y14769D01*
X2136Y14763D01*
X2137Y14757D01*
X2137Y14756D01*
X2139Y14751D01*
X2140Y14746D01*
X2141Y14745D01*
X2141Y14744D01*
X2148Y14734D01*
X2149Y14732D01*
X2150Y14731D01*
X2225Y14657D01*
X2225Y14503D01*
X2150Y14429D01*
X2147Y14424D01*
X2143Y14420D01*
X2143Y14419D01*
X2140Y14414D01*
X2138Y14409D01*
X2138Y14408D01*
X2137Y14402D01*
X2136Y14397D01*
X2136Y14396D01*
X2136Y14395D01*
X2136Y14390D01*
X2137Y14384D01*
X2137Y14383D01*
X2139Y14378D01*
X2141Y14372D01*
X2141Y14371D01*
X2145Y14367D01*
X2148Y14362D01*
X2148Y14361D01*
X2153Y14357D01*
X2157Y14354D01*
X2157Y14353D01*
X2158Y14353D01*
X2163Y14351D01*
X2168Y14348D01*
X2169Y14347D01*
X2175Y14346D01*
X2285Y14237D01*
X2285Y14083D01*
X2177Y13975D01*
X2023Y13975D01*
G37*
%LPD*%
%LPC*%
G36*
X15763Y835D02*
X15763Y835D01*
X15655Y943D01*
X15655Y1097D01*
X15763Y1205D01*
X15917Y1205D01*
X15991Y1130D01*
X15996Y1127D01*
X16000Y1123D01*
X16001Y1123D01*
X16006Y1120D01*
X16011Y1118D01*
X16012Y1118D01*
X16018Y1117D01*
X16023Y1116D01*
X16024Y1116D01*
X16025Y1116D01*
X16030Y1116D01*
X16036Y1117D01*
X16037Y1117D01*
X16042Y1119D01*
X16048Y1121D01*
X16049Y1121D01*
X16053Y1125D01*
X16058Y1128D01*
X16059Y1128D01*
X16063Y1133D01*
X16066Y1137D01*
X16067Y1137D01*
X16067Y1138D01*
X16069Y1143D01*
X16072Y1148D01*
X16073Y1149D01*
X16074Y1155D01*
X16183Y1265D01*
X16337Y1265D01*
X16446Y1155D01*
X16446Y1154D01*
X16446Y1153D01*
X16448Y1148D01*
X16450Y1142D01*
X16451Y1142D01*
X16451Y1141D01*
X16454Y1137D01*
X16457Y1132D01*
X16458Y1132D01*
X16458Y1131D01*
X16463Y1128D01*
X16467Y1124D01*
X16468Y1123D01*
X16473Y1121D01*
X16478Y1118D01*
X16479Y1118D01*
X16485Y1117D01*
X16490Y1116D01*
X16491Y1116D01*
X16497Y1116D01*
X16503Y1117D01*
X16504Y1117D01*
X16509Y1119D01*
X16514Y1120D01*
X16515Y1121D01*
X16516Y1121D01*
X16526Y1128D01*
X16528Y1129D01*
X16529Y1130D01*
X16603Y1205D01*
X16757Y1205D01*
X16865Y1097D01*
X16865Y943D01*
X16757Y835D01*
X16603Y835D01*
X16494Y945D01*
X16494Y946D01*
X16494Y947D01*
X16492Y952D01*
X16490Y958D01*
X16489Y958D01*
X16489Y959D01*
X16486Y963D01*
X16483Y968D01*
X16482Y968D01*
X16482Y969D01*
X16477Y972D01*
X16473Y976D01*
X16472Y977D01*
X16467Y979D01*
X16462Y982D01*
X16461Y982D01*
X16455Y983D01*
X16450Y984D01*
X16449Y984D01*
X16443Y984D01*
X16437Y983D01*
X16436Y983D01*
X16431Y981D01*
X16426Y980D01*
X16425Y979D01*
X16424Y979D01*
X16414Y972D01*
X16412Y971D01*
X16411Y970D01*
X16337Y895D01*
X16183Y895D01*
X16109Y970D01*
X16104Y973D01*
X16100Y977D01*
X16099Y977D01*
X16094Y980D01*
X16089Y982D01*
X16088Y982D01*
X16082Y983D01*
X16077Y984D01*
X16076Y984D01*
X16075Y984D01*
X16070Y984D01*
X16064Y983D01*
X16063Y983D01*
X16058Y981D01*
X16052Y979D01*
X16051Y979D01*
X16047Y975D01*
X16042Y972D01*
X16041Y972D01*
X16037Y967D01*
X16034Y963D01*
X16033Y963D01*
X16033Y962D01*
X16031Y957D01*
X16028Y952D01*
X16027Y951D01*
X16026Y945D01*
X15917Y835D01*
X15763Y835D01*
G37*
%LPD*%
%LPC*%
G36*
X15933Y15155D02*
X15933Y15155D01*
X15825Y15263D01*
X15825Y15417D01*
X15934Y15525D01*
X15937Y15529D01*
X15940Y15533D01*
X15941Y15534D01*
X15941Y15535D01*
X15943Y15540D01*
X15946Y15544D01*
X15946Y15545D01*
X15946Y15546D01*
X15947Y15551D01*
X15948Y15556D01*
X15948Y15557D01*
X15948Y15559D01*
X15948Y15564D01*
X15948Y15569D01*
X15947Y15570D01*
X15947Y15571D01*
X15945Y15576D01*
X15944Y15580D01*
X15943Y15581D01*
X15943Y15583D01*
X15936Y15593D01*
X15934Y15594D01*
X15934Y15595D01*
X15845Y15683D01*
X15845Y15837D01*
X15944Y15935D01*
X15947Y15939D01*
X15950Y15943D01*
X15951Y15944D01*
X15951Y15945D01*
X15953Y15950D01*
X15956Y15954D01*
X15956Y15955D01*
X15956Y15956D01*
X15957Y15961D01*
X15958Y15966D01*
X15958Y15967D01*
X15958Y15969D01*
X15958Y15974D01*
X15958Y15979D01*
X15957Y15980D01*
X15957Y15981D01*
X15955Y15986D01*
X15954Y15990D01*
X15953Y15991D01*
X15953Y15993D01*
X15946Y16003D01*
X15944Y16004D01*
X15944Y16005D01*
X15845Y16103D01*
X15845Y16257D01*
X15953Y16365D01*
X16107Y16365D01*
X16215Y16257D01*
X16215Y16103D01*
X16116Y16005D01*
X16113Y16001D01*
X16110Y15997D01*
X16109Y15996D01*
X16109Y15995D01*
X16107Y15990D01*
X16104Y15986D01*
X16104Y15985D01*
X16104Y15984D01*
X16103Y15979D01*
X16102Y15974D01*
X16102Y15973D01*
X16102Y15971D01*
X16102Y15966D01*
X16102Y15961D01*
X16103Y15960D01*
X16103Y15959D01*
X16105Y15954D01*
X16106Y15950D01*
X16107Y15949D01*
X16107Y15947D01*
X16114Y15937D01*
X16116Y15936D01*
X16116Y15935D01*
X16215Y15837D01*
X16215Y15683D01*
X16106Y15575D01*
X16103Y15571D01*
X16100Y15567D01*
X16099Y15566D01*
X16099Y15565D01*
X16097Y15560D01*
X16094Y15556D01*
X16094Y15555D01*
X16094Y15554D01*
X16093Y15549D01*
X16092Y15544D01*
X16092Y15543D01*
X16092Y15541D01*
X16092Y15536D01*
X16092Y15531D01*
X16093Y15530D01*
X16093Y15529D01*
X16095Y15524D01*
X16096Y15520D01*
X16097Y15519D01*
X16097Y15517D01*
X16104Y15507D01*
X16106Y15506D01*
X16106Y15505D01*
X16195Y15417D01*
X16195Y15263D01*
X16087Y15155D01*
X15933Y15155D01*
G37*
%LPD*%
%LPC*%
G36*
X3403Y10975D02*
X3403Y10975D01*
X3295Y11083D01*
X3295Y11135D01*
X3294Y11140D01*
X3294Y11146D01*
X3294Y11147D01*
X3292Y11152D01*
X3290Y11158D01*
X3289Y11158D01*
X3289Y11159D01*
X3286Y11163D01*
X3283Y11168D01*
X3282Y11168D01*
X3282Y11169D01*
X3277Y11172D01*
X3273Y11176D01*
X3272Y11177D01*
X3267Y11179D01*
X3262Y11182D01*
X3261Y11182D01*
X3255Y11183D01*
X3250Y11184D01*
X3249Y11184D01*
X3243Y11184D01*
X3237Y11183D01*
X3236Y11183D01*
X3231Y11181D01*
X3226Y11180D01*
X3225Y11179D01*
X3224Y11179D01*
X3214Y11172D01*
X3212Y11171D01*
X3211Y11170D01*
X3137Y11095D01*
X2983Y11095D01*
X2875Y11203D01*
X2875Y11357D01*
X2983Y11465D01*
X3137Y11465D01*
X3245Y11357D01*
X3245Y11305D01*
X3246Y11300D01*
X3246Y11294D01*
X3246Y11293D01*
X3248Y11288D01*
X3250Y11282D01*
X3251Y11282D01*
X3251Y11281D01*
X3254Y11277D01*
X3257Y11272D01*
X3258Y11272D01*
X3258Y11271D01*
X3263Y11268D01*
X3267Y11264D01*
X3268Y11263D01*
X3273Y11261D01*
X3278Y11258D01*
X3279Y11258D01*
X3285Y11257D01*
X3290Y11256D01*
X3291Y11256D01*
X3297Y11256D01*
X3303Y11257D01*
X3304Y11257D01*
X3309Y11259D01*
X3314Y11260D01*
X3315Y11261D01*
X3316Y11261D01*
X3326Y11268D01*
X3328Y11269D01*
X3329Y11270D01*
X3403Y11345D01*
X3557Y11345D01*
X3611Y11290D01*
X3616Y11287D01*
X3620Y11283D01*
X3621Y11283D01*
X3626Y11280D01*
X3631Y11278D01*
X3632Y11278D01*
X3638Y11277D01*
X3643Y11276D01*
X3644Y11276D01*
X3645Y11276D01*
X3650Y11276D01*
X3656Y11277D01*
X3657Y11277D01*
X3662Y11279D01*
X3668Y11281D01*
X3669Y11281D01*
X3673Y11285D01*
X3678Y11288D01*
X3679Y11288D01*
X3683Y11293D01*
X3686Y11297D01*
X3687Y11297D01*
X3687Y11298D01*
X3689Y11303D01*
X3692Y11308D01*
X3693Y11309D01*
X3695Y11321D01*
X3695Y11324D01*
X3695Y11325D01*
X3695Y11357D01*
X3803Y11465D01*
X3957Y11465D01*
X4065Y11357D01*
X4065Y11203D01*
X3957Y11095D01*
X3803Y11095D01*
X3749Y11150D01*
X3744Y11153D01*
X3740Y11157D01*
X3739Y11157D01*
X3734Y11160D01*
X3729Y11162D01*
X3728Y11162D01*
X3722Y11163D01*
X3717Y11164D01*
X3716Y11164D01*
X3715Y11164D01*
X3710Y11164D01*
X3704Y11163D01*
X3703Y11163D01*
X3698Y11161D01*
X3692Y11159D01*
X3691Y11159D01*
X3687Y11155D01*
X3682Y11152D01*
X3681Y11152D01*
X3677Y11147D01*
X3674Y11143D01*
X3673Y11143D01*
X3673Y11142D01*
X3671Y11137D01*
X3668Y11132D01*
X3667Y11131D01*
X3665Y11119D01*
X3665Y11116D01*
X3665Y11115D01*
X3665Y11083D01*
X3557Y10975D01*
X3403Y10975D01*
G37*
%LPD*%
%LPC*%
G36*
X10423Y10975D02*
X10423Y10975D01*
X10315Y11083D01*
X10315Y11135D01*
X10314Y11140D01*
X10314Y11146D01*
X10314Y11147D01*
X10312Y11152D01*
X10310Y11158D01*
X10309Y11158D01*
X10309Y11159D01*
X10306Y11163D01*
X10303Y11168D01*
X10302Y11168D01*
X10302Y11169D01*
X10297Y11172D01*
X10293Y11176D01*
X10292Y11177D01*
X10287Y11179D01*
X10282Y11182D01*
X10281Y11182D01*
X10275Y11183D01*
X10270Y11184D01*
X10269Y11184D01*
X10263Y11184D01*
X10257Y11183D01*
X10256Y11183D01*
X10251Y11181D01*
X10246Y11180D01*
X10245Y11179D01*
X10244Y11179D01*
X10234Y11172D01*
X10232Y11171D01*
X10231Y11170D01*
X10157Y11095D01*
X10003Y11095D01*
X9895Y11203D01*
X9895Y11357D01*
X10003Y11465D01*
X10157Y11465D01*
X10265Y11357D01*
X10265Y11305D01*
X10266Y11300D01*
X10266Y11294D01*
X10266Y11293D01*
X10268Y11288D01*
X10270Y11282D01*
X10271Y11282D01*
X10271Y11281D01*
X10274Y11277D01*
X10277Y11272D01*
X10278Y11272D01*
X10278Y11271D01*
X10283Y11268D01*
X10287Y11264D01*
X10288Y11263D01*
X10293Y11261D01*
X10298Y11258D01*
X10299Y11258D01*
X10305Y11257D01*
X10310Y11256D01*
X10311Y11256D01*
X10317Y11256D01*
X10323Y11257D01*
X10324Y11257D01*
X10329Y11259D01*
X10334Y11260D01*
X10335Y11261D01*
X10336Y11261D01*
X10346Y11268D01*
X10348Y11269D01*
X10349Y11270D01*
X10423Y11345D01*
X10577Y11345D01*
X10651Y11270D01*
X10656Y11267D01*
X10660Y11263D01*
X10661Y11263D01*
X10666Y11260D01*
X10671Y11258D01*
X10672Y11258D01*
X10678Y11257D01*
X10683Y11256D01*
X10684Y11256D01*
X10685Y11256D01*
X10690Y11256D01*
X10696Y11257D01*
X10697Y11257D01*
X10702Y11259D01*
X10708Y11261D01*
X10709Y11261D01*
X10713Y11265D01*
X10718Y11268D01*
X10719Y11268D01*
X10723Y11273D01*
X10726Y11277D01*
X10727Y11277D01*
X10727Y11278D01*
X10729Y11283D01*
X10732Y11288D01*
X10733Y11289D01*
X10735Y11301D01*
X10735Y11304D01*
X10735Y11305D01*
X10735Y11357D01*
X10843Y11465D01*
X10997Y11465D01*
X11105Y11357D01*
X11105Y11203D01*
X10997Y11095D01*
X10843Y11095D01*
X10769Y11170D01*
X10764Y11173D01*
X10760Y11177D01*
X10759Y11177D01*
X10754Y11180D01*
X10749Y11182D01*
X10748Y11182D01*
X10742Y11183D01*
X10737Y11184D01*
X10736Y11184D01*
X10735Y11184D01*
X10730Y11184D01*
X10724Y11183D01*
X10723Y11183D01*
X10718Y11181D01*
X10712Y11179D01*
X10711Y11179D01*
X10707Y11175D01*
X10702Y11172D01*
X10701Y11172D01*
X10697Y11167D01*
X10694Y11163D01*
X10693Y11163D01*
X10693Y11162D01*
X10691Y11157D01*
X10688Y11152D01*
X10687Y11151D01*
X10685Y11139D01*
X10685Y11136D01*
X10685Y11135D01*
X10685Y11083D01*
X10577Y10975D01*
X10423Y10975D01*
G37*
%LPD*%
%LPC*%
G36*
X18223Y1375D02*
X18223Y1375D01*
X18115Y1483D01*
X18115Y1535D01*
X18114Y1540D01*
X18114Y1546D01*
X18114Y1547D01*
X18112Y1552D01*
X18110Y1558D01*
X18109Y1558D01*
X18109Y1559D01*
X18106Y1563D01*
X18103Y1568D01*
X18102Y1568D01*
X18102Y1569D01*
X18097Y1572D01*
X18093Y1576D01*
X18092Y1577D01*
X18087Y1579D01*
X18082Y1582D01*
X18081Y1582D01*
X18075Y1583D01*
X18070Y1584D01*
X18069Y1584D01*
X18063Y1584D01*
X18057Y1583D01*
X18056Y1583D01*
X18051Y1581D01*
X18046Y1580D01*
X18045Y1579D01*
X18044Y1579D01*
X18034Y1572D01*
X18032Y1571D01*
X18031Y1570D01*
X17957Y1495D01*
X17803Y1495D01*
X17695Y1603D01*
X17695Y1757D01*
X17803Y1865D01*
X17957Y1865D01*
X18065Y1757D01*
X18065Y1705D01*
X18066Y1700D01*
X18066Y1694D01*
X18066Y1693D01*
X18068Y1688D01*
X18070Y1682D01*
X18071Y1682D01*
X18071Y1681D01*
X18074Y1677D01*
X18077Y1672D01*
X18078Y1672D01*
X18078Y1671D01*
X18083Y1668D01*
X18087Y1664D01*
X18088Y1663D01*
X18093Y1661D01*
X18098Y1658D01*
X18099Y1658D01*
X18105Y1657D01*
X18110Y1656D01*
X18111Y1656D01*
X18117Y1656D01*
X18123Y1657D01*
X18124Y1657D01*
X18129Y1659D01*
X18134Y1660D01*
X18135Y1661D01*
X18136Y1661D01*
X18146Y1668D01*
X18148Y1669D01*
X18149Y1670D01*
X18223Y1745D01*
X18377Y1745D01*
X18451Y1670D01*
X18456Y1667D01*
X18460Y1663D01*
X18461Y1663D01*
X18466Y1660D01*
X18471Y1658D01*
X18472Y1658D01*
X18478Y1657D01*
X18483Y1656D01*
X18484Y1656D01*
X18485Y1656D01*
X18490Y1656D01*
X18496Y1657D01*
X18497Y1657D01*
X18502Y1659D01*
X18508Y1661D01*
X18509Y1661D01*
X18513Y1665D01*
X18518Y1668D01*
X18519Y1668D01*
X18523Y1673D01*
X18526Y1677D01*
X18527Y1677D01*
X18527Y1678D01*
X18529Y1683D01*
X18532Y1688D01*
X18533Y1689D01*
X18535Y1701D01*
X18535Y1704D01*
X18535Y1705D01*
X18535Y1757D01*
X18643Y1865D01*
X18797Y1865D01*
X18905Y1757D01*
X18905Y1603D01*
X18797Y1495D01*
X18643Y1495D01*
X18569Y1570D01*
X18564Y1573D01*
X18560Y1577D01*
X18559Y1577D01*
X18554Y1580D01*
X18549Y1582D01*
X18548Y1582D01*
X18542Y1583D01*
X18537Y1584D01*
X18536Y1584D01*
X18535Y1584D01*
X18530Y1584D01*
X18524Y1583D01*
X18523Y1583D01*
X18518Y1581D01*
X18512Y1579D01*
X18511Y1579D01*
X18507Y1575D01*
X18502Y1572D01*
X18501Y1572D01*
X18497Y1567D01*
X18494Y1563D01*
X18493Y1563D01*
X18493Y1562D01*
X18491Y1557D01*
X18488Y1552D01*
X18487Y1551D01*
X18485Y1539D01*
X18485Y1536D01*
X18485Y1535D01*
X18485Y1483D01*
X18377Y1375D01*
X18223Y1375D01*
G37*
%LPD*%
%LPC*%
G36*
X19783Y835D02*
X19783Y835D01*
X19675Y943D01*
X19675Y1097D01*
X19783Y1205D01*
X19937Y1205D01*
X20011Y1130D01*
X20016Y1127D01*
X20020Y1123D01*
X20021Y1123D01*
X20026Y1120D01*
X20031Y1118D01*
X20032Y1118D01*
X20038Y1117D01*
X20043Y1116D01*
X20044Y1116D01*
X20045Y1116D01*
X20050Y1116D01*
X20056Y1117D01*
X20057Y1117D01*
X20062Y1119D01*
X20068Y1121D01*
X20069Y1121D01*
X20073Y1125D01*
X20078Y1128D01*
X20079Y1128D01*
X20083Y1133D01*
X20086Y1137D01*
X20087Y1137D01*
X20087Y1138D01*
X20089Y1143D01*
X20092Y1148D01*
X20093Y1149D01*
X20095Y1161D01*
X20095Y1164D01*
X20095Y1165D01*
X20095Y1217D01*
X20203Y1325D01*
X20357Y1325D01*
X20465Y1217D01*
X20465Y1165D01*
X20466Y1160D01*
X20466Y1154D01*
X20466Y1153D01*
X20468Y1148D01*
X20470Y1142D01*
X20471Y1142D01*
X20471Y1141D01*
X20474Y1137D01*
X20477Y1132D01*
X20478Y1132D01*
X20478Y1131D01*
X20483Y1128D01*
X20487Y1124D01*
X20488Y1123D01*
X20493Y1121D01*
X20498Y1118D01*
X20499Y1118D01*
X20505Y1117D01*
X20510Y1116D01*
X20511Y1116D01*
X20517Y1116D01*
X20523Y1117D01*
X20524Y1117D01*
X20529Y1119D01*
X20534Y1120D01*
X20535Y1121D01*
X20536Y1121D01*
X20546Y1128D01*
X20548Y1129D01*
X20549Y1130D01*
X20623Y1205D01*
X20777Y1205D01*
X20885Y1097D01*
X20885Y943D01*
X20777Y835D01*
X20623Y835D01*
X20515Y943D01*
X20515Y995D01*
X20514Y1000D01*
X20514Y1006D01*
X20514Y1007D01*
X20512Y1012D01*
X20510Y1018D01*
X20509Y1018D01*
X20509Y1019D01*
X20506Y1023D01*
X20503Y1028D01*
X20502Y1028D01*
X20502Y1029D01*
X20497Y1032D01*
X20493Y1036D01*
X20492Y1037D01*
X20487Y1039D01*
X20482Y1042D01*
X20481Y1042D01*
X20475Y1043D01*
X20470Y1044D01*
X20469Y1044D01*
X20463Y1044D01*
X20457Y1043D01*
X20456Y1043D01*
X20451Y1041D01*
X20446Y1040D01*
X20445Y1039D01*
X20444Y1039D01*
X20434Y1032D01*
X20432Y1031D01*
X20431Y1030D01*
X20357Y955D01*
X20203Y955D01*
X20129Y1030D01*
X20124Y1033D01*
X20120Y1037D01*
X20119Y1037D01*
X20114Y1040D01*
X20109Y1042D01*
X20108Y1042D01*
X20102Y1043D01*
X20097Y1044D01*
X20096Y1044D01*
X20095Y1044D01*
X20090Y1044D01*
X20084Y1043D01*
X20083Y1043D01*
X20078Y1041D01*
X20072Y1039D01*
X20071Y1039D01*
X20067Y1035D01*
X20062Y1032D01*
X20061Y1032D01*
X20057Y1027D01*
X20054Y1023D01*
X20053Y1023D01*
X20053Y1022D01*
X20051Y1017D01*
X20048Y1012D01*
X20047Y1011D01*
X20045Y999D01*
X20045Y996D01*
X20045Y995D01*
X20045Y943D01*
X19937Y835D01*
X19783Y835D01*
G37*
%LPD*%
%LPC*%
G36*
X8203Y1495D02*
X8203Y1495D01*
X8095Y1603D01*
X8095Y1655D01*
X8095Y1660D01*
X8094Y1664D01*
X8094Y1665D01*
X8094Y1666D01*
X8094Y1667D01*
X8092Y1672D01*
X8091Y1675D01*
X8090Y1676D01*
X8090Y1678D01*
X8089Y1678D01*
X8089Y1679D01*
X8086Y1683D01*
X8083Y1688D01*
X8082Y1688D01*
X8082Y1689D01*
X8077Y1692D01*
X8073Y1696D01*
X8072Y1697D01*
X8067Y1699D01*
X8062Y1702D01*
X8061Y1702D01*
X8055Y1703D01*
X8050Y1704D01*
X8049Y1704D01*
X8043Y1704D01*
X8037Y1703D01*
X8036Y1703D01*
X8033Y1702D01*
X8031Y1701D01*
X8026Y1700D01*
X8025Y1699D01*
X8024Y1699D01*
X8022Y1698D01*
X8019Y1696D01*
X8014Y1692D01*
X8013Y1691D01*
X8012Y1690D01*
X8011Y1690D01*
X7937Y1615D01*
X7783Y1615D01*
X7675Y1723D01*
X7675Y1877D01*
X7783Y1985D01*
X7937Y1985D01*
X8045Y1877D01*
X8045Y1825D01*
X8046Y1820D01*
X8046Y1814D01*
X8046Y1813D01*
X8048Y1808D01*
X8050Y1802D01*
X8051Y1802D01*
X8051Y1801D01*
X8054Y1797D01*
X8057Y1792D01*
X8058Y1792D01*
X8058Y1791D01*
X8063Y1788D01*
X8067Y1784D01*
X8068Y1783D01*
X8073Y1781D01*
X8078Y1778D01*
X8079Y1778D01*
X8085Y1777D01*
X8090Y1776D01*
X8091Y1776D01*
X8097Y1776D01*
X8103Y1777D01*
X8104Y1777D01*
X8109Y1779D01*
X8114Y1780D01*
X8115Y1781D01*
X8116Y1781D01*
X8126Y1788D01*
X8128Y1789D01*
X8129Y1790D01*
X8203Y1865D01*
X8357Y1865D01*
X8431Y1790D01*
X8436Y1787D01*
X8440Y1783D01*
X8441Y1783D01*
X8446Y1780D01*
X8451Y1778D01*
X8452Y1778D01*
X8458Y1777D01*
X8463Y1776D01*
X8464Y1776D01*
X8465Y1776D01*
X8470Y1776D01*
X8476Y1777D01*
X8477Y1777D01*
X8482Y1779D01*
X8488Y1781D01*
X8489Y1781D01*
X8493Y1785D01*
X8498Y1788D01*
X8499Y1788D01*
X8503Y1793D01*
X8506Y1797D01*
X8507Y1797D01*
X8507Y1798D01*
X8509Y1803D01*
X8512Y1808D01*
X8513Y1809D01*
X8515Y1821D01*
X8515Y1824D01*
X8515Y1825D01*
X8515Y1877D01*
X8623Y1985D01*
X8777Y1985D01*
X8885Y1877D01*
X8885Y1723D01*
X8777Y1615D01*
X8623Y1615D01*
X8549Y1690D01*
X8545Y1693D01*
X8543Y1695D01*
X8542Y1695D01*
X8540Y1697D01*
X8539Y1697D01*
X8534Y1700D01*
X8533Y1700D01*
X8532Y1701D01*
X8531Y1701D01*
X8529Y1702D01*
X8528Y1702D01*
X8522Y1703D01*
X8517Y1704D01*
X8516Y1704D01*
X8515Y1704D01*
X8510Y1704D01*
X8504Y1703D01*
X8503Y1703D01*
X8498Y1701D01*
X8492Y1699D01*
X8491Y1699D01*
X8487Y1695D01*
X8482Y1692D01*
X8481Y1692D01*
X8477Y1687D01*
X8474Y1683D01*
X8473Y1683D01*
X8473Y1682D01*
X8471Y1677D01*
X8468Y1672D01*
X8467Y1671D01*
X8467Y1670D01*
X8467Y1669D01*
X8467Y1667D01*
X8465Y1659D01*
X8465Y1658D01*
X8465Y1657D01*
X8465Y1656D01*
X8465Y1655D01*
X8465Y1603D01*
X8357Y1495D01*
X8203Y1495D01*
G37*
%LPD*%
%LPC*%
G36*
X12223Y15195D02*
X12223Y15195D01*
X12115Y15303D01*
X12115Y15457D01*
X12184Y15525D01*
X12187Y15529D01*
X12190Y15533D01*
X12191Y15534D01*
X12191Y15535D01*
X12193Y15540D01*
X12196Y15544D01*
X12196Y15545D01*
X12196Y15546D01*
X12197Y15551D01*
X12198Y15556D01*
X12198Y15557D01*
X12198Y15559D01*
X12198Y15564D01*
X12198Y15569D01*
X12197Y15570D01*
X12197Y15571D01*
X12195Y15576D01*
X12194Y15580D01*
X12193Y15581D01*
X12193Y15583D01*
X12186Y15593D01*
X12184Y15594D01*
X12184Y15595D01*
X12115Y15663D01*
X12115Y15817D01*
X12194Y15895D01*
X12197Y15899D01*
X12200Y15903D01*
X12201Y15904D01*
X12201Y15905D01*
X12203Y15910D01*
X12206Y15914D01*
X12206Y15915D01*
X12206Y15916D01*
X12207Y15921D01*
X12208Y15926D01*
X12208Y15927D01*
X12208Y15929D01*
X12208Y15934D01*
X12208Y15939D01*
X12207Y15940D01*
X12207Y15941D01*
X12205Y15946D01*
X12204Y15950D01*
X12203Y15951D01*
X12203Y15953D01*
X12196Y15963D01*
X12194Y15964D01*
X12194Y15965D01*
X12115Y16043D01*
X12115Y16197D01*
X12223Y16305D01*
X12377Y16305D01*
X12485Y16197D01*
X12485Y16043D01*
X12406Y15965D01*
X12403Y15961D01*
X12400Y15957D01*
X12399Y15956D01*
X12399Y15955D01*
X12397Y15950D01*
X12394Y15946D01*
X12394Y15945D01*
X12394Y15944D01*
X12393Y15939D01*
X12392Y15934D01*
X12392Y15933D01*
X12392Y15931D01*
X12392Y15926D01*
X12392Y15921D01*
X12393Y15920D01*
X12393Y15919D01*
X12395Y15914D01*
X12396Y15910D01*
X12397Y15909D01*
X12397Y15907D01*
X12404Y15897D01*
X12406Y15896D01*
X12406Y15895D01*
X12485Y15817D01*
X12485Y15663D01*
X12416Y15595D01*
X12413Y15591D01*
X12410Y15587D01*
X12409Y15586D01*
X12409Y15585D01*
X12407Y15580D01*
X12404Y15576D01*
X12404Y15575D01*
X12404Y15574D01*
X12403Y15569D01*
X12402Y15564D01*
X12402Y15563D01*
X12402Y15561D01*
X12402Y15556D01*
X12402Y15551D01*
X12403Y15550D01*
X12403Y15549D01*
X12405Y15544D01*
X12406Y15540D01*
X12407Y15539D01*
X12407Y15537D01*
X12414Y15527D01*
X12416Y15526D01*
X12416Y15525D01*
X12485Y15457D01*
X12485Y15303D01*
X12377Y15195D01*
X12223Y15195D01*
G37*
%LPD*%
%LPC*%
G36*
X11263Y6055D02*
X11263Y6055D01*
X11155Y6163D01*
X11155Y6317D01*
X11263Y6425D01*
X11417Y6425D01*
X11485Y6356D01*
X11489Y6353D01*
X11493Y6350D01*
X11494Y6349D01*
X11495Y6349D01*
X11500Y6347D01*
X11504Y6344D01*
X11505Y6344D01*
X11506Y6344D01*
X11511Y6343D01*
X11516Y6342D01*
X11517Y6342D01*
X11519Y6342D01*
X11524Y6342D01*
X11529Y6342D01*
X11530Y6343D01*
X11531Y6343D01*
X11536Y6345D01*
X11540Y6346D01*
X11541Y6347D01*
X11543Y6347D01*
X11553Y6354D01*
X11554Y6356D01*
X11555Y6356D01*
X11623Y6425D01*
X11777Y6425D01*
X11845Y6356D01*
X11849Y6353D01*
X11853Y6350D01*
X11854Y6349D01*
X11855Y6349D01*
X11860Y6347D01*
X11864Y6344D01*
X11865Y6344D01*
X11866Y6344D01*
X11871Y6343D01*
X11876Y6342D01*
X11877Y6342D01*
X11879Y6342D01*
X11884Y6342D01*
X11889Y6342D01*
X11890Y6343D01*
X11891Y6343D01*
X11896Y6345D01*
X11900Y6346D01*
X11901Y6347D01*
X11903Y6347D01*
X11913Y6354D01*
X11914Y6356D01*
X11915Y6356D01*
X11983Y6425D01*
X12137Y6425D01*
X12245Y6317D01*
X12245Y6163D01*
X12137Y6055D01*
X11983Y6055D01*
X11915Y6124D01*
X11911Y6127D01*
X11907Y6130D01*
X11906Y6131D01*
X11905Y6131D01*
X11900Y6133D01*
X11896Y6136D01*
X11895Y6136D01*
X11894Y6136D01*
X11889Y6137D01*
X11884Y6138D01*
X11883Y6138D01*
X11881Y6138D01*
X11876Y6138D01*
X11871Y6138D01*
X11870Y6137D01*
X11869Y6137D01*
X11864Y6135D01*
X11860Y6134D01*
X11859Y6133D01*
X11857Y6133D01*
X11847Y6126D01*
X11846Y6124D01*
X11845Y6124D01*
X11777Y6055D01*
X11623Y6055D01*
X11555Y6124D01*
X11551Y6127D01*
X11547Y6130D01*
X11546Y6131D01*
X11545Y6131D01*
X11540Y6133D01*
X11536Y6136D01*
X11535Y6136D01*
X11534Y6136D01*
X11529Y6137D01*
X11524Y6138D01*
X11523Y6138D01*
X11521Y6138D01*
X11516Y6138D01*
X11511Y6138D01*
X11510Y6137D01*
X11509Y6137D01*
X11504Y6135D01*
X11500Y6134D01*
X11499Y6133D01*
X11497Y6133D01*
X11487Y6126D01*
X11486Y6124D01*
X11485Y6124D01*
X11417Y6055D01*
X11263Y6055D01*
G37*
%LPD*%
%LPC*%
G36*
X13663Y835D02*
X13663Y835D01*
X13554Y945D01*
X13554Y946D01*
X13554Y947D01*
X13552Y952D01*
X13550Y958D01*
X13549Y958D01*
X13549Y959D01*
X13546Y963D01*
X13543Y968D01*
X13542Y968D01*
X13542Y969D01*
X13537Y972D01*
X13533Y976D01*
X13532Y977D01*
X13527Y979D01*
X13522Y982D01*
X13521Y982D01*
X13515Y983D01*
X13510Y984D01*
X13509Y984D01*
X13503Y984D01*
X13497Y983D01*
X13496Y983D01*
X13491Y981D01*
X13486Y980D01*
X13485Y979D01*
X13484Y979D01*
X13474Y972D01*
X13472Y971D01*
X13471Y970D01*
X13397Y895D01*
X13243Y895D01*
X13135Y1003D01*
X13135Y1157D01*
X13243Y1265D01*
X13397Y1265D01*
X13506Y1155D01*
X13506Y1154D01*
X13506Y1153D01*
X13508Y1148D01*
X13510Y1142D01*
X13511Y1142D01*
X13511Y1141D01*
X13514Y1137D01*
X13517Y1132D01*
X13518Y1132D01*
X13518Y1131D01*
X13523Y1128D01*
X13527Y1124D01*
X13528Y1123D01*
X13533Y1121D01*
X13538Y1118D01*
X13539Y1118D01*
X13545Y1117D01*
X13550Y1116D01*
X13551Y1116D01*
X13557Y1116D01*
X13563Y1117D01*
X13564Y1117D01*
X13569Y1119D01*
X13574Y1120D01*
X13575Y1121D01*
X13576Y1121D01*
X13586Y1128D01*
X13588Y1129D01*
X13589Y1130D01*
X13663Y1205D01*
X13817Y1205D01*
X13925Y1097D01*
X13925Y943D01*
X13817Y835D01*
X13663Y835D01*
G37*
%LPD*%
%LPC*%
G36*
X5743Y775D02*
X5743Y775D01*
X5635Y883D01*
X5635Y1037D01*
X5743Y1145D01*
X5897Y1145D01*
X5971Y1070D01*
X5976Y1067D01*
X5980Y1063D01*
X5981Y1063D01*
X5986Y1060D01*
X5991Y1058D01*
X5992Y1058D01*
X5998Y1057D01*
X6003Y1056D01*
X6004Y1056D01*
X6005Y1056D01*
X6010Y1056D01*
X6016Y1057D01*
X6017Y1057D01*
X6022Y1059D01*
X6028Y1061D01*
X6029Y1061D01*
X6033Y1065D01*
X6038Y1068D01*
X6039Y1068D01*
X6043Y1073D01*
X6046Y1077D01*
X6047Y1077D01*
X6047Y1078D01*
X6049Y1083D01*
X6052Y1088D01*
X6053Y1089D01*
X6055Y1101D01*
X6055Y1104D01*
X6055Y1105D01*
X6055Y1157D01*
X6163Y1265D01*
X6317Y1265D01*
X6425Y1157D01*
X6425Y1003D01*
X6317Y895D01*
X6163Y895D01*
X6089Y970D01*
X6084Y973D01*
X6080Y977D01*
X6079Y977D01*
X6074Y980D01*
X6069Y982D01*
X6068Y982D01*
X6062Y983D01*
X6057Y984D01*
X6056Y984D01*
X6055Y984D01*
X6050Y984D01*
X6044Y983D01*
X6043Y983D01*
X6038Y981D01*
X6032Y979D01*
X6031Y979D01*
X6027Y975D01*
X6022Y972D01*
X6021Y972D01*
X6017Y967D01*
X6014Y963D01*
X6013Y963D01*
X6013Y962D01*
X6011Y957D01*
X6008Y952D01*
X6007Y951D01*
X6005Y939D01*
X6005Y936D01*
X6005Y935D01*
X6005Y883D01*
X5897Y775D01*
X5743Y775D01*
G37*
%LPD*%
%LPC*%
G36*
X10783Y14215D02*
X10783Y14215D01*
X10675Y14323D01*
X10675Y14477D01*
X10783Y14585D01*
X10937Y14585D01*
X11011Y14510D01*
X11016Y14507D01*
X11020Y14503D01*
X11021Y14503D01*
X11026Y14500D01*
X11031Y14498D01*
X11032Y14498D01*
X11038Y14497D01*
X11043Y14496D01*
X11044Y14496D01*
X11045Y14496D01*
X11050Y14496D01*
X11056Y14497D01*
X11057Y14497D01*
X11062Y14499D01*
X11068Y14501D01*
X11069Y14501D01*
X11073Y14505D01*
X11078Y14508D01*
X11079Y14508D01*
X11083Y14513D01*
X11086Y14517D01*
X11087Y14517D01*
X11087Y14518D01*
X11089Y14523D01*
X11092Y14528D01*
X11093Y14529D01*
X11095Y14541D01*
X11095Y14544D01*
X11095Y14545D01*
X11095Y14657D01*
X11203Y14765D01*
X11357Y14765D01*
X11465Y14657D01*
X11465Y14503D01*
X11357Y14395D01*
X11203Y14395D01*
X11129Y14470D01*
X11124Y14473D01*
X11120Y14477D01*
X11119Y14477D01*
X11114Y14480D01*
X11109Y14482D01*
X11108Y14482D01*
X11102Y14483D01*
X11097Y14484D01*
X11096Y14484D01*
X11095Y14484D01*
X11090Y14484D01*
X11084Y14483D01*
X11083Y14483D01*
X11078Y14481D01*
X11072Y14479D01*
X11071Y14479D01*
X11067Y14475D01*
X11062Y14472D01*
X11061Y14472D01*
X11057Y14467D01*
X11054Y14463D01*
X11053Y14463D01*
X11053Y14462D01*
X11051Y14457D01*
X11048Y14452D01*
X11047Y14451D01*
X11045Y14439D01*
X11045Y14436D01*
X11045Y14435D01*
X11045Y14323D01*
X10937Y14215D01*
X10783Y14215D01*
G37*
%LPD*%
%LPC*%
G36*
X4873Y9775D02*
X4873Y9775D01*
X4765Y9883D01*
X4765Y10037D01*
X4873Y10145D01*
X4956Y10145D01*
X4961Y10145D01*
X4966Y10146D01*
X4967Y10146D01*
X4968Y10146D01*
X4973Y10148D01*
X4978Y10150D01*
X4979Y10150D01*
X4980Y10151D01*
X4984Y10154D01*
X4988Y10157D01*
X4989Y10158D01*
X4990Y10158D01*
X4993Y10162D01*
X4996Y10166D01*
X4997Y10167D01*
X4998Y10168D01*
X5000Y10172D01*
X5002Y10177D01*
X5002Y10178D01*
X5003Y10179D01*
X5005Y10191D01*
X5005Y10193D01*
X5005Y10194D01*
X5005Y10277D01*
X5113Y10385D01*
X5267Y10385D01*
X5375Y10277D01*
X5375Y10123D01*
X5267Y10015D01*
X5184Y10015D01*
X5179Y10015D01*
X5174Y10014D01*
X5173Y10014D01*
X5172Y10014D01*
X5167Y10012D01*
X5162Y10010D01*
X5161Y10010D01*
X5160Y10009D01*
X5156Y10006D01*
X5152Y10003D01*
X5151Y10002D01*
X5150Y10002D01*
X5147Y9998D01*
X5144Y9994D01*
X5143Y9993D01*
X5142Y9992D01*
X5140Y9988D01*
X5138Y9983D01*
X5138Y9982D01*
X5137Y9981D01*
X5135Y9969D01*
X5135Y9967D01*
X5135Y9966D01*
X5135Y9883D01*
X5027Y9775D01*
X4873Y9775D01*
G37*
%LPD*%
%LPC*%
G36*
X6253Y9775D02*
X6253Y9775D01*
X6145Y9883D01*
X6145Y9966D01*
X6145Y9971D01*
X6144Y9976D01*
X6144Y9977D01*
X6144Y9978D01*
X6142Y9983D01*
X6140Y9988D01*
X6140Y9989D01*
X6139Y9990D01*
X6136Y9994D01*
X6133Y9998D01*
X6132Y9999D01*
X6132Y10000D01*
X6128Y10003D01*
X6124Y10006D01*
X6123Y10007D01*
X6122Y10008D01*
X6118Y10010D01*
X6113Y10012D01*
X6112Y10012D01*
X6111Y10013D01*
X6099Y10015D01*
X6097Y10015D01*
X6096Y10015D01*
X6073Y10015D01*
X5965Y10123D01*
X5965Y10277D01*
X6073Y10385D01*
X6227Y10385D01*
X6335Y10277D01*
X6335Y10194D01*
X6335Y10189D01*
X6336Y10184D01*
X6336Y10183D01*
X6336Y10182D01*
X6338Y10177D01*
X6340Y10172D01*
X6340Y10171D01*
X6341Y10170D01*
X6344Y10166D01*
X6347Y10162D01*
X6348Y10161D01*
X6348Y10160D01*
X6352Y10157D01*
X6356Y10154D01*
X6357Y10153D01*
X6358Y10152D01*
X6362Y10150D01*
X6367Y10148D01*
X6368Y10148D01*
X6369Y10147D01*
X6381Y10145D01*
X6383Y10145D01*
X6384Y10145D01*
X6407Y10145D01*
X6515Y10037D01*
X6515Y9883D01*
X6407Y9775D01*
X6253Y9775D01*
G37*
%LPD*%
%LPC*%
G36*
X17263Y14215D02*
X17263Y14215D01*
X17155Y14323D01*
X17155Y14477D01*
X17230Y14551D01*
X17233Y14556D01*
X17237Y14560D01*
X17237Y14561D01*
X17240Y14566D01*
X17242Y14571D01*
X17242Y14572D01*
X17243Y14578D01*
X17244Y14583D01*
X17244Y14584D01*
X17244Y14585D01*
X17245Y14585D01*
X17417Y14585D01*
X17525Y14477D01*
X17525Y14323D01*
X17417Y14215D01*
X17263Y14215D01*
G37*
%LPD*%
%LPC*%
G36*
X17803Y14215D02*
X17803Y14215D01*
X17695Y14323D01*
X17695Y14477D01*
X17770Y14551D01*
X17773Y14556D01*
X17777Y14560D01*
X17777Y14561D01*
X17780Y14566D01*
X17782Y14571D01*
X17782Y14572D01*
X17783Y14578D01*
X17784Y14583D01*
X17784Y14584D01*
X17784Y14585D01*
X17785Y14585D01*
X17957Y14585D01*
X18065Y14477D01*
X18065Y14323D01*
X17957Y14215D01*
X17803Y14215D01*
G37*
%LPD*%
%LPC*%
G36*
X17735Y14635D02*
X17735Y14635D01*
X17563Y14635D01*
X17455Y14743D01*
X17455Y14897D01*
X17563Y15005D01*
X17717Y15005D01*
X17825Y14897D01*
X17825Y14743D01*
X17750Y14669D01*
X17747Y14664D01*
X17743Y14660D01*
X17743Y14659D01*
X17740Y14654D01*
X17738Y14649D01*
X17738Y14648D01*
X17737Y14642D01*
X17736Y14637D01*
X17736Y14636D01*
X17736Y14635D01*
X17735Y14635D01*
G37*
%LPD*%
%LPC*%
G36*
X17195Y14635D02*
X17195Y14635D01*
X17023Y14635D01*
X16915Y14743D01*
X16915Y14897D01*
X17023Y15005D01*
X17177Y15005D01*
X17285Y14897D01*
X17285Y14743D01*
X17210Y14669D01*
X17207Y14664D01*
X17203Y14660D01*
X17203Y14659D01*
X17200Y14654D01*
X17198Y14649D01*
X17198Y14648D01*
X17197Y14642D01*
X17196Y14637D01*
X17196Y14636D01*
X17196Y14635D01*
X17195Y14635D01*
G37*
%LPD*%
%LPC*%
G36*
X8863Y15595D02*
X8863Y15595D01*
X8755Y15703D01*
X8755Y15857D01*
X8863Y15965D01*
X9017Y15965D01*
X9125Y15857D01*
X9125Y15703D01*
X9017Y15595D01*
X8863Y15595D01*
G37*
%LPD*%
%LPC*%
G36*
X19543Y13195D02*
X19543Y13195D01*
X19435Y13303D01*
X19435Y13457D01*
X19543Y13565D01*
X19697Y13565D01*
X19805Y13457D01*
X19805Y13303D01*
X19697Y13195D01*
X19543Y13195D01*
G37*
%LPD*%
%LPC*%
G36*
X21703Y235D02*
X21703Y235D01*
X21595Y343D01*
X21595Y497D01*
X21703Y605D01*
X21857Y605D01*
X21965Y497D01*
X21965Y343D01*
X21857Y235D01*
X21703Y235D01*
G37*
%LPD*%
%LPC*%
G36*
X22723Y235D02*
X22723Y235D01*
X22615Y343D01*
X22615Y497D01*
X22723Y605D01*
X22877Y605D01*
X22985Y497D01*
X22985Y343D01*
X22877Y235D01*
X22723Y235D01*
G37*
%LPD*%
%LPC*%
G36*
X7723Y775D02*
X7723Y775D01*
X7615Y883D01*
X7615Y1037D01*
X7723Y1145D01*
X7877Y1145D01*
X7985Y1037D01*
X7985Y883D01*
X7877Y775D01*
X7723Y775D01*
G37*
%LPD*%
%LPC*%
G36*
X8683Y775D02*
X8683Y775D01*
X8575Y883D01*
X8575Y1037D01*
X8683Y1145D01*
X8837Y1145D01*
X8945Y1037D01*
X8945Y883D01*
X8837Y775D01*
X8683Y775D01*
G37*
%LPD*%
%LPC*%
G36*
X22663Y775D02*
X22663Y775D01*
X22555Y883D01*
X22555Y1037D01*
X22663Y1145D01*
X22817Y1145D01*
X22925Y1037D01*
X22925Y883D01*
X22817Y775D01*
X22663Y775D01*
G37*
%LPD*%
%LPC*%
G36*
X21703Y775D02*
X21703Y775D01*
X21595Y883D01*
X21595Y1037D01*
X21703Y1145D01*
X21857Y1145D01*
X21965Y1037D01*
X21965Y883D01*
X21857Y775D01*
X21703Y775D01*
G37*
%LPD*%
%LPC*%
G36*
X22613Y17065D02*
X22613Y17065D01*
X22505Y17173D01*
X22505Y17327D01*
X22613Y17435D01*
X22767Y17435D01*
X22875Y17327D01*
X22875Y17173D01*
X22767Y17065D01*
X22613Y17065D01*
G37*
%LPD*%
%LPC*%
G36*
X12923Y18815D02*
X12923Y18815D01*
X12815Y18923D01*
X12815Y19077D01*
X12923Y19185D01*
X13077Y19185D01*
X13185Y19077D01*
X13185Y18923D01*
X13077Y18815D01*
X12923Y18815D01*
G37*
%LPD*%
%LPC*%
G36*
X22613Y16565D02*
X22613Y16565D01*
X22505Y16673D01*
X22505Y16827D01*
X22613Y16935D01*
X22767Y16935D01*
X22875Y16827D01*
X22875Y16673D01*
X22767Y16565D01*
X22613Y16565D01*
G37*
%LPD*%
%LPC*%
G36*
X22613Y16065D02*
X22613Y16065D01*
X22505Y16173D01*
X22505Y16327D01*
X22613Y16435D01*
X22767Y16435D01*
X22875Y16327D01*
X22875Y16173D01*
X22767Y16065D01*
X22613Y16065D01*
G37*
%LPD*%
%LPC*%
G36*
X11923Y18815D02*
X11923Y18815D01*
X11815Y18923D01*
X11815Y19077D01*
X11923Y19185D01*
X12077Y19185D01*
X12185Y19077D01*
X12185Y18923D01*
X12077Y18815D01*
X11923Y18815D01*
G37*
%LPD*%
%LPC*%
G36*
X9283Y15955D02*
X9283Y15955D01*
X9175Y16063D01*
X9175Y16217D01*
X9283Y16325D01*
X9437Y16325D01*
X9545Y16217D01*
X9545Y16063D01*
X9437Y15955D01*
X9283Y15955D01*
G37*
%LPD*%
%LPC*%
G36*
X6673Y18815D02*
X6673Y18815D01*
X6565Y18923D01*
X6565Y19077D01*
X6673Y19185D01*
X6827Y19185D01*
X6935Y19077D01*
X6935Y18923D01*
X6827Y18815D01*
X6673Y18815D01*
G37*
%LPD*%
%LPC*%
G36*
X5443Y15825D02*
X5443Y15825D01*
X5335Y15933D01*
X5335Y16087D01*
X5443Y16195D01*
X5597Y16195D01*
X5705Y16087D01*
X5705Y15933D01*
X5597Y15825D01*
X5443Y15825D01*
G37*
%LPD*%
%LPC*%
G36*
X10903Y15715D02*
X10903Y15715D01*
X10795Y15823D01*
X10795Y15977D01*
X10903Y16085D01*
X11057Y16085D01*
X11165Y15977D01*
X11165Y15823D01*
X11057Y15715D01*
X10903Y15715D01*
G37*
%LPD*%
%LPC*%
G36*
X6643Y775D02*
X6643Y775D01*
X6535Y883D01*
X6535Y1037D01*
X6643Y1145D01*
X6797Y1145D01*
X6905Y1037D01*
X6905Y883D01*
X6797Y775D01*
X6643Y775D01*
G37*
%LPD*%
%LPC*%
G36*
X17873Y15575D02*
X17873Y15575D01*
X17765Y15683D01*
X17765Y15837D01*
X17873Y15945D01*
X18027Y15945D01*
X18135Y15837D01*
X18135Y15683D01*
X18027Y15575D01*
X17873Y15575D01*
G37*
%LPD*%
%LPC*%
G36*
X22613Y15565D02*
X22613Y15565D01*
X22505Y15673D01*
X22505Y15827D01*
X22613Y15935D01*
X22767Y15935D01*
X22875Y15827D01*
X22875Y15673D01*
X22767Y15565D01*
X22613Y15565D01*
G37*
%LPD*%
%LPC*%
G36*
X11263Y15115D02*
X11263Y15115D01*
X11155Y15223D01*
X11155Y15377D01*
X11263Y15485D01*
X11417Y15485D01*
X11525Y15377D01*
X11525Y15223D01*
X11417Y15115D01*
X11263Y15115D01*
G37*
%LPD*%
%LPC*%
G36*
X6173Y18815D02*
X6173Y18815D01*
X6065Y18923D01*
X6065Y19077D01*
X6173Y19185D01*
X6327Y19185D01*
X6435Y19077D01*
X6435Y18923D01*
X6327Y18815D01*
X6173Y18815D01*
G37*
%LPD*%
%LPC*%
G36*
X7173Y18815D02*
X7173Y18815D01*
X7065Y18923D01*
X7065Y19077D01*
X7173Y19185D01*
X7327Y19185D01*
X7435Y19077D01*
X7435Y18923D01*
X7327Y18815D01*
X7173Y18815D01*
G37*
%LPD*%
%LPC*%
G36*
X20083Y14755D02*
X20083Y14755D01*
X19975Y14863D01*
X19975Y15017D01*
X20083Y15125D01*
X20237Y15125D01*
X20345Y15017D01*
X20345Y14863D01*
X20237Y14755D01*
X20083Y14755D01*
G37*
%LPD*%
%LPC*%
G36*
X20563Y14755D02*
X20563Y14755D01*
X20455Y14863D01*
X20455Y15017D01*
X20563Y15125D01*
X20717Y15125D01*
X20825Y15017D01*
X20825Y14863D01*
X20717Y14755D01*
X20563Y14755D01*
G37*
%LPD*%
%LPC*%
G36*
X19603Y14755D02*
X19603Y14755D01*
X19495Y14863D01*
X19495Y15017D01*
X19603Y15125D01*
X19757Y15125D01*
X19865Y15017D01*
X19865Y14863D01*
X19757Y14755D01*
X19603Y14755D01*
G37*
%LPD*%
%LPC*%
G36*
X12423Y18815D02*
X12423Y18815D01*
X12315Y18923D01*
X12315Y19077D01*
X12423Y19185D01*
X12577Y19185D01*
X12685Y19077D01*
X12685Y18923D01*
X12577Y18815D01*
X12423Y18815D01*
G37*
%LPD*%
%LPC*%
G36*
X12763Y835D02*
X12763Y835D01*
X12655Y943D01*
X12655Y1097D01*
X12763Y1205D01*
X12917Y1205D01*
X13025Y1097D01*
X13025Y943D01*
X12917Y835D01*
X12763Y835D01*
G37*
%LPD*%
%LPC*%
G36*
X21923Y14565D02*
X21923Y14565D01*
X21815Y14673D01*
X21815Y14827D01*
X21923Y14935D01*
X22077Y14935D01*
X22185Y14827D01*
X22185Y14673D01*
X22077Y14565D01*
X21923Y14565D01*
G37*
%LPD*%
%LPC*%
G36*
X23423Y14565D02*
X23423Y14565D01*
X23315Y14673D01*
X23315Y14827D01*
X23423Y14935D01*
X23577Y14935D01*
X23685Y14827D01*
X23685Y14673D01*
X23577Y14565D01*
X23423Y14565D01*
G37*
%LPD*%
%LPC*%
G36*
X22183Y885D02*
X22183Y885D01*
X22075Y993D01*
X22075Y1147D01*
X22183Y1255D01*
X22337Y1255D01*
X22445Y1147D01*
X22445Y993D01*
X22337Y885D01*
X22183Y885D01*
G37*
%LPD*%
%LPC*%
G36*
X8203Y895D02*
X8203Y895D01*
X8095Y1003D01*
X8095Y1157D01*
X8203Y1265D01*
X8357Y1265D01*
X8465Y1157D01*
X8465Y1003D01*
X8357Y895D01*
X8203Y895D01*
G37*
%LPD*%
%LPC*%
G36*
X12923Y20565D02*
X12923Y20565D01*
X12815Y20673D01*
X12815Y20827D01*
X12923Y20935D01*
X13077Y20935D01*
X13185Y20827D01*
X13185Y20673D01*
X13077Y20565D01*
X12923Y20565D01*
G37*
%LPD*%
%LPC*%
G36*
X21923Y14065D02*
X21923Y14065D01*
X21815Y14173D01*
X21815Y14327D01*
X21923Y14435D01*
X22077Y14435D01*
X22185Y14327D01*
X22185Y14173D01*
X22077Y14065D01*
X21923Y14065D01*
G37*
%LPD*%
%LPC*%
G36*
X23423Y14065D02*
X23423Y14065D01*
X23315Y14173D01*
X23315Y14327D01*
X23423Y14435D01*
X23577Y14435D01*
X23685Y14327D01*
X23685Y14173D01*
X23577Y14065D01*
X23423Y14065D01*
G37*
%LPD*%
%LPC*%
G36*
X21923Y13565D02*
X21923Y13565D01*
X21815Y13673D01*
X21815Y13827D01*
X21923Y13935D01*
X22077Y13935D01*
X22185Y13827D01*
X22185Y13673D01*
X22077Y13565D01*
X21923Y13565D01*
G37*
%LPD*%
%LPC*%
G36*
X23423Y13565D02*
X23423Y13565D01*
X23315Y13673D01*
X23315Y13827D01*
X23423Y13935D01*
X23577Y13935D01*
X23685Y13827D01*
X23685Y13673D01*
X23577Y13565D01*
X23423Y13565D01*
G37*
%LPD*%
%LPC*%
G36*
X20563Y13195D02*
X20563Y13195D01*
X20455Y13303D01*
X20455Y13457D01*
X20563Y13565D01*
X20717Y13565D01*
X20825Y13457D01*
X20825Y13303D01*
X20717Y13195D01*
X20563Y13195D01*
G37*
%LPD*%
%LPC*%
G36*
X20083Y13195D02*
X20083Y13195D01*
X19975Y13303D01*
X19975Y13457D01*
X20083Y13565D01*
X20237Y13565D01*
X20345Y13457D01*
X20345Y13303D01*
X20237Y13195D01*
X20083Y13195D01*
G37*
%LPD*%
%LPC*%
G36*
X10723Y175D02*
X10723Y175D01*
X10615Y283D01*
X10615Y437D01*
X10723Y545D01*
X10877Y545D01*
X10985Y437D01*
X10985Y283D01*
X10877Y175D01*
X10723Y175D01*
G37*
%LPD*%
%LPC*%
G36*
X7173Y20565D02*
X7173Y20565D01*
X7065Y20673D01*
X7065Y20827D01*
X7173Y20935D01*
X7327Y20935D01*
X7435Y20827D01*
X7435Y20673D01*
X7327Y20565D01*
X7173Y20565D01*
G37*
%LPD*%
%LPC*%
G36*
X12923Y20065D02*
X12923Y20065D01*
X12815Y20173D01*
X12815Y20327D01*
X12923Y20435D01*
X13077Y20435D01*
X13185Y20327D01*
X13185Y20173D01*
X13077Y20065D01*
X12923Y20065D01*
G37*
%LPD*%
%LPC*%
G36*
X5593Y10015D02*
X5593Y10015D01*
X5485Y10123D01*
X5485Y10277D01*
X5593Y10385D01*
X5747Y10385D01*
X5855Y10277D01*
X5855Y10123D01*
X5747Y10015D01*
X5593Y10015D01*
G37*
%LPD*%
%LPC*%
G36*
X7173Y20065D02*
X7173Y20065D01*
X7065Y20173D01*
X7065Y20327D01*
X7173Y20435D01*
X7327Y20435D01*
X7435Y20327D01*
X7435Y20173D01*
X7327Y20065D01*
X7173Y20065D01*
G37*
%LPD*%
%LPC*%
G36*
X9763Y1615D02*
X9763Y1615D01*
X9655Y1723D01*
X9655Y1877D01*
X9763Y1985D01*
X9917Y1985D01*
X10025Y1877D01*
X10025Y1723D01*
X9917Y1615D01*
X9763Y1615D01*
G37*
%LPD*%
%LPC*%
G36*
X11683Y2035D02*
X11683Y2035D01*
X11575Y2143D01*
X11575Y2297D01*
X11683Y2405D01*
X11837Y2405D01*
X11945Y2297D01*
X11945Y2143D01*
X11837Y2035D01*
X11683Y2035D01*
G37*
%LPD*%
%LPC*%
G36*
X13723Y2155D02*
X13723Y2155D01*
X13615Y2263D01*
X13615Y2417D01*
X13723Y2525D01*
X13877Y2525D01*
X13985Y2417D01*
X13985Y2263D01*
X13877Y2155D01*
X13723Y2155D01*
G37*
%LPD*%
%LPC*%
G36*
X12923Y19565D02*
X12923Y19565D01*
X12815Y19673D01*
X12815Y19827D01*
X12923Y19935D01*
X13077Y19935D01*
X13185Y19827D01*
X13185Y19673D01*
X13077Y19565D01*
X12923Y19565D01*
G37*
%LPD*%
%LPC*%
G36*
X7173Y19565D02*
X7173Y19565D01*
X7065Y19673D01*
X7065Y19827D01*
X7173Y19935D01*
X7327Y19935D01*
X7435Y19827D01*
X7435Y19673D01*
X7327Y19565D01*
X7173Y19565D01*
G37*
%LPD*%
%LPC*%
G36*
X19023Y17296D02*
X19023Y17296D01*
X18949Y17320D01*
X18879Y17355D01*
X18816Y17401D01*
X18761Y17457D01*
X18715Y17520D01*
X18680Y17589D01*
X18655Y17664D01*
X18653Y17681D01*
X19040Y17681D01*
X19040Y17293D01*
X19023Y17296D01*
G37*
%LPD*%
%LPC*%
G36*
X20874Y18477D02*
X20874Y18477D01*
X20799Y18501D01*
X20730Y18537D01*
X20667Y18583D01*
X20611Y18638D01*
X20565Y18701D01*
X20530Y18771D01*
X20506Y18845D01*
X20503Y18862D01*
X20891Y18862D01*
X20891Y18474D01*
X20874Y18477D01*
G37*
%LPD*%
%LPC*%
G36*
X21089Y18862D02*
X21089Y18862D01*
X21477Y18862D01*
X21474Y18845D01*
X21450Y18771D01*
X21415Y18701D01*
X21369Y18638D01*
X21313Y18583D01*
X21250Y18537D01*
X21181Y18501D01*
X21106Y18477D01*
X21089Y18474D01*
X21089Y18862D01*
G37*
%LPD*%
%LPC*%
G36*
X19239Y17681D02*
X19239Y17681D01*
X19626Y17681D01*
X19624Y17664D01*
X19600Y17589D01*
X19564Y17520D01*
X19518Y17457D01*
X19463Y17401D01*
X19400Y17355D01*
X19330Y17320D01*
X19256Y17296D01*
X19239Y17293D01*
X19239Y17681D01*
G37*
%LPD*%
%LPC*%
G36*
X20503Y19060D02*
X20503Y19060D01*
X20506Y19077D01*
X20530Y19152D01*
X20565Y19221D01*
X20611Y19284D01*
X20667Y19340D01*
X20730Y19386D01*
X20799Y19421D01*
X20874Y19445D01*
X20891Y19448D01*
X20891Y19060D01*
X20503Y19060D01*
G37*
%LPD*%
%LPC*%
G36*
X18653Y17879D02*
X18653Y17879D01*
X18655Y17896D01*
X18680Y17971D01*
X18715Y18040D01*
X18761Y18103D01*
X18816Y18159D01*
X18879Y18205D01*
X18949Y18240D01*
X19023Y18264D01*
X19040Y18267D01*
X19040Y17879D01*
X18653Y17879D01*
G37*
%LPD*%
%LPC*%
G36*
X21089Y19060D02*
X21089Y19060D01*
X21089Y19448D01*
X21106Y19445D01*
X21181Y19421D01*
X21250Y19386D01*
X21313Y19340D01*
X21369Y19284D01*
X21415Y19221D01*
X21450Y19152D01*
X21474Y19077D01*
X21477Y19060D01*
X21089Y19060D01*
G37*
%LPD*%
%LPC*%
G36*
X19239Y17879D02*
X19239Y17879D01*
X19239Y18267D01*
X19256Y18264D01*
X19330Y18240D01*
X19400Y18205D01*
X19463Y18159D01*
X19518Y18103D01*
X19564Y18040D01*
X19600Y17971D01*
X19624Y17896D01*
X19626Y17879D01*
X19239Y17879D01*
G37*
%LPD*%
G36*
X7761Y4026D02*
X7761Y4026D01*
X7766Y4027D01*
X7767Y4027D01*
X7768Y4027D01*
X7773Y4029D01*
X7778Y4031D01*
X7779Y4031D01*
X7780Y4032D01*
X7784Y4035D01*
X7788Y4038D01*
X7789Y4039D01*
X7790Y4039D01*
X7793Y4043D01*
X7796Y4047D01*
X7797Y4048D01*
X7798Y4049D01*
X7800Y4053D01*
X7802Y4058D01*
X7802Y4059D01*
X7803Y4060D01*
X7804Y4065D01*
X7889Y4150D01*
X7892Y4154D01*
X7895Y4158D01*
X7896Y4159D01*
X7896Y4160D01*
X7898Y4165D01*
X7901Y4169D01*
X7901Y4170D01*
X7901Y4171D01*
X7902Y4176D01*
X7903Y4181D01*
X7903Y4182D01*
X7903Y4184D01*
X7903Y4189D01*
X7903Y4194D01*
X7902Y4195D01*
X7902Y4196D01*
X7900Y4201D01*
X7899Y4205D01*
X7898Y4206D01*
X7898Y4208D01*
X7891Y4218D01*
X7889Y4219D01*
X7889Y4220D01*
X7815Y4293D01*
X7815Y4305D01*
X7815Y4310D01*
X7814Y4315D01*
X7814Y4316D01*
X7814Y4317D01*
X7812Y4322D01*
X7810Y4327D01*
X7810Y4328D01*
X7809Y4329D01*
X7806Y4333D01*
X7803Y4337D01*
X7802Y4338D01*
X7802Y4339D01*
X7798Y4342D01*
X7794Y4345D01*
X7793Y4346D01*
X7792Y4347D01*
X7788Y4349D01*
X7783Y4351D01*
X7782Y4351D01*
X7781Y4352D01*
X7769Y4354D01*
X7767Y4354D01*
X7766Y4354D01*
X7653Y4354D01*
X7649Y4354D01*
X7645Y4354D01*
X7643Y4353D01*
X7641Y4353D01*
X7637Y4351D01*
X7633Y4350D01*
X7631Y4349D01*
X7629Y4348D01*
X7619Y4341D01*
X7619Y4340D01*
X7618Y4340D01*
X7500Y4222D01*
X7483Y4205D01*
X7480Y4201D01*
X7477Y4197D01*
X7476Y4196D01*
X7476Y4195D01*
X7474Y4190D01*
X7471Y4186D01*
X7471Y4185D01*
X7471Y4184D01*
X7470Y4179D01*
X7469Y4174D01*
X7469Y4173D01*
X7469Y4171D01*
X7469Y4166D01*
X7470Y4161D01*
X7470Y4160D01*
X7470Y4159D01*
X7472Y4154D01*
X7473Y4150D01*
X7474Y4149D01*
X7474Y4147D01*
X7481Y4137D01*
X7483Y4136D01*
X7483Y4135D01*
X7578Y4040D01*
X7582Y4038D01*
X7585Y4035D01*
X7586Y4034D01*
X7588Y4033D01*
X7592Y4031D01*
X7596Y4029D01*
X7597Y4029D01*
X7599Y4028D01*
X7612Y4026D01*
X7613Y4026D01*
X7756Y4026D01*
X7761Y4026D01*
G37*
G36*
X7761Y6066D02*
X7761Y6066D01*
X7766Y6067D01*
X7767Y6067D01*
X7768Y6067D01*
X7773Y6069D01*
X7778Y6071D01*
X7779Y6071D01*
X7780Y6072D01*
X7784Y6075D01*
X7788Y6078D01*
X7789Y6079D01*
X7790Y6079D01*
X7793Y6083D01*
X7796Y6087D01*
X7797Y6088D01*
X7798Y6089D01*
X7800Y6093D01*
X7802Y6098D01*
X7802Y6099D01*
X7803Y6100D01*
X7805Y6112D01*
X7805Y6114D01*
X7805Y6115D01*
X7805Y6117D01*
X7889Y6200D01*
X7892Y6204D01*
X7895Y6208D01*
X7895Y6209D01*
X7896Y6209D01*
X7896Y6210D01*
X7898Y6215D01*
X7901Y6219D01*
X7901Y6220D01*
X7901Y6221D01*
X7902Y6226D01*
X7903Y6231D01*
X7903Y6232D01*
X7903Y6234D01*
X7903Y6239D01*
X7903Y6244D01*
X7902Y6245D01*
X7902Y6246D01*
X7900Y6251D01*
X7899Y6255D01*
X7898Y6256D01*
X7898Y6258D01*
X7891Y6268D01*
X7889Y6269D01*
X7889Y6270D01*
X7804Y6354D01*
X7804Y6355D01*
X7804Y6356D01*
X7804Y6357D01*
X7802Y6362D01*
X7800Y6367D01*
X7800Y6368D01*
X7799Y6369D01*
X7796Y6373D01*
X7793Y6377D01*
X7792Y6378D01*
X7792Y6379D01*
X7788Y6382D01*
X7784Y6385D01*
X7783Y6386D01*
X7782Y6387D01*
X7778Y6389D01*
X7773Y6391D01*
X7772Y6391D01*
X7771Y6392D01*
X7759Y6394D01*
X7757Y6394D01*
X7756Y6394D01*
X7653Y6394D01*
X7649Y6394D01*
X7645Y6394D01*
X7643Y6393D01*
X7641Y6393D01*
X7637Y6391D01*
X7633Y6390D01*
X7631Y6389D01*
X7629Y6388D01*
X7619Y6381D01*
X7619Y6380D01*
X7618Y6380D01*
X7503Y6265D01*
X7500Y6261D01*
X7497Y6257D01*
X7496Y6256D01*
X7496Y6255D01*
X7494Y6250D01*
X7492Y6246D01*
X7491Y6245D01*
X7491Y6244D01*
X7490Y6239D01*
X7489Y6234D01*
X7489Y6233D01*
X7489Y6231D01*
X7489Y6226D01*
X7490Y6221D01*
X7490Y6220D01*
X7490Y6219D01*
X7492Y6214D01*
X7493Y6210D01*
X7494Y6209D01*
X7494Y6207D01*
X7501Y6197D01*
X7503Y6196D01*
X7503Y6195D01*
X7525Y6173D01*
X7618Y6080D01*
X7622Y6078D01*
X7625Y6075D01*
X7627Y6074D01*
X7628Y6073D01*
X7632Y6071D01*
X7636Y6069D01*
X7637Y6069D01*
X7639Y6068D01*
X7652Y6066D01*
X7653Y6066D01*
X7756Y6066D01*
X7761Y6066D01*
G37*
G36*
X7101Y4546D02*
X7101Y4546D01*
X7106Y4547D01*
X7107Y4547D01*
X7108Y4547D01*
X7113Y4549D01*
X7118Y4551D01*
X7119Y4551D01*
X7120Y4552D01*
X7124Y4555D01*
X7128Y4558D01*
X7129Y4559D01*
X7130Y4559D01*
X7133Y4563D01*
X7136Y4567D01*
X7137Y4568D01*
X7138Y4569D01*
X7140Y4573D01*
X7142Y4578D01*
X7142Y4579D01*
X7143Y4580D01*
X7145Y4592D01*
X7145Y4594D01*
X7145Y4595D01*
X7145Y4597D01*
X7224Y4675D01*
X7227Y4679D01*
X7230Y4683D01*
X7231Y4684D01*
X7231Y4685D01*
X7233Y4690D01*
X7236Y4694D01*
X7236Y4695D01*
X7236Y4696D01*
X7237Y4701D01*
X7238Y4706D01*
X7238Y4707D01*
X7238Y4709D01*
X7238Y4714D01*
X7238Y4719D01*
X7237Y4720D01*
X7237Y4721D01*
X7235Y4726D01*
X7234Y4730D01*
X7233Y4731D01*
X7233Y4733D01*
X7226Y4743D01*
X7224Y4744D01*
X7224Y4745D01*
X7145Y4823D01*
X7145Y4825D01*
X7145Y4830D01*
X7144Y4835D01*
X7144Y4836D01*
X7144Y4837D01*
X7142Y4842D01*
X7140Y4847D01*
X7140Y4848D01*
X7139Y4849D01*
X7136Y4853D01*
X7133Y4857D01*
X7132Y4858D01*
X7132Y4859D01*
X7128Y4862D01*
X7124Y4865D01*
X7123Y4866D01*
X7122Y4867D01*
X7118Y4869D01*
X7113Y4871D01*
X7112Y4871D01*
X7111Y4872D01*
X7099Y4874D01*
X7097Y4874D01*
X7096Y4874D01*
X7023Y4874D01*
X7019Y4874D01*
X7014Y4874D01*
X7013Y4873D01*
X7011Y4873D01*
X7007Y4871D01*
X7003Y4870D01*
X7001Y4869D01*
X6999Y4868D01*
X6989Y4861D01*
X6989Y4860D01*
X6988Y4860D01*
X6863Y4735D01*
X6860Y4731D01*
X6857Y4727D01*
X6856Y4726D01*
X6856Y4725D01*
X6854Y4721D01*
X6851Y4716D01*
X6851Y4715D01*
X6851Y4714D01*
X6850Y4709D01*
X6849Y4704D01*
X6849Y4703D01*
X6849Y4701D01*
X6849Y4696D01*
X6850Y4691D01*
X6850Y4690D01*
X6850Y4689D01*
X6852Y4684D01*
X6853Y4680D01*
X6854Y4679D01*
X6854Y4677D01*
X6861Y4667D01*
X6863Y4666D01*
X6863Y4665D01*
X6968Y4560D01*
X6972Y4558D01*
X6975Y4555D01*
X6977Y4554D01*
X6978Y4553D01*
X6982Y4551D01*
X6986Y4549D01*
X6987Y4549D01*
X6989Y4548D01*
X7002Y4546D01*
X7003Y4546D01*
X7096Y4546D01*
X7101Y4546D01*
G37*
G36*
X7761Y5071D02*
X7761Y5071D01*
X7766Y5072D01*
X7767Y5072D01*
X7768Y5072D01*
X7773Y5074D01*
X7778Y5076D01*
X7779Y5076D01*
X7780Y5077D01*
X7784Y5080D01*
X7788Y5083D01*
X7789Y5084D01*
X7790Y5084D01*
X7793Y5088D01*
X7796Y5092D01*
X7797Y5093D01*
X7798Y5094D01*
X7800Y5098D01*
X7802Y5103D01*
X7802Y5104D01*
X7884Y5185D01*
X7887Y5189D01*
X7890Y5193D01*
X7891Y5194D01*
X7891Y5195D01*
X7893Y5200D01*
X7896Y5204D01*
X7896Y5205D01*
X7896Y5206D01*
X7897Y5211D01*
X7898Y5216D01*
X7898Y5217D01*
X7898Y5219D01*
X7898Y5224D01*
X7898Y5229D01*
X7897Y5230D01*
X7897Y5231D01*
X7895Y5236D01*
X7894Y5240D01*
X7893Y5241D01*
X7893Y5243D01*
X7886Y5253D01*
X7884Y5254D01*
X7884Y5255D01*
X7802Y5337D01*
X7800Y5342D01*
X7800Y5343D01*
X7799Y5344D01*
X7796Y5348D01*
X7793Y5352D01*
X7792Y5353D01*
X7792Y5354D01*
X7788Y5357D01*
X7784Y5360D01*
X7783Y5361D01*
X7782Y5362D01*
X7778Y5364D01*
X7773Y5366D01*
X7772Y5366D01*
X7771Y5367D01*
X7759Y5369D01*
X7757Y5369D01*
X7756Y5369D01*
X7658Y5369D01*
X7654Y5369D01*
X7649Y5369D01*
X7648Y5368D01*
X7646Y5368D01*
X7642Y5366D01*
X7638Y5365D01*
X7636Y5364D01*
X7634Y5363D01*
X7624Y5356D01*
X7624Y5355D01*
X7623Y5355D01*
X7525Y5257D01*
X7513Y5245D01*
X7510Y5241D01*
X7507Y5237D01*
X7506Y5236D01*
X7506Y5235D01*
X7504Y5231D01*
X7501Y5226D01*
X7501Y5225D01*
X7501Y5224D01*
X7500Y5219D01*
X7499Y5214D01*
X7499Y5213D01*
X7499Y5211D01*
X7499Y5206D01*
X7500Y5201D01*
X7500Y5200D01*
X7500Y5199D01*
X7502Y5194D01*
X7503Y5190D01*
X7504Y5189D01*
X7504Y5187D01*
X7511Y5177D01*
X7513Y5176D01*
X7513Y5175D01*
X7603Y5085D01*
X7607Y5083D01*
X7610Y5080D01*
X7611Y5079D01*
X7613Y5078D01*
X7617Y5076D01*
X7621Y5074D01*
X7622Y5074D01*
X7624Y5073D01*
X7637Y5071D01*
X7638Y5071D01*
X7756Y5071D01*
X7761Y5071D01*
G37*
%LPC*%
G36*
X10082Y19306D02*
X10082Y19306D01*
X10014Y19328D01*
X9950Y19361D01*
X9893Y19403D01*
X9842Y19454D01*
X9800Y19511D01*
X9767Y19575D01*
X9745Y19643D01*
X9744Y19651D01*
X10090Y19651D01*
X10090Y19305D01*
X10082Y19306D01*
G37*
%LPD*%
%LPC*%
G36*
X17082Y19306D02*
X17082Y19306D01*
X17014Y19328D01*
X16950Y19361D01*
X16893Y19403D01*
X16842Y19454D01*
X16800Y19511D01*
X16767Y19575D01*
X16745Y19643D01*
X16744Y19651D01*
X17090Y19651D01*
X17090Y19305D01*
X17082Y19306D01*
G37*
%LPD*%
%LPC*%
G36*
X4512Y19306D02*
X4512Y19306D01*
X4444Y19328D01*
X4380Y19361D01*
X4323Y19403D01*
X4272Y19454D01*
X4230Y19511D01*
X4197Y19575D01*
X4175Y19643D01*
X4174Y19651D01*
X4520Y19651D01*
X4520Y19305D01*
X4512Y19306D01*
G37*
%LPD*%
%LPC*%
G36*
X4718Y19651D02*
X4718Y19651D01*
X5064Y19651D01*
X5063Y19643D01*
X5041Y19575D01*
X5008Y19511D01*
X4966Y19454D01*
X4915Y19403D01*
X4857Y19361D01*
X4794Y19328D01*
X4726Y19306D01*
X4718Y19305D01*
X4718Y19651D01*
G37*
%LPD*%
%LPC*%
G36*
X16744Y19849D02*
X16744Y19849D01*
X16745Y19857D01*
X16767Y19925D01*
X16800Y19989D01*
X16842Y20046D01*
X16893Y20097D01*
X16950Y20139D01*
X17014Y20172D01*
X17082Y20194D01*
X17090Y20195D01*
X17090Y19849D01*
X16744Y19849D01*
G37*
%LPD*%
%LPC*%
G36*
X10288Y19651D02*
X10288Y19651D01*
X10634Y19651D01*
X10633Y19643D01*
X10611Y19575D01*
X10578Y19511D01*
X10536Y19454D01*
X10485Y19403D01*
X10427Y19361D01*
X10364Y19328D01*
X10296Y19306D01*
X10288Y19305D01*
X10288Y19651D01*
G37*
%LPD*%
%LPC*%
G36*
X17288Y19651D02*
X17288Y19651D01*
X17634Y19651D01*
X17633Y19643D01*
X17611Y19575D01*
X17578Y19511D01*
X17536Y19454D01*
X17485Y19403D01*
X17427Y19361D01*
X17364Y19328D01*
X17296Y19306D01*
X17288Y19305D01*
X17288Y19651D01*
G37*
%LPD*%
%LPC*%
G36*
X9744Y19849D02*
X9744Y19849D01*
X9745Y19857D01*
X9767Y19925D01*
X9800Y19989D01*
X9842Y20046D01*
X9893Y20097D01*
X9950Y20139D01*
X10014Y20172D01*
X10082Y20194D01*
X10090Y20195D01*
X10090Y19849D01*
X9744Y19849D01*
G37*
%LPD*%
%LPC*%
G36*
X4174Y19849D02*
X4174Y19849D01*
X4175Y19857D01*
X4197Y19925D01*
X4230Y19989D01*
X4272Y20046D01*
X4323Y20097D01*
X4380Y20139D01*
X4444Y20172D01*
X4512Y20194D01*
X4520Y20195D01*
X4520Y19849D01*
X4174Y19849D01*
G37*
%LPD*%
%LPC*%
G36*
X10288Y19849D02*
X10288Y19849D01*
X10288Y20195D01*
X10296Y20194D01*
X10364Y20172D01*
X10427Y20139D01*
X10485Y20097D01*
X10536Y20046D01*
X10578Y19989D01*
X10611Y19925D01*
X10633Y19857D01*
X10634Y19849D01*
X10288Y19849D01*
G37*
%LPD*%
%LPC*%
G36*
X17288Y19849D02*
X17288Y19849D01*
X17288Y20195D01*
X17296Y20194D01*
X17364Y20172D01*
X17427Y20139D01*
X17485Y20097D01*
X17536Y20046D01*
X17578Y19989D01*
X17611Y19925D01*
X17633Y19857D01*
X17634Y19849D01*
X17288Y19849D01*
G37*
%LPD*%
%LPC*%
G36*
X4718Y19849D02*
X4718Y19849D01*
X4718Y20195D01*
X4726Y20194D01*
X4794Y20172D01*
X4857Y20139D01*
X4915Y20097D01*
X4966Y20046D01*
X5008Y19989D01*
X5041Y19925D01*
X5063Y19857D01*
X5064Y19849D01*
X4718Y19849D01*
G37*
%LPD*%
%LPC*%
G36*
X19139Y17779D02*
X19139Y17779D01*
X19139Y17781D01*
X19140Y17781D01*
X19140Y17779D01*
X19139Y17779D01*
G37*
%LPD*%
%LPC*%
G36*
X10188Y19749D02*
X10188Y19749D01*
X10188Y19751D01*
X10190Y19751D01*
X10190Y19749D01*
X10188Y19749D01*
G37*
%LPD*%
%LPC*%
G36*
X17188Y19749D02*
X17188Y19749D01*
X17188Y19751D01*
X17190Y19751D01*
X17190Y19749D01*
X17188Y19749D01*
G37*
%LPD*%
%LPC*%
G36*
X4618Y19749D02*
X4618Y19749D01*
X4618Y19751D01*
X4620Y19751D01*
X4620Y19749D01*
X4618Y19749D01*
G37*
%LPD*%
%LPC*%
G36*
X20989Y18960D02*
X20989Y18960D01*
X20989Y18962D01*
X20991Y18962D01*
X20991Y18960D01*
X20989Y18960D01*
G37*
%LPD*%
D10*
X19140Y17780D03*
X20990Y18961D03*
X20990Y16599D03*
D11*
X17500Y17500D03*
X16500Y17500D03*
X15500Y17500D03*
X5200Y17500D03*
X4200Y17500D03*
X3200Y17500D03*
X10400Y17500D03*
X9400Y17500D03*
X8400Y17500D03*
D12*
X17189Y19750D03*
X15811Y19750D03*
X4619Y19750D03*
X3241Y19750D03*
X10189Y19750D03*
X8811Y19750D03*
D13*
X500Y5000D03*
X500Y7500D03*
X500Y10000D03*
X500Y12500D03*
X500Y15000D03*
X740Y17500D03*
X2000Y21625D03*
X500Y19760D03*
X4500Y21625D03*
X7000Y21625D03*
X9500Y21625D03*
X12840Y21625D03*
X14500Y21625D03*
X17000Y21625D03*
X19500Y21625D03*
X22000Y21625D03*
X24500Y21625D03*
X25000Y19500D03*
X25120Y16640D03*
X25000Y14500D03*
X25000Y12000D03*
X25000Y9500D03*
X25000Y7000D03*
X25000Y4500D03*
X24880Y2120D03*
X24947Y250D03*
X23000Y-375D03*
X20500Y-375D03*
X18000Y-375D03*
X15500Y-375D03*
X13000Y-375D03*
X10500Y-375D03*
X8000Y-375D03*
X5500Y-375D03*
X3000Y-375D03*
X500Y125D03*
X740Y2500D03*
X16440Y15520D03*
X8900Y18100D03*
X17000Y18100D03*
X16000Y18100D03*
X16440Y15940D03*
X21500Y13750D03*
X21500Y14750D03*
X21500Y14250D03*
X19860Y13020D03*
X20400Y13020D03*
X19920Y15360D03*
X20400Y15360D03*
X22250Y17000D03*
X22250Y16500D03*
X22250Y16000D03*
X10800Y840D03*
X10920Y1200D03*
X10220Y3780D03*
X11460Y6610D03*
X12060Y3360D03*
X10800Y2820D03*
X12790Y2400D03*
X22560Y1320D03*
X21960Y1320D03*
X22800Y0D03*
X10020Y1440D03*
X12840Y3240D03*
X11460Y4080D03*
X4500Y3900D03*
X4500Y5000D03*
X4500Y6000D03*
X4500Y7100D03*
X8940Y16140D03*
X13500Y20500D03*
X13500Y20000D03*
X11640Y15000D03*
X11650Y14560D03*
X7750Y20500D03*
X7750Y20000D03*
X10200Y10920D03*
X9900Y18100D03*
X10140Y6000D03*
X10200Y4800D03*
X11940Y4080D03*
X11940Y6610D03*
X5970Y16000D03*
X24000Y14750D03*
X24000Y14250D03*
X24000Y13750D03*
X17950Y16240D03*
X18430Y16120D03*
X18430Y15400D03*
X18910Y15400D03*
X18430Y15760D03*
X3700Y18100D03*
X4700Y18100D03*
X16680Y14460D03*
X16320Y14760D03*
X21780Y0D03*
X6750Y10250D03*
X2340Y9960D03*
X10800Y10920D03*
X12660Y15920D03*
X12660Y15560D03*
X11100Y16260D03*
X1740Y14820D03*
X1740Y14340D03*
X7680Y4190D03*
X7030Y4710D03*
X7680Y5220D03*
X7680Y6230D03*
X3180Y10920D03*
X3780Y10920D03*
X12250Y18500D03*
X13500Y19500D03*
X12750Y18500D03*
X6500Y18500D03*
X7000Y18500D03*
X7720Y19455D03*
X2940Y1320D03*
X3540Y1320D03*
X8000Y1365D03*
X8540Y1365D03*
X8960Y1365D03*
X7580Y1365D03*
X5940Y1380D03*
X6540Y1380D03*
X10620Y1440D03*
X13020Y1380D03*
X13620Y1380D03*
X15960Y1380D03*
X16560Y1380D03*
X18000Y1320D03*
X18600Y1320D03*
X19980Y1440D03*
X20580Y1440D03*
X8900Y16900D03*
X9900Y16900D03*
X3700Y16900D03*
X4700Y16900D03*
X16000Y16900D03*
X17000Y16900D03*
X10870Y14020D03*
X13800Y2760D03*
X11760Y2640D03*
X15500Y13875D03*
X14250Y12625D03*
X15500Y11375D03*
X14250Y10125D03*
X15500Y8875D03*
X14250Y7625D03*
X14250Y5125D03*
X15500Y6375D03*
X15500Y3875D03*
X16750Y5125D03*
X16750Y7625D03*
X16750Y10125D03*
X18000Y8875D03*
X19250Y7625D03*
X20500Y6375D03*
X19250Y5125D03*
X18000Y6375D03*
X20500Y3875D03*
X20500Y8875D03*
X19250Y10125D03*
X15500Y5125D03*
X16750Y6375D03*
X18000Y5125D03*
X19250Y6375D03*
X18000Y7625D03*
X20500Y7625D03*
X19250Y8875D03*
X18000Y10125D03*
X16750Y8875D03*
X15500Y7625D03*
X14250Y6375D03*
X13000Y6375D03*
X13000Y7625D03*
X13000Y8875D03*
X14250Y11375D03*
X13000Y11375D03*
X13000Y12625D03*
X13000Y13875D03*
X14250Y13875D03*
X15500Y12625D03*
X15500Y10125D03*
X14250Y8875D03*
X13000Y10125D03*
X11750Y10125D03*
X11750Y11375D03*
X11750Y12625D03*
X11750Y13875D03*
X11750Y8875D03*
X11750Y7625D03*
X13000Y5125D03*
X14250Y3875D03*
X16750Y3875D03*
X18000Y3875D03*
X19250Y3875D03*
X20500Y5125D03*
X21750Y5125D03*
X21750Y6375D03*
X21750Y7625D03*
X21750Y8875D03*
X21750Y10125D03*
X21750Y11375D03*
X20500Y11375D03*
X20500Y10125D03*
X23000Y7625D03*
X23000Y8875D03*
X24250Y8875D03*
X24250Y7625D03*
X24250Y6375D03*
X24250Y5125D03*
X24250Y3875D03*
X23000Y5125D03*
X23000Y6375D03*
X23000Y3875D03*
X21750Y3875D03*
X24250Y125D03*
X23000Y2625D03*
X21750Y2625D03*
X10500Y10125D03*
X10500Y8875D03*
X9250Y8875D03*
X9250Y10125D03*
X9250Y11375D03*
X9250Y12625D03*
X8000Y12625D03*
X6750Y12625D03*
X5500Y12875D03*
X4250Y11375D03*
X8000Y13875D03*
X6750Y13875D03*
X8000Y11375D03*
X6750Y11375D03*
X5500Y11625D03*
X8000Y10125D03*
X8000Y8875D03*
X8000Y7625D03*
X9250Y7625D03*
X10500Y7625D03*
X6750Y7625D03*
X6750Y8875D03*
X4250Y12625D03*
X1750Y12625D03*
X1750Y11375D03*
X1750Y10125D03*
X1750Y8875D03*
X1750Y7625D03*
X1750Y6375D03*
X1750Y5125D03*
X1750Y3875D03*
X1750Y2625D03*
X3000Y3875D03*
X4250Y9125D03*
X5500Y3875D03*
X6750Y3875D03*
X1750Y16250D03*
X1750Y17500D03*
X3000Y21250D03*
X14250Y15125D03*
X13000Y15125D03*
X14250Y18875D03*
X14250Y20125D03*
X15500Y21375D03*
X18000Y21375D03*
X19250Y20125D03*
X18000Y18875D03*
X19250Y16375D03*
X21750Y17625D03*
X21750Y18875D03*
X21750Y20125D03*
X23000Y21375D03*
X24250Y15125D03*
X24250Y12625D03*
X24250Y11375D03*
X23000Y11375D03*
X21750Y12625D03*
X20500Y12625D03*
X19250Y11375D03*
X19250Y12625D03*
X12375Y14500D03*
X12375Y13250D03*
X12375Y12000D03*
X12375Y10750D03*
X12375Y9500D03*
X12375Y8250D03*
X12375Y7000D03*
X13000Y5750D03*
X13000Y4500D03*
X13000Y7000D03*
X12375Y7625D03*
X11125Y7625D03*
X12375Y8875D03*
X12375Y10125D03*
X12375Y11375D03*
X12375Y12625D03*
X12375Y13875D03*
X13625Y3875D03*
X14250Y3250D03*
X13625Y4500D03*
X14875Y3250D03*
X1750Y7000D03*
X1750Y5750D03*
X1750Y4500D03*
X1750Y3250D03*
X2375Y8250D03*
X2375Y7625D03*
X2375Y7000D03*
X2375Y6375D03*
X2375Y5750D03*
X2375Y5125D03*
X2375Y4500D03*
X2375Y3875D03*
X3000Y8250D03*
X2375Y9500D03*
X2375Y8875D03*
X1750Y8250D03*
X2375Y10750D03*
X4250Y10750D03*
X4875Y10750D03*
X5000Y11500D03*
X5500Y11000D03*
X3125Y10375D03*
X6100Y8250D03*
X6750Y6000D03*
X6750Y7000D03*
X6100Y9200D03*
X6750Y8250D03*
X6750Y9750D03*
X7375Y7000D03*
X7375Y7625D03*
X8000Y7000D03*
X8625Y7000D03*
X8625Y7625D03*
X9250Y7000D03*
X9875Y7625D03*
X3625Y3250D03*
X4250Y3250D03*
X4875Y3250D03*
X5500Y3250D03*
X6125Y3250D03*
X6750Y3250D03*
X7375Y3250D03*
X8000Y3250D03*
X8625Y3250D03*
X9250Y3250D03*
X3000Y3250D03*
X2375Y3250D03*
X3625Y3875D03*
X6125Y3875D03*
X4875Y9125D03*
X4250Y8500D03*
X4875Y8500D03*
X6340Y5300D03*
X3775Y8250D03*
X6125Y13250D03*
X7375Y13250D03*
X4875Y12000D03*
X2375Y12000D03*
X1750Y13250D03*
X2375Y12625D03*
X1750Y12000D03*
X2375Y11375D03*
X1750Y18250D03*
X13625Y14500D03*
X13625Y13250D03*
X13625Y12000D03*
X13625Y10750D03*
X13000Y10750D03*
X13000Y12000D03*
X13000Y13250D03*
X13000Y14500D03*
X13000Y9500D03*
X18625Y20750D03*
X18625Y19500D03*
X19875Y16375D03*
X21305Y15330D03*
X21750Y17000D03*
X21750Y15750D03*
X19250Y15750D03*
X19875Y17625D03*
X14875Y4500D03*
X16125Y3250D03*
X17375Y3250D03*
X18625Y3250D03*
X19875Y3250D03*
X21125Y3250D03*
X21750Y3250D03*
X22375Y3250D03*
X20500Y3250D03*
X19250Y3250D03*
X18000Y3250D03*
X16750Y3250D03*
X15500Y3250D03*
X24875Y6375D03*
X19875Y10750D03*
X18625Y10750D03*
X17375Y10750D03*
X16125Y10750D03*
X14875Y12000D03*
X19875Y8250D03*
X19875Y7000D03*
X19875Y6375D03*
X19875Y7625D03*
X19875Y5750D03*
X19875Y5125D03*
X19875Y4500D03*
X19875Y3875D03*
X19875Y9500D03*
X1125Y4500D03*
X1125Y3250D03*
X1125Y5750D03*
X1125Y7000D03*
X1125Y8250D03*
X1125Y9500D03*
X1125Y10750D03*
X1125Y12000D03*
X2375Y15750D03*
X13625Y5125D03*
X14250Y4500D03*
X14875Y3875D03*
X13625Y5750D03*
X13625Y6375D03*
X13625Y7000D03*
X13000Y8250D03*
X5500Y12250D03*
X6125Y11375D03*
X6125Y12000D03*
X6125Y12625D03*
X6125Y13875D03*
X6750Y10750D03*
X6750Y13250D03*
X6750Y12000D03*
X14875Y10750D03*
X16125Y9500D03*
X20500Y4500D03*
X20500Y5750D03*
X20500Y8250D03*
X20500Y7000D03*
X8000Y12000D03*
X8000Y10750D03*
X8000Y9500D03*
X8000Y8250D03*
X8625Y12625D03*
X8625Y12000D03*
X8625Y11375D03*
X8625Y10750D03*
X8625Y10125D03*
X8000Y13250D03*
X8625Y8875D03*
X8625Y9500D03*
X8625Y8250D03*
X19875Y10125D03*
X19250Y10750D03*
X20500Y9500D03*
X18625Y11375D03*
X16125Y11375D03*
X15500Y12000D03*
X14875Y12625D03*
X14250Y13250D03*
X13625Y13875D03*
X18000Y10750D03*
X16750Y10750D03*
X1750Y10750D03*
X1750Y9500D03*
X1750Y125D03*
X2375Y125D03*
X2375Y750D03*
X1125Y125D03*
X19875Y19500D03*
X19875Y20750D03*
X20625Y21250D03*
X20625Y20250D03*
X18375Y18250D03*
X19250Y18875D03*
X19875Y18250D03*
X5430Y10450D03*
X5910Y10450D03*
X10800Y3240D03*
X10020Y4440D03*
D14*
X10340Y3240D02*
X10800Y3240D01*
X10340Y3240D02*
X9970Y3610D01*
X9970Y4390D01*
X10020Y4440D01*
D13*
X12790Y2820D03*
X10020Y5160D03*
D14*
X12197Y2820D02*
X12790Y2820D01*
X12197Y2820D02*
X10424Y4593D01*
X10424Y4893D02*
X10217Y5100D01*
X10080Y5100D01*
X10020Y5160D01*
X10424Y4893D02*
X10424Y4593D01*
D13*
X9720Y6000D03*
D14*
X12420Y4740D02*
X12420Y3240D01*
X12420Y4740D02*
X11670Y5490D01*
X10230Y5490D01*
X9720Y6000D01*
D13*
X12420Y3240D03*
X22000Y14750D03*
X22000Y13750D03*
X23500Y14750D03*
X19620Y13380D03*
X20160Y13380D03*
X20640Y13380D03*
X22690Y15750D03*
X22690Y16250D03*
X22690Y16750D03*
X22690Y17250D03*
X23500Y13750D03*
X22000Y14250D03*
X23500Y14250D03*
X22740Y960D03*
X22800Y420D03*
X22260Y1070D03*
X21780Y960D03*
X21780Y420D03*
X12300Y15380D03*
X12300Y16120D03*
X12300Y15740D03*
X2040Y14580D03*
X2100Y15000D03*
X2100Y14160D03*
X10920Y11280D03*
X12060Y4440D03*
X11340Y4440D03*
X11700Y4440D03*
X11340Y6240D03*
X11700Y6240D03*
X12060Y6240D03*
X13000Y19750D03*
X13000Y20250D03*
X13000Y20750D03*
X10500Y11160D03*
X10080Y11280D03*
X12000Y19000D03*
X12500Y19000D03*
X13000Y19000D03*
X8000Y4370D03*
X4300Y4200D03*
D15*
X7925Y4445D02*
X8000Y4370D01*
X7925Y4445D02*
X7595Y4445D01*
X7395Y4245D01*
X6155Y4245D01*
X4600Y4720D02*
X4430Y4550D01*
X5680Y4720D02*
X6155Y4245D01*
X5680Y4720D02*
X4600Y4720D01*
X4430Y4330D02*
X4300Y4200D01*
X4430Y4330D02*
X4430Y4550D01*
D13*
X7990Y3990D03*
X4700Y4200D03*
D15*
X7935Y3935D02*
X7990Y3990D01*
X7935Y3935D02*
X7555Y3935D01*
X7375Y4115D01*
X6115Y4115D01*
X5630Y4600D02*
X4650Y4600D01*
X4550Y4500D01*
X5630Y4600D02*
X6115Y4115D01*
X4550Y4350D02*
X4550Y4500D01*
X4550Y4350D02*
X4700Y4200D01*
D13*
X7330Y4900D03*
X4300Y5300D03*
D15*
X7330Y4965D02*
X7330Y4900D01*
X7330Y4965D02*
X6965Y4965D01*
X6775Y4775D01*
X6475Y4775D02*
X5465Y5785D01*
X6475Y4775D02*
X6775Y4775D01*
X5465Y5785D02*
X4615Y5785D01*
X4430Y5600D01*
X4430Y5430D02*
X4300Y5300D01*
X4430Y5430D02*
X4430Y5600D01*
D13*
X7330Y4520D03*
X4700Y5300D03*
D15*
X7300Y4490D02*
X7330Y4520D01*
X7300Y4490D02*
X7335Y4455D01*
X6945Y4455D01*
X6755Y4645D01*
X6435Y4645D02*
X5415Y5665D01*
X6435Y4645D02*
X6755Y4645D01*
X5415Y5665D02*
X4665Y5665D01*
X4550Y5550D01*
X4550Y5450D02*
X4700Y5300D01*
X4550Y5450D02*
X4550Y5550D01*
D13*
X7990Y5410D03*
X4300Y6300D03*
D15*
X7940Y5460D02*
X7990Y5410D01*
X7940Y5460D02*
X7600Y5460D01*
X7420Y5280D01*
X7120Y5280D01*
X5580Y6820D01*
X4650Y6820D02*
X4430Y6600D01*
X4650Y6820D02*
X5580Y6820D01*
X4430Y6430D02*
X4300Y6300D01*
X4430Y6430D02*
X4430Y6600D01*
D13*
X7990Y5030D03*
X4700Y6300D03*
D15*
X7940Y4980D02*
X7990Y5030D01*
X7940Y4980D02*
X7580Y4980D01*
X7400Y5160D01*
X7070Y5160D01*
X5530Y6700D01*
X4550Y6550D02*
X4550Y6450D01*
X4550Y6550D02*
X4700Y6700D01*
X5530Y6700D01*
X4700Y6300D02*
X4550Y6450D01*
D13*
X11280Y1320D03*
X10680Y3720D03*
D14*
X11040Y3360D01*
X11040Y1560D01*
X11280Y1320D01*
D13*
X7990Y6040D03*
D15*
X7925Y5975D01*
X7595Y5975D01*
X7420Y6150D01*
D13*
X4700Y7400D03*
D15*
X6980Y6150D02*
X7420Y6150D01*
X5280Y7850D02*
X4800Y7850D01*
X4550Y7600D01*
X5280Y7850D02*
X6980Y6150D01*
X4700Y7400D02*
X4550Y7550D01*
X4550Y7600D01*
D13*
X7990Y6430D03*
D15*
X7935Y6485D01*
X7595Y6485D01*
X7410Y6300D01*
D13*
X4300Y7400D03*
D15*
X7000Y6300D02*
X7410Y6300D01*
X4750Y7970D02*
X4430Y7650D01*
X5330Y7970D02*
X7000Y6300D01*
X5330Y7970D02*
X4750Y7970D01*
X4430Y7530D02*
X4300Y7400D01*
X4430Y7530D02*
X4430Y7650D01*
D13*
X3060Y11280D03*
X3480Y11160D03*
X3880Y11280D03*
X4950Y9960D03*
X6330Y9960D03*
X5190Y10200D03*
X6150Y10200D03*
X7250Y20750D03*
X7250Y20250D03*
X6250Y19000D03*
X6750Y19000D03*
X7250Y19000D03*
X7250Y19750D03*
X5670Y10200D03*
X10980Y15900D03*
X10860Y14400D03*
X11280Y14580D03*
X11340Y15300D03*
X19680Y14940D03*
X20160Y14940D03*
X20640Y14940D03*
X18310Y14920D03*
X18670Y15100D03*
X19030Y14920D03*
X17950Y15220D03*
X17950Y15760D03*
X17640Y14820D03*
X17340Y14400D03*
X17880Y14400D03*
X17100Y14820D03*
X16030Y16180D03*
X16030Y15760D03*
X16010Y15340D03*
X5520Y16010D03*
X9360Y16140D03*
X8940Y15780D03*
X10800Y360D03*
X3240Y1680D03*
X2820Y1740D03*
X3660Y1740D03*
X17880Y1680D03*
X18300Y1560D03*
X18720Y1680D03*
X15840Y1020D03*
X16260Y1080D03*
X16680Y1020D03*
X5820Y960D03*
X6240Y1080D03*
X6720Y960D03*
X9840Y1800D03*
X10320Y1680D03*
X10740Y1800D03*
X7860Y1800D03*
X8280Y1680D03*
X8700Y1800D03*
X19860Y1020D03*
X20280Y1140D03*
X20700Y1020D03*
X7800Y960D03*
X8280Y1080D03*
X8760Y960D03*
X12840Y1020D03*
X13320Y1080D03*
X13740Y1020D03*
X11760Y2220D03*
X13800Y2340D03*
D16*
X-4134Y-394D02*
X-4132Y-428D01*
X-4128Y-462D01*
X-4120Y-496D01*
X-4110Y-528D01*
X-4097Y-560D01*
X-4081Y-591D01*
X-4063Y-620D01*
X-4042Y-647D01*
X-4019Y-672D01*
X-3993Y-695D01*
X-3966Y-716D01*
X-3937Y-735D01*
X-3907Y-751D01*
X-3875Y-764D01*
X-3842Y-774D01*
X-3809Y-781D01*
X-3774Y-786D01*
X-3740Y-787D01*
X-1575Y-787D01*
X-1540Y-786D01*
X-1506Y-781D01*
X-1473Y-774D01*
X-1440Y-764D01*
X-1408Y-751D01*
X-1378Y-735D01*
X-1349Y-716D01*
X-1322Y-695D01*
X-1296Y-672D01*
X-1273Y-647D01*
X-1252Y-620D01*
X-1234Y-591D01*
X-1218Y-560D01*
X-1205Y-528D01*
X-1195Y-496D01*
X-1187Y-462D01*
X-1183Y-428D01*
X-1181Y-394D01*
X-1181Y2165D01*
X-1180Y2200D01*
X-1175Y2234D01*
X-1168Y2267D01*
X-1157Y2300D01*
X-1144Y2332D01*
X-1128Y2362D01*
X-1110Y2391D01*
X-1089Y2418D01*
X-1066Y2444D01*
X-1040Y2467D01*
X-1013Y2488D01*
X-984Y2506D01*
X-954Y2522D01*
X-922Y2535D01*
X-889Y2546D01*
X-856Y2553D01*
X-822Y2558D01*
X-787Y2559D01*
X-394Y2559D01*
X-359Y2558D01*
X-325Y2553D01*
X-292Y2546D01*
X-259Y2535D01*
X-227Y2522D01*
X-197Y2506D01*
X-168Y2488D01*
X-141Y2467D01*
X-115Y2444D01*
X-92Y2418D01*
X-71Y2391D01*
X-53Y2362D01*
X-37Y2332D01*
X-24Y2300D01*
X-13Y2267D01*
X-6Y2234D01*
X-1Y2200D01*
X0Y2165D01*
X0Y394D01*
X4Y291D01*
X18Y189D01*
X40Y88D01*
X71Y-10D01*
X111Y-105D01*
X158Y-197D01*
X214Y-284D01*
X276Y-365D01*
X346Y-441D01*
X422Y-511D01*
X504Y-574D01*
X591Y-629D01*
X682Y-677D01*
X777Y-716D01*
X875Y-747D01*
X976Y-769D01*
X1078Y-783D01*
X1181Y-787D01*
X24409Y-787D01*
X24512Y-783D01*
X24615Y-769D01*
X24715Y-747D01*
X24813Y-716D01*
X24909Y-677D01*
X25000Y-629D01*
X25087Y-574D01*
X25169Y-511D01*
X25245Y-441D01*
X25314Y-365D01*
X25377Y-284D01*
X25432Y-197D01*
X25480Y-105D01*
X25519Y-10D01*
X25550Y88D01*
X25573Y189D01*
X25586Y291D01*
X25591Y394D01*
X25591Y2165D01*
X25592Y2200D01*
X25597Y2234D01*
X25604Y2267D01*
X25614Y2300D01*
X25627Y2332D01*
X25643Y2362D01*
X25662Y2391D01*
X25683Y2418D01*
X25706Y2444D01*
X25731Y2467D01*
X25758Y2488D01*
X25787Y2506D01*
X25818Y2522D01*
X25850Y2535D01*
X25882Y2546D01*
X25916Y2553D01*
X25950Y2558D01*
X25984Y2559D01*
X26378Y2559D01*
X26412Y2558D01*
X26446Y2553D01*
X26480Y2546D01*
X26513Y2535D01*
X26544Y2522D01*
X26575Y2506D01*
X26604Y2488D01*
X26631Y2467D01*
X26656Y2444D01*
X26680Y2418D01*
X26700Y2391D01*
X26719Y2362D01*
X26735Y2332D01*
X26748Y2300D01*
X26758Y2267D01*
X26766Y2234D01*
X26770Y2200D01*
X26772Y2165D01*
X26772Y-394D01*
X26773Y-428D01*
X26778Y-462D01*
X26785Y-496D01*
X26795Y-528D01*
X26809Y-560D01*
X26824Y-591D01*
X26843Y-620D01*
X26864Y-647D01*
X26887Y-672D01*
X26912Y-695D01*
X26940Y-716D01*
X26969Y-735D01*
X26999Y-751D01*
X27031Y-764D01*
X27063Y-774D01*
X27097Y-781D01*
X27131Y-786D01*
X27165Y-787D01*
X29331Y-787D01*
X29365Y-786D01*
X29399Y-781D01*
X29433Y-774D01*
X29465Y-764D01*
X29497Y-751D01*
X29528Y-735D01*
X29557Y-716D01*
X29584Y-695D01*
X29609Y-672D01*
X29632Y-647D01*
X29653Y-620D01*
X29672Y-591D01*
X29688Y-560D01*
X29701Y-528D01*
X29711Y-496D01*
X29718Y-462D01*
X29723Y-428D01*
X29724Y-394D01*
X29724Y21654D01*
X29723Y21688D01*
X29718Y21722D01*
X29711Y21755D01*
X29701Y21788D01*
X29688Y21820D01*
X29672Y21850D01*
X29653Y21879D01*
X29632Y21907D01*
X29609Y21932D01*
X29584Y21955D01*
X29557Y21976D01*
X29528Y21994D01*
X29497Y22010D01*
X29465Y22024D01*
X29433Y22034D01*
X29399Y22041D01*
X29365Y22046D01*
X29331Y22047D01*
X27165Y22047D01*
X27131Y22046D01*
X27097Y22041D01*
X27063Y22034D01*
X27031Y22024D01*
X26999Y22010D01*
X26969Y21994D01*
X26940Y21976D01*
X26912Y21955D01*
X26887Y21932D01*
X26864Y21907D01*
X26843Y21879D01*
X26824Y21850D01*
X26809Y21820D01*
X26795Y21788D01*
X26785Y21755D01*
X26778Y21722D01*
X26773Y21688D01*
X26772Y21654D01*
X26772Y19094D01*
X26770Y19060D01*
X26766Y19026D01*
X26758Y18993D01*
X26748Y18960D01*
X26735Y18928D01*
X26719Y18898D01*
X26700Y18869D01*
X26680Y18841D01*
X26656Y18816D01*
X26631Y18793D01*
X26604Y18772D01*
X26575Y18754D01*
X26544Y18738D01*
X26513Y18725D01*
X26480Y18714D01*
X26446Y18707D01*
X26412Y18702D01*
X26378Y18701D01*
X25984Y18701D01*
X25950Y18702D01*
X25916Y18707D01*
X25882Y18714D01*
X25850Y18725D01*
X25818Y18738D01*
X25787Y18754D01*
X25758Y18772D01*
X25731Y18793D01*
X25706Y18816D01*
X25683Y18841D01*
X25662Y18869D01*
X25643Y18898D01*
X25627Y18928D01*
X25614Y18960D01*
X25604Y18993D01*
X25597Y19026D01*
X25592Y19060D01*
X25591Y19094D01*
X25591Y20866D01*
X25586Y20969D01*
X25573Y21071D01*
X25550Y21172D01*
X25519Y21270D01*
X25480Y21365D01*
X25432Y21457D01*
X25377Y21544D01*
X25314Y21625D01*
X25245Y21701D01*
X25169Y21771D01*
X25087Y21834D01*
X25000Y21889D01*
X24909Y21937D01*
X24813Y21976D01*
X24715Y22007D01*
X24615Y22029D01*
X24512Y22043D01*
X24409Y22047D01*
X1181Y22047D01*
X1078Y22043D01*
X976Y22029D01*
X875Y22007D01*
X777Y21976D01*
X682Y21937D01*
X591Y21889D01*
X504Y21834D01*
X422Y21771D01*
X346Y21701D01*
X276Y21625D01*
X214Y21544D01*
X158Y21457D01*
X111Y21365D01*
X71Y21270D01*
X40Y21172D01*
X18Y21071D01*
X4Y20969D01*
X0Y20866D01*
X0Y19094D01*
X-1Y19060D01*
X-6Y19026D01*
X-13Y18993D01*
X-24Y18960D01*
X-37Y18928D01*
X-53Y18898D01*
X-71Y18869D01*
X-92Y18841D01*
X-115Y18816D01*
X-141Y18793D01*
X-168Y18772D01*
X-197Y18754D01*
X-227Y18738D01*
X-259Y18725D01*
X-292Y18714D01*
X-325Y18707D01*
X-359Y18702D01*
X-394Y18701D01*
X-787Y18701D01*
X-822Y18702D01*
X-856Y18707D01*
X-889Y18714D01*
X-922Y18725D01*
X-954Y18738D01*
X-984Y18754D01*
X-1013Y18772D01*
X-1040Y18793D01*
X-1066Y18816D01*
X-1089Y18841D01*
X-1110Y18869D01*
X-1128Y18898D01*
X-1144Y18928D01*
X-1157Y18960D01*
X-1168Y18993D01*
X-1175Y19026D01*
X-1180Y19060D01*
X-1181Y19094D01*
X-1181Y21654D01*
X-1183Y21688D01*
X-1187Y21722D01*
X-1195Y21755D01*
X-1205Y21788D01*
X-1218Y21820D01*
X-1234Y21850D01*
X-1252Y21879D01*
X-1273Y21907D01*
X-1296Y21932D01*
X-1322Y21955D01*
X-1349Y21976D01*
X-1378Y21994D01*
X-1408Y22010D01*
X-1440Y22024D01*
X-1473Y22034D01*
X-1506Y22041D01*
X-1540Y22046D01*
X-1575Y22047D01*
X-3740Y22047D01*
X-3774Y22046D01*
X-3809Y22041D01*
X-3842Y22034D01*
X-3875Y22024D01*
X-3907Y22010D01*
X-3937Y21994D01*
X-3966Y21976D01*
X-3993Y21955D01*
X-4019Y21932D01*
X-4042Y21907D01*
X-4063Y21879D01*
X-4081Y21850D01*
X-4097Y21820D01*
X-4110Y21788D01*
X-4120Y21755D01*
X-4128Y21722D01*
X-4132Y21688D01*
X-4134Y21654D01*
X-4134Y-394D01*
M02*
