G04 EAGLE Gerber RS-274X export*
G75*
%MOIN*%
%FSLAX34Y34*%
%LPD*%
%INSilkscreen Top*%
%IPPOS*%
%AMOC8*
5,1,8,0,0,1.08239X$1,22.5*%
G01*
%ADD10C,0.023000*%
%ADD11C,0.008000*%
%ADD12C,0.006000*%
%ADD13R,0.080000X0.567500*%
%ADD14C,0.005000*%
%ADD15R,0.004000X0.001000*%
%ADD16R,0.005000X0.001000*%
%ADD17R,0.006000X0.001000*%
%ADD18R,0.007000X0.001000*%
%ADD19R,0.008000X0.001000*%
%ADD20R,0.009000X0.001000*%
%ADD21R,0.010000X0.001000*%
%ADD22R,0.011000X0.001000*%
%ADD23R,0.003000X0.001000*%
%ADD24R,0.012000X0.001000*%
%ADD25R,0.014000X0.001000*%
%ADD26R,0.015000X0.001000*%
%ADD27R,0.016000X0.001000*%
%ADD28R,0.020000X0.001000*%
%ADD29R,0.038000X0.001000*%
%ADD30R,0.039000X0.001000*%
%ADD31R,0.040000X0.001000*%
%ADD32R,0.042000X0.001000*%
%ADD33R,0.033000X0.001000*%
%ADD34R,0.029000X0.001000*%
%ADD35R,0.021000X0.001000*%
%ADD36R,0.018000X0.001000*%
%ADD37R,0.013000X0.001000*%
%ADD38R,0.017000X0.001000*%
%ADD39R,0.019000X0.001000*%
%ADD40R,0.023000X0.001000*%
%ADD41R,0.002000X0.001000*%
%ADD42R,0.025000X0.001000*%
%ADD43R,0.036000X0.001000*%
%ADD44R,0.022000X0.001000*%
%ADD45R,0.030000X0.001000*%
%ADD46R,0.045000X0.001000*%
%ADD47R,0.050000X0.001000*%
%ADD48R,0.055000X0.001000*%
%ADD49R,0.061000X0.001000*%
%ADD50R,0.066000X0.001000*%
%ADD51R,0.071000X0.001000*%
%ADD52R,0.075000X0.001000*%
%ADD53R,0.081000X0.001000*%
%ADD54R,0.086000X0.001000*%
%ADD55R,0.091000X0.001000*%
%ADD56R,0.024000X0.001000*%
%ADD57R,0.100000X0.001000*%
%ADD58R,0.026000X0.001000*%
%ADD59R,0.111000X0.001000*%
%ADD60R,0.027000X0.001000*%
%ADD61R,0.127000X0.001000*%
%ADD62R,0.034000X0.001000*%
%ADD63R,0.092000X0.001000*%
%ADD64R,0.041000X0.001000*%
%ADD65R,0.107000X0.001000*%
%ADD66R,0.046000X0.001000*%
%ADD67R,0.160000X0.001000*%
%ADD68R,0.158000X0.001000*%
%ADD69R,0.116000X0.001000*%
%ADD70R,0.082000X0.001000*%
%ADD71R,0.051000X0.001000*%
%ADD72R,0.191000X0.001000*%
%ADD73R,0.053000X0.001000*%
%ADD74R,0.043000X0.001000*%
%ADD75R,0.189000X0.001000*%
%ADD76R,0.044000X0.001000*%
%ADD77R,0.087000X0.001000*%
%ADD78R,0.078000X0.001000*%
%ADD79R,0.080000X0.001000*%
%ADD80R,0.032000X0.001000*%
%ADD81R,0.031000X0.001000*%
%ADD82R,0.076000X0.001000*%
%ADD83R,0.028000X0.001000*%
%ADD84R,0.037000X0.001000*%
%ADD85R,0.067000X0.001000*%
%ADD86R,0.062000X0.001000*%
%ADD87R,0.057000X0.001000*%
%ADD88R,0.001000X0.001000*%
%ADD89R,0.052000X0.001000*%
%ADD90R,0.009843X0.009843*%
%ADD91C,0.010000*%
%ADD92R,0.118000X0.001000*%
%ADD93R,0.085000X0.001000*%
%ADD94R,0.108000X0.001000*%
%ADD95R,0.106000X0.001000*%
%ADD96R,0.105000X0.001000*%
%ADD97R,0.104000X0.001000*%
%ADD98R,0.102000X0.001000*%
%ADD99R,0.101000X0.001000*%
%ADD100R,0.099000X0.001000*%
%ADD101R,0.096000X0.001000*%
%ADD102R,0.098000X0.001000*%
%ADD103R,0.103000X0.001000*%
%ADD104R,0.129000X0.001000*%
%ADD105R,0.132000X0.001000*%
%ADD106R,0.094000X0.001000*%
%ADD107R,0.097000X0.001000*%
%ADD108R,0.110000X0.001000*%
%ADD109R,0.114000X0.001000*%
%ADD110R,0.117000X0.001000*%
%ADD111R,0.119000X0.001000*%
%ADD112R,0.121000X0.001000*%
%ADD113R,0.123000X0.001000*%
%ADD114R,0.144000X0.001000*%
%ADD115R,0.143000X0.001000*%
%ADD116R,0.142000X0.001000*%
%ADD117R,0.141000X0.001000*%
%ADD118R,0.147000X0.001000*%
%ADD119R,0.148000X0.001000*%
%ADD120R,0.150000X0.001000*%
%ADD121R,0.152000X0.001000*%
%ADD122R,0.153000X0.001000*%
%ADD123R,0.115000X0.001000*%
%ADD124R,0.113000X0.001000*%
%ADD125R,0.112000X0.001000*%
%ADD126R,0.109000X0.001000*%
%ADD127R,0.068000X0.001000*%
%ADD128R,0.065000X0.001000*%
%ADD129R,0.047000X0.001000*%
%ADD130R,0.064000X0.001000*%
%ADD131R,0.054000X0.001000*%
%ADD132R,0.060000X0.001000*%
%ADD133R,0.070000X0.001000*%
%ADD134R,0.059000X0.001000*%
%ADD135R,0.074000X0.001000*%
%ADD136R,0.058000X0.001000*%
%ADD137R,0.077000X0.001000*%
%ADD138R,0.056000X0.001000*%
%ADD139R,0.084000X0.001000*%
%ADD140R,0.063000X0.001000*%
%ADD141R,0.095000X0.001000*%
%ADD142R,0.035000X0.001000*%
%ADD143R,0.093000X0.001000*%
%ADD144R,0.090000X0.001000*%
%ADD145R,0.089000X0.001000*%
%ADD146R,0.088000X0.001000*%
%ADD147R,0.083000X0.001000*%
%ADD148R,0.079000X0.001000*%
%ADD149R,0.073000X0.001000*%
%ADD150R,0.072000X0.001000*%
%ADD151R,0.069000X0.001000*%
%ADD152R,0.137000X0.001000*%
%ADD153R,0.138000X0.001000*%
%ADD154R,0.049000X0.001000*%
%ADD155R,0.048000X0.001000*%
%ADD156R,0.210000X0.001000*%
%ADD157R,0.208000X0.001000*%
%ADD158R,0.206000X0.001000*%
%ADD159R,0.204000X0.001000*%
%ADD160R,0.202000X0.001000*%
%ADD161R,0.199000X0.001000*%
%ADD162R,0.197000X0.001000*%
%ADD163R,0.194000X0.001000*%
%ADD164R,0.192000X0.001000*%
%ADD165R,0.188000X0.001000*%
%ADD166R,0.185000X0.001000*%
%ADD167R,0.180000X0.001000*%
%ADD168R,0.177000X0.001000*%
%ADD169R,0.173000X0.001000*%
%ADD170R,0.169000X0.001000*%
%ADD171C,0.010000*%


D10*
X7385Y8280D02*
X7385Y9551D01*
X8021Y9551D01*
X8233Y9339D01*
X8233Y9127D01*
X8021Y8915D01*
X8233Y8704D01*
X8233Y8492D01*
X8021Y8280D01*
X7385Y8280D01*
X7385Y8915D02*
X8021Y8915D01*
X8766Y9127D02*
X8766Y8280D01*
X8766Y8704D02*
X9190Y9127D01*
X9402Y9127D01*
X10129Y9127D02*
X10553Y9127D01*
X10765Y8915D01*
X10765Y8280D01*
X10129Y8280D01*
X9917Y8492D01*
X10129Y8704D01*
X10765Y8704D01*
X11299Y9127D02*
X11510Y9127D01*
X11510Y8280D01*
X11299Y8280D02*
X11722Y8280D01*
X11510Y9551D02*
X11510Y9763D01*
X12219Y9127D02*
X12219Y8280D01*
X12219Y9127D02*
X12855Y9127D01*
X13067Y8915D01*
X13067Y8280D01*
X14024Y7856D02*
X14236Y7856D01*
X14448Y8068D01*
X14448Y9127D01*
X13812Y9127D01*
X13600Y8915D01*
X13600Y8492D01*
X13812Y8280D01*
X14448Y8280D01*
X15194Y8280D02*
X15617Y8280D01*
X15194Y8280D02*
X14982Y8492D01*
X14982Y8915D01*
X15194Y9127D01*
X15617Y9127D01*
X15829Y8915D01*
X15829Y8704D01*
X14982Y8704D01*
X16363Y8280D02*
X16363Y9127D01*
X16998Y9127D01*
X17210Y8915D01*
X17210Y8280D01*
X17956Y8280D02*
X18380Y8280D01*
X17956Y8280D02*
X17744Y8492D01*
X17744Y8915D01*
X17956Y9127D01*
X18380Y9127D01*
X18591Y8915D01*
X18591Y8704D01*
X17744Y8704D01*
X19337Y8280D02*
X19761Y8280D01*
X19337Y8280D02*
X19125Y8492D01*
X19125Y8915D01*
X19337Y9127D01*
X19761Y9127D01*
X19973Y8915D01*
X19973Y8704D01*
X19125Y8704D01*
X20506Y8280D02*
X20506Y9127D01*
X20506Y8704D02*
X20930Y9127D01*
X21142Y9127D01*
X21657Y8280D02*
X22293Y8280D01*
X22505Y8492D01*
X22293Y8704D01*
X21869Y8704D01*
X21657Y8915D01*
X21869Y9127D01*
X22505Y9127D01*
D11*
X12860Y7345D02*
X12860Y6724D01*
X12860Y7345D02*
X13171Y7345D01*
X13274Y7241D01*
X13274Y7034D01*
X13171Y6931D01*
X12860Y6931D01*
X13067Y6931D02*
X13274Y6724D01*
X13608Y7138D02*
X13815Y7138D01*
X13919Y7034D01*
X13919Y6724D01*
X13608Y6724D01*
X13505Y6828D01*
X13608Y6931D01*
X13919Y6931D01*
X14149Y6724D02*
X14460Y6724D01*
X14563Y6828D01*
X14460Y6931D01*
X14253Y6931D01*
X14149Y7034D01*
X14253Y7138D01*
X14563Y7138D01*
X14794Y7345D02*
X14794Y6724D01*
X14794Y7345D02*
X15104Y7345D01*
X15208Y7241D01*
X15208Y7034D01*
X15104Y6931D01*
X14794Y6931D01*
X15439Y7138D02*
X15542Y7138D01*
X15542Y6724D01*
X15439Y6724D02*
X15645Y6724D01*
X15542Y7345D02*
X15542Y7448D01*
X16513Y7345D02*
X16513Y6724D01*
X16513Y7345D02*
X16823Y7345D01*
X16926Y7241D01*
X16926Y7034D01*
X16823Y6931D01*
X16513Y6931D01*
X16720Y6931D02*
X16926Y6724D01*
X17157Y6724D02*
X17157Y7345D01*
X17157Y7034D02*
X17571Y7034D01*
X17571Y6724D02*
X17571Y7345D01*
X17802Y7345D02*
X17802Y6724D01*
X18112Y6724D01*
X18216Y6828D01*
X18216Y7241D01*
X18112Y7345D01*
X17802Y7345D01*
X19401Y7345D02*
X19505Y7241D01*
X19401Y7345D02*
X19194Y7345D01*
X19091Y7241D01*
X19091Y6828D01*
X19194Y6724D01*
X19401Y6724D01*
X19505Y6828D01*
X19839Y6724D02*
X20046Y6724D01*
X20149Y6828D01*
X20149Y7034D01*
X20046Y7138D01*
X19839Y7138D01*
X19736Y7034D01*
X19736Y6828D01*
X19839Y6724D01*
X20380Y6724D02*
X20380Y7138D01*
X20690Y7138D01*
X20794Y7034D01*
X20794Y6724D01*
X21128Y6828D02*
X21128Y7241D01*
X21128Y6828D02*
X21231Y6724D01*
X21231Y7138D02*
X21025Y7138D01*
X21454Y7138D02*
X21454Y6724D01*
X21454Y6931D02*
X21661Y7138D01*
X21765Y7138D01*
X22095Y6724D02*
X22302Y6724D01*
X22405Y6828D01*
X22405Y7034D01*
X22302Y7138D01*
X22095Y7138D01*
X21991Y7034D01*
X21991Y6828D01*
X22095Y6724D01*
X22636Y7345D02*
X22739Y7345D01*
X22739Y6724D01*
X22636Y6724D02*
X22843Y6724D01*
X23066Y7345D02*
X23169Y7345D01*
X23169Y6724D01*
X23066Y6724D02*
X23273Y6724D01*
X23599Y6724D02*
X23806Y6724D01*
X23599Y6724D02*
X23495Y6828D01*
X23495Y7034D01*
X23599Y7138D01*
X23806Y7138D01*
X23909Y7034D01*
X23909Y6931D01*
X23495Y6931D01*
X24140Y6724D02*
X24140Y7138D01*
X24140Y6931D02*
X24347Y7138D01*
X24450Y7138D01*
D12*
X24810Y10180D02*
X24866Y10237D01*
X24810Y10180D02*
X24810Y10067D01*
X24866Y10010D01*
X25093Y10010D01*
X25150Y10067D01*
X25150Y10180D01*
X25093Y10237D01*
X24980Y10237D01*
X24980Y10123D01*
X25150Y10378D02*
X24810Y10378D01*
X25150Y10605D01*
X24810Y10605D01*
X24810Y10747D02*
X25150Y10747D01*
X25150Y10917D01*
X25093Y10973D01*
X24866Y10973D01*
X24810Y10917D01*
X24810Y10747D01*
X11462Y21490D02*
X11235Y21490D01*
X11348Y21377D02*
X11348Y21604D01*
X11603Y21604D02*
X11660Y21660D01*
X11773Y21660D01*
X11830Y21604D01*
X11830Y21547D01*
X11773Y21490D01*
X11717Y21490D01*
X11773Y21490D02*
X11830Y21433D01*
X11830Y21377D01*
X11773Y21320D01*
X11660Y21320D01*
X11603Y21377D01*
X11972Y21433D02*
X11972Y21660D01*
X11972Y21433D02*
X12085Y21320D01*
X12198Y21433D01*
X12198Y21660D01*
X12340Y21604D02*
X12397Y21660D01*
X12510Y21660D01*
X12567Y21604D01*
X12567Y21547D01*
X12510Y21490D01*
X12453Y21490D01*
X12510Y21490D02*
X12567Y21433D01*
X12567Y21377D01*
X12510Y21320D01*
X12397Y21320D01*
X12340Y21377D01*
X1055Y10875D02*
X615Y10875D01*
X615Y11095D01*
X688Y11169D01*
X835Y11169D01*
X908Y11095D01*
X908Y10875D01*
X615Y11556D02*
X688Y11629D01*
X615Y11556D02*
X615Y11409D01*
X688Y11335D01*
X982Y11335D01*
X1055Y11409D01*
X1055Y11556D01*
X982Y11629D01*
X1055Y11796D02*
X615Y11796D01*
X615Y12016D01*
X688Y12089D01*
X761Y12089D01*
X835Y12016D01*
X908Y12089D01*
X982Y12089D01*
X1055Y12016D01*
X1055Y11796D01*
X835Y11796D02*
X835Y12016D01*
X761Y12256D02*
X1055Y12256D01*
X761Y12256D02*
X615Y12403D01*
X761Y12550D01*
X1055Y12550D01*
X835Y12550D02*
X835Y12256D01*
X1030Y2415D02*
X590Y2415D01*
X590Y2635D01*
X663Y2709D01*
X810Y2709D01*
X883Y2635D01*
X883Y2415D01*
X590Y3096D02*
X663Y3169D01*
X590Y3096D02*
X590Y2949D01*
X663Y2875D01*
X957Y2875D01*
X1030Y2949D01*
X1030Y3096D01*
X957Y3169D01*
X1030Y3336D02*
X590Y3336D01*
X590Y3556D01*
X663Y3629D01*
X736Y3629D01*
X810Y3556D01*
X883Y3629D01*
X957Y3629D01*
X1030Y3556D01*
X1030Y3336D01*
X810Y3336D02*
X810Y3556D01*
X957Y3796D02*
X663Y3796D01*
X590Y3870D01*
X590Y4016D01*
X663Y4090D01*
X957Y4090D01*
X1030Y4016D01*
X1030Y3870D01*
X957Y3796D01*
X663Y4090D01*
X663Y4257D02*
X957Y4257D01*
X663Y4257D02*
X590Y4330D01*
X590Y4477D01*
X663Y4550D01*
X957Y4550D01*
X1030Y4477D01*
X1030Y4330D01*
X957Y4257D01*
X663Y4550D01*
X663Y4717D02*
X957Y4717D01*
X663Y4717D02*
X590Y4790D01*
X590Y4937D01*
X663Y5011D01*
X957Y5011D01*
X1030Y4937D01*
X1030Y4790D01*
X957Y4717D01*
X663Y5011D01*
X663Y5177D02*
X957Y5177D01*
X663Y5177D02*
X590Y5251D01*
X590Y5398D01*
X663Y5471D01*
X957Y5471D01*
X1030Y5398D01*
X1030Y5251D01*
X957Y5177D01*
X663Y5471D01*
X663Y5638D02*
X957Y5638D01*
X663Y5638D02*
X590Y5711D01*
X590Y5858D01*
X663Y5931D01*
X957Y5931D01*
X1030Y5858D01*
X1030Y5711D01*
X957Y5638D01*
X663Y5931D01*
X663Y6098D02*
X957Y6098D01*
X663Y6098D02*
X590Y6172D01*
X590Y6318D01*
X663Y6392D01*
X957Y6392D01*
X1030Y6318D01*
X1030Y6172D01*
X957Y6098D01*
X663Y6392D01*
X663Y6559D02*
X957Y6559D01*
X663Y6559D02*
X590Y6632D01*
X590Y6779D01*
X663Y6852D01*
X957Y6852D01*
X1030Y6779D01*
X1030Y6632D01*
X957Y6559D01*
X663Y6852D01*
X590Y7019D02*
X590Y7313D01*
X663Y7313D01*
X957Y7019D01*
X1030Y7019D01*
X1030Y7940D02*
X590Y7940D01*
X590Y8160D01*
X663Y8233D01*
X810Y8233D01*
X883Y8160D01*
X883Y7940D01*
X883Y8087D02*
X1030Y8233D01*
X590Y8400D02*
X590Y8694D01*
X590Y8400D02*
X1030Y8400D01*
X1030Y8694D01*
X810Y8547D02*
X810Y8400D01*
X883Y8860D02*
X590Y8860D01*
X883Y8860D02*
X1030Y9007D01*
X883Y9154D01*
X590Y9154D01*
X736Y9321D02*
X590Y9468D01*
X1030Y9468D01*
X1030Y9614D02*
X1030Y9321D01*
D11*
X16120Y4901D02*
X16120Y4280D01*
X16534Y4280D02*
X16120Y4901D01*
X16534Y4901D02*
X16534Y4280D01*
X16868Y4694D02*
X17075Y4694D01*
X17178Y4590D01*
X17178Y4280D01*
X16868Y4280D01*
X16765Y4383D01*
X16868Y4487D01*
X17178Y4487D01*
X17513Y4694D02*
X17719Y4694D01*
X17823Y4590D01*
X17823Y4280D01*
X17513Y4280D01*
X17409Y4383D01*
X17513Y4487D01*
X17823Y4487D01*
X18364Y4901D02*
X18467Y4797D01*
X18364Y4901D02*
X18157Y4901D01*
X18054Y4797D01*
X18054Y4694D01*
X18157Y4590D01*
X18364Y4590D01*
X18467Y4487D01*
X18467Y4383D01*
X18364Y4280D01*
X18157Y4280D01*
X18054Y4383D01*
D13*
X938Y15715D03*
D12*
X5465Y21460D02*
X5692Y21460D01*
X5578Y21347D02*
X5578Y21574D01*
X5833Y21574D02*
X5890Y21630D01*
X6003Y21630D01*
X6060Y21574D01*
X6060Y21517D01*
X6003Y21460D01*
X5947Y21460D01*
X6003Y21460D02*
X6060Y21403D01*
X6060Y21347D01*
X6003Y21290D01*
X5890Y21290D01*
X5833Y21347D01*
X6202Y21403D02*
X6202Y21630D01*
X6202Y21403D02*
X6315Y21290D01*
X6428Y21403D01*
X6428Y21630D01*
X6570Y21630D02*
X6797Y21630D01*
X6570Y21630D02*
X6570Y21460D01*
X6683Y21517D01*
X6740Y21517D01*
X6797Y21460D01*
X6797Y21347D01*
X6740Y21290D01*
X6627Y21290D01*
X6570Y21347D01*
X2395Y1280D02*
X2395Y840D01*
X2395Y1280D02*
X2615Y1280D01*
X2689Y1207D01*
X2689Y1060D01*
X2615Y987D01*
X2395Y987D01*
X2929Y1280D02*
X3076Y1280D01*
X2929Y1280D02*
X2855Y1207D01*
X2855Y913D01*
X2929Y840D01*
X3076Y840D01*
X3149Y913D01*
X3149Y1207D01*
X3076Y1280D01*
X3316Y1280D02*
X3316Y840D01*
X3316Y1280D02*
X3536Y1280D01*
X3609Y1207D01*
X3609Y1060D01*
X3536Y987D01*
X3316Y987D01*
X3463Y987D02*
X3609Y840D01*
X3923Y840D02*
X3923Y1280D01*
X3776Y1280D02*
X4070Y1280D01*
X4697Y1134D02*
X4697Y840D01*
X4697Y1134D02*
X4844Y1280D01*
X4991Y1134D01*
X4991Y840D01*
X4991Y1060D02*
X4697Y1060D01*
X25185Y15450D02*
X25185Y15677D01*
X25298Y15563D02*
X25071Y15563D01*
X25015Y15818D02*
X25015Y16045D01*
X25015Y15818D02*
X25185Y15818D01*
X25128Y15932D01*
X25128Y15988D01*
X25185Y16045D01*
X25298Y16045D01*
X25355Y15988D01*
X25355Y15875D01*
X25298Y15818D01*
X25242Y16187D02*
X25015Y16187D01*
X25242Y16187D02*
X25355Y16300D01*
X25242Y16413D01*
X25015Y16413D01*
X25015Y16555D02*
X25015Y16782D01*
X25015Y16555D02*
X25185Y16555D01*
X25128Y16668D01*
X25128Y16725D01*
X25185Y16782D01*
X25298Y16782D01*
X25355Y16725D01*
X25355Y16612D01*
X25298Y16555D01*
X3990Y16895D02*
X2740Y16895D01*
D14*
X2759Y16770D02*
X2843Y16770D01*
X2759Y16770D02*
X2718Y16729D01*
X2718Y16562D01*
X2759Y16520D01*
X2843Y16520D01*
X2884Y16562D01*
X2884Y16729D01*
X2843Y16770D01*
X2994Y16770D02*
X2994Y16520D01*
X2994Y16770D02*
X3161Y16770D01*
X3077Y16645D02*
X2994Y16645D01*
X3270Y16520D02*
X3270Y16770D01*
X3437Y16770D01*
X3353Y16645D02*
X3270Y16645D01*
X3546Y16520D02*
X3546Y16770D01*
X3671Y16770D01*
X3713Y16729D01*
X3713Y16687D01*
X3671Y16645D01*
X3713Y16603D01*
X3713Y16562D01*
X3671Y16520D01*
X3546Y16520D01*
X3546Y16645D02*
X3671Y16645D01*
X3823Y16520D02*
X3823Y16770D01*
X3948Y16770D01*
X3989Y16729D01*
X3989Y16645D01*
X3948Y16603D01*
X3823Y16603D01*
X3906Y16603D02*
X3989Y16520D01*
X4099Y16520D02*
X4099Y16770D01*
X4099Y16520D02*
X4224Y16520D01*
X4266Y16562D01*
X4266Y16729D01*
X4224Y16770D01*
X4099Y16770D01*
D12*
X2925Y16770D02*
X2740Y16895D01*
X2925Y17020D01*
X2925Y16770D01*
X2355Y16700D02*
X2355Y16927D01*
X2468Y16813D02*
X2241Y16813D01*
X2241Y17068D02*
X2185Y17125D01*
X2185Y17238D01*
X2241Y17295D01*
X2298Y17295D01*
X2355Y17238D01*
X2355Y17182D01*
X2355Y17238D02*
X2412Y17295D01*
X2468Y17295D01*
X2525Y17238D01*
X2525Y17125D01*
X2468Y17068D01*
X2412Y17437D02*
X2185Y17437D01*
X2412Y17437D02*
X2525Y17550D01*
X2412Y17663D01*
X2185Y17663D01*
X2185Y17805D02*
X2185Y18032D01*
X2185Y17805D02*
X2355Y17805D01*
X2298Y17918D01*
X2298Y17975D01*
X2355Y18032D01*
X2468Y18032D01*
X2525Y17975D01*
X2525Y17862D01*
X2468Y17805D01*
X7585Y16912D02*
X7585Y16685D01*
X7698Y16798D02*
X7471Y16798D01*
X7471Y17053D02*
X7415Y17110D01*
X7415Y17223D01*
X7471Y17280D01*
X7528Y17280D01*
X7585Y17223D01*
X7585Y17167D01*
X7585Y17223D02*
X7642Y17280D01*
X7698Y17280D01*
X7755Y17223D01*
X7755Y17110D01*
X7698Y17053D01*
X7642Y17422D02*
X7415Y17422D01*
X7642Y17422D02*
X7755Y17535D01*
X7642Y17648D01*
X7415Y17648D01*
X7471Y17790D02*
X7415Y17847D01*
X7415Y17960D01*
X7471Y18017D01*
X7528Y18017D01*
X7585Y17960D01*
X7585Y17903D01*
X7585Y17960D02*
X7642Y18017D01*
X7698Y18017D01*
X7755Y17960D01*
X7755Y17847D01*
X7698Y17790D01*
X14700Y17027D02*
X14700Y16800D01*
X14813Y16913D02*
X14586Y16913D01*
X14530Y17168D02*
X14530Y17395D01*
X14530Y17168D02*
X14700Y17168D01*
X14643Y17282D01*
X14643Y17338D01*
X14700Y17395D01*
X14813Y17395D01*
X14870Y17338D01*
X14870Y17225D01*
X14813Y17168D01*
X14757Y17537D02*
X14530Y17537D01*
X14757Y17537D02*
X14870Y17650D01*
X14757Y17763D01*
X14530Y17763D01*
X14530Y17905D02*
X14530Y18132D01*
X14530Y17905D02*
X14700Y17905D01*
X14643Y18018D01*
X14643Y18075D01*
X14700Y18132D01*
X14813Y18132D01*
X14870Y18075D01*
X14870Y17962D01*
X14813Y17905D01*
X7262Y14374D02*
X7205Y14430D01*
X7092Y14430D01*
X7035Y14374D01*
X7035Y14147D01*
X7092Y14090D01*
X7205Y14090D01*
X7262Y14147D01*
X7262Y14260D01*
X7148Y14260D01*
X7403Y14090D02*
X7403Y14430D01*
X7630Y14090D01*
X7630Y14430D01*
X7772Y14430D02*
X7772Y14090D01*
X7942Y14090D01*
X7998Y14147D01*
X7998Y14374D01*
X7942Y14430D01*
X7772Y14430D01*
X13335Y16310D02*
X13392Y16254D01*
X13335Y16310D02*
X13222Y16310D01*
X13165Y16254D01*
X13165Y16027D01*
X13222Y15970D01*
X13335Y15970D01*
X13392Y16027D01*
X13392Y16140D01*
X13278Y16140D01*
X13533Y15970D02*
X13533Y16310D01*
X13760Y15970D01*
X13760Y16310D01*
X13902Y16310D02*
X13902Y15970D01*
X14072Y15970D01*
X14128Y16027D01*
X14128Y16254D01*
X14072Y16310D01*
X13902Y16310D01*
X9130Y16875D02*
X7930Y16875D01*
D14*
X7949Y16750D02*
X8033Y16750D01*
X7949Y16750D02*
X7908Y16709D01*
X7908Y16542D01*
X7949Y16500D01*
X8033Y16500D01*
X8074Y16542D01*
X8074Y16709D01*
X8033Y16750D01*
X8184Y16750D02*
X8184Y16500D01*
X8184Y16750D02*
X8351Y16750D01*
X8267Y16625D02*
X8184Y16625D01*
X8460Y16500D02*
X8460Y16750D01*
X8627Y16750D01*
X8543Y16625D02*
X8460Y16625D01*
X8736Y16500D02*
X8736Y16750D01*
X8861Y16750D01*
X8903Y16709D01*
X8903Y16667D01*
X8861Y16625D01*
X8903Y16583D01*
X8903Y16542D01*
X8861Y16500D01*
X8736Y16500D01*
X8736Y16625D02*
X8861Y16625D01*
X9013Y16500D02*
X9013Y16750D01*
X9138Y16750D01*
X9179Y16709D01*
X9179Y16625D01*
X9138Y16583D01*
X9013Y16583D01*
X9096Y16583D02*
X9179Y16500D01*
X9289Y16500D02*
X9289Y16750D01*
X9289Y16500D02*
X9414Y16500D01*
X9456Y16542D01*
X9456Y16709D01*
X9414Y16750D01*
X9289Y16750D01*
D12*
X8115Y16750D02*
X7930Y16875D01*
X8115Y17000D01*
X8115Y16750D01*
X15000Y16900D02*
X16220Y16885D01*
D14*
X15123Y16760D02*
X15039Y16760D01*
X14998Y16719D01*
X14998Y16552D01*
X15039Y16510D01*
X15123Y16510D01*
X15164Y16552D01*
X15164Y16719D01*
X15123Y16760D01*
X15274Y16760D02*
X15274Y16510D01*
X15274Y16760D02*
X15441Y16760D01*
X15357Y16635D02*
X15274Y16635D01*
X15550Y16510D02*
X15550Y16760D01*
X15717Y16760D01*
X15633Y16635D02*
X15550Y16635D01*
X15826Y16510D02*
X15826Y16760D01*
X15951Y16760D01*
X15993Y16719D01*
X15993Y16677D01*
X15951Y16635D01*
X15993Y16593D01*
X15993Y16552D01*
X15951Y16510D01*
X15826Y16510D01*
X15826Y16635D02*
X15951Y16635D01*
X16103Y16510D02*
X16103Y16760D01*
X16228Y16760D01*
X16269Y16719D01*
X16269Y16635D01*
X16228Y16593D01*
X16103Y16593D01*
X16186Y16593D02*
X16269Y16510D01*
X16379Y16510D02*
X16379Y16760D01*
X16379Y16510D02*
X16504Y16510D01*
X16546Y16552D01*
X16546Y16719D01*
X16504Y16760D01*
X16379Y16760D01*
D12*
X15255Y16760D02*
X15000Y16900D01*
X15255Y17010D01*
X15255Y16760D01*
D14*
X13100Y2940D02*
X13100Y2100D01*
X13100Y2940D02*
X13540Y2940D01*
X13540Y2100D01*
X13100Y2100D01*
D12*
X13672Y2422D02*
X14013Y2422D01*
X13672Y2422D02*
X13672Y2592D01*
X13729Y2649D01*
X13842Y2649D01*
X13899Y2592D01*
X13899Y2422D01*
X13899Y2535D02*
X14013Y2649D01*
X13786Y2790D02*
X13672Y2904D01*
X14013Y2904D01*
X14013Y3017D02*
X14013Y2790D01*
X13072Y19881D02*
X12732Y19881D01*
X12732Y19768D02*
X12732Y19995D01*
X12732Y20136D02*
X13072Y20136D01*
X12732Y20136D02*
X12732Y20306D01*
X12789Y20363D01*
X12902Y20363D01*
X12959Y20306D01*
X12959Y20136D01*
X13072Y20505D02*
X13072Y20732D01*
X12846Y20732D02*
X13072Y20505D01*
X12846Y20732D02*
X12789Y20732D01*
X12732Y20675D01*
X12732Y20561D01*
X12789Y20505D01*
X23427Y9723D02*
X23427Y9383D01*
X23313Y9723D02*
X23540Y9723D01*
X23681Y9723D02*
X23681Y9383D01*
X23681Y9723D02*
X23852Y9723D01*
X23908Y9666D01*
X23908Y9553D01*
X23852Y9496D01*
X23681Y9496D01*
X24050Y9609D02*
X24163Y9723D01*
X24163Y9383D01*
X24050Y9383D02*
X24277Y9383D01*
D15*
X19295Y2510D03*
D16*
X19290Y2520D03*
D17*
X19285Y2530D03*
X19275Y2540D03*
X19275Y2550D03*
D18*
X19270Y2560D03*
D17*
X19265Y2570D03*
X19265Y2580D03*
D18*
X19260Y2590D03*
D17*
X19255Y2600D03*
D18*
X19250Y2610D03*
X19250Y2620D03*
D17*
X19245Y2630D03*
X19245Y2640D03*
D18*
X19240Y2650D03*
X19240Y2660D03*
X19240Y2670D03*
D17*
X19235Y2680D03*
X19235Y2690D03*
D18*
X19230Y2700D03*
X19230Y2710D03*
X19230Y2720D03*
X19230Y2730D03*
D19*
X19225Y2740D03*
X19225Y2750D03*
X19225Y2760D03*
D20*
X19220Y2770D03*
X19220Y2780D03*
D21*
X19225Y2790D03*
D22*
X19220Y2800D03*
D23*
X19600Y2800D03*
D24*
X19225Y2810D03*
D15*
X19585Y2810D03*
D25*
X19225Y2820D03*
D16*
X19560Y2820D03*
D26*
X19230Y2830D03*
D17*
X19545Y2830D03*
D27*
X19235Y2840D03*
D18*
X19520Y2840D03*
D28*
X19245Y2850D03*
D21*
X19495Y2850D03*
D29*
X19335Y2860D03*
D30*
X19330Y2870D03*
D31*
X19335Y2880D03*
D32*
X19335Y2890D03*
D29*
X19305Y2900D03*
D33*
X19280Y2910D03*
D34*
X19250Y2920D03*
D35*
X19200Y2930D03*
D36*
X19175Y2940D03*
D27*
X19155Y2950D03*
D25*
X19135Y2960D03*
X19115Y2970D03*
D37*
X19100Y2980D03*
X19090Y2990D03*
D25*
X19075Y3000D03*
D26*
X19070Y3010D03*
D38*
X19070Y3020D03*
D39*
X19060Y3030D03*
D35*
X19060Y3040D03*
D40*
X19060Y3050D03*
D41*
X19985Y3050D03*
D42*
X19060Y3060D03*
D15*
X19975Y3060D03*
D24*
X18985Y3070D03*
D22*
X19150Y3070D03*
D15*
X19975Y3070D03*
D22*
X18960Y3080D03*
D20*
X19180Y3080D03*
D16*
X19980Y3080D03*
D20*
X18940Y3090D03*
D21*
X19195Y3090D03*
D16*
X19980Y3090D03*
D20*
X18930Y3100D03*
D22*
X19220Y3100D03*
D16*
X19980Y3100D03*
D19*
X18915Y3110D03*
D37*
X19250Y3110D03*
D16*
X19980Y3110D03*
D19*
X18905Y3120D03*
D38*
X19280Y3120D03*
D16*
X19980Y3120D03*
D19*
X18895Y3130D03*
D43*
X19395Y3130D03*
D16*
X19980Y3130D03*
D19*
X18885Y3140D03*
D33*
X19400Y3140D03*
D16*
X19980Y3140D03*
D18*
X18870Y3150D03*
D28*
X19355Y3150D03*
D16*
X19980Y3150D03*
D18*
X18860Y3160D03*
D25*
X19345Y3160D03*
D15*
X19985Y3160D03*
D18*
X18850Y3170D03*
D24*
X19345Y3170D03*
D15*
X19985Y3170D03*
D18*
X18840Y3180D03*
D20*
X19340Y3180D03*
D16*
X19990Y3180D03*
D18*
X18830Y3190D03*
X19340Y3190D03*
D16*
X19990Y3190D03*
D18*
X18820Y3200D03*
D17*
X19345Y3200D03*
D16*
X19990Y3200D03*
D18*
X18810Y3210D03*
D16*
X19340Y3210D03*
X19990Y3210D03*
D18*
X18800Y3220D03*
D15*
X19345Y3220D03*
D16*
X19990Y3220D03*
D18*
X18790Y3230D03*
D15*
X19345Y3230D03*
D16*
X19990Y3230D03*
D18*
X18780Y3240D03*
D15*
X19355Y3240D03*
X19995Y3240D03*
D41*
X20265Y3240D03*
D17*
X18775Y3250D03*
D15*
X19355Y3250D03*
D16*
X20000Y3250D03*
D15*
X20235Y3250D03*
D17*
X18765Y3260D03*
D16*
X19360Y3260D03*
D17*
X20005Y3260D03*
X20205Y3260D03*
X18755Y3270D03*
D15*
X19365Y3270D03*
D20*
X20020Y3270D03*
D21*
X20165Y3270D03*
D17*
X18745Y3280D03*
D41*
X19375Y3280D03*
D44*
X20085Y3280D03*
D17*
X18735Y3290D03*
D28*
X20075Y3290D03*
D38*
X17570Y3300D03*
D17*
X18725Y3300D03*
D36*
X20065Y3300D03*
D45*
X17575Y3310D03*
D17*
X18715Y3310D03*
D27*
X20055Y3310D03*
D29*
X17585Y3320D03*
D17*
X18705Y3320D03*
D25*
X20035Y3320D03*
D46*
X17580Y3330D03*
D17*
X18695Y3330D03*
D37*
X20020Y3330D03*
D47*
X17585Y3340D03*
D17*
X18695Y3340D03*
D24*
X20005Y3340D03*
D48*
X17580Y3350D03*
D17*
X18685Y3350D03*
D37*
X19980Y3350D03*
D49*
X17580Y3360D03*
D17*
X18675Y3360D03*
D25*
X19955Y3360D03*
D50*
X17575Y3370D03*
D17*
X18665Y3370D03*
D25*
X19935Y3370D03*
D19*
X15995Y3380D03*
D51*
X17570Y3380D03*
D17*
X18655Y3380D03*
D37*
X19910Y3380D03*
D25*
X16005Y3390D03*
D52*
X17560Y3390D03*
D17*
X18645Y3390D03*
D22*
X19880Y3390D03*
D38*
X16020Y3400D03*
D53*
X17550Y3400D03*
D17*
X18635Y3400D03*
D18*
X19850Y3400D03*
D39*
X16030Y3410D03*
D54*
X17545Y3410D03*
D17*
X18635Y3410D03*
D18*
X19840Y3410D03*
D44*
X16035Y3420D03*
D55*
X17530Y3420D03*
D17*
X18625Y3420D03*
D18*
X19820Y3420D03*
D56*
X16045Y3430D03*
D57*
X17505Y3430D03*
D17*
X18615Y3430D03*
D18*
X19810Y3430D03*
D58*
X16055Y3440D03*
D59*
X17470Y3440D03*
D17*
X18605Y3440D03*
D18*
X19800Y3440D03*
D60*
X16060Y3450D03*
D61*
X17400Y3450D03*
D18*
X18600Y3450D03*
X19790Y3450D03*
D62*
X16045Y3460D03*
D63*
X17035Y3460D03*
D43*
X17875Y3460D03*
D18*
X18590Y3460D03*
D17*
X19785Y3460D03*
D64*
X16030Y3470D03*
D65*
X16910Y3470D03*
D62*
X17905Y3470D03*
D19*
X18585Y3470D03*
D17*
X19775Y3470D03*
D66*
X16035Y3480D03*
D59*
X16860Y3480D03*
D33*
X17940Y3480D03*
D20*
X18580Y3480D03*
D17*
X19765Y3480D03*
D67*
X16585Y3490D03*
D43*
X17975Y3490D03*
D20*
X18580Y3490D03*
D17*
X19755Y3490D03*
D68*
X16575Y3500D03*
D69*
X18405Y3500D03*
D17*
X19745Y3500D03*
D70*
X16185Y3510D03*
D71*
X17100Y3510D03*
D72*
X18800Y3510D03*
D37*
X15840Y3520D03*
D73*
X16220Y3520D03*
D74*
X17130Y3520D03*
D75*
X18800Y3520D03*
D19*
X15825Y3530D03*
D76*
X16175Y3530D03*
D29*
X17145Y3530D03*
D77*
X18310Y3530D03*
D78*
X19345Y3530D03*
D41*
X15805Y3540D03*
D30*
X16150Y3540D03*
D62*
X17155Y3540D03*
D79*
X18285Y3540D03*
D44*
X19345Y3540D03*
D39*
X19630Y3540D03*
D62*
X16135Y3550D03*
D80*
X17165Y3550D03*
D78*
X18285Y3550D03*
D37*
X19370Y3550D03*
X19660Y3550D03*
D80*
X16125Y3560D03*
D81*
X17180Y3560D03*
D82*
X18285Y3560D03*
D19*
X19395Y3560D03*
D21*
X19675Y3560D03*
D45*
X16115Y3570D03*
D34*
X17190Y3570D03*
D82*
X18285Y3570D03*
D17*
X19405Y3570D03*
D19*
X19685Y3570D03*
D81*
X16090Y3580D03*
D83*
X17205Y3580D03*
D82*
X18285Y3580D03*
D15*
X19415Y3580D03*
D18*
X19690Y3580D03*
D62*
X16065Y3590D03*
D60*
X17220Y3590D03*
D43*
X18085Y3590D03*
D60*
X18540Y3590D03*
D23*
X19420Y3590D03*
D17*
X19695Y3590D03*
D43*
X16035Y3600D03*
D60*
X17240Y3600D03*
D34*
X18040Y3600D03*
D36*
X18595Y3600D03*
D23*
X19430Y3600D03*
D17*
X19705Y3600D03*
D84*
X16020Y3610D03*
D60*
X17260Y3610D03*
D42*
X18010Y3610D03*
D25*
X18625Y3610D03*
D23*
X19430Y3610D03*
D16*
X19710Y3610D03*
D84*
X16010Y3620D03*
D83*
X17285Y3620D03*
D40*
X17980Y3620D03*
D24*
X18655Y3620D03*
D23*
X19440Y3620D03*
D16*
X19720Y3620D03*
D84*
X16000Y3630D03*
D83*
X17305Y3630D03*
D35*
X17950Y3630D03*
D21*
X18675Y3630D03*
D41*
X19445Y3630D03*
D15*
X19725Y3630D03*
D27*
X15895Y3640D03*
D39*
X16080Y3640D03*
D34*
X17330Y3640D03*
D35*
X17920Y3640D03*
D20*
X18690Y3640D03*
D23*
X19450Y3640D03*
D15*
X19735Y3640D03*
D22*
X15870Y3650D03*
D36*
X16075Y3650D03*
D81*
X17360Y3650D03*
D40*
X17890Y3650D03*
D19*
X18705Y3650D03*
D41*
X19455Y3650D03*
D15*
X19745Y3650D03*
D16*
X15850Y3660D03*
D26*
X16070Y3660D03*
D33*
X17390Y3660D03*
D42*
X17850Y3660D03*
D18*
X18720Y3660D03*
D41*
X19465Y3660D03*
D15*
X19755Y3660D03*
D25*
X16065Y3670D03*
D51*
X17600Y3670D03*
D18*
X18740Y3670D03*
D41*
X19465Y3670D03*
D15*
X19765Y3670D03*
D24*
X16055Y3680D03*
D85*
X17600Y3680D03*
D18*
X18750Y3680D03*
D41*
X19475Y3680D03*
D15*
X19775Y3680D03*
D20*
X16050Y3690D03*
D86*
X17605Y3690D03*
D18*
X18760Y3690D03*
D23*
X19480Y3690D03*
D15*
X19785Y3690D03*
D18*
X16040Y3700D03*
D87*
X17600Y3700D03*
D18*
X18770Y3700D03*
D23*
X19490Y3700D03*
D15*
X19795Y3700D03*
D88*
X16040Y3710D03*
D89*
X17605Y3710D03*
D18*
X18780Y3710D03*
D23*
X19500Y3710D03*
D15*
X19805Y3710D03*
D66*
X17605Y3720D03*
D18*
X18790Y3720D03*
D23*
X19500Y3720D03*
D15*
X19815Y3720D03*
D29*
X17605Y3730D03*
D19*
X18805Y3730D03*
D23*
X19510Y3730D03*
D15*
X19825Y3730D03*
D34*
X17600Y3740D03*
D19*
X18815Y3740D03*
D23*
X19520Y3740D03*
D15*
X19835Y3740D03*
D25*
X17595Y3750D03*
D18*
X18830Y3750D03*
D23*
X19530Y3750D03*
D16*
X19850Y3750D03*
D18*
X18840Y3760D03*
D15*
X19535Y3760D03*
D16*
X19860Y3760D03*
D18*
X18850Y3770D03*
D15*
X19195Y3770D03*
X19545Y3770D03*
D16*
X19870Y3770D03*
D18*
X18860Y3780D03*
X19170Y3780D03*
D15*
X19555Y3780D03*
D16*
X19880Y3780D03*
D19*
X18875Y3790D03*
X19145Y3790D03*
D15*
X19565Y3790D03*
D17*
X19895Y3790D03*
D19*
X18885Y3800D03*
D20*
X19120Y3800D03*
D16*
X19570Y3800D03*
X19900Y3800D03*
D18*
X18900Y3810D03*
D20*
X19100Y3810D03*
D17*
X19585Y3810D03*
D15*
X19905Y3810D03*
D18*
X18910Y3820D03*
D21*
X19075Y3820D03*
D17*
X19595Y3820D03*
D15*
X19905Y3820D03*
D44*
X18995Y3830D03*
D17*
X19605Y3830D03*
D15*
X19915Y3830D03*
D39*
X18990Y3840D03*
D17*
X19615Y3840D03*
D16*
X19920Y3840D03*
D26*
X18990Y3850D03*
D17*
X19625Y3850D03*
X19925Y3850D03*
D24*
X18985Y3860D03*
D16*
X19630Y3860D03*
D18*
X19940Y3860D03*
D22*
X18990Y3870D03*
D17*
X19635Y3870D03*
D20*
X19950Y3870D03*
D21*
X18995Y3880D03*
D16*
X19640Y3880D03*
D23*
X19920Y3880D03*
D17*
X19975Y3880D03*
D20*
X19010Y3890D03*
D15*
X19645Y3890D03*
D23*
X19920Y3890D03*
D16*
X20000Y3890D03*
D20*
X19020Y3900D03*
D15*
X19655Y3900D03*
D23*
X19920Y3900D03*
X20020Y3900D03*
D20*
X19030Y3910D03*
D23*
X19660Y3910D03*
X19920Y3910D03*
D41*
X20045Y3910D03*
D21*
X19045Y3920D03*
D41*
X19665Y3920D03*
D15*
X19925Y3920D03*
D21*
X19055Y3930D03*
D15*
X19925Y3930D03*
D21*
X19075Y3940D03*
D23*
X19930Y3940D03*
D21*
X19085Y3950D03*
D23*
X19930Y3950D03*
D22*
X19100Y3960D03*
D15*
X19935Y3960D03*
D22*
X19110Y3970D03*
D15*
X19935Y3970D03*
D24*
X19125Y3980D03*
D23*
X19940Y3980D03*
D37*
X19130Y3990D03*
D23*
X19940Y3990D03*
D26*
X19140Y4000D03*
D15*
X19945Y4000D03*
D38*
X19150Y4010D03*
D15*
X19945Y4010D03*
D39*
X19150Y4020D03*
D23*
X19950Y4020D03*
D19*
X19095Y4030D03*
D24*
X19205Y4030D03*
D23*
X19950Y4030D03*
D17*
X19075Y4040D03*
D22*
X19230Y4040D03*
D23*
X19950Y4040D03*
D17*
X19075Y4050D03*
D21*
X19245Y4050D03*
D41*
X19955Y4050D03*
D18*
X19070Y4060D03*
D20*
X19270Y4060D03*
D41*
X19955Y4060D03*
D17*
X19065Y4070D03*
D19*
X19285Y4070D03*
D88*
X19960Y4070D03*
D17*
X19065Y4080D03*
D20*
X19300Y4080D03*
D18*
X19060Y4090D03*
D19*
X19315Y4090D03*
D18*
X19060Y4100D03*
D20*
X19330Y4100D03*
D18*
X19060Y4110D03*
D20*
X19340Y4110D03*
D17*
X19055Y4120D03*
D20*
X19360Y4120D03*
D18*
X19050Y4130D03*
D20*
X19370Y4130D03*
D18*
X19050Y4140D03*
D19*
X19385Y4140D03*
D17*
X19055Y4150D03*
D19*
X19405Y4150D03*
D17*
X19055Y4160D03*
D18*
X19420Y4160D03*
D17*
X19055Y4170D03*
D18*
X19430Y4170D03*
D17*
X19055Y4180D03*
X19445Y4180D03*
X19055Y4190D03*
D16*
X19460Y4190D03*
D17*
X19055Y4200D03*
D15*
X19475Y4200D03*
D16*
X19060Y4210D03*
D23*
X19490Y4210D03*
D16*
X19060Y4220D03*
D88*
X19500Y4220D03*
D17*
X19065Y4230D03*
D16*
X19070Y4240D03*
X19070Y4250D03*
X19080Y4260D03*
X19080Y4270D03*
X19090Y4280D03*
X19090Y4290D03*
X19100Y4300D03*
X19100Y4310D03*
D15*
X19105Y4320D03*
D23*
X19120Y4330D03*
D12*
X5550Y4200D02*
X5550Y4420D01*
X5550Y10300D02*
X3450Y10300D01*
X3450Y10080D01*
X3450Y4200D02*
X5550Y4200D01*
X5550Y10080D02*
X5550Y10300D01*
X3450Y9420D02*
X3450Y9080D01*
X5550Y9080D02*
X5550Y9420D01*
X3450Y8420D02*
X3450Y8080D01*
X5550Y8080D02*
X5550Y8420D01*
X3450Y7420D02*
X3450Y7080D01*
X5550Y7080D02*
X5550Y7420D01*
X3450Y6420D02*
X3450Y6080D01*
X5550Y6080D02*
X5550Y6420D01*
X3450Y5420D02*
X3450Y5080D01*
X5550Y5080D02*
X5550Y5420D01*
X3450Y4420D02*
X3450Y4200D01*
D14*
X7000Y1375D02*
X7000Y10375D01*
X2000Y10375D01*
X2000Y1375D01*
X7000Y1375D01*
D12*
X6520Y4430D02*
X6180Y4430D01*
X6180Y4600D01*
X6236Y4657D01*
X6293Y4657D01*
X6350Y4600D01*
X6407Y4657D01*
X6463Y4657D01*
X6520Y4600D01*
X6520Y4430D01*
X6350Y4430D02*
X6350Y4600D01*
X6293Y4798D02*
X6180Y4912D01*
X6520Y4912D01*
X6520Y5025D02*
X6520Y4798D01*
X6520Y5430D02*
X6180Y5430D01*
X6180Y5600D01*
X6236Y5657D01*
X6293Y5657D01*
X6350Y5600D01*
X6407Y5657D01*
X6463Y5657D01*
X6520Y5600D01*
X6520Y5430D01*
X6350Y5430D02*
X6350Y5600D01*
X6520Y5798D02*
X6520Y6025D01*
X6520Y5798D02*
X6293Y6025D01*
X6236Y6025D01*
X6180Y5968D01*
X6180Y5855D01*
X6236Y5798D01*
X6180Y6430D02*
X6520Y6430D01*
X6180Y6430D02*
X6180Y6600D01*
X6236Y6657D01*
X6293Y6657D01*
X6350Y6600D01*
X6407Y6657D01*
X6463Y6657D01*
X6520Y6600D01*
X6520Y6430D01*
X6350Y6430D02*
X6350Y6600D01*
X6236Y6798D02*
X6180Y6855D01*
X6180Y6968D01*
X6236Y7025D01*
X6293Y7025D01*
X6350Y6968D01*
X6350Y6912D01*
X6350Y6968D02*
X6407Y7025D01*
X6463Y7025D01*
X6520Y6968D01*
X6520Y6855D01*
X6463Y6798D01*
X6520Y7430D02*
X6180Y7430D01*
X6180Y7600D01*
X6236Y7657D01*
X6293Y7657D01*
X6350Y7600D01*
X6407Y7657D01*
X6463Y7657D01*
X6520Y7600D01*
X6520Y7430D01*
X6350Y7430D02*
X6350Y7600D01*
X6520Y7968D02*
X6180Y7968D01*
X6350Y7798D01*
X6350Y8025D01*
X6520Y8430D02*
X6180Y8430D01*
X6180Y8600D01*
X6236Y8657D01*
X6293Y8657D01*
X6350Y8600D01*
X6407Y8657D01*
X6463Y8657D01*
X6520Y8600D01*
X6520Y8430D01*
X6350Y8430D02*
X6350Y8600D01*
X6180Y8798D02*
X6180Y9025D01*
X6180Y8798D02*
X6350Y8798D01*
X6293Y8912D01*
X6293Y8968D01*
X6350Y9025D01*
X6463Y9025D01*
X6520Y8968D01*
X6520Y8855D01*
X6463Y8798D01*
X6520Y9430D02*
X6180Y9430D01*
X6180Y9600D01*
X6236Y9657D01*
X6293Y9657D01*
X6350Y9600D01*
X6407Y9657D01*
X6463Y9657D01*
X6520Y9600D01*
X6520Y9430D01*
X6350Y9430D02*
X6350Y9600D01*
X6236Y9912D02*
X6180Y10025D01*
X6236Y9912D02*
X6350Y9798D01*
X6463Y9798D01*
X6520Y9855D01*
X6520Y9968D01*
X6463Y10025D01*
X6407Y10025D01*
X6350Y9968D01*
X6350Y9798D01*
X2795Y4543D02*
X2455Y4543D01*
X2455Y4430D02*
X2455Y4657D01*
X2568Y4798D02*
X2455Y4912D01*
X2795Y4912D01*
X2795Y5025D02*
X2795Y4798D01*
X2795Y5543D02*
X2455Y5543D01*
X2455Y5430D02*
X2455Y5657D01*
X2795Y5798D02*
X2795Y6025D01*
X2795Y5798D02*
X2568Y6025D01*
X2511Y6025D01*
X2455Y5968D01*
X2455Y5855D01*
X2511Y5798D01*
X2455Y6543D02*
X2795Y6543D01*
X2455Y6430D02*
X2455Y6657D01*
X2511Y6798D02*
X2455Y6855D01*
X2455Y6968D01*
X2511Y7025D01*
X2568Y7025D01*
X2625Y6968D01*
X2625Y6912D01*
X2625Y6968D02*
X2682Y7025D01*
X2738Y7025D01*
X2795Y6968D01*
X2795Y6855D01*
X2738Y6798D01*
X2795Y7543D02*
X2455Y7543D01*
X2455Y7430D02*
X2455Y7657D01*
X2455Y7968D02*
X2795Y7968D01*
X2625Y7798D02*
X2455Y7968D01*
X2625Y8025D02*
X2625Y7798D01*
X2795Y8543D02*
X2455Y8543D01*
X2455Y8430D02*
X2455Y8657D01*
X2455Y8798D02*
X2455Y9025D01*
X2455Y8798D02*
X2625Y8798D01*
X2568Y8912D01*
X2568Y8968D01*
X2625Y9025D01*
X2738Y9025D01*
X2795Y8968D01*
X2795Y8855D01*
X2738Y8798D01*
X2795Y9543D02*
X2455Y9543D01*
X2455Y9430D02*
X2455Y9657D01*
X2511Y9912D02*
X2455Y10025D01*
X2511Y9912D02*
X2625Y9798D01*
X2738Y9798D01*
X2795Y9855D01*
X2795Y9968D01*
X2738Y10025D01*
X2682Y10025D01*
X2625Y9968D01*
X2625Y9798D01*
X4400Y4080D02*
X4457Y4024D01*
X4400Y4080D02*
X4287Y4080D01*
X4230Y4024D01*
X4230Y3967D01*
X4287Y3910D01*
X4400Y3910D01*
X4457Y3853D01*
X4457Y3797D01*
X4400Y3740D01*
X4287Y3740D01*
X4230Y3797D01*
X4598Y3967D02*
X4712Y4080D01*
X4712Y3740D01*
X4825Y3740D02*
X4598Y3740D01*
X8862Y3962D02*
X8862Y6474D01*
X10454Y6474D01*
X10454Y3962D01*
X8862Y3962D01*
X9901Y4323D02*
X9903Y4349D01*
X9909Y4375D01*
X9918Y4400D01*
X9931Y4423D01*
X9947Y4444D01*
X9966Y4462D01*
X9988Y4478D01*
X10011Y4490D01*
X10036Y4498D01*
X10062Y4503D01*
X10089Y4504D01*
X10115Y4501D01*
X10140Y4494D01*
X10165Y4484D01*
X10187Y4470D01*
X10208Y4453D01*
X10225Y4434D01*
X10240Y4412D01*
X10251Y4388D01*
X10259Y4362D01*
X10263Y4336D01*
X10263Y4310D01*
X10259Y4284D01*
X10251Y4258D01*
X10240Y4234D01*
X10225Y4212D01*
X10208Y4193D01*
X10187Y4176D01*
X10165Y4162D01*
X10140Y4152D01*
X10115Y4145D01*
X10089Y4142D01*
X10062Y4143D01*
X10036Y4148D01*
X10011Y4156D01*
X9988Y4168D01*
X9966Y4184D01*
X9947Y4202D01*
X9931Y4223D01*
X9918Y4246D01*
X9909Y4271D01*
X9903Y4297D01*
X9901Y4323D01*
X9393Y3820D02*
X9393Y3537D01*
X9450Y3480D01*
X9564Y3480D01*
X9620Y3537D01*
X9620Y3820D01*
X9762Y3707D02*
X9875Y3820D01*
X9875Y3480D01*
X9762Y3480D02*
X9989Y3480D01*
X19140Y16599D02*
X20399Y16599D01*
X19140Y16599D02*
X19140Y16796D01*
X21581Y16599D02*
X22840Y16599D01*
X22840Y21993D01*
X19140Y21993D01*
X19140Y18764D01*
X21755Y16123D02*
X21812Y16066D01*
X21869Y16066D01*
X21926Y16123D01*
X21926Y16406D01*
X21982Y16406D02*
X21869Y16406D01*
X22124Y16293D02*
X22237Y16406D01*
X22237Y16066D01*
X22124Y16066D02*
X22351Y16066D01*
D90*
X24250Y17701D03*
D12*
X24495Y17400D02*
X24835Y17400D01*
X24495Y17400D02*
X24495Y17570D01*
X24551Y17627D01*
X24665Y17627D01*
X24722Y17570D01*
X24722Y17400D01*
X24835Y17768D02*
X24495Y17768D01*
X24722Y17882D02*
X24835Y17768D01*
X24722Y17882D02*
X24835Y17995D01*
X24495Y17995D01*
X24495Y18137D02*
X24835Y18137D01*
X24495Y18137D02*
X24495Y18307D01*
X24551Y18364D01*
X24665Y18364D01*
X24722Y18307D01*
X24722Y18137D01*
X24722Y18250D02*
X24835Y18364D01*
X7340Y19768D02*
X7000Y19768D01*
X7000Y19655D02*
X7000Y19882D01*
X7000Y20023D02*
X7340Y20023D01*
X7000Y20023D02*
X7000Y20194D01*
X7056Y20250D01*
X7170Y20250D01*
X7227Y20194D01*
X7227Y20023D01*
X7340Y20562D02*
X7000Y20562D01*
X7170Y20392D01*
X7170Y20619D01*
X4236Y14871D02*
X4236Y13689D01*
X3684Y13689D01*
X3684Y14871D01*
X4236Y14871D01*
X3400Y14949D02*
X3402Y14967D01*
X3408Y14985D01*
X3417Y15001D01*
X3429Y15014D01*
X3444Y15025D01*
X3461Y15033D01*
X3479Y15037D01*
X3497Y15037D01*
X3515Y15033D01*
X3532Y15025D01*
X3547Y15014D01*
X3559Y15001D01*
X3568Y14985D01*
X3574Y14967D01*
X3576Y14949D01*
X3574Y14931D01*
X3568Y14913D01*
X3559Y14897D01*
X3547Y14884D01*
X3532Y14873D01*
X3515Y14865D01*
X3497Y14861D01*
X3479Y14861D01*
X3461Y14865D01*
X3444Y14873D01*
X3429Y14884D01*
X3417Y14897D01*
X3408Y14913D01*
X3402Y14931D01*
X3400Y14949D01*
X3664Y13625D02*
X3664Y13341D01*
X3721Y13285D01*
X3834Y13285D01*
X3891Y13341D01*
X3891Y13625D01*
X4032Y13285D02*
X4259Y13285D01*
X4259Y13511D02*
X4032Y13285D01*
X4259Y13511D02*
X4259Y13568D01*
X4202Y13625D01*
X4089Y13625D01*
X4032Y13568D01*
D14*
X4420Y13660D02*
X5060Y13660D01*
X5060Y13340D01*
X4420Y13340D01*
X4420Y13660D01*
D12*
X5335Y13662D02*
X5392Y13605D01*
X5335Y13662D02*
X5222Y13662D01*
X5165Y13605D01*
X5165Y13379D01*
X5222Y13322D01*
X5335Y13322D01*
X5392Y13379D01*
X5533Y13605D02*
X5590Y13662D01*
X5703Y13662D01*
X5760Y13605D01*
X5760Y13549D01*
X5703Y13492D01*
X5760Y13435D01*
X5760Y13379D01*
X5703Y13322D01*
X5590Y13322D01*
X5533Y13379D01*
X5533Y13435D01*
X5590Y13492D01*
X5533Y13549D01*
X5533Y13605D01*
X5590Y13492D02*
X5703Y13492D01*
D14*
X2940Y12980D02*
X2940Y14180D01*
X2940Y12980D02*
X2340Y12980D01*
X2340Y14180D01*
X2940Y14180D01*
D12*
X1991Y13465D02*
X1935Y13409D01*
X1935Y13295D01*
X1991Y13238D01*
X2218Y13238D01*
X2275Y13295D01*
X2275Y13409D01*
X2218Y13465D01*
X2275Y13607D02*
X2275Y13834D01*
X2275Y13607D02*
X2048Y13834D01*
X1991Y13834D01*
X1935Y13777D01*
X1935Y13663D01*
X1991Y13607D01*
D14*
X4440Y15460D02*
X5280Y15460D01*
X5280Y15020D01*
X4440Y15020D01*
X4440Y15460D01*
D12*
X5380Y15410D02*
X5380Y15070D01*
X5380Y15410D02*
X5550Y15410D01*
X5607Y15354D01*
X5607Y15240D01*
X5550Y15183D01*
X5380Y15183D01*
X5493Y15183D02*
X5607Y15070D01*
X5748Y15410D02*
X5975Y15410D01*
X5748Y15410D02*
X5748Y15240D01*
X5862Y15297D01*
X5918Y15297D01*
X5975Y15240D01*
X5975Y15127D01*
X5918Y15070D01*
X5805Y15070D01*
X5748Y15127D01*
D14*
X5640Y14500D02*
X4800Y14500D01*
X5640Y14500D02*
X5640Y14060D01*
X4800Y14060D01*
X4800Y14500D01*
D12*
X5728Y14425D02*
X5728Y14085D01*
X5728Y14425D02*
X5899Y14425D01*
X5955Y14369D01*
X5955Y14255D01*
X5899Y14198D01*
X5728Y14198D01*
X5842Y14198D02*
X5955Y14085D01*
X6210Y14369D02*
X6324Y14425D01*
X6210Y14369D02*
X6097Y14255D01*
X6097Y14142D01*
X6153Y14085D01*
X6267Y14085D01*
X6324Y14142D01*
X6324Y14198D01*
X6267Y14255D01*
X6097Y14255D01*
D14*
X5120Y15880D02*
X4480Y15880D01*
X5120Y15880D02*
X5120Y15560D01*
X4480Y15560D01*
X4480Y15880D01*
D12*
X5450Y15890D02*
X5507Y15834D01*
X5450Y15890D02*
X5337Y15890D01*
X5280Y15834D01*
X5280Y15607D01*
X5337Y15550D01*
X5450Y15550D01*
X5507Y15607D01*
X5648Y15777D02*
X5762Y15890D01*
X5762Y15550D01*
X5875Y15550D02*
X5648Y15550D01*
X6130Y15834D02*
X6243Y15890D01*
X6130Y15834D02*
X6017Y15720D01*
X6017Y15607D01*
X6073Y15550D01*
X6187Y15550D01*
X6243Y15607D01*
X6243Y15663D01*
X6187Y15720D01*
X6017Y15720D01*
D14*
X3180Y12600D02*
X3180Y11400D01*
X3180Y12600D02*
X3780Y12600D01*
X3780Y11400D01*
X3180Y11400D01*
D12*
X2750Y11855D02*
X2806Y11912D01*
X2750Y11855D02*
X2750Y11742D01*
X2806Y11685D01*
X3033Y11685D01*
X3090Y11742D01*
X3090Y11855D01*
X3033Y11912D01*
X3090Y12223D02*
X2750Y12223D01*
X2920Y12053D01*
X2920Y12280D01*
X17400Y14220D02*
X17400Y14620D01*
X17400Y14720D01*
X17400Y14620D02*
X17650Y14620D01*
X17400Y14620D02*
X17150Y14620D01*
X17400Y14620D02*
X17650Y14320D01*
X17600Y14320D02*
X17400Y14620D01*
X17550Y14320D01*
X17500Y14320D02*
X17400Y14620D01*
X17450Y14320D01*
X17150Y14320D02*
X17400Y14620D01*
X17200Y14320D01*
X17250Y14320D02*
X17400Y14620D01*
X17300Y14320D01*
X17350Y14320D02*
X17400Y14620D01*
X17650Y14320D02*
X17150Y14320D01*
X16580Y14070D02*
X16580Y11370D01*
X16840Y11370D01*
X18220Y11370D02*
X18220Y14070D01*
X17960Y14070D01*
X16840Y14070D02*
X16580Y14070D01*
X17960Y11370D02*
X18220Y11370D01*
X18375Y12431D02*
X18431Y12487D01*
X18375Y12431D02*
X18375Y12317D01*
X18431Y12261D01*
X18658Y12261D01*
X18715Y12317D01*
X18715Y12431D01*
X18658Y12487D01*
X18715Y12629D02*
X18375Y12629D01*
X18375Y12799D01*
X18431Y12856D01*
X18545Y12856D01*
X18602Y12799D01*
X18602Y12629D01*
X18602Y12742D02*
X18715Y12856D01*
X18488Y12997D02*
X18375Y13111D01*
X18715Y13111D01*
X18715Y13224D02*
X18715Y12997D01*
D14*
X10104Y14589D02*
X10104Y15771D01*
X10656Y15771D01*
X10656Y14589D01*
X10104Y14589D01*
X10764Y14511D02*
X10766Y14529D01*
X10772Y14547D01*
X10781Y14563D01*
X10793Y14576D01*
X10808Y14587D01*
X10825Y14595D01*
X10843Y14599D01*
X10861Y14599D01*
X10879Y14595D01*
X10896Y14587D01*
X10911Y14576D01*
X10923Y14563D01*
X10932Y14547D01*
X10938Y14529D01*
X10940Y14511D01*
X10938Y14493D01*
X10932Y14475D01*
X10923Y14459D01*
X10911Y14446D01*
X10896Y14435D01*
X10879Y14427D01*
X10861Y14423D01*
X10843Y14423D01*
X10825Y14427D01*
X10808Y14435D01*
X10793Y14446D01*
X10781Y14459D01*
X10772Y14475D01*
X10766Y14493D01*
X10764Y14511D01*
D12*
X10103Y14489D02*
X10103Y14205D01*
X10160Y14149D01*
X10274Y14149D01*
X10330Y14205D01*
X10330Y14489D01*
X10642Y14489D02*
X10642Y14149D01*
X10472Y14319D02*
X10642Y14489D01*
X10699Y14319D02*
X10472Y14319D01*
D14*
X9740Y15880D02*
X9740Y16520D01*
X10060Y16520D01*
X10060Y15880D01*
X9740Y15880D01*
D12*
X10115Y16135D02*
X10171Y16192D01*
X10115Y16135D02*
X10115Y16022D01*
X10171Y15965D01*
X10398Y15965D01*
X10455Y16022D01*
X10455Y16135D01*
X10398Y16192D01*
X10115Y16333D02*
X10115Y16560D01*
X10171Y16560D01*
X10398Y16333D01*
X10455Y16333D01*
D14*
X10200Y12600D02*
X10200Y11400D01*
X10200Y12600D02*
X10800Y12600D01*
X10800Y11400D01*
X10200Y11400D01*
D12*
X9745Y11800D02*
X9801Y11857D01*
X9745Y11800D02*
X9745Y11687D01*
X9801Y11630D01*
X10028Y11630D01*
X10085Y11687D01*
X10085Y11800D01*
X10028Y11857D01*
X9801Y11998D02*
X9745Y12055D01*
X9745Y12168D01*
X9801Y12225D01*
X9858Y12225D01*
X9915Y12168D01*
X9915Y12112D01*
X9915Y12168D02*
X9972Y12225D01*
X10028Y12225D01*
X10085Y12168D01*
X10085Y12055D01*
X10028Y11998D01*
D14*
X9580Y15120D02*
X9580Y15960D01*
X9580Y15120D02*
X9140Y15120D01*
X9140Y15960D01*
X9580Y15960D01*
D12*
X9065Y15270D02*
X8725Y15270D01*
X8725Y15440D01*
X8781Y15497D01*
X8895Y15497D01*
X8952Y15440D01*
X8952Y15270D01*
X8952Y15383D02*
X9065Y15497D01*
X8838Y15638D02*
X8725Y15752D01*
X9065Y15752D01*
X9065Y15865D02*
X9065Y15638D01*
X9008Y16007D02*
X8781Y16007D01*
X8725Y16063D01*
X8725Y16177D01*
X8781Y16233D01*
X9008Y16233D01*
X9065Y16177D01*
X9065Y16063D01*
X9008Y16007D01*
X8781Y16233D01*
D14*
X11280Y15940D02*
X12120Y15940D01*
X12120Y15500D01*
X11280Y15500D01*
X11280Y15940D01*
D12*
X11438Y15365D02*
X11438Y15025D01*
X11438Y15365D02*
X11609Y15365D01*
X11665Y15309D01*
X11665Y15195D01*
X11609Y15138D01*
X11438Y15138D01*
X11552Y15138D02*
X11665Y15025D01*
X11807Y15082D02*
X11863Y15025D01*
X11977Y15025D01*
X12034Y15082D01*
X12034Y15309D01*
X11977Y15365D01*
X11863Y15365D01*
X11807Y15309D01*
X11807Y15252D01*
X11863Y15195D01*
X12034Y15195D01*
D14*
X3180Y14420D02*
X2340Y14420D01*
X2340Y14860D01*
X3180Y14860D01*
X3180Y14420D01*
D12*
X1658Y14490D02*
X1658Y14830D01*
X1829Y14830D01*
X1885Y14774D01*
X1885Y14660D01*
X1829Y14603D01*
X1658Y14603D01*
X1772Y14603D02*
X1885Y14490D01*
X2027Y14774D02*
X2083Y14830D01*
X2197Y14830D01*
X2254Y14774D01*
X2254Y14717D01*
X2197Y14660D01*
X2254Y14603D01*
X2254Y14547D01*
X2197Y14490D01*
X2083Y14490D01*
X2027Y14547D01*
X2027Y14603D01*
X2083Y14660D01*
X2027Y14717D01*
X2027Y14774D01*
X2083Y14660D02*
X2197Y14660D01*
X20614Y12656D02*
X20954Y12656D01*
X20614Y12656D02*
X20614Y12883D01*
X20784Y12769D02*
X20784Y12656D01*
X20954Y13024D02*
X20614Y13024D01*
X20614Y13194D01*
X20670Y13251D01*
X20727Y13251D01*
X20784Y13194D01*
X20840Y13251D01*
X20897Y13251D01*
X20954Y13194D01*
X20954Y13024D01*
X20784Y13024D02*
X20784Y13194D01*
X20727Y13392D02*
X20614Y13506D01*
X20954Y13506D01*
X20954Y13619D02*
X20954Y13392D01*
X20407Y12626D02*
X20067Y12626D01*
X20067Y12853D01*
X20237Y12740D02*
X20237Y12626D01*
X20407Y12995D02*
X20067Y12995D01*
X20067Y13165D01*
X20123Y13222D01*
X20180Y13222D01*
X20237Y13165D01*
X20293Y13222D01*
X20350Y13222D01*
X20407Y13165D01*
X20407Y12995D01*
X20237Y12995D02*
X20237Y13165D01*
X20407Y13363D02*
X20407Y13590D01*
X20407Y13363D02*
X20180Y13590D01*
X20123Y13590D01*
X20067Y13533D01*
X20067Y13420D01*
X20123Y13363D01*
X19867Y12595D02*
X19527Y12595D01*
X19527Y12821D01*
X19697Y12708D02*
X19697Y12595D01*
X19867Y12963D02*
X19527Y12963D01*
X19527Y13133D01*
X19583Y13190D01*
X19640Y13190D01*
X19697Y13133D01*
X19753Y13190D01*
X19810Y13190D01*
X19867Y13133D01*
X19867Y12963D01*
X19697Y12963D02*
X19697Y13133D01*
X19583Y13331D02*
X19527Y13388D01*
X19527Y13501D01*
X19583Y13558D01*
X19640Y13558D01*
X19697Y13501D01*
X19697Y13445D01*
X19697Y13501D02*
X19753Y13558D01*
X19810Y13558D01*
X19867Y13501D01*
X19867Y13388D01*
X19810Y13331D01*
X18000Y17100D02*
X18000Y17900D01*
X15900Y17000D02*
X15100Y17000D01*
X15900Y17000D02*
X16000Y17100D01*
X15900Y18000D02*
X15100Y18000D01*
X15900Y18000D02*
X16000Y17900D01*
X15100Y18000D02*
X15000Y17900D01*
X15000Y17100D02*
X15100Y17000D01*
X15000Y17100D02*
X15000Y17900D01*
X16000Y17100D02*
X16100Y17000D01*
X16900Y17000D01*
X17000Y17100D01*
X17100Y17000D01*
X17900Y17000D02*
X18000Y17100D01*
X17900Y17000D02*
X17100Y17000D01*
X16100Y18000D02*
X16000Y17900D01*
X16900Y18000D02*
X17000Y17900D01*
X17100Y18000D01*
X17900Y18000D02*
X18000Y17900D01*
X16900Y18000D02*
X16100Y18000D01*
X17100Y18000D02*
X17900Y18000D01*
D14*
X17279Y18525D02*
X17166Y18412D01*
X17279Y18525D02*
X17279Y18185D01*
X17166Y18185D02*
X17393Y18185D01*
X16393Y18185D02*
X16166Y18185D01*
X16393Y18412D01*
X16393Y18469D01*
X16336Y18525D01*
X16223Y18525D01*
X16166Y18469D01*
X15223Y18525D02*
X15166Y18469D01*
X15223Y18525D02*
X15336Y18525D01*
X15393Y18469D01*
X15393Y18412D01*
X15336Y18355D01*
X15279Y18355D01*
X15336Y18355D02*
X15393Y18298D01*
X15393Y18242D01*
X15336Y18185D01*
X15223Y18185D01*
X15166Y18242D01*
D12*
X18388Y17065D02*
X18445Y17122D01*
X18445Y17178D01*
X18388Y17235D01*
X18105Y17235D01*
X18105Y17178D02*
X18105Y17292D01*
X18105Y17433D02*
X18445Y17433D01*
X18105Y17433D02*
X18105Y17603D01*
X18161Y17660D01*
X18275Y17660D01*
X18332Y17603D01*
X18332Y17433D01*
X18218Y17802D02*
X18105Y17915D01*
X18445Y17915D01*
X18445Y17802D02*
X18445Y18028D01*
X5700Y17900D02*
X5700Y17100D01*
X3600Y17000D02*
X2800Y17000D01*
X3600Y17000D02*
X3700Y17100D01*
X3600Y18000D02*
X2800Y18000D01*
X3600Y18000D02*
X3700Y17900D01*
X2800Y18000D02*
X2700Y17900D01*
X2700Y17100D02*
X2800Y17000D01*
X2700Y17100D02*
X2700Y17900D01*
X3700Y17100D02*
X3800Y17000D01*
X4600Y17000D01*
X4700Y17100D01*
X4800Y17000D01*
X5600Y17000D02*
X5700Y17100D01*
X5600Y17000D02*
X4800Y17000D01*
X3800Y18000D02*
X3700Y17900D01*
X4600Y18000D02*
X4700Y17900D01*
X4800Y18000D01*
X5600Y18000D02*
X5700Y17900D01*
X4600Y18000D02*
X3800Y18000D01*
X4800Y18000D02*
X5600Y18000D01*
D14*
X4979Y18525D02*
X4866Y18412D01*
X4979Y18525D02*
X4979Y18185D01*
X4866Y18185D02*
X5093Y18185D01*
X4093Y18185D02*
X3866Y18185D01*
X4093Y18412D01*
X4093Y18469D01*
X4036Y18525D01*
X3923Y18525D01*
X3866Y18469D01*
X2923Y18525D02*
X2866Y18469D01*
X2923Y18525D02*
X3036Y18525D01*
X3093Y18469D01*
X3093Y18412D01*
X3036Y18355D01*
X2979Y18355D01*
X3036Y18355D02*
X3093Y18298D01*
X3093Y18242D01*
X3036Y18185D01*
X2923Y18185D01*
X2866Y18242D01*
D12*
X6128Y17016D02*
X6185Y17073D01*
X6185Y17130D01*
X6128Y17186D01*
X5845Y17186D01*
X5845Y17130D02*
X5845Y17243D01*
X5845Y17384D02*
X6185Y17384D01*
X5845Y17384D02*
X5845Y17555D01*
X5901Y17611D01*
X6015Y17611D01*
X6071Y17555D01*
X6071Y17384D01*
X6185Y17753D02*
X6185Y17980D01*
X6185Y17753D02*
X5958Y17980D01*
X5901Y17980D01*
X5845Y17923D01*
X5845Y17810D01*
X5901Y17753D01*
X10900Y17900D02*
X10900Y17100D01*
X8800Y17000D02*
X8000Y17000D01*
X8800Y17000D02*
X8900Y17100D01*
X8800Y18000D02*
X8000Y18000D01*
X8800Y18000D02*
X8900Y17900D01*
X8000Y18000D02*
X7900Y17900D01*
X7900Y17100D02*
X8000Y17000D01*
X7900Y17100D02*
X7900Y17900D01*
X8900Y17100D02*
X9000Y17000D01*
X9800Y17000D01*
X9900Y17100D01*
X10000Y17000D01*
X10800Y17000D02*
X10900Y17100D01*
X10800Y17000D02*
X10000Y17000D01*
X9000Y18000D02*
X8900Y17900D01*
X9800Y18000D02*
X9900Y17900D01*
X10000Y18000D01*
X10800Y18000D02*
X10900Y17900D01*
X9800Y18000D02*
X9000Y18000D01*
X10000Y18000D02*
X10800Y18000D01*
D14*
X10179Y18525D02*
X10066Y18412D01*
X10179Y18525D02*
X10179Y18185D01*
X10066Y18185D02*
X10293Y18185D01*
X9293Y18185D02*
X9066Y18185D01*
X9293Y18412D01*
X9293Y18469D01*
X9236Y18525D01*
X9123Y18525D01*
X9066Y18469D01*
X8123Y18525D02*
X8066Y18469D01*
X8123Y18525D02*
X8236Y18525D01*
X8293Y18469D01*
X8293Y18412D01*
X8236Y18355D01*
X8179Y18355D01*
X8236Y18355D02*
X8293Y18298D01*
X8293Y18242D01*
X8236Y18185D01*
X8123Y18185D01*
X8066Y18242D01*
D12*
X11318Y16985D02*
X11375Y17042D01*
X11375Y17098D01*
X11318Y17155D01*
X11035Y17155D01*
X11035Y17098D02*
X11035Y17212D01*
X11035Y17353D02*
X11375Y17353D01*
X11035Y17353D02*
X11035Y17523D01*
X11091Y17580D01*
X11205Y17580D01*
X11262Y17523D01*
X11262Y17353D01*
X11091Y17722D02*
X11035Y17778D01*
X11035Y17892D01*
X11091Y17948D01*
X11148Y17948D01*
X11205Y17892D01*
X11205Y17835D01*
X11205Y17892D02*
X11262Y17948D01*
X11318Y17948D01*
X11375Y17892D01*
X11375Y17778D01*
X11318Y17722D01*
D14*
X5280Y15980D02*
X4440Y15980D01*
X4440Y16420D01*
X5280Y16420D01*
X5280Y15980D01*
D12*
X5378Y16055D02*
X5378Y16395D01*
X5549Y16395D01*
X5605Y16339D01*
X5605Y16225D01*
X5549Y16168D01*
X5378Y16168D01*
X5492Y16168D02*
X5605Y16055D01*
X5747Y16395D02*
X5974Y16395D01*
X5974Y16339D01*
X5747Y16112D01*
X5747Y16055D01*
D14*
X24049Y13915D02*
X24049Y11967D01*
X21451Y11967D01*
X21451Y13915D01*
X22100Y14565D02*
X23400Y14565D01*
X22100Y14565D02*
X21451Y13915D01*
X23400Y14565D02*
X24049Y13915D01*
D91*
X23750Y14500D02*
X23750Y15000D01*
X23500Y14750D02*
X24000Y14750D01*
D12*
X24296Y12712D02*
X24239Y12655D01*
X24239Y12542D01*
X24296Y12485D01*
X24523Y12485D01*
X24579Y12542D01*
X24579Y12655D01*
X24523Y12712D01*
X24353Y12853D02*
X24239Y12967D01*
X24579Y12967D01*
X24579Y13080D02*
X24579Y12853D01*
X24239Y13222D02*
X24239Y13449D01*
X24296Y13449D01*
X24523Y13222D01*
X24579Y13222D01*
D14*
X14945Y15035D02*
X14945Y16410D01*
X17735Y16410D01*
X17735Y15035D01*
X14945Y15035D01*
D12*
X14819Y15449D02*
X14479Y15449D01*
X14479Y15676D01*
X14649Y15563D02*
X14649Y15449D01*
X14592Y15818D02*
X14479Y15931D01*
X14819Y15931D01*
X14819Y15818D02*
X14819Y16045D01*
D14*
X18830Y14880D02*
X18830Y14240D01*
X18510Y14240D01*
X18510Y14880D01*
X18830Y14880D01*
D12*
X18176Y14652D02*
X18119Y14595D01*
X18119Y14482D01*
X18176Y14425D01*
X18403Y14425D01*
X18459Y14482D01*
X18459Y14595D01*
X18403Y14652D01*
X18232Y14793D02*
X18119Y14907D01*
X18459Y14907D01*
X18459Y15020D02*
X18459Y14793D01*
X18176Y15162D02*
X18119Y15218D01*
X18119Y15332D01*
X18176Y15389D01*
X18232Y15389D01*
X18289Y15332D01*
X18289Y15275D01*
X18289Y15332D02*
X18346Y15389D01*
X18403Y15389D01*
X18459Y15332D01*
X18459Y15218D01*
X18403Y15162D01*
D14*
X11120Y2820D02*
X11120Y1980D01*
X11120Y2820D02*
X11560Y2820D01*
X11560Y1980D01*
X11120Y1980D01*
D12*
X11690Y2045D02*
X12030Y2045D01*
X11690Y2045D02*
X11690Y2215D01*
X11746Y2272D01*
X11860Y2272D01*
X11917Y2215D01*
X11917Y2045D01*
X11917Y2158D02*
X12030Y2272D01*
X12030Y2413D02*
X12030Y2640D01*
X12030Y2413D02*
X11803Y2640D01*
X11746Y2640D01*
X11690Y2583D01*
X11690Y2470D01*
X11746Y2413D01*
D14*
X10380Y6560D02*
X9540Y6560D01*
X9540Y7000D01*
X10380Y7000D01*
X10380Y6560D01*
D12*
X9843Y7085D02*
X9843Y7425D01*
X10014Y7425D01*
X10070Y7369D01*
X10070Y7255D01*
X10014Y7198D01*
X9843Y7198D01*
X9957Y7198D02*
X10070Y7085D01*
X10382Y7085D02*
X10382Y7425D01*
X10212Y7255D01*
X10439Y7255D01*
D14*
X11120Y1080D02*
X11120Y240D01*
X11120Y1080D02*
X11560Y1080D01*
X11560Y240D01*
X11120Y240D01*
D12*
X11680Y285D02*
X12020Y285D01*
X11680Y285D02*
X11680Y455D01*
X11736Y512D01*
X11850Y512D01*
X11907Y455D01*
X11907Y285D01*
X11907Y398D02*
X12020Y512D01*
X11736Y653D02*
X11680Y710D01*
X11680Y823D01*
X11736Y880D01*
X11793Y880D01*
X11850Y823D01*
X11850Y767D01*
X11850Y823D02*
X11907Y880D01*
X11963Y880D01*
X12020Y823D01*
X12020Y710D01*
X11963Y653D01*
X23543Y15140D02*
X23543Y15480D01*
X23430Y15480D02*
X23657Y15480D01*
X23798Y15480D02*
X23798Y15140D01*
X23798Y15480D02*
X23968Y15480D01*
X24025Y15424D01*
X24025Y15310D01*
X23968Y15253D01*
X23798Y15253D01*
X24167Y15424D02*
X24223Y15480D01*
X24337Y15480D01*
X24393Y15424D01*
X24393Y15367D01*
X24337Y15310D01*
X24280Y15310D01*
X24337Y15310D02*
X24393Y15253D01*
X24393Y15197D01*
X24337Y15140D01*
X24223Y15140D01*
X24167Y15197D01*
D14*
X11600Y16100D02*
X11600Y17300D01*
X12200Y17300D01*
X12200Y16100D01*
X11600Y16100D01*
D12*
X11256Y16485D02*
X11200Y16429D01*
X11200Y16315D01*
X11256Y16258D01*
X11483Y16258D01*
X11540Y16315D01*
X11540Y16429D01*
X11483Y16485D01*
X11313Y16627D02*
X11200Y16740D01*
X11540Y16740D01*
X11540Y16627D02*
X11540Y16854D01*
X15076Y21866D02*
X15302Y21866D01*
X15076Y21866D02*
X15076Y21696D01*
X15189Y21753D01*
X15246Y21753D01*
X15302Y21696D01*
X15302Y21582D01*
X15246Y21526D01*
X15132Y21526D01*
X15076Y21582D01*
X15444Y21582D02*
X15444Y21526D01*
X15444Y21582D02*
X15501Y21582D01*
X15501Y21526D01*
X15444Y21526D01*
X15628Y21582D02*
X15628Y21809D01*
X15685Y21866D01*
X15798Y21866D01*
X15855Y21809D01*
X15855Y21582D01*
X15798Y21526D01*
X15685Y21526D01*
X15628Y21582D01*
X15855Y21809D01*
X15996Y21866D02*
X15996Y21639D01*
X16110Y21526D01*
X16223Y21639D01*
X16223Y21866D01*
X15122Y18687D02*
X17878Y18687D01*
X15122Y18687D02*
X15122Y21246D01*
X15465Y21246D01*
X16154Y21246D01*
X16846Y21246D01*
X17535Y21246D01*
X17878Y21246D01*
X17878Y18687D01*
X17535Y20783D02*
X17535Y21246D01*
X17535Y20783D02*
X16846Y20783D01*
X16846Y21246D01*
X16154Y21246D02*
X16154Y20783D01*
X15465Y20783D01*
X15465Y21246D01*
X16902Y21866D02*
X16959Y21809D01*
X16902Y21866D02*
X16789Y21866D01*
X16732Y21809D01*
X16732Y21582D01*
X16789Y21526D01*
X16902Y21526D01*
X16959Y21582D01*
X16959Y21696D01*
X16846Y21696D01*
X17100Y21526D02*
X17100Y21866D01*
X17327Y21526D01*
X17327Y21866D01*
X17469Y21866D02*
X17469Y21526D01*
X17639Y21526D01*
X17696Y21582D01*
X17696Y21809D01*
X17639Y21866D01*
X17469Y21866D01*
X14683Y19234D02*
X14626Y19177D01*
X14626Y19064D01*
X14683Y19007D01*
X14740Y19007D01*
X14796Y19064D01*
X14796Y19177D01*
X14853Y19234D01*
X14910Y19234D01*
X14966Y19177D01*
X14966Y19064D01*
X14910Y19007D01*
X14966Y19375D02*
X14966Y19602D01*
X14740Y19602D02*
X14966Y19375D01*
X14740Y19602D02*
X14683Y19602D01*
X14626Y19545D01*
X14626Y19432D01*
X14683Y19375D01*
X2562Y21866D02*
X2506Y21809D01*
X2562Y21866D02*
X2676Y21866D01*
X2732Y21809D01*
X2732Y21753D01*
X2676Y21696D01*
X2619Y21696D01*
X2676Y21696D02*
X2732Y21639D01*
X2732Y21582D01*
X2676Y21526D01*
X2562Y21526D01*
X2506Y21582D01*
X2874Y21582D02*
X2874Y21526D01*
X2874Y21582D02*
X2931Y21582D01*
X2931Y21526D01*
X2874Y21526D01*
X3058Y21866D02*
X3285Y21866D01*
X3058Y21866D02*
X3058Y21696D01*
X3171Y21753D01*
X3228Y21753D01*
X3285Y21696D01*
X3285Y21582D01*
X3228Y21526D01*
X3115Y21526D01*
X3058Y21582D01*
X3426Y21639D02*
X3426Y21866D01*
X3426Y21639D02*
X3540Y21526D01*
X3653Y21639D01*
X3653Y21866D01*
X2552Y18687D02*
X5308Y18687D01*
X2552Y18687D02*
X2552Y21246D01*
X2895Y21246D01*
X3584Y21246D01*
X4276Y21246D01*
X4965Y21246D01*
X5308Y21246D01*
X5308Y18687D01*
X4965Y20783D02*
X4965Y21246D01*
X4965Y20783D02*
X4276Y20783D01*
X4276Y21246D01*
X3584Y21246D02*
X3584Y20783D01*
X2895Y20783D01*
X2895Y21246D01*
X4332Y21866D02*
X4389Y21809D01*
X4332Y21866D02*
X4219Y21866D01*
X4162Y21809D01*
X4162Y21582D01*
X4219Y21526D01*
X4332Y21526D01*
X4389Y21582D01*
X4389Y21696D01*
X4276Y21696D01*
X4530Y21526D02*
X4530Y21866D01*
X4757Y21526D01*
X4757Y21866D01*
X4899Y21866D02*
X4899Y21526D01*
X5069Y21526D01*
X5126Y21582D01*
X5126Y21809D01*
X5069Y21866D01*
X4899Y21866D01*
X2176Y19302D02*
X2120Y19245D01*
X2120Y19132D01*
X2176Y19075D01*
X2233Y19075D01*
X2290Y19132D01*
X2290Y19245D01*
X2347Y19302D01*
X2403Y19302D01*
X2460Y19245D01*
X2460Y19132D01*
X2403Y19075D01*
X2460Y19613D02*
X2120Y19613D01*
X2290Y19443D01*
X2290Y19670D01*
X8076Y21809D02*
X8132Y21866D01*
X8246Y21866D01*
X8302Y21809D01*
X8302Y21753D01*
X8246Y21696D01*
X8189Y21696D01*
X8246Y21696D02*
X8302Y21639D01*
X8302Y21582D01*
X8246Y21526D01*
X8132Y21526D01*
X8076Y21582D01*
X8444Y21582D02*
X8444Y21526D01*
X8444Y21582D02*
X8501Y21582D01*
X8501Y21526D01*
X8444Y21526D01*
X8628Y21809D02*
X8685Y21866D01*
X8798Y21866D01*
X8855Y21809D01*
X8855Y21753D01*
X8798Y21696D01*
X8741Y21696D01*
X8798Y21696D02*
X8855Y21639D01*
X8855Y21582D01*
X8798Y21526D01*
X8685Y21526D01*
X8628Y21582D01*
X8996Y21639D02*
X8996Y21866D01*
X8996Y21639D02*
X9110Y21526D01*
X9223Y21639D01*
X9223Y21866D01*
X8122Y18687D02*
X10878Y18687D01*
X8122Y18687D02*
X8122Y21246D01*
X8465Y21246D01*
X9154Y21246D01*
X9846Y21246D01*
X10535Y21246D01*
X10878Y21246D01*
X10878Y18687D01*
X10535Y20783D02*
X10535Y21246D01*
X10535Y20783D02*
X9846Y20783D01*
X9846Y21246D01*
X9154Y21246D02*
X9154Y20783D01*
X8465Y20783D01*
X8465Y21246D01*
X9902Y21866D02*
X9959Y21809D01*
X9902Y21866D02*
X9789Y21866D01*
X9732Y21809D01*
X9732Y21582D01*
X9789Y21526D01*
X9902Y21526D01*
X9959Y21582D01*
X9959Y21696D01*
X9846Y21696D01*
X10100Y21526D02*
X10100Y21866D01*
X10327Y21526D01*
X10327Y21866D01*
X10469Y21866D02*
X10469Y21526D01*
X10639Y21526D01*
X10696Y21582D01*
X10696Y21809D01*
X10639Y21866D01*
X10469Y21866D01*
X7696Y19272D02*
X7640Y19215D01*
X7640Y19102D01*
X7696Y19045D01*
X7753Y19045D01*
X7810Y19102D01*
X7810Y19215D01*
X7867Y19272D01*
X7923Y19272D01*
X7980Y19215D01*
X7980Y19102D01*
X7923Y19045D01*
X7696Y19413D02*
X7640Y19470D01*
X7640Y19583D01*
X7696Y19640D01*
X7753Y19640D01*
X7810Y19583D01*
X7810Y19527D01*
X7810Y19583D02*
X7867Y19640D01*
X7923Y19640D01*
X7980Y19583D01*
X7980Y19470D01*
X7923Y19413D01*
D14*
X11240Y5300D02*
X11240Y4660D01*
X11240Y5300D02*
X11560Y5300D01*
X11560Y4660D01*
X11240Y4660D01*
D12*
X11301Y4192D02*
X11245Y4135D01*
X11245Y4022D01*
X11301Y3965D01*
X11528Y3965D01*
X11585Y4022D01*
X11585Y4135D01*
X11528Y4192D01*
X11528Y4333D02*
X11585Y4390D01*
X11585Y4503D01*
X11528Y4560D01*
X11301Y4560D01*
X11245Y4503D01*
X11245Y4390D01*
X11301Y4333D01*
X11358Y4333D01*
X11415Y4390D01*
X11415Y4560D01*
D14*
X11560Y5380D02*
X11560Y6020D01*
X11560Y5380D02*
X11240Y5380D01*
X11240Y6020D01*
X11560Y6020D01*
D12*
X11215Y6320D02*
X11271Y6377D01*
X11215Y6320D02*
X11215Y6207D01*
X11271Y6150D01*
X11498Y6150D01*
X11555Y6207D01*
X11555Y6320D01*
X11498Y6377D01*
X11328Y6518D02*
X11215Y6632D01*
X11555Y6632D01*
X11555Y6745D02*
X11555Y6518D01*
X11498Y6887D02*
X11271Y6887D01*
X11215Y6943D01*
X11215Y7057D01*
X11271Y7114D01*
X11498Y7114D01*
X11555Y7057D01*
X11555Y6943D01*
X11498Y6887D01*
X11271Y7114D01*
D14*
X11840Y5300D02*
X11840Y4660D01*
X11840Y5300D02*
X12160Y5300D01*
X12160Y4660D01*
X11840Y4660D01*
D12*
X11901Y3832D02*
X11845Y3775D01*
X11845Y3662D01*
X11901Y3605D01*
X12128Y3605D01*
X12185Y3662D01*
X12185Y3775D01*
X12128Y3832D01*
X11958Y3973D02*
X11845Y4087D01*
X12185Y4087D01*
X12185Y4200D02*
X12185Y3973D01*
X11958Y4342D02*
X11845Y4455D01*
X12185Y4455D01*
X12185Y4342D02*
X12185Y4568D01*
D14*
X12160Y5380D02*
X12160Y6020D01*
X12160Y5380D02*
X11840Y5380D01*
X11840Y6020D01*
X12160Y6020D01*
D12*
X11875Y6320D02*
X11931Y6377D01*
X11875Y6320D02*
X11875Y6207D01*
X11931Y6150D01*
X12158Y6150D01*
X12215Y6207D01*
X12215Y6320D01*
X12158Y6377D01*
X11988Y6518D02*
X11875Y6632D01*
X12215Y6632D01*
X12215Y6745D02*
X12215Y6518D01*
X12215Y6887D02*
X12215Y7114D01*
X12215Y6887D02*
X11988Y7114D01*
X11931Y7114D01*
X11875Y7057D01*
X11875Y6943D01*
X11931Y6887D01*
D14*
X23030Y17080D02*
X23030Y17920D01*
X23470Y17920D01*
X23470Y17080D01*
X23030Y17080D01*
D12*
X23060Y18040D02*
X23400Y18040D01*
X23060Y18040D02*
X23060Y18210D01*
X23116Y18267D01*
X23230Y18267D01*
X23287Y18210D01*
X23287Y18040D01*
X23287Y18153D02*
X23400Y18267D01*
X23400Y18408D02*
X23400Y18635D01*
X23400Y18408D02*
X23173Y18635D01*
X23116Y18635D01*
X23060Y18578D01*
X23060Y18465D01*
X23116Y18408D01*
X23116Y18777D02*
X23343Y18777D01*
X23116Y18777D02*
X23060Y18833D01*
X23060Y18947D01*
X23116Y19003D01*
X23343Y19003D01*
X23400Y18947D01*
X23400Y18833D01*
X23343Y18777D01*
X23116Y19003D01*
X6750Y15103D02*
X6410Y15103D01*
X6410Y14990D02*
X6410Y15217D01*
X6410Y15358D02*
X6750Y15358D01*
X6410Y15358D02*
X6410Y15528D01*
X6466Y15585D01*
X6580Y15585D01*
X6637Y15528D01*
X6637Y15358D01*
X6410Y15727D02*
X6410Y15953D01*
X6410Y15727D02*
X6580Y15727D01*
X6523Y15840D01*
X6523Y15897D01*
X6580Y15953D01*
X6693Y15953D01*
X6750Y15897D01*
X6750Y15783D01*
X6693Y15727D01*
X12540Y16983D02*
X12880Y16983D01*
X12540Y16870D02*
X12540Y17097D01*
X12540Y17238D02*
X12880Y17238D01*
X12540Y17238D02*
X12540Y17408D01*
X12596Y17465D01*
X12710Y17465D01*
X12767Y17408D01*
X12767Y17238D01*
X12596Y17720D02*
X12540Y17833D01*
X12596Y17720D02*
X12710Y17607D01*
X12823Y17607D01*
X12880Y17663D01*
X12880Y17777D01*
X12823Y17833D01*
X12767Y17833D01*
X12710Y17777D01*
X12710Y17607D01*
D27*
X13955Y9650D03*
D26*
X13940Y9660D03*
D36*
X14855Y9660D03*
D27*
X13935Y9670D03*
D36*
X14855Y9670D03*
D26*
X13930Y9680D03*
D38*
X14860Y9680D03*
D27*
X13925Y9690D03*
X14865Y9690D03*
X13925Y9700D03*
D38*
X14870Y9700D03*
D26*
X13920Y9710D03*
D38*
X14870Y9710D03*
D26*
X13920Y9720D03*
D38*
X14880Y9720D03*
D27*
X13915Y9730D03*
X14885Y9730D03*
D26*
X13910Y9740D03*
D27*
X14885Y9740D03*
X13905Y9750D03*
X14885Y9750D03*
X13905Y9760D03*
X14895Y9760D03*
D26*
X13900Y9770D03*
D38*
X14900Y9770D03*
D26*
X13900Y9780D03*
D38*
X14900Y9780D03*
D26*
X13900Y9790D03*
D27*
X14905Y9790D03*
X13895Y9800D03*
X14905Y9800D03*
X13895Y9810D03*
X14905Y9810D03*
X13895Y9820D03*
D38*
X14910Y9820D03*
X14910Y9830D03*
D27*
X14915Y9840D03*
D92*
X14405Y9850D03*
X14405Y9860D03*
X14405Y9870D03*
X14405Y9890D03*
X14405Y9900D03*
X14405Y9910D03*
X14405Y9920D03*
X14405Y9930D03*
X14405Y9940D03*
D25*
X13895Y9950D03*
D27*
X13895Y9960D03*
X13895Y9970D03*
X14915Y9970D03*
X13895Y9980D03*
X14915Y9980D03*
D26*
X13900Y9990D03*
D38*
X14910Y9990D03*
D26*
X13910Y10000D03*
D27*
X14915Y10000D03*
D26*
X13910Y10010D03*
X14910Y10010D03*
D27*
X13915Y10020D03*
X14905Y10020D03*
X13915Y10030D03*
X14905Y10030D03*
X13915Y10040D03*
D38*
X14900Y10040D03*
D27*
X13925Y10050D03*
X14895Y10050D03*
X13925Y10060D03*
X14895Y10060D03*
D26*
X13930Y10070D03*
D27*
X14885Y10070D03*
X13935Y10080D03*
X14885Y10080D03*
X13935Y10090D03*
D38*
X14880Y10090D03*
D93*
X14300Y10100D03*
D15*
X14765Y10100D03*
D36*
X14875Y10100D03*
D94*
X14415Y10110D03*
X14415Y10120D03*
D95*
X14415Y10130D03*
D96*
X14410Y10140D03*
D97*
X14415Y10150D03*
D98*
X14415Y10160D03*
D99*
X14410Y10170D03*
D57*
X14415Y10180D03*
D100*
X14410Y10190D03*
D36*
X14035Y10220D03*
X14795Y10220D03*
X14045Y10230D03*
X14785Y10230D03*
D38*
X14050Y10240D03*
D36*
X14775Y10240D03*
D38*
X14060Y10250D03*
D39*
X14770Y10250D03*
D36*
X14075Y10260D03*
D39*
X14760Y10260D03*
D28*
X14745Y10270D03*
D36*
X14095Y10280D03*
D28*
X14735Y10280D03*
D36*
X14105Y10290D03*
D39*
X14730Y10290D03*
D36*
X14115Y10300D03*
D28*
X14715Y10300D03*
D39*
X14130Y10310D03*
D35*
X14710Y10310D03*
D39*
X14140Y10320D03*
D35*
X14690Y10320D03*
D28*
X14685Y10330D03*
D39*
X14160Y10340D03*
D28*
X14665Y10340D03*
D39*
X14170Y10350D03*
D44*
X14655Y10350D03*
D28*
X14185Y10360D03*
D35*
X14640Y10360D03*
D28*
X14195Y10370D03*
D35*
X14630Y10370D03*
D28*
X14205Y10380D03*
D35*
X14620Y10380D03*
D39*
X14220Y10390D03*
D28*
X14235Y10400D03*
X14245Y10410D03*
D35*
X14590Y10410D03*
X14260Y10420D03*
X14570Y10420D03*
X14270Y10430D03*
D28*
X14285Y10440D03*
X14295Y10450D03*
D31*
X14415Y10460D03*
D30*
X14420Y10470D03*
D62*
X14415Y10480D03*
D80*
X14415Y10490D03*
D45*
X14415Y10500D03*
D60*
X14410Y10510D03*
D40*
X14410Y10520D03*
D44*
X14405Y10530D03*
D42*
X14410Y10540D03*
D83*
X14405Y10550D03*
D81*
X14400Y10560D03*
D62*
X14405Y10570D03*
D43*
X14405Y10580D03*
D30*
X14400Y10590D03*
D32*
X14395Y10600D03*
D40*
X14290Y10610D03*
D44*
X14525Y10610D03*
D35*
X14280Y10620D03*
X14540Y10620D03*
X14260Y10630D03*
D28*
X14555Y10630D03*
D44*
X14245Y10640D03*
D39*
X14570Y10640D03*
D35*
X14230Y10650D03*
D39*
X14580Y10650D03*
D35*
X14220Y10660D03*
D28*
X14595Y10660D03*
X14205Y10670D03*
X14605Y10670D03*
D44*
X14195Y10680D03*
D28*
X14615Y10680D03*
D35*
X14180Y10690D03*
D39*
X14630Y10690D03*
D35*
X14170Y10700D03*
D39*
X14640Y10700D03*
D35*
X14150Y10710D03*
D28*
X14655Y10710D03*
D35*
X14140Y10720D03*
D39*
X14660Y10720D03*
D35*
X14130Y10730D03*
D39*
X14670Y10730D03*
X14120Y10740D03*
D36*
X14685Y10740D03*
D39*
X14110Y10750D03*
D36*
X14695Y10750D03*
D28*
X14095Y10760D03*
D36*
X14705Y10760D03*
D35*
X14080Y10770D03*
D39*
X14720Y10770D03*
X14070Y10780D03*
X14730Y10780D03*
X14060Y10790D03*
D38*
X14740Y10790D03*
D39*
X14050Y10800D03*
D38*
X14750Y10800D03*
D39*
X14040Y10810D03*
D38*
X14760Y10810D03*
D39*
X14030Y10820D03*
D36*
X14765Y10820D03*
D39*
X14020Y10830D03*
D38*
X14770Y10830D03*
D82*
X14305Y10840D03*
D36*
X14785Y10840D03*
D101*
X14395Y10850D03*
D102*
X14395Y10860D03*
D100*
X14400Y10870D03*
D57*
X14395Y10880D03*
D98*
X14395Y10890D03*
D103*
X14390Y10900D03*
D97*
X14395Y10910D03*
D96*
X14400Y10920D03*
D65*
X14400Y10930D03*
D27*
X13935Y10950D03*
D88*
X14520Y11200D03*
D41*
X14125Y11200D03*
D26*
X14860Y10950D03*
D38*
X13930Y10960D03*
D26*
X14860Y10960D03*
D27*
X13925Y10970D03*
X14865Y10970D03*
D38*
X13920Y10980D03*
X14870Y10980D03*
X13920Y10990D03*
D26*
X14880Y10990D03*
D27*
X13915Y11000D03*
D26*
X14880Y11000D03*
D38*
X13910Y11010D03*
D27*
X14885Y11010D03*
D38*
X13910Y11020D03*
D26*
X14890Y11020D03*
D27*
X13905Y11030D03*
X14895Y11030D03*
X13895Y11040D03*
X14895Y11040D03*
X13895Y11050D03*
D26*
X14900Y11050D03*
D38*
X13890Y11060D03*
D26*
X14900Y11060D03*
D38*
X13890Y11070D03*
D26*
X14900Y11070D03*
D27*
X13885Y11080D03*
D26*
X13880Y11090D03*
X14900Y11090D03*
D88*
X14110Y11110D03*
D26*
X14910Y11100D03*
D92*
X14395Y11110D03*
X14395Y11120D03*
X14395Y11140D03*
X14395Y11150D03*
X14395Y11160D03*
X14395Y11170D03*
X14395Y11180D03*
X14395Y11190D03*
D27*
X13885Y11200D03*
D15*
X14245Y11200D03*
D20*
X14180Y11200D03*
D26*
X14340Y11200D03*
D21*
X14465Y11200D03*
D66*
X14755Y11200D03*
D27*
X13885Y11210D03*
X13885Y11220D03*
D38*
X13890Y11230D03*
D27*
X13895Y11240D03*
X14905Y11240D03*
X13895Y11250D03*
X14905Y11250D03*
X13895Y11260D03*
D26*
X14900Y11260D03*
D38*
X13900Y11270D03*
D26*
X14900Y11270D03*
D38*
X13900Y11280D03*
D26*
X14890Y11280D03*
D38*
X13910Y11290D03*
D26*
X14890Y11290D03*
D27*
X13915Y11300D03*
X14885Y11300D03*
X13915Y11310D03*
X14885Y11310D03*
X13915Y11320D03*
D26*
X14880Y11320D03*
D36*
X13925Y11330D03*
D27*
X14875Y11330D03*
D38*
X13930Y11340D03*
D26*
X14870Y11340D03*
D38*
X13930Y11350D03*
D27*
X14865Y11350D03*
D38*
X13940Y11360D03*
D27*
X14855Y11360D03*
D38*
X13940Y11370D03*
D27*
X14855Y11370D03*
X13945Y11380D03*
D41*
X14745Y11390D03*
D27*
X14845Y11380D03*
D29*
X14055Y11390D03*
D15*
X14265Y11390D03*
X14305Y11390D03*
D16*
X14350Y11390D03*
D15*
X14395Y11390D03*
X14435Y11390D03*
D23*
X14670Y11390D03*
D41*
X14695Y11390D03*
D23*
X14720Y11390D03*
D38*
X14840Y11390D03*
D97*
X14395Y11400D03*
D103*
X14400Y11410D03*
D98*
X14395Y11420D03*
D57*
X14395Y11430D03*
X14395Y11440D03*
D102*
X14395Y11450D03*
D101*
X14395Y11460D03*
D36*
X15055Y11460D03*
D104*
X14560Y11470D03*
D105*
X14585Y11480D03*
D36*
X14025Y11490D03*
D63*
X14815Y11490D03*
D36*
X14035Y11500D03*
D106*
X14835Y11500D03*
D36*
X14045Y11510D03*
D107*
X14840Y11510D03*
D36*
X14055Y11520D03*
D100*
X14850Y11520D03*
D39*
X14060Y11530D03*
D98*
X14855Y11530D03*
D39*
X14070Y11540D03*
D97*
X14865Y11540D03*
D39*
X14080Y11550D03*
D65*
X14870Y11550D03*
D39*
X14090Y11560D03*
D108*
X14875Y11560D03*
D39*
X14100Y11570D03*
D59*
X14880Y11570D03*
D39*
X14110Y11580D03*
D109*
X14885Y11580D03*
D39*
X14120Y11590D03*
D69*
X14885Y11590D03*
D39*
X14130Y11600D03*
D110*
X14890Y11600D03*
D28*
X14145Y11610D03*
D111*
X14890Y11610D03*
D28*
X14145Y11620D03*
D112*
X14890Y11620D03*
D39*
X14160Y11630D03*
D113*
X14890Y11630D03*
D114*
X14795Y11640D03*
X14805Y11650D03*
X14815Y11660D03*
X14825Y11670D03*
X14835Y11680D03*
D115*
X14840Y11690D03*
D116*
X14855Y11700D03*
D115*
X14860Y11710D03*
D117*
X14870Y11720D03*
D115*
X14870Y11730D03*
D114*
X14865Y11740D03*
D118*
X14860Y11750D03*
D119*
X14855Y11760D03*
D120*
X14855Y11770D03*
D121*
X14845Y11780D03*
D122*
X14850Y11790D03*
D83*
X14215Y11800D03*
D112*
X15010Y11800D03*
D42*
X14190Y11810D03*
D69*
X15035Y11810D03*
D40*
X14180Y11820D03*
D123*
X15050Y11820D03*
D40*
X14170Y11830D03*
D124*
X15060Y11830D03*
D44*
X14165Y11840D03*
D124*
X15060Y11840D03*
D44*
X14155Y11850D03*
D124*
X15070Y11850D03*
D35*
X14150Y11860D03*
D125*
X15075Y11860D03*
D35*
X14140Y11870D03*
D59*
X15080Y11870D03*
D28*
X14135Y11880D03*
D108*
X15085Y11880D03*
D39*
X14130Y11890D03*
D108*
X15095Y11890D03*
D36*
X14125Y11900D03*
D126*
X15100Y11900D03*
D36*
X14115Y11910D03*
D65*
X15100Y11910D03*
D38*
X14110Y11920D03*
D65*
X15110Y11920D03*
D27*
X14105Y11930D03*
D95*
X15115Y11930D03*
D26*
X14100Y11940D03*
D96*
X15120Y11940D03*
D25*
X14095Y11950D03*
D88*
X14420Y11950D03*
D97*
X15125Y11950D03*
D37*
X14090Y11960D03*
D41*
X14425Y11960D03*
D127*
X15305Y11960D03*
D21*
X13525Y11970D03*
D37*
X14080Y11970D03*
D23*
X14430Y11970D03*
D85*
X15310Y11970D03*
D83*
X13515Y11980D03*
D24*
X14075Y11980D03*
D23*
X14430Y11980D03*
D50*
X15315Y11980D03*
D29*
X13515Y11990D03*
D22*
X14070Y11990D03*
D15*
X14435Y11990D03*
D128*
X15320Y11990D03*
D129*
X13510Y12000D03*
D21*
X14065Y12000D03*
D16*
X14440Y12000D03*
D130*
X15325Y12000D03*
D131*
X13505Y12010D03*
D20*
X14060Y12010D03*
D17*
X14445Y12010D03*
D86*
X15325Y12010D03*
D132*
X13505Y12020D03*
D19*
X14055Y12020D03*
D88*
X14290Y12020D03*
D18*
X14450Y12020D03*
D49*
X15330Y12020D03*
D128*
X13500Y12030D03*
D18*
X14050Y12030D03*
D41*
X14285Y12030D03*
D19*
X14455Y12030D03*
D132*
X15335Y12030D03*
D133*
X13505Y12040D03*
D18*
X14040Y12040D03*
D23*
X14280Y12040D03*
D20*
X14460Y12040D03*
D134*
X15340Y12040D03*
D135*
X13495Y12050D03*
D17*
X14035Y12050D03*
D15*
X14275Y12050D03*
D21*
X14465Y12050D03*
D136*
X15345Y12050D03*
D137*
X13500Y12060D03*
D17*
X14025Y12060D03*
D16*
X14270Y12060D03*
D22*
X14470Y12060D03*
D138*
X15345Y12060D03*
D53*
X13500Y12070D03*
D17*
X14015Y12070D03*
X14265Y12070D03*
D24*
X14475Y12070D03*
D138*
X15355Y12070D03*
D139*
X13495Y12080D03*
D18*
X14000Y12080D03*
X14260Y12080D03*
D37*
X14480Y12080D03*
D27*
X14815Y12080D03*
D48*
X15360Y12080D03*
D101*
X13545Y12090D03*
D20*
X14260Y12090D03*
D26*
X14490Y12090D03*
D27*
X14825Y12090D03*
D131*
X15365Y12090D03*
D107*
X13530Y12100D03*
D20*
X14250Y12100D03*
D26*
X14490Y12100D03*
D27*
X14835Y12100D03*
D131*
X15375Y12100D03*
D102*
X13515Y12110D03*
D21*
X14245Y12110D03*
D27*
X14495Y12110D03*
X14845Y12110D03*
D131*
X15385Y12110D03*
D102*
X13505Y12120D03*
D22*
X14240Y12120D03*
D38*
X14500Y12120D03*
D27*
X14855Y12120D03*
D131*
X15395Y12120D03*
D102*
X13495Y12130D03*
D24*
X14235Y12130D03*
D36*
X14505Y12130D03*
D27*
X14865Y12130D03*
D48*
X15410Y12130D03*
D102*
X13485Y12140D03*
D37*
X14230Y12140D03*
D39*
X14510Y12140D03*
D27*
X14875Y12140D03*
D136*
X15435Y12140D03*
D100*
X13470Y12150D03*
D25*
X14225Y12150D03*
D28*
X14515Y12150D03*
D27*
X14885Y12150D03*
D132*
X15455Y12150D03*
D100*
X13460Y12160D03*
D26*
X14220Y12160D03*
D35*
X14520Y12160D03*
D27*
X14895Y12160D03*
D49*
X15470Y12160D03*
D100*
X13450Y12170D03*
D26*
X14220Y12170D03*
D44*
X14525Y12170D03*
D27*
X14905Y12170D03*
D86*
X15485Y12170D03*
D100*
X13440Y12180D03*
D26*
X14220Y12180D03*
D40*
X14530Y12180D03*
D27*
X14915Y12180D03*
D86*
X15495Y12180D03*
D102*
X13435Y12190D03*
D26*
X14220Y12190D03*
D56*
X14535Y12190D03*
D27*
X14925Y12190D03*
D140*
X15510Y12190D03*
D102*
X13425Y12200D03*
D26*
X14220Y12200D03*
D42*
X14540Y12200D03*
D27*
X14935Y12200D03*
D30*
X15640Y12200D03*
D102*
X13415Y12210D03*
D26*
X14220Y12210D03*
D58*
X14545Y12210D03*
D27*
X14945Y12210D03*
D30*
X15650Y12210D03*
D102*
X13405Y12220D03*
D26*
X14220Y12220D03*
D60*
X14550Y12220D03*
D27*
X14955Y12220D03*
D30*
X15660Y12220D03*
D102*
X13395Y12230D03*
D26*
X14220Y12230D03*
D83*
X14555Y12230D03*
D27*
X14965Y12230D03*
D30*
X15670Y12230D03*
D107*
X13390Y12240D03*
D26*
X14220Y12240D03*
D34*
X14560Y12240D03*
D27*
X14975Y12240D03*
D30*
X15680Y12240D03*
D107*
X13380Y12250D03*
D26*
X14220Y12250D03*
D45*
X14565Y12250D03*
D27*
X14985Y12250D03*
D30*
X15690Y12250D03*
D107*
X13370Y12260D03*
D26*
X14220Y12260D03*
D81*
X14570Y12260D03*
D27*
X14995Y12260D03*
D30*
X15700Y12260D03*
D101*
X13365Y12270D03*
D26*
X14220Y12270D03*
D80*
X14575Y12270D03*
D27*
X15005Y12270D03*
D29*
X15705Y12270D03*
D101*
X13355Y12280D03*
D88*
X14010Y12280D03*
D26*
X14220Y12280D03*
D33*
X14580Y12280D03*
D27*
X15015Y12280D03*
D29*
X15715Y12280D03*
D101*
X13345Y12290D03*
D41*
X14005Y12290D03*
D26*
X14220Y12290D03*
D62*
X14585Y12290D03*
D27*
X15025Y12290D03*
D62*
X15745Y12290D03*
D141*
X13340Y12300D03*
D23*
X14000Y12300D03*
D26*
X14220Y12300D03*
D142*
X14590Y12300D03*
D27*
X15035Y12300D03*
D81*
X15760Y12300D03*
D141*
X13330Y12310D03*
D15*
X13995Y12310D03*
D26*
X14220Y12310D03*
D43*
X14595Y12310D03*
D27*
X15045Y12310D03*
D45*
X15775Y12310D03*
D141*
X13320Y12320D03*
D16*
X13990Y12320D03*
D26*
X14220Y12320D03*
D43*
X14605Y12320D03*
D27*
X15055Y12320D03*
D34*
X15780Y12320D03*
D106*
X13315Y12330D03*
D17*
X13985Y12330D03*
D26*
X14220Y12330D03*
D84*
X14610Y12330D03*
D64*
X15190Y12330D03*
D34*
X15790Y12330D03*
D143*
X13310Y12340D03*
D18*
X13980Y12340D03*
D26*
X14220Y12340D03*
D29*
X14615Y12340D03*
D64*
X15200Y12340D03*
D83*
X15795Y12340D03*
D143*
X13300Y12350D03*
D19*
X13975Y12350D03*
D26*
X14220Y12350D03*
D30*
X14620Y12350D03*
D64*
X15210Y12350D03*
D34*
X15800Y12350D03*
D63*
X13295Y12360D03*
D20*
X13970Y12360D03*
D26*
X14220Y12360D03*
D30*
X14630Y12360D03*
D64*
X15220Y12360D03*
D41*
X15565Y12360D03*
D83*
X15805Y12360D03*
D63*
X13285Y12370D03*
D21*
X13965Y12370D03*
D26*
X14220Y12370D03*
D30*
X14640Y12370D03*
D64*
X15230Y12370D03*
D17*
X15565Y12370D03*
D34*
X15810Y12370D03*
D55*
X13280Y12380D03*
D22*
X13960Y12380D03*
D26*
X14220Y12380D03*
D30*
X14650Y12380D03*
D64*
X15240Y12380D03*
D19*
X15565Y12380D03*
D34*
X15810Y12380D03*
D144*
X13275Y12390D03*
D24*
X13955Y12390D03*
D26*
X14220Y12390D03*
D30*
X14660Y12390D03*
D64*
X15250Y12390D03*
D21*
X15565Y12390D03*
D34*
X15810Y12390D03*
D144*
X13265Y12400D03*
D37*
X13950Y12400D03*
D26*
X14220Y12400D03*
D30*
X14670Y12400D03*
D31*
X15255Y12400D03*
D21*
X15565Y12400D03*
D34*
X15820Y12400D03*
D145*
X13260Y12410D03*
D37*
X13940Y12410D03*
D26*
X14220Y12410D03*
D30*
X14680Y12410D03*
X15260Y12410D03*
D21*
X15565Y12410D03*
D34*
X15820Y12410D03*
D146*
X13255Y12420D03*
D37*
X13930Y12420D03*
D27*
X14225Y12420D03*
D30*
X14690Y12420D03*
D29*
X15265Y12420D03*
D20*
X15560Y12420D03*
D34*
X15820Y12420D03*
D146*
X13245Y12430D03*
D37*
X13920Y12430D03*
D38*
X14230Y12430D03*
D30*
X14700Y12430D03*
D84*
X15270Y12430D03*
D19*
X15565Y12430D03*
D45*
X15825Y12430D03*
D77*
X13240Y12440D03*
D37*
X13910Y12440D03*
D36*
X14235Y12440D03*
D30*
X14710Y12440D03*
D43*
X15275Y12440D03*
D18*
X15560Y12440D03*
D45*
X15825Y12440D03*
D54*
X13235Y12450D03*
D37*
X13900Y12450D03*
D39*
X14240Y12450D03*
D30*
X14720Y12450D03*
D142*
X15280Y12450D03*
D15*
X15565Y12450D03*
D81*
X15820Y12450D03*
D93*
X13230Y12460D03*
D37*
X13890Y12460D03*
D35*
X14240Y12460D03*
D30*
X14730Y12460D03*
D142*
X15290Y12460D03*
D81*
X15820Y12460D03*
D93*
X13220Y12470D03*
D37*
X13880Y12470D03*
D40*
X14240Y12470D03*
D30*
X14740Y12470D03*
D62*
X15295Y12470D03*
D81*
X15820Y12470D03*
D139*
X13215Y12480D03*
D37*
X13870Y12480D03*
D42*
X14240Y12480D03*
D30*
X14750Y12480D03*
D62*
X15305Y12480D03*
D33*
X15820Y12480D03*
D147*
X13210Y12490D03*
D37*
X13860Y12490D03*
D60*
X14240Y12490D03*
D30*
X14760Y12490D03*
D62*
X15315Y12490D03*
X15815Y12490D03*
D147*
X13200Y12500D03*
D37*
X13850Y12500D03*
D34*
X14240Y12500D03*
D30*
X14770Y12500D03*
D62*
X15325Y12500D03*
D142*
X15810Y12500D03*
D70*
X13195Y12510D03*
D37*
X13840Y12510D03*
D81*
X14240Y12510D03*
D30*
X14780Y12510D03*
D142*
X15340Y12510D03*
D84*
X15800Y12510D03*
D70*
X13185Y12520D03*
D37*
X13830Y12520D03*
D33*
X14240Y12520D03*
D30*
X14790Y12520D03*
D53*
X15580Y12520D03*
D70*
X13175Y12530D03*
D37*
X13820Y12530D03*
D142*
X14240Y12530D03*
D30*
X14800Y12530D03*
D79*
X15585Y12530D03*
D19*
X12625Y12540D03*
D147*
X13160Y12540D03*
D37*
X13810Y12540D03*
D84*
X14240Y12540D03*
D30*
X14810Y12540D03*
D148*
X15590Y12540D03*
D97*
X13045Y12550D03*
D37*
X13800Y12550D03*
D27*
X14125Y12550D03*
D35*
X14330Y12550D03*
D30*
X14820Y12550D03*
D78*
X15595Y12550D03*
D48*
X12770Y12560D03*
D37*
X13790Y12560D03*
D27*
X14115Y12560D03*
D35*
X14340Y12560D03*
D30*
X14830Y12560D03*
D137*
X15600Y12560D03*
D87*
X12750Y12570D03*
D37*
X13780Y12570D03*
D27*
X14105Y12570D03*
D35*
X14350Y12570D03*
D30*
X14840Y12570D03*
D82*
X15605Y12570D03*
D136*
X12735Y12580D03*
D37*
X13770Y12580D03*
D27*
X14095Y12580D03*
D35*
X14360Y12580D03*
D30*
X14850Y12580D03*
D52*
X15610Y12580D03*
D134*
X12720Y12590D03*
D37*
X13760Y12590D03*
D27*
X14085Y12590D03*
D35*
X14370Y12590D03*
D30*
X14860Y12590D03*
D135*
X15615Y12590D03*
D134*
X12710Y12600D03*
D37*
X13750Y12600D03*
D27*
X14075Y12600D03*
D35*
X14380Y12600D03*
D30*
X14870Y12600D03*
D149*
X15620Y12600D03*
D131*
X12665Y12610D03*
D37*
X13740Y12610D03*
D27*
X14065Y12610D03*
D35*
X14390Y12610D03*
D31*
X14885Y12610D03*
D150*
X15625Y12610D03*
D131*
X12655Y12620D03*
D37*
X13730Y12620D03*
D27*
X14055Y12620D03*
D35*
X14400Y12620D03*
D30*
X14890Y12620D03*
D51*
X15630Y12620D03*
D131*
X12645Y12630D03*
D37*
X13720Y12630D03*
D27*
X14045Y12630D03*
D35*
X14410Y12630D03*
D30*
X14900Y12630D03*
D133*
X15635Y12630D03*
D131*
X12635Y12640D03*
D37*
X13710Y12640D03*
D27*
X14035Y12640D03*
D35*
X14420Y12640D03*
D30*
X14910Y12640D03*
D151*
X15640Y12640D03*
D131*
X12625Y12650D03*
D37*
X13700Y12650D03*
D27*
X14025Y12650D03*
D35*
X14430Y12650D03*
D30*
X14920Y12650D03*
D127*
X15645Y12650D03*
D131*
X12615Y12660D03*
D15*
X12995Y12660D03*
D37*
X13690Y12660D03*
D27*
X14015Y12660D03*
D35*
X14440Y12660D03*
D30*
X14930Y12660D03*
D85*
X15650Y12660D03*
D48*
X12610Y12670D03*
D19*
X12995Y12670D03*
D37*
X13680Y12670D03*
D27*
X14005Y12670D03*
D35*
X14450Y12670D03*
D30*
X14940Y12670D03*
D85*
X15660Y12670D03*
D138*
X12605Y12680D03*
D19*
X12995Y12680D03*
D86*
X13425Y12680D03*
D27*
X13995Y12680D03*
D35*
X14460Y12680D03*
D30*
X14950Y12680D03*
D50*
X15665Y12680D03*
D138*
X12595Y12690D03*
D21*
X12995Y12690D03*
D86*
X13415Y12690D03*
D27*
X13985Y12690D03*
D35*
X14470Y12690D03*
D30*
X14960Y12690D03*
D128*
X15670Y12690D03*
D138*
X12595Y12700D03*
D21*
X12995Y12700D03*
D49*
X13410Y12700D03*
D27*
X13975Y12700D03*
D35*
X14480Y12700D03*
D30*
X14970Y12700D03*
D128*
X15680Y12700D03*
D87*
X12590Y12710D03*
D21*
X12995Y12710D03*
D132*
X13405Y12710D03*
D27*
X13965Y12710D03*
D35*
X14490Y12710D03*
D30*
X14980Y12710D03*
D130*
X15685Y12710D03*
D87*
X12590Y12720D03*
D19*
X12995Y12720D03*
D134*
X13400Y12720D03*
D27*
X13955Y12720D03*
D36*
X14515Y12720D03*
D30*
X14990Y12720D03*
D140*
X15690Y12720D03*
D136*
X12585Y12730D03*
D19*
X12995Y12730D03*
D136*
X13395Y12730D03*
D27*
X13945Y12730D03*
D38*
X14530Y12730D03*
D30*
X15000Y12730D03*
D140*
X15700Y12730D03*
D136*
X12585Y12740D03*
D17*
X12995Y12740D03*
D136*
X13385Y12740D03*
D27*
X13935Y12740D03*
D41*
X14215Y12740D03*
D27*
X14545Y12740D03*
D30*
X15010Y12740D03*
D86*
X15705Y12740D03*
D132*
X12585Y12750D03*
D87*
X13380Y12750D03*
D27*
X13925Y12750D03*
D15*
X14215Y12750D03*
D27*
X14555Y12750D03*
D30*
X15020Y12750D03*
D49*
X15710Y12750D03*
D132*
X12585Y12760D03*
D138*
X13375Y12760D03*
D27*
X13915Y12760D03*
D17*
X14215Y12760D03*
D38*
X14560Y12760D03*
D30*
X15030Y12760D03*
D132*
X15715Y12760D03*
D49*
X12580Y12770D03*
D138*
X13365Y12770D03*
D27*
X13905Y12770D03*
D19*
X14215Y12770D03*
D38*
X14570Y12770D03*
D30*
X15040Y12770D03*
D134*
X15720Y12770D03*
D86*
X12585Y12780D03*
D48*
X13360Y12780D03*
D27*
X13895Y12780D03*
D21*
X14215Y12780D03*
D38*
X14580Y12780D03*
D30*
X15050Y12780D03*
D134*
X15730Y12780D03*
D130*
X12585Y12790D03*
D48*
X13350Y12790D03*
D27*
X13885Y12790D03*
D24*
X14215Y12790D03*
D15*
X14385Y12790D03*
D36*
X14585Y12790D03*
D30*
X15060Y12790D03*
D136*
X15735Y12790D03*
D50*
X12585Y12800D03*
D48*
X13340Y12800D03*
D27*
X13875Y12800D03*
D37*
X14210Y12800D03*
D18*
X14390Y12800D03*
D39*
X14590Y12800D03*
D30*
X15070Y12800D03*
D87*
X15740Y12800D03*
D127*
X12585Y12810D03*
D138*
X13325Y12810D03*
D27*
X13865Y12810D03*
D25*
X14205Y12810D03*
D19*
X14385Y12810D03*
D28*
X14595Y12810D03*
D30*
X15080Y12810D03*
D138*
X15745Y12810D03*
D150*
X12585Y12820D03*
D87*
X13310Y12820D03*
D27*
X13855Y12820D03*
D26*
X14200Y12820D03*
D20*
X14390Y12820D03*
D35*
X14600Y12820D03*
D30*
X15090Y12820D03*
D48*
X15750Y12820D03*
D152*
X12900Y12830D03*
D27*
X13845Y12830D03*
X14195Y12830D03*
D21*
X14385Y12830D03*
D44*
X14605Y12830D03*
D30*
X15100Y12830D03*
D131*
X15755Y12830D03*
D153*
X12885Y12840D03*
D27*
X13835Y12840D03*
D38*
X14190Y12840D03*
D21*
X14385Y12840D03*
D40*
X14610Y12840D03*
D30*
X15110Y12840D03*
D73*
X15760Y12840D03*
D129*
X12420Y12850D03*
D27*
X13825Y12850D03*
D36*
X14185Y12850D03*
D20*
X14390Y12850D03*
D56*
X14615Y12850D03*
D30*
X15120Y12850D03*
D89*
X15765Y12850D03*
D129*
X12410Y12860D03*
D27*
X13815Y12860D03*
D39*
X14180Y12860D03*
D19*
X14385Y12860D03*
D42*
X14620Y12860D03*
D30*
X15130Y12860D03*
D71*
X15770Y12860D03*
D129*
X12400Y12870D03*
D27*
X13805Y12870D03*
D35*
X14180Y12870D03*
D17*
X14385Y12870D03*
D58*
X14625Y12870D03*
D30*
X15140Y12870D03*
D71*
X15780Y12870D03*
D129*
X12390Y12880D03*
D27*
X13795Y12880D03*
D44*
X14175Y12880D03*
D41*
X14385Y12880D03*
D83*
X14625Y12880D03*
D30*
X15150Y12880D03*
D47*
X15785Y12880D03*
D129*
X12380Y12890D03*
D27*
X13785Y12890D03*
D56*
X14175Y12890D03*
D34*
X14630Y12890D03*
D30*
X15160Y12890D03*
D47*
X15785Y12890D03*
D129*
X12370Y12900D03*
D27*
X13775Y12900D03*
D42*
X14170Y12900D03*
D81*
X14630Y12900D03*
D30*
X15170Y12900D03*
D47*
X15785Y12900D03*
D129*
X12360Y12910D03*
D27*
X13765Y12910D03*
D60*
X14170Y12910D03*
D33*
X14630Y12910D03*
D30*
X15180Y12910D03*
D154*
X15780Y12910D03*
D66*
X12355Y12920D03*
D27*
X13755Y12920D03*
D34*
X14170Y12920D03*
D142*
X14630Y12920D03*
D30*
X15190Y12920D03*
D154*
X15780Y12920D03*
D66*
X12345Y12930D03*
D27*
X13745Y12930D03*
D80*
X14175Y12930D03*
D29*
X14625Y12930D03*
D30*
X15200Y12930D03*
D154*
X15780Y12930D03*
D66*
X12335Y12940D03*
D27*
X13735Y12940D03*
D70*
X14415Y12940D03*
D30*
X15210Y12940D03*
D154*
X15780Y12940D03*
D46*
X12330Y12950D03*
D27*
X13725Y12950D03*
D139*
X14415Y12950D03*
D29*
X15215Y12950D03*
D154*
X15780Y12950D03*
D46*
X12320Y12960D03*
D27*
X13715Y12960D03*
D54*
X14415Y12960D03*
D84*
X15220Y12960D03*
D154*
X15780Y12960D03*
D29*
X12285Y12970D03*
D65*
X13250Y12970D03*
D48*
X14250Y12970D03*
D40*
X14740Y12970D03*
D43*
X15225Y12970D03*
D154*
X15780Y12970D03*
D84*
X12270Y12980D03*
D65*
X13240Y12980D03*
D131*
X14235Y12980D03*
D40*
X14750Y12980D03*
D142*
X15230Y12980D03*
D154*
X15780Y12980D03*
D43*
X12265Y12990D03*
D65*
X13230Y12990D03*
D131*
X14225Y12990D03*
D44*
X14765Y12990D03*
D62*
X15235Y12990D03*
D155*
X15775Y12990D03*
D142*
X12260Y13000D03*
D65*
X13220Y13000D03*
D131*
X14215Y13000D03*
D44*
X14775Y13000D03*
D33*
X15240Y13000D03*
D155*
X15775Y13000D03*
D142*
X12250Y13010D03*
D65*
X13210Y13010D03*
D131*
X14205Y13010D03*
D40*
X14780Y13010D03*
D80*
X15245Y13010D03*
D155*
X15775Y13010D03*
D62*
X12245Y13020D03*
D41*
X12525Y13020D03*
D65*
X13200Y13020D03*
D48*
X14200Y13020D03*
D40*
X14790Y13020D03*
D81*
X15250Y13020D03*
D155*
X15775Y13020D03*
D62*
X12245Y13030D03*
D17*
X12525Y13030D03*
D65*
X13190Y13030D03*
D48*
X14190Y13030D03*
D15*
X14575Y13030D03*
D56*
X14795Y13030D03*
D45*
X15255Y13030D03*
D155*
X15775Y13030D03*
D62*
X12245Y13040D03*
D19*
X12525Y13040D03*
D65*
X13180Y13040D03*
D138*
X14185Y13040D03*
D18*
X14570Y13040D03*
D56*
X14805Y13040D03*
D34*
X15260Y13040D03*
D129*
X15770Y13040D03*
D62*
X12235Y13050D03*
D20*
X12530Y13050D03*
D65*
X13170Y13050D03*
D83*
X14035Y13050D03*
D60*
X14330Y13050D03*
D19*
X14575Y13050D03*
D42*
X14810Y13050D03*
D83*
X15265Y13050D03*
D129*
X15770Y13050D03*
D62*
X12235Y13060D03*
D21*
X12525Y13060D03*
D95*
X13165Y13060D03*
D83*
X14025Y13060D03*
D58*
X14335Y13060D03*
D20*
X14570Y13060D03*
D58*
X14815Y13060D03*
D60*
X15270Y13060D03*
D129*
X15770Y13060D03*
D62*
X12235Y13070D03*
D21*
X12525Y13070D03*
D96*
X13160Y13070D03*
D83*
X14015Y13070D03*
D42*
X14340Y13070D03*
D21*
X14575Y13070D03*
D60*
X14820Y13070D03*
D58*
X15275Y13070D03*
D129*
X15770Y13070D03*
D62*
X12235Y13080D03*
D20*
X12530Y13080D03*
X12680Y13080D03*
D83*
X14005Y13080D03*
D56*
X14345Y13080D03*
D21*
X14575Y13080D03*
D83*
X14825Y13080D03*
D42*
X15280Y13080D03*
D66*
X15765Y13080D03*
D62*
X12235Y13090D03*
D19*
X12525Y13090D03*
X12675Y13090D03*
D83*
X13995Y13090D03*
D40*
X14350Y13090D03*
D20*
X14570Y13090D03*
D34*
X14830Y13090D03*
D42*
X15280Y13090D03*
D66*
X15765Y13090D03*
D142*
X12240Y13100D03*
D18*
X12530Y13100D03*
X12670Y13100D03*
D83*
X13985Y13100D03*
D44*
X14355Y13100D03*
D19*
X14575Y13100D03*
D34*
X14840Y13100D03*
D42*
X15280Y13100D03*
D66*
X15765Y13100D03*
D142*
X12240Y13110D03*
D15*
X12525Y13110D03*
D18*
X12660Y13110D03*
D83*
X13975Y13110D03*
D35*
X14360Y13110D03*
D17*
X14575Y13110D03*
D34*
X14850Y13110D03*
D42*
X15280Y13110D03*
D76*
X15765Y13110D03*
D142*
X12240Y13120D03*
D17*
X12655Y13120D03*
D83*
X13965Y13120D03*
D28*
X14365Y13120D03*
D41*
X14575Y13120D03*
D34*
X14860Y13120D03*
D40*
X15270Y13120D03*
D74*
X15770Y13120D03*
D43*
X12245Y13130D03*
D16*
X12650Y13130D03*
D83*
X13955Y13130D03*
D28*
X14375Y13130D03*
D34*
X14870Y13130D03*
D40*
X15270Y13130D03*
D64*
X15770Y13130D03*
D43*
X12245Y13140D03*
D16*
X12640Y13140D03*
D83*
X13945Y13140D03*
D39*
X14380Y13140D03*
D34*
X14880Y13140D03*
D44*
X15265Y13140D03*
D31*
X15775Y13140D03*
D84*
X12250Y13150D03*
D16*
X12630Y13150D03*
D83*
X13935Y13150D03*
D39*
X14390Y13150D03*
D83*
X14885Y13150D03*
D35*
X15260Y13150D03*
D30*
X15770Y13150D03*
D29*
X12255Y13160D03*
D16*
X12620Y13160D03*
D83*
X13925Y13160D03*
D39*
X14400Y13160D03*
D60*
X14890Y13160D03*
D35*
X15260Y13160D03*
D17*
X15475Y13160D03*
D30*
X15770Y13160D03*
D31*
X12265Y13170D03*
D16*
X12610Y13170D03*
D83*
X13915Y13170D03*
D28*
X14415Y13170D03*
D58*
X14895Y13170D03*
D35*
X15260Y13170D03*
D19*
X15475Y13170D03*
D84*
X15770Y13170D03*
D64*
X12280Y13180D03*
D17*
X12595Y13180D03*
D83*
X13905Y13180D03*
D35*
X14430Y13180D03*
D42*
X14900Y13180D03*
D35*
X15260Y13180D03*
D20*
X15470Y13180D03*
D84*
X15770Y13180D03*
D131*
X12345Y13190D03*
D83*
X13895Y13190D03*
D58*
X14465Y13190D03*
D56*
X14905Y13190D03*
D35*
X15260Y13190D03*
D21*
X15475Y13190D03*
D43*
X15765Y13190D03*
D73*
X12340Y13200D03*
D83*
X13885Y13200D03*
D58*
X14475Y13200D03*
D40*
X14910Y13200D03*
D35*
X15260Y13200D03*
D21*
X15475Y13200D03*
D43*
X15765Y13200D03*
D89*
X12335Y13210D03*
D113*
X13400Y13210D03*
D58*
X14485Y13210D03*
D44*
X14915Y13210D03*
D35*
X15260Y13210D03*
D20*
X15470Y13210D03*
D142*
X15760Y13210D03*
D71*
X12330Y13220D03*
D113*
X13390Y13220D03*
D58*
X14495Y13220D03*
D35*
X14920Y13220D03*
X15260Y13220D03*
D20*
X15470Y13220D03*
D142*
X15760Y13220D03*
D47*
X12325Y13230D03*
D113*
X13380Y13230D03*
D88*
X14190Y13230D03*
D58*
X14505Y13230D03*
D35*
X14920Y13230D03*
X15260Y13230D03*
D18*
X15470Y13230D03*
D62*
X15755Y13230D03*
D154*
X12320Y13240D03*
D113*
X13370Y13240D03*
D23*
X14190Y13240D03*
D58*
X14515Y13240D03*
D35*
X14920Y13240D03*
X15260Y13240D03*
D16*
X15470Y13240D03*
D62*
X15745Y13240D03*
D154*
X12310Y13250D03*
D113*
X13360Y13250D03*
D16*
X14190Y13250D03*
D58*
X14525Y13250D03*
D35*
X14920Y13250D03*
D44*
X15265Y13250D03*
D62*
X15745Y13250D03*
D155*
X12305Y13260D03*
D113*
X13350Y13260D03*
D18*
X14190Y13260D03*
D58*
X14535Y13260D03*
D35*
X14920Y13260D03*
D44*
X15265Y13260D03*
D62*
X15735Y13260D03*
D129*
X12300Y13270D03*
D113*
X13340Y13270D03*
D20*
X14190Y13270D03*
D58*
X14545Y13270D03*
D35*
X14920Y13270D03*
D40*
X15270Y13270D03*
D33*
X15730Y13270D03*
D74*
X12270Y13280D03*
D113*
X13330Y13280D03*
D22*
X14190Y13280D03*
D58*
X14555Y13280D03*
D35*
X14920Y13280D03*
D56*
X15275Y13280D03*
D62*
X15725Y13280D03*
D31*
X12255Y13290D03*
D113*
X13320Y13290D03*
D37*
X14190Y13290D03*
D42*
X14560Y13290D03*
D35*
X14920Y13290D03*
D42*
X15280Y13290D03*
D142*
X15720Y13290D03*
D29*
X12245Y13300D03*
D113*
X13310Y13300D03*
D26*
X14190Y13300D03*
D56*
X14565Y13300D03*
D35*
X14920Y13300D03*
D58*
X15285Y13300D03*
D84*
X15710Y13300D03*
X12240Y13310D03*
D113*
X13300Y13310D03*
D38*
X14190Y13310D03*
D40*
X14570Y13310D03*
D35*
X14920Y13310D03*
D34*
X15300Y13310D03*
D31*
X15695Y13310D03*
D84*
X12230Y13320D03*
D113*
X13290Y13320D03*
D39*
X14190Y13320D03*
D44*
X14575Y13320D03*
D35*
X14920Y13320D03*
D135*
X15525Y13320D03*
D84*
X12230Y13330D03*
D113*
X13280Y13330D03*
D35*
X14190Y13330D03*
X14580Y13330D03*
X14920Y13330D03*
D135*
X15525Y13330D03*
D43*
X12225Y13340D03*
D113*
X13270Y13340D03*
D40*
X14190Y13340D03*
D28*
X14585Y13340D03*
D35*
X14920Y13340D03*
D149*
X15520Y13340D03*
D43*
X12225Y13350D03*
D83*
X12785Y13350D03*
D44*
X13765Y13350D03*
D42*
X14190Y13350D03*
D39*
X14590Y13350D03*
D35*
X14920Y13350D03*
D149*
X15520Y13350D03*
D142*
X12220Y13360D03*
D15*
X12505Y13360D03*
D83*
X12775Y13360D03*
D44*
X13755Y13360D03*
D60*
X14190Y13360D03*
D36*
X14595Y13360D03*
D35*
X14920Y13360D03*
D149*
X15520Y13360D03*
D142*
X12220Y13370D03*
D18*
X12510Y13370D03*
D83*
X12765Y13370D03*
D44*
X13745Y13370D03*
D34*
X14190Y13370D03*
D38*
X14600Y13370D03*
D35*
X14920Y13370D03*
D149*
X15520Y13370D03*
D142*
X12220Y13380D03*
D20*
X12510Y13380D03*
D60*
X12760Y13380D03*
D44*
X13735Y13380D03*
D81*
X14190Y13380D03*
D38*
X14600Y13380D03*
D35*
X14920Y13380D03*
D150*
X15515Y13380D03*
D142*
X12220Y13390D03*
D20*
X12510Y13390D03*
D58*
X12755Y13390D03*
D44*
X13725Y13390D03*
D33*
X14190Y13390D03*
D38*
X14600Y13390D03*
D35*
X14920Y13390D03*
D150*
X15515Y13390D03*
D142*
X12220Y13400D03*
D20*
X12510Y13400D03*
D42*
X12750Y13400D03*
D44*
X13715Y13400D03*
D142*
X14190Y13400D03*
D38*
X14600Y13400D03*
D35*
X14920Y13400D03*
D150*
X15515Y13400D03*
D142*
X12220Y13410D03*
D20*
X12510Y13410D03*
D56*
X12745Y13410D03*
D44*
X13705Y13410D03*
D84*
X14190Y13410D03*
D38*
X14600Y13410D03*
D35*
X14920Y13410D03*
D51*
X15510Y13410D03*
D142*
X12220Y13420D03*
D20*
X12510Y13420D03*
D56*
X12735Y13420D03*
D44*
X13695Y13420D03*
D30*
X14190Y13420D03*
D38*
X14600Y13420D03*
D35*
X14920Y13420D03*
D51*
X15510Y13420D03*
D43*
X12225Y13430D03*
D19*
X12505Y13430D03*
D40*
X12730Y13430D03*
D44*
X13685Y13430D03*
D31*
X14185Y13430D03*
D38*
X14600Y13430D03*
D35*
X14920Y13430D03*
D51*
X15510Y13430D03*
D43*
X12225Y13440D03*
D17*
X12505Y13440D03*
D44*
X12725Y13440D03*
X13675Y13440D03*
D64*
X14180Y13440D03*
D38*
X14600Y13440D03*
D35*
X14920Y13440D03*
D133*
X15505Y13440D03*
D84*
X12230Y13450D03*
D23*
X12510Y13450D03*
D44*
X12715Y13450D03*
X13665Y13450D03*
D32*
X14175Y13450D03*
D38*
X14600Y13450D03*
D35*
X14920Y13450D03*
D133*
X15505Y13450D03*
D84*
X12230Y13460D03*
D35*
X12710Y13460D03*
D44*
X13655Y13460D03*
D74*
X14170Y13460D03*
D38*
X14600Y13460D03*
D35*
X14920Y13460D03*
D151*
X15500Y13460D03*
D29*
X12235Y13470D03*
D35*
X12700Y13470D03*
D44*
X13645Y13470D03*
D76*
X14165Y13470D03*
D38*
X14600Y13470D03*
D35*
X14920Y13470D03*
D127*
X15495Y13470D03*
D30*
X12240Y13480D03*
D35*
X12690Y13480D03*
D43*
X13165Y13480D03*
D44*
X13635Y13480D03*
D46*
X14160Y13480D03*
D38*
X14600Y13480D03*
D35*
X14920Y13480D03*
D127*
X15495Y13480D03*
D64*
X12250Y13490D03*
D44*
X12675Y13490D03*
D43*
X13155Y13490D03*
D44*
X13625Y13490D03*
D66*
X14155Y13490D03*
D38*
X14600Y13490D03*
D35*
X14920Y13490D03*
D85*
X15490Y13490D03*
D32*
X12265Y13500D03*
D40*
X12660Y13500D03*
D43*
X13145Y13500D03*
D44*
X13615Y13500D03*
D129*
X14150Y13500D03*
D38*
X14600Y13500D03*
D28*
X14915Y13500D03*
D128*
X15490Y13500D03*
D51*
X12410Y13510D03*
D43*
X13135Y13510D03*
D44*
X13605Y13510D03*
D155*
X14145Y13510D03*
D38*
X14600Y13510D03*
D39*
X14910Y13510D03*
D130*
X15495Y13510D03*
D133*
X12405Y13520D03*
D43*
X13125Y13520D03*
D44*
X13595Y13520D03*
D154*
X14140Y13520D03*
D38*
X14600Y13520D03*
D36*
X14905Y13520D03*
D86*
X15495Y13520D03*
D151*
X12400Y13530D03*
D43*
X13115Y13530D03*
D44*
X13585Y13530D03*
D47*
X14135Y13530D03*
D38*
X14600Y13530D03*
D36*
X14905Y13530D03*
D49*
X15490Y13530D03*
D86*
X12375Y13540D03*
D43*
X13105Y13540D03*
D44*
X13575Y13540D03*
D71*
X14130Y13540D03*
D38*
X14600Y13540D03*
X14900Y13540D03*
D134*
X15490Y13540D03*
D132*
X12365Y13550D03*
D43*
X13095Y13550D03*
D44*
X13565Y13550D03*
D34*
X14010Y13550D03*
D39*
X14290Y13550D03*
D38*
X14600Y13550D03*
X14900Y13550D03*
D16*
X15090Y13550D03*
D136*
X15485Y13550D03*
X12355Y13560D03*
D43*
X13085Y13560D03*
D44*
X13555Y13560D03*
D60*
X13990Y13560D03*
D27*
X14305Y13560D03*
D38*
X14600Y13560D03*
D27*
X14895Y13560D03*
D18*
X15090Y13560D03*
D87*
X15480Y13560D03*
X12350Y13570D03*
D43*
X13075Y13570D03*
D44*
X13545Y13570D03*
D58*
X13975Y13570D03*
D25*
X14315Y13570D03*
D38*
X14600Y13570D03*
D27*
X14895Y13570D03*
D20*
X15090Y13570D03*
D48*
X15480Y13570D03*
X12350Y13580D03*
D43*
X13065Y13580D03*
D44*
X13535Y13580D03*
D58*
X13965Y13580D03*
D37*
X14320Y13580D03*
D38*
X14600Y13580D03*
D27*
X14895Y13580D03*
D20*
X15090Y13580D03*
D131*
X15475Y13580D03*
D48*
X12350Y13590D03*
D43*
X13055Y13590D03*
D44*
X13525Y13590D03*
D58*
X13955Y13590D03*
D24*
X14325Y13590D03*
D38*
X14600Y13590D03*
D27*
X14895Y13590D03*
D20*
X15090Y13590D03*
D73*
X15470Y13590D03*
D131*
X12345Y13600D03*
D43*
X13045Y13600D03*
D44*
X13515Y13600D03*
D60*
X13950Y13600D03*
D22*
X14330Y13600D03*
D38*
X14600Y13600D03*
D27*
X14895Y13600D03*
D20*
X15090Y13600D03*
D71*
X15460Y13600D03*
D73*
X12350Y13610D03*
D16*
X12720Y13610D03*
D43*
X13035Y13610D03*
D44*
X13505Y13610D03*
D60*
X13940Y13610D03*
D22*
X14330Y13610D03*
D38*
X14600Y13610D03*
D27*
X14895Y13610D03*
D20*
X15090Y13610D03*
D47*
X15455Y13610D03*
D89*
X12345Y13620D03*
D18*
X12720Y13620D03*
D43*
X13025Y13620D03*
D44*
X13495Y13620D03*
D83*
X13935Y13620D03*
D16*
X14180Y13620D03*
D21*
X14335Y13620D03*
D38*
X14600Y13620D03*
D27*
X14895Y13620D03*
D18*
X15090Y13620D03*
D47*
X15445Y13620D03*
D71*
X12350Y13630D03*
D20*
X12720Y13630D03*
D43*
X13015Y13630D03*
D44*
X13485Y13630D03*
D83*
X13925Y13630D03*
D18*
X14180Y13630D03*
D21*
X14335Y13630D03*
D38*
X14600Y13630D03*
X14900Y13630D03*
D16*
X15090Y13630D03*
D155*
X15435Y13630D03*
D71*
X12350Y13640D03*
D20*
X12720Y13640D03*
D142*
X13010Y13640D03*
D44*
X13475Y13640D03*
D34*
X13920Y13640D03*
D20*
X14180Y13640D03*
D21*
X14335Y13640D03*
D38*
X14600Y13640D03*
X14900Y13640D03*
D66*
X15425Y13640D03*
D47*
X12355Y13650D03*
D20*
X12720Y13650D03*
D62*
X13005Y13650D03*
D44*
X13465Y13650D03*
D45*
X13915Y13650D03*
D20*
X14180Y13650D03*
D21*
X14335Y13650D03*
D38*
X14600Y13650D03*
D36*
X14905Y13650D03*
D46*
X15410Y13650D03*
D47*
X12355Y13660D03*
D20*
X12720Y13660D03*
D60*
X12970Y13660D03*
D44*
X13455Y13660D03*
D81*
X13910Y13660D03*
D21*
X14185Y13660D03*
X14335Y13660D03*
D38*
X14600Y13660D03*
D36*
X14905Y13660D03*
D76*
X15395Y13660D03*
D154*
X12360Y13670D03*
D20*
X12720Y13670D03*
D42*
X12960Y13670D03*
D44*
X13445Y13670D03*
D80*
X13905Y13670D03*
D21*
X14185Y13670D03*
X14335Y13670D03*
D38*
X14600Y13670D03*
D39*
X14910Y13670D03*
D74*
X15390Y13670D03*
D154*
X12360Y13680D03*
D18*
X12720Y13680D03*
D42*
X12950Y13680D03*
D44*
X13435Y13680D03*
D33*
X13900Y13680D03*
D20*
X14180Y13680D03*
D21*
X14335Y13680D03*
D38*
X14600Y13680D03*
D28*
X14915Y13680D03*
D46*
X15380Y13680D03*
D154*
X12370Y13690D03*
D16*
X12720Y13690D03*
D56*
X12945Y13690D03*
D44*
X13425Y13690D03*
D33*
X13890Y13690D03*
D19*
X14185Y13690D03*
D21*
X14335Y13690D03*
D38*
X14600Y13690D03*
D44*
X14925Y13690D03*
D46*
X15370Y13690D03*
D154*
X12370Y13700D03*
D40*
X12940Y13700D03*
D44*
X13415Y13700D03*
D33*
X13880Y13700D03*
D17*
X14185Y13700D03*
D21*
X14335Y13700D03*
D38*
X14600Y13700D03*
D42*
X14940Y13700D03*
D155*
X15355Y13700D03*
X12375Y13710D03*
D40*
X12930Y13710D03*
D41*
X13155Y13710D03*
D44*
X13405Y13710D03*
D33*
X13870Y13710D03*
D22*
X14330Y13710D03*
D38*
X14600Y13710D03*
D78*
X15205Y13710D03*
D155*
X12385Y13720D03*
D40*
X12930Y13720D03*
D17*
X13155Y13720D03*
D44*
X13395Y13720D03*
D33*
X13860Y13720D03*
D22*
X14330Y13720D03*
D38*
X14600Y13720D03*
D78*
X15205Y13720D03*
D154*
X12390Y13730D03*
D56*
X12925Y13730D03*
D19*
X13155Y13730D03*
D44*
X13385Y13730D03*
D33*
X13850Y13730D03*
D24*
X14325Y13730D03*
D38*
X14600Y13730D03*
D78*
X15205Y13730D03*
D154*
X12400Y13740D03*
D56*
X12915Y13740D03*
D20*
X13150Y13740D03*
D44*
X13375Y13740D03*
D33*
X13840Y13740D03*
D37*
X14320Y13740D03*
D38*
X14600Y13740D03*
D78*
X15205Y13740D03*
D154*
X12410Y13750D03*
D42*
X12910Y13750D03*
D20*
X13150Y13750D03*
D35*
X13370Y13750D03*
D33*
X13830Y13750D03*
D25*
X14315Y13750D03*
D38*
X14600Y13750D03*
D137*
X15200Y13750D03*
D47*
X12425Y13760D03*
D60*
X12900Y13760D03*
D20*
X13150Y13760D03*
D28*
X13365Y13760D03*
D33*
X13820Y13760D03*
D26*
X14310Y13760D03*
D38*
X14600Y13760D03*
D137*
X15200Y13760D03*
D54*
X12605Y13770D03*
D20*
X13150Y13770D03*
D39*
X13360Y13770D03*
D33*
X13810Y13770D03*
D36*
X14295Y13770D03*
D38*
X14600Y13770D03*
D137*
X15200Y13770D03*
D132*
X12485Y13780D03*
D39*
X12940Y13780D03*
D20*
X13150Y13780D03*
D36*
X13355Y13780D03*
D33*
X13800Y13780D03*
D40*
X14270Y13780D03*
D38*
X14600Y13780D03*
D137*
X15200Y13780D03*
D138*
X12475Y13790D03*
D38*
X12960Y13790D03*
D18*
X13150Y13790D03*
D38*
X13350Y13790D03*
D33*
X13790Y13790D03*
D56*
X14265Y13790D03*
D38*
X14600Y13790D03*
D137*
X15200Y13790D03*
D131*
X12475Y13800D03*
D27*
X12965Y13800D03*
D16*
X13150Y13800D03*
D38*
X13340Y13800D03*
D33*
X13780Y13800D03*
D42*
X14260Y13800D03*
D38*
X14600Y13800D03*
D82*
X15195Y13800D03*
D89*
X12475Y13810D03*
D26*
X12970Y13810D03*
D27*
X13335Y13810D03*
D33*
X13770Y13810D03*
D58*
X14255Y13810D03*
D38*
X14600Y13810D03*
D52*
X15200Y13810D03*
D47*
X12475Y13820D03*
D26*
X12980Y13820D03*
X13330Y13820D03*
D33*
X13760Y13820D03*
D60*
X14250Y13820D03*
D27*
X14595Y13820D03*
D135*
X15205Y13820D03*
D155*
X12475Y13830D03*
D25*
X12985Y13830D03*
D26*
X13320Y13830D03*
D33*
X13750Y13830D03*
D83*
X14245Y13830D03*
D26*
X14590Y13830D03*
D149*
X15210Y13830D03*
D66*
X12475Y13840D03*
D26*
X12990Y13840D03*
X13310Y13840D03*
D33*
X13740Y13840D03*
D34*
X14240Y13840D03*
D25*
X14585Y13840D03*
D150*
X15205Y13840D03*
D46*
X12480Y13850D03*
D17*
X12815Y13850D03*
D26*
X13000Y13850D03*
X13300Y13850D03*
D33*
X13730Y13850D03*
D45*
X14235Y13850D03*
D25*
X14585Y13850D03*
D51*
X15210Y13850D03*
D76*
X12485Y13860D03*
D19*
X12815Y13860D03*
D27*
X13005Y13860D03*
D26*
X13290Y13860D03*
D33*
X13720Y13860D03*
D81*
X14230Y13860D03*
D37*
X14580Y13860D03*
D41*
X14755Y13860D03*
D133*
X15205Y13860D03*
D64*
X12490Y13870D03*
D19*
X12815Y13870D03*
D39*
X13020Y13870D03*
D27*
X13275Y13870D03*
D33*
X13710Y13870D03*
D80*
X14225Y13870D03*
D37*
X14580Y13870D03*
D17*
X14755Y13870D03*
D151*
X15210Y13870D03*
D31*
X12495Y13880D03*
D21*
X12815Y13880D03*
D32*
X13135Y13880D03*
D33*
X13700Y13880D03*
X14220Y13880D03*
D37*
X14580Y13880D03*
D19*
X14755Y13880D03*
D151*
X15210Y13880D03*
D29*
X12505Y13890D03*
D21*
X12815Y13890D03*
D64*
X13130Y13890D03*
D33*
X13690Y13890D03*
D62*
X14215Y13890D03*
D37*
X14580Y13890D03*
D20*
X14750Y13890D03*
D127*
X15205Y13890D03*
D84*
X12510Y13900D03*
D21*
X12815Y13900D03*
D31*
X13125Y13900D03*
D33*
X13680Y13900D03*
D142*
X14210Y13900D03*
D37*
X14580Y13900D03*
D21*
X14755Y13900D03*
D127*
X15205Y13900D03*
D142*
X12520Y13910D03*
D19*
X12815Y13910D03*
D30*
X13120Y13910D03*
D33*
X13670Y13910D03*
D43*
X14205Y13910D03*
D37*
X14580Y13910D03*
D21*
X14755Y13910D03*
D85*
X15200Y13910D03*
D62*
X12525Y13920D03*
D19*
X12815Y13920D03*
D84*
X13120Y13920D03*
D33*
X13660Y13920D03*
D84*
X14200Y13920D03*
D37*
X14580Y13920D03*
D20*
X14750Y13920D03*
D85*
X15200Y13920D03*
D62*
X12535Y13930D03*
D15*
X12815Y13930D03*
D142*
X13120Y13930D03*
D33*
X13650Y13930D03*
D29*
X14195Y13930D03*
D37*
X14580Y13930D03*
D19*
X14755Y13930D03*
D50*
X15195Y13930D03*
D62*
X12535Y13940D03*
D33*
X13120Y13940D03*
X13640Y13940D03*
D30*
X14190Y13940D03*
D37*
X14580Y13940D03*
D17*
X14755Y13940D03*
D128*
X15190Y13940D03*
D62*
X12545Y13950D03*
D81*
X13120Y13950D03*
D33*
X13630Y13950D03*
D31*
X14185Y13950D03*
D37*
X14580Y13950D03*
D15*
X14755Y13950D03*
D50*
X15185Y13950D03*
D62*
X12545Y13960D03*
D34*
X13120Y13960D03*
D33*
X13620Y13960D03*
D64*
X14180Y13960D03*
D25*
X14585Y13960D03*
D128*
X15180Y13960D03*
D62*
X12555Y13970D03*
D60*
X13120Y13970D03*
D33*
X13610Y13970D03*
D32*
X14175Y13970D03*
D26*
X14590Y13970D03*
D128*
X15170Y13970D03*
D142*
X12560Y13980D03*
D42*
X13120Y13980D03*
D33*
X13600Y13980D03*
D74*
X14170Y13980D03*
D26*
X14590Y13980D03*
D50*
X15165Y13980D03*
D43*
X12575Y13990D03*
D40*
X13120Y13990D03*
D33*
X13590Y13990D03*
D76*
X14165Y13990D03*
D38*
X14600Y13990D03*
D50*
X15155Y13990D03*
D29*
X12595Y14000D03*
D35*
X13120Y14000D03*
D33*
X13580Y14000D03*
D46*
X14160Y14000D03*
D36*
X14605Y14000D03*
D50*
X15145Y14000D03*
D74*
X12620Y14010D03*
D39*
X13120Y14010D03*
D33*
X13570Y14010D03*
D66*
X14155Y14010D03*
D28*
X14615Y14010D03*
D151*
X15130Y14010D03*
D74*
X12630Y14020D03*
D38*
X13120Y14020D03*
D33*
X13560Y14020D03*
D129*
X14150Y14020D03*
D141*
X14990Y14020D03*
D74*
X12640Y14030D03*
D26*
X13120Y14030D03*
D33*
X13550Y14030D03*
D155*
X14145Y14030D03*
D106*
X14985Y14030D03*
D76*
X12645Y14040D03*
D37*
X13120Y14040D03*
D33*
X13540Y14040D03*
D155*
X14135Y14040D03*
D143*
X14980Y14040D03*
D76*
X12655Y14050D03*
D33*
X13530Y14050D03*
D155*
X14125Y14050D03*
D63*
X14975Y14050D03*
D76*
X12665Y14060D03*
D33*
X13520Y14060D03*
D155*
X14115Y14060D03*
D55*
X14970Y14060D03*
D76*
X12675Y14070D03*
D33*
X13510Y14070D03*
D155*
X14105Y14070D03*
D144*
X14965Y14070D03*
D46*
X12680Y14080D03*
D33*
X13500Y14080D03*
D155*
X14095Y14080D03*
D145*
X14960Y14080D03*
D46*
X12690Y14090D03*
D33*
X13490Y14090D03*
D155*
X14085Y14090D03*
D146*
X14955Y14090D03*
D46*
X12700Y14100D03*
D17*
X13345Y14100D03*
D39*
X13550Y14100D03*
D155*
X14075Y14100D03*
D146*
X14945Y14100D03*
D46*
X12710Y14110D03*
D16*
X13330Y14110D03*
D26*
X13560Y14110D03*
D35*
X13930Y14110D03*
D38*
X14220Y14110D03*
D146*
X14935Y14110D03*
D46*
X12720Y14120D03*
D16*
X13320Y14120D03*
D37*
X13560Y14120D03*
D35*
X13920Y14120D03*
D25*
X14225Y14120D03*
D146*
X14925Y14120D03*
D46*
X12730Y14130D03*
D16*
X13310Y14130D03*
D22*
X13560Y14130D03*
D28*
X13905Y14130D03*
D24*
X14225Y14130D03*
D146*
X14915Y14130D03*
D46*
X12740Y14140D03*
D16*
X13300Y14140D03*
D20*
X13560Y14140D03*
D28*
X13895Y14140D03*
D21*
X14225Y14140D03*
D77*
X14900Y14140D03*
D46*
X12750Y14150D03*
D16*
X13290Y14150D03*
D35*
X13890Y14150D03*
D77*
X14890Y14150D03*
D46*
X12760Y14160D03*
D17*
X13285Y14160D03*
D35*
X13880Y14160D03*
D41*
X14085Y14160D03*
D54*
X14875Y14160D03*
D76*
X12775Y14170D03*
D17*
X13275Y14170D03*
D15*
X13425Y14170D03*
D44*
X13875Y14170D03*
D17*
X14085Y14170D03*
D54*
X14865Y14170D03*
D135*
X12935Y14180D03*
D18*
X13420Y14180D03*
D44*
X13865Y14180D03*
D19*
X14085Y14180D03*
D93*
X14850Y14180D03*
D149*
X12940Y14190D03*
D20*
X13420Y14190D03*
D40*
X13860Y14190D03*
D20*
X14090Y14190D03*
D139*
X14835Y14190D03*
D51*
X12950Y14200D03*
D20*
X13420Y14200D03*
D56*
X13855Y14200D03*
D21*
X14085Y14200D03*
D147*
X14820Y14200D03*
D133*
X12955Y14210D03*
D20*
X13420Y14210D03*
D42*
X13850Y14210D03*
D21*
X14085Y14210D03*
D70*
X14805Y14210D03*
D127*
X12965Y14220D03*
D20*
X13420Y14220D03*
D58*
X13845Y14220D03*
D20*
X14090Y14220D03*
D53*
X14790Y14220D03*
D50*
X12975Y14230D03*
D20*
X13420Y14230D03*
D60*
X13840Y14230D03*
D19*
X14085Y14230D03*
D148*
X14770Y14230D03*
D130*
X12985Y14240D03*
D19*
X13425Y14240D03*
D83*
X13835Y14240D03*
D18*
X14090Y14240D03*
D82*
X14745Y14240D03*
D86*
X12995Y14250D03*
D17*
X13425Y14250D03*
D34*
X13830Y14250D03*
D15*
X14085Y14250D03*
D150*
X14715Y14250D03*
D132*
X13015Y14260D03*
D23*
X13420Y14260D03*
D81*
X13830Y14260D03*
D51*
X14700Y14260D03*
D87*
X13030Y14270D03*
D80*
X13825Y14270D03*
D51*
X14690Y14270D03*
D48*
X13050Y14280D03*
D154*
X13750Y14280D03*
D93*
X14610Y14280D03*
D154*
X13090Y14290D03*
D71*
X13750Y14290D03*
D93*
X14600Y14290D03*
D154*
X13100Y14300D03*
D73*
X13750Y14300D03*
D93*
X14590Y14300D03*
D154*
X13120Y14310D03*
D138*
X13745Y14310D03*
D77*
X14580Y14310D03*
D69*
X13465Y14320D03*
D146*
X14565Y14320D03*
D156*
X13945Y14330D03*
D157*
X13945Y14340D03*
D158*
X13955Y14350D03*
D159*
X13955Y14360D03*
D160*
X13955Y14370D03*
D161*
X13960Y14380D03*
D162*
X13960Y14390D03*
D163*
X13965Y14400D03*
D164*
X13965Y14410D03*
D165*
X13965Y14420D03*
D166*
X13970Y14430D03*
D167*
X13975Y14440D03*
D168*
X13980Y14450D03*
D169*
X13980Y14460D03*
D170*
X13990Y14470D03*
D126*
X13710Y14480D03*
D89*
X14555Y14480D03*
D97*
X13715Y14490D03*
D155*
X14555Y14490D03*
D100*
X13730Y14500D03*
D76*
X14555Y14500D03*
D143*
X13740Y14510D03*
D30*
X14550Y14510D03*
D77*
X13760Y14520D03*
D33*
X14550Y14520D03*
D41*
X13415Y14530D03*
D19*
X13485Y14530D03*
D73*
X13910Y14530D03*
D58*
X14555Y14530D03*
D154*
X13910Y14540D03*
D26*
X14550Y14540D03*
D46*
X13910Y14550D03*
D30*
X13910Y14560D03*
D33*
X13910Y14570D03*
D42*
X13910Y14580D03*
D22*
X13910Y14590D03*
D36*
X14805Y10210D03*
D39*
X14150Y10330D03*
D36*
X14085Y10270D03*
D35*
X14600Y10400D03*
X14610Y10390D03*
X14560Y10430D03*
X14550Y10440D03*
X14540Y10450D03*
D27*
X13945Y10940D03*
X14855Y10940D03*
D26*
X13880Y11100D03*
X14040Y11200D03*
X14530Y11390D03*
D15*
X14625Y11390D03*
D88*
X14650Y11390D03*
D92*
X14395Y11130D03*
D27*
X14905Y11220D03*
X14905Y11230D03*
X14905Y11210D03*
D26*
X14900Y11080D03*
D36*
X14025Y10210D03*
X14015Y10200D03*
X14815Y10200D03*
D38*
X14910Y9960D03*
X14910Y9950D03*
D92*
X14405Y9880D03*
D27*
X13895Y9830D03*
X13895Y9840D03*
D41*
X14735Y10100D03*
D14*
X13100Y900D02*
X13100Y60D01*
X13100Y900D02*
X13540Y900D01*
X13540Y60D01*
X13100Y60D01*
D12*
X12990Y60D02*
X12650Y60D01*
X12650Y230D01*
X12706Y287D01*
X12820Y287D01*
X12877Y230D01*
X12877Y60D01*
X12877Y173D02*
X12990Y287D01*
X12763Y428D02*
X12650Y542D01*
X12990Y542D01*
X12990Y655D02*
X12990Y428D01*
X12990Y797D02*
X12990Y1023D01*
X12990Y797D02*
X12763Y1023D01*
X12706Y1023D01*
X12650Y967D01*
X12650Y853D01*
X12706Y797D01*
D14*
X6020Y900D02*
X6020Y60D01*
X6020Y900D02*
X6460Y900D01*
X6460Y60D01*
X6020Y60D01*
D12*
X5910Y60D02*
X5570Y60D01*
X5570Y230D01*
X5626Y287D01*
X5740Y287D01*
X5797Y230D01*
X5797Y60D01*
X5797Y173D02*
X5910Y287D01*
X5683Y428D02*
X5570Y542D01*
X5910Y542D01*
X5910Y655D02*
X5910Y428D01*
X5626Y797D02*
X5570Y853D01*
X5570Y967D01*
X5626Y1023D01*
X5683Y1023D01*
X5740Y967D01*
X5740Y910D01*
X5740Y967D02*
X5797Y1023D01*
X5853Y1023D01*
X5910Y967D01*
X5910Y853D01*
X5853Y797D01*
D14*
X18080Y1860D02*
X18080Y2700D01*
X18520Y2700D01*
X18520Y1860D01*
X18080Y1860D01*
D12*
X17970Y1860D02*
X17630Y1860D01*
X17630Y2030D01*
X17686Y2087D01*
X17800Y2087D01*
X17857Y2030D01*
X17857Y1860D01*
X17857Y1973D02*
X17970Y2087D01*
X17743Y2228D02*
X17630Y2342D01*
X17970Y2342D01*
X17970Y2455D02*
X17970Y2228D01*
X17970Y2767D02*
X17630Y2767D01*
X17800Y2597D01*
X17800Y2823D01*
D14*
X8060Y2700D02*
X8060Y1860D01*
X8060Y2700D02*
X8500Y2700D01*
X8500Y1860D01*
X8060Y1860D01*
D12*
X7950Y1860D02*
X7610Y1860D01*
X7610Y2030D01*
X7666Y2087D01*
X7780Y2087D01*
X7837Y2030D01*
X7837Y1860D01*
X7837Y1973D02*
X7950Y2087D01*
X7723Y2228D02*
X7610Y2342D01*
X7950Y2342D01*
X7950Y2455D02*
X7950Y2228D01*
X7610Y2597D02*
X7610Y2823D01*
X7610Y2597D02*
X7780Y2597D01*
X7723Y2710D01*
X7723Y2767D01*
X7780Y2823D01*
X7893Y2823D01*
X7950Y2767D01*
X7950Y2653D01*
X7893Y2597D01*
D14*
X8060Y900D02*
X8060Y60D01*
X8060Y900D02*
X8500Y900D01*
X8500Y60D01*
X8060Y60D01*
D12*
X7950Y60D02*
X7610Y60D01*
X7610Y230D01*
X7666Y287D01*
X7780Y287D01*
X7837Y230D01*
X7837Y60D01*
X7837Y173D02*
X7950Y287D01*
X7723Y428D02*
X7610Y542D01*
X7950Y542D01*
X7950Y655D02*
X7950Y428D01*
X7666Y910D02*
X7610Y1023D01*
X7666Y910D02*
X7780Y797D01*
X7893Y797D01*
X7950Y853D01*
X7950Y967D01*
X7893Y1023D01*
X7837Y1023D01*
X7780Y967D01*
X7780Y797D01*
D14*
X10090Y1850D02*
X10090Y2690D01*
X10530Y2690D01*
X10530Y1850D01*
X10090Y1850D01*
D12*
X9980Y1850D02*
X9640Y1850D01*
X9640Y2020D01*
X9696Y2077D01*
X9810Y2077D01*
X9867Y2020D01*
X9867Y1850D01*
X9867Y1963D02*
X9980Y2077D01*
X9753Y2218D02*
X9640Y2332D01*
X9980Y2332D01*
X9980Y2445D02*
X9980Y2218D01*
X9640Y2587D02*
X9640Y2813D01*
X9696Y2813D01*
X9923Y2587D01*
X9980Y2587D01*
D14*
X20060Y900D02*
X20060Y60D01*
X20060Y900D02*
X20500Y900D01*
X20500Y60D01*
X20060Y60D01*
D12*
X19890Y60D02*
X19550Y60D01*
X19550Y230D01*
X19606Y287D01*
X19720Y287D01*
X19777Y230D01*
X19777Y60D01*
X19777Y173D02*
X19890Y287D01*
X19663Y428D02*
X19550Y542D01*
X19890Y542D01*
X19890Y655D02*
X19890Y428D01*
X19606Y797D02*
X19550Y853D01*
X19550Y967D01*
X19606Y1023D01*
X19663Y1023D01*
X19720Y967D01*
X19777Y1023D01*
X19833Y1023D01*
X19890Y967D01*
X19890Y853D01*
X19833Y797D01*
X19777Y797D01*
X19720Y853D01*
X19663Y797D01*
X19606Y797D01*
X19720Y853D02*
X19720Y967D01*
D14*
X3020Y1860D02*
X3020Y2700D01*
X3460Y2700D01*
X3460Y1860D01*
X3020Y1860D01*
D12*
X2910Y1860D02*
X2570Y1860D01*
X2570Y2030D01*
X2626Y2087D01*
X2740Y2087D01*
X2797Y2030D01*
X2797Y1860D01*
X2797Y1973D02*
X2910Y2087D01*
X2683Y2228D02*
X2570Y2342D01*
X2910Y2342D01*
X2910Y2455D02*
X2910Y2228D01*
X2853Y2597D02*
X2910Y2653D01*
X2910Y2767D01*
X2853Y2823D01*
X2626Y2823D01*
X2570Y2767D01*
X2570Y2653D01*
X2626Y2597D01*
X2683Y2597D01*
X2740Y2653D01*
X2740Y2823D01*
D14*
X16050Y860D02*
X16050Y20D01*
X16050Y860D02*
X16490Y860D01*
X16490Y20D01*
X16050Y20D01*
D12*
X15940Y20D02*
X15600Y20D01*
X15600Y190D01*
X15656Y247D01*
X15770Y247D01*
X15827Y190D01*
X15827Y20D01*
X15827Y133D02*
X15940Y247D01*
X15713Y388D02*
X15600Y502D01*
X15940Y502D01*
X15940Y615D02*
X15940Y388D01*
X15713Y757D02*
X15600Y870D01*
X15940Y870D01*
X15940Y757D02*
X15940Y983D01*
D14*
X4100Y15080D02*
X3460Y15080D01*
X3460Y15400D01*
X4100Y15400D01*
X4100Y15080D01*
D12*
X2632Y15414D02*
X2575Y15470D01*
X2462Y15470D01*
X2405Y15414D01*
X2405Y15187D01*
X2462Y15130D01*
X2575Y15130D01*
X2632Y15187D01*
X2773Y15357D02*
X2887Y15470D01*
X2887Y15130D01*
X3000Y15130D02*
X2773Y15130D01*
X3142Y15470D02*
X3369Y15470D01*
X3142Y15470D02*
X3142Y15300D01*
X3255Y15357D01*
X3312Y15357D01*
X3369Y15300D01*
X3369Y15187D01*
X3312Y15130D01*
X3198Y15130D01*
X3142Y15187D01*
D14*
X3000Y15600D02*
X4200Y15600D01*
X3000Y15600D02*
X3000Y16200D01*
X4200Y16200D01*
X4200Y15600D01*
D12*
X2513Y16008D02*
X2456Y16065D01*
X2343Y16065D01*
X2286Y16008D01*
X2286Y15781D01*
X2343Y15725D01*
X2456Y15725D01*
X2513Y15781D01*
X2768Y16008D02*
X2881Y16065D01*
X2768Y16008D02*
X2654Y15895D01*
X2654Y15781D01*
X2711Y15725D01*
X2824Y15725D01*
X2881Y15781D01*
X2881Y15838D01*
X2824Y15895D01*
X2654Y15895D01*
D14*
X9120Y15000D02*
X9120Y13800D01*
X8520Y13800D01*
X8520Y15000D01*
X9120Y15000D01*
D12*
X8712Y13373D02*
X8655Y13316D01*
X8655Y13203D01*
X8712Y13146D01*
X8939Y13146D01*
X8995Y13203D01*
X8995Y13316D01*
X8939Y13373D01*
X8655Y13514D02*
X8655Y13741D01*
X8655Y13514D02*
X8825Y13514D01*
X8769Y13628D01*
X8769Y13684D01*
X8825Y13741D01*
X8939Y13741D01*
X8995Y13684D01*
X8995Y13571D01*
X8939Y13514D01*
D14*
X9640Y14320D02*
X9640Y14960D01*
X9640Y14320D02*
X9320Y14320D01*
X9320Y14960D01*
X9640Y14960D01*
D12*
X9366Y13432D02*
X9310Y13375D01*
X9310Y13262D01*
X9366Y13205D01*
X9593Y13205D01*
X9650Y13262D01*
X9650Y13375D01*
X9593Y13432D01*
X9423Y13573D02*
X9310Y13687D01*
X9650Y13687D01*
X9650Y13800D02*
X9650Y13573D01*
X9650Y14112D02*
X9310Y14112D01*
X9480Y13942D01*
X9480Y14169D01*
D171*
X-4134Y-394D02*
X-4132Y-428D01*
X-4128Y-462D01*
X-4120Y-496D01*
X-4110Y-528D01*
X-4097Y-560D01*
X-4081Y-591D01*
X-4063Y-620D01*
X-4042Y-647D01*
X-4019Y-672D01*
X-3993Y-695D01*
X-3966Y-716D01*
X-3937Y-735D01*
X-3907Y-751D01*
X-3875Y-764D01*
X-3842Y-774D01*
X-3809Y-781D01*
X-3774Y-786D01*
X-3740Y-787D01*
X-1575Y-787D01*
X-1540Y-786D01*
X-1506Y-781D01*
X-1473Y-774D01*
X-1440Y-764D01*
X-1408Y-751D01*
X-1378Y-735D01*
X-1349Y-716D01*
X-1322Y-695D01*
X-1296Y-672D01*
X-1273Y-647D01*
X-1252Y-620D01*
X-1234Y-591D01*
X-1218Y-560D01*
X-1205Y-528D01*
X-1195Y-496D01*
X-1187Y-462D01*
X-1183Y-428D01*
X-1181Y-394D01*
X-1181Y2165D01*
X-1180Y2200D01*
X-1175Y2234D01*
X-1168Y2267D01*
X-1157Y2300D01*
X-1144Y2332D01*
X-1128Y2362D01*
X-1110Y2391D01*
X-1089Y2418D01*
X-1066Y2444D01*
X-1040Y2467D01*
X-1013Y2488D01*
X-984Y2506D01*
X-954Y2522D01*
X-922Y2535D01*
X-889Y2546D01*
X-856Y2553D01*
X-822Y2558D01*
X-787Y2559D01*
X-394Y2559D01*
X-359Y2558D01*
X-325Y2553D01*
X-292Y2546D01*
X-259Y2535D01*
X-227Y2522D01*
X-197Y2506D01*
X-168Y2488D01*
X-141Y2467D01*
X-115Y2444D01*
X-92Y2418D01*
X-71Y2391D01*
X-53Y2362D01*
X-37Y2332D01*
X-24Y2300D01*
X-13Y2267D01*
X-6Y2234D01*
X-1Y2200D01*
X0Y2165D01*
X0Y394D01*
X4Y291D01*
X18Y189D01*
X40Y88D01*
X71Y-10D01*
X111Y-105D01*
X158Y-197D01*
X214Y-284D01*
X276Y-365D01*
X346Y-441D01*
X422Y-511D01*
X504Y-574D01*
X591Y-629D01*
X682Y-677D01*
X777Y-716D01*
X875Y-747D01*
X976Y-769D01*
X1078Y-783D01*
X1181Y-787D01*
X24409Y-787D01*
X24512Y-783D01*
X24615Y-769D01*
X24715Y-747D01*
X24813Y-716D01*
X24909Y-677D01*
X25000Y-629D01*
X25087Y-574D01*
X25169Y-511D01*
X25245Y-441D01*
X25314Y-365D01*
X25377Y-284D01*
X25432Y-197D01*
X25480Y-105D01*
X25519Y-10D01*
X25550Y88D01*
X25573Y189D01*
X25586Y291D01*
X25591Y394D01*
X25591Y2165D01*
X25592Y2200D01*
X25597Y2234D01*
X25604Y2267D01*
X25614Y2300D01*
X25627Y2332D01*
X25643Y2362D01*
X25662Y2391D01*
X25683Y2418D01*
X25706Y2444D01*
X25731Y2467D01*
X25758Y2488D01*
X25787Y2506D01*
X25818Y2522D01*
X25850Y2535D01*
X25882Y2546D01*
X25916Y2553D01*
X25950Y2558D01*
X25984Y2559D01*
X26378Y2559D01*
X26412Y2558D01*
X26446Y2553D01*
X26480Y2546D01*
X26513Y2535D01*
X26544Y2522D01*
X26575Y2506D01*
X26604Y2488D01*
X26631Y2467D01*
X26656Y2444D01*
X26680Y2418D01*
X26700Y2391D01*
X26719Y2362D01*
X26735Y2332D01*
X26748Y2300D01*
X26758Y2267D01*
X26766Y2234D01*
X26770Y2200D01*
X26772Y2165D01*
X26772Y-394D01*
X26773Y-428D01*
X26778Y-462D01*
X26785Y-496D01*
X26795Y-528D01*
X26809Y-560D01*
X26824Y-591D01*
X26843Y-620D01*
X26864Y-647D01*
X26887Y-672D01*
X26912Y-695D01*
X26940Y-716D01*
X26969Y-735D01*
X26999Y-751D01*
X27031Y-764D01*
X27063Y-774D01*
X27097Y-781D01*
X27131Y-786D01*
X27165Y-787D01*
X29331Y-787D01*
X29365Y-786D01*
X29399Y-781D01*
X29433Y-774D01*
X29465Y-764D01*
X29497Y-751D01*
X29528Y-735D01*
X29557Y-716D01*
X29584Y-695D01*
X29609Y-672D01*
X29632Y-647D01*
X29653Y-620D01*
X29672Y-591D01*
X29688Y-560D01*
X29701Y-528D01*
X29711Y-496D01*
X29718Y-462D01*
X29723Y-428D01*
X29724Y-394D01*
X29724Y21654D01*
X29723Y21688D01*
X29718Y21722D01*
X29711Y21755D01*
X29701Y21788D01*
X29688Y21820D01*
X29672Y21850D01*
X29653Y21879D01*
X29632Y21907D01*
X29609Y21932D01*
X29584Y21955D01*
X29557Y21976D01*
X29528Y21994D01*
X29497Y22010D01*
X29465Y22024D01*
X29433Y22034D01*
X29399Y22041D01*
X29365Y22046D01*
X29331Y22047D01*
X27165Y22047D01*
X27131Y22046D01*
X27097Y22041D01*
X27063Y22034D01*
X27031Y22024D01*
X26999Y22010D01*
X26969Y21994D01*
X26940Y21976D01*
X26912Y21955D01*
X26887Y21932D01*
X26864Y21907D01*
X26843Y21879D01*
X26824Y21850D01*
X26809Y21820D01*
X26795Y21788D01*
X26785Y21755D01*
X26778Y21722D01*
X26773Y21688D01*
X26772Y21654D01*
X26772Y19094D01*
X26770Y19060D01*
X26766Y19026D01*
X26758Y18993D01*
X26748Y18960D01*
X26735Y18928D01*
X26719Y18898D01*
X26700Y18869D01*
X26680Y18841D01*
X26656Y18816D01*
X26631Y18793D01*
X26604Y18772D01*
X26575Y18754D01*
X26544Y18738D01*
X26513Y18725D01*
X26480Y18714D01*
X26446Y18707D01*
X26412Y18702D01*
X26378Y18701D01*
X25984Y18701D01*
X25950Y18702D01*
X25916Y18707D01*
X25882Y18714D01*
X25850Y18725D01*
X25818Y18738D01*
X25787Y18754D01*
X25758Y18772D01*
X25731Y18793D01*
X25706Y18816D01*
X25683Y18841D01*
X25662Y18869D01*
X25643Y18898D01*
X25627Y18928D01*
X25614Y18960D01*
X25604Y18993D01*
X25597Y19026D01*
X25592Y19060D01*
X25591Y19094D01*
X25591Y20866D01*
X25586Y20969D01*
X25573Y21071D01*
X25550Y21172D01*
X25519Y21270D01*
X25480Y21365D01*
X25432Y21457D01*
X25377Y21544D01*
X25314Y21625D01*
X25245Y21701D01*
X25169Y21771D01*
X25087Y21834D01*
X25000Y21889D01*
X24909Y21937D01*
X24813Y21976D01*
X24715Y22007D01*
X24615Y22029D01*
X24512Y22043D01*
X24409Y22047D01*
X1181Y22047D01*
X1078Y22043D01*
X976Y22029D01*
X875Y22007D01*
X777Y21976D01*
X682Y21937D01*
X591Y21889D01*
X504Y21834D01*
X422Y21771D01*
X346Y21701D01*
X276Y21625D01*
X214Y21544D01*
X158Y21457D01*
X111Y21365D01*
X71Y21270D01*
X40Y21172D01*
X18Y21071D01*
X4Y20969D01*
X0Y20866D01*
X0Y19094D01*
X-1Y19060D01*
X-6Y19026D01*
X-13Y18993D01*
X-24Y18960D01*
X-37Y18928D01*
X-53Y18898D01*
X-71Y18869D01*
X-92Y18841D01*
X-115Y18816D01*
X-141Y18793D01*
X-168Y18772D01*
X-197Y18754D01*
X-227Y18738D01*
X-259Y18725D01*
X-292Y18714D01*
X-325Y18707D01*
X-359Y18702D01*
X-394Y18701D01*
X-787Y18701D01*
X-822Y18702D01*
X-856Y18707D01*
X-889Y18714D01*
X-922Y18725D01*
X-954Y18738D01*
X-984Y18754D01*
X-1013Y18772D01*
X-1040Y18793D01*
X-1066Y18816D01*
X-1089Y18841D01*
X-1110Y18869D01*
X-1128Y18898D01*
X-1144Y18928D01*
X-1157Y18960D01*
X-1168Y18993D01*
X-1175Y19026D01*
X-1180Y19060D01*
X-1181Y19094D01*
X-1181Y21654D01*
X-1183Y21688D01*
X-1187Y21722D01*
X-1195Y21755D01*
X-1205Y21788D01*
X-1218Y21820D01*
X-1234Y21850D01*
X-1252Y21879D01*
X-1273Y21907D01*
X-1296Y21932D01*
X-1322Y21955D01*
X-1349Y21976D01*
X-1378Y21994D01*
X-1408Y22010D01*
X-1440Y22024D01*
X-1473Y22034D01*
X-1506Y22041D01*
X-1540Y22046D01*
X-1575Y22047D01*
X-3740Y22047D01*
X-3774Y22046D01*
X-3809Y22041D01*
X-3842Y22034D01*
X-3875Y22024D01*
X-3907Y22010D01*
X-3937Y21994D01*
X-3966Y21976D01*
X-3993Y21955D01*
X-4019Y21932D01*
X-4042Y21907D01*
X-4063Y21879D01*
X-4081Y21850D01*
X-4097Y21820D01*
X-4110Y21788D01*
X-4120Y21755D01*
X-4128Y21722D01*
X-4132Y21688D01*
X-4134Y21654D01*
X-4134Y-394D01*
M02*
