G04 EAGLE Gerber RS-274X export*
G75*
%MOIN*%
%FSLAX34Y34*%
%LPD*%
%INSolderpaste Bottom*%
%IPPOS*%
%AMOC8*
5,1,8,0,0,1.08239X$1,22.5*%
G01*
%ADD10R,0.050000X0.090157*%
%ADD11C,0.010000*%


D10*
X22280Y2375D03*
X22280Y385D03*
X21280Y2375D03*
X21280Y385D03*
X20280Y2375D03*
X20280Y385D03*
X19280Y2375D03*
X19280Y385D03*
X18280Y2375D03*
X18280Y385D03*
X17280Y2375D03*
X17280Y385D03*
X16280Y2375D03*
X16280Y385D03*
X15280Y2375D03*
X15280Y385D03*
X14280Y2375D03*
X14280Y385D03*
X13280Y2375D03*
X13280Y385D03*
X12280Y2375D03*
X12280Y385D03*
X11280Y2375D03*
X11280Y385D03*
X10280Y2375D03*
X10280Y385D03*
X9280Y2375D03*
X9280Y385D03*
X8280Y2375D03*
X8280Y385D03*
X7280Y2375D03*
X7280Y385D03*
X6280Y2375D03*
X6280Y385D03*
X5280Y2375D03*
X5280Y385D03*
X4280Y2375D03*
X4280Y385D03*
X3280Y2375D03*
X3280Y385D03*
X22280Y2375D03*
X22280Y385D03*
X21280Y2375D03*
X21280Y385D03*
X20280Y2375D03*
X20280Y385D03*
X19280Y2375D03*
X19280Y385D03*
X18280Y2375D03*
X18280Y385D03*
X17280Y2375D03*
X17280Y385D03*
X16280Y2375D03*
X16280Y385D03*
X15280Y2375D03*
X15280Y385D03*
X14280Y2375D03*
X14280Y385D03*
X13280Y2375D03*
X13280Y385D03*
X12280Y2375D03*
X12280Y385D03*
X11280Y2375D03*
X11280Y385D03*
X10280Y2375D03*
X10280Y385D03*
X9280Y2375D03*
X9280Y385D03*
X8280Y2375D03*
X8280Y385D03*
X7280Y2375D03*
X7280Y385D03*
X6280Y2375D03*
X6280Y385D03*
X5280Y2375D03*
X5280Y385D03*
X4280Y2375D03*
X4280Y385D03*
X3280Y2375D03*
X3280Y385D03*
D11*
X-4134Y-394D02*
X-4132Y-428D01*
X-4128Y-462D01*
X-4120Y-496D01*
X-4110Y-528D01*
X-4097Y-560D01*
X-4081Y-591D01*
X-4063Y-620D01*
X-4042Y-647D01*
X-4019Y-672D01*
X-3993Y-695D01*
X-3966Y-716D01*
X-3937Y-735D01*
X-3907Y-751D01*
X-3875Y-764D01*
X-3842Y-774D01*
X-3809Y-781D01*
X-3774Y-786D01*
X-3740Y-787D01*
X-1575Y-787D01*
X-1540Y-786D01*
X-1506Y-781D01*
X-1473Y-774D01*
X-1440Y-764D01*
X-1408Y-751D01*
X-1378Y-735D01*
X-1349Y-716D01*
X-1322Y-695D01*
X-1296Y-672D01*
X-1273Y-647D01*
X-1252Y-620D01*
X-1234Y-591D01*
X-1218Y-560D01*
X-1205Y-528D01*
X-1195Y-496D01*
X-1187Y-462D01*
X-1183Y-428D01*
X-1181Y-394D01*
X-1181Y2165D01*
X-1180Y2200D01*
X-1175Y2234D01*
X-1168Y2267D01*
X-1157Y2300D01*
X-1144Y2332D01*
X-1128Y2362D01*
X-1110Y2391D01*
X-1089Y2418D01*
X-1066Y2444D01*
X-1040Y2467D01*
X-1013Y2488D01*
X-984Y2506D01*
X-954Y2522D01*
X-922Y2535D01*
X-889Y2546D01*
X-856Y2553D01*
X-822Y2558D01*
X-787Y2559D01*
X-394Y2559D01*
X-359Y2558D01*
X-325Y2553D01*
X-292Y2546D01*
X-259Y2535D01*
X-227Y2522D01*
X-197Y2506D01*
X-168Y2488D01*
X-141Y2467D01*
X-115Y2444D01*
X-92Y2418D01*
X-71Y2391D01*
X-53Y2362D01*
X-37Y2332D01*
X-24Y2300D01*
X-13Y2267D01*
X-6Y2234D01*
X-1Y2200D01*
X0Y2165D01*
X0Y394D01*
X4Y291D01*
X18Y189D01*
X40Y88D01*
X71Y-10D01*
X111Y-105D01*
X158Y-197D01*
X214Y-284D01*
X276Y-365D01*
X346Y-441D01*
X422Y-511D01*
X504Y-574D01*
X591Y-629D01*
X682Y-677D01*
X777Y-716D01*
X875Y-747D01*
X976Y-769D01*
X1078Y-783D01*
X1181Y-787D01*
X24409Y-787D01*
X24512Y-783D01*
X24615Y-769D01*
X24715Y-747D01*
X24813Y-716D01*
X24909Y-677D01*
X25000Y-629D01*
X25087Y-574D01*
X25169Y-511D01*
X25245Y-441D01*
X25314Y-365D01*
X25377Y-284D01*
X25432Y-197D01*
X25480Y-105D01*
X25519Y-10D01*
X25550Y88D01*
X25573Y189D01*
X25586Y291D01*
X25591Y394D01*
X25591Y2165D01*
X25592Y2200D01*
X25597Y2234D01*
X25604Y2267D01*
X25614Y2300D01*
X25627Y2332D01*
X25643Y2362D01*
X25662Y2391D01*
X25683Y2418D01*
X25706Y2444D01*
X25731Y2467D01*
X25758Y2488D01*
X25787Y2506D01*
X25818Y2522D01*
X25850Y2535D01*
X25882Y2546D01*
X25916Y2553D01*
X25950Y2558D01*
X25984Y2559D01*
X26378Y2559D01*
X26412Y2558D01*
X26446Y2553D01*
X26480Y2546D01*
X26513Y2535D01*
X26544Y2522D01*
X26575Y2506D01*
X26604Y2488D01*
X26631Y2467D01*
X26656Y2444D01*
X26680Y2418D01*
X26700Y2391D01*
X26719Y2362D01*
X26735Y2332D01*
X26748Y2300D01*
X26758Y2267D01*
X26766Y2234D01*
X26770Y2200D01*
X26772Y2165D01*
X26772Y-394D01*
X26773Y-428D01*
X26778Y-462D01*
X26785Y-496D01*
X26795Y-528D01*
X26809Y-560D01*
X26824Y-591D01*
X26843Y-620D01*
X26864Y-647D01*
X26887Y-672D01*
X26912Y-695D01*
X26940Y-716D01*
X26969Y-735D01*
X26999Y-751D01*
X27031Y-764D01*
X27063Y-774D01*
X27097Y-781D01*
X27131Y-786D01*
X27165Y-787D01*
X29331Y-787D01*
X29365Y-786D01*
X29399Y-781D01*
X29433Y-774D01*
X29465Y-764D01*
X29497Y-751D01*
X29528Y-735D01*
X29557Y-716D01*
X29584Y-695D01*
X29609Y-672D01*
X29632Y-647D01*
X29653Y-620D01*
X29672Y-591D01*
X29688Y-560D01*
X29701Y-528D01*
X29711Y-496D01*
X29718Y-462D01*
X29723Y-428D01*
X29724Y-394D01*
X29724Y21654D01*
X29723Y21688D01*
X29718Y21722D01*
X29711Y21755D01*
X29701Y21788D01*
X29688Y21820D01*
X29672Y21850D01*
X29653Y21879D01*
X29632Y21907D01*
X29609Y21932D01*
X29584Y21955D01*
X29557Y21976D01*
X29528Y21994D01*
X29497Y22010D01*
X29465Y22024D01*
X29433Y22034D01*
X29399Y22041D01*
X29365Y22046D01*
X29331Y22047D01*
X27165Y22047D01*
X27131Y22046D01*
X27097Y22041D01*
X27063Y22034D01*
X27031Y22024D01*
X26999Y22010D01*
X26969Y21994D01*
X26940Y21976D01*
X26912Y21955D01*
X26887Y21932D01*
X26864Y21907D01*
X26843Y21879D01*
X26824Y21850D01*
X26809Y21820D01*
X26795Y21788D01*
X26785Y21755D01*
X26778Y21722D01*
X26773Y21688D01*
X26772Y21654D01*
X26772Y19094D01*
X26770Y19060D01*
X26766Y19026D01*
X26758Y18993D01*
X26748Y18960D01*
X26735Y18928D01*
X26719Y18898D01*
X26700Y18869D01*
X26680Y18841D01*
X26656Y18816D01*
X26631Y18793D01*
X26604Y18772D01*
X26575Y18754D01*
X26544Y18738D01*
X26513Y18725D01*
X26480Y18714D01*
X26446Y18707D01*
X26412Y18702D01*
X26378Y18701D01*
X25984Y18701D01*
X25950Y18702D01*
X25916Y18707D01*
X25882Y18714D01*
X25850Y18725D01*
X25818Y18738D01*
X25787Y18754D01*
X25758Y18772D01*
X25731Y18793D01*
X25706Y18816D01*
X25683Y18841D01*
X25662Y18869D01*
X25643Y18898D01*
X25627Y18928D01*
X25614Y18960D01*
X25604Y18993D01*
X25597Y19026D01*
X25592Y19060D01*
X25591Y19094D01*
X25591Y20866D01*
X25586Y20969D01*
X25573Y21071D01*
X25550Y21172D01*
X25519Y21270D01*
X25480Y21365D01*
X25432Y21457D01*
X25377Y21544D01*
X25314Y21625D01*
X25245Y21701D01*
X25169Y21771D01*
X25087Y21834D01*
X25000Y21889D01*
X24909Y21937D01*
X24813Y21976D01*
X24715Y22007D01*
X24615Y22029D01*
X24512Y22043D01*
X24409Y22047D01*
X1181Y22047D01*
X1078Y22043D01*
X976Y22029D01*
X875Y22007D01*
X777Y21976D01*
X682Y21937D01*
X591Y21889D01*
X504Y21834D01*
X422Y21771D01*
X346Y21701D01*
X276Y21625D01*
X214Y21544D01*
X158Y21457D01*
X111Y21365D01*
X71Y21270D01*
X40Y21172D01*
X18Y21071D01*
X4Y20969D01*
X0Y20866D01*
X0Y19094D01*
X-1Y19060D01*
X-6Y19026D01*
X-13Y18993D01*
X-24Y18960D01*
X-37Y18928D01*
X-53Y18898D01*
X-71Y18869D01*
X-92Y18841D01*
X-115Y18816D01*
X-141Y18793D01*
X-168Y18772D01*
X-197Y18754D01*
X-227Y18738D01*
X-259Y18725D01*
X-292Y18714D01*
X-325Y18707D01*
X-359Y18702D01*
X-394Y18701D01*
X-787Y18701D01*
X-822Y18702D01*
X-856Y18707D01*
X-889Y18714D01*
X-922Y18725D01*
X-954Y18738D01*
X-984Y18754D01*
X-1013Y18772D01*
X-1040Y18793D01*
X-1066Y18816D01*
X-1089Y18841D01*
X-1110Y18869D01*
X-1128Y18898D01*
X-1144Y18928D01*
X-1157Y18960D01*
X-1168Y18993D01*
X-1175Y19026D01*
X-1180Y19060D01*
X-1181Y19094D01*
X-1181Y21654D01*
X-1183Y21688D01*
X-1187Y21722D01*
X-1195Y21755D01*
X-1205Y21788D01*
X-1218Y21820D01*
X-1234Y21850D01*
X-1252Y21879D01*
X-1273Y21907D01*
X-1296Y21932D01*
X-1322Y21955D01*
X-1349Y21976D01*
X-1378Y21994D01*
X-1408Y22010D01*
X-1440Y22024D01*
X-1473Y22034D01*
X-1506Y22041D01*
X-1540Y22046D01*
X-1575Y22047D01*
X-3740Y22047D01*
X-3774Y22046D01*
X-3809Y22041D01*
X-3842Y22034D01*
X-3875Y22024D01*
X-3907Y22010D01*
X-3937Y21994D01*
X-3966Y21976D01*
X-3993Y21955D01*
X-4019Y21932D01*
X-4042Y21907D01*
X-4063Y21879D01*
X-4081Y21850D01*
X-4097Y21820D01*
X-4110Y21788D01*
X-4120Y21755D01*
X-4128Y21722D01*
X-4132Y21688D01*
X-4134Y21654D01*
X-4134Y-394D01*
M02*
