G04 EAGLE Gerber RS-274X export*
G75*
%MOIN*%
%FSLAX34Y34*%
%LPD*%
%INSolderpaste Top*%
%IPPOS*%
%AMOC8*
5,1,8,0,0,1.08239X$1,22.5*%
G01*
%ADD10R,0.030000X0.027000*%
%ADD11R,0.135000X0.185000*%
%ADD12R,0.185000X0.135000*%
%ADD13R,0.087500X0.040000*%
%ADD14R,0.055000X0.013701*%
%ADD15R,0.031496X0.031496*%
%ADD16R,0.039370X0.021654*%
%ADD17R,0.017000X0.017000*%
%ADD18R,0.042000X0.035000*%
%ADD19R,0.027000X0.030000*%
%ADD20R,0.089000X0.085000*%
%ADD21R,0.035433X0.021654*%
%ADD22R,0.035433X0.027559*%
%ADD23R,0.062992X0.125984*%
%ADD24R,0.066000X0.114000*%
%ADD25R,0.035000X0.042000*%
%ADD26C,0.010000*%


D10*
X13320Y2310D03*
X13320Y2730D03*
D11*
X12000Y20270D03*
D12*
X23770Y10500D03*
D13*
X5613Y9750D03*
X3388Y9750D03*
X5613Y8750D03*
X3388Y8750D03*
X5613Y7750D03*
X3388Y7750D03*
X5613Y6750D03*
X3388Y6750D03*
X5613Y5750D03*
X3388Y5750D03*
X5613Y4750D03*
X3388Y4750D03*
D14*
X8548Y4069D03*
X8548Y4325D03*
X8548Y4581D03*
X8548Y4837D03*
X8548Y5093D03*
X8548Y5349D03*
X8548Y5605D03*
X8548Y5861D03*
X10768Y4069D03*
X10768Y4325D03*
X10768Y4581D03*
X10768Y4837D03*
X10768Y5093D03*
X10768Y5349D03*
X10768Y5605D03*
X10768Y5861D03*
X10768Y6116D03*
X10768Y6372D03*
X8548Y6116D03*
X8548Y6372D03*
D15*
X24250Y17455D03*
X24250Y18045D03*
D11*
X6250Y20270D03*
D16*
X3429Y14280D03*
X3429Y14654D03*
X3429Y13906D03*
X4491Y13906D03*
X4491Y14654D03*
X4491Y14280D03*
D17*
X4585Y13500D03*
X4895Y13500D03*
D18*
X2640Y13920D03*
X2640Y13240D03*
D19*
X4650Y15240D03*
X5070Y15240D03*
X5010Y14280D03*
X5430Y14280D03*
D17*
X4645Y15720D03*
X4955Y15720D03*
D18*
X3480Y11660D03*
X3480Y12340D03*
D20*
X17400Y13680D03*
X17400Y11760D03*
D21*
X10872Y15180D03*
X10872Y14806D03*
X10872Y15554D03*
X9888Y15554D03*
X9888Y14806D03*
D17*
X9900Y16045D03*
X9900Y16355D03*
D18*
X10500Y11660D03*
X10500Y12340D03*
D10*
X9360Y15750D03*
X9360Y15330D03*
D19*
X11490Y15720D03*
X11910Y15720D03*
X2970Y14640D03*
X2550Y14640D03*
D22*
X20760Y14416D03*
X20760Y13904D03*
X20220Y14416D03*
X20220Y13904D03*
X19680Y14416D03*
X19680Y13904D03*
D19*
X5070Y16200D03*
X4650Y16200D03*
D23*
X22750Y14250D03*
X22750Y12281D03*
D24*
X15400Y15730D03*
X17280Y15730D03*
D17*
X18670Y14715D03*
X18670Y14405D03*
D10*
X11340Y2190D03*
X11340Y2610D03*
D19*
X10170Y6780D03*
X9750Y6780D03*
D10*
X11340Y450D03*
X11340Y870D03*
D12*
X23920Y16250D03*
D18*
X11900Y16360D03*
X11900Y17040D03*
D17*
X11400Y4825D03*
X11400Y5135D03*
X11400Y5855D03*
X11400Y5545D03*
X12000Y4825D03*
X12000Y5135D03*
X12000Y5855D03*
X12000Y5545D03*
D10*
X23250Y17290D03*
X23250Y17710D03*
D11*
X7500Y15480D03*
X13630Y17360D03*
D10*
X13320Y270D03*
X13320Y690D03*
X6240Y270D03*
X6240Y690D03*
X18300Y2070D03*
X18300Y2490D03*
X8280Y2070D03*
X8280Y2490D03*
X8280Y270D03*
X8280Y690D03*
X10310Y2060D03*
X10310Y2480D03*
X20280Y270D03*
X20280Y690D03*
X3240Y2070D03*
X3240Y2490D03*
X16270Y230D03*
X16270Y650D03*
D17*
X3935Y15240D03*
X3625Y15240D03*
D25*
X3940Y15900D03*
X3260Y15900D03*
D18*
X8820Y14740D03*
X8820Y14060D03*
D17*
X9480Y14795D03*
X9480Y14485D03*
D26*
X-4134Y-394D02*
X-4132Y-428D01*
X-4128Y-462D01*
X-4120Y-496D01*
X-4110Y-528D01*
X-4097Y-560D01*
X-4081Y-591D01*
X-4063Y-620D01*
X-4042Y-647D01*
X-4019Y-672D01*
X-3993Y-695D01*
X-3966Y-716D01*
X-3937Y-735D01*
X-3907Y-751D01*
X-3875Y-764D01*
X-3842Y-774D01*
X-3809Y-781D01*
X-3774Y-786D01*
X-3740Y-787D01*
X-1575Y-787D01*
X-1540Y-786D01*
X-1506Y-781D01*
X-1473Y-774D01*
X-1440Y-764D01*
X-1408Y-751D01*
X-1378Y-735D01*
X-1349Y-716D01*
X-1322Y-695D01*
X-1296Y-672D01*
X-1273Y-647D01*
X-1252Y-620D01*
X-1234Y-591D01*
X-1218Y-560D01*
X-1205Y-528D01*
X-1195Y-496D01*
X-1187Y-462D01*
X-1183Y-428D01*
X-1181Y-394D01*
X-1181Y2165D01*
X-1180Y2200D01*
X-1175Y2234D01*
X-1168Y2267D01*
X-1157Y2300D01*
X-1144Y2332D01*
X-1128Y2362D01*
X-1110Y2391D01*
X-1089Y2418D01*
X-1066Y2444D01*
X-1040Y2467D01*
X-1013Y2488D01*
X-984Y2506D01*
X-954Y2522D01*
X-922Y2535D01*
X-889Y2546D01*
X-856Y2553D01*
X-822Y2558D01*
X-787Y2559D01*
X-394Y2559D01*
X-359Y2558D01*
X-325Y2553D01*
X-292Y2546D01*
X-259Y2535D01*
X-227Y2522D01*
X-197Y2506D01*
X-168Y2488D01*
X-141Y2467D01*
X-115Y2444D01*
X-92Y2418D01*
X-71Y2391D01*
X-53Y2362D01*
X-37Y2332D01*
X-24Y2300D01*
X-13Y2267D01*
X-6Y2234D01*
X-1Y2200D01*
X0Y2165D01*
X0Y394D01*
X4Y291D01*
X18Y189D01*
X40Y88D01*
X71Y-10D01*
X111Y-105D01*
X158Y-197D01*
X214Y-284D01*
X276Y-365D01*
X346Y-441D01*
X422Y-511D01*
X504Y-574D01*
X591Y-629D01*
X682Y-677D01*
X777Y-716D01*
X875Y-747D01*
X976Y-769D01*
X1078Y-783D01*
X1181Y-787D01*
X24409Y-787D01*
X24512Y-783D01*
X24615Y-769D01*
X24715Y-747D01*
X24813Y-716D01*
X24909Y-677D01*
X25000Y-629D01*
X25087Y-574D01*
X25169Y-511D01*
X25245Y-441D01*
X25314Y-365D01*
X25377Y-284D01*
X25432Y-197D01*
X25480Y-105D01*
X25519Y-10D01*
X25550Y88D01*
X25573Y189D01*
X25586Y291D01*
X25591Y394D01*
X25591Y2165D01*
X25592Y2200D01*
X25597Y2234D01*
X25604Y2267D01*
X25614Y2300D01*
X25627Y2332D01*
X25643Y2362D01*
X25662Y2391D01*
X25683Y2418D01*
X25706Y2444D01*
X25731Y2467D01*
X25758Y2488D01*
X25787Y2506D01*
X25818Y2522D01*
X25850Y2535D01*
X25882Y2546D01*
X25916Y2553D01*
X25950Y2558D01*
X25984Y2559D01*
X26378Y2559D01*
X26412Y2558D01*
X26446Y2553D01*
X26480Y2546D01*
X26513Y2535D01*
X26544Y2522D01*
X26575Y2506D01*
X26604Y2488D01*
X26631Y2467D01*
X26656Y2444D01*
X26680Y2418D01*
X26700Y2391D01*
X26719Y2362D01*
X26735Y2332D01*
X26748Y2300D01*
X26758Y2267D01*
X26766Y2234D01*
X26770Y2200D01*
X26772Y2165D01*
X26772Y-394D01*
X26773Y-428D01*
X26778Y-462D01*
X26785Y-496D01*
X26795Y-528D01*
X26809Y-560D01*
X26824Y-591D01*
X26843Y-620D01*
X26864Y-647D01*
X26887Y-672D01*
X26912Y-695D01*
X26940Y-716D01*
X26969Y-735D01*
X26999Y-751D01*
X27031Y-764D01*
X27063Y-774D01*
X27097Y-781D01*
X27131Y-786D01*
X27165Y-787D01*
X29331Y-787D01*
X29365Y-786D01*
X29399Y-781D01*
X29433Y-774D01*
X29465Y-764D01*
X29497Y-751D01*
X29528Y-735D01*
X29557Y-716D01*
X29584Y-695D01*
X29609Y-672D01*
X29632Y-647D01*
X29653Y-620D01*
X29672Y-591D01*
X29688Y-560D01*
X29701Y-528D01*
X29711Y-496D01*
X29718Y-462D01*
X29723Y-428D01*
X29724Y-394D01*
X29724Y21654D01*
X29723Y21688D01*
X29718Y21722D01*
X29711Y21755D01*
X29701Y21788D01*
X29688Y21820D01*
X29672Y21850D01*
X29653Y21879D01*
X29632Y21907D01*
X29609Y21932D01*
X29584Y21955D01*
X29557Y21976D01*
X29528Y21994D01*
X29497Y22010D01*
X29465Y22024D01*
X29433Y22034D01*
X29399Y22041D01*
X29365Y22046D01*
X29331Y22047D01*
X27165Y22047D01*
X27131Y22046D01*
X27097Y22041D01*
X27063Y22034D01*
X27031Y22024D01*
X26999Y22010D01*
X26969Y21994D01*
X26940Y21976D01*
X26912Y21955D01*
X26887Y21932D01*
X26864Y21907D01*
X26843Y21879D01*
X26824Y21850D01*
X26809Y21820D01*
X26795Y21788D01*
X26785Y21755D01*
X26778Y21722D01*
X26773Y21688D01*
X26772Y21654D01*
X26772Y19094D01*
X26770Y19060D01*
X26766Y19026D01*
X26758Y18993D01*
X26748Y18960D01*
X26735Y18928D01*
X26719Y18898D01*
X26700Y18869D01*
X26680Y18841D01*
X26656Y18816D01*
X26631Y18793D01*
X26604Y18772D01*
X26575Y18754D01*
X26544Y18738D01*
X26513Y18725D01*
X26480Y18714D01*
X26446Y18707D01*
X26412Y18702D01*
X26378Y18701D01*
X25984Y18701D01*
X25950Y18702D01*
X25916Y18707D01*
X25882Y18714D01*
X25850Y18725D01*
X25818Y18738D01*
X25787Y18754D01*
X25758Y18772D01*
X25731Y18793D01*
X25706Y18816D01*
X25683Y18841D01*
X25662Y18869D01*
X25643Y18898D01*
X25627Y18928D01*
X25614Y18960D01*
X25604Y18993D01*
X25597Y19026D01*
X25592Y19060D01*
X25591Y19094D01*
X25591Y20866D01*
X25586Y20969D01*
X25573Y21071D01*
X25550Y21172D01*
X25519Y21270D01*
X25480Y21365D01*
X25432Y21457D01*
X25377Y21544D01*
X25314Y21625D01*
X25245Y21701D01*
X25169Y21771D01*
X25087Y21834D01*
X25000Y21889D01*
X24909Y21937D01*
X24813Y21976D01*
X24715Y22007D01*
X24615Y22029D01*
X24512Y22043D01*
X24409Y22047D01*
X1181Y22047D01*
X1078Y22043D01*
X976Y22029D01*
X875Y22007D01*
X777Y21976D01*
X682Y21937D01*
X591Y21889D01*
X504Y21834D01*
X422Y21771D01*
X346Y21701D01*
X276Y21625D01*
X214Y21544D01*
X158Y21457D01*
X111Y21365D01*
X71Y21270D01*
X40Y21172D01*
X18Y21071D01*
X4Y20969D01*
X0Y20866D01*
X0Y19094D01*
X-1Y19060D01*
X-6Y19026D01*
X-13Y18993D01*
X-24Y18960D01*
X-37Y18928D01*
X-53Y18898D01*
X-71Y18869D01*
X-92Y18841D01*
X-115Y18816D01*
X-141Y18793D01*
X-168Y18772D01*
X-197Y18754D01*
X-227Y18738D01*
X-259Y18725D01*
X-292Y18714D01*
X-325Y18707D01*
X-359Y18702D01*
X-394Y18701D01*
X-787Y18701D01*
X-822Y18702D01*
X-856Y18707D01*
X-889Y18714D01*
X-922Y18725D01*
X-954Y18738D01*
X-984Y18754D01*
X-1013Y18772D01*
X-1040Y18793D01*
X-1066Y18816D01*
X-1089Y18841D01*
X-1110Y18869D01*
X-1128Y18898D01*
X-1144Y18928D01*
X-1157Y18960D01*
X-1168Y18993D01*
X-1175Y19026D01*
X-1180Y19060D01*
X-1181Y19094D01*
X-1181Y21654D01*
X-1183Y21688D01*
X-1187Y21722D01*
X-1195Y21755D01*
X-1205Y21788D01*
X-1218Y21820D01*
X-1234Y21850D01*
X-1252Y21879D01*
X-1273Y21907D01*
X-1296Y21932D01*
X-1322Y21955D01*
X-1349Y21976D01*
X-1378Y21994D01*
X-1408Y22010D01*
X-1440Y22024D01*
X-1473Y22034D01*
X-1506Y22041D01*
X-1540Y22046D01*
X-1575Y22047D01*
X-3740Y22047D01*
X-3774Y22046D01*
X-3809Y22041D01*
X-3842Y22034D01*
X-3875Y22024D01*
X-3907Y22010D01*
X-3937Y21994D01*
X-3966Y21976D01*
X-3993Y21955D01*
X-4019Y21932D01*
X-4042Y21907D01*
X-4063Y21879D01*
X-4081Y21850D01*
X-4097Y21820D01*
X-4110Y21788D01*
X-4120Y21755D01*
X-4128Y21722D01*
X-4132Y21688D01*
X-4134Y21654D01*
X-4134Y-394D01*
M02*
